G04*
G04 #@! TF.GenerationSoftware,Altium Limited,Altium Designer,19.1.5 (86)*
G04*
G04 Layer_Physical_Order=4*
G04 Layer_Color=16711680*
%FSLAX25Y25*%
%MOIN*%
G70*
G01*
G75*
%ADD11C,0.01000*%
%ADD33R,0.06000X0.06890*%
%ADD51R,0.04153X0.04347*%
%ADD52R,0.04035X0.04307*%
%ADD56R,0.03200X0.03200*%
%ADD57R,0.03200X0.03200*%
%ADD58R,0.02200X0.02200*%
%ADD59R,0.02200X0.02200*%
%ADD61R,0.03600X0.05800*%
G04:AMPARAMS|DCode=116|XSize=90mil|YSize=68mil|CornerRadius=27.2mil|HoleSize=0mil|Usage=FLASHONLY|Rotation=0.000|XOffset=0mil|YOffset=0mil|HoleType=Round|Shape=RoundedRectangle|*
%AMROUNDEDRECTD116*
21,1,0.09000,0.01360,0,0,0.0*
21,1,0.03560,0.06800,0,0,0.0*
1,1,0.05440,0.01780,-0.00680*
1,1,0.05440,-0.01780,-0.00680*
1,1,0.05440,-0.01780,0.00680*
1,1,0.05440,0.01780,0.00680*
%
%ADD116ROUNDEDRECTD116*%
%ADD117O,0.05000X0.05400*%
%ADD121C,0.02000*%
%ADD122C,0.15000*%
%ADD123C,0.01200*%
%ADD124C,0.00800*%
%ADD125C,0.12000*%
%ADD127C,0.00700*%
%ADD128C,0.03000*%
%ADD129C,0.04000*%
%ADD130C,0.05000*%
%ADD143C,0.06693*%
%ADD144C,0.08268*%
%ADD145C,0.07480*%
%ADD146C,0.06299*%
%ADD147O,0.13780X0.15748*%
%ADD148O,0.13780X0.15748*%
%ADD149R,0.13780X0.15748*%
%ADD150C,0.06693*%
%ADD151R,0.06693X0.06693*%
%ADD152O,0.06000X0.05500*%
G04:AMPARAMS|DCode=153|XSize=55mil|YSize=60mil|CornerRadius=6.88mil|HoleSize=0mil|Usage=FLASHONLY|Rotation=270.000|XOffset=0mil|YOffset=0mil|HoleType=Round|Shape=RoundedRectangle|*
%AMROUNDEDRECTD153*
21,1,0.05500,0.04625,0,0,270.0*
21,1,0.04125,0.06000,0,0,270.0*
1,1,0.01375,-0.02313,-0.02063*
1,1,0.01375,-0.02313,0.02063*
1,1,0.01375,0.02313,0.02063*
1,1,0.01375,0.02313,-0.02063*
%
%ADD153ROUNDEDRECTD153*%
%ADD154C,0.27559*%
%ADD155C,0.01968*%
%ADD156C,0.03150*%
%ADD171R,0.06890X0.06000*%
%ADD172R,0.11811X0.06260*%
%ADD173R,0.06260X0.11811*%
%ADD174R,0.21260X0.11417*%
%ADD175R,0.10000X0.05000*%
%ADD176R,0.05000X0.10000*%
%ADD177R,0.05800X0.03600*%
%ADD178R,0.05600X0.03800*%
%ADD179C,0.06260*%
%ADD180C,0.11000*%
%ADD181C,0.10000*%
%ADD182R,0.17500X0.19000*%
%ADD183R,0.26000X0.08000*%
%ADD184R,0.06000X0.03000*%
%ADD185R,0.22500X0.11000*%
%ADD186R,0.18000X0.17500*%
%ADD187R,0.26000X0.12000*%
%ADD188R,0.25000X0.06000*%
%ADD189R,0.18500X0.15500*%
%ADD190R,0.19000X0.07000*%
%ADD191R,0.27000X0.05000*%
%ADD192R,0.17000X0.14000*%
%ADD193R,0.42500X0.11000*%
%ADD194R,0.11000X0.15000*%
%ADD195R,0.15000X0.25500*%
%ADD196R,0.11000X0.06921*%
%ADD197R,0.23000X0.27500*%
G36*
X288456Y245416D02*
X286172Y243133D01*
X285000Y243287D01*
X283761Y243124D01*
X282606Y242646D01*
X281615Y241885D01*
X280854Y240894D01*
X280447Y239910D01*
X279747Y240049D01*
Y243247D01*
X270253D01*
Y233753D01*
X276111D01*
Y233554D01*
X276251Y232851D01*
X276649Y232256D01*
X281000Y227905D01*
Y226000D01*
X279500D01*
Y220000D01*
Y215653D01*
X277511D01*
Y213935D01*
X256100D01*
X255398Y213796D01*
X254802Y213398D01*
X241295Y199890D01*
X240570Y199746D01*
X240035Y199389D01*
X239335Y199716D01*
Y207189D01*
X243798Y211652D01*
X244196Y212247D01*
X244335Y212950D01*
Y218573D01*
X259500D01*
X260046Y218681D01*
X260509Y218991D01*
X260819Y219454D01*
X260927Y220000D01*
Y231000D01*
Y243500D01*
X260819Y244046D01*
X260509Y244509D01*
X260046Y244819D01*
X259500Y244927D01*
X242500D01*
X241954Y244819D01*
X241491Y244509D01*
X241181Y244046D01*
X241073Y243500D01*
Y242624D01*
X240373Y242279D01*
X239894Y242646D01*
X238739Y243124D01*
X237500Y243287D01*
X236261Y243124D01*
X235106Y242646D01*
X234115Y241885D01*
X233354Y240894D01*
X232946Y239910D01*
X232246Y240049D01*
Y243247D01*
X222754D01*
X222200Y243600D01*
Y244900D01*
X219800D01*
Y241000D01*
X219400D01*
Y240600D01*
X216600D01*
Y237389D01*
X210800D01*
Y245300D01*
X208454D01*
X208412Y245363D01*
X208786Y246063D01*
X288188D01*
X288456Y245416D01*
D02*
G37*
G36*
X147175Y245363D02*
X146954Y245319D01*
X146491Y245009D01*
X146181Y244546D01*
X146073Y244000D01*
Y242624D01*
X145373Y242279D01*
X144894Y242646D01*
X143739Y243124D01*
X142500Y243287D01*
X141261Y243124D01*
X140106Y242646D01*
X139115Y241885D01*
X138354Y240894D01*
X137946Y239910D01*
X137247Y240049D01*
Y243247D01*
X127753D01*
Y236349D01*
X127202Y235798D01*
X126804Y235202D01*
X126665Y234500D01*
Y230500D01*
X126000D01*
Y226000D01*
X125000D01*
Y220000D01*
Y216977D01*
X124965Y216800D01*
Y215573D01*
X122452D01*
Y208427D01*
X122190Y207835D01*
X106331D01*
X102989Y211178D01*
Y215553D01*
X100500D01*
Y220000D01*
Y226000D01*
X99500D01*
Y227905D01*
X105170Y233575D01*
X105288Y233751D01*
X106239Y233876D01*
X107394Y234354D01*
X108385Y235115D01*
X109146Y236106D01*
X109624Y237261D01*
X109787Y238500D01*
X109624Y239739D01*
X109146Y240894D01*
X108385Y241885D01*
X107394Y242646D01*
X106239Y243124D01*
X105000Y243287D01*
X103761Y243124D01*
X102606Y242646D01*
X101615Y241885D01*
X100854Y240894D01*
X100376Y239739D01*
X100353Y239567D01*
X99647D01*
X99624Y239739D01*
X99146Y240894D01*
X98385Y241885D01*
X97394Y242646D01*
X96239Y243124D01*
X95000Y243287D01*
X93761Y243124D01*
X92606Y242646D01*
X91615Y241885D01*
X90854Y240894D01*
X90447Y239910D01*
X89746Y240049D01*
Y243247D01*
X80253D01*
Y233753D01*
X87151D01*
X90500Y230405D01*
Y226000D01*
X89500D01*
Y220000D01*
Y216977D01*
X89465Y216800D01*
Y215573D01*
X86952D01*
Y210038D01*
X86306Y209770D01*
X77878Y218198D01*
X77282Y218596D01*
X76580Y218735D01*
X72860D01*
X72835Y218760D01*
Y220500D01*
X72696Y221202D01*
X72427Y221604D01*
Y232500D01*
Y244500D01*
X72319Y245046D01*
X72107Y245363D01*
X72283Y245881D01*
X72417Y246063D01*
X147106D01*
X147175Y245363D01*
D02*
G37*
G36*
X51717Y245881D02*
X51893Y245363D01*
X51681Y245046D01*
X51573Y244500D01*
Y242078D01*
X51135Y241930D01*
X50873Y241895D01*
X49894Y242646D01*
X48739Y243124D01*
X47500Y243287D01*
X46261Y243124D01*
X45106Y242646D01*
X44115Y241885D01*
X43354Y240894D01*
X42946Y239910D01*
X42246Y240049D01*
Y243247D01*
X32754D01*
Y233753D01*
X33765D01*
Y230400D01*
X33100D01*
Y225900D01*
X32100D01*
Y219900D01*
Y216877D01*
X32065Y216700D01*
Y211573D01*
X30812D01*
X30424Y212155D01*
X30481Y212295D01*
X31039Y214618D01*
X31227Y217000D01*
X31039Y219382D01*
X30481Y221705D01*
X29567Y223913D01*
X28319Y225950D01*
X26767Y227767D01*
X24950Y229318D01*
X22913Y230567D01*
X20705Y231481D01*
X18975Y231897D01*
Y232700D01*
X19300D01*
Y241300D01*
X12900D01*
Y232700D01*
X13125D01*
Y231921D01*
X11295Y231481D01*
X9087Y230567D01*
X7050Y229318D01*
X5233Y227767D01*
X3681Y225950D01*
X2637Y224246D01*
X1937Y224443D01*
Y246063D01*
X51583D01*
X51717Y245881D01*
D02*
G37*
G36*
X399563Y238379D02*
X398931Y238215D01*
X398863Y238222D01*
X398218Y239062D01*
X397358Y239722D01*
X396356Y240137D01*
X395280Y240279D01*
X391720D01*
X390645Y240137D01*
X389642Y239722D01*
X388782Y239062D01*
X388121Y238201D01*
X387706Y237199D01*
X387564Y236123D01*
Y234763D01*
X387706Y233688D01*
X388121Y232685D01*
X388782Y231825D01*
X389642Y231165D01*
X390645Y230749D01*
X391720Y230608D01*
X395280D01*
X396356Y230749D01*
X397358Y231165D01*
X398218Y231825D01*
X398863Y232665D01*
X398931Y232672D01*
X399563Y232508D01*
Y211036D01*
X398931Y210871D01*
X398863Y210879D01*
X398218Y211718D01*
X397358Y212379D01*
X396356Y212794D01*
X395280Y212936D01*
X391720D01*
X390645Y212794D01*
X389642Y212379D01*
X388782Y211718D01*
X388121Y210858D01*
X387706Y209856D01*
X387564Y208780D01*
Y207420D01*
X387706Y206345D01*
X388121Y205342D01*
X388782Y204482D01*
X389642Y203821D01*
X390645Y203406D01*
X391720Y203264D01*
X395280D01*
X396356Y203406D01*
X397358Y203821D01*
X398218Y204482D01*
X398863Y205321D01*
X398931Y205329D01*
X399563Y205164D01*
Y62591D01*
X399117Y62440D01*
X398863Y62402D01*
X397894Y63146D01*
X396739Y63624D01*
X395500Y63787D01*
X394328Y63633D01*
X393447Y64514D01*
Y94000D01*
X393261Y94936D01*
X392730Y95730D01*
X387730Y100730D01*
X387730Y100730D01*
X386845Y101616D01*
Y107400D01*
X387439Y107655D01*
X388900D01*
Y117345D01*
X380100D01*
Y107655D01*
X379506Y107400D01*
X377155D01*
Y98600D01*
X382939D01*
X384270Y97270D01*
X384270Y97270D01*
X388553Y92986D01*
Y80981D01*
X388400Y80345D01*
X387439Y80345D01*
X386845Y80600D01*
Y89400D01*
X380351D01*
X380246Y89930D01*
X379719Y90719D01*
X378930Y91246D01*
X378385Y91354D01*
X374937Y94802D01*
Y102608D01*
X375246Y103070D01*
X375431Y104000D01*
X375246Y104930D01*
X374719Y105719D01*
X373930Y106246D01*
X373000Y106431D01*
X372070Y106246D01*
X371281Y105719D01*
X370754Y104930D01*
X370569Y104000D01*
X370754Y103070D01*
X371063Y102608D01*
Y94000D01*
X371210Y93259D01*
X371630Y92630D01*
X375646Y88615D01*
X375754Y88070D01*
X376281Y87281D01*
X377070Y86754D01*
X377155Y86737D01*
Y80600D01*
X379006D01*
X379600Y80345D01*
Y70655D01*
X381553D01*
Y66514D01*
X377039Y62000D01*
X369500D01*
X369500Y62000D01*
Y62000D01*
X368936Y62318D01*
X368885Y62385D01*
X367894Y63146D01*
X366739Y63624D01*
X365500Y63787D01*
X364261Y63624D01*
X363106Y63146D01*
X362115Y62385D01*
X361354Y61394D01*
X360876Y60239D01*
X360713Y59000D01*
X360876Y57761D01*
X361354Y56606D01*
X362115Y55615D01*
X363106Y54854D01*
X364261Y54376D01*
X364433Y54353D01*
Y53647D01*
X364261Y53624D01*
X363106Y53146D01*
X362115Y52385D01*
X361354Y51394D01*
X360876Y50239D01*
X360713Y49000D01*
X360876Y47761D01*
X361128Y47151D01*
X357261Y43284D01*
X351640D01*
X351355Y43984D01*
X351746Y44570D01*
X351931Y45500D01*
X351746Y46430D01*
X351219Y47219D01*
X350430Y47746D01*
X349718Y47888D01*
X349646Y48616D01*
X350413Y48933D01*
X352450Y50182D01*
X354267Y51733D01*
X355819Y53550D01*
X357067Y55587D01*
X357981Y57795D01*
X358539Y60118D01*
X358727Y62500D01*
X358539Y64882D01*
X357981Y67205D01*
X357067Y69413D01*
X355819Y71450D01*
X354267Y73267D01*
X352450Y74818D01*
X350413Y76067D01*
X348205Y76981D01*
X345882Y77539D01*
X343500Y77727D01*
X341118Y77539D01*
X338795Y76981D01*
X336587Y76067D01*
X334550Y74818D01*
X332733Y73267D01*
X331182Y71450D01*
X329933Y69413D01*
X329019Y67205D01*
X328543Y65225D01*
X327300D01*
Y65300D01*
X318700D01*
Y61310D01*
X318053Y61042D01*
X315835Y63260D01*
Y117955D01*
X316246Y118570D01*
X316431Y119500D01*
X316246Y120430D01*
X315719Y121219D01*
X315132Y121611D01*
X315105Y121698D01*
Y122302D01*
X315132Y122389D01*
X315719Y122781D01*
X316246Y123570D01*
X316431Y124500D01*
X316246Y125430D01*
X315719Y126219D01*
X314930Y126746D01*
X314000Y126931D01*
X313070Y126746D01*
X312379Y126284D01*
X278121D01*
X277430Y126746D01*
X276500Y126931D01*
X275570Y126746D01*
X274781Y126219D01*
X274254Y125430D01*
X274069Y124500D01*
X274254Y123570D01*
X274781Y122781D01*
X275570Y122254D01*
X276500Y122069D01*
X277430Y122254D01*
X278121Y122716D01*
X287036D01*
X287366Y122098D01*
X287254Y121930D01*
X287069Y121000D01*
X287254Y120070D01*
X287781Y119281D01*
X288570Y118754D01*
X289500Y118569D01*
X290430Y118754D01*
X291219Y119281D01*
X291746Y120070D01*
X291931Y121000D01*
X291746Y121930D01*
X291634Y122098D01*
X291964Y122716D01*
X312379D01*
X312729Y122482D01*
X312782Y121747D01*
X312346Y121335D01*
X299045D01*
X298430Y121746D01*
X297500Y121931D01*
X296570Y121746D01*
X295781Y121219D01*
X295254Y120430D01*
X295069Y119500D01*
X295254Y118570D01*
X295781Y117781D01*
X296570Y117254D01*
X297500Y117069D01*
X298430Y117254D01*
X299045Y117665D01*
X312165D01*
Y116850D01*
X311624Y116406D01*
X311500Y116431D01*
X310570Y116246D01*
X309955Y115835D01*
X279500D01*
X278798Y115696D01*
X278202Y115298D01*
X271740Y108835D01*
X268850D01*
X268406Y109376D01*
X268431Y109500D01*
X268246Y110430D01*
X267719Y111219D01*
X266930Y111746D01*
X266385Y111854D01*
X265437Y112802D01*
Y115129D01*
X265978Y115573D01*
X266000Y115569D01*
X266930Y115754D01*
X267719Y116281D01*
X268246Y117070D01*
X268431Y118000D01*
X268246Y118930D01*
X267937Y119392D01*
Y161000D01*
X267790Y161741D01*
X267370Y162370D01*
X261854Y167885D01*
X261746Y168430D01*
X261219Y169219D01*
X260430Y169746D01*
X259500Y169931D01*
X258570Y169746D01*
X257781Y169219D01*
X257254Y168430D01*
X257069Y167500D01*
X257254Y166570D01*
X257781Y165781D01*
X258570Y165254D01*
X259115Y165146D01*
X264063Y160198D01*
Y139354D01*
X263416Y139086D01*
X256011Y146491D01*
X256080Y147188D01*
X256219Y147281D01*
X256746Y148070D01*
X256931Y149000D01*
X256746Y149930D01*
X256437Y150392D01*
Y167000D01*
X256290Y167741D01*
X255870Y168370D01*
X250870Y173370D01*
X250241Y173790D01*
X249500Y173937D01*
X226066D01*
X225792Y174449D01*
X225759Y174637D01*
X225931Y175500D01*
X225746Y176430D01*
X225437Y176892D01*
Y178500D01*
X225290Y179241D01*
X225270Y179270D01*
X231381Y185380D01*
X231570Y185254D01*
X232500Y185069D01*
X233430Y185254D01*
X234045Y185665D01*
X236000D01*
X236702Y185804D01*
X237298Y186202D01*
X238798Y187702D01*
X239196Y188298D01*
X239335Y189000D01*
Y193335D01*
X241141Y195141D01*
X241500Y195069D01*
X242430Y195254D01*
X243219Y195781D01*
X243746Y196570D01*
X243890Y197295D01*
X256595Y210000D01*
X277511D01*
Y208546D01*
X284347D01*
Y210000D01*
X286594D01*
Y208527D01*
X293548D01*
Y210000D01*
X307470D01*
Y207427D01*
X286500D01*
X286203Y207388D01*
X279194D01*
Y198328D01*
X286203D01*
X286500Y198289D01*
X307470D01*
Y195879D01*
X312567D01*
Y178500D01*
X312573Y178439D01*
Y172500D01*
X312681Y171954D01*
X312770Y171820D01*
X312396Y171121D01*
X307470D01*
Y156903D01*
X313069D01*
Y152500D01*
X313193Y151245D01*
X313559Y150039D01*
X314153Y148927D01*
X314953Y147953D01*
X315927Y147153D01*
X317039Y146559D01*
X318245Y146193D01*
X319500Y146069D01*
X320755Y146193D01*
X321961Y146559D01*
X323073Y147153D01*
X324047Y147953D01*
X324841Y148919D01*
X325620D01*
X344770Y129770D01*
X344770Y129770D01*
X354053Y120486D01*
Y109000D01*
X354239Y108064D01*
X354770Y107270D01*
X355564Y106739D01*
X356500Y106553D01*
X357436Y106739D01*
X358230Y107270D01*
X358761Y108064D01*
X358947Y109000D01*
Y121500D01*
X358761Y122436D01*
X358230Y123230D01*
X348230Y133230D01*
X348230Y133230D01*
X328364Y153096D01*
X327570Y153627D01*
X326634Y153813D01*
X325931D01*
Y156903D01*
X331530D01*
Y171121D01*
X326604D01*
X326230Y171820D01*
X326319Y171954D01*
X326427Y172500D01*
Y177131D01*
X326969Y177575D01*
X327000Y177569D01*
X327930Y177754D01*
X328719Y178281D01*
X329246Y179070D01*
X329431Y180000D01*
X329246Y180930D01*
X328719Y181719D01*
X327930Y182246D01*
X327000Y182431D01*
X326975Y182426D01*
X326433Y182870D01*
Y195879D01*
X331530D01*
Y210097D01*
X309403D01*
X309401Y210099D01*
Y246063D01*
X399563D01*
Y238379D01*
D02*
G37*
G36*
X307000Y211500D02*
X293548D01*
Y215673D01*
X291666D01*
X291527Y216371D01*
X291129Y216966D01*
X290500Y217595D01*
Y220000D01*
Y226000D01*
X290000D01*
Y230500D01*
X290000D01*
X289881Y230786D01*
X293202Y234107D01*
X293761Y233876D01*
X295000Y233713D01*
X296239Y233876D01*
X297394Y234354D01*
X298385Y235115D01*
X299146Y236106D01*
X299296Y236468D01*
X299900Y236700D01*
X299900Y236700D01*
X306300D01*
Y245300D01*
X303954D01*
X303912Y245363D01*
X304286Y246063D01*
X307000D01*
Y211500D01*
D02*
G37*
G36*
X63900Y212000D02*
X69500D01*
X69500Y212000D01*
Y212000D01*
X70135Y211793D01*
X70259Y211710D01*
X71000Y211563D01*
X74698D01*
X83225Y203035D01*
X82935Y202335D01*
X50831D01*
X45989Y207178D01*
Y211502D01*
X45989Y211554D01*
X46504Y212000D01*
X51100D01*
Y215500D01*
X51900D01*
Y212000D01*
X63100D01*
Y215500D01*
X63900D01*
Y212000D01*
D02*
G37*
G36*
X215573Y220000D02*
X215681Y219454D01*
X215991Y218991D01*
X216454Y218681D01*
X217000Y218573D01*
X217500D01*
Y215900D01*
X223500D01*
Y215500D01*
X223900D01*
Y212000D01*
X234600D01*
Y215500D01*
X235400D01*
Y211869D01*
X235614Y211353D01*
X233630Y209370D01*
X233210Y208741D01*
X233063Y208000D01*
Y192799D01*
X232575Y192425D01*
X232030Y191715D01*
X231687Y190888D01*
X231636Y190493D01*
X228000Y187000D01*
X217200Y187540D01*
X213000Y191740D01*
Y194000D01*
X210740D01*
X209854Y194885D01*
X209746Y195430D01*
X209219Y196219D01*
X208430Y196746D01*
X207500Y196931D01*
X206570Y196746D01*
X205781Y196219D01*
X205254Y195430D01*
X205069Y194500D01*
X205254Y193570D01*
X205781Y192781D01*
X206570Y192254D01*
X207115Y192146D01*
X208000Y191260D01*
Y189000D01*
X208209D01*
X208271Y188590D01*
X208000Y188000D01*
X208000D01*
Y188000D01*
X201500Y174000D01*
X200859Y173360D01*
X200500Y173431D01*
X199570Y173246D01*
X198781Y172719D01*
X198254Y171930D01*
X198069Y171000D01*
X198141Y170641D01*
X176937Y149437D01*
X139000D01*
X138259Y149290D01*
X137630Y148870D01*
X109698Y120937D01*
X104892D01*
X104430Y121246D01*
X103500Y121431D01*
X102570Y121246D01*
X101781Y120719D01*
X101254Y119930D01*
X101069Y119000D01*
X101254Y118070D01*
X101781Y117281D01*
X102570Y116754D01*
X103500Y116569D01*
X104430Y116754D01*
X104892Y117063D01*
X110500D01*
X111241Y117210D01*
X111870Y117630D01*
X139802Y145563D01*
X172148D01*
X172416Y144916D01*
X170000Y142500D01*
Y1937D01*
X168790D01*
X168700Y2600D01*
X168700Y2637D01*
Y6100D01*
X165900D01*
X163100D01*
Y2637D01*
X163100Y2600D01*
X163010Y1937D01*
X157891D01*
X157300Y2200D01*
X157300Y2637D01*
Y6673D01*
X157733Y7237D01*
X158025Y7943D01*
X158125Y8700D01*
Y10100D01*
X160700D01*
Y10500D01*
X162441D01*
X163100Y10400D01*
X163100Y9800D01*
Y6900D01*
X165900D01*
X168700D01*
Y10400D01*
X167959D01*
X167300Y10500D01*
X167300Y11100D01*
Y13000D01*
X163500D01*
Y13400D01*
X163100D01*
Y16300D01*
X161276D01*
X161174Y16371D01*
X161045Y16600D01*
X161455Y17300D01*
X167700D01*
Y23226D01*
X168290D01*
Y41774D01*
X151710D01*
Y23226D01*
X152300D01*
Y17400D01*
X152300Y17300D01*
Y16700D01*
X152300Y16600D01*
Y13190D01*
X152275Y13000D01*
Y10800D01*
X150900D01*
Y2637D01*
X150900Y2200D01*
X150309Y1937D01*
X148790D01*
X148700Y2600D01*
X148700Y2637D01*
Y6100D01*
X145900D01*
X143100D01*
Y2637D01*
X143100Y2600D01*
X143010Y1937D01*
X137891D01*
X137300Y2200D01*
X137300Y2637D01*
Y6663D01*
X137768Y7132D01*
X138233Y7738D01*
X138525Y8443D01*
X138625Y9200D01*
Y10100D01*
X141200D01*
Y10500D01*
X142441D01*
X143100Y10400D01*
X143100Y9800D01*
Y6900D01*
X145900D01*
X148700D01*
Y10400D01*
X148459D01*
X147800Y10500D01*
X147800Y11100D01*
Y13000D01*
X144000D01*
Y13400D01*
X143600D01*
Y16300D01*
X141776D01*
X141674Y16371D01*
X141545Y16600D01*
X141955Y17300D01*
X148200D01*
Y23900D01*
X144822D01*
X144637Y24558D01*
X144640Y24600D01*
X145890Y25626D01*
X146926Y26888D01*
X147696Y28328D01*
X148170Y29891D01*
X148330Y31516D01*
Y33484D01*
X148170Y35109D01*
X147696Y36672D01*
X146926Y38112D01*
X145890Y39374D01*
X144628Y40410D01*
X143188Y41180D01*
X141625Y41654D01*
X140000Y41814D01*
X138375Y41654D01*
X136812Y41180D01*
X135372Y40410D01*
X134110Y39374D01*
X133074Y38112D01*
X132304Y36672D01*
X131830Y35109D01*
X131670Y33484D01*
Y31516D01*
X131830Y29891D01*
X132304Y28328D01*
X133074Y26888D01*
X134110Y25626D01*
X135360Y24600D01*
X135365Y24541D01*
X135081Y23900D01*
X132800D01*
Y17400D01*
X132800Y17300D01*
Y16700D01*
X132800Y16600D01*
Y13190D01*
X132775Y13000D01*
Y10800D01*
X130900D01*
Y2637D01*
X130900Y2200D01*
X130309Y1937D01*
X128790D01*
X128700Y2600D01*
X128700Y2637D01*
Y6100D01*
X125900D01*
X123100D01*
Y2637D01*
X123100Y2600D01*
X123010Y1937D01*
X117891D01*
X117300Y2200D01*
X117300Y2637D01*
Y6673D01*
X117733Y7237D01*
X118025Y7943D01*
X118125Y8700D01*
Y10100D01*
X120700D01*
Y10500D01*
X122441D01*
X123100Y10400D01*
X123100Y9800D01*
Y6900D01*
X125900D01*
X128700D01*
Y10400D01*
X127959D01*
X127300Y10500D01*
X127300Y11100D01*
Y13000D01*
X123500D01*
Y13400D01*
X123100D01*
Y16300D01*
X121276D01*
X121174Y16371D01*
X121045Y16600D01*
X121455Y17300D01*
X127700D01*
Y23900D01*
X124919D01*
X124635Y24541D01*
X124640Y24600D01*
X125890Y25626D01*
X126926Y26888D01*
X127696Y28328D01*
X128170Y29891D01*
X128330Y31516D01*
Y33484D01*
X128170Y35109D01*
X127696Y36672D01*
X126926Y38112D01*
X125890Y39374D01*
X124628Y40410D01*
X123188Y41180D01*
X121625Y41654D01*
X120000Y41814D01*
X118375Y41654D01*
X116812Y41180D01*
X115372Y40410D01*
X114110Y39374D01*
X113074Y38112D01*
X112304Y36672D01*
X111830Y35109D01*
X111670Y33484D01*
Y31516D01*
X111830Y29891D01*
X112304Y28328D01*
X113074Y26888D01*
X114110Y25626D01*
X115360Y24600D01*
X115365Y24541D01*
X115081Y23900D01*
X112300D01*
Y17400D01*
X112300Y17300D01*
Y16700D01*
X112300Y16600D01*
Y13190D01*
X112275Y13000D01*
Y10800D01*
X110900D01*
Y2637D01*
X110900Y2200D01*
X110309Y1937D01*
X1937D01*
Y209557D01*
X2637Y209754D01*
X3681Y208050D01*
X5233Y206233D01*
X7050Y204681D01*
X9087Y203433D01*
X11295Y202519D01*
X13618Y201961D01*
X16000Y201774D01*
X18382Y201961D01*
X20705Y202519D01*
X22913Y203433D01*
X24950Y204681D01*
X26767Y206233D01*
X28319Y208050D01*
X29252Y209574D01*
X29952Y209377D01*
Y204427D01*
X36906D01*
Y211573D01*
X35735D01*
Y214900D01*
X40505D01*
X40736Y214669D01*
Y211554D01*
X39153D01*
Y204447D01*
X43529D01*
X48773Y199202D01*
X49369Y198804D01*
X50071Y198665D01*
X57573D01*
Y173500D01*
X57681Y172954D01*
X57991Y172491D01*
X58454Y172181D01*
X59000Y172073D01*
X68563D01*
Y170392D01*
X68254Y169930D01*
X68069Y169000D01*
X68254Y168070D01*
X68781Y167281D01*
X69570Y166754D01*
X70500Y166569D01*
X71430Y166754D01*
X72219Y167281D01*
X72746Y168070D01*
X72931Y169000D01*
X72746Y169930D01*
X72437Y170392D01*
Y172073D01*
X74000D01*
X74546Y172181D01*
X75009Y172491D01*
X75319Y172954D01*
X75427Y173500D01*
Y182573D01*
X82000D01*
X82546Y182681D01*
X83009Y182991D01*
X83319Y183454D01*
X83427Y184000D01*
Y197063D01*
X84074Y197330D01*
X84702Y196702D01*
X85298Y196304D01*
X86000Y196165D01*
X132740D01*
X150570Y178335D01*
X151165Y177937D01*
X151868Y177797D01*
X163455D01*
X164070Y177386D01*
X165000Y177201D01*
X165930Y177386D01*
X166719Y177913D01*
X167246Y178702D01*
X167318Y179063D01*
X171500D01*
X172241Y179210D01*
X172870Y179630D01*
X173104Y179669D01*
X173285Y179530D01*
X174112Y179188D01*
X175000Y179071D01*
X175888Y179188D01*
X176715Y179530D01*
X177425Y180075D01*
X177970Y180785D01*
X178313Y181612D01*
X178429Y182500D01*
X178313Y183388D01*
X177970Y184215D01*
X177425Y184925D01*
X176715Y185470D01*
X175888Y185812D01*
X175000Y185929D01*
X174265Y185833D01*
X174246Y185930D01*
X173719Y186719D01*
X172930Y187246D01*
X172000Y187431D01*
X171070Y187246D01*
X170455Y186835D01*
X168851D01*
X168406Y187376D01*
X168431Y187500D01*
X168246Y188430D01*
X167719Y189219D01*
X166930Y189746D01*
X166000Y189931D01*
X165070Y189746D01*
X164455Y189335D01*
X160331D01*
X138489Y211178D01*
Y215553D01*
X136000D01*
Y220000D01*
Y226000D01*
X136632Y226165D01*
X139573D01*
Y220500D01*
X139681Y219954D01*
X139991Y219491D01*
X140392Y219222D01*
X140454Y219181D01*
X141000Y218768D01*
X141000Y218373D01*
Y215900D01*
X147000D01*
Y215500D01*
X147400D01*
Y212000D01*
X158100D01*
Y215500D01*
X158900D01*
Y212000D01*
X164465D01*
X164500Y212000D01*
X165165Y211915D01*
Y209424D01*
X165082Y209356D01*
X164340Y209208D01*
X163712Y208788D01*
X163292Y208160D01*
X163144Y207418D01*
X163292Y206677D01*
X163712Y206049D01*
X180130Y189630D01*
X180759Y189210D01*
X181500Y189063D01*
X185201D01*
X185575Y188575D01*
X186285Y188030D01*
X187112Y187688D01*
X188000Y187571D01*
X188888Y187688D01*
X189715Y188030D01*
X190425Y188575D01*
X190970Y189285D01*
X191313Y190112D01*
X191429Y191000D01*
X191313Y191888D01*
X190970Y192715D01*
X190425Y193425D01*
X190243Y193565D01*
X190246Y193570D01*
X190431Y194500D01*
X190246Y195430D01*
X189719Y196219D01*
X188930Y196746D01*
X188000Y196931D01*
X187352Y196802D01*
X187334Y196810D01*
X186810Y197334D01*
X186802Y197352D01*
X186931Y198000D01*
X186830Y198506D01*
X196871Y208546D01*
X201247D01*
Y215000D01*
X203494D01*
Y208527D01*
X210448D01*
Y215673D01*
X208035D01*
Y216800D01*
X208000Y216977D01*
Y220000D01*
Y226000D01*
X208590Y226265D01*
X215573D01*
Y220000D01*
D02*
G37*
G36*
X237176Y157584D02*
X236909Y156937D01*
X225892D01*
X225430Y157246D01*
X224500Y157431D01*
X223570Y157246D01*
X222781Y156719D01*
X222254Y155930D01*
X222069Y155000D01*
X222254Y154070D01*
X222781Y153281D01*
X223570Y152754D01*
X224500Y152569D01*
X225430Y152754D01*
X225892Y153063D01*
X237698D01*
X238288Y152473D01*
X238136Y151809D01*
X238043Y151728D01*
X237281Y151219D01*
X236754Y150430D01*
X236569Y149500D01*
X236754Y148570D01*
X237281Y147781D01*
X238070Y147254D01*
X238615Y147146D01*
X240063Y145698D01*
Y129392D01*
X239754Y128930D01*
X239569Y128000D01*
X239754Y127070D01*
X240281Y126281D01*
X240530Y126115D01*
X240565Y125982D01*
X240188Y125335D01*
X239500D01*
Y126000D01*
X230500D01*
X230447Y126678D01*
Y129500D01*
X230261Y130436D01*
X229730Y131230D01*
X220947Y140014D01*
Y146000D01*
X220761Y146936D01*
X220230Y147730D01*
X219436Y148261D01*
X218500Y148447D01*
X217564Y148261D01*
X216770Y147730D01*
X216239Y146936D01*
X216053Y146000D01*
Y139000D01*
X216239Y138064D01*
X216770Y137270D01*
X225553Y128486D01*
Y123641D01*
X214692D01*
X214100Y123900D01*
Y125600D01*
X212000D01*
Y126400D01*
X214100D01*
Y127900D01*
Y129600D01*
X212000D01*
Y130400D01*
X214100D01*
Y131900D01*
Y133600D01*
X212000D01*
Y134000D01*
X211600D01*
Y136100D01*
X210500D01*
Y136500D01*
X205990D01*
X205888Y137188D01*
X206715Y137530D01*
X207425Y138075D01*
X207970Y138785D01*
X208313Y139612D01*
X208429Y140500D01*
X208313Y141388D01*
X207970Y142215D01*
X207425Y142925D01*
X206715Y143470D01*
X205888Y143813D01*
X205000Y143929D01*
X186000D01*
X185112Y143813D01*
X184285Y143470D01*
X183575Y142925D01*
X179499Y138849D01*
X177575Y136925D01*
X177030Y136215D01*
X176688Y135388D01*
X176571Y134500D01*
X176688Y133612D01*
X177030Y132785D01*
X177575Y132075D01*
X178285Y131530D01*
X179112Y131187D01*
X180000Y131071D01*
X180888Y131187D01*
X181479Y131432D01*
X182000Y130901D01*
Y129300D01*
X183700D01*
Y131000D01*
X182174D01*
X181861Y131642D01*
X182425Y132075D01*
X184349Y133999D01*
X187420Y137071D01*
X205000D01*
X205275Y137107D01*
X205482Y136484D01*
X205469Y135784D01*
X200400D01*
X200400Y135784D01*
X199717Y135649D01*
X199139Y135262D01*
X198835Y134958D01*
X198020Y134796D01*
X197231Y134269D01*
X196704Y133480D01*
X196519Y132550D01*
X196704Y131620D01*
X196883Y131352D01*
X196742Y131258D01*
X196215Y130469D01*
X196165Y130216D01*
X195395Y129935D01*
X194930Y130246D01*
X194000Y130431D01*
X193070Y130246D01*
X192603Y129934D01*
X190600D01*
Y131400D01*
X185600D01*
Y131000D01*
X184500D01*
Y128900D01*
X184100D01*
Y128500D01*
X182000D01*
Y126800D01*
Y125300D01*
X184100D01*
Y124500D01*
X182000D01*
Y122800D01*
Y121300D01*
X184100D01*
Y120900D01*
X184500D01*
Y118800D01*
X185600D01*
Y118400D01*
X190600D01*
Y119716D01*
X192379D01*
X192743Y119473D01*
X192891Y118630D01*
X187130Y112870D01*
X186710Y112241D01*
X186674Y112059D01*
X186254Y111430D01*
X186069Y110500D01*
X186254Y109570D01*
X186781Y108781D01*
X187570Y108254D01*
X188500Y108069D01*
X189430Y108254D01*
X190219Y108781D01*
X190746Y109570D01*
X190931Y110500D01*
X190816Y111077D01*
X193450Y113710D01*
X194343Y113613D01*
X194565Y113281D01*
X195354Y112754D01*
X196284Y112569D01*
X197133Y112738D01*
X197235Y112685D01*
X197395Y112556D01*
X197691Y112231D01*
X197546Y111500D01*
X197731Y110570D01*
X198258Y109781D01*
X199046Y109254D01*
X199977Y109069D01*
X200907Y109254D01*
X201369Y109563D01*
X217093D01*
X217281Y109281D01*
X218070Y108754D01*
X219000Y108569D01*
X219930Y108754D01*
X220719Y109281D01*
X221246Y110070D01*
X221431Y111000D01*
X221246Y111930D01*
X220719Y112719D01*
X220244Y113036D01*
X220169Y113227D01*
X220159Y113460D01*
X220500Y114069D01*
X221430Y114254D01*
X222219Y114781D01*
X222746Y115570D01*
X222931Y116500D01*
X222746Y117430D01*
X222219Y118219D01*
X221430Y118746D01*
X220500Y118931D01*
X219570Y118746D01*
X218781Y118219D01*
X218254Y117430D01*
X218188Y117100D01*
X217924Y116835D01*
X197829D01*
X197671Y116941D01*
X197573Y117834D01*
X199506Y119766D01*
X225553D01*
Y112014D01*
X213770Y100230D01*
X213239Y99436D01*
X213140Y98937D01*
X202341D01*
X202279Y99251D01*
X201817Y99941D01*
X201127Y100403D01*
X200312Y100565D01*
X195687D01*
X194873Y100403D01*
X194183Y99941D01*
X193721Y99251D01*
X193559Y98436D01*
Y94311D01*
X193721Y93497D01*
X194183Y92807D01*
X194831Y92373D01*
X194876Y92326D01*
X194985Y91609D01*
X194790Y91460D01*
X194125Y90593D01*
X193707Y89583D01*
X193564Y88500D01*
X193707Y87417D01*
X194125Y86407D01*
X194790Y85540D01*
X195544Y84962D01*
X195607Y84563D01*
X195544Y84164D01*
X194790Y83586D01*
X194125Y82719D01*
X193707Y81709D01*
X193564Y80626D01*
X193707Y79543D01*
X194125Y78533D01*
X194790Y77666D01*
X195657Y77001D01*
X196018Y76851D01*
Y76094D01*
X195859Y76028D01*
X195076Y75427D01*
X194474Y74643D01*
X194097Y73731D01*
X194020Y73152D01*
X198000D01*
X201980D01*
X201904Y73731D01*
X201526Y74643D01*
X200924Y75427D01*
X200141Y76028D01*
X199982Y76094D01*
Y76851D01*
X200343Y77001D01*
X201210Y77666D01*
X201875Y78533D01*
X201940Y78689D01*
X211416D01*
X212157Y78836D01*
X212786Y79256D01*
X216592Y83063D01*
X224067D01*
X224641Y82363D01*
X224569Y82000D01*
X224754Y81070D01*
X225281Y80281D01*
X226070Y79754D01*
X227000Y79569D01*
X227930Y79754D01*
X228621Y80216D01*
X233879D01*
X234570Y79754D01*
X235500Y79569D01*
X236430Y79754D01*
X236905Y80071D01*
X246092Y70885D01*
X246254Y70070D01*
X246781Y69281D01*
X247570Y68754D01*
X248500Y68569D01*
X249430Y68754D01*
X250219Y69281D01*
X250746Y70070D01*
X250931Y71000D01*
X250746Y71930D01*
X250219Y72719D01*
X249430Y73246D01*
X248615Y73408D01*
X239784Y82239D01*
Y89702D01*
X240192Y89946D01*
X240500Y89976D01*
X264738Y65738D01*
X264738Y65738D01*
X265317Y65351D01*
X266000Y65216D01*
X266000Y65216D01*
X274879D01*
X275570Y64754D01*
X276500Y64569D01*
X277430Y64754D01*
X278219Y65281D01*
X278401Y65553D01*
X279098Y65622D01*
X288723Y55997D01*
X289318Y55599D01*
X290021Y55459D01*
X295455D01*
X296070Y55049D01*
X297000Y54864D01*
X297930Y55049D01*
X298528Y55448D01*
X326238Y27738D01*
X326817Y27351D01*
X327500Y27216D01*
X327500Y27216D01*
X361102D01*
X361354Y26606D01*
X362115Y25615D01*
X363106Y24854D01*
X364261Y24376D01*
X365500Y24213D01*
X366739Y24376D01*
X367894Y24854D01*
X368885Y25615D01*
X369564Y26500D01*
X378500D01*
Y31500D01*
X377937D01*
Y36500D01*
X378500D01*
Y41500D01*
X377937D01*
Y46500D01*
X378500D01*
Y51500D01*
X378500Y51500D01*
X378272Y52200D01*
X378431Y53000D01*
X378246Y53930D01*
X377719Y54719D01*
X376930Y55246D01*
X376658Y55300D01*
X376727Y56000D01*
X380500D01*
Y58539D01*
X385730Y63770D01*
X386261Y64564D01*
X386447Y65500D01*
Y70655D01*
X388400Y70655D01*
X388553Y70019D01*
Y63500D01*
X388739Y62564D01*
X389270Y61770D01*
X390867Y60172D01*
X390713Y59000D01*
X390876Y57761D01*
X391354Y56606D01*
X392115Y55615D01*
X393106Y54854D01*
X394261Y54376D01*
X395500Y54213D01*
X396739Y54376D01*
X397894Y54854D01*
X398863Y55598D01*
X399117Y55560D01*
X399563Y55409D01*
Y51995D01*
X398863Y51757D01*
X398600Y52100D01*
X397692Y52797D01*
X396635Y53235D01*
X395900Y53331D01*
Y49000D01*
Y44669D01*
X396635Y44765D01*
X397692Y45203D01*
X398600Y45900D01*
X398863Y46243D01*
X399563Y46005D01*
Y41995D01*
X398863Y41757D01*
X398600Y42100D01*
X397692Y42797D01*
X396635Y43235D01*
X395900Y43331D01*
Y39000D01*
Y34669D01*
X396635Y34765D01*
X397692Y35203D01*
X398600Y35900D01*
X398863Y36243D01*
X399563Y36005D01*
Y31995D01*
X398863Y31757D01*
X398600Y32100D01*
X397692Y32797D01*
X396635Y33235D01*
X395900Y33331D01*
Y29000D01*
Y24669D01*
X396635Y24765D01*
X397692Y25203D01*
X398600Y25900D01*
X398863Y26243D01*
X399563Y26005D01*
Y1937D01*
X172172D01*
X171000Y142500D01*
X174063Y145563D01*
X205000D01*
X205741Y145710D01*
X206370Y146130D01*
X224385Y164146D01*
X224930Y164254D01*
X225719Y164781D01*
X226246Y165570D01*
X226431Y166500D01*
X226427Y166522D01*
X226871Y167063D01*
X227698D01*
X237176Y157584D01*
D02*
G37*
G36*
X198687Y169422D02*
X198781Y169281D01*
X199570Y168754D01*
X200115Y168646D01*
X201130Y167630D01*
X201759Y167210D01*
X202500Y167063D01*
X220833D01*
X221123Y166363D01*
X204198Y149437D01*
X178852D01*
X178584Y150084D01*
X197990Y169490D01*
X198687Y169422D01*
D02*
G37*
G36*
X252063Y138698D02*
Y128892D01*
X251754Y128430D01*
X251569Y127500D01*
X251754Y126570D01*
X252281Y125781D01*
X252530Y125615D01*
X252618Y124714D01*
X236740Y108835D01*
X233000D01*
X232298Y108696D01*
X231702Y108298D01*
X229202Y105798D01*
X228804Y105202D01*
X228665Y104500D01*
Y100545D01*
X228254Y99930D01*
X228069Y99000D01*
X228254Y98070D01*
X228781Y97281D01*
X229570Y96754D01*
X230500Y96569D01*
X231430Y96754D01*
X232219Y97281D01*
X232746Y98070D01*
X232931Y99000D01*
X232746Y99930D01*
X232335Y100545D01*
Y101133D01*
X232925Y101578D01*
X233600Y101346D01*
X233754Y100570D01*
X234216Y99879D01*
Y97000D01*
X234351Y96317D01*
X234738Y95738D01*
X236476Y94000D01*
X236408Y93304D01*
X236281Y93219D01*
X235754Y92430D01*
X235569Y91500D01*
X235754Y90570D01*
X236216Y89879D01*
Y84840D01*
X235675Y84396D01*
X235500Y84431D01*
X234570Y84246D01*
X233879Y83784D01*
X231833D01*
X231328Y84484D01*
X231431Y85000D01*
X231246Y85930D01*
X230719Y86719D01*
X229930Y87246D01*
X229000Y87431D01*
X228070Y87246D01*
X227608Y86937D01*
X215790D01*
X215049Y86790D01*
X214420Y86370D01*
X210613Y82563D01*
X201940D01*
X201875Y82719D01*
X201210Y83586D01*
X200456Y84164D01*
X200393Y84563D01*
X200456Y84962D01*
X201210Y85540D01*
X201875Y86407D01*
X201940Y86563D01*
X212000D01*
X212741Y86710D01*
X213370Y87130D01*
X220385Y94146D01*
X220930Y94254D01*
X221719Y94781D01*
X222246Y95570D01*
X222431Y96500D01*
X222246Y97430D01*
X221719Y98219D01*
X220930Y98746D01*
X220318Y98868D01*
X220064Y99603D01*
X229730Y109270D01*
X230261Y110064D01*
X230447Y111000D01*
Y120322D01*
X230500Y121000D01*
X239500D01*
Y121665D01*
X241500D01*
X242202Y121804D01*
X242798Y122202D01*
X246205Y125610D01*
X246930Y125754D01*
X247719Y126281D01*
X248246Y127070D01*
X248431Y128000D01*
X248246Y128930D01*
X247719Y129719D01*
X246930Y130246D01*
X246000Y130431D01*
X245070Y130246D01*
X244637Y129957D01*
X243937Y130331D01*
Y145833D01*
X244637Y146123D01*
X252063Y138698D01*
D02*
G37*
G36*
X272622Y72098D02*
X272553Y71401D01*
X272379Y71284D01*
X267504D01*
X261200Y77588D01*
X261219Y77781D01*
X261746Y78570D01*
X261931Y79500D01*
X261746Y80430D01*
X261219Y81219D01*
Y81447D01*
X261719Y81781D01*
X261901Y82053D01*
X262598Y82122D01*
X272622Y72098D01*
D02*
G37*
G36*
X310570Y111754D02*
X311500Y111569D01*
X311624Y111594D01*
X312165Y111150D01*
Y62500D01*
X312304Y61798D01*
X312702Y61202D01*
X329702Y44202D01*
X330029Y43984D01*
X329816Y43284D01*
X320239D01*
X305784Y57739D01*
Y68500D01*
X305707Y68887D01*
X306084Y69145D01*
X306352Y69234D01*
X307070Y68754D01*
X308000Y68569D01*
X308930Y68754D01*
X309719Y69281D01*
X310246Y70070D01*
X310431Y71000D01*
X310246Y71930D01*
X309719Y72719D01*
X308930Y73246D01*
X308000Y73431D01*
X307070Y73246D01*
X306281Y72719D01*
X305754Y71930D01*
X305569Y71000D01*
X305707Y70306D01*
X305062Y69962D01*
X302262Y72762D01*
X301683Y73149D01*
X301000Y73284D01*
X297487D01*
X297275Y73984D01*
X297719Y74281D01*
X298246Y75070D01*
X298431Y76000D01*
X298246Y76930D01*
X297719Y77719D01*
X296930Y78246D01*
X296000Y78431D01*
X295070Y78246D01*
X294281Y77719D01*
X293754Y76930D01*
X293569Y76000D01*
X293754Y75070D01*
X294281Y74281D01*
X294725Y73984D01*
X294513Y73284D01*
X288833D01*
X288328Y73984D01*
X288431Y74500D01*
X288246Y75430D01*
X287719Y76219D01*
X286930Y76746D01*
X286385Y76854D01*
X279437Y83802D01*
Y93500D01*
X279290Y94241D01*
X278870Y94870D01*
X275370Y98370D01*
X274741Y98790D01*
X274000Y98937D01*
X268392D01*
X267930Y99246D01*
X267000Y99431D01*
X266070Y99246D01*
X265281Y98719D01*
X264754Y97930D01*
X264569Y97000D01*
X264754Y96070D01*
X265281Y95281D01*
X266070Y94754D01*
X267000Y94569D01*
X267488Y94666D01*
X268085Y94080D01*
X268069Y94000D01*
X268254Y93070D01*
X268781Y92281D01*
X269570Y91754D01*
X270385Y91592D01*
X270943Y91034D01*
X270712Y90274D01*
X270570Y90246D01*
X269781Y89719D01*
X269518Y89325D01*
X268649Y89205D01*
X255148Y102705D01*
X255004Y103430D01*
X254477Y104219D01*
X254109Y104465D01*
X254322Y105165D01*
X272500D01*
X273202Y105304D01*
X273798Y105702D01*
X280260Y112165D01*
X309955D01*
X310570Y111754D01*
D02*
G37*
%LPC*%
G36*
X219000Y244900D02*
X216600D01*
Y241400D01*
X219000D01*
Y244900D01*
D02*
G37*
G36*
X30700Y240900D02*
X28300D01*
Y237400D01*
X30700D01*
Y240900D01*
D02*
G37*
G36*
X27500D02*
X25100D01*
Y237400D01*
X27500D01*
Y240900D01*
D02*
G37*
G36*
X30700Y236600D02*
X28300D01*
Y233100D01*
X30700D01*
Y236600D01*
D02*
G37*
G36*
X27500D02*
X25100D01*
Y233100D01*
X27500D01*
Y236600D01*
D02*
G37*
G36*
X317700Y244900D02*
X315300D01*
Y241400D01*
X317700D01*
Y244900D01*
D02*
G37*
G36*
X314500D02*
X312100D01*
Y241400D01*
X314500D01*
Y244900D01*
D02*
G37*
G36*
X317700Y240600D02*
X315300D01*
Y237100D01*
X317700D01*
Y240600D01*
D02*
G37*
G36*
X314500D02*
X312100D01*
Y237100D01*
X314500D01*
Y240600D01*
D02*
G37*
G36*
X382200Y235453D02*
X381182Y235318D01*
X380233Y234926D01*
X379418Y234300D01*
X378793Y233486D01*
X378400Y232537D01*
X378266Y231519D01*
Y231119D01*
X378400Y230101D01*
X378793Y229152D01*
X379418Y228337D01*
X380233Y227712D01*
X381182Y227319D01*
X382200Y227185D01*
X383218Y227319D01*
X384167Y227712D01*
X384981Y228337D01*
X385607Y229152D01*
X386000Y230101D01*
X386134Y231119D01*
Y231519D01*
X386000Y232537D01*
X385607Y233486D01*
X384981Y234300D01*
X384167Y234926D01*
X383218Y235318D01*
X382200Y235453D01*
D02*
G37*
G36*
X340000Y242726D02*
X337618Y242539D01*
X335295Y241981D01*
X333087Y241067D01*
X331050Y239819D01*
X329233Y238267D01*
X327681Y236450D01*
X326433Y234413D01*
X325519Y232205D01*
X324961Y229882D01*
X324774Y227500D01*
X324961Y225118D01*
X325519Y222795D01*
X326433Y220587D01*
X327681Y218550D01*
X329233Y216733D01*
X331050Y215181D01*
X333087Y213933D01*
X335295Y213019D01*
X337618Y212461D01*
X340000Y212274D01*
X342382Y212461D01*
X344705Y213019D01*
X346913Y213933D01*
X348950Y215181D01*
X350767Y216733D01*
X352319Y218550D01*
X353567Y220587D01*
X354481Y222795D01*
X355039Y225118D01*
X355226Y227500D01*
X355039Y229882D01*
X354481Y232205D01*
X353567Y234413D01*
X352319Y236450D01*
X350767Y238267D01*
X348950Y239819D01*
X346913Y241067D01*
X344705Y241981D01*
X342382Y242539D01*
X340000Y242726D01*
D02*
G37*
G36*
X382200Y216358D02*
X381182Y216224D01*
X380233Y215831D01*
X379418Y215206D01*
X378793Y214391D01*
X378400Y213442D01*
X378266Y212424D01*
Y212024D01*
X378400Y211006D01*
X378793Y210058D01*
X379418Y209243D01*
X380233Y208618D01*
X381182Y208225D01*
X382200Y208091D01*
X383218Y208225D01*
X384167Y208618D01*
X384981Y209243D01*
X385607Y210058D01*
X386000Y211006D01*
X386134Y212024D01*
Y212424D01*
X386000Y213442D01*
X385607Y214391D01*
X384981Y215206D01*
X384167Y215831D01*
X383218Y216224D01*
X382200Y216358D01*
D02*
G37*
G36*
X272900Y200783D02*
Y197050D01*
X276633D01*
X276543Y197733D01*
X276125Y198743D01*
X275460Y199609D01*
X274593Y200275D01*
X273583Y200693D01*
X272900Y200783D01*
D02*
G37*
G36*
X272100Y200783D02*
X271417Y200693D01*
X270407Y200275D01*
X269541Y199609D01*
X268875Y198743D01*
X268457Y197733D01*
X268367Y197050D01*
X272100D01*
Y200783D01*
D02*
G37*
G36*
X276633Y196250D02*
X272900D01*
Y192517D01*
X273583Y192607D01*
X274593Y193025D01*
X275460Y193691D01*
X276125Y194557D01*
X276543Y195567D01*
X276633Y196250D01*
D02*
G37*
G36*
X272100D02*
X268367D01*
X268457Y195567D01*
X268875Y194557D01*
X269541Y193691D01*
X270407Y193025D01*
X271417Y192607D01*
X272100Y192517D01*
Y196250D01*
D02*
G37*
G36*
X287000Y195431D02*
X286070Y195246D01*
X285281Y194719D01*
X284754Y193930D01*
X284569Y193000D01*
X284754Y192070D01*
X285281Y191281D01*
X286070Y190754D01*
X287000Y190569D01*
X287930Y190754D01*
X288719Y191281D01*
X289246Y192070D01*
X289431Y193000D01*
X289246Y193930D01*
X288719Y194719D01*
X287930Y195246D01*
X287000Y195431D01*
D02*
G37*
G36*
X293406Y189272D02*
X286900D01*
Y185542D01*
X293406D01*
Y189272D01*
D02*
G37*
G36*
X286100D02*
X279594D01*
Y185542D01*
X286100D01*
Y189272D01*
D02*
G37*
G36*
X293406Y184742D02*
X286500D01*
X279594D01*
Y181012D01*
X284057D01*
X284631Y180312D01*
X284569Y180000D01*
X284754Y179070D01*
X285068Y178600D01*
X284800Y178099D01*
Y174400D01*
X287200D01*
Y177609D01*
X287930Y177754D01*
X288719Y178281D01*
X289246Y179070D01*
X289431Y180000D01*
X289369Y180312D01*
X289943Y181012D01*
X293406D01*
Y184742D01*
D02*
G37*
G36*
X287200Y173600D02*
X284800D01*
Y170100D01*
X287200D01*
Y173600D01*
D02*
G37*
G36*
X272500Y188184D02*
X271158Y188008D01*
X269908Y187490D01*
X268834Y186666D01*
X268010Y185592D01*
X267492Y184342D01*
X267316Y183000D01*
X267492Y181658D01*
X268010Y180408D01*
X268834Y179334D01*
X269315Y178965D01*
X269400Y178300D01*
X269400D01*
Y169700D01*
X275800D01*
Y172989D01*
X276500Y173202D01*
X276781Y172781D01*
X277570Y172254D01*
X278500Y172069D01*
X279430Y172254D01*
X280219Y172781D01*
X280746Y173570D01*
X280900Y174344D01*
X281600Y174275D01*
Y170100D01*
X284000D01*
Y174000D01*
Y177900D01*
X281600D01*
Y174725D01*
X280900Y174656D01*
X280832Y174999D01*
X280746Y175430D01*
X280219Y176219D01*
X279430Y176746D01*
X278500Y176931D01*
X277570Y176746D01*
X276781Y176219D01*
X276500Y175798D01*
X275800Y176011D01*
Y178300D01*
X275800D01*
X275731Y179000D01*
X276166Y179334D01*
X276990Y180408D01*
X277508Y181658D01*
X277684Y183000D01*
X277508Y184342D01*
X276990Y185592D01*
X276166Y186666D01*
X275092Y187490D01*
X273842Y188008D01*
X272500Y188184D01*
D02*
G37*
G36*
X299900Y156831D02*
Y152900D01*
X303831D01*
X303735Y153635D01*
X303297Y154692D01*
X302600Y155600D01*
X301692Y156297D01*
X300635Y156735D01*
X299900Y156831D01*
D02*
G37*
G36*
X299100D02*
X298365Y156735D01*
X297308Y156297D01*
X296400Y155600D01*
X295703Y154692D01*
X295266Y153635D01*
X295169Y152900D01*
X299100D01*
Y156831D01*
D02*
G37*
G36*
X303831Y152100D02*
X299900D01*
Y148169D01*
X300635Y148266D01*
X301692Y148703D01*
X302600Y149400D01*
X303297Y150308D01*
X303735Y151365D01*
X303831Y152100D01*
D02*
G37*
G36*
X299100D02*
X295169D01*
X295266Y151365D01*
X295703Y150308D01*
X296400Y149400D01*
X297308Y148703D01*
X298365Y148266D01*
X299100Y148169D01*
Y152100D01*
D02*
G37*
G36*
X288165Y147431D02*
X287235Y147246D01*
X286446Y146719D01*
X285919Y145930D01*
X285734Y145000D01*
X285919Y144070D01*
X286446Y143281D01*
X287235Y142754D01*
X288165Y142569D01*
X289095Y142754D01*
X289557Y143063D01*
X300079D01*
X307146Y135997D01*
X307254Y135452D01*
X307781Y134663D01*
X308570Y134136D01*
X309500Y133951D01*
X310430Y134136D01*
X311219Y134663D01*
X311746Y135452D01*
X311931Y136382D01*
X311746Y137312D01*
X311219Y138101D01*
X310430Y138628D01*
X309885Y138736D01*
X302252Y146370D01*
X301623Y146790D01*
X300882Y146937D01*
X289557D01*
X289095Y147246D01*
X288165Y147431D01*
D02*
G37*
G36*
X370500Y116945D02*
X366900D01*
Y112900D01*
X370500D01*
Y116945D01*
D02*
G37*
G36*
X366100D02*
X362500D01*
Y112900D01*
X366100D01*
Y116945D01*
D02*
G37*
G36*
X370500Y112100D02*
X366900D01*
Y108055D01*
X370500D01*
Y112100D01*
D02*
G37*
G36*
X366100D02*
X362500D01*
Y108055D01*
X366100D01*
Y112100D01*
D02*
G37*
G36*
X370000Y79945D02*
X366400D01*
Y75900D01*
X370000D01*
Y79945D01*
D02*
G37*
G36*
X365600D02*
X362000D01*
Y75900D01*
X365600D01*
Y79945D01*
D02*
G37*
G36*
X326900Y76700D02*
X323400D01*
Y74300D01*
X326900D01*
Y76700D01*
D02*
G37*
G36*
X322600D02*
X319100D01*
Y74300D01*
X322600D01*
Y76700D01*
D02*
G37*
G36*
X326900Y73500D02*
X323400D01*
Y71100D01*
X326900D01*
Y73500D01*
D02*
G37*
G36*
X322600D02*
X319100D01*
Y71100D01*
X322600D01*
Y73500D01*
D02*
G37*
G36*
X370000Y75100D02*
X366400D01*
Y71055D01*
X370000D01*
Y75100D01*
D02*
G37*
G36*
X365600D02*
X362000D01*
Y71055D01*
X365600D01*
Y75100D01*
D02*
G37*
G36*
X223100Y215100D02*
X217500D01*
Y212000D01*
X223100D01*
Y215100D01*
D02*
G37*
G36*
X146600D02*
X141000D01*
Y212000D01*
X146600D01*
Y215100D01*
D02*
G37*
G36*
X19900Y180831D02*
Y176900D01*
X23831D01*
X23735Y177635D01*
X23297Y178692D01*
X22600Y179600D01*
X21692Y180297D01*
X20635Y180735D01*
X19900Y180831D01*
D02*
G37*
G36*
X19100D02*
X18365Y180735D01*
X17308Y180297D01*
X16400Y179600D01*
X15703Y178692D01*
X15265Y177635D01*
X15169Y176900D01*
X19100D01*
Y180831D01*
D02*
G37*
G36*
X23831Y176100D02*
X19900D01*
Y172169D01*
X20635Y172266D01*
X21692Y172703D01*
X22600Y173400D01*
X23297Y174308D01*
X23735Y175365D01*
X23831Y176100D01*
D02*
G37*
G36*
X19100D02*
X15169D01*
X15265Y175365D01*
X15703Y174308D01*
X16400Y173400D01*
X17308Y172703D01*
X18365Y172266D01*
X19100Y172169D01*
Y176100D01*
D02*
G37*
G36*
X126500Y176431D02*
X125570Y176246D01*
X124781Y175719D01*
X124254Y174930D01*
X124069Y174000D01*
X124254Y173070D01*
X124781Y172281D01*
X125570Y171754D01*
X126500Y171569D01*
X127430Y171754D01*
X128219Y172281D01*
X128746Y173070D01*
X128931Y174000D01*
X128746Y174930D01*
X128219Y175719D01*
X127430Y176246D01*
X126500Y176431D01*
D02*
G37*
G36*
X143500Y168431D02*
X142570Y168246D01*
X141781Y167719D01*
X141254Y166930D01*
X141069Y166000D01*
X141254Y165070D01*
X141781Y164281D01*
X142570Y163754D01*
X143500Y163569D01*
X144430Y163754D01*
X145219Y164281D01*
X145746Y165070D01*
X145931Y166000D01*
X145746Y166930D01*
X145219Y167719D01*
X144430Y168246D01*
X143500Y168431D01*
D02*
G37*
G36*
X155000Y162931D02*
X154070Y162746D01*
X153281Y162219D01*
X152754Y161430D01*
X152569Y160500D01*
X152754Y159570D01*
X153281Y158781D01*
X154070Y158254D01*
X155000Y158069D01*
X155930Y158254D01*
X156719Y158781D01*
X157246Y159570D01*
X157431Y160500D01*
X157246Y161430D01*
X156719Y162219D01*
X155930Y162746D01*
X155000Y162931D01*
D02*
G37*
G36*
X55000Y196927D02*
X32000D01*
X31454Y196819D01*
X30991Y196509D01*
X30681Y196046D01*
X30573Y195500D01*
Y176659D01*
X30557Y176500D01*
Y122750D01*
X30729Y121005D01*
X31238Y119328D01*
X32064Y117781D01*
X33176Y116426D01*
X34532Y115314D01*
X36078Y114488D01*
X37755Y113979D01*
X39500Y113807D01*
X41245Y113979D01*
X42922Y114488D01*
X44469Y115314D01*
X45824Y116426D01*
X46936Y117781D01*
X47762Y119328D01*
X48271Y121005D01*
X48443Y122750D01*
Y166573D01*
X53688D01*
X67445Y152815D01*
X68073Y152396D01*
X68815Y152248D01*
X68830D01*
X69570Y151754D01*
X70500Y151569D01*
X71430Y151754D01*
X72219Y152281D01*
X72746Y153070D01*
X72931Y154000D01*
X72746Y154930D01*
X72219Y155719D01*
X71430Y156246D01*
X70500Y156431D01*
X69570Y156246D01*
X69524Y156216D01*
X56427Y169312D01*
Y195500D01*
X56400Y195638D01*
Y196900D01*
X55138D01*
X55000Y196927D01*
D02*
G37*
G36*
X98000Y138431D02*
X97070Y138246D01*
X96281Y137719D01*
X95754Y136930D01*
X95569Y136000D01*
X95754Y135070D01*
X96281Y134281D01*
X97070Y133754D01*
X98000Y133569D01*
X98930Y133754D01*
X99719Y134281D01*
X100246Y135070D01*
X100431Y136000D01*
X100246Y136930D01*
X99719Y137719D01*
X98930Y138246D01*
X98000Y138431D01*
D02*
G37*
G36*
X19900Y127081D02*
Y123150D01*
X23831D01*
X23735Y123885D01*
X23297Y124942D01*
X22600Y125850D01*
X21692Y126547D01*
X20635Y126985D01*
X19900Y127081D01*
D02*
G37*
G36*
X19100D02*
X18365Y126985D01*
X17308Y126547D01*
X16400Y125850D01*
X15703Y124942D01*
X15265Y123885D01*
X15169Y123150D01*
X19100D01*
Y127081D01*
D02*
G37*
G36*
X104500Y157431D02*
X103570Y157246D01*
X102781Y156719D01*
X102254Y155930D01*
X102069Y155000D01*
X102254Y154070D01*
X102461Y153760D01*
Y127500D01*
X102616Y126720D01*
X103058Y126058D01*
X104182Y124935D01*
X104254Y124570D01*
X104781Y123781D01*
X105570Y123254D01*
X106500Y123069D01*
X107430Y123254D01*
X108219Y123781D01*
X108746Y124570D01*
X108931Y125500D01*
X108746Y126430D01*
X108219Y127219D01*
X107430Y127746D01*
X107065Y127819D01*
X106539Y128345D01*
Y153760D01*
X106746Y154070D01*
X106931Y155000D01*
X106746Y155930D01*
X106219Y156719D01*
X105430Y157246D01*
X104500Y157431D01*
D02*
G37*
G36*
X19100Y122350D02*
X15169D01*
X15265Y121615D01*
X15703Y120558D01*
X16400Y119650D01*
X17308Y118953D01*
X18365Y118516D01*
X19100Y118419D01*
Y122350D01*
D02*
G37*
G36*
X23831D02*
X19900D01*
Y118419D01*
X20635Y118516D01*
X21692Y118953D01*
X22600Y119650D01*
X23297Y120558D01*
X23735Y121615D01*
X23831Y122350D01*
D02*
G37*
G36*
X81200Y119900D02*
X78800D01*
Y116400D01*
X81200D01*
Y119900D01*
D02*
G37*
G36*
X78000D02*
X75600D01*
Y116400D01*
X78000D01*
Y119900D01*
D02*
G37*
G36*
X81200Y115600D02*
X78800D01*
Y112100D01*
X81200D01*
Y115600D01*
D02*
G37*
G36*
X78000D02*
X75600D01*
Y112100D01*
X78000D01*
Y115600D01*
D02*
G37*
G36*
X88500Y91431D02*
X87570Y91246D01*
X86781Y90719D01*
X86254Y89930D01*
X86069Y89000D01*
X86254Y88070D01*
X86781Y87281D01*
X87570Y86754D01*
X88500Y86569D01*
X89430Y86754D01*
X90219Y87281D01*
X90746Y88070D01*
X90931Y89000D01*
X90746Y89930D01*
X90219Y90719D01*
X89430Y91246D01*
X88500Y91431D01*
D02*
G37*
G36*
X106500Y80431D02*
X105570Y80246D01*
X104781Y79719D01*
X104254Y78930D01*
X104069Y78000D01*
X104254Y77070D01*
X104781Y76281D01*
X105570Y75754D01*
X106500Y75569D01*
X107430Y75754D01*
X108219Y76281D01*
X108746Y77070D01*
X108931Y78000D01*
X108746Y78930D01*
X108219Y79719D01*
X107430Y80246D01*
X106500Y80431D01*
D02*
G37*
G36*
X19900Y73331D02*
Y69400D01*
X23831D01*
X23735Y70135D01*
X23297Y71192D01*
X22600Y72100D01*
X21692Y72797D01*
X20635Y73235D01*
X19900Y73331D01*
D02*
G37*
G36*
X19100D02*
X18365Y73235D01*
X17308Y72797D01*
X16400Y72100D01*
X15703Y71192D01*
X15265Y70135D01*
X15169Y69400D01*
X19100D01*
Y73331D01*
D02*
G37*
G36*
X23831Y68600D02*
X19900D01*
Y64669D01*
X20635Y64765D01*
X21692Y65203D01*
X22600Y65900D01*
X23297Y66808D01*
X23735Y67865D01*
X23831Y68600D01*
D02*
G37*
G36*
X19100D02*
X15169D01*
X15265Y67865D01*
X15703Y66808D01*
X16400Y65900D01*
X17308Y65203D01*
X18365Y64765D01*
X19100Y64669D01*
Y68600D01*
D02*
G37*
G36*
X39500Y74582D02*
X38055Y74391D01*
X36709Y73834D01*
X35553Y72947D01*
X34666Y71791D01*
X34109Y70445D01*
X33918Y69000D01*
X34109Y67555D01*
X34666Y66209D01*
X35553Y65053D01*
X36709Y64166D01*
X38055Y63609D01*
X39500Y63418D01*
X40945Y63609D01*
X42291Y64166D01*
X43447Y65053D01*
X44334Y66209D01*
X44891Y67555D01*
X45082Y69000D01*
X44891Y70445D01*
X44334Y71791D01*
X43447Y72947D01*
X42291Y73834D01*
X40945Y74391D01*
X39500Y74582D01*
D02*
G37*
G36*
X20400Y41373D02*
Y32900D01*
X27928D01*
Y33484D01*
X27776Y35031D01*
X27325Y36518D01*
X26592Y37889D01*
X25606Y39090D01*
X24405Y40076D01*
X23034Y40809D01*
X21547Y41260D01*
X20400Y41373D01*
D02*
G37*
G36*
X19600D02*
X18453Y41260D01*
X16966Y40809D01*
X15596Y40076D01*
X14394Y39090D01*
X13408Y37889D01*
X12675Y36518D01*
X12224Y35031D01*
X12072Y33484D01*
Y32900D01*
X19600D01*
Y41373D01*
D02*
G37*
G36*
X27928Y32100D02*
X20400D01*
Y23627D01*
X21547Y23740D01*
X23034Y24191D01*
X24405Y24924D01*
X25606Y25910D01*
X26592Y27111D01*
X27325Y28482D01*
X27776Y29969D01*
X27928Y31516D01*
Y32100D01*
D02*
G37*
G36*
X19600D02*
X12072D01*
Y31516D01*
X12224Y29969D01*
X12675Y28482D01*
X13408Y27111D01*
X14394Y25910D01*
X15596Y24924D01*
X16966Y24191D01*
X18453Y23740D01*
X19600Y23627D01*
Y32100D01*
D02*
G37*
G36*
X69800Y120300D02*
X63400D01*
Y111700D01*
X63975D01*
Y109142D01*
X62587Y108567D01*
X60550Y107318D01*
X58733Y105767D01*
X57182Y103950D01*
X55933Y101913D01*
X55019Y99705D01*
X54461Y97382D01*
X54273Y95000D01*
X54461Y92618D01*
X55019Y90295D01*
X55933Y88087D01*
X57182Y86050D01*
X58733Y84233D01*
X60550Y82682D01*
X62587Y81433D01*
X64795Y80519D01*
X66575Y80091D01*
Y63984D01*
X66675Y63227D01*
X66967Y62522D01*
X67432Y61916D01*
X92434Y36914D01*
X92304Y36672D01*
X91830Y35109D01*
X91670Y33484D01*
Y31516D01*
X91830Y29891D01*
X92304Y28328D01*
X92434Y28086D01*
X81273Y16925D01*
X66100D01*
Y18300D01*
X59700D01*
Y9700D01*
X66100D01*
Y11075D01*
X82484D01*
X83241Y11175D01*
X83947Y11467D01*
X84553Y11932D01*
X96570Y23949D01*
X96812Y23820D01*
X98375Y23346D01*
X100000Y23186D01*
X101625Y23346D01*
X103188Y23820D01*
X104628Y24590D01*
X105890Y25626D01*
X106926Y26888D01*
X107696Y28328D01*
X108170Y29891D01*
X108330Y31516D01*
Y33484D01*
X108170Y35109D01*
X107696Y36672D01*
X106926Y38112D01*
X105890Y39374D01*
X104628Y40410D01*
X103188Y41180D01*
X101625Y41654D01*
X100000Y41814D01*
X98375Y41654D01*
X96812Y41180D01*
X96570Y41051D01*
X72425Y65196D01*
Y80091D01*
X74205Y80519D01*
X76413Y81433D01*
X78450Y82682D01*
X80267Y84233D01*
X81818Y86050D01*
X83067Y88087D01*
X83981Y90295D01*
X84539Y92618D01*
X84727Y95000D01*
X84539Y97382D01*
X83981Y99705D01*
X83067Y101913D01*
X81818Y103950D01*
X80267Y105767D01*
X78450Y107318D01*
X76413Y108567D01*
X74205Y109481D01*
X71882Y110039D01*
X69825Y110201D01*
Y115700D01*
X69800Y115890D01*
Y120300D01*
D02*
G37*
G36*
X80000Y41814D02*
X78375Y41654D01*
X76812Y41180D01*
X75372Y40410D01*
X74110Y39374D01*
X73074Y38112D01*
X72304Y36672D01*
X71830Y35109D01*
X71670Y33484D01*
Y31516D01*
X71830Y29891D01*
X72304Y28328D01*
X73074Y26888D01*
X74110Y25626D01*
X75372Y24590D01*
X76812Y23820D01*
X78375Y23346D01*
X80000Y23186D01*
X81625Y23346D01*
X83188Y23820D01*
X84628Y24590D01*
X85890Y25626D01*
X86926Y26888D01*
X87696Y28328D01*
X88170Y29891D01*
X88330Y31516D01*
Y33484D01*
X88170Y35109D01*
X87696Y36672D01*
X86926Y38112D01*
X85890Y39374D01*
X84628Y40410D01*
X83188Y41180D01*
X81625Y41654D01*
X80000Y41814D01*
D02*
G37*
G36*
X60000D02*
X58375Y41654D01*
X56812Y41180D01*
X55372Y40410D01*
X54110Y39374D01*
X53074Y38112D01*
X52304Y36672D01*
X51830Y35109D01*
X51670Y33484D01*
Y31516D01*
X51830Y29891D01*
X52304Y28328D01*
X53074Y26888D01*
X54110Y25626D01*
X55372Y24590D01*
X56812Y23820D01*
X58375Y23346D01*
X60000Y23186D01*
X61625Y23346D01*
X63188Y23820D01*
X64628Y24590D01*
X65890Y25626D01*
X66926Y26888D01*
X67696Y28328D01*
X68170Y29891D01*
X68330Y31516D01*
Y33484D01*
X68170Y35109D01*
X67696Y36672D01*
X66926Y38112D01*
X65890Y39374D01*
X64628Y40410D01*
X63188Y41180D01*
X61625Y41654D01*
X60000Y41814D01*
D02*
G37*
G36*
X25130Y21406D02*
X21400D01*
Y14900D01*
X25130D01*
Y21406D01*
D02*
G37*
G36*
X20600D02*
X16870D01*
Y14900D01*
X20600D01*
Y21406D01*
D02*
G37*
G36*
X167300Y16300D02*
X163900D01*
Y13800D01*
X167300D01*
Y16300D01*
D02*
G37*
G36*
X147800D02*
X144400D01*
Y13800D01*
X147800D01*
Y16300D01*
D02*
G37*
G36*
X127300D02*
X123900D01*
Y13800D01*
X127300D01*
Y16300D01*
D02*
G37*
G36*
X40000Y41814D02*
X38375Y41654D01*
X36812Y41180D01*
X35372Y40410D01*
X34110Y39374D01*
X33074Y38112D01*
X32304Y36672D01*
X31830Y35109D01*
X31670Y33484D01*
Y31516D01*
X31830Y29891D01*
X32304Y28328D01*
X32927Y27162D01*
Y15142D01*
X33051Y13887D01*
X33417Y12681D01*
X34011Y11569D01*
X34187Y11355D01*
Y7194D01*
X43246D01*
Y10053D01*
X43906Y10594D01*
X44091Y10821D01*
X47900D01*
Y9700D01*
X54300D01*
Y18300D01*
X47900D01*
Y17679D01*
X45789D01*
Y25543D01*
X45890Y25626D01*
X46926Y26888D01*
X47696Y28328D01*
X48170Y29891D01*
X48330Y31516D01*
Y33484D01*
X48170Y35109D01*
X47696Y36672D01*
X46926Y38112D01*
X45890Y39374D01*
X44628Y40410D01*
X43188Y41180D01*
X41625Y41654D01*
X40000Y41814D01*
D02*
G37*
G36*
X25130Y14100D02*
X21400D01*
Y7594D01*
X25130D01*
Y14100D01*
D02*
G37*
G36*
X20600D02*
X16870D01*
Y7594D01*
X20600D01*
Y14100D01*
D02*
G37*
G36*
X214100Y136100D02*
X212400D01*
Y134400D01*
X214100D01*
Y136100D01*
D02*
G37*
G36*
X183700Y120500D02*
X182000D01*
Y118800D01*
X183700D01*
Y120500D01*
D02*
G37*
G36*
X201980Y72352D02*
X198400D01*
Y68989D01*
X199229Y69099D01*
X200141Y69476D01*
X200924Y70077D01*
X201526Y70861D01*
X201904Y71773D01*
X201980Y72352D01*
D02*
G37*
G36*
X197600D02*
X194020D01*
X194097Y71773D01*
X194474Y70861D01*
X195076Y70077D01*
X195859Y69476D01*
X196771Y69099D01*
X197600Y68989D01*
Y72352D01*
D02*
G37*
G36*
X395100Y53331D02*
X394365Y53235D01*
X393308Y52797D01*
X392400Y52100D01*
X391703Y51192D01*
X391265Y50135D01*
X391169Y49400D01*
X395100D01*
Y53331D01*
D02*
G37*
G36*
Y48600D02*
X391169D01*
X391265Y47865D01*
X391703Y46808D01*
X392400Y45900D01*
X393308Y45203D01*
X394365Y44765D01*
X395100Y44669D01*
Y48600D01*
D02*
G37*
G36*
X266000Y54947D02*
X230000D01*
X229064Y54761D01*
X228270Y54230D01*
X222270Y48230D01*
X221739Y47436D01*
X221553Y46500D01*
X221739Y45564D01*
X222270Y44770D01*
X223064Y44239D01*
X224000Y44053D01*
X224936Y44239D01*
X225730Y44770D01*
X231014Y50053D01*
X266000D01*
X266936Y50239D01*
X267730Y50770D01*
X268261Y51564D01*
X268447Y52500D01*
X268261Y53436D01*
X267730Y54230D01*
X266936Y54761D01*
X266000Y54947D01*
D02*
G37*
G36*
X197000Y48431D02*
X196070Y48246D01*
X195281Y47719D01*
X194754Y46930D01*
X194569Y46000D01*
X194754Y45070D01*
X195281Y44281D01*
X196070Y43754D01*
X197000Y43569D01*
X197930Y43754D01*
X198719Y44281D01*
X199246Y45070D01*
X199431Y46000D01*
X199246Y46930D01*
X198719Y47719D01*
X197930Y48246D01*
X197000Y48431D01*
D02*
G37*
G36*
X207500D02*
X206570Y48246D01*
X205781Y47719D01*
X205254Y46930D01*
X205069Y46000D01*
X205254Y45070D01*
X205781Y44281D01*
Y43719D01*
X205254Y42930D01*
X205069Y42000D01*
X205254Y41070D01*
X205781Y40281D01*
X206570Y39754D01*
X207500Y39569D01*
X208430Y39754D01*
X209219Y40281D01*
X209746Y41070D01*
X209931Y42000D01*
X209746Y42930D01*
X209219Y43719D01*
Y44281D01*
X209746Y45070D01*
X209931Y46000D01*
X209746Y46930D01*
X209219Y47719D01*
X208430Y48246D01*
X207500Y48431D01*
D02*
G37*
G36*
X188500Y44431D02*
X187570Y44246D01*
X186781Y43719D01*
X186254Y42930D01*
X186069Y42000D01*
X186254Y41070D01*
X186781Y40281D01*
X187570Y39754D01*
X188500Y39569D01*
X189430Y39754D01*
X190219Y40281D01*
X190746Y41070D01*
X190931Y42000D01*
X190746Y42930D01*
X190219Y43719D01*
X189430Y44246D01*
X188500Y44431D01*
D02*
G37*
G36*
X395100Y43331D02*
X394365Y43235D01*
X393308Y42797D01*
X392400Y42100D01*
X391703Y41192D01*
X391265Y40135D01*
X391169Y39400D01*
X395100D01*
Y43331D01*
D02*
G37*
G36*
Y38600D02*
X391169D01*
X391265Y37865D01*
X391703Y36808D01*
X392400Y35900D01*
X393308Y35203D01*
X394365Y34765D01*
X395100Y34669D01*
Y38600D01*
D02*
G37*
G36*
Y33331D02*
X394365Y33235D01*
X393308Y32797D01*
X392400Y32100D01*
X391703Y31192D01*
X391265Y30135D01*
X391169Y29400D01*
X395100D01*
Y33331D01*
D02*
G37*
G36*
Y28600D02*
X391169D01*
X391265Y27865D01*
X391703Y26808D01*
X392400Y25900D01*
X393308Y25203D01*
X394365Y24765D01*
X395100Y24669D01*
Y28600D01*
D02*
G37*
G36*
X308000Y91931D02*
X307070Y91746D01*
X306281Y91219D01*
X305754Y90430D01*
X305569Y89500D01*
X305754Y88570D01*
X306281Y87781D01*
X307070Y87254D01*
X308000Y87069D01*
X308930Y87254D01*
X309719Y87781D01*
X310246Y88570D01*
X310431Y89500D01*
X310246Y90430D01*
X309719Y91219D01*
X308930Y91746D01*
X308000Y91931D01*
D02*
G37*
%LPD*%
G54D11*
X103500Y119000D02*
X110500D01*
X223500Y175500D02*
Y178500D01*
X210500Y191500D02*
X223500Y178500D01*
X210500Y183500D02*
X219500Y174500D01*
X210500Y183500D02*
Y187500D01*
X205000Y172000D02*
X249500D01*
X254500Y167000D01*
X228000Y123520D02*
X228020Y123500D01*
X233000D01*
X215790Y85000D02*
X229000D01*
X211416Y80626D02*
X215790Y85000D01*
X198703Y121703D02*
X228000D01*
X188500Y111500D02*
X198703Y121703D01*
X188500Y110500D02*
Y111500D01*
X198626Y97000D02*
X215500D01*
X198000Y96374D02*
X198626Y97000D01*
X207500Y194500D02*
X210500Y191500D01*
X228500Y169000D02*
X260500Y137000D01*
X202500Y169000D02*
X228500D01*
X200500Y171000D02*
X202500Y169000D01*
X254500Y149000D02*
Y167000D01*
X198000Y80626D02*
X211416D01*
X198000Y88500D02*
X212000D01*
X220000Y96500D01*
X376000Y49000D02*
Y53000D01*
X274000Y97000D02*
X277500Y93500D01*
Y83000D02*
Y93500D01*
Y83000D02*
X286000Y74500D01*
X139000Y147500D02*
X205000D01*
X110500Y119000D02*
X139000Y147500D01*
X205000D02*
X224000Y166500D01*
X218738Y111000D02*
X219000D01*
X218238Y111500D02*
X218738Y111000D01*
X199977Y111500D02*
X218238D01*
X249500Y150263D02*
X263500Y136263D01*
X249500Y150263D02*
Y159000D01*
X260500Y118000D02*
Y137000D01*
X263500Y112000D02*
Y136263D01*
X246500Y92500D02*
Y93000D01*
Y92500D02*
X259500Y79500D01*
X250000Y93000D02*
X250500D01*
X267000Y97000D02*
X274000D01*
X263500Y112000D02*
X266000Y109500D01*
X238500Y155000D02*
X254000Y139500D01*
Y127500D02*
Y139500D01*
X224500Y155000D02*
X238500D01*
X250500Y93000D02*
X260000Y83500D01*
X242000Y128000D02*
Y146500D01*
X239000Y149500D02*
X242000Y146500D01*
X266000Y118000D02*
Y161000D01*
X259500Y167500D02*
X266000Y161000D01*
X300882Y145000D02*
X309500Y136382D01*
X288165Y145000D02*
X300882D01*
X70315Y154185D02*
X70500Y154000D01*
X68815Y154185D02*
X70315D01*
X54000Y169000D02*
X68815Y154185D01*
X70500Y169000D02*
Y174500D01*
X378000Y89000D02*
X379055Y87945D01*
X373000Y94000D02*
X378000Y89000D01*
X373000Y94000D02*
Y104000D01*
X379055Y87500D02*
Y87945D01*
Y87500D02*
X381555Y85000D01*
X382000D01*
X376000Y39000D02*
Y49000D01*
Y29000D02*
Y39000D01*
G54D33*
X384500Y112500D02*
D03*
X366500D02*
D03*
X384000Y75500D02*
D03*
X366000D02*
D03*
G54D51*
X189071Y212000D02*
D03*
X125929D02*
D03*
X90429D02*
D03*
X290071Y212100D02*
D03*
X33429Y208000D02*
D03*
X206971Y212100D02*
D03*
G54D52*
X179929Y212000D02*
D03*
X135071D02*
D03*
X99571D02*
D03*
X280929Y212100D02*
D03*
X42571Y208000D02*
D03*
X197829Y212100D02*
D03*
G54D56*
X377500Y59000D02*
D03*
X372500D02*
D03*
G54D57*
X182000Y218000D02*
D03*
Y223000D02*
D03*
X187000D02*
D03*
Y218000D02*
D03*
X133000D02*
D03*
Y223000D02*
D03*
X128000D02*
D03*
Y218000D02*
D03*
X97500D02*
D03*
Y223000D02*
D03*
X92500D02*
D03*
Y218000D02*
D03*
X282500D02*
D03*
Y223000D02*
D03*
X40100Y217900D02*
D03*
Y222900D02*
D03*
X287500Y223000D02*
D03*
Y218000D02*
D03*
X35100Y222900D02*
D03*
Y217900D02*
D03*
X200000Y218000D02*
D03*
Y223000D02*
D03*
X205000D02*
D03*
Y218000D02*
D03*
G54D58*
X376000Y29000D02*
D03*
X372000D02*
D03*
X376000Y39000D02*
D03*
X372000D02*
D03*
X376000Y49000D02*
D03*
X372000D02*
D03*
X184100Y128900D02*
D03*
X188100D02*
D03*
X212000Y126000D02*
D03*
X208000D02*
D03*
X184100Y124900D02*
D03*
X188100D02*
D03*
X212000Y130000D02*
D03*
X208000D02*
D03*
X184100Y120900D02*
D03*
X188100D02*
D03*
X212000Y134000D02*
D03*
X208000D02*
D03*
X233000Y123500D02*
D03*
X237000D02*
D03*
X186500Y228000D02*
D03*
X182500D02*
D03*
X132500D02*
D03*
X128500D02*
D03*
X97000D02*
D03*
X93000D02*
D03*
X39600Y227900D02*
D03*
X35600D02*
D03*
X287500Y228000D02*
D03*
X283500D02*
D03*
X204400Y228100D02*
D03*
X200400D02*
D03*
G54D59*
X210500Y191500D02*
D03*
Y187500D02*
D03*
G54D61*
X145900Y6500D02*
D03*
X134100D02*
D03*
X125900D02*
D03*
X114100D02*
D03*
X165900D02*
D03*
X154100D02*
D03*
X303100Y241000D02*
D03*
X314900D02*
D03*
X207600D02*
D03*
X219400D02*
D03*
X284400Y174000D02*
D03*
X272600D02*
D03*
X62900Y14000D02*
D03*
X51100D02*
D03*
X66600Y116000D02*
D03*
X78400D02*
D03*
X16100Y237000D02*
D03*
X27900D02*
D03*
G54D116*
X393500Y208100D02*
D03*
Y235443D02*
D03*
G54D117*
X382200Y212224D02*
D03*
Y231319D02*
D03*
G54D121*
X228000Y123520D02*
Y129500D01*
Y121703D02*
Y123520D01*
Y111000D02*
Y121703D01*
X215500Y98500D02*
X228000Y111000D01*
X215500Y95500D02*
Y97000D01*
Y98500D01*
X218500Y139000D02*
Y146000D01*
Y139000D02*
X228000Y129500D01*
X386000Y99000D02*
X391000Y94000D01*
X384445Y100555D02*
X386000Y99000D01*
X230000Y52500D02*
X266000D01*
X224000Y46500D02*
X230000Y52500D01*
X196500Y245000D02*
X204700D01*
X207600Y242100D01*
Y241000D02*
Y242100D01*
X190000Y238500D02*
X196500Y245000D01*
X292000Y245500D02*
X299700D01*
X303100Y242100D01*
Y241000D02*
Y242100D01*
X285000Y238500D02*
X292000Y245500D01*
X356500Y109000D02*
Y121500D01*
X346500Y131500D02*
X356500Y121500D01*
X326634Y151366D02*
X346500Y131500D01*
X320634Y151366D02*
X326634D01*
X319500Y152500D02*
X320634Y151366D01*
X391000Y63500D02*
Y94000D01*
Y63500D02*
X395500Y59000D01*
X384445Y100555D02*
Y101000D01*
X382445Y103000D02*
X384445Y101000D01*
X382000Y103000D02*
X382445D01*
X382000D02*
X384000Y105000D01*
Y112000D01*
X384500Y112500D01*
X382000Y85000D02*
X384000Y83000D01*
Y75500D02*
Y83000D01*
X377500Y59000D02*
X384000Y65500D01*
Y75500D01*
X365500Y59000D02*
X372500D01*
G54D122*
X39500Y122750D02*
Y176500D01*
G54D123*
X104500Y127500D02*
Y155000D01*
Y127500D02*
X106500Y125500D01*
G54D124*
X153500Y182500D02*
X175000D01*
X153000Y185000D02*
X172000D01*
X159571Y187500D02*
X166000D01*
X136191Y206000D02*
X154500Y187691D01*
X135071Y211864D02*
X136689Y210246D01*
X136824D01*
X159571Y187500D01*
X135500Y202500D02*
X153000Y185000D01*
X163100Y209900D02*
Y213400D01*
X167000Y207980D02*
Y219500D01*
Y207980D02*
X180480Y194500D01*
X151868Y179632D02*
X165000D01*
X135000Y201000D02*
X153500Y182500D01*
X239000Y212000D02*
Y213400D01*
X236900Y215500D02*
X239000Y213400D01*
X235000Y215500D02*
X236900D01*
X235000Y208000D02*
X239000Y212000D01*
X83500Y200500D02*
X86000Y198000D01*
X50071Y200500D02*
X83500D01*
X44324Y206246D02*
X50071Y200500D01*
X256100Y212100D02*
X280929D01*
X241500Y197500D02*
X256100Y212100D01*
X164500Y222000D02*
X167000Y219500D01*
X241500Y123500D02*
X246000Y128000D01*
X237000Y123500D02*
X241500D01*
X314000Y62500D02*
X331000Y45500D01*
X349500D01*
X196284Y115000D02*
X218684D01*
X220184Y116500D01*
X220500D01*
X232500Y187500D02*
X236000D01*
X252758Y102500D02*
X290258Y65000D01*
X297000D01*
X105571Y206000D02*
X136191D01*
X133500Y198000D02*
X151868Y179632D01*
X86000Y198000D02*
X133500D01*
X90500Y201000D02*
X135000D01*
X90980Y202500D02*
X135500D01*
X181500Y197000D02*
Y210429D01*
X184135Y198000D02*
X184500D01*
X182000Y191000D02*
X188000D01*
X180480Y194500D02*
X188000D01*
X250190Y102262D02*
Y102500D01*
X247621Y102262D02*
Y102500D01*
X245053Y102262D02*
Y102500D01*
X314000Y62500D02*
Y119500D01*
X237500Y107000D02*
X258000Y127500D01*
X233000Y107000D02*
X237500D01*
X230500Y104500D02*
X233000Y107000D01*
X230500Y99000D02*
Y104500D01*
X238500Y104000D02*
X258000Y123500D01*
X233500Y104000D02*
X238500D01*
X245053Y102262D02*
X290021Y57294D01*
X243500Y105500D02*
X243589D01*
X297500Y119500D02*
X314000D01*
X272500Y107000D02*
X279500Y114000D01*
X311500D01*
X245089Y107000D02*
X272500D01*
X243589Y105500D02*
X245089Y107000D01*
X247621Y102262D02*
X290021Y59863D01*
Y57294D02*
X297000D01*
X290021Y59863D02*
X297000D01*
X290021Y62432D02*
X297000D01*
X250190Y102262D02*
X290021Y62432D01*
X184115Y198385D02*
X197829Y212100D01*
X183932Y198203D02*
X184115Y198385D01*
X183932Y198203D02*
X184135Y198000D01*
X179929Y212000D02*
X181500Y210429D01*
X163100Y209900D02*
X182000Y191000D01*
X287500Y231000D02*
X295000Y238500D01*
X287500Y228000D02*
Y231000D01*
X275000Y238500D02*
X277946Y235554D01*
Y233554D02*
Y235554D01*
Y233554D02*
X283500Y228000D01*
X283556Y223000D02*
X287500D01*
X283500Y223056D02*
X283556Y223000D01*
X283500Y223056D02*
Y228000D01*
X289831Y212339D02*
Y215669D01*
Y212339D02*
X290071Y212100D01*
X287500Y218000D02*
X289831Y215669D01*
X280929Y212100D02*
X282500Y213671D01*
Y218000D01*
X222900Y228100D02*
X223500Y227500D01*
X204400Y228100D02*
X222900D01*
X200400D02*
X207854Y235554D01*
X224553D01*
X227500Y238500D01*
X200400Y223400D02*
Y228100D01*
X200000Y223000D02*
X200400Y223400D01*
X200000Y223000D02*
X205000D01*
Y218000D02*
X206200Y216800D01*
Y212871D02*
Y216800D01*
Y212871D02*
X206971Y212100D01*
X198800Y216800D02*
X200000Y218000D01*
X198800Y213071D02*
Y216800D01*
X197829Y212100D02*
X198800Y213071D01*
X189500Y228000D02*
X200000Y238500D01*
X186500Y228000D02*
X189500D01*
X180000Y238500D02*
X182500Y236000D01*
Y228000D02*
Y236000D01*
Y223500D02*
Y228000D01*
X182000Y223000D02*
X182500Y223500D01*
X182000Y223000D02*
X187000D01*
X180800Y216800D02*
X182000Y218000D01*
X180800Y212871D02*
Y216800D01*
X179929Y212000D02*
X180800Y212871D01*
X187000Y218000D02*
X188200Y216800D01*
Y212871D02*
Y216800D01*
Y212871D02*
X189071Y212000D01*
X146500Y228000D02*
X147000Y227500D01*
X132500Y228000D02*
X146500D01*
X128500Y234500D02*
X132500Y238500D01*
X128500Y228000D02*
Y234500D01*
Y223500D02*
Y228000D01*
X128000Y223000D02*
X128500Y223500D01*
X132500D01*
X133453Y213618D02*
X135071Y212000D01*
X133453Y213618D02*
Y217547D01*
X133000Y218000D02*
X133453Y217547D01*
X126800Y216800D02*
X128000Y218000D01*
X126800Y212871D02*
Y216800D01*
X125929Y212000D02*
X126800Y212871D01*
X103873Y237372D02*
X105000Y238500D01*
X103873Y234872D02*
Y237372D01*
X97000Y228000D02*
X103873Y234872D01*
X85000Y238500D02*
X93000Y230500D01*
Y228000D02*
Y230500D01*
X92500Y223000D02*
X93000Y223500D01*
Y228000D01*
X92500Y223000D02*
X97500D01*
X97953Y213482D02*
X101189Y210246D01*
X97953Y213482D02*
Y217547D01*
X97500Y218000D02*
X97953Y217547D01*
X91300Y216800D02*
X92500Y218000D01*
X91300Y212871D02*
Y216800D01*
X90429Y212000D02*
X91300Y212871D01*
X51100Y227900D02*
X51500Y227500D01*
X39600Y227900D02*
X51100D01*
X35600Y236600D02*
X37500Y238500D01*
X35600Y227900D02*
Y236600D01*
X35100Y222900D02*
X40100D01*
X35600Y223400D02*
Y227900D01*
X35100Y222900D02*
X35600Y223400D01*
X33900Y216700D02*
X35100Y217900D01*
X33900Y208471D02*
Y216700D01*
X33429Y208000D02*
X33900Y208471D01*
X40100Y217900D02*
X42571Y215429D01*
Y208000D02*
Y215429D01*
X68100Y223400D02*
Y225400D01*
Y223400D02*
X71000Y220500D01*
Y218000D02*
Y220500D01*
Y218000D02*
X72100Y216900D01*
X161000Y215500D02*
X163100Y213400D01*
X158500Y215500D02*
X161000D01*
X66000Y227500D02*
X68100Y225400D01*
X63500Y227500D02*
X66000D01*
X76580Y216900D02*
X90980Y202500D01*
X72100Y216900D02*
X76580D01*
X63500Y225500D02*
Y227500D01*
X76000Y215500D02*
X90500Y201000D01*
X63500Y215500D02*
X76000D01*
X236000Y187500D02*
X237500Y189000D01*
X101324Y210246D02*
X105571Y206000D01*
X44189Y206246D02*
X44324D01*
X42571Y207864D02*
X44189Y206246D01*
X42571Y207864D02*
Y208000D01*
X101189Y210246D02*
X101324D01*
X135071Y211864D02*
Y212000D01*
X237500Y189000D02*
Y207950D01*
X242500Y212950D01*
Y221500D01*
X235000Y190000D02*
Y208000D01*
G54D125*
X20000Y32500D02*
Y176000D01*
X19500Y176500D02*
X20000Y176000D01*
G54D127*
X188100Y120900D02*
X188700Y121500D01*
X194000D01*
X188100Y124900D02*
X188500Y124500D01*
X194000D01*
X193850Y128150D02*
X194000Y128000D01*
X188850Y128150D02*
X193850D01*
X188100Y128900D02*
X188850Y128150D01*
X198994Y126006D02*
X207994D01*
X208000Y126000D01*
X198461Y129539D02*
X207539D01*
X208000Y130000D01*
X198950Y132550D02*
X200400Y134000D01*
X208000D01*
X270500Y94000D02*
X276000Y88500D01*
Y81765D02*
Y88500D01*
Y81765D02*
X286265Y71500D01*
X236000Y97000D02*
Y101500D01*
X301500Y57500D02*
Y67000D01*
X266000D02*
X276500D01*
X296500Y69500D02*
X299500Y66500D01*
Y57000D02*
Y66500D01*
Y57000D02*
X327500Y29000D01*
X301000Y71500D02*
X304000Y68500D01*
Y57000D02*
Y68500D01*
Y57000D02*
X319500Y41500D01*
X286265Y71500D02*
X301000D01*
X244566Y91699D02*
X266765Y69500D01*
X244566Y91699D02*
Y92934D01*
X240000Y97500D02*
X244566Y92934D01*
X236000Y97000D02*
X266000Y67000D01*
X266765Y69500D02*
X274000D01*
X227000Y82000D02*
X235500D01*
X276500Y124500D02*
X314000D01*
X319500Y41500D02*
X358000D01*
X365500Y49000D01*
X301500Y57500D02*
X320000Y39000D01*
X365500D01*
X327500Y29000D02*
X365500D01*
X372000D01*
X365500Y39000D02*
X372000D01*
X365500Y49000D02*
X372000D01*
X238000Y81500D02*
Y91500D01*
Y81500D02*
X248500Y71000D01*
G54D128*
X66900Y97600D02*
X69500Y95000D01*
X66900Y97600D02*
Y115700D01*
X66600Y116000D02*
X66900Y115700D01*
X343300Y62300D02*
X343500Y62500D01*
X323200Y62300D02*
X343300D01*
X323000Y62100D02*
X323200Y62300D01*
X16050Y236950D02*
X16100Y237000D01*
X16050Y217050D02*
Y236950D01*
X16000Y217000D02*
X16050Y217050D01*
X69500Y63984D02*
Y95000D01*
Y63984D02*
X100000Y33484D01*
Y32500D02*
Y33484D01*
X62900Y14000D02*
X82484D01*
X100000Y31516D01*
Y32500D01*
X160000Y20600D02*
Y32500D01*
X120000Y20600D02*
Y32500D01*
X134100Y6500D02*
Y7600D01*
X135700Y9200D01*
Y13000D01*
X136100Y13400D01*
X137000D01*
X154100Y6500D02*
Y7600D01*
X155200Y8700D01*
Y13000D01*
X155600Y13400D01*
X156500D01*
X160000Y20600D02*
X163500D01*
X156500D02*
X160000D01*
X140500D02*
X144000D01*
X137000D02*
X140500D01*
Y32000D01*
X140000Y32500D02*
X140500Y32000D01*
X120000Y20600D02*
X123500D01*
X116500D02*
X120000D01*
X114100Y6500D02*
Y7600D01*
X115200Y8700D01*
Y13000D01*
X115600Y13400D01*
X116500D01*
X272500Y183000D02*
X272550Y182950D01*
Y174050D02*
Y182950D01*
Y174050D02*
X272600Y174000D01*
G54D129*
X181924Y136424D02*
X186000Y140500D01*
X180000Y134500D02*
X181924Y136424D01*
X38967Y14250D02*
X50850D01*
X186000Y140500D02*
X202500D01*
X205000D01*
X38717Y14500D02*
X38967Y14250D01*
G54D130*
X20000Y32500D02*
X20500Y32000D01*
Y15000D02*
Y32000D01*
Y15000D02*
X21000Y14500D01*
G54D143*
X19500Y69000D02*
D03*
Y122750D02*
D03*
Y176500D02*
D03*
X299500Y152500D02*
D03*
X365500Y59000D02*
D03*
Y49000D02*
D03*
Y39000D02*
D03*
X395500Y49000D02*
D03*
X365500Y29000D02*
D03*
X395500Y39000D02*
D03*
Y29000D02*
D03*
Y59000D02*
D03*
G54D144*
X39500Y69000D02*
D03*
Y122750D02*
D03*
Y176500D02*
D03*
X319500Y152500D02*
D03*
G54D145*
X272500Y183000D02*
D03*
G54D146*
X272500Y196650D02*
D03*
G54D147*
X20000Y32500D02*
D03*
X40000D02*
D03*
X60000D02*
D03*
X140000D02*
D03*
X80000D02*
D03*
X120000D02*
D03*
G54D148*
X100000D02*
D03*
G54D149*
X160000D02*
D03*
G54D150*
X200000Y238500D02*
D03*
X190000D02*
D03*
X152500D02*
D03*
X142500D02*
D03*
X105000D02*
D03*
X95000D02*
D03*
X295000D02*
D03*
X285000D02*
D03*
X57500D02*
D03*
X47500D02*
D03*
X247500D02*
D03*
X237500D02*
D03*
G54D151*
X180000D02*
D03*
X132500D02*
D03*
X85000D02*
D03*
X275000D02*
D03*
X37500D02*
D03*
X227500D02*
D03*
G54D152*
X198000Y80626D02*
D03*
Y88500D02*
D03*
Y72752D02*
D03*
G54D153*
Y96374D02*
D03*
G54D154*
X343500Y62500D02*
D03*
X340000Y227500D02*
D03*
X16000Y217000D02*
D03*
X69500Y95000D02*
D03*
G54D155*
X40000Y170415D02*
D03*
X35500Y172000D02*
D03*
X44000Y172500D02*
D03*
X33500Y177500D02*
D03*
X36500Y181500D02*
D03*
X42500D02*
D03*
X103500Y119000D02*
D03*
X106500Y78000D02*
D03*
X175000Y182500D02*
D03*
X172000Y185000D02*
D03*
X166000Y187500D02*
D03*
X154500Y187691D02*
D03*
X386000Y24500D02*
D03*
X258000Y69000D02*
D03*
X227000Y68000D02*
D03*
X303500Y84000D02*
D03*
X301500Y98000D02*
D03*
X334500Y201500D02*
D03*
X333000Y187500D02*
D03*
X333500Y175500D02*
D03*
X307500Y182500D02*
D03*
X304500D02*
D03*
X301500D02*
D03*
X312500Y214000D02*
D03*
X321000Y213500D02*
D03*
X302000Y213000D02*
D03*
X301500Y185500D02*
D03*
X304500D02*
D03*
X307500D02*
D03*
Y189500D02*
D03*
X304500D02*
D03*
X301500D02*
D03*
X270000Y146500D02*
D03*
X266500Y168500D02*
D03*
X221000Y150000D02*
D03*
X185500Y90000D02*
D03*
X81000Y227000D02*
D03*
X74000Y206000D02*
D03*
X24500Y195000D02*
D03*
X60000Y111500D02*
D03*
X92500Y11500D02*
D03*
X99000D02*
D03*
X395000Y100000D02*
D03*
X389500Y141000D02*
D03*
Y130000D02*
D03*
X382500Y173000D02*
D03*
X383500Y183500D02*
D03*
X374000Y209000D02*
D03*
X376500Y229000D02*
D03*
X321000Y235500D02*
D03*
X215000Y241000D02*
D03*
X268500Y219500D02*
D03*
X316500Y222500D02*
D03*
X184000Y116500D02*
D03*
X180500Y116000D02*
D03*
X203000Y105000D02*
D03*
X222500Y65000D02*
D03*
X201500Y20500D02*
D03*
X302000Y20000D02*
D03*
X344000Y18500D02*
D03*
X277500Y19000D02*
D03*
X334500Y19500D02*
D03*
X265500D02*
D03*
X212500Y20000D02*
D03*
X237500Y43500D02*
D03*
X238000Y58000D02*
D03*
X262500Y60500D02*
D03*
X267500Y74500D02*
D03*
X291500Y103000D02*
D03*
X302500Y107000D02*
D03*
X223000Y127000D02*
D03*
X269000Y133000D02*
D03*
X279000Y133500D02*
D03*
X282595D02*
D03*
X223500Y175500D02*
D03*
X219500Y174500D02*
D03*
X212500Y166000D02*
D03*
X207500Y145500D02*
D03*
X228500Y135500D02*
D03*
X241000Y175500D02*
D03*
X235000Y149500D02*
D03*
X275046Y119546D02*
D03*
X285546Y91046D02*
D03*
X273500Y85500D02*
D03*
X165000Y179632D02*
D03*
X246000Y128000D02*
D03*
X349500Y45500D02*
D03*
X229000Y85000D02*
D03*
X194000Y121500D02*
D03*
X196284Y115000D02*
D03*
X194000Y124500D02*
D03*
Y128000D02*
D03*
X198994Y126006D02*
D03*
X198461Y129539D02*
D03*
X198950Y132550D02*
D03*
X211500Y118500D02*
D03*
X181924Y136424D02*
D03*
X232500Y187500D02*
D03*
X207500Y194500D02*
D03*
X241500Y197500D02*
D03*
X205000Y172000D02*
D03*
X220000Y96500D02*
D03*
X308000Y89500D02*
D03*
X386000Y99000D02*
D03*
X308000Y71000D02*
D03*
X266000Y52500D02*
D03*
X224000Y46500D02*
D03*
X296000Y76000D02*
D03*
X376000Y53000D02*
D03*
X271500Y88000D02*
D03*
X254500Y149000D02*
D03*
X289500Y121000D02*
D03*
X230000Y95500D02*
D03*
X215500D02*
D03*
X228000Y129500D02*
D03*
X218500Y146000D02*
D03*
X188500Y110500D02*
D03*
X104500Y155000D02*
D03*
X106500Y125500D02*
D03*
X98000Y136000D02*
D03*
X224000Y166500D02*
D03*
X155000Y160500D02*
D03*
X143500Y166000D02*
D03*
X126500Y174000D02*
D03*
X181500Y197000D02*
D03*
X184500Y198000D02*
D03*
X188000Y191000D02*
D03*
Y194500D02*
D03*
X220500Y116500D02*
D03*
X219000Y111000D02*
D03*
X199977Y111500D02*
D03*
X256000D02*
D03*
X252758Y102500D02*
D03*
X250190D02*
D03*
X247621D02*
D03*
X245053D02*
D03*
X236000Y101500D02*
D03*
X258000Y127500D02*
D03*
X230500Y99000D02*
D03*
X258000Y123500D02*
D03*
X243500Y105500D02*
D03*
X233500Y104000D02*
D03*
X301500Y67000D02*
D03*
X276500D02*
D03*
X274000Y69500D02*
D03*
X296500D02*
D03*
X240000Y97500D02*
D03*
X311500Y114000D02*
D03*
X314000Y124500D02*
D03*
X276500D02*
D03*
X270500Y94000D02*
D03*
X297000Y57294D02*
D03*
Y59863D02*
D03*
Y62432D02*
D03*
Y65000D02*
D03*
X246500Y93000D02*
D03*
X250000D02*
D03*
X267000Y97000D02*
D03*
X266000Y109500D02*
D03*
X249500Y159000D02*
D03*
X286000Y74500D02*
D03*
X260000Y83500D02*
D03*
X259500Y79500D02*
D03*
X254000Y127500D02*
D03*
X224500Y155000D02*
D03*
X242000Y128000D02*
D03*
X239000Y149500D02*
D03*
X260500Y118000D02*
D03*
X200500Y171000D02*
D03*
X266000Y118000D02*
D03*
X202500Y140500D02*
D03*
X205000D02*
D03*
X180000Y134500D02*
D03*
X288165Y145000D02*
D03*
X309500Y136382D02*
D03*
X356500Y109000D02*
D03*
X346500Y131500D02*
D03*
X259500Y167500D02*
D03*
X88500Y89000D02*
D03*
X70500Y154000D02*
D03*
X53500Y170500D02*
D03*
X70500Y169000D02*
D03*
X235000Y190000D02*
D03*
X314000Y119500D02*
D03*
X297500D02*
D03*
X378000Y89000D02*
D03*
X373000Y104000D02*
D03*
X238000Y91500D02*
D03*
X248500Y71000D02*
D03*
X235500Y82000D02*
D03*
X227000D02*
D03*
X188500Y42000D02*
D03*
X207500D02*
D03*
X197000Y46000D02*
D03*
X207500D02*
D03*
X287000Y180000D02*
D03*
X321000Y176500D02*
D03*
X323500D02*
D03*
Y174000D02*
D03*
X327000Y180000D02*
D03*
X315500Y175000D02*
D03*
X318500D02*
D03*
X321000Y174000D02*
D03*
X287000Y193000D02*
D03*
X278500Y174500D02*
D03*
G54D156*
X45500Y177000D02*
D03*
X92500Y61500D02*
D03*
X73500Y115000D02*
D03*
X55500Y82000D02*
D03*
X53500Y113500D02*
D03*
X52000Y134000D02*
D03*
Y142500D02*
D03*
X255500Y180000D02*
D03*
X248500Y185000D02*
D03*
X190500Y155000D02*
D03*
X96000Y194000D02*
D03*
X106000Y192000D02*
D03*
X100000D02*
D03*
X90000Y193500D02*
D03*
X94000Y190500D02*
D03*
X104000Y186000D02*
D03*
X97500D02*
D03*
X100500Y144000D02*
D03*
X248500Y210000D02*
D03*
X9500Y240000D02*
D03*
X211500Y208000D02*
D03*
X155500Y206500D02*
D03*
X152000Y210500D02*
D03*
X155500D02*
D03*
X159000D02*
D03*
X162500D02*
D03*
X152000Y206500D02*
D03*
X49000D02*
D03*
X52500D02*
D03*
X56000Y205500D02*
D03*
X100500Y61500D02*
D03*
X97000D02*
D03*
X98500Y64500D02*
D03*
X94500D02*
D03*
X97000Y67500D02*
D03*
X218500Y210000D02*
D03*
X222000D02*
D03*
X215000D02*
D03*
X55500D02*
D03*
X52000D02*
D03*
X48500D02*
D03*
X74500Y188000D02*
D03*
X79000Y192500D02*
D03*
X74500Y197000D02*
D03*
X79000D02*
D03*
X69500D02*
D03*
Y183875D02*
D03*
Y179500D02*
D03*
Y192625D02*
D03*
Y188250D02*
D03*
G54D171*
X382000Y85000D02*
D03*
Y103000D02*
D03*
G54D172*
X286500Y202858D02*
D03*
Y185142D02*
D03*
G54D173*
X38717Y14500D02*
D03*
X21000D02*
D03*
G54D174*
X319500Y164012D02*
D03*
Y202988D02*
D03*
G54D175*
X158500Y215500D02*
D03*
Y227500D02*
D03*
X147000Y215500D02*
D03*
Y227500D02*
D03*
X51500Y215500D02*
D03*
Y227500D02*
D03*
X63500Y215500D02*
D03*
Y227500D02*
D03*
X223500Y215500D02*
D03*
Y227500D02*
D03*
X235000Y215500D02*
D03*
Y227500D02*
D03*
G54D176*
X52500Y190500D02*
D03*
X64500D02*
D03*
X52500Y178500D02*
D03*
X64500D02*
D03*
G54D177*
X323000Y62100D02*
D03*
Y73900D02*
D03*
G54D178*
X144000Y20600D02*
D03*
Y13400D02*
D03*
X137000D02*
D03*
Y20600D02*
D03*
X123500D02*
D03*
Y13400D02*
D03*
X116500D02*
D03*
Y20600D02*
D03*
X163500D02*
D03*
Y13400D02*
D03*
X156500D02*
D03*
Y20600D02*
D03*
G54D179*
X319370Y202858D02*
X319500Y202988D01*
X286500Y202858D02*
X319370D01*
G54D180*
X319500Y178500D02*
Y202988D01*
G54D181*
Y152500D02*
Y164012D01*
X39358Y15142D02*
Y31858D01*
X40000Y32500D01*
G54D182*
X19250Y33000D02*
D03*
G54D183*
X152500Y214500D02*
D03*
G54D184*
X233500Y213000D02*
D03*
G54D185*
X57750Y212500D02*
D03*
G54D186*
X62000Y235750D02*
D03*
G54D187*
X58000Y226500D02*
D03*
G54D188*
X153500Y223500D02*
D03*
Y228000D02*
D03*
G54D189*
X156750Y236250D02*
D03*
G54D190*
X222500Y211000D02*
D03*
G54D191*
X226500Y215500D02*
D03*
G54D192*
X251000Y236500D02*
D03*
G54D193*
X238250Y225500D02*
D03*
G54D194*
X76500Y191500D02*
D03*
G54D195*
X66500Y186250D02*
D03*
G54D196*
X319500Y175961D02*
D03*
G54D197*
X43500Y181750D02*
D03*
M02*
