G04*
G04 #@! TF.GenerationSoftware,Altium Limited,Altium Designer,19.1.5 (86)*
G04*
G04 Layer_Color=128*
%FSLAX25Y25*%
%MOIN*%
G70*
G01*
G75*
%ADD214C,0.00200*%
G54D214*
X17531Y69000D02*
X21468D01*
X19500Y67032D02*
Y70969D01*
X37138Y69000D02*
X41862D01*
X39500Y66638D02*
Y71362D01*
X17531Y122750D02*
X21468D01*
X19500Y120782D02*
Y124718D01*
X37138Y122750D02*
X41862D01*
X39500Y120388D02*
Y125112D01*
X17531Y176500D02*
X21468D01*
X19500Y174531D02*
Y178469D01*
X37138Y176500D02*
X41862D01*
X39500Y174138D02*
Y178862D01*
X317138Y152500D02*
X321862D01*
X319500Y150138D02*
Y154862D01*
X297532Y152500D02*
X301468D01*
X299500Y150531D02*
Y154469D01*
X270138Y183000D02*
X274862D01*
X272500Y180638D02*
Y185362D01*
X270532Y196650D02*
X274468D01*
X272500Y194682D02*
Y198618D01*
X17008Y32500D02*
X22992D01*
X20000Y29508D02*
Y35492D01*
X37008Y32500D02*
X42992D01*
X40000Y29508D02*
Y35492D01*
X97008Y32500D02*
X102992D01*
X100000Y29508D02*
Y35492D01*
X57008Y32500D02*
X62992D01*
X60000Y29508D02*
Y35492D01*
X137008Y32500D02*
X142992D01*
X140000Y29508D02*
Y35492D01*
X157008Y32500D02*
X162992D01*
X160000Y29508D02*
Y35492D01*
X77008Y32500D02*
X82992D01*
X80000Y29508D02*
Y35492D01*
X117008Y32500D02*
X122992D01*
X120000Y29508D02*
Y35492D01*
X197835Y238500D02*
X202165D01*
X200000Y236335D02*
Y240665D01*
X187835Y238500D02*
X192165D01*
X190000Y236335D02*
Y240665D01*
X177835Y238500D02*
X182165D01*
X180000Y236335D02*
Y240665D01*
X150335Y238500D02*
X154665D01*
X152500Y236335D02*
Y240665D01*
X140335Y238500D02*
X144665D01*
X142500Y236335D02*
Y240665D01*
X130335Y238500D02*
X134665D01*
X132500Y236335D02*
Y240665D01*
X102835Y238500D02*
X107165D01*
X105000Y236335D02*
Y240665D01*
X92835Y238500D02*
X97165D01*
X95000Y236335D02*
Y240665D01*
X82835Y238500D02*
X87165D01*
X85000Y236335D02*
Y240665D01*
X292835Y238500D02*
X297165D01*
X295000Y236335D02*
Y240665D01*
X282835Y238500D02*
X287165D01*
X285000Y236335D02*
Y240665D01*
X272835Y238500D02*
X277165D01*
X275000Y236335D02*
Y240665D01*
X55335Y238500D02*
X59665D01*
X57500Y236335D02*
Y240665D01*
X45335Y238500D02*
X49665D01*
X47500Y236335D02*
Y240665D01*
X35335Y238500D02*
X39665D01*
X37500Y236335D02*
Y240665D01*
X245335Y238500D02*
X249665D01*
X247500Y236335D02*
Y240665D01*
X235335Y238500D02*
X239665D01*
X237500Y236335D02*
Y240665D01*
X225335Y238500D02*
X229665D01*
X227500Y236335D02*
Y240665D01*
X391650Y207500D02*
X395350D01*
X393500Y205650D02*
Y209350D01*
X391650Y236043D02*
X395350D01*
X393500Y234193D02*
Y237893D01*
X380600Y212224D02*
X383800D01*
X382200Y210624D02*
Y213824D01*
X380600Y231319D02*
X383800D01*
X382200Y229719D02*
Y232919D01*
X363335Y59000D02*
X367665D01*
X365500Y56835D02*
Y61165D01*
X363335Y49000D02*
X367665D01*
X365500Y46835D02*
Y51165D01*
X363335Y39000D02*
X367665D01*
X365500Y36835D02*
Y41165D01*
X393335Y49000D02*
X397665D01*
X395500Y46835D02*
Y51165D01*
X363335Y29000D02*
X367665D01*
X365500Y26835D02*
Y31165D01*
X393335Y39000D02*
X397665D01*
X395500Y36835D02*
Y41165D01*
X393335Y29000D02*
X397665D01*
X395500Y26835D02*
Y31165D01*
X393335Y59000D02*
X397665D01*
X395500Y56835D02*
Y61165D01*
X196250Y80626D02*
X199750D01*
X198000Y78876D02*
Y82376D01*
X196250Y88500D02*
X199750D01*
X198000Y86750D02*
Y90250D01*
X196250Y96374D02*
X199750D01*
X198000Y94624D02*
Y98124D01*
X196250Y72752D02*
X199750D01*
X198000Y71002D02*
Y74502D01*
X336020Y62500D02*
X350980D01*
X343500Y55020D02*
Y69980D01*
X332520Y227500D02*
X347480D01*
X340000Y220020D02*
Y234980D01*
X8520Y217000D02*
X23480D01*
X16000Y209520D02*
Y224480D01*
X62020Y95000D02*
X76980D01*
X69500Y87520D02*
Y102480D01*
X39409Y170415D02*
X40591D01*
X40000Y169825D02*
Y171006D01*
X34909Y172000D02*
X36091D01*
X35500Y171409D02*
Y172591D01*
X44516Y177000D02*
X46484D01*
X45500Y176016D02*
Y177984D01*
X43409Y172500D02*
X44591D01*
X44000Y171909D02*
Y173091D01*
X32909Y177500D02*
X34091D01*
X33500Y176909D02*
Y178091D01*
X35909Y181500D02*
X37091D01*
X36500Y180909D02*
Y182091D01*
X41909Y181500D02*
X43091D01*
X42500Y180909D02*
Y182091D01*
X91516Y61500D02*
X93484D01*
X92500Y60516D02*
Y62484D01*
X102909Y119000D02*
X104091D01*
X103500Y118409D02*
Y119591D01*
X105909Y78000D02*
X107091D01*
X106500Y77409D02*
Y78591D01*
X174409Y182500D02*
X175591D01*
X175000Y181909D02*
Y183091D01*
X171409Y185000D02*
X172591D01*
X172000Y184409D02*
Y185591D01*
X165409Y187500D02*
X166591D01*
X166000Y186909D02*
Y188091D01*
X153909Y187691D02*
X155091D01*
X154500Y187100D02*
Y188281D01*
X385409Y24500D02*
X386591D01*
X386000Y23910D02*
Y25091D01*
X257410Y69000D02*
X258591D01*
X258000Y68410D02*
Y69591D01*
X226410Y68000D02*
X227590D01*
X227000Y67409D02*
Y68590D01*
X302909Y84000D02*
X304090D01*
X303500Y83410D02*
Y84591D01*
X300909Y98000D02*
X302091D01*
X301500Y97409D02*
Y98590D01*
X333910Y201500D02*
X335090D01*
X334500Y200909D02*
Y202091D01*
X332410Y187500D02*
X333591D01*
X333000Y186909D02*
Y188091D01*
X332909Y175500D02*
X334090D01*
X333500Y174909D02*
Y176091D01*
X306909Y182500D02*
X308090D01*
X307500Y181909D02*
Y183091D01*
X303909Y182500D02*
X305090D01*
X304500Y181909D02*
Y183091D01*
X300909Y182500D02*
X302091D01*
X301500Y181909D02*
Y183091D01*
X311910Y214000D02*
X313090D01*
X312500Y213409D02*
Y214591D01*
X320409Y213500D02*
X321590D01*
X321000Y212910D02*
Y214090D01*
X301410Y213000D02*
X302590D01*
X302000Y212409D02*
Y213591D01*
X300909Y185500D02*
X302091D01*
X301500Y184909D02*
Y186091D01*
X303909Y185500D02*
X305090D01*
X304500Y184909D02*
Y186091D01*
X306909Y185500D02*
X308090D01*
X307500Y184909D02*
Y186091D01*
X306909Y189500D02*
X308090D01*
X307500Y188909D02*
Y190091D01*
X303909Y189500D02*
X305090D01*
X304500Y188909D02*
Y190091D01*
X300909Y189500D02*
X302091D01*
X301500Y188909D02*
Y190091D01*
X269409Y146500D02*
X270590D01*
X270000Y145909D02*
Y147091D01*
X265910Y168500D02*
X267091D01*
X266500Y167909D02*
Y169091D01*
X220409Y150000D02*
X221590D01*
X221000Y149409D02*
Y150591D01*
X184909Y90000D02*
X186091D01*
X185500Y89410D02*
Y90591D01*
X80409Y227000D02*
X81590D01*
X81000Y226410D02*
Y227590D01*
X73409Y206000D02*
X74590D01*
X74000Y205410D02*
Y206591D01*
X23910Y195000D02*
X25091D01*
X24500Y194409D02*
Y195591D01*
X59409Y111500D02*
X60590D01*
X60000Y110909D02*
Y112091D01*
X91909Y11500D02*
X93090D01*
X92500Y10909D02*
Y12091D01*
X98409Y11500D02*
X99590D01*
X99000Y10909D02*
Y12091D01*
X394409Y100000D02*
X395590D01*
X395000Y99410D02*
Y100591D01*
X388910Y141000D02*
X390090D01*
X389500Y140409D02*
Y141591D01*
X388910Y130000D02*
X390090D01*
X389500Y129409D02*
Y130591D01*
X381909Y173000D02*
X383090D01*
X382500Y172409D02*
Y173591D01*
X382909Y183500D02*
X384090D01*
X383500Y182909D02*
Y184091D01*
X373410Y209000D02*
X374590D01*
X374000Y208410D02*
Y209591D01*
X375909Y229000D02*
X377091D01*
X376500Y228410D02*
Y229591D01*
X320409Y235500D02*
X321590D01*
X321000Y234910D02*
Y236090D01*
X214409Y241000D02*
X215591D01*
X215000Y240409D02*
Y241590D01*
X267910Y219500D02*
X269091D01*
X268500Y218910D02*
Y220091D01*
X315910Y222500D02*
X317091D01*
X316500Y221909D02*
Y223091D01*
X183409Y116500D02*
X184591D01*
X184000Y115909D02*
Y117091D01*
X179909Y116000D02*
X181091D01*
X180500Y115409D02*
Y116591D01*
X202409Y105000D02*
X203591D01*
X203000Y104409D02*
Y105591D01*
X221909Y65000D02*
X223091D01*
X222500Y64410D02*
Y65591D01*
X200909Y20500D02*
X202091D01*
X201500Y19909D02*
Y21091D01*
X301410Y20000D02*
X302590D01*
X302000Y19410D02*
Y20591D01*
X343409Y18500D02*
X344590D01*
X344000Y17910D02*
Y19091D01*
X276909Y19000D02*
X278091D01*
X277500Y18409D02*
Y19590D01*
X333910Y19500D02*
X335090D01*
X334500Y18910D02*
Y20090D01*
X264910Y19500D02*
X266090D01*
X265500Y18910D02*
Y20090D01*
X211910Y20000D02*
X213090D01*
X212500Y19410D02*
Y20591D01*
X236910Y43500D02*
X238090D01*
X237500Y42909D02*
Y44091D01*
X237409Y58000D02*
X238591D01*
X238000Y57410D02*
Y58591D01*
X261910Y60500D02*
X263090D01*
X262500Y59909D02*
Y61090D01*
X266910Y74500D02*
X268091D01*
X267500Y73909D02*
Y75090D01*
X290910Y103000D02*
X292091D01*
X291500Y102409D02*
Y103591D01*
X301909Y107000D02*
X303091D01*
X302500Y106409D02*
Y107591D01*
X222410Y127000D02*
X223590D01*
X223000Y126409D02*
Y127591D01*
X268409Y133000D02*
X269590D01*
X269000Y132409D02*
Y133591D01*
X278410Y133500D02*
X279591D01*
X279000Y132909D02*
Y134091D01*
X282005Y133500D02*
X283186D01*
X282595Y132909D02*
Y134091D01*
X72516Y115000D02*
X74484D01*
X73500Y114016D02*
Y115984D01*
X54516Y82000D02*
X56484D01*
X55500Y81016D02*
Y82984D01*
X52516Y113500D02*
X54484D01*
X53500Y112516D02*
Y114484D01*
X51016Y134000D02*
X52984D01*
X52000Y133016D02*
Y134984D01*
X51016Y142500D02*
X52984D01*
X52000Y141516D02*
Y143484D01*
X222909Y175500D02*
X224091D01*
X223500Y174909D02*
Y176091D01*
X218910Y174500D02*
X220091D01*
X219500Y173909D02*
Y175091D01*
X211910Y166000D02*
X213090D01*
X212500Y165409D02*
Y166591D01*
X206909Y145500D02*
X208090D01*
X207500Y144909D02*
Y146091D01*
X227909Y135500D02*
X229090D01*
X228500Y134909D02*
Y136091D01*
X240409Y175500D02*
X241590D01*
X241000Y174909D02*
Y176091D01*
X234409Y149500D02*
X235591D01*
X235000Y148909D02*
Y150091D01*
X254516Y180000D02*
X256484D01*
X255500Y179016D02*
Y180984D01*
X247516Y185000D02*
X249484D01*
X248500Y184016D02*
Y185984D01*
X274455Y119546D02*
X275637D01*
X275046Y118956D02*
Y120137D01*
X284956Y91046D02*
X286137D01*
X285546Y90456D02*
Y91637D01*
X272909Y85500D02*
X274091D01*
X273500Y84909D02*
Y86090D01*
X189516Y155000D02*
X191484D01*
X190500Y154016D02*
Y155984D01*
X164409Y179632D02*
X165591D01*
X165000Y179042D02*
Y180223D01*
X95016Y194000D02*
X96984D01*
X96000Y193016D02*
Y194984D01*
X105016Y192000D02*
X106984D01*
X106000Y191016D02*
Y192984D01*
X99016Y192000D02*
X100984D01*
X100000Y191016D02*
Y192984D01*
X89016Y193500D02*
X90984D01*
X90000Y192516D02*
Y194484D01*
X93016Y190500D02*
X94984D01*
X94000Y189516D02*
Y191484D01*
X103016Y186000D02*
X104984D01*
X104000Y185016D02*
Y186984D01*
X96516Y186000D02*
X98484D01*
X97500Y185016D02*
Y186984D01*
X99516Y144000D02*
X101484D01*
X100500Y143016D02*
Y144984D01*
X247516Y210000D02*
X249484D01*
X248500Y209016D02*
Y210984D01*
X8516Y240000D02*
X10484D01*
X9500Y239016D02*
Y240984D01*
X210516Y208000D02*
X212484D01*
X211500Y207016D02*
Y208984D01*
X154516Y206500D02*
X156484D01*
X155500Y205516D02*
Y207484D01*
X151016Y210500D02*
X152984D01*
X152000Y209516D02*
Y211484D01*
X154516Y210500D02*
X156484D01*
X155500Y209516D02*
Y211484D01*
X158016Y210500D02*
X159984D01*
X159000Y209516D02*
Y211484D01*
X161516Y210500D02*
X163484D01*
X162500Y209516D02*
Y211484D01*
X151016Y206500D02*
X152984D01*
X152000Y205516D02*
Y207484D01*
X48016Y206500D02*
X49984D01*
X49000Y205516D02*
Y207484D01*
X51516Y206500D02*
X53484D01*
X52500Y205516D02*
Y207484D01*
X55016Y205500D02*
X56984D01*
X56000Y204516D02*
Y206484D01*
X245409Y128000D02*
X246590D01*
X246000Y127409D02*
Y128591D01*
X348909Y45500D02*
X350091D01*
X349500Y44909D02*
Y46091D01*
X99516Y61500D02*
X101484D01*
X100500Y60516D02*
Y62484D01*
X96016Y61500D02*
X97984D01*
X97000Y60516D02*
Y62484D01*
X97516Y64500D02*
X99484D01*
X98500Y63516D02*
Y65484D01*
X93516Y64500D02*
X95484D01*
X94500Y63516D02*
Y65484D01*
X228410Y85000D02*
X229591D01*
X229000Y84409D02*
Y85590D01*
X193409Y121500D02*
X194591D01*
X194000Y120909D02*
Y122091D01*
X195694Y115000D02*
X196874D01*
X196284Y114409D02*
Y115591D01*
X193409Y124500D02*
X194591D01*
X194000Y123909D02*
Y125091D01*
X193409Y128000D02*
X194591D01*
X194000Y127409D02*
Y128591D01*
X198403Y126006D02*
X199584D01*
X198994Y125416D02*
Y126597D01*
X197870Y129539D02*
X199051D01*
X198461Y128949D02*
Y130130D01*
X198360Y132550D02*
X199541D01*
X198950Y131959D02*
Y133140D01*
X210910Y118500D02*
X212090D01*
X211500Y117909D02*
Y119091D01*
X181333Y136424D02*
X182514D01*
X181924Y135833D02*
Y137014D01*
X96016Y67500D02*
X97984D01*
X97000Y66516D02*
Y68484D01*
X231909Y187500D02*
X233090D01*
X232500Y186909D02*
Y188091D01*
X217516Y210000D02*
X219484D01*
X218500Y209016D02*
Y210984D01*
X206909Y194500D02*
X208090D01*
X207500Y193909D02*
Y195091D01*
X240910Y197500D02*
X242091D01*
X241500Y196909D02*
Y198091D01*
X221016Y210000D02*
X222984D01*
X222000Y209016D02*
Y210984D01*
X204409Y172000D02*
X205591D01*
X205000Y171409D02*
Y172591D01*
X214016Y210000D02*
X215984D01*
X215000Y209016D02*
Y210984D01*
X54516Y210000D02*
X56484D01*
X55500Y209016D02*
Y210984D01*
X51016Y210000D02*
X52984D01*
X52000Y209016D02*
Y210984D01*
X47516Y210000D02*
X49484D01*
X48500Y209016D02*
Y210984D01*
X219409Y96500D02*
X220590D01*
X220000Y95910D02*
Y97091D01*
X307410Y89500D02*
X308591D01*
X308000Y88910D02*
Y90091D01*
X385409Y99000D02*
X386591D01*
X386000Y98409D02*
Y99590D01*
X307410Y71000D02*
X308591D01*
X308000Y70410D02*
Y71591D01*
X265409Y52500D02*
X266590D01*
X266000Y51910D02*
Y53091D01*
X223410Y46500D02*
X224590D01*
X224000Y45909D02*
Y47091D01*
X295409Y76000D02*
X296590D01*
X296000Y75410D02*
Y76591D01*
X375410Y53000D02*
X376590D01*
X376000Y52409D02*
Y53591D01*
X270910Y88000D02*
X272091D01*
X271500Y87410D02*
Y88591D01*
X253909Y149000D02*
X255090D01*
X254500Y148409D02*
Y149591D01*
X288910Y121000D02*
X290090D01*
X289500Y120409D02*
Y121591D01*
X229410Y95500D02*
X230591D01*
X230000Y94910D02*
Y96091D01*
X214910Y95500D02*
X216090D01*
X215500Y94910D02*
Y96091D01*
X227410Y129500D02*
X228590D01*
X228000Y128909D02*
Y130091D01*
X217910Y146000D02*
X219091D01*
X218500Y145409D02*
Y146591D01*
X187909Y110500D02*
X189091D01*
X188500Y109909D02*
Y111091D01*
X103909Y155000D02*
X105091D01*
X104500Y154409D02*
Y155591D01*
X105909Y125500D02*
X107091D01*
X106500Y124909D02*
Y126091D01*
X97409Y136000D02*
X98590D01*
X98000Y135409D02*
Y136591D01*
X223410Y166500D02*
X224590D01*
X224000Y165909D02*
Y167091D01*
X154409Y160500D02*
X155591D01*
X155000Y159909D02*
Y161091D01*
X142909Y166000D02*
X144091D01*
X143500Y165409D02*
Y166591D01*
X125909Y174000D02*
X127091D01*
X126500Y173409D02*
Y174591D01*
X180909Y197000D02*
X182091D01*
X181500Y196409D02*
Y197591D01*
X183909Y198000D02*
X185091D01*
X184500Y197409D02*
Y198591D01*
X187409Y191000D02*
X188591D01*
X188000Y190409D02*
Y191591D01*
X187409Y194500D02*
X188591D01*
X188000Y193909D02*
Y195091D01*
X219910Y116500D02*
X221091D01*
X220500Y115909D02*
Y117091D01*
X218409Y111000D02*
X219590D01*
X219000Y110409D02*
Y111591D01*
X199386Y111500D02*
X200567D01*
X199977Y110909D02*
Y112091D01*
X255410Y111500D02*
X256591D01*
X256000Y110909D02*
Y112091D01*
X252168Y102500D02*
X253349D01*
X252758Y101909D02*
Y103091D01*
X249599Y102500D02*
X250780D01*
X250190Y101909D02*
Y103091D01*
X247031Y102500D02*
X248212D01*
X247621Y101909D02*
Y103091D01*
X244462Y102500D02*
X245643D01*
X245053Y101909D02*
Y103091D01*
X235409Y101500D02*
X236591D01*
X236000Y100909D02*
Y102091D01*
X257410Y127500D02*
X258591D01*
X258000Y126909D02*
Y128091D01*
X229909Y99000D02*
X231090D01*
X230500Y98409D02*
Y99590D01*
X257410Y123500D02*
X258591D01*
X258000Y122909D02*
Y124091D01*
X242910Y105500D02*
X244091D01*
X243500Y104909D02*
Y106091D01*
X232909Y104000D02*
X234090D01*
X233500Y103409D02*
Y104591D01*
X300909Y67000D02*
X302091D01*
X301500Y66409D02*
Y67590D01*
X275909Y67000D02*
X277091D01*
X276500Y66409D02*
Y67590D01*
X273410Y69500D02*
X274590D01*
X274000Y68910D02*
Y70091D01*
X295910Y69500D02*
X297091D01*
X296500Y68910D02*
Y70091D01*
X239409Y97500D02*
X240591D01*
X240000Y96909D02*
Y98090D01*
X310910Y114000D02*
X312090D01*
X311500Y113409D02*
Y114591D01*
X313409Y124500D02*
X314591D01*
X314000Y123909D02*
Y125091D01*
X275909Y124500D02*
X277091D01*
X276500Y123909D02*
Y125091D01*
X269910Y94000D02*
X271091D01*
X270500Y93410D02*
Y94591D01*
X296410Y57294D02*
X297590D01*
X297000Y56704D02*
Y57885D01*
X296410Y59863D02*
X297590D01*
X297000Y59272D02*
Y60453D01*
X296410Y62432D02*
X297590D01*
X297000Y61841D02*
Y63022D01*
X296410Y65000D02*
X297590D01*
X297000Y64410D02*
Y65591D01*
X245910Y93000D02*
X247091D01*
X246500Y92409D02*
Y93590D01*
X249410Y93000D02*
X250590D01*
X250000Y92409D02*
Y93590D01*
X266409Y97000D02*
X267590D01*
X267000Y96409D02*
Y97591D01*
X265409Y109500D02*
X266590D01*
X266000Y108909D02*
Y110091D01*
X248909Y159000D02*
X250091D01*
X249500Y158409D02*
Y159591D01*
X285409Y74500D02*
X286591D01*
X286000Y73909D02*
Y75090D01*
X259409Y83500D02*
X260591D01*
X260000Y82910D02*
Y84091D01*
X258910Y79500D02*
X260090D01*
X259500Y78909D02*
Y80090D01*
X253410Y127500D02*
X254591D01*
X254000Y126909D02*
Y128091D01*
X223909Y155000D02*
X225091D01*
X224500Y154409D02*
Y155591D01*
X241409Y128000D02*
X242590D01*
X242000Y127409D02*
Y128591D01*
X238409Y149500D02*
X239591D01*
X239000Y148909D02*
Y150091D01*
X259910Y118000D02*
X261090D01*
X260500Y117409D02*
Y118591D01*
X199909Y171000D02*
X201091D01*
X200500Y170409D02*
Y171591D01*
X265409Y118000D02*
X266590D01*
X266000Y117409D02*
Y118591D01*
X201909Y140500D02*
X203091D01*
X202500Y139909D02*
Y141091D01*
X204409Y140500D02*
X205591D01*
X205000Y139909D02*
Y141091D01*
X179409Y134500D02*
X180591D01*
X180000Y133909D02*
Y135091D01*
X287575Y145000D02*
X288756D01*
X288165Y144409D02*
Y145591D01*
X308910Y136382D02*
X310090D01*
X309500Y135791D02*
Y136972D01*
X355909Y109000D02*
X357090D01*
X356500Y108409D02*
Y109591D01*
X345910Y131500D02*
X347091D01*
X346500Y130909D02*
Y132091D01*
X258910Y167500D02*
X260090D01*
X259500Y166909D02*
Y168091D01*
X87910Y89000D02*
X89091D01*
X88500Y88410D02*
Y89591D01*
X69910Y154000D02*
X71091D01*
X70500Y153409D02*
Y154591D01*
X52909Y170500D02*
X54090D01*
X53500Y169909D02*
Y171091D01*
X69910Y169000D02*
X71091D01*
X70500Y168409D02*
Y169591D01*
X73516Y188000D02*
X75484D01*
X74500Y187016D02*
Y188984D01*
X78016Y192500D02*
X79984D01*
X79000Y191516D02*
Y193484D01*
X73516Y197000D02*
X75484D01*
X74500Y196016D02*
Y197984D01*
X78016Y197000D02*
X79984D01*
X79000Y196016D02*
Y197984D01*
X234409Y190000D02*
X235591D01*
X235000Y189409D02*
Y190591D01*
X68516Y197000D02*
X70484D01*
X69500Y196016D02*
Y197984D01*
X68516Y183875D02*
X70484D01*
X69500Y182891D02*
Y184859D01*
X68516Y179500D02*
X70484D01*
X69500Y178516D02*
Y180484D01*
X68516Y192625D02*
X70484D01*
X69500Y191641D02*
Y193609D01*
X68516Y188250D02*
X70484D01*
X69500Y187266D02*
Y189234D01*
X313409Y119500D02*
X314591D01*
X314000Y118909D02*
Y120091D01*
X296909Y119500D02*
X298091D01*
X297500Y118909D02*
Y120091D01*
X377410Y89000D02*
X378590D01*
X378000Y88410D02*
Y89591D01*
X372410Y104000D02*
X373590D01*
X373000Y103409D02*
Y104591D01*
X237409Y91500D02*
X238591D01*
X238000Y90909D02*
Y92090D01*
X247909Y71000D02*
X249091D01*
X248500Y70410D02*
Y71591D01*
X234910Y82000D02*
X236090D01*
X235500Y81410D02*
Y82591D01*
X226410Y82000D02*
X227590D01*
X227000Y81410D02*
Y82591D01*
X187909Y42000D02*
X189091D01*
X188500Y41409D02*
Y42591D01*
X206909Y42000D02*
X208090D01*
X207500Y41409D02*
Y42591D01*
X196409Y46000D02*
X197591D01*
X197000Y45409D02*
Y46591D01*
X206909Y46000D02*
X208090D01*
X207500Y45409D02*
Y46591D01*
X286409Y180000D02*
X287591D01*
X287000Y179409D02*
Y180591D01*
X320409Y176500D02*
X321590D01*
X321000Y175909D02*
Y177091D01*
X322909Y176500D02*
X324091D01*
X323500Y175909D02*
Y177091D01*
X322909Y174000D02*
X324091D01*
X323500Y173409D02*
Y174591D01*
X326410Y180000D02*
X327590D01*
X327000Y179409D02*
Y180591D01*
X314910Y175000D02*
X316090D01*
X315500Y174409D02*
Y175591D01*
X317910Y175000D02*
X319091D01*
X318500Y174409D02*
Y175591D01*
X320409Y174000D02*
X321590D01*
X321000Y173409D02*
Y174591D01*
X286409Y193000D02*
X287591D01*
X287000Y192409D02*
Y193591D01*
X277909Y174500D02*
X279090D01*
X278500Y173909D02*
Y175091D01*
M02*
