M48
;Layer_Color=9474304
;FILE_FORMAT=2:5
INCH,TZ
;TYPE=PLATED
T1F00S00C0.01181
T2F00S00C0.01968
T3F00S00C0.03200
T4F00S00C0.03500
T6F00S00C0.03937
T7F00S00C0.04331
T8F00S00C0.04724
T9F00S00C0.05984
T10F00S00C0.14961
%
T01
X386000Y24500
X344000Y18500
X334500Y19500
X302000Y20000
X277500Y19000
X265500Y19500
X212500Y20000
X201500Y20500
X99000Y11500
X92500
X35500Y172000
X33500Y177500
X36500Y181500
X42500
X44000Y172500
X40000Y170415
X53500Y170500
X70500Y169000
Y154000
X104500Y155000
X98000Y136000
X106500Y125500
X103500Y119000
X106500Y78000
X88500Y89000
X60000Y111500
X180500Y116000
X184000Y116500
X188500Y110500
X185500Y90000
X181924Y136424
X180000Y134500
X155000Y160500
X143500Y166000
X126500Y174000
X165000Y179632
X172000Y185000
X175000Y182500
X188500Y42000
X197000Y46000
X207500
Y42000
X224000Y46500
X237500Y43500
X238000Y58000
X227000Y68000
X222500Y65000
X227000Y82000
X229000Y85000
X235500Y82000
X238000Y91500
X240000Y97500
X236000Y101500
X233500Y104000
X230500Y99000
X230000Y95500
X220000Y96500
X215500Y95500
X219000Y111000
X220500Y116500
X211500Y118500
X199977Y111500
X196284Y115000
X194000Y121500
Y124500
Y128000
X198461Y129539
X198950Y132550
X198994Y126006
X202500Y140500
X205000
X207500Y145500
X218500Y146000
X221000Y150000
X224500Y155000
X224000Y166500
X223500Y175500
X219500Y174500
X212500Y166000
X205000Y172000
X200500Y171000
X241000Y175500
X249500Y159000
X254500Y149000
X239000Y149500
X235000
X228500Y135500
X228000Y129500
X223000Y127000
X242000Y128000
X246000
X254000Y127500
X258000
Y123500
X260500Y118000
X266000
Y109500
X256000Y111500
X252758Y102500
X250190
X247621
X245053
X243500Y105500
X246500Y93000
X250000
X260000Y83500
X259500Y79500
X258000Y69000
X248500Y71000
X267500Y74500
X274000Y69500
X276500Y67000
X286000Y74500
X296000Y76000
X296500Y69500
X297000Y65000
Y62432
Y59863
Y57294
X301500Y67000
X308000Y71000
X303500Y84000
X308000Y89500
X301500Y98000
X302500Y107000
X291500Y103000
X285546Y91046
X271500Y88000
X273500Y85500
X270500Y94000
X267000Y97000
X275046Y119546
X276500Y124500
X279000Y133500
X282595
X269000Y133000
X270000Y146500
X288165Y145000
X289500Y121000
X297500Y119500
X314000
Y124500
X311500Y114000
X309500Y136382
X346500Y131500
X333500Y175500
X323500Y176500
X321000
Y174000
X323500
X318500Y175000
X315500
X307500Y182500
X304500
X301500
Y185500
X304500
X307500
X327000Y180000
X287000
X278500Y174500
X266500Y168500
X259500Y167500
X262500Y60500
X266000Y52500
X203000Y105000
X356500Y109000
X373000Y104000
X386000Y99000
X395000Y100000
X378000Y89000
X376000Y53000
X349500Y45500
X389500Y130000
Y141000
X382500Y173000
X383500Y183500
X374000Y209000
X376500Y229000
X321000Y235500
X316500Y222500
X312500Y214000
X321000Y213500
X302000Y213000
X301500Y189500
X304500
X307500
X287000Y193000
X268500Y219500
X241500Y197500
X235000Y190000
X232500Y187500
X207500Y194500
X215000Y241000
X334500Y201500
X333000Y187500
X188000Y191000
Y194500
X184500Y198000
X181500Y197000
X166000Y187500
X154500Y187691
X74000Y206000
X81000Y227000
X24500Y195000
T02
X55500Y82000
X53500Y113500
X73500Y115000
X52000Y134000
Y142500
X45500Y177000
X69500Y179500
Y183875
X97500Y186000
X104000
X100500Y144000
X97000Y67500
X98500Y64500
X94500
X92500Y61500
X97000
X100500
X190500Y155000
X248500Y185000
X255500Y180000
X248500Y210000
X222000
X218500
X215000
X211500Y208000
X162500Y210500
X159000
X155500
X152000
Y206500
X155500
X106000Y192000
X100000
X96000Y194000
X94000Y190500
X90000Y193500
X79000Y192500
Y197000
X74500
X69500
Y192625
Y188250
X74500Y188000
X56000Y205500
X52500Y206500
X49000
X48500Y210000
X52000
X55500
X9500Y240000
T03
X382200Y212224
Y231319
T04
X198000Y72752
Y80626
Y88500
Y96374
T06
X19500Y69000
Y122750
Y176500
X299500Y152500
X272500Y196650
T07
X365500Y29000
X395500
Y39000
Y49000
Y59000
X365500
Y49000
Y39000
X295000Y238500
X285000
X275000
X247500
X237500
X227500
X200000
X190000
X180000
X152500
X142500
X132500
X105000
X95000
X85000
X57500
X47500
X37500
T08
X39500Y69000
Y122750
Y176500
X272500Y183000
X319500Y152500
T09
X20000Y32500
X40000
X60000
X80000
X100000
X120000
X140000
X160000
T10
X69500Y95000
X343500Y62500
X340000Y227500
X16000Y217000
M30
