G04*
G04 #@! TF.GenerationSoftware,Altium Limited,Altium Designer,19.1.5 (86)*
G04*
G04 Layer_Color=32896*
%FSLAX25Y25*%
%MOIN*%
G70*
G01*
G75*
%ADD11C,0.01000*%
%ADD12C,0.00394*%
%ADD15C,0.00500*%
%ADD16C,0.00787*%
%ADD17C,0.01181*%
%ADD19C,0.00400*%
%ADD25R,0.00394X0.01181*%
%ADD26R,0.00394X0.00394*%
%ADD27R,0.01181X0.03150*%
%ADD124C,0.00800*%
%ADD206R,0.01181X0.00394*%
%ADD207R,0.03150X0.01181*%
%ADD208R,0.00200X0.00800*%
%ADD209R,0.00500X0.01212*%
%ADD210R,0.01100X0.00606*%
%ADD211R,0.00800X0.00200*%
%ADD212R,0.01212X0.00500*%
%ADD213R,0.00606X0.01100*%
G36*
X28658Y16300D02*
X28358D01*
X27058Y17600D01*
Y12800D01*
X28271D01*
X29858Y14387D01*
X28658Y16300D01*
D02*
G37*
G36*
X284700Y192800D02*
Y192500D01*
X283400Y191200D01*
X288200D01*
Y192412D01*
X286613Y193999D01*
X284700Y192800D01*
D02*
G37*
G54D11*
X386130Y107185D02*
Y108268D01*
X364870Y116850D02*
Y117815D01*
X386130D01*
Y116831D02*
Y117815D01*
X364870Y107185D02*
X386110D01*
X364870D02*
Y108248D01*
X376685Y83370D02*
X377768D01*
X386350Y104630D02*
X387315D01*
Y83370D02*
Y104630D01*
X386331Y83370D02*
X387315D01*
X376685Y83390D02*
Y104630D01*
X377748D01*
X385630Y70185D02*
Y71268D01*
X364370Y79850D02*
Y80815D01*
X385630D01*
Y79831D02*
Y80815D01*
X364370Y70185D02*
X385610D01*
X364370D02*
Y71248D01*
X279400Y197300D02*
X293700D01*
X279400Y197900D02*
X293600D01*
X33158Y7300D02*
Y21600D01*
X33758Y7400D02*
Y21600D01*
X332106Y158894D02*
X344106D01*
X332106Y208106D02*
X344106D01*
X294894Y158894D02*
X306706D01*
X294894Y208106D02*
X306706D01*
X344106Y158894D02*
Y208106D01*
X294894Y158894D02*
Y208106D01*
G54D12*
X373334Y109829D02*
X375302Y111797D01*
X373334Y114571D02*
X375302Y112603D01*
X373333Y109477D02*
Y114956D01*
X373333Y114965D02*
X376089Y112209D01*
X373324Y109445D02*
X376089Y112209D01*
Y109444D02*
Y114956D01*
X374519Y110655D02*
Y113645D01*
X374904Y111121D02*
Y113260D01*
X375289Y111476D02*
Y112956D01*
X375634Y111800D02*
Y112631D01*
X374334Y110682D02*
Y113672D01*
X379329Y96166D02*
X381297Y94198D01*
X382103Y94199D02*
X384071Y96166D01*
X378977Y96167D02*
X384456D01*
X381710Y93411D02*
X384465Y96166D01*
X378944Y96176D02*
X381710Y93411D01*
X378944D02*
X384456D01*
X380155Y94981D02*
X383145D01*
X380621Y94596D02*
X382760D01*
X380976Y94211D02*
X382456D01*
X381300Y93866D02*
X382131D01*
X380183Y95166D02*
X383172D01*
X372833Y72829D02*
X374802Y74797D01*
X372833Y77571D02*
X374801Y75603D01*
X372833Y72478D02*
Y77956D01*
X372833Y77965D02*
X375589Y75209D01*
X372824Y72445D02*
X375589Y75209D01*
Y72444D02*
Y77956D01*
X374019Y73655D02*
Y76645D01*
X374404Y74121D02*
Y76260D01*
X374789Y74476D02*
Y75956D01*
X375134Y74800D02*
Y75631D01*
X373834Y73682D02*
Y76673D01*
X152700Y232100D02*
X164400D01*
X152700Y210900D02*
X164400D01*
Y232100D01*
X152700Y210900D02*
Y232100D01*
X141200D02*
X152900D01*
X141200Y210900D02*
X152900D01*
Y232100D01*
X141200Y210900D02*
Y232100D01*
X45700D02*
X57400D01*
X45700Y210900D02*
X57400D01*
Y232100D01*
X45700Y210900D02*
Y232100D01*
X57700D02*
X69400D01*
X57700Y210900D02*
X69400D01*
Y232100D01*
X57700Y210900D02*
Y232100D01*
X217700D02*
X229400D01*
X217700Y210900D02*
X229400D01*
Y232100D01*
X217700Y210900D02*
Y232100D01*
X229200D02*
X240900D01*
X229200Y210900D02*
X240900D01*
Y232100D01*
X229200Y210900D02*
Y232100D01*
X69100Y184600D02*
Y196300D01*
X47900Y184600D02*
Y196300D01*
Y184600D02*
X69100D01*
X47900Y196300D02*
X69100D01*
Y172600D02*
Y184300D01*
X47900Y172600D02*
Y184300D01*
Y172600D02*
X69100D01*
X47900Y184300D02*
X69100D01*
G54D15*
X284600Y192700D02*
X285000D01*
X283300Y191200D02*
X283500D01*
X285000Y192700D02*
X286299Y193999D01*
X286613D01*
X286199D02*
X286613D01*
X283614Y191000D02*
X286613Y193999D01*
X283200Y191000D02*
X283614D01*
X282700Y190500D02*
X283200Y191000D01*
X289900D01*
X283300Y191200D02*
X289300D01*
X282200Y190000D02*
X282700Y190500D01*
X290300D01*
X281900Y190000D02*
X290900D01*
X281900D02*
X286400Y194500D01*
X290900Y190000D01*
X28558Y16000D02*
Y16400D01*
X27058Y17500D02*
Y17700D01*
X28558Y16000D02*
X29858Y14701D01*
Y14387D02*
Y14701D01*
Y14387D02*
Y14801D01*
X26858Y17386D02*
X29858Y14387D01*
X26858Y17386D02*
Y17800D01*
X26358Y18300D02*
X26858Y17800D01*
Y11100D02*
Y17800D01*
X27058Y11700D02*
Y17700D01*
X25858Y18800D02*
X26358Y18300D01*
Y10700D02*
Y18300D01*
X25858Y10100D02*
Y19100D01*
X30358Y14600D01*
X25858Y10100D02*
X30358Y14600D01*
X191900Y209100D02*
Y214900D01*
X177200D02*
X191900D01*
X177200Y209100D02*
X191900D01*
X177200D02*
Y214900D01*
X185475Y210375D02*
Y213875D01*
X183725Y212125D02*
X185475Y213875D01*
X183725Y212125D02*
X185475Y210375D01*
X183575D02*
Y213875D01*
X185500Y212200D02*
X186400D01*
X182625Y212125D02*
X183725D01*
X123100Y209100D02*
Y214900D01*
Y209100D02*
X137800D01*
X123100Y214900D02*
X137800D01*
Y209100D02*
Y214900D01*
X129525Y210125D02*
Y213625D01*
Y210125D02*
X131275Y211875D01*
X129525Y213625D02*
X131275Y211875D01*
X131425Y210125D02*
Y213625D01*
X128600Y211800D02*
X129500D01*
X131275Y211875D02*
X132375D01*
X87600Y209100D02*
Y214900D01*
Y209100D02*
X102300D01*
X87600Y214900D02*
X102300D01*
Y209100D02*
Y214900D01*
X94025Y210125D02*
Y213625D01*
Y210125D02*
X95775Y211875D01*
X94025Y213625D02*
X95775Y211875D01*
X95925Y210125D02*
Y213625D01*
X93100Y211800D02*
X94000D01*
X95775Y211875D02*
X96875D01*
X292900Y209200D02*
Y215000D01*
X278200D02*
X292900D01*
X278200Y209200D02*
X292900D01*
X278200D02*
Y215000D01*
X286475Y210475D02*
Y213975D01*
X284725Y212225D02*
X286475Y213975D01*
X284725Y212225D02*
X286475Y210475D01*
X284575D02*
Y213975D01*
X286500Y212300D02*
X287400D01*
X283625Y212225D02*
X284725D01*
X30600Y205100D02*
Y210900D01*
Y205100D02*
X45300D01*
X30600Y210900D02*
X45300D01*
Y205100D02*
Y210900D01*
X37025Y206125D02*
Y209625D01*
Y206125D02*
X38775Y207875D01*
X37025Y209625D02*
X38775Y207875D01*
X38925Y206125D02*
Y209625D01*
X36100Y207800D02*
X37000D01*
X38775Y207875D02*
X39875D01*
X209800Y209200D02*
Y215000D01*
X195100D02*
X209800D01*
X195100Y209200D02*
X209800D01*
X195100D02*
Y215000D01*
X203375Y210475D02*
Y213975D01*
X201625Y212225D02*
X203375Y213975D01*
X201625Y212225D02*
X203375Y210475D01*
X201475D02*
Y213975D01*
X203400Y212300D02*
X204300D01*
X200525Y212225D02*
X201625D01*
X131500Y10200D02*
X148500D01*
X131500Y2800D02*
Y10200D01*
X148500Y2800D02*
Y10200D01*
X131500Y2800D02*
X148500D01*
X111500Y10200D02*
X128500D01*
X111500Y2800D02*
Y10200D01*
X128500Y2800D02*
Y10200D01*
X111500Y2800D02*
X128500D01*
X151500Y10200D02*
X168500D01*
X151500Y2800D02*
Y10200D01*
X168500Y2800D02*
Y10200D01*
X151500Y2800D02*
X168500D01*
X184300Y225400D02*
X184300Y215600D01*
X179700Y225400D02*
X179700Y215600D01*
X179700Y225400D02*
X184300D01*
X179700Y215600D02*
X184300Y215600D01*
X184700Y225400D02*
X184700Y215600D01*
X189300Y225400D02*
X189300Y215600D01*
X184700D02*
X189300D01*
X184700Y225400D02*
X189300Y225400D01*
X135300D02*
X135300Y215600D01*
X130700Y225400D02*
X130700Y215600D01*
X130700Y225400D02*
X135300D01*
X130700Y215600D02*
X135300Y215600D01*
X125700Y225400D02*
X125700Y215600D01*
X130300Y225400D02*
X130300Y215600D01*
X125700D02*
X130300D01*
X125700Y225400D02*
X130300Y225400D01*
X99800D02*
X99800Y215600D01*
X95200Y225400D02*
X95200Y215600D01*
X95200Y225400D02*
X99800D01*
X95200Y215600D02*
X99800Y215600D01*
X90200Y225400D02*
X90200Y215600D01*
X94800Y225400D02*
X94800Y215600D01*
X90200D02*
X94800D01*
X90200Y225400D02*
X94800Y225400D01*
X284800D02*
X284800Y215600D01*
X280200Y225400D02*
X280200Y215600D01*
X280200Y225400D02*
X284800D01*
X280200Y215600D02*
X284800Y215600D01*
X42400Y225300D02*
X42400Y215500D01*
X37800Y225300D02*
X37800Y215500D01*
X37800Y225300D02*
X42400D01*
X37800Y215500D02*
X42400Y215500D01*
X285200Y225400D02*
X285200Y215600D01*
X289800Y225400D02*
X289800Y215600D01*
X285200D02*
X289800D01*
X285200Y225400D02*
X289800Y225400D01*
X32800Y225300D02*
X32800Y215500D01*
X37400Y225300D02*
X37400Y215500D01*
X32800D02*
X37400D01*
X32800Y225300D02*
X37400Y225300D01*
X202300Y225400D02*
X202300Y215600D01*
X197700Y225400D02*
X197700Y215600D01*
X197700Y225400D02*
X202300D01*
X197700Y215600D02*
X202300Y215600D01*
X202700Y225400D02*
X202700Y215600D01*
X207300Y225400D02*
X207300Y215600D01*
X202700D02*
X207300D01*
X202700Y225400D02*
X207300Y225400D01*
X370100Y61300D02*
X379900Y61300D01*
X370100Y56700D02*
X379900Y56700D01*
X370100Y56700D02*
Y61300D01*
X379900Y61300D02*
X379900Y56700D01*
X370100Y30900D02*
X377900D01*
Y27100D02*
Y30900D01*
X370100Y27100D02*
Y30900D01*
Y27100D02*
X377900D01*
X370100Y40900D02*
X377900D01*
Y37100D02*
Y40900D01*
X370100Y37100D02*
Y40900D01*
Y37100D02*
X377900D01*
X370100Y50900D02*
X377900D01*
Y47100D02*
Y50900D01*
X370100Y47100D02*
Y50900D01*
Y47100D02*
X377900D01*
X182200Y127000D02*
X190000D01*
X182200D02*
Y130800D01*
X190000Y127000D02*
Y130800D01*
X182200D02*
X190000D01*
X206100Y127900D02*
X213900D01*
Y124100D02*
Y127900D01*
X206100Y124100D02*
Y127900D01*
Y124100D02*
X213900D01*
X182200Y123000D02*
X190000D01*
X182200D02*
Y126800D01*
X190000Y123000D02*
Y126800D01*
X182200D02*
X190000D01*
X206100Y131900D02*
X213900D01*
Y128100D02*
Y131900D01*
X206100Y128100D02*
Y131900D01*
Y128100D02*
X213900D01*
X182200Y119000D02*
X190000D01*
X182200D02*
Y122800D01*
X190000Y119000D02*
Y122800D01*
X182200D02*
X190000D01*
X206100Y135900D02*
X213900D01*
Y132100D02*
Y135900D01*
X206100Y132100D02*
Y135900D01*
Y132100D02*
X213900D01*
X231100Y121600D02*
X238900D01*
X231100D02*
Y125400D01*
X238900Y121600D02*
Y125400D01*
X231100D02*
X238900D01*
X300500Y244700D02*
X317500D01*
X300500Y237300D02*
X317500D01*
X300500D02*
Y244700D01*
X317500Y237300D02*
Y244700D01*
X205000D02*
X222000D01*
X205000Y237300D02*
X222000D01*
X205000D02*
Y244700D01*
X222000Y237300D02*
Y244700D01*
X270000Y170300D02*
X287000D01*
X270000Y177700D02*
X287000D01*
Y170300D02*
Y177700D01*
X270000Y170300D02*
Y177700D01*
X48500Y10300D02*
X65500D01*
X48500Y17700D02*
X65500D01*
Y10300D02*
Y17700D01*
X48500Y10300D02*
Y17700D01*
X64000Y119700D02*
X81000D01*
X64000Y112300D02*
X81000D01*
X64000D02*
Y119700D01*
X81000Y112300D02*
Y119700D01*
X319300Y59500D02*
Y76500D01*
X326700Y59500D02*
Y76500D01*
X319300Y59500D02*
X326700D01*
X319300Y76500D02*
X326700D01*
X13500Y240700D02*
X30500D01*
X13500Y233300D02*
X30500D01*
X13500D02*
Y240700D01*
X30500Y233300D02*
Y240700D01*
X180600Y229900D02*
X188400D01*
X180600Y226100D02*
Y229900D01*
X188400Y226100D02*
Y229900D01*
X180600Y226100D02*
X188400D01*
X126600Y229900D02*
X134400D01*
X126600Y226100D02*
Y229900D01*
X134400Y226100D02*
Y229900D01*
X126600Y226100D02*
X134400D01*
X91100Y229900D02*
X98900D01*
X91100Y226100D02*
Y229900D01*
X98900Y226100D02*
Y229900D01*
X91100Y226100D02*
X98900D01*
X33700Y229800D02*
X41500D01*
X33700Y226000D02*
Y229800D01*
X41500Y226000D02*
Y229800D01*
X33700Y226000D02*
X41500D01*
X281600Y229900D02*
X289400D01*
X281600Y226100D02*
Y229900D01*
X289400Y226100D02*
Y229900D01*
X281600Y226100D02*
X289400D01*
X208600Y185600D02*
Y193400D01*
Y185600D02*
X212400D01*
X208600Y193400D02*
X212400D01*
Y185600D02*
Y193400D01*
X198500Y230000D02*
X206300D01*
X198500Y226200D02*
Y230000D01*
X206300Y226200D02*
Y230000D01*
X198500Y226200D02*
X206300D01*
X230500Y122000D02*
Y124999D01*
X229000D01*
X228501Y124499D01*
Y123500D01*
X229000Y123000D01*
X230500D01*
X229500D02*
X228501Y122000D01*
X227501D02*
X226501D01*
X227001D01*
Y124999D01*
X227501Y124499D01*
X225002Y122000D02*
X224002D01*
X224502D01*
Y124999D01*
X225002Y124499D01*
X222503D02*
X222003Y124999D01*
X221003D01*
X220503Y124499D01*
Y122500D01*
X221003Y122000D01*
X222003D01*
X222503Y122500D01*
Y124499D01*
X225000Y132500D02*
Y135499D01*
X223500D01*
X223001Y134999D01*
Y134000D01*
X223500Y133500D01*
X225000D01*
X224000D02*
X223001Y132500D01*
X222001D02*
X221001D01*
X221501D01*
Y135499D01*
X222001Y134999D01*
X219502D02*
X219002Y135499D01*
X218002D01*
X217502Y134999D01*
Y133000D01*
X218002Y132500D01*
X219002D01*
X219502Y133000D01*
Y134999D01*
X216503Y133000D02*
X216003Y132500D01*
X215003D01*
X214503Y133000D01*
Y134999D01*
X215003Y135499D01*
X216003D01*
X216503Y134999D01*
Y134499D01*
X216003Y134000D01*
X214503D01*
X181600Y119400D02*
Y122399D01*
X180101D01*
X179601Y121899D01*
Y120899D01*
X180101Y120400D01*
X181600D01*
X180600D02*
X179601Y119400D01*
X178601D02*
X177601D01*
X178101D01*
Y122399D01*
X178601Y121899D01*
X176102D02*
X175602Y122399D01*
X174602D01*
X174102Y121899D01*
Y119900D01*
X174602Y119400D01*
X175602D01*
X176102Y119900D01*
Y121899D01*
X173103D02*
X172603Y122399D01*
X171603D01*
X171103Y121899D01*
Y121399D01*
X171603Y120899D01*
X171103Y120400D01*
Y119900D01*
X171603Y119400D01*
X172603D01*
X173103Y119900D01*
Y120400D01*
X172603Y120899D01*
X173103Y121399D01*
Y121899D01*
X172603Y120899D02*
X171603D01*
X225000Y128500D02*
Y131499D01*
X223500D01*
X223001Y130999D01*
Y129999D01*
X223500Y129500D01*
X225000D01*
X224000D02*
X223001Y128500D01*
X222001D02*
X221001D01*
X221501D01*
Y131499D01*
X222001Y130999D01*
X219502D02*
X219002Y131499D01*
X218002D01*
X217502Y130999D01*
Y129000D01*
X218002Y128500D01*
X219002D01*
X219502Y129000D01*
Y130999D01*
X216503Y131499D02*
X214503D01*
Y130999D01*
X216503Y129000D01*
Y128500D01*
X181600Y123400D02*
Y126399D01*
X180101D01*
X179601Y125899D01*
Y124899D01*
X180101Y124400D01*
X181600D01*
X180600D02*
X179601Y123400D01*
X178601D02*
X177601D01*
X178101D01*
Y126399D01*
X178601Y125899D01*
X176102D02*
X175602Y126399D01*
X174602D01*
X174102Y125899D01*
Y123900D01*
X174602Y123400D01*
X175602D01*
X176102Y123900D01*
Y125899D01*
X171103Y126399D02*
X172103Y125899D01*
X173103Y124899D01*
Y123900D01*
X172603Y123400D01*
X171603D01*
X171103Y123900D01*
Y124400D01*
X171603Y124899D01*
X173103D01*
X219500Y124500D02*
Y127499D01*
X218001D01*
X217501Y126999D01*
Y125999D01*
X218001Y125500D01*
X219500D01*
X218500D02*
X217501Y124500D01*
X215002D02*
Y127499D01*
X216501Y125999D01*
X214502D01*
X181600Y127400D02*
Y130399D01*
X180101D01*
X179601Y129899D01*
Y128900D01*
X180101Y128400D01*
X181600D01*
X180600D02*
X179601Y127400D01*
X178601Y129899D02*
X178101Y130399D01*
X177101D01*
X176602Y129899D01*
Y129399D01*
X177101Y128900D01*
X177601D01*
X177101D01*
X176602Y128400D01*
Y127900D01*
X177101Y127400D01*
X178101D01*
X178601Y127900D01*
X70000Y173000D02*
X72999D01*
Y174499D01*
X72499Y174999D01*
X71500D01*
X71000Y174499D01*
Y173000D01*
Y174000D02*
X70000Y174999D01*
X72499Y175999D02*
X72999Y176499D01*
Y177499D01*
X72499Y177998D01*
X71999D01*
X71500Y177499D01*
X71000Y177998D01*
X70500D01*
X70000Y177499D01*
Y176499D01*
X70500Y175999D01*
X71000D01*
X71500Y176499D01*
X71999Y175999D01*
X72499D01*
X71500Y176499D02*
Y177499D01*
X72999Y178998D02*
Y180997D01*
X72499D01*
X70500Y178998D01*
X70000D01*
Y186000D02*
X72999D01*
Y187499D01*
X72499Y187999D01*
X71500D01*
X71000Y187499D01*
Y186000D01*
Y187000D02*
X70000Y187999D01*
X72499Y188999D02*
X72999Y189499D01*
Y190499D01*
X72499Y190998D01*
X71999D01*
X71500Y190499D01*
X71000Y190998D01*
X70500D01*
X70000Y190499D01*
Y189499D01*
X70500Y188999D01*
X71000D01*
X71500Y189499D01*
X71999Y188999D01*
X72499D01*
X71500Y189499D02*
Y190499D01*
X72999Y193997D02*
X72499Y192998D01*
X71500Y191998D01*
X70500D01*
X70000Y192498D01*
Y193498D01*
X70500Y193997D01*
X71000D01*
X71500Y193498D01*
Y191998D01*
X388000Y57500D02*
Y60499D01*
X386501D01*
X386001Y59999D01*
Y59000D01*
X386501Y58500D01*
X388000D01*
X387000D02*
X386001Y57500D01*
X385001Y60499D02*
X383002D01*
Y59999D01*
X385001Y58000D01*
Y57500D01*
X382002D02*
X381002D01*
X381502D01*
Y60499D01*
X382002Y59999D01*
X386500Y47500D02*
Y50499D01*
X385000D01*
X384501Y49999D01*
Y49000D01*
X385000Y48500D01*
X386500D01*
X385500D02*
X384501Y47500D01*
X381502Y50499D02*
X382501Y49999D01*
X383501Y49000D01*
Y48000D01*
X383001Y47500D01*
X382001D01*
X381502Y48000D01*
Y48500D01*
X382001Y49000D01*
X383501D01*
X378503Y47500D02*
X380502D01*
X378503Y49499D01*
Y49999D01*
X379002Y50499D01*
X380002D01*
X380502Y49999D01*
X385500Y37500D02*
Y40499D01*
X384000D01*
X383501Y39999D01*
Y39000D01*
X384000Y38500D01*
X385500D01*
X384500D02*
X383501Y37500D01*
X380502Y40499D02*
X381501Y39999D01*
X382501Y39000D01*
Y38000D01*
X382001Y37500D01*
X381001D01*
X380502Y38000D01*
Y38500D01*
X381001Y39000D01*
X382501D01*
X379502Y37500D02*
X378502D01*
X379002D01*
Y40499D01*
X379502Y39999D01*
X386500Y27500D02*
Y30499D01*
X385000D01*
X384501Y29999D01*
Y29000D01*
X385000Y28500D01*
X386500D01*
X385500D02*
X384501Y27500D01*
X381502Y30499D02*
X382501Y29999D01*
X383501Y29000D01*
Y28000D01*
X383001Y27500D01*
X382001D01*
X381502Y28000D01*
Y28500D01*
X382001Y29000D01*
X383501D01*
X380502Y29999D02*
X380002Y30499D01*
X379002D01*
X378503Y29999D01*
Y28000D01*
X379002Y27500D01*
X380002D01*
X380502Y28000D01*
Y29999D01*
X244500Y226000D02*
X241501D01*
Y224500D01*
X242001Y224001D01*
X243001D01*
X243500Y224500D01*
Y226000D01*
Y225000D02*
X244500Y224001D01*
X242001Y223001D02*
X241501Y222501D01*
Y221501D01*
X242001Y221002D01*
X242501D01*
X243001Y221501D01*
Y222001D01*
Y221501D01*
X243500Y221002D01*
X244000D01*
X244500Y221501D01*
Y222501D01*
X244000Y223001D01*
X241501Y218003D02*
X242001Y219002D01*
X243001Y220002D01*
X244000D01*
X244500Y219502D01*
Y218502D01*
X244000Y218003D01*
X243500D01*
X243001Y218502D01*
Y220002D01*
X217000Y225500D02*
X214001D01*
Y224001D01*
X214501Y223501D01*
X215500D01*
X216000Y224001D01*
Y225500D01*
Y224500D02*
X217000Y223501D01*
X214501Y222501D02*
X214001Y222001D01*
Y221002D01*
X214501Y220502D01*
X215001D01*
X215500Y221002D01*
Y221501D01*
Y221002D01*
X216000Y220502D01*
X216500D01*
X217000Y221002D01*
Y222001D01*
X216500Y222501D01*
X214001Y217503D02*
Y219502D01*
X215500D01*
X215001Y218502D01*
Y218002D01*
X215500Y217503D01*
X216500D01*
X217000Y218002D01*
Y219002D01*
X216500Y219502D01*
X208100Y216400D02*
X211099D01*
Y217899D01*
X210599Y218399D01*
X209599D01*
X209100Y217899D01*
Y216400D01*
Y217400D02*
X208100Y218399D01*
X210599Y219399D02*
X211099Y219899D01*
Y220899D01*
X210599Y221398D01*
X210099D01*
X209599Y220899D01*
Y220399D01*
Y220899D01*
X209100Y221398D01*
X208600D01*
X208100Y220899D01*
Y219899D01*
X208600Y219399D01*
X210599Y222398D02*
X211099Y222898D01*
Y223898D01*
X210599Y224397D01*
X208600D01*
X208100Y223898D01*
Y222898D01*
X208600Y222398D01*
X210599D01*
X172500Y10500D02*
X169501D01*
Y9001D01*
X170001Y8501D01*
X171001D01*
X171500Y9001D01*
Y10500D01*
Y9500D02*
X172500Y8501D01*
Y5502D02*
Y7501D01*
X170501Y5502D01*
X170001D01*
X169501Y6001D01*
Y7001D01*
X170001Y7501D01*
Y4502D02*
X169501Y4002D01*
Y3002D01*
X170001Y2503D01*
X170501D01*
X171001Y3002D01*
X171500Y2503D01*
X172000D01*
X172500Y3002D01*
Y4002D01*
X172000Y4502D01*
X171500D01*
X171001Y4002D01*
X170501Y4502D01*
X170001D01*
X171001Y4002D02*
Y3002D01*
X78500Y219000D02*
Y221999D01*
X77000D01*
X76501Y221499D01*
Y220499D01*
X77000Y220000D01*
X78500D01*
X77500D02*
X76501Y219000D01*
X73502D02*
X75501D01*
X73502Y220999D01*
Y221499D01*
X74001Y221999D01*
X75001D01*
X75501Y221499D01*
X72502Y221999D02*
X70503D01*
Y221499D01*
X72502Y219500D01*
Y219000D01*
X55500Y220500D02*
Y223499D01*
X54001D01*
X53501Y222999D01*
Y222000D01*
X54001Y221500D01*
X55500D01*
X54500D02*
X53501Y220500D01*
X50502D02*
X52501D01*
X50502Y222499D01*
Y222999D01*
X51001Y223499D01*
X52001D01*
X52501Y222999D01*
X47503Y223499D02*
X48502Y222999D01*
X49502Y222000D01*
Y221000D01*
X49002Y220500D01*
X48002D01*
X47503Y221000D01*
Y221500D01*
X48002Y222000D01*
X49502D01*
X194000Y216500D02*
X196999D01*
Y218000D01*
X196499Y218499D01*
X195500D01*
X195000Y218000D01*
Y216500D01*
Y217500D02*
X194000Y218499D01*
Y221498D02*
Y219499D01*
X195999Y221498D01*
X196499D01*
X196999Y220999D01*
Y219999D01*
X196499Y219499D01*
X194000Y223998D02*
X196999D01*
X195500Y222498D01*
Y224497D01*
X32000Y230500D02*
X29001D01*
Y229000D01*
X29501Y228501D01*
X30501D01*
X31000Y229000D01*
Y230500D01*
Y229500D02*
X32000Y228501D01*
Y225502D02*
Y227501D01*
X30001Y225502D01*
X29501D01*
X29001Y226002D01*
Y227001D01*
X29501Y227501D01*
X32000Y224502D02*
Y223502D01*
Y224002D01*
X29001D01*
X29501Y224502D01*
X111000Y10500D02*
X108001D01*
Y9001D01*
X108501Y8501D01*
X109501D01*
X110000Y9001D01*
Y10500D01*
Y9500D02*
X111000Y8501D01*
Y5502D02*
Y7501D01*
X109001Y5502D01*
X108501D01*
X108001Y6001D01*
Y7001D01*
X108501Y7501D01*
Y4502D02*
X108001Y4002D01*
Y3002D01*
X108501Y2503D01*
X110500D01*
X111000Y3002D01*
Y4002D01*
X110500Y4502D01*
X108501D01*
X290500Y217000D02*
X293499D01*
Y218499D01*
X292999Y218999D01*
X292000D01*
X291500Y218499D01*
Y217000D01*
Y218000D02*
X290500Y218999D01*
Y219999D02*
Y220999D01*
Y220499D01*
X293499D01*
X292999Y219999D01*
X291000Y222498D02*
X290500Y222998D01*
Y223998D01*
X291000Y224498D01*
X292999D01*
X293499Y223998D01*
Y222998D01*
X292999Y222498D01*
X292499D01*
X292000Y222998D01*
Y224498D01*
X42000Y226000D02*
X44999D01*
Y227500D01*
X44499Y227999D01*
X43499D01*
X43000Y227500D01*
Y226000D01*
Y227000D02*
X42000Y227999D01*
Y228999D02*
Y229999D01*
Y229499D01*
X44999D01*
X44499Y228999D01*
Y231498D02*
X44999Y231998D01*
Y232998D01*
X44499Y233498D01*
X43999D01*
X43499Y232998D01*
X43000Y233498D01*
X42500D01*
X42000Y232998D01*
Y231998D01*
X42500Y231498D01*
X43000D01*
X43499Y231998D01*
X43999Y231498D01*
X44499D01*
X43499Y231998D02*
Y232998D01*
X276500Y217000D02*
X279499D01*
Y218499D01*
X278999Y218999D01*
X277999D01*
X277500Y218499D01*
Y217000D01*
Y218000D02*
X276500Y218999D01*
Y219999D02*
Y220999D01*
Y220499D01*
X279499D01*
X278999Y219999D01*
X279499Y222498D02*
Y224498D01*
X278999D01*
X277000Y222498D01*
X276500D01*
X86500Y217000D02*
X89499D01*
Y218499D01*
X88999Y218999D01*
X87999D01*
X87500Y218499D01*
Y217000D01*
Y218000D02*
X86500Y218999D01*
Y219999D02*
Y220999D01*
Y220499D01*
X89499D01*
X88999Y219999D01*
X89499Y224498D02*
X88999Y223498D01*
X87999Y222498D01*
X87000D01*
X86500Y222998D01*
Y223998D01*
X87000Y224498D01*
X87500D01*
X87999Y223998D01*
Y222498D01*
X100500Y217000D02*
X103499D01*
Y218499D01*
X102999Y218999D01*
X101999D01*
X101500Y218499D01*
Y217000D01*
Y218000D02*
X100500Y218999D01*
Y219999D02*
Y220999D01*
Y220499D01*
X103499D01*
X102999Y219999D01*
X103499Y224498D02*
Y222498D01*
X101999D01*
X102499Y223498D01*
Y223998D01*
X101999Y224498D01*
X101000D01*
X100500Y223998D01*
Y222998D01*
X101000Y222498D01*
X140500Y225500D02*
X137501D01*
Y224001D01*
X138001Y223501D01*
X139000D01*
X139500Y224001D01*
Y225500D01*
Y224500D02*
X140500Y223501D01*
Y222501D02*
Y221501D01*
Y222001D01*
X137501D01*
X138001Y222501D01*
X140500Y218002D02*
Y220002D01*
X138501Y218002D01*
X138001D01*
X137501Y218502D01*
Y219502D01*
X138001Y220002D01*
X168000Y225500D02*
X165001D01*
Y224001D01*
X165501Y223501D01*
X166500D01*
X167000Y224001D01*
Y225500D01*
Y224500D02*
X168000Y223501D01*
Y222501D02*
Y221501D01*
Y222001D01*
X165001D01*
X165501Y222501D01*
X168000Y220002D02*
Y219002D01*
Y219502D01*
X165001D01*
X165501Y220002D01*
X125000Y219500D02*
Y222499D01*
X123501D01*
X123001Y221999D01*
Y221000D01*
X123501Y220500D01*
X125000D01*
X124000D02*
X123001Y219500D01*
X122001Y222499D02*
X120002D01*
Y221999D01*
X122001Y220000D01*
Y219500D01*
X151500Y16000D02*
X148501D01*
Y14501D01*
X149001Y14001D01*
X150001D01*
X150500Y14501D01*
Y16000D01*
Y15000D02*
X151500Y14001D01*
X148501Y11002D02*
X149001Y12001D01*
X150001Y13001D01*
X151000D01*
X151500Y12501D01*
Y11501D01*
X151000Y11002D01*
X150500D01*
X150001Y11501D01*
Y13001D01*
X141000Y219500D02*
Y222499D01*
X139500D01*
X139001Y221999D01*
Y221000D01*
X139500Y220500D01*
X141000D01*
X140000D02*
X139001Y219500D01*
X136002Y222499D02*
X138001D01*
Y221000D01*
X137001Y221499D01*
X136501D01*
X136002Y221000D01*
Y220000D01*
X136501Y219500D01*
X137501D01*
X138001Y220000D01*
X193000Y222500D02*
X190001D01*
Y221001D01*
X190501Y220501D01*
X191500D01*
X192000Y221001D01*
Y222500D01*
Y221500D02*
X193000Y220501D01*
Y217502D02*
Y219501D01*
X191001Y217502D01*
X190501D01*
X190001Y218002D01*
Y219001D01*
X190501Y219501D01*
X179000Y219000D02*
Y221999D01*
X177500D01*
X177001Y221499D01*
Y220499D01*
X177500Y220000D01*
X179000D01*
X178000D02*
X177001Y219000D01*
X176001D02*
X175001D01*
X175501D01*
Y221999D01*
X176001Y221499D01*
X340999Y162000D02*
X338000D01*
Y163999D01*
Y164999D02*
Y165999D01*
Y165499D01*
X340999D01*
X340499Y164999D01*
X15358Y15999D02*
Y13000D01*
X13859D01*
X13359Y13500D01*
Y15499D01*
X13859Y15999D01*
X15358D01*
X12359Y13000D02*
X11360D01*
X11859D01*
Y15999D01*
X12359Y15499D01*
X9860Y13500D02*
X9360Y13000D01*
X8360D01*
X7861Y13500D01*
Y15499D01*
X8360Y15999D01*
X9360D01*
X9860Y15499D01*
Y14999D01*
X9360Y14500D01*
X7861D01*
X278000Y207499D02*
Y204500D01*
X276501D01*
X276001Y205000D01*
Y206999D01*
X276501Y207499D01*
X278000D01*
X275001Y204500D02*
X274001D01*
X274501D01*
Y207499D01*
X275001Y206999D01*
X270502Y207499D02*
X272502D01*
Y205999D01*
X271502Y206499D01*
X271002D01*
X270502Y205999D01*
Y205000D01*
X271002Y204500D01*
X272002D01*
X272502Y205000D01*
X388001Y79500D02*
X391000D01*
Y78000D01*
X390500Y77501D01*
X388501D01*
X388001Y78000D01*
Y79500D01*
X391000Y76501D02*
Y75501D01*
Y76001D01*
X388001D01*
X388501Y76501D01*
Y74002D02*
X388001Y73502D01*
Y72502D01*
X388501Y72002D01*
X389001D01*
X389500Y72502D01*
Y73002D01*
Y72502D01*
X390000Y72002D01*
X390500D01*
X391000Y72502D01*
Y73502D01*
X390500Y74002D01*
X389001Y98000D02*
X392000D01*
Y96500D01*
X391500Y96001D01*
X389501D01*
X389001Y96500D01*
Y98000D01*
X392000Y95001D02*
Y94001D01*
Y94501D01*
X389001D01*
X389501Y95001D01*
X392000Y90502D02*
Y92502D01*
X390001Y90502D01*
X389501D01*
X389001Y91002D01*
Y92002D01*
X389501Y92502D01*
X388501Y115500D02*
X391500D01*
Y114000D01*
X391000Y113501D01*
X389001D01*
X388501Y114000D01*
Y115500D01*
X391500Y112501D02*
Y111501D01*
Y112001D01*
X388501D01*
X389001Y112501D01*
X391500Y110002D02*
Y109002D01*
Y109502D01*
X388501D01*
X389001Y110002D01*
X210400Y210601D02*
Y213600D01*
X211899D01*
X212399Y213100D01*
Y211101D01*
X211899Y210601D01*
X210400D01*
X213399Y213100D02*
X213899Y213600D01*
X214898D01*
X215398Y213100D01*
Y211101D01*
X214898Y210601D01*
X213899D01*
X213399Y211101D01*
Y211601D01*
X213899Y212101D01*
X215398D01*
X41400Y203099D02*
Y200100D01*
X39900D01*
X39401Y200600D01*
Y202599D01*
X39900Y203099D01*
X41400D01*
X38401Y202599D02*
X37901Y203099D01*
X36901D01*
X36402Y202599D01*
Y202099D01*
X36901Y201600D01*
X36402Y201100D01*
Y200600D01*
X36901Y200100D01*
X37901D01*
X38401Y200600D01*
Y201100D01*
X37901Y201600D01*
X38401Y202099D01*
Y202599D01*
X37901Y201600D02*
X36901D01*
X293500Y210101D02*
Y213100D01*
X295000D01*
X295499Y212600D01*
Y210601D01*
X295000Y210101D01*
X293500D01*
X296499D02*
X298498D01*
Y210601D01*
X296499Y212600D01*
Y213100D01*
X86929Y213499D02*
Y210500D01*
X85430D01*
X84930Y211000D01*
Y212999D01*
X85430Y213499D01*
X86929D01*
X81931D02*
X82930Y212999D01*
X83930Y212000D01*
Y211000D01*
X83430Y210500D01*
X82431D01*
X81931Y211000D01*
Y211500D01*
X82431Y212000D01*
X83930D01*
X122500Y213499D02*
Y210500D01*
X121001D01*
X120501Y211000D01*
Y212999D01*
X121001Y213499D01*
X122500D01*
X117502D02*
X119501D01*
Y212000D01*
X118501Y212499D01*
X118001D01*
X117502Y212000D01*
Y211000D01*
X118001Y210500D01*
X119001D01*
X119501Y211000D01*
X192500Y210501D02*
Y213500D01*
X194000D01*
X194499Y213000D01*
Y211001D01*
X194000Y210501D01*
X192500D01*
X197498Y213500D02*
X195499D01*
X197498Y211501D01*
Y211001D01*
X196999Y210501D01*
X195999D01*
X195499Y211001D01*
X22499Y242001D02*
X22000Y241501D01*
X21000D01*
X20500Y242001D01*
Y244000D01*
X21000Y244500D01*
X22000D01*
X22499Y244000D01*
X23499Y241501D02*
X25498D01*
Y242001D01*
X23499Y244000D01*
Y244500D01*
X26498D02*
X27498D01*
X26998D01*
Y241501D01*
X26498Y242001D01*
X317999Y66499D02*
X318499Y66000D01*
Y65000D01*
X317999Y64500D01*
X316000D01*
X315500Y65000D01*
Y66000D01*
X316000Y66499D01*
X318499Y67499D02*
Y69498D01*
X317999D01*
X316000Y67499D01*
X315500D01*
X317999Y70498D02*
X318499Y70998D01*
Y71998D01*
X317999Y72497D01*
X316000D01*
X315500Y71998D01*
Y70998D01*
X316000Y70498D01*
X317999D01*
X74501Y123499D02*
X75001Y123999D01*
X76000D01*
X76500Y123499D01*
Y121500D01*
X76000Y121000D01*
X75001D01*
X74501Y121500D01*
X71502Y123999D02*
X72501Y123499D01*
X73501Y122500D01*
Y121500D01*
X73001Y121000D01*
X72001D01*
X71502Y121500D01*
Y122000D01*
X72001Y122500D01*
X73501D01*
X70502Y121500D02*
X70002Y121000D01*
X69002D01*
X68503Y121500D01*
Y123499D01*
X69002Y123999D01*
X70002D01*
X70502Y123499D01*
Y122999D01*
X70002Y122500D01*
X68503D01*
X59501Y21499D02*
X60000Y21999D01*
X61000D01*
X61500Y21499D01*
Y19500D01*
X61000Y19000D01*
X60000D01*
X59501Y19500D01*
X56502Y21999D02*
X57501Y21499D01*
X58501Y20500D01*
Y19500D01*
X58001Y19000D01*
X57001D01*
X56502Y19500D01*
Y20000D01*
X57001Y20500D01*
X58501D01*
X55502Y21999D02*
X53503D01*
Y21499D01*
X55502Y19500D01*
Y19000D01*
X267001Y172499D02*
X267500Y172999D01*
X268500D01*
X269000Y172499D01*
Y170500D01*
X268500Y170000D01*
X267500D01*
X267001Y170500D01*
X264502Y170000D02*
Y172999D01*
X266001Y171500D01*
X264002D01*
X263002Y172999D02*
X261003D01*
Y172499D01*
X263002Y170500D01*
Y170000D01*
X208899Y227101D02*
X208400Y226601D01*
X207400D01*
X206900Y227101D01*
Y229100D01*
X207400Y229600D01*
X208400D01*
X208899Y229100D01*
X211898Y229600D02*
X209899D01*
X211898Y227601D01*
Y227101D01*
X211399Y226601D01*
X210399D01*
X209899Y227101D01*
X214897Y226601D02*
X212898D01*
Y228100D01*
X213898Y227601D01*
X214398D01*
X214897Y228100D01*
Y229100D01*
X214398Y229600D01*
X213398D01*
X212898Y229100D01*
X215999Y187499D02*
X216499Y186999D01*
Y186000D01*
X215999Y185500D01*
X214000D01*
X213500Y186000D01*
Y186999D01*
X214000Y187499D01*
X213500Y190498D02*
Y188499D01*
X215499Y190498D01*
X215999D01*
X216499Y189999D01*
Y188999D01*
X215999Y188499D01*
X213500Y193497D02*
Y191498D01*
X215499Y193497D01*
X215999D01*
X216499Y192998D01*
Y191998D01*
X215999Y191498D01*
X150001Y21501D02*
X149501Y22001D01*
Y23000D01*
X150001Y23500D01*
X152000D01*
X152500Y23000D01*
Y22001D01*
X152000Y21501D01*
X152500Y18502D02*
Y20501D01*
X150501Y18502D01*
X150001D01*
X149501Y19001D01*
Y20001D01*
X150001Y20501D01*
X152500Y17502D02*
Y16502D01*
Y17002D01*
X149501D01*
X150001Y17502D01*
X168001Y19501D02*
X167501Y20000D01*
Y21000D01*
X168001Y21500D01*
X170000D01*
X170500Y21000D01*
Y20000D01*
X170000Y19501D01*
X170500Y16502D02*
Y18501D01*
X168501Y16502D01*
X168001D01*
X167501Y17001D01*
Y18001D01*
X168001Y18501D01*
Y15502D02*
X167501Y15002D01*
Y14002D01*
X168001Y13503D01*
X170000D01*
X170500Y14002D01*
Y15002D01*
X170000Y15502D01*
X168001D01*
X291999Y227001D02*
X291499Y226501D01*
X290500D01*
X290000Y227001D01*
Y229000D01*
X290500Y229500D01*
X291499D01*
X291999Y229000D01*
X292999Y229500D02*
X293999D01*
X293499D01*
Y226501D01*
X292999Y227001D01*
X295498Y229000D02*
X295998Y229500D01*
X296998D01*
X297498Y229000D01*
Y227001D01*
X296998Y226501D01*
X295998D01*
X295498Y227001D01*
Y227501D01*
X295998Y228000D01*
X297498D01*
X35999Y231001D02*
X35500Y230501D01*
X34500D01*
X34000Y231001D01*
Y233000D01*
X34500Y233500D01*
X35500D01*
X35999Y233000D01*
X36999Y233500D02*
X37999D01*
X37499D01*
Y230501D01*
X36999Y231001D01*
X39498D02*
X39998Y230501D01*
X40998D01*
X41498Y231001D01*
Y231501D01*
X40998Y232000D01*
X41498Y232500D01*
Y233000D01*
X40998Y233500D01*
X39998D01*
X39498Y233000D01*
Y232500D01*
X39998Y232000D01*
X39498Y231501D01*
Y231001D01*
X39998Y232000D02*
X40998D01*
X110001Y19001D02*
X109501Y19500D01*
Y20500D01*
X110001Y21000D01*
X112000D01*
X112500Y20500D01*
Y19500D01*
X112000Y19001D01*
X112500Y18001D02*
Y17001D01*
Y17501D01*
X109501D01*
X110001Y18001D01*
X109501Y15502D02*
Y13502D01*
X110001D01*
X112000Y15502D01*
X112500D01*
X128501Y27001D02*
X128001Y27501D01*
Y28500D01*
X128501Y29000D01*
X130500D01*
X131000Y28500D01*
Y27501D01*
X130500Y27001D01*
X131000Y26001D02*
Y25001D01*
Y25501D01*
X128001D01*
X128501Y26001D01*
X128001Y21502D02*
X128501Y22502D01*
X129500Y23502D01*
X130500D01*
X131000Y23002D01*
Y22002D01*
X130500Y21502D01*
X130000D01*
X129500Y22002D01*
Y23502D01*
X101499Y227001D02*
X100999Y226501D01*
X100000D01*
X99500Y227001D01*
Y229000D01*
X100000Y229500D01*
X100999D01*
X101499Y229000D01*
X102499Y229500D02*
X103499D01*
X102999D01*
Y226501D01*
X102499Y227001D01*
X106498Y229500D02*
Y226501D01*
X104998Y228000D01*
X106998D01*
X216001Y235999D02*
X216500Y236499D01*
X217500D01*
X218000Y235999D01*
Y234000D01*
X217500Y233500D01*
X216500D01*
X216001Y234000D01*
X215001Y233500D02*
X214001D01*
X214501D01*
Y236499D01*
X215001Y235999D01*
X212502D02*
X212002Y236499D01*
X211002D01*
X210502Y235999D01*
Y235499D01*
X211002Y234999D01*
X211502D01*
X211002D01*
X210502Y234500D01*
Y234000D01*
X211002Y233500D01*
X212002D01*
X212502Y234000D01*
X320499Y240001D02*
X320000Y239501D01*
X319000D01*
X318500Y240001D01*
Y242000D01*
X319000Y242500D01*
X320000D01*
X320499Y242000D01*
X321499Y242500D02*
X322499D01*
X321999D01*
Y239501D01*
X321499Y240001D01*
X325998Y242500D02*
X323998D01*
X325998Y240501D01*
Y240001D01*
X325498Y239501D01*
X324498D01*
X323998Y240001D01*
X136999Y227001D02*
X136500Y226501D01*
X135500D01*
X135000Y227001D01*
Y229000D01*
X135500Y229500D01*
X136500D01*
X136999Y229000D01*
X137999Y227001D02*
X138499Y226501D01*
X139499D01*
X139998Y227001D01*
Y227501D01*
X139499Y228000D01*
X139998Y228500D01*
Y229000D01*
X139499Y229500D01*
X138499D01*
X137999Y229000D01*
Y228500D01*
X138499Y228000D01*
X137999Y227501D01*
Y227001D01*
X138499Y228000D02*
X139499D01*
X130501Y17001D02*
X130001Y17501D01*
Y18500D01*
X130501Y19000D01*
X132500D01*
X133000Y18500D01*
Y17501D01*
X132500Y17001D01*
X130001Y14002D02*
X130501Y15001D01*
X131500Y16001D01*
X132500D01*
X133000Y15501D01*
Y14501D01*
X132500Y14002D01*
X132000D01*
X131500Y14501D01*
Y16001D01*
X148001Y27501D02*
X147501Y28001D01*
Y29000D01*
X148001Y29500D01*
X150000D01*
X150500Y29000D01*
Y28001D01*
X150000Y27501D01*
X147501Y24502D02*
Y26501D01*
X149001D01*
X148501Y25501D01*
Y25001D01*
X149001Y24502D01*
X150000D01*
X150500Y25001D01*
Y26001D01*
X150000Y26501D01*
X190999Y227001D02*
X190499Y226501D01*
X189500D01*
X189000Y227001D01*
Y229000D01*
X189500Y229500D01*
X190499D01*
X190999Y229000D01*
X191999Y227001D02*
X192499Y226501D01*
X193499D01*
X193998Y227001D01*
Y227501D01*
X193499Y228000D01*
X192999D01*
X193499D01*
X193998Y228500D01*
Y229000D01*
X193499Y229500D01*
X192499D01*
X191999Y229000D01*
G54D16*
X293783Y180658D02*
Y207342D01*
X279300Y207386D02*
X293700D01*
X279217Y180658D02*
Y207342D01*
X279200Y180614D02*
X293800D01*
X16517Y7216D02*
X43200D01*
X43244Y7300D02*
Y21700D01*
X16517Y21783D02*
X43200D01*
X16472Y7200D02*
Y21800D01*
G54D17*
X377941Y107382D02*
Y117618D01*
X376882Y91559D02*
X387118D01*
X377441Y70382D02*
Y80618D01*
G54D19*
X147500Y10700D02*
Y23300D01*
X140500Y10700D02*
X147500D01*
X140500D02*
Y23300D01*
X147500D01*
X133500Y10700D02*
Y23300D01*
X140500D01*
Y10700D02*
Y23300D01*
X133500Y10700D02*
X140500D01*
X127000D02*
Y23300D01*
X120000Y10700D02*
X127000D01*
X120000D02*
Y23300D01*
X127000D01*
X113000Y10700D02*
Y23300D01*
X120000D01*
Y10700D02*
Y23300D01*
X113000Y10700D02*
X120000D01*
X167000D02*
Y23300D01*
X160000Y10700D02*
X167000D01*
X160000D02*
Y23300D01*
X167000D01*
X153000Y10700D02*
Y23300D01*
X160000D01*
Y10700D02*
Y23300D01*
X153000Y10700D02*
X160000D01*
G54D25*
X373521Y113971D02*
D03*
Y110429D02*
D03*
X373021Y76971D02*
D03*
Y73429D02*
D03*
G54D26*
X373915Y113971D02*
D03*
Y110429D02*
D03*
X383471Y95585D02*
D03*
X379929Y95585D02*
D03*
X373415Y76971D02*
D03*
Y73429D02*
D03*
G54D27*
X373915Y112200D02*
D03*
X373415Y75200D02*
D03*
G54D124*
X279400Y198400D02*
X293700D01*
X279500Y196400D02*
X293700D01*
X34258Y7300D02*
Y21600D01*
X32258Y7300D02*
Y21500D01*
G54D206*
X383471Y95979D02*
D03*
X379929Y95979D02*
D03*
G54D207*
X381700Y95585D02*
D03*
G54D208*
X288800Y191600D02*
D03*
G54D209*
X288450Y191806D02*
D03*
G54D210*
X288750Y191503D02*
D03*
G54D211*
X27458Y12200D02*
D03*
G54D212*
X27664Y12550D02*
D03*
G54D213*
X27361Y12250D02*
D03*
M02*
