G04*
G04 #@! TF.GenerationSoftware,Altium Limited,Altium Designer,19.1.5 (86)*
G04*
G04 Layer_Color=128*
%FSLAX25Y25*%
%MOIN*%
G70*
G01*
G75*
%ADD33R,0.06000X0.06890*%
%ADD51R,0.04153X0.04347*%
%ADD52R,0.04035X0.04307*%
%ADD56R,0.03200X0.03200*%
%ADD57R,0.03200X0.03200*%
%ADD58R,0.02200X0.02200*%
%ADD59R,0.02200X0.02200*%
%ADD61R,0.03600X0.05800*%
%ADD171R,0.06890X0.06000*%
%ADD172R,0.11811X0.06260*%
%ADD173R,0.06260X0.11811*%
%ADD174R,0.21260X0.11417*%
%ADD175R,0.10000X0.05000*%
%ADD176R,0.05000X0.10000*%
%ADD177R,0.05800X0.03600*%
%ADD178R,0.05600X0.03800*%
G54D33*
X384500Y112500D02*
D03*
X366500D02*
D03*
X384000Y75500D02*
D03*
X366000D02*
D03*
G54D51*
X189071Y212000D02*
D03*
X125929D02*
D03*
X90429D02*
D03*
X290071Y212100D02*
D03*
X33429Y208000D02*
D03*
X206971Y212100D02*
D03*
G54D52*
X179929Y212000D02*
D03*
X135071D02*
D03*
X99571D02*
D03*
X280929Y212100D02*
D03*
X42571Y208000D02*
D03*
X197829Y212100D02*
D03*
G54D56*
X377500Y59000D02*
D03*
X372500D02*
D03*
G54D57*
X182000Y218000D02*
D03*
Y223000D02*
D03*
X187000D02*
D03*
Y218000D02*
D03*
X133000D02*
D03*
Y223000D02*
D03*
X128000D02*
D03*
Y218000D02*
D03*
X97500D02*
D03*
Y223000D02*
D03*
X92500D02*
D03*
Y218000D02*
D03*
X282500D02*
D03*
Y223000D02*
D03*
X40100Y217900D02*
D03*
Y222900D02*
D03*
X287500Y223000D02*
D03*
Y218000D02*
D03*
X35100Y222900D02*
D03*
Y217900D02*
D03*
X200000Y218000D02*
D03*
Y223000D02*
D03*
X205000D02*
D03*
Y218000D02*
D03*
G54D58*
X376000Y29000D02*
D03*
X372000D02*
D03*
X376000Y39000D02*
D03*
X372000D02*
D03*
X376000Y49000D02*
D03*
X372000D02*
D03*
X184100Y128900D02*
D03*
X188100D02*
D03*
X212000Y126000D02*
D03*
X208000D02*
D03*
X184100Y124900D02*
D03*
X188100D02*
D03*
X212000Y130000D02*
D03*
X208000D02*
D03*
X184100Y120900D02*
D03*
X188100D02*
D03*
X212000Y134000D02*
D03*
X208000D02*
D03*
X233000Y123500D02*
D03*
X237000D02*
D03*
X186500Y228000D02*
D03*
X182500D02*
D03*
X132500D02*
D03*
X128500D02*
D03*
X97000D02*
D03*
X93000D02*
D03*
X39600Y227900D02*
D03*
X35600D02*
D03*
X287500Y228000D02*
D03*
X283500D02*
D03*
X204400Y228100D02*
D03*
X200400D02*
D03*
G54D59*
X210500Y191500D02*
D03*
Y187500D02*
D03*
G54D61*
X145900Y6500D02*
D03*
X134100D02*
D03*
X125900D02*
D03*
X114100D02*
D03*
X165900D02*
D03*
X154100D02*
D03*
X303100Y241000D02*
D03*
X314900D02*
D03*
X207600D02*
D03*
X219400D02*
D03*
X284400Y174000D02*
D03*
X272600D02*
D03*
X62900Y14000D02*
D03*
X51100D02*
D03*
X66600Y116000D02*
D03*
X78400D02*
D03*
X16100Y237000D02*
D03*
X27900D02*
D03*
G54D171*
X382000Y85000D02*
D03*
Y103000D02*
D03*
G54D172*
X286500Y202858D02*
D03*
Y185142D02*
D03*
G54D173*
X38717Y14500D02*
D03*
X21000D02*
D03*
G54D174*
X319500Y164012D02*
D03*
Y202988D02*
D03*
G54D175*
X158500Y215500D02*
D03*
Y227500D02*
D03*
X147000Y215500D02*
D03*
Y227500D02*
D03*
X51500Y215500D02*
D03*
Y227500D02*
D03*
X63500Y215500D02*
D03*
Y227500D02*
D03*
X223500Y215500D02*
D03*
Y227500D02*
D03*
X235000Y215500D02*
D03*
Y227500D02*
D03*
G54D176*
X52500Y190500D02*
D03*
X64500D02*
D03*
X52500Y178500D02*
D03*
X64500D02*
D03*
G54D177*
X323000Y62100D02*
D03*
Y73900D02*
D03*
G54D178*
X144000Y20600D02*
D03*
Y13400D02*
D03*
X137000D02*
D03*
Y20600D02*
D03*
X123500D02*
D03*
Y13400D02*
D03*
X116500D02*
D03*
Y20600D02*
D03*
X163500D02*
D03*
Y13400D02*
D03*
X156500D02*
D03*
Y20600D02*
D03*
M02*
