G04*
G04 #@! TF.GenerationSoftware,Altium Limited,Altium Designer,19.1.5 (86)*
G04*
G04 Layer_Color=255*
%FSLAX25Y25*%
%MOIN*%
G70*
G01*
G75*
%ADD29R,0.03200X0.03200*%
%ADD30R,0.03200X0.03200*%
%ADD31R,0.02200X0.02200*%
%ADD32R,0.04331X0.03347*%
%ADD33R,0.05600X0.03800*%
%ADD34R,0.03347X0.04331*%
%ADD36R,0.02200X0.02200*%
%ADD43R,0.05800X0.03600*%
%ADD44R,0.11811X0.06260*%
%ADD45R,0.03600X0.05800*%
%ADD60R,0.04000X0.02400*%
%ADD61R,0.03800X0.02800*%
G04:AMPARAMS|DCode=129|XSize=90mil|YSize=68mil|CornerRadius=27.2mil|HoleSize=0mil|Usage=FLASHONLY|Rotation=0.000|XOffset=0mil|YOffset=0mil|HoleType=Round|Shape=RoundedRectangle|*
%AMROUNDEDRECTD129*
21,1,0.09000,0.01360,0,0,0.0*
21,1,0.03560,0.06800,0,0,0.0*
1,1,0.05440,0.01780,-0.00680*
1,1,0.05440,-0.01780,-0.00680*
1,1,0.05440,-0.01780,0.00680*
1,1,0.05440,0.01780,0.00680*
%
%ADD129ROUNDEDRECTD129*%
%ADD130O,0.05000X0.05400*%
%ADD152C,0.19685*%
%ADD153C,0.11024*%
%ADD154C,0.11811*%
%ADD155C,0.08268*%
%ADD156C,0.06693*%
%ADD157R,0.06693X0.06693*%
%ADD158C,0.06693*%
%ADD159C,0.07480*%
%ADD160C,0.06299*%
%ADD161O,0.06000X0.05500*%
G04:AMPARAMS|DCode=162|XSize=55mil|YSize=60mil|CornerRadius=6.88mil|HoleSize=0mil|Usage=FLASHONLY|Rotation=270.000|XOffset=0mil|YOffset=0mil|HoleType=Round|Shape=RoundedRectangle|*
%AMROUNDEDRECTD162*
21,1,0.05500,0.04625,0,0,270.0*
21,1,0.04125,0.06000,0,0,270.0*
1,1,0.01375,-0.02313,-0.02063*
1,1,0.01375,-0.02313,0.02063*
1,1,0.01375,0.02313,0.02063*
1,1,0.01375,0.02313,-0.02063*
%
%ADD162ROUNDEDRECTD162*%
%ADD167R,0.06890X0.06000*%
%ADD168R,0.06000X0.06890*%
G54D29*
X191500Y128500D02*
D03*
Y133500D02*
D03*
G54D30*
X377500Y59000D02*
D03*
X372500D02*
D03*
G54D31*
X34350Y152500D02*
D03*
X30349D02*
D03*
X34350Y148500D02*
D03*
X30349D02*
D03*
X26349Y174000D02*
D03*
X30349D02*
D03*
X5350Y154000D02*
D03*
X9349D02*
D03*
X376000Y29000D02*
D03*
X372000D02*
D03*
X376000Y39000D02*
D03*
X372000D02*
D03*
X376000Y49000D02*
D03*
X372000D02*
D03*
G54D32*
X5865Y141260D02*
D03*
Y148740D02*
D03*
X16849Y145000D02*
D03*
G54D33*
X116000Y34100D02*
D03*
Y26900D02*
D03*
X109000D02*
D03*
Y34100D02*
D03*
X159000Y59100D02*
D03*
Y51900D02*
D03*
X152000D02*
D03*
Y59100D02*
D03*
G54D34*
X38590Y157508D02*
D03*
X31109D02*
D03*
X34850Y168492D02*
D03*
X14109Y164992D02*
D03*
X21590D02*
D03*
X17850Y154008D02*
D03*
G54D36*
X26349Y156500D02*
D03*
Y152500D02*
D03*
X20349Y136500D02*
D03*
Y140500D02*
D03*
X21350Y174000D02*
D03*
Y170000D02*
D03*
X13849Y174000D02*
D03*
Y170000D02*
D03*
X38849Y152500D02*
D03*
Y148500D02*
D03*
X21849Y145000D02*
D03*
Y149000D02*
D03*
G54D43*
X262000Y218800D02*
D03*
Y207000D02*
D03*
X323000Y62100D02*
D03*
Y73900D02*
D03*
G54D44*
X50500Y63358D02*
D03*
Y45642D02*
D03*
G54D45*
X118400Y20000D02*
D03*
X106600D02*
D03*
X161400Y45000D02*
D03*
X149600D02*
D03*
X25600Y40000D02*
D03*
X37400D02*
D03*
X25600Y32000D02*
D03*
X37400D02*
D03*
G54D60*
X29928Y140000D02*
D03*
Y143740D02*
D03*
Y136260D02*
D03*
G54D61*
X39771D02*
D03*
Y143740D02*
D03*
G54D129*
X393500Y208100D02*
D03*
Y235443D02*
D03*
G54D130*
X382200Y212224D02*
D03*
Y231319D02*
D03*
G54D152*
X16000Y232000D02*
D03*
Y16000D02*
D03*
X345000Y232000D02*
D03*
Y60000D02*
D03*
G54D153*
X121732Y44134D02*
D03*
Y65787D02*
D03*
X138268Y44134D02*
D03*
Y65787D02*
D03*
X91500Y65394D02*
D03*
Y43740D02*
D03*
X66500Y65394D02*
D03*
Y43740D02*
D03*
G54D154*
X130000Y15000D02*
D03*
X91500D02*
D03*
X66500D02*
D03*
G54D155*
X35500Y183000D02*
D03*
X319500Y152500D02*
D03*
X37500Y106500D02*
D03*
Y53500D02*
D03*
G54D156*
X15500Y183000D02*
D03*
X299500Y152500D02*
D03*
X17500Y106500D02*
D03*
Y53500D02*
D03*
X365500Y59000D02*
D03*
Y49000D02*
D03*
Y39000D02*
D03*
X395500Y49000D02*
D03*
X365500Y29000D02*
D03*
X395500Y39000D02*
D03*
Y29000D02*
D03*
Y59000D02*
D03*
G54D157*
X61728Y171248D02*
D03*
X81728Y147248D02*
D03*
X109478Y171248D02*
D03*
X129478Y147248D02*
D03*
X157228Y171248D02*
D03*
X177228Y147248D02*
D03*
G54D158*
X71728Y171248D02*
D03*
X81728D02*
D03*
X71728Y147248D02*
D03*
X61728D02*
D03*
X119478Y171248D02*
D03*
X129478D02*
D03*
X119478Y147248D02*
D03*
X109478D02*
D03*
X167228Y171248D02*
D03*
X177228D02*
D03*
X167228Y147248D02*
D03*
X157228D02*
D03*
G54D159*
X271000Y207000D02*
D03*
G54D160*
X271000Y220650D02*
D03*
G54D161*
X205500Y80500D02*
D03*
Y88374D02*
D03*
Y72626D02*
D03*
G54D162*
Y96248D02*
D03*
G54D167*
X35500Y192500D02*
D03*
Y210500D02*
D03*
X382000Y85000D02*
D03*
Y103000D02*
D03*
G54D168*
X384500Y112500D02*
D03*
X366500D02*
D03*
X384000Y75500D02*
D03*
X366000D02*
D03*
M02*
