G04*
G04 #@! TF.GenerationSoftware,Altium Limited,Altium Designer,19.1.5 (86)*
G04*
G04 Layer_Physical_Order=4*
G04 Layer_Color=16711680*
%FSLAX25Y25*%
%MOIN*%
G70*
G01*
G75*
%ADD11C,0.01000*%
%ADD18C,0.00800*%
%ADD29R,0.03200X0.03200*%
%ADD30R,0.03200X0.03200*%
%ADD31R,0.02200X0.02200*%
%ADD32R,0.04331X0.03347*%
%ADD33R,0.05600X0.03800*%
%ADD34R,0.03347X0.04331*%
%ADD36R,0.02200X0.02200*%
%ADD43R,0.05800X0.03600*%
%ADD44R,0.11811X0.06260*%
%ADD45R,0.03600X0.05800*%
%ADD60R,0.04000X0.02400*%
%ADD61R,0.03800X0.02800*%
G04:AMPARAMS|DCode=129|XSize=90mil|YSize=68mil|CornerRadius=27.2mil|HoleSize=0mil|Usage=FLASHONLY|Rotation=0.000|XOffset=0mil|YOffset=0mil|HoleType=Round|Shape=RoundedRectangle|*
%AMROUNDEDRECTD129*
21,1,0.09000,0.01360,0,0,0.0*
21,1,0.03560,0.06800,0,0,0.0*
1,1,0.05440,0.01780,-0.00680*
1,1,0.05440,-0.01780,-0.00680*
1,1,0.05440,-0.01780,0.00680*
1,1,0.05440,0.01780,0.00680*
%
%ADD129ROUNDEDRECTD129*%
%ADD130O,0.05000X0.05400*%
%ADD133C,0.00700*%
%ADD134C,0.03000*%
%ADD135C,0.02000*%
%ADD137C,0.04000*%
%ADD139C,0.08000*%
%ADD140C,0.05000*%
%ADD152C,0.19685*%
%ADD153C,0.11024*%
%ADD154C,0.11811*%
%ADD155C,0.08268*%
%ADD156C,0.06693*%
%ADD157R,0.06693X0.06693*%
%ADD158C,0.06693*%
%ADD159C,0.07480*%
%ADD160C,0.06299*%
%ADD161O,0.06000X0.05500*%
G04:AMPARAMS|DCode=162|XSize=55mil|YSize=60mil|CornerRadius=6.88mil|HoleSize=0mil|Usage=FLASHONLY|Rotation=270.000|XOffset=0mil|YOffset=0mil|HoleType=Round|Shape=RoundedRectangle|*
%AMROUNDEDRECTD162*
21,1,0.05500,0.04625,0,0,270.0*
21,1,0.04125,0.06000,0,0,270.0*
1,1,0.01375,-0.02313,-0.02063*
1,1,0.01375,-0.02313,0.02063*
1,1,0.01375,0.02313,0.02063*
1,1,0.01375,0.02313,-0.02063*
%
%ADD162ROUNDEDRECTD162*%
%ADD163C,0.01968*%
%ADD164C,0.04724*%
%ADD165C,0.10000*%
%ADD167R,0.06890X0.06000*%
%ADD168R,0.06000X0.06890*%
%ADD169R,0.11000X0.17000*%
%ADD170R,0.18500X0.17000*%
G36*
X399638Y237676D02*
X399138Y237576D01*
X398879Y238201D01*
X398218Y239062D01*
X397358Y239722D01*
X396356Y240137D01*
X395280Y240279D01*
X391720D01*
X390645Y240137D01*
X389642Y239722D01*
X388782Y239062D01*
X388121Y238201D01*
X387706Y237199D01*
X387564Y236123D01*
Y234763D01*
X387706Y233688D01*
X388121Y232685D01*
X388782Y231825D01*
X389642Y231165D01*
X390645Y230749D01*
X391720Y230608D01*
X395280D01*
X396356Y230749D01*
X397358Y231165D01*
X398218Y231825D01*
X398879Y232685D01*
X399138Y233310D01*
X399638Y233211D01*
Y210332D01*
X399138Y210233D01*
X398879Y210858D01*
X398218Y211718D01*
X397358Y212379D01*
X396356Y212794D01*
X395280Y212936D01*
X391720D01*
X390645Y212794D01*
X389642Y212379D01*
X388782Y211718D01*
X388121Y210858D01*
X387706Y209856D01*
X387564Y208780D01*
Y207420D01*
X387706Y206345D01*
X388121Y205342D01*
X388782Y204482D01*
X389642Y203821D01*
X390645Y203406D01*
X391720Y203264D01*
X395280D01*
X396356Y203406D01*
X397358Y203821D01*
X398218Y204482D01*
X398879Y205342D01*
X399138Y205967D01*
X399638Y205868D01*
Y62182D01*
X399164Y62022D01*
X398885Y62385D01*
X397894Y63146D01*
X396739Y63624D01*
X395500Y63787D01*
X394328Y63633D01*
X393447Y64514D01*
Y94000D01*
X393261Y94936D01*
X392730Y95730D01*
X387730Y100730D01*
X387730Y100730D01*
X386845Y101616D01*
Y107400D01*
X387239Y107655D01*
X388900D01*
Y117345D01*
X380100D01*
Y107655D01*
X379706Y107400D01*
X377155D01*
Y98600D01*
X382939D01*
X384270Y97270D01*
X384270Y97270D01*
X388553Y92986D01*
Y80782D01*
X388400Y80345D01*
X388053Y80345D01*
X387239D01*
X386845Y80600D01*
Y89400D01*
X382947D01*
Y90500D01*
X382761Y91436D01*
X382230Y92230D01*
X376447Y98014D01*
Y104000D01*
X376261Y104936D01*
X375730Y105730D01*
X374936Y106261D01*
X374000Y106447D01*
X373064Y106261D01*
X372270Y105730D01*
X371739Y104936D01*
X371553Y104000D01*
Y97000D01*
X371739Y96064D01*
X372270Y95270D01*
X377639Y89900D01*
X377432Y89400D01*
X377155D01*
Y87687D01*
X377118Y87500D01*
X377155Y87313D01*
Y80600D01*
X379206D01*
X379600Y80345D01*
Y70655D01*
X381553D01*
Y66514D01*
X377039Y62000D01*
X369500D01*
X369500Y62000D01*
Y62000D01*
X369057Y62161D01*
X368885Y62385D01*
X367894Y63146D01*
X366739Y63624D01*
X365500Y63787D01*
X364261Y63624D01*
X363106Y63146D01*
X362115Y62385D01*
X361354Y61394D01*
X360876Y60239D01*
X360713Y59000D01*
X360876Y57761D01*
X361354Y56606D01*
X362115Y55615D01*
X363106Y54854D01*
X364261Y54376D01*
X365199Y54252D01*
Y53748D01*
X364261Y53624D01*
X363106Y53146D01*
X362115Y52385D01*
X361354Y51394D01*
X360876Y50239D01*
X360713Y49000D01*
X360876Y47761D01*
X361128Y47151D01*
X357261Y43284D01*
X320239D01*
X305784Y57739D01*
Y68500D01*
X305648Y69183D01*
X305262Y69762D01*
X302262Y72762D01*
X301683Y73149D01*
X301000Y73284D01*
X297305D01*
X297246Y73367D01*
X297368Y74047D01*
X297719Y74281D01*
X298246Y75070D01*
X298431Y76000D01*
X298246Y76930D01*
X297719Y77719D01*
X296930Y78246D01*
X296000Y78431D01*
X295070Y78246D01*
X294281Y77719D01*
X293754Y76930D01*
X293569Y76000D01*
X293754Y75070D01*
X294281Y74281D01*
X294632Y74047D01*
X294755Y73367D01*
X294695Y73284D01*
X287004D01*
X278874Y81414D01*
X279039Y81956D01*
X279530Y82054D01*
X280319Y82581D01*
X280846Y83370D01*
X281031Y84300D01*
X280846Y85230D01*
X280319Y86019D01*
X279530Y86546D01*
X278600Y86731D01*
X278171Y86646D01*
X277784Y86963D01*
Y88500D01*
X277648Y89183D01*
X277262Y89762D01*
X277262Y89762D01*
X272908Y94115D01*
X272746Y94930D01*
X272219Y95719D01*
X271430Y96246D01*
X270500Y96431D01*
X269570Y96246D01*
X268781Y95719D01*
X268254Y94930D01*
X268069Y94000D01*
X268254Y93070D01*
X268781Y92281D01*
X269570Y91754D01*
X270385Y91592D01*
X271113Y90864D01*
X270948Y90321D01*
X270570Y90246D01*
X269781Y89719D01*
X269405Y89156D01*
X268806Y89047D01*
X255148Y102705D01*
X255004Y103430D01*
X254477Y104219D01*
X253810Y104665D01*
X253951Y105165D01*
X272500D01*
X273202Y105304D01*
X273798Y105702D01*
X280260Y112165D01*
X309955D01*
X310570Y111754D01*
X311500Y111569D01*
X312430Y111754D01*
X313219Y112281D01*
X313746Y113070D01*
X313931Y114000D01*
X313746Y114930D01*
X313219Y115719D01*
X312430Y116246D01*
X311500Y116431D01*
X310570Y116246D01*
X309955Y115835D01*
X279500D01*
X278798Y115696D01*
X278202Y115298D01*
X271740Y108835D01*
X268693D01*
X268376Y109222D01*
X268431Y109500D01*
X268246Y110430D01*
X267719Y111219D01*
X266930Y111746D01*
X266385Y111854D01*
X265437Y112802D01*
Y115287D01*
X265824Y115604D01*
X266000Y115569D01*
X266930Y115754D01*
X267719Y116281D01*
X268246Y117070D01*
X268431Y118000D01*
X268246Y118930D01*
X267937Y119392D01*
Y167108D01*
X268246Y167570D01*
X268431Y168500D01*
X268246Y169430D01*
X267719Y170219D01*
X266930Y170746D01*
X266000Y170931D01*
X265070Y170746D01*
X264281Y170219D01*
X263754Y169430D01*
X263569Y168500D01*
X263754Y167570D01*
X264063Y167108D01*
Y139093D01*
X263601Y138901D01*
X255900Y146603D01*
X255949Y147100D01*
X256219Y147281D01*
X256746Y148070D01*
X256931Y149000D01*
X256746Y149930D01*
X256219Y150719D01*
X255430Y151246D01*
X254500Y151431D01*
X253570Y151246D01*
X252781Y150719D01*
X252600Y150449D01*
X252103Y150400D01*
X251437Y151065D01*
Y157608D01*
X251746Y158070D01*
X251931Y159000D01*
X251746Y159930D01*
X251219Y160719D01*
X250430Y161246D01*
X249500Y161431D01*
X248570Y161246D01*
X247781Y160719D01*
X247254Y159930D01*
X247069Y159000D01*
X247254Y158070D01*
X247563Y157608D01*
Y153330D01*
X247101Y153139D01*
X222937Y177302D01*
Y181108D01*
X223246Y181570D01*
X223431Y182500D01*
X223246Y183430D01*
X222719Y184219D01*
X221930Y184746D01*
X221000Y184931D01*
X220070Y184746D01*
X219286Y184222D01*
X219262Y184227D01*
X218816Y184423D01*
X218931Y185000D01*
X218746Y185930D01*
X218219Y186719D01*
X217430Y187246D01*
X216500Y187431D01*
X215570Y187246D01*
X214937Y186823D01*
X214437Y187036D01*
Y200608D01*
X214746Y201070D01*
X214931Y202000D01*
X214848Y202417D01*
X215000Y202569D01*
X215930Y202754D01*
X216719Y203281D01*
X217246Y204070D01*
X217431Y205000D01*
X217246Y205930D01*
X216719Y206719D01*
X215930Y207246D01*
X215000Y207431D01*
X214070Y207246D01*
X213608Y206937D01*
X211500D01*
X210759Y206790D01*
X210130Y206370D01*
X208630Y204870D01*
X208210Y204241D01*
X208063Y203500D01*
Y164000D01*
X208210Y163259D01*
X208630Y162630D01*
X212646Y158615D01*
X212754Y158070D01*
X213281Y157281D01*
X214070Y156754D01*
X215000Y156569D01*
X215930Y156754D01*
X216719Y157281D01*
X217246Y158070D01*
X217431Y159000D01*
X217246Y159930D01*
X216719Y160719D01*
X215930Y161246D01*
X215385Y161354D01*
X211937Y164802D01*
Y178170D01*
X212399Y178361D01*
X252063Y138698D01*
Y128892D01*
X251754Y128430D01*
X251569Y127500D01*
X251754Y126570D01*
X252281Y125781D01*
X252699Y125502D01*
X252763Y124858D01*
X245142Y117237D01*
X244498Y117301D01*
X244219Y117719D01*
X243430Y118246D01*
X242500Y118431D01*
X241570Y118246D01*
X240781Y117719D01*
X240254Y116930D01*
X240069Y116000D01*
X240254Y115070D01*
X240781Y114281D01*
X241199Y114002D01*
X241263Y113358D01*
X236740Y108835D01*
X233000D01*
X232298Y108696D01*
X231702Y108298D01*
X229202Y105798D01*
X228804Y105202D01*
X228665Y104500D01*
Y100545D01*
X228254Y99930D01*
X228069Y99000D01*
X228254Y98070D01*
X228781Y97281D01*
X229570Y96754D01*
X230500Y96569D01*
X231430Y96754D01*
X232219Y97281D01*
X232746Y98070D01*
X232931Y99000D01*
X232746Y99930D01*
X232335Y100545D01*
Y101355D01*
X232835Y101701D01*
X233500Y101569D01*
X233569Y101500D01*
X233754Y100570D01*
X234216Y99879D01*
Y97000D01*
X234351Y96317D01*
X234738Y95738D01*
X236588Y93889D01*
X236539Y93391D01*
X236281Y93219D01*
X235754Y92430D01*
X235569Y91500D01*
X235754Y90570D01*
X236216Y89879D01*
Y84683D01*
X235829Y84365D01*
X235500Y84431D01*
X234570Y84246D01*
X233879Y83784D01*
X231611D01*
X231289Y84284D01*
X231431Y85000D01*
X231246Y85930D01*
X230719Y86719D01*
X229930Y87246D01*
X229000Y87431D01*
X228070Y87246D01*
X227608Y86937D01*
X215790D01*
X215049Y86790D01*
X214420Y86370D01*
X210613Y82563D01*
X209387D01*
X209375Y82593D01*
X208710Y83460D01*
X207843Y84125D01*
X207693Y84187D01*
Y84687D01*
X207843Y84749D01*
X208710Y85414D01*
X209375Y86281D01*
X209492Y86563D01*
X212000D01*
X212741Y86710D01*
X213370Y87130D01*
X220385Y94146D01*
X220930Y94254D01*
X221719Y94781D01*
X222246Y95570D01*
X222431Y96500D01*
X222246Y97430D01*
X221719Y98219D01*
X220930Y98746D01*
X220082Y98915D01*
X219828Y99368D01*
X229730Y109270D01*
X230261Y110064D01*
X230447Y111000D01*
Y123520D01*
X230261Y124457D01*
X229730Y125251D01*
X228936Y125781D01*
X228000Y125967D01*
X227064Y125781D01*
X226270Y125251D01*
X225739Y124457D01*
X225553Y123520D01*
Y112014D01*
X213770Y100230D01*
X213246Y99447D01*
X209564D01*
X209317Y99815D01*
X208627Y100277D01*
X207812Y100439D01*
X203187D01*
X202373Y100277D01*
X201682Y99815D01*
X201221Y99125D01*
X201059Y98311D01*
Y94186D01*
X201221Y93371D01*
X201682Y92681D01*
X202373Y92219D01*
X202571Y92180D01*
X202696Y91645D01*
X202290Y91334D01*
X201625Y90467D01*
X201207Y89457D01*
X201064Y88374D01*
X201207Y87291D01*
X201625Y86281D01*
X202290Y85414D01*
X203157Y84749D01*
X203307Y84687D01*
Y84187D01*
X203157Y84125D01*
X202290Y83460D01*
X201625Y82593D01*
X201207Y81583D01*
X201064Y80500D01*
X201207Y79417D01*
X201625Y78407D01*
X202290Y77540D01*
X203157Y76875D01*
X203780Y76617D01*
Y76076D01*
X203359Y75902D01*
X202575Y75301D01*
X201974Y74517D01*
X201596Y73605D01*
X201520Y73026D01*
X205500D01*
X209480D01*
X209403Y73605D01*
X209026Y74517D01*
X208424Y75301D01*
X207641Y75902D01*
X207220Y76076D01*
Y76617D01*
X207843Y76875D01*
X208710Y77540D01*
X209375Y78407D01*
X209492Y78689D01*
X211416D01*
X212157Y78836D01*
X212786Y79256D01*
X216592Y83063D01*
X224287D01*
X224681Y82563D01*
X224569Y82000D01*
X224754Y81070D01*
X225281Y80281D01*
X226070Y79754D01*
X227000Y79569D01*
X227930Y79754D01*
X228621Y80216D01*
X233879D01*
X234570Y79754D01*
X235500Y79569D01*
X235981Y79665D01*
X236351Y79417D01*
X236738Y78838D01*
X246792Y68785D01*
X246867Y68408D01*
X246550Y68021D01*
X210545D01*
X209930Y68432D01*
X209000Y68617D01*
X208070Y68432D01*
X207281Y67905D01*
X206754Y67116D01*
X206569Y66186D01*
X206754Y65256D01*
X207281Y64467D01*
X208070Y63940D01*
X209000Y63755D01*
X209930Y63940D01*
X210545Y64351D01*
X254186D01*
X254888Y64490D01*
X255484Y64888D01*
X255705Y65110D01*
X256430Y65254D01*
X257219Y65781D01*
X257746Y66570D01*
X257931Y67500D01*
X257746Y68430D01*
X257219Y69219D01*
X256430Y69746D01*
X255500Y69931D01*
X254570Y69746D01*
X253781Y69219D01*
X253254Y68430D01*
X253173Y68021D01*
X251850D01*
X251533Y68408D01*
X251631Y68900D01*
X251446Y69830D01*
X250919Y70619D01*
X250130Y71146D01*
X249315Y71308D01*
X239784Y80839D01*
Y89879D01*
X239891Y90039D01*
X240389Y90088D01*
X264738Y65738D01*
X264738Y65738D01*
X265317Y65351D01*
X266000Y65216D01*
X266000Y65216D01*
X266978D01*
X267295Y64829D01*
X267269Y64700D01*
X267454Y63770D01*
X267981Y62981D01*
X268770Y62454D01*
X269472Y62314D01*
X269469Y62300D01*
X269654Y61370D01*
X270181Y60581D01*
X270970Y60054D01*
X271695Y59910D01*
X277102Y54502D01*
X277698Y54104D01*
X278400Y53965D01*
X285240D01*
X324502Y14702D01*
X325098Y14304D01*
X325800Y14165D01*
X327455D01*
X328070Y13754D01*
X329000Y13569D01*
X329930Y13754D01*
X330719Y14281D01*
X331246Y15070D01*
X331431Y16000D01*
X331312Y16596D01*
X331738Y17021D01*
X332000Y16969D01*
X332930Y17154D01*
X333719Y17681D01*
X334246Y18470D01*
X334431Y19400D01*
X334246Y20330D01*
X333719Y21119D01*
X332930Y21646D01*
X332000Y21831D01*
X331070Y21646D01*
X330455Y21235D01*
X326060D01*
X292298Y54997D01*
X292490Y55459D01*
X295455D01*
X296070Y55049D01*
X297000Y54864D01*
X297930Y55049D01*
X298528Y55448D01*
X326238Y27738D01*
X326817Y27351D01*
X327500Y27216D01*
X327500Y27216D01*
X361102D01*
X361354Y26606D01*
X362115Y25615D01*
X363106Y24854D01*
X364261Y24376D01*
X365500Y24213D01*
X366739Y24376D01*
X367894Y24854D01*
X368885Y25615D01*
X369564Y26500D01*
X378500D01*
Y31500D01*
X377937D01*
Y36500D01*
X378500D01*
Y41500D01*
X377937D01*
Y46500D01*
X378500D01*
Y51500D01*
X378467D01*
X378199Y52000D01*
X378246Y52070D01*
X378431Y53000D01*
X378246Y53930D01*
X377719Y54719D01*
X376930Y55246D01*
X376000Y55431D01*
X375070Y55246D01*
X374281Y54719D01*
X373754Y53930D01*
X373569Y53000D01*
X373754Y52070D01*
X373801Y52000D01*
X373533Y51500D01*
X369564D01*
X368885Y52385D01*
X367894Y53146D01*
X366739Y53624D01*
X365800Y53748D01*
Y54252D01*
X366739Y54376D01*
X367894Y54854D01*
X368885Y55615D01*
X369054Y55834D01*
X369500Y56000D01*
Y56000D01*
X369500Y56000D01*
X380500D01*
Y58539D01*
X385730Y63770D01*
X386261Y64564D01*
X386447Y65500D01*
Y70655D01*
X388400Y70655D01*
X388553Y70218D01*
Y63500D01*
X388739Y62564D01*
X389270Y61770D01*
X390867Y60172D01*
X390713Y59000D01*
X390876Y57761D01*
X391354Y56606D01*
X392115Y55615D01*
X393106Y54854D01*
X394261Y54376D01*
X395500Y54213D01*
X396739Y54376D01*
X397894Y54854D01*
X398885Y55615D01*
X399164Y55978D01*
X399638Y55818D01*
Y51569D01*
X399138Y51399D01*
X398600Y52100D01*
X397692Y52797D01*
X396635Y53235D01*
X395900Y53331D01*
Y49000D01*
Y44669D01*
X396635Y44765D01*
X397692Y45203D01*
X398600Y45900D01*
X399138Y46601D01*
X399638Y46431D01*
Y41569D01*
X399138Y41399D01*
X398600Y42100D01*
X397692Y42797D01*
X396635Y43235D01*
X395900Y43331D01*
Y39000D01*
Y34669D01*
X396635Y34765D01*
X397692Y35203D01*
X398600Y35900D01*
X399138Y36601D01*
X399638Y36431D01*
Y31569D01*
X399138Y31399D01*
X398600Y32100D01*
X397692Y32797D01*
X396635Y33235D01*
X395900Y33331D01*
Y29000D01*
Y24669D01*
X396635Y24765D01*
X397692Y25203D01*
X398600Y25900D01*
X399138Y26601D01*
X399638Y26431D01*
Y1937D01*
X192913D01*
Y92506D01*
X193262Y92738D01*
X203615Y103092D01*
X204430Y103254D01*
X205219Y103781D01*
X205746Y104570D01*
X205931Y105500D01*
X205746Y106430D01*
X205219Y107219D01*
X204458Y107727D01*
X204383Y107806D01*
X204254Y108231D01*
X205115Y109092D01*
X205930Y109254D01*
X206719Y109781D01*
X207246Y110570D01*
X207431Y111500D01*
X207246Y112430D01*
X206719Y113219D01*
X205930Y113746D01*
X205000Y113931D01*
X204070Y113746D01*
X203281Y113219D01*
X202754Y112430D01*
X202592Y111615D01*
X201231Y110254D01*
X200806Y110383D01*
X200727Y110458D01*
X200219Y111219D01*
X199430Y111746D01*
X198500Y111931D01*
X197570Y111746D01*
X196781Y111219D01*
X196254Y110430D01*
X196092Y109615D01*
X193375Y106899D01*
X192913Y107090D01*
Y125900D01*
X194100D01*
Y128100D01*
X191500D01*
X188900D01*
Y125900D01*
X190500D01*
Y104023D01*
X189761Y103284D01*
X186121D01*
X185430Y103746D01*
X184500Y103931D01*
X183570Y103746D01*
X182781Y103219D01*
X182254Y102430D01*
X182069Y101500D01*
X182254Y100570D01*
X182781Y99781D01*
X183570Y99254D01*
X184079Y99153D01*
X184184Y98622D01*
X183581Y98219D01*
X183054Y97430D01*
X182869Y96500D01*
X182891Y96389D01*
X182170Y96246D01*
X181381Y95719D01*
X180854Y94930D01*
X180669Y94000D01*
X180854Y93070D01*
X181381Y92281D01*
X182170Y91754D01*
X183100Y91569D01*
X184030Y91754D01*
X184721Y92216D01*
X190500D01*
Y1937D01*
X1937D01*
Y137855D01*
X2300Y138187D01*
X2437Y138187D01*
X6691D01*
X9747Y135130D01*
X10376Y134710D01*
X11117Y134563D01*
X17850D01*
Y134000D01*
X22850D01*
Y134000D01*
X23349Y134198D01*
X24000Y134069D01*
X24930Y134254D01*
X25719Y134781D01*
X26028Y135244D01*
X26528Y135092D01*
Y133660D01*
X33328D01*
Y134247D01*
X33811Y134407D01*
X34052Y134244D01*
X34187Y134093D01*
X34069Y133500D01*
X34254Y132570D01*
X34781Y131781D01*
X35570Y131254D01*
X36500Y131069D01*
X37430Y131254D01*
X38219Y131781D01*
X38596Y132346D01*
X39710Y133460D01*
X43071D01*
Y138206D01*
X43091Y138210D01*
X43719Y138630D01*
X47219Y142130D01*
X47639Y142759D01*
X47787Y143500D01*
Y150248D01*
X47639Y150989D01*
X47219Y151618D01*
X43467Y155370D01*
X43467Y155370D01*
X41663Y157174D01*
Y161073D01*
X35516D01*
Y155000D01*
X34183D01*
Y161073D01*
X28036D01*
Y159000D01*
X23850D01*
Y157827D01*
X23349Y157675D01*
X23219Y157870D01*
X21219Y159870D01*
X20591Y160290D01*
X19850Y160437D01*
X7850D01*
X7108Y160290D01*
X6480Y159870D01*
X3980Y157370D01*
X3560Y156741D01*
X3512Y156500D01*
X2850D01*
Y152167D01*
X2496Y151813D01*
X2300D01*
X1937Y152145D01*
Y246094D01*
X190500D01*
Y243429D01*
X65445D01*
X64557Y243313D01*
X63730Y242970D01*
X63020Y242425D01*
X35495Y214900D01*
X30655D01*
Y206100D01*
X40345D01*
Y210050D01*
X66865Y236571D01*
X190500D01*
Y136500D01*
X188500D01*
Y130500D01*
X188900D01*
Y128900D01*
X191500D01*
X194100D01*
Y130500D01*
X194500D01*
Y131665D01*
X199240D01*
X202610Y128295D01*
X202754Y127570D01*
X203281Y126781D01*
X204070Y126254D01*
X205000Y126069D01*
X205930Y126254D01*
X206719Y126781D01*
X207246Y127570D01*
X207431Y128500D01*
X207246Y129430D01*
X206719Y130219D01*
X205930Y130746D01*
X205205Y130890D01*
X201298Y134798D01*
X200702Y135196D01*
X200000Y135335D01*
X194500D01*
Y136500D01*
X192913D01*
Y170968D01*
X193413Y171067D01*
X193530Y170785D01*
X194075Y170075D01*
X194785Y169530D01*
X195612Y169187D01*
X196500Y169071D01*
X197388Y169187D01*
X198215Y169530D01*
X198925Y170075D01*
X199470Y170785D01*
X199812Y171612D01*
X199929Y172500D01*
X199812Y173388D01*
X199470Y174215D01*
X198925Y174925D01*
X198215Y175470D01*
X197388Y175812D01*
X196500Y175929D01*
X195612Y175812D01*
X194785Y175470D01*
X194075Y174925D01*
X193530Y174215D01*
X193413Y173933D01*
X192913Y174032D01*
Y182468D01*
X193413Y182567D01*
X193530Y182285D01*
X194075Y181575D01*
X194785Y181030D01*
X195612Y180687D01*
X196500Y180571D01*
X197388Y180687D01*
X198215Y181030D01*
X198925Y181575D01*
X199470Y182285D01*
X199812Y183112D01*
X199929Y184000D01*
X199812Y184888D01*
X199470Y185715D01*
X198925Y186425D01*
X198215Y186970D01*
X197388Y187312D01*
X196500Y187429D01*
X195612Y187312D01*
X194785Y186970D01*
X194075Y186425D01*
X193530Y185715D01*
X193413Y185433D01*
X192913Y185532D01*
Y236571D01*
X234652D01*
X234887Y236130D01*
X234754Y235930D01*
X234569Y235000D01*
X234754Y234070D01*
X235281Y233281D01*
X236070Y232754D01*
X237000Y232569D01*
X237930Y232754D01*
X238719Y233281D01*
X239246Y234070D01*
X239281Y234246D01*
X239759Y234391D01*
X245571Y228579D01*
Y212500D01*
X245688Y211612D01*
X246030Y210785D01*
X246575Y210075D01*
X251875Y204775D01*
X252585Y204230D01*
X253412Y203888D01*
X254300Y203771D01*
X266999D01*
X267334Y203334D01*
X268408Y202510D01*
X269658Y201992D01*
X271000Y201816D01*
X272342Y201992D01*
X273592Y202510D01*
X274666Y203334D01*
X275490Y204408D01*
X276008Y205658D01*
X276185Y207000D01*
X276008Y208342D01*
X275490Y209592D01*
X274666Y210666D01*
X273592Y211490D01*
X272342Y212008D01*
X271000Y212185D01*
X269658Y212008D01*
X268408Y211490D01*
X267334Y210666D01*
X267306Y210629D01*
X255720D01*
X252429Y213920D01*
Y230000D01*
X252312Y230888D01*
X251970Y231715D01*
X251425Y232425D01*
X241425Y242425D01*
X240715Y242970D01*
X239888Y243313D01*
X239000Y243429D01*
X192913D01*
Y246094D01*
X399638D01*
Y237676D01*
D02*
G37*
G36*
X272733Y71986D02*
X272685Y71488D01*
X272379Y71284D01*
X267504D01*
X261200Y77588D01*
X261219Y77781D01*
X261746Y78570D01*
X261931Y79500D01*
X261746Y80430D01*
X261219Y81219D01*
Y81447D01*
X261719Y81781D01*
X261988Y82184D01*
X262486Y82234D01*
X272733Y71986D01*
D02*
G37*
G36*
X361354Y36606D02*
X362115Y35615D01*
X363106Y34854D01*
X364261Y34376D01*
X365199Y34252D01*
Y33748D01*
X364261Y33624D01*
X363106Y33146D01*
X362115Y32385D01*
X361354Y31394D01*
X361102Y30784D01*
X328239D01*
X322270Y36754D01*
X322461Y37216D01*
X361102D01*
X361354Y36606D01*
D02*
G37*
%LPC*%
G36*
X382200Y235453D02*
X381182Y235318D01*
X380233Y234926D01*
X379418Y234300D01*
X378793Y233486D01*
X378400Y232537D01*
X378266Y231519D01*
Y231119D01*
X378400Y230101D01*
X378793Y229152D01*
X379418Y228337D01*
X380233Y227712D01*
X381182Y227319D01*
X382200Y227185D01*
X383218Y227319D01*
X384167Y227712D01*
X384981Y228337D01*
X385607Y229152D01*
X386000Y230101D01*
X386134Y231119D01*
Y231519D01*
X386000Y232537D01*
X385607Y233486D01*
X384981Y234300D01*
X384167Y234926D01*
X383218Y235318D01*
X382200Y235453D01*
D02*
G37*
G36*
X233000Y233429D02*
X232112Y233313D01*
X231285Y232970D01*
X230575Y232425D01*
X230030Y231715D01*
X229688Y230888D01*
X229571Y230000D01*
X229688Y229112D01*
X230030Y228285D01*
X230575Y227575D01*
X231285Y227030D01*
X232112Y226688D01*
X233000Y226571D01*
X233888Y226688D01*
X234715Y227030D01*
X235425Y227575D01*
X235970Y228285D01*
X236313Y229112D01*
X236429Y230000D01*
X236313Y230888D01*
X235970Y231715D01*
X235425Y232425D01*
X234715Y232970D01*
X233888Y233313D01*
X233000Y233429D01*
D02*
G37*
G36*
X345000Y243277D02*
X343236Y243138D01*
X341515Y242725D01*
X339880Y242048D01*
X338371Y241124D01*
X337026Y239974D01*
X335876Y238629D01*
X334952Y237120D01*
X334275Y235485D01*
X333862Y233764D01*
X333723Y232000D01*
X333862Y230236D01*
X334275Y228515D01*
X334952Y226880D01*
X335876Y225371D01*
X337026Y224026D01*
X338371Y222877D01*
X339880Y221952D01*
X341515Y221275D01*
X343236Y220862D01*
X345000Y220723D01*
X346764Y220862D01*
X348485Y221275D01*
X350120Y221952D01*
X351629Y222877D01*
X352974Y224026D01*
X354123Y225371D01*
X355048Y226880D01*
X355725Y228515D01*
X356138Y230236D01*
X356277Y232000D01*
X356138Y233764D01*
X355725Y235485D01*
X355048Y237120D01*
X354123Y238629D01*
X352974Y239974D01*
X351629Y241124D01*
X350120Y242048D01*
X348485Y242725D01*
X346764Y243138D01*
X345000Y243277D01*
D02*
G37*
G36*
X16000D02*
X14236Y243138D01*
X12515Y242725D01*
X10880Y242048D01*
X9371Y241124D01*
X8026Y239974D01*
X6876Y238629D01*
X5952Y237120D01*
X5275Y235485D01*
X4862Y233764D01*
X4723Y232000D01*
X4862Y230236D01*
X5275Y228515D01*
X5952Y226880D01*
X6876Y225371D01*
X8026Y224026D01*
X9371Y222877D01*
X10880Y221952D01*
X12515Y221275D01*
X14236Y220862D01*
X16000Y220723D01*
X17764Y220862D01*
X19485Y221275D01*
X21120Y221952D01*
X22629Y222877D01*
X23974Y224026D01*
X25124Y225371D01*
X26048Y226880D01*
X26725Y228515D01*
X27138Y230236D01*
X27277Y232000D01*
X27138Y233764D01*
X26725Y235485D01*
X26048Y237120D01*
X25124Y238629D01*
X23974Y239974D01*
X22629Y241124D01*
X21120Y242048D01*
X19485Y242725D01*
X17764Y243138D01*
X16000Y243277D01*
D02*
G37*
G36*
X265900Y221600D02*
X262400D01*
Y219200D01*
X265900D01*
Y221600D01*
D02*
G37*
G36*
X261600D02*
X258100D01*
Y219200D01*
X261600D01*
Y221600D01*
D02*
G37*
G36*
X265900Y218400D02*
X262400D01*
Y216000D01*
X265900D01*
Y218400D01*
D02*
G37*
G36*
X261600D02*
X258100D01*
Y216000D01*
X261600D01*
Y218400D01*
D02*
G37*
G36*
X285500Y219431D02*
X284570Y219246D01*
X283781Y218719D01*
X283254Y217930D01*
X283069Y217000D01*
X283254Y216070D01*
X283781Y215281D01*
X284570Y214754D01*
X285500Y214569D01*
X286430Y214754D01*
X287219Y215281D01*
X287746Y216070D01*
X287931Y217000D01*
X287746Y217930D01*
X287219Y218719D01*
X286430Y219246D01*
X285500Y219431D01*
D02*
G37*
G36*
X382200Y216358D02*
X381182Y216224D01*
X380233Y215831D01*
X379418Y215206D01*
X378793Y214391D01*
X378400Y213442D01*
X378266Y212424D01*
Y212024D01*
X378400Y211006D01*
X378793Y210058D01*
X379418Y209243D01*
X380233Y208618D01*
X381182Y208225D01*
X382200Y208091D01*
X383218Y208225D01*
X384167Y208618D01*
X384981Y209243D01*
X385607Y210058D01*
X386000Y211006D01*
X386134Y212024D01*
Y212424D01*
X386000Y213442D01*
X385607Y214391D01*
X384981Y215206D01*
X384167Y215831D01*
X383218Y216224D01*
X382200Y216358D01*
D02*
G37*
G36*
X325500Y206431D02*
X324570Y206246D01*
X323781Y205719D01*
X323254Y204930D01*
X323069Y204000D01*
X323254Y203070D01*
X323781Y202281D01*
X324570Y201754D01*
X325500Y201569D01*
X326430Y201754D01*
X327219Y202281D01*
X327746Y203070D01*
X327931Y204000D01*
X327746Y204930D01*
X327219Y205719D01*
X326430Y206246D01*
X325500Y206431D01*
D02*
G37*
G36*
X285500D02*
X284570Y206246D01*
X283781Y205719D01*
X283254Y204930D01*
X283069Y204000D01*
X283254Y203070D01*
X283781Y202281D01*
X284570Y201754D01*
X285500Y201569D01*
X286430Y201754D01*
X287219Y202281D01*
X287746Y203070D01*
X287931Y204000D01*
X287746Y204930D01*
X287219Y205719D01*
X286430Y206246D01*
X285500Y206431D01*
D02*
G37*
G36*
X277000Y200931D02*
X276070Y200746D01*
X275281Y200219D01*
X274754Y199430D01*
X274569Y198500D01*
X274754Y197570D01*
X275281Y196781D01*
X276070Y196254D01*
X277000Y196069D01*
X277930Y196254D01*
X278719Y196781D01*
X279246Y197570D01*
X279431Y198500D01*
X279246Y199430D01*
X278719Y200219D01*
X277930Y200746D01*
X277000Y200931D01*
D02*
G37*
G36*
X231000Y194931D02*
X230070Y194746D01*
X229281Y194219D01*
X229040Y193858D01*
X228500Y193929D01*
X227612Y193813D01*
X226785Y193470D01*
X226075Y192925D01*
X225530Y192215D01*
X225187Y191388D01*
X225071Y190500D01*
X225187Y189612D01*
X225530Y188785D01*
X226075Y188075D01*
X226785Y187530D01*
X227612Y187188D01*
X228500Y187071D01*
X229388Y187188D01*
X230215Y187530D01*
X230925Y188075D01*
X231470Y188785D01*
X231813Y189612D01*
X231896Y190247D01*
X231930Y190254D01*
X232719Y190781D01*
X233246Y191570D01*
X233431Y192500D01*
X233246Y193430D01*
X232719Y194219D01*
X231930Y194746D01*
X231000Y194931D01*
D02*
G37*
G36*
X238504Y194435D02*
X237574Y194250D01*
X236785Y193723D01*
X236258Y192934D01*
X236073Y192004D01*
X236258Y191074D01*
X236785Y190285D01*
X237574Y189758D01*
X238504Y189573D01*
X239434Y189758D01*
X240223Y190285D01*
X240750Y191074D01*
X240935Y192004D01*
X240750Y192934D01*
X240223Y193723D01*
X239434Y194250D01*
X238504Y194435D01*
D02*
G37*
G36*
X94500Y195429D02*
X93612Y195312D01*
X92785Y194970D01*
X92075Y194425D01*
X91530Y193715D01*
X91188Y192888D01*
X91071Y192000D01*
X91188Y191112D01*
X91530Y190285D01*
X92075Y189575D01*
X92689Y189104D01*
X92569Y188500D01*
X92754Y187570D01*
X93281Y186781D01*
X94070Y186254D01*
X95000Y186069D01*
X95930Y186254D01*
X96719Y186781D01*
X97246Y187570D01*
X97431Y188500D01*
X97246Y189430D01*
X97045Y189731D01*
X97470Y190285D01*
X97812Y191112D01*
X97929Y192000D01*
X97812Y192888D01*
X97470Y193715D01*
X96925Y194425D01*
X96215Y194970D01*
X95388Y195312D01*
X94500Y195429D01*
D02*
G37*
G36*
X142000Y193929D02*
X141112Y193813D01*
X140285Y193470D01*
X139575Y192925D01*
X139030Y192215D01*
X138688Y191388D01*
X138571Y190500D01*
X138688Y189612D01*
X139030Y188785D01*
X139575Y188075D01*
X139669Y188003D01*
X139569Y187500D01*
X139754Y186570D01*
X140281Y185781D01*
X141070Y185254D01*
X142000Y185069D01*
X142930Y185254D01*
X143719Y185781D01*
X144246Y186570D01*
X144431Y187500D01*
X144331Y188003D01*
X144425Y188075D01*
X144970Y188785D01*
X145312Y189612D01*
X145429Y190500D01*
X145312Y191388D01*
X144970Y192215D01*
X144425Y192925D01*
X143715Y193470D01*
X142888Y193813D01*
X142000Y193929D01*
D02*
G37*
G36*
X100000Y183931D02*
X99070Y183746D01*
X98281Y183219D01*
X97754Y182430D01*
X97569Y181500D01*
X97754Y180570D01*
X98281Y179781D01*
X99070Y179254D01*
X100000Y179069D01*
X100930Y179254D01*
X101719Y179781D01*
X102246Y180570D01*
X102431Y181500D01*
X102246Y182430D01*
X101719Y183219D01*
X100930Y183746D01*
X100000Y183931D01*
D02*
G37*
G36*
X51500D02*
X50570Y183746D01*
X49781Y183219D01*
X49254Y182430D01*
X49069Y181500D01*
X49254Y180570D01*
X49781Y179781D01*
X50570Y179254D01*
X51500Y179069D01*
X52430Y179254D01*
X53219Y179781D01*
X53746Y180570D01*
X53931Y181500D01*
X53746Y182430D01*
X53219Y183219D01*
X52430Y183746D01*
X51500Y183931D01*
D02*
G37*
G36*
X147500Y183431D02*
X146570Y183246D01*
X145781Y182719D01*
X145254Y181930D01*
X145069Y181000D01*
X145254Y180070D01*
X145781Y179281D01*
X146570Y178754D01*
X147500Y178569D01*
X148430Y178754D01*
X149219Y179281D01*
X149746Y180070D01*
X149931Y181000D01*
X149746Y181930D01*
X149219Y182719D01*
X148430Y183246D01*
X147500Y183431D01*
D02*
G37*
G36*
X40345Y196900D02*
X30655D01*
Y188100D01*
X31566D01*
Y186957D01*
X31553Y186947D01*
X30666Y185791D01*
X30109Y184445D01*
X29918Y183000D01*
X30109Y181555D01*
X30666Y180209D01*
X31553Y179053D01*
X32709Y178166D01*
X34055Y177609D01*
X35500Y177418D01*
X36945Y177609D01*
X38291Y178166D01*
X39447Y179053D01*
X40334Y180209D01*
X40891Y181555D01*
X41082Y183000D01*
X40891Y184445D01*
X40334Y185791D01*
X39447Y186947D01*
X39434Y186957D01*
Y188100D01*
X40345D01*
Y196900D01*
D02*
G37*
G36*
X167228Y177679D02*
X165973Y177555D01*
X164767Y177190D01*
X163655Y176595D01*
X162680Y175795D01*
X162445Y175509D01*
X161974Y175677D01*
Y175995D01*
X152481D01*
Y166502D01*
X160200D01*
X160407Y166002D01*
X152680Y158275D01*
X151881Y157301D01*
X151286Y156189D01*
X150920Y154982D01*
X150797Y153728D01*
Y149912D01*
X133720Y132835D01*
X132921Y131861D01*
X132326Y130749D01*
X131960Y129543D01*
X131837Y128288D01*
Y68398D01*
X131456Y67142D01*
X131323Y65787D01*
X131456Y64432D01*
X131851Y63130D01*
X132493Y61929D01*
X133357Y60876D01*
X134409Y60013D01*
X135610Y59371D01*
X136913Y58976D01*
X138268Y58842D01*
X139623Y58976D01*
X140926Y59371D01*
X142126Y60013D01*
X143179Y60876D01*
X143292Y61014D01*
X144536D01*
X147800Y57750D01*
Y55800D01*
X150382D01*
X150412Y55787D01*
X151077Y55700D01*
X151044Y55200D01*
X147800D01*
Y53737D01*
X147632Y53568D01*
X147167Y52962D01*
X146875Y52257D01*
X146775Y51500D01*
Y49300D01*
X146400D01*
Y40700D01*
X152800D01*
Y48600D01*
X156200D01*
Y49000D01*
X158141D01*
X158600Y48900D01*
X158600Y48500D01*
Y45400D01*
X161400D01*
X164200D01*
Y48900D01*
X163259D01*
X162800Y49000D01*
X162800Y49400D01*
Y51500D01*
X159000D01*
Y51900D01*
X158600D01*
Y54800D01*
X156512D01*
X156461Y54865D01*
X156288Y55171D01*
X156491Y55671D01*
X159000D01*
X159888Y55787D01*
X159918Y55800D01*
X163200D01*
Y62400D01*
X159918D01*
X159888Y62413D01*
X159000Y62529D01*
X152720D01*
X148381Y66868D01*
X147671Y67413D01*
X146844Y67756D01*
X145957Y67873D01*
X144858D01*
X144699Y68398D01*
Y81253D01*
X145199Y81404D01*
X145281Y81281D01*
X146070Y80754D01*
X147000Y80569D01*
X147930Y80754D01*
X148719Y81281D01*
X149246Y82070D01*
X149431Y83000D01*
X149246Y83930D01*
X148719Y84719D01*
X147930Y85246D01*
X147000Y85431D01*
X146070Y85246D01*
X145281Y84719D01*
X145199Y84596D01*
X144699Y84747D01*
Y125624D01*
X161775Y142701D01*
X162575Y143675D01*
X162937Y144353D01*
X163435Y144394D01*
X163842Y143863D01*
X164834Y143102D01*
X165989Y142624D01*
X167228Y142461D01*
X168467Y142624D01*
X169621Y143102D01*
X170613Y143863D01*
X171374Y144854D01*
X171852Y146009D01*
X171981Y146991D01*
X172481Y146958D01*
Y142502D01*
X181974D01*
Y151995D01*
X172481D01*
Y147538D01*
X171981Y147505D01*
X171852Y148487D01*
X171374Y149642D01*
X170613Y150633D01*
X169621Y151394D01*
X168467Y151872D01*
X167228Y152035D01*
X165989Y151872D01*
X164834Y151394D01*
X164241Y150939D01*
X163910Y151315D01*
X171775Y159180D01*
X172575Y160155D01*
X173169Y161267D01*
X173535Y162473D01*
X173659Y163728D01*
Y167374D01*
X174159Y167620D01*
X174834Y167102D01*
X175989Y166624D01*
X177228Y166461D01*
X178467Y166624D01*
X179621Y167102D01*
X180613Y167863D01*
X181374Y168854D01*
X181852Y170009D01*
X182015Y171248D01*
X181852Y172487D01*
X181374Y173642D01*
X180613Y174633D01*
X179621Y175394D01*
X178467Y175872D01*
X177228Y176035D01*
X175989Y175872D01*
X174834Y175394D01*
X173843Y174633D01*
X173435Y174103D01*
X172937Y174143D01*
X172575Y174821D01*
X171775Y175795D01*
X170801Y176595D01*
X169689Y177190D01*
X168482Y177555D01*
X167228Y177679D01*
D02*
G37*
G36*
X119478D02*
X118223Y177555D01*
X117017Y177190D01*
X115905Y176595D01*
X114930Y175795D01*
X114695Y175509D01*
X114224Y175677D01*
Y175995D01*
X104731D01*
Y166502D01*
X112253D01*
X112445Y166040D01*
X104931Y158526D01*
X104131Y157551D01*
X103537Y156439D01*
X103171Y155233D01*
X103047Y153978D01*
Y147248D01*
Y129364D01*
X102606Y129128D01*
X102430Y129246D01*
X101500Y129431D01*
X100931Y129318D01*
X100431Y129709D01*
Y154000D01*
X100307Y155255D01*
X99941Y156461D01*
X99347Y157573D01*
X98547Y158547D01*
X93047Y164047D01*
X92073Y164847D01*
X90961Y165441D01*
X89755Y165807D01*
X88500Y165931D01*
X78159D01*
Y167374D01*
X78659Y167620D01*
X79334Y167102D01*
X80489Y166624D01*
X81728Y166461D01*
X82967Y166624D01*
X84121Y167102D01*
X85113Y167863D01*
X85874Y168854D01*
X86352Y170009D01*
X86515Y171248D01*
X86352Y172487D01*
X85874Y173642D01*
X85113Y174633D01*
X84121Y175394D01*
X82967Y175872D01*
X81728Y176035D01*
X80489Y175872D01*
X79334Y175394D01*
X78342Y174633D01*
X77935Y174103D01*
X77437Y174143D01*
X77075Y174821D01*
X76275Y175795D01*
X75301Y176595D01*
X74189Y177190D01*
X72982Y177555D01*
X71728Y177679D01*
X70473Y177555D01*
X69267Y177190D01*
X68155Y176595D01*
X67180Y175795D01*
X66945Y175509D01*
X66474Y175677D01*
Y175995D01*
X56981D01*
Y166502D01*
X64700D01*
X64907Y166002D01*
X62953Y164047D01*
X62953Y164047D01*
X57234Y158329D01*
X56434Y157354D01*
X55840Y156242D01*
X55474Y155036D01*
X55350Y153781D01*
Y147792D01*
X55297Y147248D01*
X55420Y145993D01*
X55786Y144787D01*
X56381Y143675D01*
X57180Y142701D01*
X58155Y141901D01*
X59267Y141307D01*
X60473Y140941D01*
X61728Y140817D01*
X61781D01*
X63036Y140941D01*
X64242Y141307D01*
X65354Y141901D01*
X65829Y142291D01*
X66281Y142077D01*
Y93772D01*
X66467Y92363D01*
X67011Y91049D01*
X67876Y89921D01*
X86053Y71744D01*
Y69652D01*
X85725Y69252D01*
X85083Y68051D01*
X84688Y66749D01*
X84555Y65394D01*
X84688Y64039D01*
X85083Y62736D01*
X85725Y61535D01*
X86589Y60483D01*
X87641Y59619D01*
X88842Y58977D01*
X90145Y58582D01*
X91500Y58448D01*
X92855Y58582D01*
X94158Y58977D01*
X95359Y59619D01*
X96411Y60483D01*
X97275Y61535D01*
X97917Y62736D01*
X98312Y64039D01*
X98445Y65394D01*
X98312Y66749D01*
X97917Y68051D01*
X97275Y69252D01*
X96947Y69652D01*
Y74000D01*
X96761Y75410D01*
X96217Y76723D01*
X95351Y77851D01*
X77174Y96028D01*
Y142502D01*
X86474D01*
X86474Y151607D01*
Y151612D01*
Y151612D01*
X86474Y151724D01*
X86666Y151803D01*
X86974Y151931D01*
X87569Y151336D01*
Y96500D01*
X87693Y95245D01*
X88059Y94039D01*
X88653Y92927D01*
X89453Y91953D01*
X100069Y81336D01*
Y59366D01*
X100193Y58112D01*
X100559Y56905D01*
X101153Y55793D01*
X101953Y54819D01*
X115339Y41432D01*
X115957Y40275D01*
X116821Y39223D01*
X116828Y39078D01*
X115279Y37529D01*
X109000D01*
X108112Y37413D01*
X108082Y37400D01*
X104800D01*
Y30800D01*
X108082D01*
X108112Y30788D01*
X108777Y30700D01*
X108744Y30200D01*
X104800D01*
Y26690D01*
X104775Y26500D01*
Y24300D01*
X103400D01*
Y15700D01*
X109800D01*
Y20173D01*
X110233Y20738D01*
X110525Y21443D01*
X110625Y22200D01*
Y23600D01*
X113200D01*
Y24000D01*
X115141D01*
X115600Y23900D01*
X115600Y23500D01*
Y20400D01*
X118400D01*
X121200D01*
Y23900D01*
X120259D01*
X119800Y24000D01*
X119800Y24400D01*
Y26500D01*
X116000D01*
Y26900D01*
X115600D01*
Y29800D01*
X113512D01*
X113461Y29866D01*
X113288Y30171D01*
X113491Y30671D01*
X116700D01*
X117588Y30788D01*
X117618Y30800D01*
X120200D01*
Y32750D01*
X122813Y35364D01*
X123358Y36074D01*
X123701Y36901D01*
X123784Y37534D01*
X124390Y37717D01*
X125591Y38359D01*
X126643Y39223D01*
X127507Y40275D01*
X128149Y41476D01*
X128544Y42779D01*
X128677Y44134D01*
X128544Y45489D01*
X128149Y46792D01*
X127507Y47992D01*
X126643Y49045D01*
X125591Y49909D01*
X124434Y50527D01*
X112931Y62030D01*
Y84000D01*
X112807Y85255D01*
X112441Y86461D01*
X111847Y87573D01*
X111047Y88547D01*
X100431Y99164D01*
Y124291D01*
X100931Y124682D01*
X101500Y124569D01*
X102430Y124754D01*
X102606Y124872D01*
X103047Y124636D01*
Y105522D01*
X103171Y104267D01*
X103537Y103061D01*
X104131Y101949D01*
X104931Y100975D01*
X115301Y90604D01*
Y68398D01*
X114920Y67142D01*
X114787Y65787D01*
X114920Y64432D01*
X115316Y63130D01*
X115957Y61929D01*
X116821Y60876D01*
X117874Y60013D01*
X119074Y59371D01*
X120377Y58976D01*
X121732Y58842D01*
X123087Y58976D01*
X124390Y59371D01*
X125591Y60013D01*
X126643Y60876D01*
X127507Y61929D01*
X128149Y63130D01*
X128544Y64432D01*
X128677Y65787D01*
X128544Y67142D01*
X128163Y68398D01*
Y93268D01*
X128040Y94522D01*
X127674Y95729D01*
X127079Y96841D01*
X126280Y97815D01*
X115909Y108186D01*
Y143374D01*
X116409Y143620D01*
X117084Y143102D01*
X118239Y142624D01*
X119478Y142461D01*
X120717Y142624D01*
X121872Y143102D01*
X122863Y143863D01*
X123624Y144854D01*
X124102Y146009D01*
X124232Y146991D01*
X124732Y146958D01*
Y142502D01*
X134224D01*
Y151995D01*
X124732D01*
Y147538D01*
X124232Y147505D01*
X124102Y148487D01*
X123624Y149642D01*
X122863Y150633D01*
X121872Y151394D01*
X120717Y151872D01*
X119478Y152035D01*
X118239Y151872D01*
X117084Y151394D01*
X116729Y151121D01*
X116189Y151337D01*
X116154Y151559D01*
X124025Y159430D01*
X124825Y160405D01*
X125419Y161517D01*
X125785Y162723D01*
X125909Y163978D01*
Y167374D01*
X126409Y167620D01*
X127084Y167102D01*
X128239Y166624D01*
X129478Y166461D01*
X130717Y166624D01*
X131871Y167102D01*
X132863Y167863D01*
X133624Y168854D01*
X134102Y170009D01*
X134265Y171248D01*
X134102Y172487D01*
X133624Y173642D01*
X132863Y174633D01*
X131871Y175394D01*
X130717Y175872D01*
X129478Y176035D01*
X128239Y175872D01*
X127084Y175394D01*
X126093Y174633D01*
X125685Y174103D01*
X125187Y174143D01*
X124825Y174821D01*
X124025Y175795D01*
X123051Y176595D01*
X121939Y177190D01*
X120732Y177555D01*
X119478Y177679D01*
D02*
G37*
G36*
X23449Y176100D02*
X21749D01*
Y174400D01*
X23449D01*
Y176100D01*
D02*
G37*
G36*
X25949D02*
X24250D01*
Y174400D01*
X25949D01*
Y176100D01*
D02*
G37*
G36*
X44500Y181431D02*
X43570Y181246D01*
X42781Y180719D01*
X42254Y179930D01*
X42146Y179385D01*
X34925Y172164D01*
X32849Y174240D01*
Y176500D01*
X27850D01*
Y176100D01*
X26750D01*
Y174000D01*
Y171900D01*
X27850D01*
Y171500D01*
X30110D01*
X31739Y169871D01*
Y169665D01*
X31776Y169478D01*
Y164927D01*
X37923D01*
Y169683D01*
X44885Y176646D01*
X45430Y176754D01*
X46219Y177281D01*
X46746Y178070D01*
X46931Y179000D01*
X46746Y179930D01*
X46219Y180719D01*
X45430Y181246D01*
X44500Y181431D01*
D02*
G37*
G36*
X240000Y176931D02*
X239070Y176746D01*
X238281Y176219D01*
X237754Y175430D01*
X237569Y174500D01*
X237754Y173570D01*
X238281Y172781D01*
X239070Y172254D01*
X240000Y172069D01*
X240930Y172254D01*
X241719Y172781D01*
X242246Y173570D01*
X242431Y174500D01*
X242246Y175430D01*
X241719Y176219D01*
X240930Y176746D01*
X240000Y176931D01*
D02*
G37*
G36*
X196500Y167931D02*
X195570Y167746D01*
X194781Y167219D01*
X194254Y166430D01*
X194069Y165500D01*
X194254Y164570D01*
X194781Y163781D01*
X195570Y163254D01*
X196500Y163069D01*
X197430Y163254D01*
X198219Y163781D01*
X198746Y164570D01*
X198931Y165500D01*
X198746Y166430D01*
X198219Y167219D01*
X197430Y167746D01*
X196500Y167931D01*
D02*
G37*
G36*
X16350Y176500D02*
Y176500D01*
X11349D01*
Y171500D01*
Y168558D01*
X11036D01*
Y161427D01*
X17183D01*
Y168558D01*
X16350D01*
Y171189D01*
X16805Y171608D01*
X17000Y171569D01*
X17930Y171754D01*
X18350Y172034D01*
X18849Y171767D01*
Y168558D01*
X18516D01*
Y161427D01*
X24663D01*
Y168558D01*
X23850D01*
Y171659D01*
X24250Y171900D01*
X24350Y171900D01*
X25949D01*
Y173600D01*
X24250D01*
Y172912D01*
X23803Y172612D01*
X23687Y172652D01*
X23449Y172876D01*
Y173600D01*
X21350D01*
Y174000D01*
X20949D01*
Y176100D01*
X19250D01*
Y175825D01*
X18749Y175673D01*
X18719Y175719D01*
X17930Y176246D01*
X17000Y176431D01*
X16544Y176340D01*
X16350Y176500D01*
D02*
G37*
G36*
X185500Y164431D02*
X184570Y164246D01*
X183781Y163719D01*
X183254Y162930D01*
X183069Y162000D01*
X183254Y161070D01*
X183781Y160281D01*
X184570Y159754D01*
X185500Y159569D01*
X186430Y159754D01*
X187219Y160281D01*
X187746Y161070D01*
X187931Y162000D01*
X187746Y162930D01*
X187219Y163719D01*
X186430Y164246D01*
X185500Y164431D01*
D02*
G37*
G36*
X288165Y147431D02*
X287235Y147246D01*
X286446Y146719D01*
X285919Y145930D01*
X285734Y145000D01*
X285919Y144070D01*
X286446Y143281D01*
X287235Y142754D01*
X288165Y142569D01*
X289095Y142754D01*
X289557Y143063D01*
X300079D01*
X307146Y135997D01*
X307254Y135452D01*
X307781Y134663D01*
X308570Y134136D01*
X309500Y133951D01*
X310430Y134136D01*
X311219Y134663D01*
X311746Y135452D01*
X311931Y136382D01*
X311746Y137312D01*
X311219Y138101D01*
X310430Y138628D01*
X309885Y138736D01*
X302252Y146370D01*
X301623Y146790D01*
X300882Y146937D01*
X289557D01*
X289095Y147246D01*
X288165Y147431D01*
D02*
G37*
G36*
X54000Y133431D02*
X53070Y133246D01*
X52281Y132719D01*
X51754Y131930D01*
X51569Y131000D01*
X51754Y130070D01*
X52281Y129281D01*
X53070Y128754D01*
X54000Y128569D01*
X54930Y128754D01*
X55719Y129281D01*
X56246Y130070D01*
X56431Y131000D01*
X56246Y131930D01*
X55719Y132719D01*
X54930Y133246D01*
X54000Y133431D01*
D02*
G37*
G36*
X240000Y130931D02*
X239070Y130746D01*
X238281Y130219D01*
X237754Y129430D01*
X237569Y128500D01*
X237754Y127570D01*
X238281Y126781D01*
X239070Y126254D01*
X240000Y126069D01*
X240930Y126254D01*
X241719Y126781D01*
X242246Y127570D01*
X242431Y128500D01*
X242246Y129430D01*
X241719Y130219D01*
X240930Y130746D01*
X240000Y130931D01*
D02*
G37*
G36*
X179500Y127931D02*
X178570Y127746D01*
X177781Y127219D01*
X177254Y126430D01*
X177069Y125500D01*
X177254Y124570D01*
X177781Y123781D01*
X178570Y123254D01*
X179500Y123069D01*
X180430Y123254D01*
X181219Y123781D01*
X181746Y124570D01*
X181931Y125500D01*
X181746Y126430D01*
X181219Y127219D01*
X180430Y127746D01*
X179500Y127931D01*
D02*
G37*
G36*
X276500Y126931D02*
X275570Y126746D01*
X274781Y126219D01*
X274254Y125430D01*
X274069Y124500D01*
X274254Y123570D01*
X274781Y122781D01*
X275570Y122254D01*
X276500Y122069D01*
X277201Y122208D01*
X286884D01*
X287210Y121708D01*
X287069Y121000D01*
X287254Y120070D01*
X287781Y119281D01*
X288570Y118754D01*
X289500Y118569D01*
X290430Y118754D01*
X291219Y119281D01*
X291746Y120070D01*
X291931Y121000D01*
X291790Y121708D01*
X292116Y122208D01*
X296145D01*
X296220Y122114D01*
X296115Y121442D01*
X295781Y121219D01*
X295254Y120430D01*
X295069Y119500D01*
X295254Y118570D01*
X295781Y117781D01*
X296570Y117254D01*
X297500Y117069D01*
X298430Y117254D01*
X299045Y117665D01*
X312455D01*
X313070Y117254D01*
X314000Y117069D01*
X314930Y117254D01*
X315719Y117781D01*
X316246Y118570D01*
X316431Y119500D01*
X316246Y120430D01*
X315719Y121219D01*
X315587Y121307D01*
X315630Y121880D01*
X316219Y122274D01*
X316746Y123062D01*
X316931Y123993D01*
X316746Y124923D01*
X316219Y125712D01*
X315430Y126239D01*
X314500Y126424D01*
X313570Y126239D01*
X312879Y125777D01*
X278514D01*
X278219Y126219D01*
X277430Y126746D01*
X276500Y126931D01*
D02*
G37*
G36*
X370500Y116945D02*
X366900D01*
Y112900D01*
X370500D01*
Y116945D01*
D02*
G37*
G36*
X366100D02*
X362500D01*
Y112900D01*
X366100D01*
Y116945D01*
D02*
G37*
G36*
X160000Y117431D02*
X159070Y117246D01*
X158281Y116719D01*
X157754Y115930D01*
X157569Y115000D01*
X157754Y114070D01*
X158281Y113281D01*
X159070Y112754D01*
X160000Y112569D01*
X160930Y112754D01*
X161719Y113281D01*
X162246Y114070D01*
X162431Y115000D01*
X162246Y115930D01*
X161719Y116719D01*
X160930Y117246D01*
X160000Y117431D01*
D02*
G37*
G36*
X370500Y112100D02*
X366900D01*
Y108055D01*
X370500D01*
Y112100D01*
D02*
G37*
G36*
X366100D02*
X362500D01*
Y108055D01*
X366100D01*
Y112100D01*
D02*
G37*
G36*
X319500Y158082D02*
X318055Y157891D01*
X316709Y157334D01*
X315553Y156447D01*
X314666Y155291D01*
X314109Y153945D01*
X313918Y152500D01*
X314109Y151055D01*
X314666Y149709D01*
X315553Y148553D01*
X316709Y147666D01*
X318055Y147109D01*
X319500Y146918D01*
X320945Y147109D01*
X322291Y147666D01*
X323447Y148553D01*
X323728Y148919D01*
X325620D01*
X344770Y129770D01*
X344820Y129736D01*
X344854Y129685D01*
X354053Y120486D01*
Y109000D01*
X354239Y108064D01*
X354770Y107270D01*
X355564Y106739D01*
X356500Y106553D01*
X357436Y106739D01*
X358230Y107270D01*
X358761Y108064D01*
X358947Y109000D01*
Y121500D01*
X358761Y122436D01*
X358230Y123230D01*
X348484Y132976D01*
X348314Y133230D01*
X348061Y133400D01*
X328364Y153096D01*
X327570Y153627D01*
X326634Y153813D01*
X324909D01*
X324891Y153945D01*
X324334Y155291D01*
X323447Y156447D01*
X322291Y157334D01*
X320945Y157891D01*
X319500Y158082D01*
D02*
G37*
G36*
X160000Y94931D02*
X159070Y94746D01*
X158281Y94219D01*
X157754Y93430D01*
X157569Y92500D01*
X157754Y91570D01*
X158281Y90781D01*
X159070Y90254D01*
X160000Y90069D01*
X160930Y90254D01*
X161719Y90781D01*
X162246Y91570D01*
X162431Y92500D01*
X162246Y93430D01*
X161719Y94219D01*
X160930Y94746D01*
X160000Y94931D01*
D02*
G37*
G36*
X308000Y91931D02*
X307070Y91746D01*
X306281Y91219D01*
X305754Y90430D01*
X305569Y89500D01*
X305754Y88570D01*
X306281Y87781D01*
X307070Y87254D01*
X308000Y87069D01*
X308930Y87254D01*
X309719Y87781D01*
X310246Y88570D01*
X310431Y89500D01*
X310246Y90430D01*
X309719Y91219D01*
X308930Y91746D01*
X308000Y91931D01*
D02*
G37*
G36*
X370000Y79945D02*
X366400D01*
Y75900D01*
X370000D01*
Y79945D01*
D02*
G37*
G36*
X365600D02*
X362000D01*
Y75900D01*
X365600D01*
Y79945D01*
D02*
G37*
G36*
X326900Y76700D02*
X323400D01*
Y74300D01*
X326900D01*
Y76700D01*
D02*
G37*
G36*
X322600D02*
X319100D01*
Y74300D01*
X322600D01*
Y76700D01*
D02*
G37*
G36*
X326900Y73500D02*
X323400D01*
Y71100D01*
X326900D01*
Y73500D01*
D02*
G37*
G36*
X322600D02*
X319100D01*
Y71100D01*
X322600D01*
Y73500D01*
D02*
G37*
G36*
X370000Y75100D02*
X366400D01*
Y71055D01*
X370000D01*
Y75100D01*
D02*
G37*
G36*
X365600D02*
X362000D01*
Y71055D01*
X365600D01*
Y75100D01*
D02*
G37*
G36*
X205100Y72226D02*
X201520D01*
X201596Y71647D01*
X201974Y70735D01*
X202575Y69951D01*
X203359Y69350D01*
X204271Y68972D01*
X205100Y68863D01*
Y72226D01*
D02*
G37*
G36*
X209480D02*
X205900D01*
Y68863D01*
X206729Y68972D01*
X207641Y69350D01*
X208424Y69951D01*
X209026Y70735D01*
X209403Y71647D01*
X209480Y72226D01*
D02*
G37*
G36*
X308000Y73431D02*
X307070Y73246D01*
X306281Y72719D01*
X305754Y71930D01*
X305569Y71000D01*
X305754Y70070D01*
X306281Y69281D01*
X307070Y68754D01*
X308000Y68569D01*
X308930Y68754D01*
X309719Y69281D01*
X310246Y70070D01*
X310431Y71000D01*
X310246Y71930D01*
X309719Y72719D01*
X308930Y73246D01*
X308000Y73431D01*
D02*
G37*
G36*
X345000Y71277D02*
X343236Y71138D01*
X341515Y70725D01*
X339880Y70048D01*
X338371Y69124D01*
X337026Y67974D01*
X335876Y66629D01*
X335016Y65225D01*
X327300D01*
Y65300D01*
X318700D01*
Y58900D01*
X327300D01*
Y59375D01*
X333772D01*
X333862Y58236D01*
X334275Y56515D01*
X334952Y54880D01*
X335876Y53371D01*
X337026Y52026D01*
X338371Y50876D01*
X339880Y49952D01*
X341515Y49275D01*
X343236Y48862D01*
X345000Y48723D01*
X346764Y48862D01*
X348485Y49275D01*
X350120Y49952D01*
X351629Y50876D01*
X352974Y52026D01*
X354123Y53371D01*
X355048Y54880D01*
X355725Y56515D01*
X356138Y58236D01*
X356277Y60000D01*
X356138Y61764D01*
X355725Y63485D01*
X355048Y65120D01*
X354123Y66629D01*
X352974Y67974D01*
X351629Y69124D01*
X350120Y70048D01*
X348485Y70725D01*
X346764Y71138D01*
X345000Y71277D01*
D02*
G37*
G36*
X238500Y63431D02*
X237570Y63246D01*
X236781Y62719D01*
X236254Y61930D01*
X236069Y61000D01*
X236254Y60070D01*
X236781Y59281D01*
X237570Y58754D01*
X238500Y58569D01*
X239430Y58754D01*
X240219Y59281D01*
X240746Y60070D01*
X240931Y61000D01*
X240746Y61930D01*
X240219Y62719D01*
X239430Y63246D01*
X238500Y63431D01*
D02*
G37*
G36*
X199788D02*
X198858Y63246D01*
X198069Y62719D01*
X197542Y61930D01*
X197357Y61000D01*
X197542Y60070D01*
X198069Y59281D01*
X198858Y58754D01*
X199788Y58569D01*
X200718Y58754D01*
X201507Y59281D01*
X202034Y60070D01*
X202219Y61000D01*
X202034Y61930D01*
X201507Y62719D01*
X200718Y63246D01*
X199788Y63431D01*
D02*
G37*
G36*
X162800Y54800D02*
X159400D01*
Y52300D01*
X162800D01*
Y54800D01*
D02*
G37*
G36*
X270900Y56031D02*
X269970Y55846D01*
X269181Y55319D01*
X268654Y54530D01*
X268469Y53600D01*
X268654Y52670D01*
X269181Y51881D01*
X269970Y51354D01*
X270900Y51169D01*
X271830Y51354D01*
X272619Y51881D01*
X273146Y52670D01*
X273331Y53600D01*
X273146Y54530D01*
X272619Y55319D01*
X271830Y55846D01*
X270900Y56031D01*
D02*
G37*
G36*
X395100Y53331D02*
X394365Y53235D01*
X393308Y52797D01*
X392400Y52100D01*
X391703Y51192D01*
X391265Y50135D01*
X391169Y49400D01*
X395100D01*
Y53331D01*
D02*
G37*
G36*
X57406Y49772D02*
X50900D01*
Y46042D01*
X57406D01*
Y49772D01*
D02*
G37*
G36*
X50100D02*
X43595D01*
Y46042D01*
X50100D01*
Y49772D01*
D02*
G37*
G36*
X220500Y50442D02*
X219570Y50257D01*
X218781Y49730D01*
X218254Y48941D01*
X218069Y48011D01*
X218254Y47081D01*
X218781Y46292D01*
X219570Y45765D01*
X220500Y45580D01*
X221430Y45765D01*
X222219Y46292D01*
X222746Y47081D01*
X222931Y48011D01*
X222746Y48941D01*
X222219Y49730D01*
X221430Y50257D01*
X220500Y50442D01*
D02*
G37*
G36*
X395100Y48600D02*
X391169D01*
X391265Y47865D01*
X391703Y46808D01*
X392400Y45900D01*
X393308Y45203D01*
X394365Y44765D01*
X395100Y44669D01*
Y48600D01*
D02*
G37*
G36*
X66900Y50244D02*
Y44140D01*
X73004D01*
X72918Y45017D01*
X72545Y46244D01*
X71941Y47375D01*
X71127Y48367D01*
X70135Y49181D01*
X69004Y49785D01*
X67777Y50158D01*
X66900Y50244D01*
D02*
G37*
G36*
X66100D02*
X65223Y50158D01*
X63996Y49785D01*
X62865Y49181D01*
X61873Y48367D01*
X61059Y47375D01*
X60455Y46244D01*
X60082Y45017D01*
X59996Y44140D01*
X66100D01*
Y50244D01*
D02*
G37*
G36*
X231000Y50442D02*
X230070Y50257D01*
X229281Y49730D01*
X228754Y48941D01*
X228569Y48011D01*
X228754Y47081D01*
X229281Y46292D01*
X229328Y46261D01*
Y45761D01*
X229281Y45730D01*
X228754Y44941D01*
X228569Y44011D01*
X228754Y43081D01*
X229281Y42292D01*
X230070Y41765D01*
X231000Y41580D01*
X231930Y41765D01*
X232719Y42292D01*
X233246Y43081D01*
X233431Y44011D01*
X233246Y44941D01*
X232719Y45730D01*
X232673Y45761D01*
Y46261D01*
X232719Y46292D01*
X233246Y47081D01*
X233431Y48011D01*
X233246Y48941D01*
X232719Y49730D01*
X231930Y50257D01*
X231000Y50442D01*
D02*
G37*
G36*
X212000Y46442D02*
X211070Y46257D01*
X210281Y45730D01*
X209754Y44941D01*
X209569Y44011D01*
X209754Y43081D01*
X210281Y42292D01*
X211070Y41765D01*
X212000Y41580D01*
X212930Y41765D01*
X213719Y42292D01*
X214246Y43081D01*
X214431Y44011D01*
X214246Y44941D01*
X213719Y45730D01*
X212930Y46257D01*
X212000Y46442D01*
D02*
G37*
G36*
X57406Y45242D02*
X50900D01*
Y41512D01*
X57406D01*
Y45242D01*
D02*
G37*
G36*
X50100D02*
X43595D01*
Y41512D01*
X50100D01*
Y45242D01*
D02*
G37*
G36*
X164200Y44600D02*
X161800D01*
Y41100D01*
X164200D01*
Y44600D01*
D02*
G37*
G36*
X161000D02*
X158600D01*
Y41100D01*
X161000D01*
Y44600D01*
D02*
G37*
G36*
X395100Y43331D02*
X394365Y43235D01*
X393308Y42797D01*
X392400Y42100D01*
X391703Y41192D01*
X391265Y40135D01*
X391169Y39400D01*
X395100D01*
Y43331D01*
D02*
G37*
G36*
X251500Y43387D02*
X250570Y43202D01*
X249781Y42675D01*
X249254Y41887D01*
X249069Y40956D01*
X249254Y40026D01*
X249781Y39237D01*
X250570Y38710D01*
X251500Y38525D01*
X252430Y38710D01*
X253219Y39237D01*
X253746Y40026D01*
X253931Y40956D01*
X253746Y41887D01*
X253219Y42675D01*
X252430Y43202D01*
X251500Y43387D01*
D02*
G37*
G36*
X73004Y43340D02*
X66900D01*
Y37236D01*
X67777Y37323D01*
X69004Y37695D01*
X70135Y38300D01*
X71127Y39113D01*
X71941Y40105D01*
X72545Y41236D01*
X72918Y42464D01*
X73004Y43340D01*
D02*
G37*
G36*
X66100D02*
X59996D01*
X60082Y42464D01*
X60455Y41236D01*
X61059Y40105D01*
X61873Y39113D01*
X62865Y38300D01*
X63996Y37695D01*
X65223Y37323D01*
X66100Y37236D01*
Y43340D01*
D02*
G37*
G36*
X138268Y51079D02*
X136913Y50946D01*
X135610Y50550D01*
X134409Y49909D01*
X133357Y49045D01*
X132493Y47992D01*
X131851Y46792D01*
X131456Y45489D01*
X131323Y44134D01*
X131456Y42779D01*
X131851Y41476D01*
X132493Y40275D01*
X133357Y39223D01*
X134409Y38359D01*
X135610Y37717D01*
X136913Y37322D01*
X138268Y37189D01*
X139623Y37322D01*
X140926Y37717D01*
X142126Y38359D01*
X143179Y39223D01*
X144043Y40275D01*
X144684Y41476D01*
X145080Y42779D01*
X145213Y44134D01*
X145080Y45489D01*
X144684Y46792D01*
X144043Y47992D01*
X143179Y49045D01*
X142126Y49909D01*
X140926Y50550D01*
X139623Y50946D01*
X138268Y51079D01*
D02*
G37*
G36*
X91500Y50685D02*
X90145Y50552D01*
X88842Y50157D01*
X87641Y49515D01*
X86589Y48651D01*
X85725Y47599D01*
X85083Y46398D01*
X84688Y45095D01*
X84555Y43740D01*
X84688Y42385D01*
X85083Y41082D01*
X85725Y39882D01*
X86589Y38829D01*
X87641Y37965D01*
X88842Y37324D01*
X90145Y36928D01*
X91500Y36795D01*
X92855Y36928D01*
X94158Y37324D01*
X95359Y37965D01*
X96411Y38829D01*
X97275Y39882D01*
X97917Y41082D01*
X98312Y42385D01*
X98445Y43740D01*
X98312Y45095D01*
X97917Y46398D01*
X97275Y47599D01*
X96411Y48651D01*
X95359Y49515D01*
X94158Y50157D01*
X92855Y50552D01*
X91500Y50685D01*
D02*
G37*
G36*
X395100Y38600D02*
X391169D01*
X391265Y37865D01*
X391703Y36808D01*
X392400Y35900D01*
X393308Y35203D01*
X394365Y34765D01*
X395100Y34669D01*
Y38600D01*
D02*
G37*
G36*
X43500Y114927D02*
X28000D01*
X27454Y114819D01*
X26991Y114509D01*
X26681Y114046D01*
X26573Y113500D01*
Y48000D01*
X26681Y47454D01*
X26991Y46991D01*
X27454Y46681D01*
X28000Y46573D01*
X33516D01*
Y40380D01*
X33466Y40000D01*
X33600Y38982D01*
X33993Y38033D01*
X34200Y37764D01*
Y35700D01*
X34600D01*
Y32400D01*
X37400D01*
X40200D01*
Y35700D01*
X40600D01*
Y37749D01*
X40857Y38083D01*
X41250Y39032D01*
X41384Y40050D01*
Y48365D01*
X46009Y52991D01*
X46319Y53454D01*
X46427Y54000D01*
X46427Y54000D01*
Y56073D01*
X73000D01*
X73546Y56181D01*
X74009Y56491D01*
X74319Y56954D01*
X74427Y57500D01*
Y74000D01*
X74319Y74546D01*
X74009Y75009D01*
X73546Y75319D01*
X73000Y75427D01*
X44927D01*
Y113500D01*
X44819Y114046D01*
X44509Y114509D01*
X44046Y114819D01*
X43500Y114927D01*
D02*
G37*
G36*
X395100Y33331D02*
X394365Y33235D01*
X393308Y32797D01*
X392400Y32100D01*
X391703Y31192D01*
X391265Y30135D01*
X391169Y29400D01*
X395100D01*
Y33331D01*
D02*
G37*
G36*
X40200Y31600D02*
X37800D01*
Y28100D01*
X40200D01*
Y31600D01*
D02*
G37*
G36*
X37000D02*
X34600D01*
Y28100D01*
X37000D01*
Y31600D01*
D02*
G37*
G36*
X119800Y29800D02*
X116400D01*
Y27300D01*
X119800D01*
Y29800D01*
D02*
G37*
G36*
X28800Y44300D02*
X22400D01*
Y35700D01*
Y31837D01*
X17706Y27143D01*
X16000Y27277D01*
X14236Y27138D01*
X12515Y26725D01*
X10880Y26048D01*
X9371Y25124D01*
X8026Y23974D01*
X6876Y22629D01*
X5952Y21120D01*
X5275Y19485D01*
X4862Y17764D01*
X4723Y16000D01*
X4862Y14236D01*
X5275Y12515D01*
X5952Y10880D01*
X6876Y9371D01*
X8026Y8026D01*
X9371Y6876D01*
X10880Y5952D01*
X12515Y5275D01*
X14236Y4862D01*
X16000Y4723D01*
X17764Y4862D01*
X19485Y5275D01*
X21120Y5952D01*
X22629Y6876D01*
X23974Y8026D01*
X25124Y9371D01*
X26048Y10880D01*
X26725Y12515D01*
X27138Y14236D01*
X27277Y16000D01*
X27138Y17764D01*
X26725Y19485D01*
X26048Y21120D01*
X25124Y22629D01*
X23974Y23974D01*
X23627Y24271D01*
X23607Y24771D01*
X26537Y27700D01*
X28800D01*
Y35700D01*
Y44300D01*
D02*
G37*
G36*
X395100Y28600D02*
X391169D01*
X391265Y27865D01*
X391703Y26808D01*
X392400Y25900D01*
X393308Y25203D01*
X394365Y24765D01*
X395100Y24669D01*
Y28600D01*
D02*
G37*
G36*
X121200Y19600D02*
X118800D01*
Y16100D01*
X121200D01*
Y19600D01*
D02*
G37*
G36*
X118000D02*
X115600D01*
Y16100D01*
X118000D01*
Y19600D01*
D02*
G37*
G36*
X130000Y22341D02*
X128568Y22200D01*
X127191Y21782D01*
X125922Y21104D01*
X124809Y20191D01*
X123896Y19078D01*
X123218Y17809D01*
X122800Y16432D01*
X122659Y15000D01*
X122800Y13568D01*
X123218Y12191D01*
X123896Y10922D01*
X124809Y9809D01*
X125922Y8896D01*
X127191Y8218D01*
X128568Y7800D01*
X130000Y7659D01*
X131432Y7800D01*
X132809Y8218D01*
X134078Y8896D01*
X135191Y9809D01*
X136104Y10922D01*
X136782Y12191D01*
X137200Y13568D01*
X137341Y15000D01*
X137200Y16432D01*
X136782Y17809D01*
X136104Y19078D01*
X135191Y20191D01*
X134078Y21104D01*
X132809Y21782D01*
X131432Y22200D01*
X130000Y22341D01*
D02*
G37*
G36*
X91500D02*
X90068Y22200D01*
X88691Y21782D01*
X87422Y21104D01*
X86309Y20191D01*
X85396Y19078D01*
X84718Y17809D01*
X84300Y16432D01*
X84159Y15000D01*
X84300Y13568D01*
X84718Y12191D01*
X85396Y10922D01*
X86309Y9809D01*
X87422Y8896D01*
X88691Y8218D01*
X90068Y7800D01*
X91500Y7659D01*
X92932Y7800D01*
X94309Y8218D01*
X95578Y8896D01*
X96691Y9809D01*
X97604Y10922D01*
X98282Y12191D01*
X98700Y13568D01*
X98841Y15000D01*
X98700Y16432D01*
X98282Y17809D01*
X97604Y19078D01*
X96691Y20191D01*
X95578Y21104D01*
X94309Y21782D01*
X92932Y22200D01*
X91500Y22341D01*
D02*
G37*
G36*
X66500D02*
X65068Y22200D01*
X63691Y21782D01*
X62422Y21104D01*
X61309Y20191D01*
X60396Y19078D01*
X59718Y17809D01*
X59300Y16432D01*
X59159Y15000D01*
X59300Y13568D01*
X59718Y12191D01*
X60396Y10922D01*
X61309Y9809D01*
X62422Y8896D01*
X63691Y8218D01*
X65068Y7800D01*
X66500Y7659D01*
X67932Y7800D01*
X69309Y8218D01*
X70578Y8896D01*
X71691Y9809D01*
X72604Y10922D01*
X73282Y12191D01*
X73700Y13568D01*
X73841Y15000D01*
X73700Y16432D01*
X73282Y17809D01*
X72604Y19078D01*
X71691Y20191D01*
X70578Y21104D01*
X69309Y21782D01*
X67932Y22200D01*
X66500Y22341D01*
D02*
G37*
%LPD*%
G36*
X43500Y74000D02*
X73000D01*
Y57500D01*
X45000D01*
Y54000D01*
X39000Y48000D01*
X28000D01*
Y113500D01*
X43500D01*
Y74000D01*
D02*
G37*
G54D11*
X212500Y181000D02*
Y202000D01*
X211500Y205000D02*
X215000D01*
X210000Y203500D02*
X211500Y205000D01*
X210000Y164000D02*
Y203500D01*
Y164000D02*
X215000Y159000D01*
X254000Y127500D02*
Y139500D01*
X212500Y181000D02*
X254000Y139500D01*
X228000Y123520D02*
X228020Y123500D01*
X13849Y174000D02*
X17000D01*
X266000Y118000D02*
Y168500D01*
X263500Y112000D02*
Y136263D01*
X249500Y150263D02*
X263500Y136263D01*
X260500Y118000D02*
Y137000D01*
X221000Y176500D02*
X260500Y137000D01*
X263500Y112000D02*
X266000Y109500D01*
X246000Y93000D02*
X259500Y79500D01*
X250000Y93000D02*
X250500D01*
X34850Y169350D02*
X44500Y179000D01*
X34850Y168492D02*
Y169350D01*
X221000Y176500D02*
Y182500D01*
X36500Y133500D02*
X37011D01*
X39771Y136260D01*
X20349Y136500D02*
X24000D01*
X27000Y148500D02*
X30349D01*
X6357Y141260D02*
X11117Y136500D01*
X5865Y141260D02*
X6357D01*
X11117Y136500D02*
X20349D01*
X30349Y148500D02*
Y152500D01*
X26349D02*
X30349D01*
X40949Y152400D02*
X43934Y149416D01*
Y147403D02*
Y149416D01*
X40271Y143740D02*
X43934Y147403D01*
X38949Y152400D02*
X40949D01*
X38849Y152500D02*
X38949Y152400D01*
X42097Y154000D02*
X45849Y150248D01*
Y143500D02*
Y150248D01*
X42097Y154000D02*
Y154000D01*
X39771Y143740D02*
X40271D01*
X42349Y140000D02*
X45849Y143500D01*
X379055Y87500D02*
X381555Y85000D01*
X16849Y145000D02*
Y153008D01*
X30349Y174000D02*
X33676Y170673D01*
X5350Y156000D02*
X7850Y158500D01*
X19850D01*
X21350Y165232D02*
Y170000D01*
X21849Y149000D02*
Y156500D01*
X19850Y158500D02*
X21849Y156500D01*
X13849Y165252D02*
Y170000D01*
X5350Y149256D02*
Y154000D01*
X18515Y142335D02*
X20349Y140500D01*
X18515Y142335D02*
Y143827D01*
X34350Y152500D02*
X38849D01*
X13849Y165252D02*
X14109Y164992D01*
X38590Y157508D02*
X42097Y154000D01*
X30101Y156500D02*
X31109Y157508D01*
X9349Y154000D02*
X17842D01*
X26349Y156500D02*
X30101D01*
X30728Y143740D02*
X33749Y146761D01*
X22449Y144400D02*
X29268D01*
X29928Y143740D02*
X30728D01*
X21849Y145000D02*
X22449Y144400D01*
X36849Y140000D02*
X42349D01*
X20599Y140250D02*
X29678D01*
X29928Y136260D02*
X33109D01*
X33676Y169665D02*
Y170673D01*
Y169665D02*
X34850Y168492D01*
X21350Y165232D02*
X21590Y164992D01*
X17842Y154000D02*
X17850Y154008D01*
X16849Y153008D02*
X17842Y154000D01*
X5350D02*
Y156000D01*
X33749Y146761D02*
Y147900D01*
X34350Y148500D01*
X29268Y144400D02*
X29928Y143740D01*
X17342Y145000D02*
X18515Y143827D01*
X16849Y145000D02*
X17342D01*
X5350Y149256D02*
X5865Y148740D01*
X33109Y136260D02*
X36849Y140000D01*
X29678Y140250D02*
X29928Y140000D01*
X20349Y140500D02*
X20599Y140250D01*
X203500Y80626D02*
X211416D01*
X203500Y88500D02*
X212000D01*
X220000Y96500D01*
X215790Y85000D02*
X229000D01*
X211416Y80626D02*
X215790Y85000D01*
X381555D02*
X382000D01*
X250500Y93000D02*
X260000Y83500D01*
X300882Y145000D02*
X309500Y136382D01*
X288165Y145000D02*
X300882D01*
X376000Y49000D02*
Y53000D01*
Y39000D02*
Y49000D01*
Y29000D02*
Y39000D01*
X249500Y150263D02*
Y159000D01*
G54D18*
X325800Y16000D02*
X329000D01*
X286000Y55800D02*
X325800Y16000D01*
X278400Y55800D02*
X286000D01*
X271900Y62300D02*
X278400Y55800D01*
X325300Y19400D02*
X332000D01*
X280000Y64700D02*
X325300Y19400D01*
X269700Y64700D02*
X280000D01*
X254186Y66186D02*
X255500Y67500D01*
X209000Y66186D02*
X254186D01*
X245053Y102262D02*
X290021Y57294D01*
X245053Y102262D02*
Y102500D01*
X290021Y57294D02*
X297000D01*
X196000Y123000D02*
Y124000D01*
X191500Y128500D02*
X196000Y124000D01*
X200000Y133500D02*
X205000Y128500D01*
X191500Y133500D02*
X200000D01*
X123500Y95500D02*
Y96500D01*
Y95500D02*
X124500Y94500D01*
Y94000D02*
Y94500D01*
X38849Y148500D02*
X41500D01*
X237500Y107000D02*
X258000Y127500D01*
X233000Y107000D02*
X237500D01*
X230500Y104500D02*
X233000Y107000D01*
X230500Y99000D02*
Y104500D01*
X238500Y104000D02*
X258000Y123500D01*
X233500Y104000D02*
X238500D01*
X243500Y105500D02*
X243589D01*
X272500Y107000D02*
X279500Y114000D01*
X311500D01*
X245089Y107000D02*
X272500D01*
X243589Y105500D02*
X245089Y107000D01*
X250190Y102262D02*
Y102500D01*
X290021Y62432D02*
X297000D01*
X250190Y102262D02*
X290021Y62432D01*
X252758Y102500D02*
X290258Y65000D01*
X297000D01*
X247621Y102262D02*
Y102500D01*
Y102262D02*
X290021Y59863D01*
X297000D01*
X297500Y119500D02*
X314000D01*
G54D29*
X191500Y128500D02*
D03*
Y133500D02*
D03*
G54D30*
X377500Y59000D02*
D03*
X372500D02*
D03*
G54D31*
X34350Y152500D02*
D03*
X30349D02*
D03*
X34350Y148500D02*
D03*
X30349D02*
D03*
X26349Y174000D02*
D03*
X30349D02*
D03*
X5350Y154000D02*
D03*
X9349D02*
D03*
X376000Y29000D02*
D03*
X372000D02*
D03*
X376000Y39000D02*
D03*
X372000D02*
D03*
X376000Y49000D02*
D03*
X372000D02*
D03*
G54D32*
X5865Y141260D02*
D03*
Y148740D02*
D03*
X16849Y145000D02*
D03*
G54D33*
X116000Y34100D02*
D03*
Y26900D02*
D03*
X109000D02*
D03*
Y34100D02*
D03*
X159000Y59100D02*
D03*
Y51900D02*
D03*
X152000D02*
D03*
Y59100D02*
D03*
G54D34*
X38590Y157508D02*
D03*
X31109D02*
D03*
X34850Y168492D02*
D03*
X14109Y164992D02*
D03*
X21590D02*
D03*
X17850Y154008D02*
D03*
G54D36*
X26349Y156500D02*
D03*
Y152500D02*
D03*
X20349Y136500D02*
D03*
Y140500D02*
D03*
X21350Y174000D02*
D03*
Y170000D02*
D03*
X13849Y174000D02*
D03*
Y170000D02*
D03*
X38849Y152500D02*
D03*
Y148500D02*
D03*
X21849Y145000D02*
D03*
Y149000D02*
D03*
G54D43*
X262000Y218800D02*
D03*
Y207000D02*
D03*
X323000Y62100D02*
D03*
Y73900D02*
D03*
G54D44*
X50500Y63358D02*
D03*
Y45642D02*
D03*
G54D45*
X118400Y20000D02*
D03*
X106600D02*
D03*
X161400Y45000D02*
D03*
X149600D02*
D03*
X25600Y40000D02*
D03*
X37400D02*
D03*
X25600Y32000D02*
D03*
X37400D02*
D03*
G54D60*
X29928Y140000D02*
D03*
Y143740D02*
D03*
Y136260D02*
D03*
G54D61*
X39771D02*
D03*
Y143740D02*
D03*
G54D129*
X393500Y208100D02*
D03*
Y235443D02*
D03*
G54D130*
X382200Y212224D02*
D03*
Y231319D02*
D03*
G54D133*
X244066Y92199D02*
X266765Y69500D01*
X244066Y92199D02*
Y93434D01*
X266765Y69500D02*
X274000D01*
X238000Y80100D02*
X249200Y68900D01*
X238000Y80100D02*
Y91500D01*
X185300Y96500D02*
X190000D01*
X205000Y111500D01*
X183100Y94000D02*
X192000D01*
X240000Y97500D02*
X244066Y93434D01*
X192000Y94000D02*
X203500Y105500D01*
X190500Y101500D02*
X198500Y109500D01*
X184500Y101500D02*
X190500D01*
X276500Y124500D02*
X277007Y123993D01*
X314500D01*
X227000Y82000D02*
X235500D01*
X270500Y94000D02*
X276000Y88500D01*
Y81765D02*
Y88500D01*
Y81765D02*
X286265Y71500D01*
X301000D02*
X304000Y68500D01*
Y57000D02*
Y68500D01*
Y57000D02*
X319500Y41500D01*
X286265Y71500D02*
X301000D01*
X319500Y41500D02*
X358000D01*
X365500Y49000D01*
X372000D01*
X236000Y97000D02*
Y101500D01*
X301500Y57500D02*
Y67000D01*
X266000D02*
X276500D01*
X236000Y97000D02*
X266000Y67000D01*
X301500Y57500D02*
X320000Y39000D01*
X365500D01*
X372000D01*
X296500Y69500D02*
X299500Y66500D01*
Y57000D02*
Y66500D01*
Y57000D02*
X327500Y29000D01*
X365500D01*
X372000D01*
G54D134*
X16000Y16000D02*
X19193Y19193D01*
Y24493D01*
X25600Y30900D01*
Y32000D01*
Y40000D01*
X149700Y47200D02*
Y51500D01*
X150100Y51900D02*
X151000D01*
X149700Y51500D02*
X150100Y51900D01*
X323000Y62100D02*
X323200Y62300D01*
X343300D01*
X343500Y62500D01*
X271000Y207000D02*
X271050Y206950D01*
X106600Y20000D02*
Y21100D01*
X107700Y22200D01*
Y26500D01*
X108100Y26900D01*
X109000D01*
G54D135*
X56500Y52000D02*
X73500Y35000D01*
X75000D01*
X204000Y97000D02*
X215500D01*
X228000Y123500D02*
Y123520D01*
Y111000D02*
Y123500D01*
X346500Y131500D02*
X346584D01*
X326634Y151366D02*
X346500Y131500D01*
X346584Y131416D02*
Y131500D01*
Y131416D02*
X356500Y121500D01*
X374000Y97000D02*
Y104000D01*
Y97000D02*
X380500Y90500D01*
Y86500D02*
Y90500D01*
Y86500D02*
X382000Y85000D01*
X365500Y59000D02*
X372500D01*
X382000Y85000D02*
X384000Y83000D01*
Y75500D02*
Y83000D01*
X377500Y59000D02*
X384000Y65500D01*
Y75500D01*
X386000Y99000D02*
X391000Y94000D01*
X384445Y100555D02*
X386000Y99000D01*
X391000Y63500D02*
Y94000D01*
Y63500D02*
X395500Y59000D01*
X384445Y100555D02*
Y101000D01*
X382445Y103000D02*
X384445Y101000D01*
X382000Y103000D02*
X382445D01*
X382000D02*
X384000Y105000D01*
Y112000D01*
X384500Y112500D01*
X356500Y109000D02*
Y121500D01*
X320634Y151366D02*
X326634D01*
X319500Y152500D02*
X320634Y151366D01*
X215500Y98500D02*
X228000Y111000D01*
X215500Y95500D02*
Y97000D01*
Y98500D01*
G54D137*
X120388Y42790D02*
X121732Y44134D01*
X120388Y37788D02*
Y42790D01*
X116700Y34100D02*
X120388Y37788D01*
X116000Y34100D02*
X116700D01*
X109000D02*
X116000D01*
X138268Y65787D02*
X139612Y64443D01*
X145957D01*
X151300Y59100D01*
X152000D01*
X159000D01*
X270378Y220650D02*
X271000D01*
X268728Y219000D02*
X270378Y220650D01*
X262200Y219000D02*
X268728D01*
X254300Y207200D02*
X261800D01*
X270800D01*
X271000Y207000D01*
X239000Y240000D02*
X249000Y230000D01*
Y212500D02*
Y230000D01*
Y212500D02*
X254300Y207200D01*
X65445Y240000D02*
X239000D01*
X35945Y210500D02*
X65445Y240000D01*
X35500Y210500D02*
X35945D01*
G54D139*
X71728Y93772D02*
Y147248D01*
Y93772D02*
X91500Y74000D01*
Y65394D02*
Y74000D01*
G54D140*
X37450Y53450D02*
X37500Y53500D01*
X37450Y40050D02*
Y53450D01*
X37400Y40000D02*
X37450Y40050D01*
X35500Y183000D02*
X35500Y183000D01*
Y192500D01*
X35500Y192500D01*
G54D152*
X16000Y232000D02*
D03*
Y16000D02*
D03*
X345000Y232000D02*
D03*
Y60000D02*
D03*
G54D153*
X121732Y44134D02*
D03*
Y65787D02*
D03*
X138268Y44134D02*
D03*
Y65787D02*
D03*
X91500Y65394D02*
D03*
Y43740D02*
D03*
X66500Y65394D02*
D03*
Y43740D02*
D03*
G54D154*
X130000Y15000D02*
D03*
X91500D02*
D03*
X66500D02*
D03*
G54D155*
X35500Y183000D02*
D03*
X319500Y152500D02*
D03*
X37500Y106500D02*
D03*
Y53500D02*
D03*
G54D156*
X15500Y183000D02*
D03*
X299500Y152500D02*
D03*
X17500Y106500D02*
D03*
Y53500D02*
D03*
X365500Y59000D02*
D03*
Y49000D02*
D03*
Y39000D02*
D03*
X395500Y49000D02*
D03*
X365500Y29000D02*
D03*
X395500Y39000D02*
D03*
Y29000D02*
D03*
Y59000D02*
D03*
G54D157*
X61728Y171248D02*
D03*
X81728Y147248D02*
D03*
X109478Y171248D02*
D03*
X129478Y147248D02*
D03*
X157228Y171248D02*
D03*
X177228Y147248D02*
D03*
G54D158*
X71728Y171248D02*
D03*
X81728D02*
D03*
X71728Y147248D02*
D03*
X61728D02*
D03*
X119478Y171248D02*
D03*
X129478D02*
D03*
X119478Y147248D02*
D03*
X109478D02*
D03*
X167228Y171248D02*
D03*
X177228D02*
D03*
X167228Y147248D02*
D03*
X157228D02*
D03*
G54D159*
X271000Y207000D02*
D03*
G54D160*
X271000Y220650D02*
D03*
G54D161*
X205500Y80500D02*
D03*
Y88374D02*
D03*
Y72626D02*
D03*
G54D162*
Y96248D02*
D03*
G54D163*
X259400Y19700D02*
D03*
X338100Y36100D02*
D03*
X335100Y72200D02*
D03*
X330500Y73500D02*
D03*
X261200Y58200D02*
D03*
X329000Y16000D02*
D03*
X271900Y62300D02*
D03*
X332000Y19400D02*
D03*
X269700Y64700D02*
D03*
X249200Y68900D02*
D03*
X209000Y66186D02*
D03*
X4700Y5200D02*
D03*
X270900Y53600D02*
D03*
X279400Y58900D02*
D03*
X278600Y84300D02*
D03*
X185300Y96500D02*
D03*
X183100Y94000D02*
D03*
X189150Y115100D02*
D03*
X204400Y117600D02*
D03*
X331700Y95400D02*
D03*
X131300Y120400D02*
D03*
X128400Y109100D02*
D03*
X121000Y104600D02*
D03*
X172500Y66400D02*
D03*
X176700Y86700D02*
D03*
X230400Y95700D02*
D03*
X270500Y94000D02*
D03*
X235000Y57500D02*
D03*
X232500Y63900D02*
D03*
X224500Y71000D02*
D03*
X238500D02*
D03*
X257800Y71800D02*
D03*
X273600Y85100D02*
D03*
X287500Y135500D02*
D03*
X302000Y127000D02*
D03*
X289500Y117000D02*
D03*
X275500Y115500D02*
D03*
Y121000D02*
D03*
X257500Y135000D02*
D03*
X243500Y140500D02*
D03*
X231500Y140000D02*
D03*
X235000Y148500D02*
D03*
X240000D02*
D03*
X235500Y168500D02*
D03*
X117000Y133500D02*
D03*
Y130000D02*
D03*
X86500Y102000D02*
D03*
X101500Y107500D02*
D03*
X119500Y132000D02*
D03*
X158000Y118500D02*
D03*
X266300Y75400D02*
D03*
X221500Y89000D02*
D03*
X232000Y110500D02*
D03*
Y115000D02*
D03*
X186000Y152500D02*
D03*
X130000Y92500D02*
D03*
X62000Y130500D02*
D03*
X11000Y132500D02*
D03*
X9500Y162000D02*
D03*
X206500D02*
D03*
X202500Y184500D02*
D03*
X217500Y181500D02*
D03*
X359000Y74500D02*
D03*
X363000Y83500D02*
D03*
X363500Y104500D02*
D03*
X368500Y123000D02*
D03*
X365500D02*
D03*
X359500Y168000D02*
D03*
X363500D02*
D03*
X312500Y106500D02*
D03*
X304500Y85000D02*
D03*
X303500Y99000D02*
D03*
X282000Y90500D02*
D03*
X292500Y102500D02*
D03*
X199788Y61000D02*
D03*
X212500Y202000D02*
D03*
X215000Y205000D02*
D03*
X228000Y123500D02*
D03*
X238500Y61000D02*
D03*
X205000Y128500D02*
D03*
X95000Y188500D02*
D03*
X94500Y192000D02*
D03*
X17000Y174000D02*
D03*
X215000Y159000D02*
D03*
X238504Y192004D02*
D03*
X216500Y185000D02*
D03*
X240000Y174500D02*
D03*
X266000Y168500D02*
D03*
X147000Y83000D02*
D03*
X256000Y111500D02*
D03*
X255500Y67500D02*
D03*
X74500Y114500D02*
D03*
X251500Y40956D02*
D03*
X246000Y93000D02*
D03*
X250000D02*
D03*
X242500Y116000D02*
D03*
X240000Y128500D02*
D03*
X196500Y165500D02*
D03*
X44500Y179000D02*
D03*
X233000Y230000D02*
D03*
X237000Y235000D02*
D03*
X221000Y182500D02*
D03*
X254500Y149000D02*
D03*
X228500Y190500D02*
D03*
X231000Y192500D02*
D03*
X142000Y190500D02*
D03*
Y187500D02*
D03*
X196500Y172500D02*
D03*
Y184000D02*
D03*
X346584Y131500D02*
D03*
X203500Y105500D02*
D03*
X205000Y111500D02*
D03*
X198500Y109500D02*
D03*
X184500Y101500D02*
D03*
X147500Y181000D02*
D03*
X185500Y162000D02*
D03*
X160000Y92500D02*
D03*
X179500Y125500D02*
D03*
X160000Y115000D02*
D03*
X123500Y96500D02*
D03*
X98000Y120500D02*
D03*
X51500Y181500D02*
D03*
X54000Y131000D02*
D03*
X100000Y181500D02*
D03*
X101500Y127000D02*
D03*
X36500Y133500D02*
D03*
X24000Y136500D02*
D03*
X27000Y148500D02*
D03*
X41500D02*
D03*
X380500Y90500D02*
D03*
X314500Y123993D02*
D03*
X254000Y127500D02*
D03*
X285500Y217000D02*
D03*
X277000Y198500D02*
D03*
X386000Y99000D02*
D03*
X374000Y104000D02*
D03*
X258000Y127500D02*
D03*
X230500Y99000D02*
D03*
X258000Y123500D02*
D03*
X233500Y104000D02*
D03*
X243500Y105500D02*
D03*
X311500Y114000D02*
D03*
X276500Y124500D02*
D03*
X238000Y91500D02*
D03*
X235500Y82000D02*
D03*
X227000D02*
D03*
X220000Y96500D02*
D03*
X229000Y85000D02*
D03*
X250190Y102500D02*
D03*
X297000Y62432D02*
D03*
X252758Y102500D02*
D03*
X297000Y65000D02*
D03*
X245053Y102500D02*
D03*
X297000Y57294D02*
D03*
X247621Y102500D02*
D03*
X297000Y59863D02*
D03*
X285500Y204000D02*
D03*
X325500D02*
D03*
X236000Y101500D02*
D03*
X301500Y67000D02*
D03*
X276500D02*
D03*
X274000Y69500D02*
D03*
X296500D02*
D03*
X240000Y97500D02*
D03*
X212000Y44011D02*
D03*
X231000D02*
D03*
X220500Y48011D02*
D03*
X231000D02*
D03*
X260000Y83500D02*
D03*
X259500Y79500D02*
D03*
X260500Y118000D02*
D03*
X266000D02*
D03*
X314000Y119500D02*
D03*
X297500D02*
D03*
X308000Y89500D02*
D03*
Y71000D02*
D03*
X356500Y109000D02*
D03*
X288165Y145000D02*
D03*
X309500Y136382D02*
D03*
X296000Y76000D02*
D03*
X376000Y53000D02*
D03*
X271500Y88000D02*
D03*
X289500Y121000D02*
D03*
X215500Y95500D02*
D03*
X266000Y109500D02*
D03*
X249500Y159000D02*
D03*
G54D164*
X97700Y205900D02*
D03*
X114800D02*
D03*
X144400D02*
D03*
X161200D02*
D03*
X57100D02*
D03*
X66600Y203500D02*
D03*
Y210000D02*
D03*
X284200Y34500D02*
D03*
X195500Y76500D02*
D03*
X80500Y119000D02*
D03*
X57500Y114000D02*
D03*
X384500Y17000D02*
D03*
X333000Y165000D02*
D03*
X271000Y236500D02*
D03*
X275500Y174000D02*
D03*
X255000Y170000D02*
D03*
X252500Y189500D02*
D03*
X91500Y32000D02*
D03*
X41000Y14000D02*
D03*
X185500Y48500D02*
D03*
X130500Y32000D02*
D03*
Y55000D02*
D03*
X148500Y74000D02*
D03*
X158000Y131500D02*
D03*
X303000Y209000D02*
D03*
X305500Y213500D02*
D03*
X300500D02*
D03*
X310500Y222500D02*
D03*
X297000Y223000D02*
D03*
X276000Y141000D02*
D03*
X221000Y122500D02*
D03*
X196000Y123000D02*
D03*
X209000Y146500D02*
D03*
X204000Y40500D02*
D03*
X172000Y44000D02*
D03*
X67000Y29500D02*
D03*
X16500Y195000D02*
D03*
X14000Y80000D02*
D03*
X152500Y203500D02*
D03*
Y210000D02*
D03*
X106000Y203500D02*
D03*
Y210000D02*
D03*
X184000D02*
D03*
X177000D02*
D03*
X170000D02*
D03*
X184000Y203500D02*
D03*
X170000D02*
D03*
X177000D02*
D03*
X136500Y210000D02*
D03*
X130000D02*
D03*
X123500D02*
D03*
X136500Y203500D02*
D03*
X123500D02*
D03*
X130000D02*
D03*
X89500Y210000D02*
D03*
X82000D02*
D03*
X75000D02*
D03*
X89500Y203500D02*
D03*
X75000D02*
D03*
X82000D02*
D03*
G54D165*
X109478Y105522D02*
X121732Y93268D01*
X94000Y96500D02*
Y154000D01*
X61781Y147248D02*
Y153781D01*
X109478Y147248D02*
Y153978D01*
X119478Y163978D01*
Y171248D01*
X67500Y159500D02*
X71728Y163728D01*
Y171248D01*
X157228Y147248D02*
Y153728D01*
X167228Y163728D01*
Y171248D01*
X61781Y153781D02*
X67500Y159500D01*
X88500D01*
X94000Y154000D01*
X106500Y59366D02*
Y84000D01*
X94000Y96500D02*
X106500Y84000D01*
X61728Y147248D02*
X61781D01*
X106500Y59366D02*
X121732Y44134D01*
Y65787D02*
Y93268D01*
X109478Y105522D02*
Y147248D01*
X138268Y65787D02*
Y128288D01*
X157228Y147248D01*
G54D167*
X35500Y192500D02*
D03*
Y210500D02*
D03*
X382000Y85000D02*
D03*
Y103000D02*
D03*
G54D168*
X384500Y112500D02*
D03*
X366500D02*
D03*
X384000Y75500D02*
D03*
X366000D02*
D03*
G54D169*
X54000Y44000D02*
D03*
G54D170*
X65750Y43500D02*
D03*
M02*
