G04*
G04 #@! TF.GenerationSoftware,Altium Limited,Altium Designer,19.1.5 (86)*
G04*
G04 Layer_Physical_Order=3*
G04 Layer_Color=16440176*
%FSLAX25Y25*%
%MOIN*%
G70*
G01*
G75*
%ADD11C,0.01000*%
%ADD121C,0.02000*%
%ADD122C,0.15000*%
%ADD123C,0.01200*%
%ADD125C,0.12000*%
%ADD127C,0.00700*%
%ADD128C,0.03000*%
%ADD143C,0.06693*%
%ADD144C,0.08268*%
%ADD146C,0.06299*%
%ADD147O,0.13780X0.15748*%
%ADD148O,0.13780X0.15748*%
%ADD149R,0.13780X0.15748*%
%ADD150C,0.06693*%
%ADD152O,0.06000X0.05500*%
%ADD155C,0.01968*%
%ADD156C,0.03150*%
%ADD161C,0.16000*%
%ADD162C,0.18000*%
%ADD163R,0.18500X0.22000*%
%ADD164R,0.15000X0.12500*%
%ADD165R,0.06500X0.04500*%
%ADD166R,0.09500X0.11000*%
%ADD167R,0.10254X0.10246*%
%ADD168R,0.10000X0.11000*%
%ADD169R,0.10500X0.11000*%
%ADD170R,0.10753X0.10747*%
G36*
X399563Y238379D02*
X398931Y238215D01*
X398863Y238222D01*
X398218Y239062D01*
X397358Y239722D01*
X396356Y240137D01*
X395280Y240279D01*
X391720D01*
X390645Y240137D01*
X389642Y239722D01*
X388782Y239062D01*
X388121Y238201D01*
X387706Y237199D01*
X387564Y236123D01*
Y234763D01*
X387706Y233688D01*
X388121Y232685D01*
X388782Y231825D01*
X389642Y231165D01*
X390645Y230749D01*
X391720Y230608D01*
X395280D01*
X396356Y230749D01*
X397358Y231165D01*
X398218Y231825D01*
X398863Y232665D01*
X398931Y232672D01*
X399563Y232508D01*
Y211036D01*
X398931Y210871D01*
X398863Y210879D01*
X398218Y211718D01*
X397358Y212379D01*
X396356Y212794D01*
X395280Y212936D01*
X391720D01*
X390645Y212794D01*
X389642Y212379D01*
X388782Y211718D01*
X388121Y210858D01*
X387706Y209856D01*
X387564Y208780D01*
Y207420D01*
X387706Y206345D01*
X388121Y205342D01*
X388782Y204482D01*
X389642Y203821D01*
X390645Y203406D01*
X391720Y203264D01*
X395280D01*
X396356Y203406D01*
X397358Y203821D01*
X398218Y204482D01*
X398863Y205321D01*
X398931Y205329D01*
X399563Y205164D01*
Y62591D01*
X399117Y62440D01*
X398863Y62402D01*
X397894Y63146D01*
X396739Y63624D01*
X395500Y63787D01*
X394261Y63624D01*
X393106Y63146D01*
X392115Y62385D01*
X391354Y61394D01*
X390876Y60239D01*
X390713Y59000D01*
X390876Y57761D01*
X391354Y56606D01*
X392115Y55615D01*
X393106Y54854D01*
X394261Y54376D01*
X395500Y54213D01*
X396739Y54376D01*
X397894Y54854D01*
X398863Y55598D01*
X399117Y55560D01*
X399563Y55409D01*
Y51995D01*
X398863Y51757D01*
X398600Y52100D01*
X397692Y52797D01*
X396635Y53235D01*
X395900Y53331D01*
Y49000D01*
Y44669D01*
X396635Y44765D01*
X397692Y45203D01*
X398600Y45900D01*
X398863Y46243D01*
X399563Y46005D01*
Y41995D01*
X398863Y41757D01*
X398600Y42100D01*
X397692Y42797D01*
X396635Y43235D01*
X395900Y43331D01*
Y39000D01*
Y34669D01*
X396635Y34765D01*
X397692Y35203D01*
X398600Y35900D01*
X398863Y36243D01*
X399563Y36005D01*
Y31995D01*
X398863Y31757D01*
X398600Y32100D01*
X397692Y32797D01*
X396635Y33235D01*
X395900Y33331D01*
Y29000D01*
Y24669D01*
X396635Y24765D01*
X397692Y25203D01*
X398600Y25900D01*
X398863Y26243D01*
X399563Y26005D01*
Y1937D01*
X172172D01*
X172163Y3078D01*
X172656Y3575D01*
X304500D01*
X305257Y3675D01*
X305962Y3967D01*
X306568Y4432D01*
X345568Y43432D01*
X346033Y44038D01*
X346325Y44743D01*
X346379Y45151D01*
X346397Y45289D01*
X347106Y45312D01*
X347146Y45112D01*
X347254Y44570D01*
X347781Y43781D01*
X348570Y43254D01*
X349500Y43069D01*
X350430Y43254D01*
X351219Y43781D01*
X351746Y44570D01*
X351931Y45500D01*
X351746Y46430D01*
X351219Y47219D01*
X350430Y47746D01*
X349500Y47931D01*
X348570Y47746D01*
X347781Y47219D01*
X347254Y46430D01*
X347165Y45981D01*
X347125Y45781D01*
X346425Y45850D01*
Y54107D01*
X346915Y54256D01*
X348458Y55081D01*
X349810Y56190D01*
X350919Y57543D01*
X351744Y59085D01*
X352252Y60759D01*
X352423Y62500D01*
X352252Y64241D01*
X351744Y65915D01*
X350919Y67457D01*
X349810Y68810D01*
X348458Y69919D01*
X346915Y70744D01*
X345241Y71252D01*
X343500Y71423D01*
X343444Y71418D01*
X342925Y71888D01*
Y219107D01*
X343415Y219256D01*
X344957Y220081D01*
X346310Y221190D01*
X347419Y222543D01*
X348244Y224085D01*
X348752Y225759D01*
X348923Y227500D01*
X348752Y229241D01*
X348244Y230915D01*
X347419Y232457D01*
X346310Y233810D01*
X344957Y234919D01*
X343415Y235744D01*
X341741Y236252D01*
X340000Y236423D01*
X338259Y236252D01*
X336585Y235744D01*
X335043Y234919D01*
X333690Y233810D01*
X332581Y232457D01*
X331756Y230915D01*
X331248Y229241D01*
X331077Y227500D01*
X331248Y225759D01*
X331756Y224085D01*
X332581Y222543D01*
X333690Y221190D01*
X335043Y220081D01*
X336585Y219256D01*
X337075Y219107D01*
Y68669D01*
X336081Y67457D01*
X335256Y65915D01*
X334748Y64241D01*
X334577Y62500D01*
X334748Y60759D01*
X335256Y59085D01*
X336081Y57543D01*
X337190Y56190D01*
X338543Y55081D01*
X340085Y54256D01*
X340575Y54107D01*
Y46712D01*
X303288Y9425D01*
X172110D01*
X171000Y142500D01*
X197990Y169490D01*
X198687Y169422D01*
X198781Y169281D01*
X199570Y168754D01*
X200500Y168569D01*
X201430Y168754D01*
X202219Y169281D01*
X202663Y169946D01*
X202929Y170090D01*
X203476Y170151D01*
X204070Y169754D01*
X205000Y169569D01*
X205930Y169754D01*
X206719Y170281D01*
X207246Y171070D01*
X207431Y172000D01*
X207841Y172500D01*
X218500D01*
X220590Y174591D01*
X221376Y174387D01*
X221781Y173781D01*
X222570Y173254D01*
X223500Y173069D01*
X224430Y173254D01*
X225219Y173781D01*
X225746Y174570D01*
X225931Y175500D01*
X225746Y176430D01*
X225219Y177219D01*
X224613Y177623D01*
X224410Y178409D01*
X231381Y185380D01*
X231570Y185254D01*
X232500Y185069D01*
X233430Y185254D01*
X234219Y185781D01*
X234746Y186570D01*
X234753Y186603D01*
X235000Y186571D01*
X235888Y186688D01*
X236715Y187030D01*
X237425Y187575D01*
X237970Y188285D01*
X238313Y189112D01*
X238429Y190000D01*
X238313Y190888D01*
X237970Y191715D01*
X237859Y191859D01*
X241141Y195141D01*
X241500Y195069D01*
X242430Y195254D01*
X243219Y195781D01*
X243746Y196570D01*
X243931Y197500D01*
X243860Y197860D01*
X256000Y210000D01*
X309500D01*
X309401Y210099D01*
Y246063D01*
X399563D01*
Y238379D01*
D02*
G37*
G36*
X307000Y214000D02*
X304199D01*
X303719Y214719D01*
X302930Y215246D01*
X302000Y215431D01*
X301070Y215246D01*
X300281Y214719D01*
X299801Y214000D01*
X229500D01*
Y233753D01*
X232246D01*
Y243247D01*
X229500D01*
Y246063D01*
X307000D01*
Y214000D01*
D02*
G37*
G36*
X220500Y213500D02*
X162504D01*
X162500Y213500D01*
X162496Y213500D01*
X159004D01*
X159000Y213500D01*
X158996Y213500D01*
X155504D01*
X155500Y213500D01*
X155496Y213500D01*
X152004D01*
X152000Y213500D01*
X151996Y213500D01*
X134500D01*
Y233753D01*
X137247D01*
Y243247D01*
X134500D01*
Y246063D01*
X220500D01*
Y213500D01*
D02*
G37*
G36*
X127500Y213000D02*
X55504D01*
X55500Y213000D01*
X55496Y213000D01*
X52004D01*
X52000Y213000D01*
X51996Y213000D01*
X48504D01*
X48500Y213000D01*
X48496Y213000D01*
X46000D01*
X40500Y218500D01*
Y233753D01*
X42246D01*
Y243247D01*
X40500D01*
Y246063D01*
X127500D01*
Y213000D01*
D02*
G37*
G36*
X302373Y213901D02*
X302690Y213690D01*
X303012Y213207D01*
X303112Y213108D01*
X303190Y212991D01*
X303307Y212913D01*
X303406Y212813D01*
X303536Y212759D01*
X303653Y212681D01*
X303791Y212654D01*
X303921Y212600D01*
X304062D01*
X304199Y212573D01*
X307000D01*
Y211500D01*
X253500D01*
X247425Y205664D01*
X246818Y206051D01*
X246932Y207500D01*
Y212573D01*
X299801D01*
X299939Y212600D01*
X300079D01*
X300209Y212654D01*
X300347Y212681D01*
X300464Y212759D01*
X300594Y212813D01*
X300693Y212913D01*
X300810Y212991D01*
X300888Y213108D01*
X300988Y213207D01*
X301310Y213690D01*
X301627Y213901D01*
X302000Y213976D01*
X302373Y213901D01*
D02*
G37*
G36*
X228073Y243247D02*
X222754D01*
Y233753D01*
X228073D01*
Y231146D01*
X228060Y231132D01*
X227205Y229736D01*
X226578Y228224D01*
X226196Y226632D01*
X226068Y225000D01*
Y211821D01*
X210108Y195862D01*
X209412Y195930D01*
X209219Y196219D01*
X208430Y196746D01*
X207500Y196931D01*
X206570Y196746D01*
X205781Y196219D01*
X205254Y195430D01*
X205069Y194500D01*
X205074Y194473D01*
X204630Y193932D01*
X196500D01*
X194868Y193804D01*
X193276Y193422D01*
X191764Y192795D01*
X191403Y192574D01*
X190970Y192715D01*
X190425Y193425D01*
X190243Y193565D01*
X190246Y193570D01*
X190431Y194500D01*
X190246Y195430D01*
X189719Y196219D01*
X188930Y196746D01*
X188000Y196931D01*
X187352Y196802D01*
X187334Y196810D01*
X186810Y197334D01*
X186802Y197352D01*
X186931Y198000D01*
X186746Y198930D01*
X186219Y199719D01*
X185430Y200246D01*
X184500Y200431D01*
X183570Y200246D01*
X182781Y199719D01*
X182454Y199230D01*
X182430Y199246D01*
X181500Y199431D01*
X180570Y199246D01*
X179781Y198719D01*
X179254Y197930D01*
X179069Y197000D01*
X179254Y196070D01*
X179781Y195281D01*
X180570Y194754D01*
X181500Y194569D01*
X182430Y194754D01*
X183219Y195281D01*
X183546Y195770D01*
X183570Y195754D01*
X184500Y195569D01*
X185148Y195698D01*
X185166Y195690D01*
X185690Y195166D01*
X185698Y195148D01*
X185569Y194500D01*
X185754Y193570D01*
X185757Y193565D01*
X185575Y193425D01*
X185030Y192715D01*
X184687Y191888D01*
X184571Y191000D01*
X184687Y190112D01*
X185030Y189285D01*
X185575Y188575D01*
X185859Y188357D01*
X185905Y187658D01*
X178259Y180013D01*
X177732Y180475D01*
X177970Y180785D01*
X178313Y181612D01*
X178429Y182500D01*
X178313Y183388D01*
X177970Y184215D01*
X177425Y184925D01*
X176715Y185470D01*
X175888Y185812D01*
X175000Y185929D01*
X174265Y185833D01*
X174246Y185930D01*
X173719Y186719D01*
X172930Y187246D01*
X172000Y187431D01*
X171070Y187246D01*
X170281Y186719D01*
X169754Y185930D01*
X169569Y185000D01*
X169754Y184070D01*
X170281Y183281D01*
X171070Y182754D01*
X171590Y182650D01*
X171571Y182500D01*
X171687Y181612D01*
X172030Y180785D01*
X172575Y180075D01*
X173285Y179530D01*
X174112Y179188D01*
X175000Y179071D01*
X175888Y179188D01*
X176715Y179530D01*
X177025Y179768D01*
X177487Y179241D01*
X158315Y160069D01*
X157318Y161065D01*
X157246Y161430D01*
X156719Y162219D01*
X155930Y162746D01*
X155000Y162931D01*
X154070Y162746D01*
X153281Y162219D01*
X152754Y161430D01*
X152569Y160500D01*
X152754Y159570D01*
X153281Y158781D01*
X154070Y158254D01*
X154435Y158182D01*
X155431Y157185D01*
X152623Y154377D01*
X151560Y153132D01*
X151132Y152433D01*
X150432Y152631D01*
Y166000D01*
Y212073D01*
X151996D01*
X152000Y212073D01*
X152004Y212073D01*
X155496D01*
X155500Y212073D01*
X155504Y212073D01*
X158996D01*
X159000Y212073D01*
X159004Y212073D01*
X162496D01*
X162500Y212073D01*
X162504Y212073D01*
X220500D01*
X221046Y212181D01*
X221509Y212491D01*
X221819Y212954D01*
X221927Y213500D01*
Y246063D01*
X228073D01*
Y243247D01*
D02*
G37*
G36*
X39073D02*
X32754D01*
Y233753D01*
X39073D01*
Y218500D01*
X39181Y217954D01*
X39491Y217491D01*
X39491Y217491D01*
X44991Y211991D01*
X45454Y211681D01*
X46000Y211573D01*
X46000Y211573D01*
X48496D01*
X48500Y211573D01*
X48504Y211573D01*
X51996D01*
X52000Y211573D01*
X52004Y211573D01*
X55496D01*
X55500Y211573D01*
X55504Y211573D01*
X109568D01*
Y126406D01*
X109217Y125852D01*
X109217Y125852D01*
Y125852D01*
X108868Y125817D01*
X108860Y125856D01*
X108746Y126430D01*
X108219Y127219D01*
X107430Y127746D01*
X106500Y127931D01*
X105570Y127746D01*
X104781Y127219D01*
X104254Y126430D01*
X104069Y125500D01*
X104254Y124570D01*
X104781Y123781D01*
X105570Y123254D01*
X106500Y123069D01*
X107430Y123254D01*
X108219Y123781D01*
X108746Y124570D01*
X108860Y125144D01*
X108868Y125183D01*
X109217Y125148D01*
Y125148D01*
X109217Y125148D01*
X109568Y124594D01*
Y78906D01*
X109217Y78352D01*
X109217Y78352D01*
Y78352D01*
X108868Y78317D01*
X108860Y78356D01*
X108746Y78930D01*
X108219Y79719D01*
X107430Y80246D01*
X106937Y80344D01*
Y113000D01*
X106790Y113741D01*
X106370Y114370D01*
X104609Y116130D01*
X104757Y116972D01*
X105219Y117281D01*
X105746Y118070D01*
X105931Y119000D01*
X105746Y119930D01*
X105219Y120719D01*
X104430Y121246D01*
X103500Y121431D01*
X102570Y121246D01*
X101781Y120719D01*
X101472Y120257D01*
X100630Y120109D01*
X99937Y120802D01*
Y134608D01*
X100246Y135070D01*
X100431Y136000D01*
X100246Y136930D01*
X99719Y137719D01*
X98930Y138246D01*
X98000Y138431D01*
X97070Y138246D01*
X96643Y137961D01*
X95943Y138335D01*
Y180000D01*
X95771Y181745D01*
X95262Y183422D01*
X94436Y184968D01*
X93324Y186324D01*
X83427Y196220D01*
Y199000D01*
X83319Y199546D01*
X83009Y200009D01*
X82546Y200319D01*
X82000Y200427D01*
X79220D01*
X78824Y200824D01*
X77469Y201936D01*
X75922Y202762D01*
X74245Y203271D01*
X72500Y203443D01*
X70755Y203271D01*
X69078Y202762D01*
X67532Y201936D01*
X66176Y200824D01*
X65064Y199469D01*
X64238Y197922D01*
X63729Y196245D01*
X63557Y194500D01*
X63729Y192755D01*
X64238Y191078D01*
X65064Y189532D01*
X65073Y189521D01*
Y178000D01*
X65181Y177454D01*
X65491Y176991D01*
X65954Y176681D01*
X66500Y176573D01*
X68945D01*
X69500Y176499D01*
X70055Y176573D01*
X77780D01*
X78057Y176296D01*
Y116500D01*
X78229Y114755D01*
X78738Y113078D01*
X79564Y111531D01*
X80676Y110176D01*
X86057Y104796D01*
Y85704D01*
X73676Y73324D01*
X72564Y71969D01*
X71738Y70422D01*
X71229Y68745D01*
X71057Y67000D01*
Y33484D01*
X71229Y31740D01*
X71738Y30062D01*
X71832Y29886D01*
X72304Y28328D01*
X73074Y26888D01*
X74110Y25626D01*
X75372Y24590D01*
X76812Y23820D01*
X78375Y23346D01*
X80000Y23186D01*
X81625Y23346D01*
X83188Y23820D01*
X84628Y24590D01*
X85890Y25626D01*
X86926Y26888D01*
X87696Y28328D01*
X88169Y29886D01*
X88262Y30062D01*
X88771Y31740D01*
X88943Y33484D01*
Y63296D01*
X101324Y75676D01*
X102436Y77031D01*
X102919Y77935D01*
X103243Y78024D01*
X103752Y78009D01*
X104146Y77615D01*
X104254Y77070D01*
X104781Y76281D01*
X105570Y75754D01*
X106500Y75569D01*
X107430Y75754D01*
X108219Y76281D01*
X108746Y77070D01*
X108860Y77644D01*
X108868Y77683D01*
X109217Y77648D01*
Y77648D01*
X109217Y77648D01*
X109568Y77094D01*
Y32500D01*
X109696Y30868D01*
X110078Y29276D01*
X110705Y27764D01*
X111560Y26368D01*
X112623Y25123D01*
X113868Y24060D01*
X115264Y23205D01*
X116776Y22578D01*
X118368Y22196D01*
X120000Y22068D01*
X121632Y22196D01*
X123224Y22578D01*
X124736Y23205D01*
X126132Y24060D01*
X127377Y25123D01*
X128440Y26368D01*
X129295Y27764D01*
X129621Y28551D01*
X130379D01*
X130705Y27764D01*
X131560Y26368D01*
X132623Y25123D01*
X133868Y24060D01*
X135264Y23205D01*
X136776Y22578D01*
X138368Y22196D01*
X140000Y22068D01*
X141632Y22196D01*
X143224Y22578D01*
X144736Y23205D01*
X146132Y24060D01*
X147377Y25123D01*
X148440Y26368D01*
X149295Y27764D01*
X149621Y28551D01*
X150379D01*
X150705Y27764D01*
X151560Y26368D01*
X151710Y26193D01*
Y23226D01*
X155229D01*
X155264Y23205D01*
X156776Y22578D01*
X158368Y22196D01*
X160000Y22068D01*
X161632Y22196D01*
X163224Y22578D01*
X164736Y23205D01*
X164771Y23226D01*
X168290D01*
Y26193D01*
X168440Y26368D01*
X169295Y27764D01*
X169300Y27776D01*
X170000Y27636D01*
Y9425D01*
X126227D01*
X107566Y28086D01*
X107696Y28328D01*
X108170Y29891D01*
X108330Y31516D01*
Y33484D01*
X108170Y35109D01*
X107696Y36672D01*
X106926Y38112D01*
X105890Y39374D01*
X104628Y40410D01*
X103188Y41180D01*
X101625Y41654D01*
X100000Y41814D01*
X98375Y41654D01*
X96812Y41180D01*
X95372Y40410D01*
X94110Y39374D01*
X93074Y38112D01*
X92304Y36672D01*
X91830Y35109D01*
X91670Y33484D01*
Y31516D01*
X91830Y29891D01*
X92304Y28328D01*
X92434Y28086D01*
X74273Y9925D01*
X14212D01*
X9925Y14212D01*
X9925Y206788D01*
X12134Y208997D01*
X12585Y208756D01*
X14259Y208248D01*
X16000Y208077D01*
X17741Y208248D01*
X19415Y208756D01*
X20957Y209581D01*
X22310Y210690D01*
X23419Y212042D01*
X24244Y213585D01*
X24752Y215259D01*
X24923Y217000D01*
X24752Y218741D01*
X24244Y220415D01*
X23419Y221957D01*
X22310Y223310D01*
X20957Y224419D01*
X19415Y225244D01*
X17741Y225752D01*
X16000Y225923D01*
X14259Y225752D01*
X12585Y225244D01*
X11043Y224419D01*
X9690Y223310D01*
X8581Y221957D01*
X7756Y220415D01*
X7248Y218741D01*
X7077Y217000D01*
X7248Y215259D01*
X7756Y213585D01*
X7997Y213134D01*
X4932Y210068D01*
X4467Y209462D01*
X4175Y208757D01*
X4075Y208000D01*
X4075Y13000D01*
X4175Y12243D01*
X4467Y11537D01*
X4932Y10932D01*
X10932Y4932D01*
X11537Y4467D01*
X12243Y4175D01*
X13000Y4075D01*
X75484D01*
X76241Y4175D01*
X76947Y4467D01*
X77552Y4932D01*
X96570Y23949D01*
X96812Y23820D01*
X98375Y23346D01*
X100000Y23186D01*
X101625Y23346D01*
X103188Y23820D01*
X103430Y23949D01*
X122948Y4432D01*
X123553Y3967D01*
X124259Y3675D01*
X125016Y3575D01*
X170000D01*
Y1937D01*
X1937D01*
Y246063D01*
X39073D01*
Y243247D01*
D02*
G37*
%LPC*%
G36*
X382200Y235453D02*
X381182Y235318D01*
X380233Y234926D01*
X379418Y234300D01*
X378793Y233486D01*
X378400Y232537D01*
X378266Y231519D01*
Y231119D01*
X378400Y230101D01*
X378793Y229152D01*
X379418Y228337D01*
X380233Y227712D01*
X381182Y227319D01*
X382200Y227185D01*
X383218Y227319D01*
X384167Y227712D01*
X384981Y228337D01*
X385607Y229152D01*
X386000Y230101D01*
X386134Y231119D01*
Y231519D01*
X386000Y232537D01*
X385607Y233486D01*
X384981Y234300D01*
X384167Y234926D01*
X383218Y235318D01*
X382200Y235453D01*
D02*
G37*
G36*
Y216358D02*
X381182Y216224D01*
X380233Y215831D01*
X379418Y215206D01*
X378793Y214391D01*
X378400Y213442D01*
X378266Y212424D01*
Y212024D01*
X378400Y211006D01*
X378793Y210058D01*
X379418Y209243D01*
X380233Y208618D01*
X381182Y208225D01*
X382200Y208091D01*
X383218Y208225D01*
X384167Y208618D01*
X384981Y209243D01*
X385607Y210058D01*
X386000Y211006D01*
X386134Y212024D01*
Y212424D01*
X386000Y213442D01*
X385607Y214391D01*
X384981Y215206D01*
X384167Y215831D01*
X383218Y216224D01*
X382200Y216358D01*
D02*
G37*
G36*
X272900Y200783D02*
Y197050D01*
X276633D01*
X276543Y197733D01*
X276125Y198743D01*
X275460Y199609D01*
X274593Y200275D01*
X273583Y200693D01*
X272900Y200783D01*
D02*
G37*
G36*
X272100Y200783D02*
X271417Y200693D01*
X270407Y200275D01*
X269541Y199609D01*
X268875Y198743D01*
X268457Y197733D01*
X268367Y197050D01*
X272100D01*
Y200783D01*
D02*
G37*
G36*
X276633Y196250D02*
X272900D01*
Y192517D01*
X273583Y192607D01*
X274593Y193025D01*
X275460Y193691D01*
X276125Y194557D01*
X276543Y195567D01*
X276633Y196250D01*
D02*
G37*
G36*
X272100D02*
X268367D01*
X268457Y195567D01*
X268875Y194557D01*
X269541Y193691D01*
X270407Y193025D01*
X271417Y192607D01*
X272100Y192517D01*
Y196250D01*
D02*
G37*
G36*
X327000Y182431D02*
X326070Y182246D01*
X325608Y181937D01*
X288392D01*
X287930Y182246D01*
X287000Y182431D01*
X286070Y182246D01*
X285281Y181719D01*
X284754Y180930D01*
X284569Y180000D01*
X284754Y179070D01*
X285281Y178281D01*
X286070Y177754D01*
X287000Y177569D01*
X287930Y177754D01*
X288392Y178063D01*
X314929D01*
X315148Y177453D01*
X315153Y177410D01*
X314570Y177246D01*
X314531Y177220D01*
X313781Y176719D01*
X313254Y175930D01*
X313069Y175000D01*
X313254Y174070D01*
X313781Y173281D01*
X314570Y172754D01*
X315500Y172569D01*
X316430Y172754D01*
X317000Y173135D01*
X317570Y172754D01*
X318500Y172569D01*
X319020Y172672D01*
X319281Y172281D01*
X320070Y171754D01*
X321000Y171569D01*
X321930Y171754D01*
X322250Y171968D01*
X322570Y171754D01*
X323500Y171569D01*
X324430Y171754D01*
X325219Y172281D01*
X325746Y173070D01*
X325931Y174000D01*
X325746Y174930D01*
X325532Y175250D01*
X325746Y175570D01*
X325931Y176500D01*
X325802Y177148D01*
X325810Y177166D01*
X326334Y177690D01*
X326352Y177698D01*
X327000Y177569D01*
X327930Y177754D01*
X328719Y178281D01*
X329246Y179070D01*
X329431Y180000D01*
X329246Y180930D01*
X328719Y181719D01*
X327930Y182246D01*
X327000Y182431D01*
D02*
G37*
G36*
X287000Y195431D02*
X286070Y195246D01*
X285281Y194719D01*
X284754Y193930D01*
X284569Y193000D01*
X284754Y192070D01*
X285063Y191608D01*
Y188302D01*
X278155Y181394D01*
X277701Y181579D01*
X277520Y181749D01*
X277684Y183000D01*
X277508Y184342D01*
X276990Y185592D01*
X276166Y186666D01*
X275092Y187490D01*
X273842Y188008D01*
X272500Y188184D01*
X271158Y188008D01*
X269908Y187490D01*
X268834Y186666D01*
X268010Y185592D01*
X267492Y184342D01*
X267316Y183000D01*
X267492Y181658D01*
X268010Y180408D01*
X268834Y179334D01*
X269908Y178510D01*
X271158Y177992D01*
X272500Y177815D01*
X273842Y177992D01*
X275092Y178510D01*
X275881Y179115D01*
X276016Y179092D01*
X276563Y178756D01*
Y175892D01*
X276254Y175430D01*
X276069Y174500D01*
X276254Y173570D01*
X276781Y172781D01*
X277570Y172254D01*
X278500Y172069D01*
X279430Y172254D01*
X280219Y172781D01*
X280746Y173570D01*
X280931Y174500D01*
X280746Y175430D01*
X280437Y175892D01*
Y178198D01*
X288370Y186130D01*
X288790Y186759D01*
X288937Y187500D01*
Y191608D01*
X289246Y192070D01*
X289431Y193000D01*
X289246Y193930D01*
X288719Y194719D01*
X287930Y195246D01*
X287000Y195431D01*
D02*
G37*
G36*
X259500Y169931D02*
X258570Y169746D01*
X257781Y169219D01*
X257254Y168430D01*
X257069Y167500D01*
X257254Y166570D01*
X257781Y165781D01*
X258570Y165254D01*
X259500Y165069D01*
X260430Y165254D01*
X261219Y165781D01*
X261746Y166570D01*
X261931Y167500D01*
X261746Y168430D01*
X261219Y169219D01*
X260430Y169746D01*
X259500Y169931D01*
D02*
G37*
G36*
X224000Y168931D02*
X223070Y168746D01*
X222281Y168219D01*
X221754Y167430D01*
X221569Y166500D01*
X221754Y165570D01*
X222281Y164781D01*
X223070Y164254D01*
X224000Y164069D01*
X224930Y164254D01*
X225719Y164781D01*
X226246Y165570D01*
X226431Y166500D01*
X226246Y167430D01*
X225719Y168219D01*
X224930Y168746D01*
X224000Y168931D01*
D02*
G37*
G36*
X249500Y161431D02*
X248570Y161246D01*
X247781Y160719D01*
X247254Y159930D01*
X247069Y159000D01*
X247254Y158070D01*
X247781Y157281D01*
X248570Y156754D01*
X249500Y156569D01*
X250430Y156754D01*
X251219Y157281D01*
X251746Y158070D01*
X251931Y159000D01*
X251746Y159930D01*
X251219Y160719D01*
X250430Y161246D01*
X249500Y161431D01*
D02*
G37*
G36*
X299900Y156831D02*
Y152900D01*
X303831D01*
X303735Y153635D01*
X303297Y154692D01*
X302600Y155600D01*
X301692Y156297D01*
X300635Y156735D01*
X299900Y156831D01*
D02*
G37*
G36*
X299100D02*
X298365Y156735D01*
X297308Y156297D01*
X296400Y155600D01*
X295703Y154692D01*
X295266Y153635D01*
X295169Y152900D01*
X299100D01*
Y156831D01*
D02*
G37*
G36*
X224500Y157431D02*
X223570Y157246D01*
X222781Y156719D01*
X222254Y155930D01*
X222069Y155000D01*
X222254Y154070D01*
X222781Y153281D01*
X223570Y152754D01*
X224500Y152569D01*
X225430Y152754D01*
X226219Y153281D01*
X226746Y154070D01*
X226931Y155000D01*
X226746Y155930D01*
X226219Y156719D01*
X225430Y157246D01*
X224500Y157431D01*
D02*
G37*
G36*
X303831Y152100D02*
X299900D01*
Y148169D01*
X300635Y148266D01*
X301692Y148703D01*
X302600Y149400D01*
X303297Y150308D01*
X303735Y151365D01*
X303831Y152100D01*
D02*
G37*
G36*
X299100D02*
X295169D01*
X295266Y151365D01*
X295703Y150308D01*
X296400Y149400D01*
X297308Y148703D01*
X298365Y148266D01*
X299100Y148169D01*
Y152100D01*
D02*
G37*
G36*
X239000Y151931D02*
X238070Y151746D01*
X237281Y151219D01*
X236754Y150430D01*
X236569Y149500D01*
X236754Y148570D01*
X237281Y147781D01*
X238070Y147254D01*
X239000Y147069D01*
X239930Y147254D01*
X240719Y147781D01*
X241246Y148570D01*
X241431Y149500D01*
X241246Y150430D01*
X240719Y151219D01*
X239930Y151746D01*
X239000Y151931D01*
D02*
G37*
G36*
X218500Y148431D02*
X217570Y148246D01*
X216781Y147719D01*
X216254Y146930D01*
X216069Y146000D01*
X216254Y145070D01*
X216781Y144281D01*
X217570Y143754D01*
X218500Y143569D01*
X219430Y143754D01*
X220219Y144281D01*
X220746Y145070D01*
X220931Y146000D01*
X220746Y146930D01*
X220219Y147719D01*
X219430Y148246D01*
X218500Y148431D01*
D02*
G37*
G36*
X288165Y147431D02*
X287235Y147246D01*
X286446Y146719D01*
X285919Y145930D01*
X285734Y145000D01*
X285919Y144070D01*
X286446Y143281D01*
X287235Y142754D01*
X288165Y142569D01*
X289095Y142754D01*
X289884Y143281D01*
X290411Y144070D01*
X290596Y145000D01*
X290411Y145930D01*
X289884Y146719D01*
X289095Y147246D01*
X288165Y147431D01*
D02*
G37*
G36*
X205000Y142931D02*
X204070Y142746D01*
X203750Y142532D01*
X203430Y142746D01*
X202500Y142931D01*
X201570Y142746D01*
X200781Y142219D01*
X200254Y141430D01*
X200069Y140500D01*
X200254Y139570D01*
X200781Y138781D01*
X201570Y138254D01*
X202500Y138069D01*
X203430Y138254D01*
X203750Y138468D01*
X204070Y138254D01*
X205000Y138069D01*
X205930Y138254D01*
X206719Y138781D01*
X207246Y139570D01*
X207431Y140500D01*
X207246Y141430D01*
X206719Y142219D01*
X205930Y142746D01*
X205000Y142931D01*
D02*
G37*
G36*
X319500Y158082D02*
X318055Y157891D01*
X316709Y157334D01*
X315553Y156447D01*
X314666Y155291D01*
X314109Y153945D01*
X313918Y152500D01*
X314109Y151055D01*
X314666Y149709D01*
X315553Y148553D01*
X316709Y147666D01*
X317053Y147524D01*
Y140514D01*
X312576Y136037D01*
X311931Y136381D01*
X311931Y136382D01*
X311746Y137312D01*
X311219Y138101D01*
X310430Y138628D01*
X309500Y138813D01*
X308570Y138628D01*
X307781Y138101D01*
X307254Y137312D01*
X307069Y136382D01*
X307254Y135452D01*
X307781Y134663D01*
X308570Y134136D01*
X309500Y133951D01*
X309501Y133951D01*
X309845Y133306D01*
X306270Y129730D01*
X305739Y128936D01*
X305553Y128000D01*
Y89500D01*
Y71000D01*
Y63014D01*
X300093Y57554D01*
X299334Y57784D01*
X299246Y58225D01*
X299009Y58579D01*
X299246Y58933D01*
X299431Y59863D01*
X299246Y60793D01*
X299009Y61147D01*
X299246Y61501D01*
X299431Y62432D01*
X299246Y63362D01*
X299009Y63716D01*
X299246Y64070D01*
X299388Y64786D01*
X300006Y65056D01*
X300103Y65066D01*
X300570Y64754D01*
X301500Y64569D01*
X302430Y64754D01*
X303219Y65281D01*
X303746Y66070D01*
X303931Y67000D01*
X303746Y67930D01*
X303219Y68719D01*
X302430Y69246D01*
X301500Y69431D01*
X300570Y69246D01*
X299879Y68784D01*
X299340D01*
X298896Y69325D01*
X298931Y69500D01*
X298746Y70430D01*
X298219Y71219D01*
X297430Y71746D01*
X296500Y71931D01*
X295570Y71746D01*
X294879Y71284D01*
X275621D01*
X274930Y71746D01*
X274000Y71931D01*
X273070Y71746D01*
X272281Y71219D01*
X271754Y70430D01*
X271569Y69500D01*
X271754Y68570D01*
X272281Y67781D01*
X273070Y67254D01*
X274000Y67069D01*
X274069Y67000D01*
X274254Y66070D01*
X274781Y65281D01*
X275570Y64754D01*
X276500Y64569D01*
X277430Y64754D01*
X278121Y65216D01*
X294392D01*
X294569Y65000D01*
X294754Y64070D01*
X294991Y63716D01*
X294754Y63362D01*
X294569Y62432D01*
X294754Y61501D01*
X294991Y61147D01*
X294754Y60793D01*
X294569Y59863D01*
X294754Y58933D01*
X294991Y58579D01*
X294754Y58225D01*
X294569Y57294D01*
X294754Y56364D01*
X295233Y55647D01*
X295151Y55320D01*
X294962Y54947D01*
X266000D01*
X265064Y54761D01*
X264270Y54230D01*
X263739Y53436D01*
X263553Y52500D01*
X263739Y51564D01*
X264270Y50770D01*
X265064Y50239D01*
X266000Y50053D01*
X298500D01*
X299436Y50239D01*
X300230Y50770D01*
X309730Y60270D01*
X310261Y61064D01*
X310447Y62000D01*
Y71000D01*
Y89500D01*
Y111065D01*
X311147Y111639D01*
X311500Y111569D01*
X312430Y111754D01*
X313219Y112281D01*
X313746Y113070D01*
X313931Y114000D01*
X313746Y114930D01*
X313219Y115719D01*
X312430Y116246D01*
X311500Y116431D01*
X311147Y116361D01*
X310447Y116935D01*
Y126986D01*
X321230Y137770D01*
X321761Y138564D01*
X321947Y139500D01*
Y147524D01*
X322291Y147666D01*
X323447Y148553D01*
X324334Y149709D01*
X324891Y151055D01*
X325082Y152500D01*
X324891Y153945D01*
X324334Y155291D01*
X323447Y156447D01*
X322291Y157334D01*
X320945Y157891D01*
X319500Y158082D01*
D02*
G37*
G36*
X181924Y138855D02*
X180994Y138670D01*
X180205Y138143D01*
X179678Y137354D01*
X179577Y136847D01*
X179070Y136746D01*
X178281Y136219D01*
X177754Y135430D01*
X177569Y134500D01*
X177754Y133570D01*
X178281Y132781D01*
X179070Y132254D01*
X180000Y132069D01*
X180930Y132254D01*
X181719Y132781D01*
X182246Y133570D01*
X182347Y134077D01*
X182854Y134178D01*
X183643Y134705D01*
X184170Y135494D01*
X184355Y136424D01*
X184170Y137354D01*
X183643Y138143D01*
X182854Y138670D01*
X181924Y138855D01*
D02*
G37*
G36*
X198950Y134981D02*
X198020Y134796D01*
X197231Y134269D01*
X196704Y133480D01*
X196519Y132550D01*
X196704Y131620D01*
X196883Y131352D01*
X196742Y131258D01*
X196215Y130469D01*
X196165Y130216D01*
X195395Y129935D01*
X194930Y130246D01*
X194000Y130431D01*
X193070Y130246D01*
X192281Y129719D01*
X191754Y128930D01*
X191569Y128000D01*
X191754Y127070D01*
X191921Y126820D01*
X192262Y126250D01*
X191921Y125680D01*
X191754Y125430D01*
X191569Y124500D01*
X191754Y123570D01*
X192135Y123000D01*
X191754Y122430D01*
X191569Y121500D01*
X191754Y120570D01*
X192281Y119781D01*
X193070Y119254D01*
X194000Y119069D01*
X194930Y119254D01*
X195719Y119781D01*
X196246Y120570D01*
X196431Y121500D01*
X196246Y122430D01*
X195865Y123000D01*
X196246Y123570D01*
X196399Y124338D01*
X196928Y124536D01*
X197100Y124549D01*
X197275Y124287D01*
X198063Y123760D01*
X198994Y123575D01*
X199924Y123760D01*
X200712Y124287D01*
X201239Y125076D01*
X201425Y126006D01*
X201239Y126937D01*
X200712Y127725D01*
X200301Y128001D01*
X200707Y128609D01*
X200892Y129539D01*
X200707Y130469D01*
X200528Y130737D01*
X200669Y130831D01*
X201196Y131620D01*
X201381Y132550D01*
X201196Y133480D01*
X200669Y134269D01*
X199880Y134796D01*
X198950Y134981D01*
D02*
G37*
G36*
X246000Y130431D02*
X245070Y130246D01*
X244281Y129719D01*
X243719D01*
X242930Y130246D01*
X242000Y130431D01*
X241070Y130246D01*
X240281Y129719D01*
X239754Y128930D01*
X239569Y128000D01*
X239754Y127070D01*
X240281Y126281D01*
X241070Y125754D01*
X242000Y125569D01*
X242930Y125754D01*
X243719Y126281D01*
X244281D01*
X245070Y125754D01*
X246000Y125569D01*
X246930Y125754D01*
X247719Y126281D01*
X248246Y127070D01*
X248431Y128000D01*
X248246Y128930D01*
X247719Y129719D01*
X246930Y130246D01*
X246000Y130431D01*
D02*
G37*
G36*
X258000Y129931D02*
X257070Y129746D01*
X256281Y129219D01*
X255719D01*
X254930Y129746D01*
X254000Y129931D01*
X253070Y129746D01*
X252281Y129219D01*
X251754Y128430D01*
X251569Y127500D01*
X251754Y126570D01*
X252281Y125781D01*
X253070Y125254D01*
X254000Y125069D01*
X254930Y125254D01*
X255392Y125562D01*
X255892Y125392D01*
X256062Y124891D01*
X255754Y124430D01*
X255569Y123500D01*
X255754Y122570D01*
X256281Y121781D01*
X257070Y121254D01*
X258000Y121069D01*
X258930Y121254D01*
X259719Y121781D01*
X260246Y122570D01*
X260431Y123500D01*
X260246Y124430D01*
X259719Y125219D01*
Y125781D01*
X260246Y126570D01*
X260431Y127500D01*
X260246Y128430D01*
X259719Y129219D01*
X258930Y129746D01*
X258000Y129931D01*
D02*
G37*
G36*
X346500Y133931D02*
X345570Y133746D01*
X344781Y133219D01*
X344254Y132430D01*
X344069Y131500D01*
X344254Y130570D01*
X344781Y129781D01*
X345570Y129254D01*
X346500Y129069D01*
X347430Y129254D01*
X348219Y129781D01*
X348746Y130570D01*
X348931Y131500D01*
X348746Y132430D01*
X348219Y133219D01*
X347430Y133746D01*
X346500Y133931D01*
D02*
G37*
G36*
X228000Y131931D02*
X227070Y131746D01*
X226281Y131219D01*
X225754Y130430D01*
X225569Y129500D01*
X225754Y128570D01*
X226281Y127781D01*
X227070Y127254D01*
X228000Y127069D01*
X228930Y127254D01*
X229719Y127781D01*
X230246Y128570D01*
X230431Y129500D01*
X230246Y130430D01*
X229719Y131219D01*
X228930Y131746D01*
X228000Y131931D01*
D02*
G37*
G36*
X254500Y151431D02*
X253570Y151246D01*
X252781Y150719D01*
X252254Y149930D01*
X252069Y149000D01*
X252254Y148070D01*
X252781Y147281D01*
X253570Y146754D01*
X254500Y146569D01*
X255430Y146754D01*
X255892Y147063D01*
X257198D01*
X276644Y127616D01*
X276577Y127297D01*
X276366Y126904D01*
X275570Y126746D01*
X274781Y126219D01*
X274254Y125430D01*
X274069Y124500D01*
X274254Y123570D01*
X274781Y122781D01*
X275570Y122254D01*
X276500Y122069D01*
X277430Y122254D01*
X278219Y122781D01*
X278746Y123570D01*
X278904Y124366D01*
X279297Y124577D01*
X279616Y124644D01*
X284630Y119630D01*
X285259Y119210D01*
X286000Y119063D01*
X288108D01*
X288570Y118754D01*
X289500Y118569D01*
X290430Y118754D01*
X291219Y119281D01*
X291746Y120070D01*
X291931Y121000D01*
X291746Y121930D01*
X291219Y122719D01*
X290430Y123246D01*
X289500Y123431D01*
X288570Y123246D01*
X288108Y122937D01*
X286802D01*
X259370Y150370D01*
X258741Y150790D01*
X258000Y150937D01*
X255892D01*
X255430Y151246D01*
X254500Y151431D01*
D02*
G37*
G36*
X266000Y120431D02*
X265070Y120246D01*
X264281Y119719D01*
X263754Y118930D01*
X263666Y118485D01*
X263607Y118190D01*
X262893D01*
X262834Y118485D01*
X262746Y118930D01*
X262219Y119719D01*
X261430Y120246D01*
X260500Y120431D01*
X259570Y120246D01*
X258781Y119719D01*
X258254Y118930D01*
X258069Y118000D01*
X258254Y117070D01*
X258781Y116281D01*
X259570Y115754D01*
X260500Y115569D01*
X261430Y115754D01*
X262219Y116281D01*
X262746Y117070D01*
X262834Y117515D01*
X262893Y117810D01*
X263607D01*
X263666Y117515D01*
X263754Y117070D01*
X264281Y116281D01*
X265070Y115754D01*
X266000Y115569D01*
X266930Y115754D01*
X267719Y116281D01*
X268246Y117070D01*
X268431Y118000D01*
X268246Y118930D01*
X267719Y119719D01*
X266930Y120246D01*
X266000Y120431D01*
D02*
G37*
G36*
X314000Y126931D02*
X313070Y126746D01*
X312281Y126219D01*
X311754Y125430D01*
X311569Y124500D01*
X311754Y123570D01*
X312281Y122781D01*
X312868Y122389D01*
X312895Y122302D01*
Y121698D01*
X312868Y121611D01*
X312281Y121219D01*
X311754Y120430D01*
X311569Y119500D01*
X311754Y118570D01*
X312281Y117781D01*
X313070Y117254D01*
X314000Y117069D01*
X314930Y117254D01*
X315719Y117781D01*
X316246Y118570D01*
X316431Y119500D01*
X316246Y120430D01*
X315719Y121219D01*
X315132Y121611D01*
X315105Y121698D01*
Y122302D01*
X315132Y122389D01*
X315719Y122781D01*
X316246Y123570D01*
X316431Y124500D01*
X316246Y125430D01*
X315719Y126219D01*
X314930Y126746D01*
X314000Y126931D01*
D02*
G37*
G36*
X297500Y121931D02*
X296570Y121746D01*
X295781Y121219D01*
X295254Y120430D01*
X295069Y119500D01*
X295254Y118570D01*
X295781Y117781D01*
X296570Y117254D01*
X297500Y117069D01*
X298430Y117254D01*
X299219Y117781D01*
X299746Y118570D01*
X299931Y119500D01*
X299746Y120430D01*
X299219Y121219D01*
X298430Y121746D01*
X297500Y121931D01*
D02*
G37*
G36*
X220500Y118931D02*
X219570Y118746D01*
X218781Y118219D01*
X218254Y117430D01*
X218069Y116500D01*
X218254Y115570D01*
X218781Y114781D01*
X219570Y114254D01*
X220500Y114069D01*
X221430Y114254D01*
X222219Y114781D01*
X222746Y115570D01*
X222931Y116500D01*
X222746Y117430D01*
X222219Y118219D01*
X221430Y118746D01*
X220500Y118931D01*
D02*
G37*
G36*
X256000Y113931D02*
X255070Y113746D01*
X254281Y113219D01*
X254093Y112937D01*
X220392D01*
X219930Y113246D01*
X219000Y113431D01*
X218070Y113246D01*
X217281Y112719D01*
X216754Y111930D01*
X216569Y111000D01*
X216754Y110070D01*
X217281Y109281D01*
X218070Y108754D01*
X219000Y108569D01*
X219930Y108754D01*
X220392Y109063D01*
X255238D01*
X255635Y109142D01*
X256000Y109069D01*
X256930Y109254D01*
X257719Y109781D01*
X258246Y110570D01*
X258431Y111500D01*
X258246Y112430D01*
X257719Y113219D01*
X256930Y113746D01*
X256000Y113931D01*
D02*
G37*
G36*
X196284Y117431D02*
X195354Y117246D01*
X194565Y116719D01*
X194038Y115930D01*
X193853Y115000D01*
X194038Y114070D01*
X194565Y113281D01*
X195354Y112754D01*
X196284Y112569D01*
X197133Y112738D01*
X197235Y112685D01*
X197395Y112556D01*
X197691Y112231D01*
X197546Y111500D01*
X197731Y110570D01*
X198258Y109781D01*
X199046Y109254D01*
X199977Y109069D01*
X200907Y109254D01*
X201696Y109781D01*
X202223Y110570D01*
X202408Y111500D01*
X202223Y112430D01*
X201696Y113219D01*
X200907Y113746D01*
X199977Y113931D01*
X199128Y113762D01*
X199026Y113815D01*
X198866Y113944D01*
X198570Y114269D01*
X198715Y115000D01*
X198530Y115930D01*
X198003Y116719D01*
X197214Y117246D01*
X196284Y117431D01*
D02*
G37*
G36*
X188500Y112931D02*
X187570Y112746D01*
X186781Y112219D01*
X186254Y111430D01*
X186069Y110500D01*
X186254Y109570D01*
X186781Y108781D01*
X187570Y108254D01*
X188500Y108069D01*
X189430Y108254D01*
X190219Y108781D01*
X190746Y109570D01*
X190931Y110500D01*
X190746Y111430D01*
X190219Y112219D01*
X189430Y112746D01*
X188500Y112931D01*
D02*
G37*
G36*
X266000Y111931D02*
X265070Y111746D01*
X264281Y111219D01*
X263754Y110430D01*
X263569Y109500D01*
X263754Y108570D01*
X264281Y107781D01*
X265070Y107254D01*
X266000Y107069D01*
X266930Y107254D01*
X267719Y107781D01*
X268246Y108570D01*
X268431Y109500D01*
X268246Y110430D01*
X267719Y111219D01*
X266930Y111746D01*
X266000Y111931D01*
D02*
G37*
G36*
X356500Y111431D02*
X355570Y111246D01*
X354781Y110719D01*
X354254Y109930D01*
X354069Y109000D01*
X354254Y108070D01*
X354781Y107281D01*
X355570Y106754D01*
X356500Y106569D01*
X357430Y106754D01*
X358219Y107281D01*
X358746Y108070D01*
X358931Y109000D01*
X358746Y109930D01*
X358219Y110719D01*
X357430Y111246D01*
X356500Y111431D01*
D02*
G37*
G36*
X373000Y106431D02*
X372070Y106246D01*
X371281Y105719D01*
X370754Y104930D01*
X370569Y104000D01*
X370754Y103070D01*
X371281Y102281D01*
X372070Y101754D01*
X373000Y101569D01*
X373930Y101754D01*
X374719Y102281D01*
X375246Y103070D01*
X375431Y104000D01*
X375246Y104930D01*
X374719Y105719D01*
X373930Y106246D01*
X373000Y106431D01*
D02*
G37*
G36*
X243500Y107931D02*
X242570Y107746D01*
X241781Y107219D01*
X241254Y106430D01*
X241069Y105500D01*
X241254Y104570D01*
X241781Y103781D01*
X242570Y103254D01*
X242764Y103215D01*
X242622Y102500D01*
X242807Y101570D01*
X243334Y100781D01*
X244123Y100254D01*
X245053Y100069D01*
X245983Y100254D01*
X246337Y100491D01*
X246691Y100254D01*
X247621Y100069D01*
X248552Y100254D01*
X248905Y100491D01*
X249259Y100254D01*
X250190Y100069D01*
X251120Y100254D01*
X251474Y100491D01*
X251828Y100254D01*
X252758Y100069D01*
X253689Y100254D01*
X254477Y100781D01*
X255004Y101570D01*
X255189Y102500D01*
X255004Y103430D01*
X254477Y104219D01*
X253689Y104746D01*
X252758Y104931D01*
X251828Y104746D01*
X251474Y104509D01*
X251120Y104746D01*
X250190Y104931D01*
X249259Y104746D01*
X248905Y104509D01*
X248552Y104746D01*
X247621Y104931D01*
X246691Y104746D01*
X246419Y104564D01*
X245808Y104882D01*
X245931Y105500D01*
X245746Y106430D01*
X245219Y107219D01*
X244430Y107746D01*
X243500Y107931D01*
D02*
G37*
G36*
X233500Y106431D02*
X232570Y106246D01*
X231781Y105719D01*
X231254Y104930D01*
X231069Y104000D01*
X231254Y103070D01*
X231781Y102281D01*
X232570Y101754D01*
X233500Y101569D01*
X233569Y101500D01*
X233754Y100570D01*
X234281Y99781D01*
X235070Y99254D01*
X236000Y99069D01*
X236930Y99254D01*
X237719Y99781D01*
X238246Y100570D01*
X238431Y101500D01*
X238246Y102430D01*
X237719Y103219D01*
X236930Y103746D01*
X236000Y103931D01*
X235931Y104000D01*
X235746Y104930D01*
X235219Y105719D01*
X234430Y106246D01*
X233500Y106431D01*
D02*
G37*
G36*
X220000Y98931D02*
X219070Y98746D01*
X218281Y98219D01*
X217837Y97554D01*
X217571Y97410D01*
X217024Y97349D01*
X216430Y97746D01*
X215500Y97931D01*
X214570Y97746D01*
X213781Y97219D01*
X213254Y96430D01*
X213069Y95500D01*
X213254Y94570D01*
X213781Y93781D01*
X214570Y93254D01*
X215115Y93146D01*
X221546Y86714D01*
X222174Y86295D01*
X222916Y86147D01*
X226121D01*
X226658Y85447D01*
X226569Y85000D01*
X226694Y84370D01*
X226070Y84246D01*
X225281Y83719D01*
X224754Y82930D01*
X224569Y82000D01*
X224754Y81070D01*
X225281Y80281D01*
X226070Y79754D01*
X227000Y79569D01*
X227930Y79754D01*
X228719Y80281D01*
X229246Y81070D01*
X229431Y82000D01*
X229306Y82630D01*
X229930Y82754D01*
X230719Y83281D01*
X231246Y84070D01*
X231431Y85000D01*
X231342Y85447D01*
X231879Y86147D01*
X258410D01*
X258622Y85447D01*
X258281Y85219D01*
X257754Y84430D01*
X257569Y83500D01*
X257754Y82570D01*
X258281Y81781D01*
Y81553D01*
X257781Y81219D01*
X257254Y80430D01*
X257069Y79500D01*
X257254Y78570D01*
X257781Y77781D01*
X258570Y77254D01*
X259500Y77069D01*
X260430Y77254D01*
X261219Y77781D01*
X261746Y78570D01*
X261931Y79500D01*
X261746Y80430D01*
X261219Y81219D01*
Y81447D01*
X261719Y81781D01*
X262246Y82570D01*
X262431Y83500D01*
X262246Y84430D01*
X261719Y85219D01*
X261378Y85447D01*
X261590Y86147D01*
X269982D01*
X270570Y85754D01*
X271500Y85569D01*
X272430Y85754D01*
X272892Y86063D01*
X279698D01*
X291130Y74630D01*
X291759Y74210D01*
X292500Y74063D01*
X294608D01*
X295070Y73754D01*
X296000Y73569D01*
X296930Y73754D01*
X297719Y74281D01*
X298246Y75070D01*
X298431Y76000D01*
X298246Y76930D01*
X297719Y77719D01*
X296930Y78246D01*
X296000Y78431D01*
X295070Y78246D01*
X294608Y77937D01*
X293302D01*
X281870Y89370D01*
X281241Y89790D01*
X280500Y89937D01*
X272892D01*
X272430Y90246D01*
X271500Y90431D01*
X270570Y90246D01*
X270234Y90022D01*
X250835D01*
X250766Y90721D01*
X250930Y90754D01*
X251719Y91281D01*
X252246Y92070D01*
X252431Y93000D01*
X252246Y93930D01*
X251719Y94719D01*
X250930Y95246D01*
X250000Y95431D01*
X249070Y95246D01*
X248820Y95079D01*
X248250Y94738D01*
X247680Y95079D01*
X247430Y95246D01*
X246500Y95431D01*
X245570Y95246D01*
X244781Y94719D01*
X244254Y93930D01*
X244069Y93000D01*
X244254Y92070D01*
X244781Y91281D01*
X245570Y90754D01*
X245734Y90721D01*
X245665Y90022D01*
X240657D01*
X240276Y90721D01*
X240431Y91500D01*
X240246Y92430D01*
X239719Y93219D01*
X238930Y93746D01*
X238000Y93931D01*
X237070Y93746D01*
X236281Y93219D01*
X235754Y92430D01*
X235569Y91500D01*
X235724Y90721D01*
X235343Y90022D01*
X223718D01*
X220321Y93419D01*
X220551Y94179D01*
X220930Y94254D01*
X221719Y94781D01*
X222246Y95570D01*
X222431Y96500D01*
X222246Y97430D01*
X221719Y98219D01*
X220930Y98746D01*
X220000Y98931D01*
D02*
G37*
G36*
X386000Y101431D02*
X385070Y101246D01*
X384281Y100719D01*
X383754Y99930D01*
X383569Y99000D01*
X383754Y98070D01*
X384281Y97281D01*
X385070Y96754D01*
X386000Y96569D01*
X386930Y96754D01*
X387719Y97281D01*
X388246Y98070D01*
X388431Y99000D01*
X388246Y99930D01*
X387719Y100719D01*
X386930Y101246D01*
X386000Y101431D01*
D02*
G37*
G36*
X230500D02*
X229570Y101246D01*
X228781Y100719D01*
X228254Y99930D01*
X228069Y99000D01*
X228254Y98070D01*
X228781Y97281D01*
X229570Y96754D01*
X230500Y96569D01*
X231430Y96754D01*
X232219Y97281D01*
X232746Y98070D01*
X232931Y99000D01*
X232746Y99930D01*
X232219Y100719D01*
X231430Y101246D01*
X230500Y101431D01*
D02*
G37*
G36*
X240000Y99931D02*
X239070Y99746D01*
X238281Y99219D01*
X237754Y98430D01*
X237569Y97500D01*
X237754Y96570D01*
X238281Y95781D01*
X239070Y95254D01*
X240000Y95069D01*
X240930Y95254D01*
X241719Y95781D01*
X242246Y96570D01*
X242431Y97500D01*
X242246Y98430D01*
X241719Y99219D01*
X240930Y99746D01*
X240000Y99931D01*
D02*
G37*
G36*
X267000Y99431D02*
X266070Y99246D01*
X265281Y98719D01*
X264754Y97930D01*
X264569Y97000D01*
X264754Y96070D01*
X265281Y95281D01*
X266070Y94754D01*
X267000Y94569D01*
X267488Y94666D01*
X268085Y94080D01*
X268069Y94000D01*
X268254Y93070D01*
X268781Y92281D01*
X269570Y91754D01*
X270500Y91569D01*
X271430Y91754D01*
X272219Y92281D01*
X272746Y93070D01*
X272931Y94000D01*
X272746Y94930D01*
X272219Y95719D01*
X271430Y96246D01*
X270500Y96431D01*
X270012Y96334D01*
X269415Y96920D01*
X269431Y97000D01*
X269246Y97930D01*
X268719Y98719D01*
X267930Y99246D01*
X267000Y99431D01*
D02*
G37*
G36*
X378000Y91431D02*
X377070Y91246D01*
X376281Y90719D01*
X375754Y89930D01*
X375569Y89000D01*
X375754Y88070D01*
X376281Y87281D01*
X377070Y86754D01*
X378000Y86569D01*
X378930Y86754D01*
X379719Y87281D01*
X380246Y88070D01*
X380431Y89000D01*
X380246Y89930D01*
X379719Y90719D01*
X378930Y91246D01*
X378000Y91431D01*
D02*
G37*
G36*
X235500Y84431D02*
X234570Y84246D01*
X233781Y83719D01*
X233254Y82930D01*
X233069Y82000D01*
X233254Y81070D01*
X233781Y80281D01*
X234570Y79754D01*
X235500Y79569D01*
X236430Y79754D01*
X237219Y80281D01*
X237746Y81070D01*
X237931Y82000D01*
X237746Y82930D01*
X237219Y83719D01*
X236430Y84246D01*
X235500Y84431D01*
D02*
G37*
G36*
X200312Y100565D02*
X195687D01*
X194873Y100403D01*
X194183Y99941D01*
X193721Y99251D01*
X193559Y98436D01*
Y94311D01*
X193721Y93497D01*
X194183Y92807D01*
X194831Y92373D01*
X194876Y92326D01*
X194985Y91609D01*
X194790Y91460D01*
X194125Y90593D01*
X193707Y89583D01*
X193564Y88500D01*
X193707Y87417D01*
X194125Y86407D01*
X194790Y85540D01*
X195544Y84962D01*
X195607Y84563D01*
X195544Y84164D01*
X194790Y83586D01*
X194125Y82719D01*
X193707Y81709D01*
X193564Y80626D01*
X193707Y79543D01*
X194125Y78533D01*
X194790Y77666D01*
X195657Y77001D01*
X196018Y76851D01*
Y76094D01*
X195859Y76028D01*
X195076Y75427D01*
X194474Y74643D01*
X194097Y73731D01*
X194020Y73152D01*
X198000D01*
X201980D01*
X201904Y73731D01*
X201526Y74643D01*
X200924Y75427D01*
X200141Y76028D01*
X199982Y76094D01*
Y76851D01*
X200343Y77001D01*
X201210Y77666D01*
X201875Y78533D01*
X202293Y79543D01*
X202436Y80626D01*
X202293Y81709D01*
X201875Y82719D01*
X201210Y83586D01*
X200456Y84164D01*
X200393Y84563D01*
X200456Y84962D01*
X201210Y85540D01*
X201875Y86407D01*
X202293Y87417D01*
X202436Y88500D01*
X202293Y89583D01*
X201875Y90593D01*
X201210Y91460D01*
X201015Y91609D01*
X201124Y92326D01*
X201169Y92373D01*
X201817Y92807D01*
X202279Y93497D01*
X202441Y94311D01*
Y98436D01*
X202279Y99251D01*
X201817Y99941D01*
X201127Y100403D01*
X200312Y100565D01*
D02*
G37*
G36*
X286000Y76931D02*
X285070Y76746D01*
X284281Y76219D01*
X283754Y75430D01*
X283569Y74500D01*
X283754Y73570D01*
X284281Y72781D01*
X285070Y72254D01*
X286000Y72069D01*
X286930Y72254D01*
X287719Y72781D01*
X288246Y73570D01*
X288431Y74500D01*
X288246Y75430D01*
X287719Y76219D01*
X286930Y76746D01*
X286000Y76931D01*
D02*
G37*
G36*
X201980Y72352D02*
X198400D01*
Y68989D01*
X199229Y69099D01*
X200141Y69476D01*
X200924Y70077D01*
X201526Y70861D01*
X201904Y71773D01*
X201980Y72352D01*
D02*
G37*
G36*
X197600D02*
X194020D01*
X194097Y71773D01*
X194474Y70861D01*
X195076Y70077D01*
X195859Y69476D01*
X196771Y69099D01*
X197600Y68989D01*
Y72352D01*
D02*
G37*
G36*
X248500Y73431D02*
X247570Y73246D01*
X246781Y72719D01*
X246254Y71930D01*
X246069Y71000D01*
X246254Y70070D01*
X246781Y69281D01*
X247570Y68754D01*
X248500Y68569D01*
X249430Y68754D01*
X250219Y69281D01*
X250746Y70070D01*
X250931Y71000D01*
X250746Y71930D01*
X250219Y72719D01*
X249430Y73246D01*
X248500Y73431D01*
D02*
G37*
G36*
X376000Y55431D02*
X375070Y55246D01*
X374281Y54719D01*
X373754Y53930D01*
X373569Y53000D01*
X373754Y52070D01*
X374281Y51281D01*
X375070Y50754D01*
X376000Y50569D01*
X376930Y50754D01*
X377719Y51281D01*
X378246Y52070D01*
X378431Y53000D01*
X378246Y53930D01*
X377719Y54719D01*
X376930Y55246D01*
X376000Y55431D01*
D02*
G37*
G36*
X395100Y53331D02*
X394365Y53235D01*
X393308Y52797D01*
X392400Y52100D01*
X391703Y51192D01*
X391265Y50135D01*
X391169Y49400D01*
X395100D01*
Y53331D01*
D02*
G37*
G36*
X207500Y48431D02*
X206570Y48246D01*
X206108Y47937D01*
X198392D01*
X197930Y48246D01*
X197000Y48431D01*
X196070Y48246D01*
X195281Y47719D01*
X194754Y46930D01*
X194569Y46000D01*
X194754Y45070D01*
X195043Y44637D01*
X194669Y43937D01*
X189892D01*
X189430Y44246D01*
X188500Y44431D01*
X187570Y44246D01*
X186781Y43719D01*
X186254Y42930D01*
X186069Y42000D01*
X186254Y41070D01*
X186781Y40281D01*
X187570Y39754D01*
X188500Y39569D01*
X189430Y39754D01*
X189892Y40063D01*
X206108D01*
X206570Y39754D01*
X207500Y39569D01*
X208430Y39754D01*
X209219Y40281D01*
X209746Y41070D01*
X209931Y42000D01*
X209746Y42930D01*
X209219Y43719D01*
Y44281D01*
X209746Y45070D01*
X209931Y46000D01*
X209746Y46930D01*
X209219Y47719D01*
X208430Y48246D01*
X207500Y48431D01*
D02*
G37*
G36*
X395100Y48600D02*
X391169D01*
X391265Y47865D01*
X391703Y46808D01*
X392400Y45900D01*
X393308Y45203D01*
X394365Y44765D01*
X395100Y44669D01*
Y48600D01*
D02*
G37*
G36*
X224000Y48931D02*
X223070Y48746D01*
X222281Y48219D01*
X221754Y47430D01*
X221569Y46500D01*
X221754Y45570D01*
X222281Y44781D01*
X223070Y44254D01*
X224000Y44069D01*
X224930Y44254D01*
X225719Y44781D01*
X226246Y45570D01*
X226431Y46500D01*
X226246Y47430D01*
X225719Y48219D01*
X224930Y48746D01*
X224000Y48931D01*
D02*
G37*
G36*
X395100Y43331D02*
X394365Y43235D01*
X393308Y42797D01*
X392400Y42100D01*
X391703Y41192D01*
X391265Y40135D01*
X391169Y39400D01*
X395100D01*
Y43331D01*
D02*
G37*
G36*
Y38600D02*
X391169D01*
X391265Y37865D01*
X391703Y36808D01*
X392400Y35900D01*
X393308Y35203D01*
X394365Y34765D01*
X395100Y34669D01*
Y38600D01*
D02*
G37*
G36*
Y33331D02*
X394365Y33235D01*
X393308Y32797D01*
X392400Y32100D01*
X391703Y31192D01*
X391265Y30135D01*
X391169Y29400D01*
X395100D01*
Y33331D01*
D02*
G37*
G36*
Y28600D02*
X391169D01*
X391265Y27865D01*
X391703Y26808D01*
X392400Y25900D01*
X393308Y25203D01*
X394365Y24765D01*
X395100Y24669D01*
Y28600D01*
D02*
G37*
G36*
X365500Y63787D02*
X364261Y63624D01*
X363106Y63146D01*
X362115Y62385D01*
X361354Y61394D01*
X360876Y60239D01*
X360713Y59000D01*
X360876Y57761D01*
X361354Y56606D01*
X362115Y55615D01*
X363106Y54854D01*
X364261Y54376D01*
X364433Y54353D01*
Y53647D01*
X364261Y53624D01*
X363106Y53146D01*
X362115Y52385D01*
X361354Y51394D01*
X360876Y50239D01*
X360713Y49000D01*
X360876Y47761D01*
X361354Y46606D01*
X362115Y45615D01*
X363106Y44854D01*
X364261Y44376D01*
X364433Y44353D01*
Y43647D01*
X364261Y43624D01*
X363106Y43146D01*
X362115Y42385D01*
X361354Y41394D01*
X360876Y40239D01*
X360713Y39000D01*
X360876Y37761D01*
X361354Y36606D01*
X362115Y35615D01*
X363106Y34854D01*
X364261Y34376D01*
X364433Y34353D01*
Y33647D01*
X364261Y33624D01*
X363106Y33146D01*
X362115Y32385D01*
X361354Y31394D01*
X360876Y30239D01*
X360713Y29000D01*
X360876Y27761D01*
X361354Y26606D01*
X362115Y25615D01*
X363106Y24854D01*
X364261Y24376D01*
X365500Y24213D01*
X366739Y24376D01*
X367894Y24854D01*
X368885Y25615D01*
X369646Y26606D01*
X370124Y27761D01*
X370287Y29000D01*
X370124Y30239D01*
X369646Y31394D01*
X368885Y32385D01*
X367894Y33146D01*
X366739Y33624D01*
X366567Y33647D01*
Y34353D01*
X366739Y34376D01*
X367894Y34854D01*
X368885Y35615D01*
X369646Y36606D01*
X370124Y37761D01*
X370287Y39000D01*
X370124Y40239D01*
X369646Y41394D01*
X368885Y42385D01*
X367894Y43146D01*
X366739Y43624D01*
X366567Y43647D01*
Y44353D01*
X366739Y44376D01*
X367894Y44854D01*
X368885Y45615D01*
X369646Y46606D01*
X370124Y47761D01*
X370287Y49000D01*
X370124Y50239D01*
X369646Y51394D01*
X368885Y52385D01*
X367894Y53146D01*
X366739Y53624D01*
X366567Y53647D01*
Y54353D01*
X366739Y54376D01*
X367894Y54854D01*
X368885Y55615D01*
X369646Y56606D01*
X370124Y57761D01*
X370287Y59000D01*
X370124Y60239D01*
X369646Y61394D01*
X368885Y62385D01*
X367894Y63146D01*
X366739Y63624D01*
X365500Y63787D01*
D02*
G37*
G36*
X285000Y243287D02*
X283761Y243124D01*
X282606Y242646D01*
X281615Y241885D01*
X280854Y240894D01*
X280447Y239910D01*
X279747Y240049D01*
Y243247D01*
X270253D01*
Y233753D01*
X279747D01*
Y236951D01*
X280447Y237090D01*
X280854Y236106D01*
X281615Y235115D01*
X282606Y234354D01*
X283761Y233876D01*
X285000Y233713D01*
X286239Y233876D01*
X287394Y234354D01*
X288385Y235115D01*
X289146Y236106D01*
X289624Y237261D01*
X289787Y238500D01*
X289624Y239739D01*
X289146Y240894D01*
X288385Y241885D01*
X287394Y242646D01*
X286239Y243124D01*
X285000Y243287D01*
D02*
G37*
G36*
X295400Y242831D02*
Y238900D01*
X299331D01*
X299235Y239635D01*
X298797Y240692D01*
X298100Y241600D01*
X297192Y242297D01*
X296135Y242735D01*
X295400Y242831D01*
D02*
G37*
G36*
X294600D02*
X293865Y242735D01*
X292808Y242297D01*
X291900Y241600D01*
X291203Y240692D01*
X290765Y239635D01*
X290669Y238900D01*
X294600D01*
Y242831D01*
D02*
G37*
G36*
X237900D02*
Y238900D01*
X241831D01*
X241735Y239635D01*
X241297Y240692D01*
X240600Y241600D01*
X239692Y242297D01*
X238635Y242735D01*
X237900Y242831D01*
D02*
G37*
G36*
X237100D02*
X236365Y242735D01*
X235308Y242297D01*
X234400Y241600D01*
X233703Y240692D01*
X233265Y239635D01*
X233169Y238900D01*
X237100D01*
Y242831D01*
D02*
G37*
G36*
X299331Y238100D02*
X295400D01*
Y234169D01*
X296135Y234265D01*
X297192Y234703D01*
X298100Y235400D01*
X298797Y236308D01*
X299235Y237365D01*
X299331Y238100D01*
D02*
G37*
G36*
X294600D02*
X290669D01*
X290765Y237365D01*
X291203Y236308D01*
X291900Y235400D01*
X292808Y234703D01*
X293865Y234265D01*
X294600Y234169D01*
Y238100D01*
D02*
G37*
G36*
X241831D02*
X237900D01*
Y234169D01*
X238635Y234265D01*
X239692Y234703D01*
X240600Y235400D01*
X241297Y236308D01*
X241735Y237365D01*
X241831Y238100D01*
D02*
G37*
G36*
X237100D02*
X233169D01*
X233265Y237365D01*
X233703Y236308D01*
X234400Y235400D01*
X235308Y234703D01*
X236365Y234265D01*
X237100Y234169D01*
Y238100D01*
D02*
G37*
G36*
X247500Y243287D02*
X246261Y243124D01*
X245106Y242646D01*
X244115Y241885D01*
X243354Y240894D01*
X242876Y239739D01*
X242713Y238500D01*
X242876Y237261D01*
X243354Y236106D01*
X244115Y235115D01*
X245106Y234354D01*
X246261Y233876D01*
X247500Y233713D01*
X248739Y233876D01*
X249894Y234354D01*
X250885Y235115D01*
X251646Y236106D01*
X252124Y237261D01*
X252287Y238500D01*
X252124Y239739D01*
X251646Y240894D01*
X250885Y241885D01*
X249894Y242646D01*
X248739Y243124D01*
X247500Y243287D01*
D02*
G37*
G36*
X268500Y221931D02*
X267570Y221746D01*
X266781Y221219D01*
X266254Y220430D01*
X266069Y219500D01*
X266254Y218570D01*
X266781Y217781D01*
X267570Y217254D01*
X268500Y217069D01*
X269430Y217254D01*
X270219Y217781D01*
X270746Y218570D01*
X270931Y219500D01*
X270746Y220430D01*
X270219Y221219D01*
X269430Y221746D01*
X268500Y221931D01*
D02*
G37*
G36*
X190000Y243287D02*
X188761Y243124D01*
X187606Y242646D01*
X186615Y241885D01*
X185854Y240894D01*
X185447Y239910D01*
X184747Y240049D01*
Y243247D01*
X175253D01*
Y233753D01*
X184747D01*
Y236951D01*
X185447Y237090D01*
X185854Y236106D01*
X186615Y235115D01*
X187606Y234354D01*
X188761Y233876D01*
X190000Y233713D01*
X191239Y233876D01*
X192394Y234354D01*
X193385Y235115D01*
X194146Y236106D01*
X194624Y237261D01*
X194787Y238500D01*
X194624Y239739D01*
X194146Y240894D01*
X193385Y241885D01*
X192394Y242646D01*
X191239Y243124D01*
X190000Y243287D01*
D02*
G37*
G36*
X200400Y242831D02*
Y238900D01*
X204331D01*
X204235Y239635D01*
X203797Y240692D01*
X203100Y241600D01*
X202192Y242297D01*
X201135Y242735D01*
X200400Y242831D01*
D02*
G37*
G36*
X199600D02*
X198865Y242735D01*
X197808Y242297D01*
X196900Y241600D01*
X196203Y240692D01*
X195765Y239635D01*
X195669Y238900D01*
X199600D01*
Y242831D01*
D02*
G37*
G36*
X142900D02*
Y238900D01*
X146831D01*
X146735Y239635D01*
X146297Y240692D01*
X145600Y241600D01*
X144692Y242297D01*
X143635Y242735D01*
X142900Y242831D01*
D02*
G37*
G36*
X142100D02*
X141365Y242735D01*
X140308Y242297D01*
X139400Y241600D01*
X138703Y240692D01*
X138265Y239635D01*
X138169Y238900D01*
X142100D01*
Y242831D01*
D02*
G37*
G36*
X215000Y243431D02*
X214070Y243246D01*
X213281Y242719D01*
X212754Y241930D01*
X212569Y241000D01*
X212754Y240070D01*
X213281Y239281D01*
X214070Y238754D01*
X215000Y238569D01*
X215930Y238754D01*
X216719Y239281D01*
X217246Y240070D01*
X217431Y241000D01*
X217246Y241930D01*
X216719Y242719D01*
X215930Y243246D01*
X215000Y243431D01*
D02*
G37*
G36*
X204331Y238100D02*
X200400D01*
Y234169D01*
X201135Y234265D01*
X202192Y234703D01*
X203100Y235400D01*
X203797Y236308D01*
X204235Y237365D01*
X204331Y238100D01*
D02*
G37*
G36*
X199600D02*
X195669D01*
X195765Y237365D01*
X196203Y236308D01*
X196900Y235400D01*
X197808Y234703D01*
X198865Y234265D01*
X199600Y234169D01*
Y238100D01*
D02*
G37*
G36*
X146831D02*
X142900D01*
Y234169D01*
X143635Y234265D01*
X144692Y234703D01*
X145600Y235400D01*
X146297Y236308D01*
X146735Y237365D01*
X146831Y238100D01*
D02*
G37*
G36*
X142100D02*
X138169D01*
X138265Y237365D01*
X138703Y236308D01*
X139400Y235400D01*
X140308Y234703D01*
X141365Y234265D01*
X142100Y234169D01*
Y238100D01*
D02*
G37*
G36*
X152500Y243287D02*
X151261Y243124D01*
X150106Y242646D01*
X149115Y241885D01*
X148354Y240894D01*
X147876Y239739D01*
X147713Y238500D01*
X147876Y237261D01*
X148354Y236106D01*
X149115Y235115D01*
X150106Y234354D01*
X151261Y233876D01*
X152500Y233713D01*
X153739Y233876D01*
X154894Y234354D01*
X155885Y235115D01*
X156646Y236106D01*
X157124Y237261D01*
X157287Y238500D01*
X157124Y239739D01*
X156646Y240894D01*
X155885Y241885D01*
X154894Y242646D01*
X153739Y243124D01*
X152500Y243287D01*
D02*
G37*
G36*
X95000D02*
X93761Y243124D01*
X92606Y242646D01*
X91615Y241885D01*
X90854Y240894D01*
X90447Y239910D01*
X89746Y240049D01*
Y243247D01*
X80253D01*
Y233753D01*
X89746D01*
Y236951D01*
X90447Y237090D01*
X90854Y236106D01*
X91615Y235115D01*
X92606Y234354D01*
X93761Y233876D01*
X95000Y233713D01*
X96239Y233876D01*
X97394Y234354D01*
X98385Y235115D01*
X99146Y236106D01*
X99624Y237261D01*
X99787Y238500D01*
X99624Y239739D01*
X99146Y240894D01*
X98385Y241885D01*
X97394Y242646D01*
X96239Y243124D01*
X95000Y243287D01*
D02*
G37*
G36*
X105400Y242831D02*
Y238900D01*
X109331D01*
X109235Y239635D01*
X108797Y240692D01*
X108100Y241600D01*
X107192Y242297D01*
X106135Y242735D01*
X105400Y242831D01*
D02*
G37*
G36*
X104600D02*
X103865Y242735D01*
X102808Y242297D01*
X101900Y241600D01*
X101203Y240692D01*
X100765Y239635D01*
X100669Y238900D01*
X104600D01*
Y242831D01*
D02*
G37*
G36*
X47900D02*
Y238900D01*
X51831D01*
X51735Y239635D01*
X51297Y240692D01*
X50600Y241600D01*
X49692Y242297D01*
X48635Y242735D01*
X47900Y242831D01*
D02*
G37*
G36*
X47100D02*
X46365Y242735D01*
X45308Y242297D01*
X44400Y241600D01*
X43703Y240692D01*
X43265Y239635D01*
X43169Y238900D01*
X47100D01*
Y242831D01*
D02*
G37*
G36*
X109331Y238100D02*
X105400D01*
Y234169D01*
X106135Y234265D01*
X107192Y234703D01*
X108100Y235400D01*
X108797Y236308D01*
X109235Y237365D01*
X109331Y238100D01*
D02*
G37*
G36*
X104600D02*
X100669D01*
X100765Y237365D01*
X101203Y236308D01*
X101900Y235400D01*
X102808Y234703D01*
X103865Y234265D01*
X104600Y234169D01*
Y238100D01*
D02*
G37*
G36*
X51831D02*
X47900D01*
Y234169D01*
X48635Y234265D01*
X49692Y234703D01*
X50600Y235400D01*
X51297Y236308D01*
X51735Y237365D01*
X51831Y238100D01*
D02*
G37*
G36*
X47100D02*
X43169D01*
X43265Y237365D01*
X43703Y236308D01*
X44400Y235400D01*
X45308Y234703D01*
X46365Y234265D01*
X47100Y234169D01*
Y238100D01*
D02*
G37*
G36*
X57500Y243287D02*
X56261Y243124D01*
X55106Y242646D01*
X54115Y241885D01*
X53354Y240894D01*
X52876Y239739D01*
X52713Y238500D01*
X52876Y237261D01*
X53354Y236106D01*
X54115Y235115D01*
X55106Y234354D01*
X56261Y233876D01*
X57500Y233713D01*
X58739Y233876D01*
X59894Y234354D01*
X60885Y235115D01*
X61646Y236106D01*
X62124Y237261D01*
X62287Y238500D01*
X62124Y239739D01*
X61646Y240894D01*
X60885Y241885D01*
X59894Y242646D01*
X58739Y243124D01*
X57500Y243287D01*
D02*
G37*
G36*
X81000Y229431D02*
X80070Y229246D01*
X79281Y228719D01*
X78754Y227930D01*
X78569Y227000D01*
X78754Y226070D01*
X79281Y225281D01*
X80070Y224754D01*
X81000Y224569D01*
X81930Y224754D01*
X82719Y225281D01*
X83246Y226070D01*
X83431Y227000D01*
X83246Y227930D01*
X82719Y228719D01*
X81930Y229246D01*
X81000Y229431D01*
D02*
G37*
G36*
X154500Y190122D02*
X153570Y189937D01*
X152781Y189410D01*
X152254Y188621D01*
X152069Y187691D01*
X152254Y186761D01*
X152781Y185972D01*
X153570Y185445D01*
X154500Y185260D01*
X155430Y185445D01*
X156219Y185972D01*
X156746Y186761D01*
X156931Y187691D01*
X156746Y188621D01*
X156219Y189410D01*
X155430Y189937D01*
X154500Y190122D01*
D02*
G37*
G36*
X166000Y189931D02*
X165070Y189746D01*
X164281Y189219D01*
X163754Y188430D01*
X163569Y187500D01*
X163754Y186570D01*
X164281Y185781D01*
X165070Y185254D01*
X166000Y185069D01*
X166930Y185254D01*
X167719Y185781D01*
X168246Y186570D01*
X168431Y187500D01*
X168246Y188430D01*
X167719Y189219D01*
X166930Y189746D01*
X166000Y189931D01*
D02*
G37*
G36*
X165000Y182063D02*
X164070Y181878D01*
X163281Y181351D01*
X162754Y180563D01*
X162569Y179632D01*
X162754Y178702D01*
X163281Y177913D01*
X164070Y177386D01*
X165000Y177201D01*
X165930Y177386D01*
X166719Y177913D01*
X167246Y178702D01*
X167431Y179632D01*
X167246Y180563D01*
X166719Y181351D01*
X165930Y181878D01*
X165000Y182063D01*
D02*
G37*
G36*
X19900Y180831D02*
Y176900D01*
X23831D01*
X23735Y177635D01*
X23297Y178692D01*
X22600Y179600D01*
X21692Y180297D01*
X20635Y180735D01*
X19900Y180831D01*
D02*
G37*
G36*
X19100D02*
X18365Y180735D01*
X17308Y180297D01*
X16400Y179600D01*
X15703Y178692D01*
X15265Y177635D01*
X15169Y176900D01*
X19100D01*
Y180831D01*
D02*
G37*
G36*
X23831Y176100D02*
X19900D01*
Y172169D01*
X20635Y172266D01*
X21692Y172703D01*
X22600Y173400D01*
X23297Y174308D01*
X23735Y175365D01*
X23831Y176100D01*
D02*
G37*
G36*
X19100D02*
X15169D01*
X15265Y175365D01*
X15703Y174308D01*
X16400Y173400D01*
X17308Y172703D01*
X18365Y172266D01*
X19100Y172169D01*
Y176100D01*
D02*
G37*
G36*
X53500Y172931D02*
X52570Y172746D01*
X51781Y172219D01*
X51254Y171430D01*
X51069Y170500D01*
X51254Y169570D01*
X51781Y168781D01*
X52570Y168254D01*
X53500Y168069D01*
X54430Y168254D01*
X55219Y168781D01*
X55746Y169570D01*
X55931Y170500D01*
X55746Y171430D01*
X55219Y172219D01*
X54430Y172746D01*
X53500Y172931D01*
D02*
G37*
G36*
X70500Y171431D02*
X69570Y171246D01*
X68781Y170719D01*
X68254Y169930D01*
X68069Y169000D01*
X68254Y168070D01*
X68781Y167281D01*
X69570Y166754D01*
X70500Y166569D01*
X71430Y166754D01*
X72219Y167281D01*
X72746Y168070D01*
X72931Y169000D01*
X72746Y169930D01*
X72219Y170719D01*
X71430Y171246D01*
X70500Y171431D01*
D02*
G37*
G36*
X104500Y157431D02*
X103570Y157246D01*
X102781Y156719D01*
X102254Y155930D01*
X102069Y155000D01*
X102254Y154070D01*
X102781Y153281D01*
X103570Y152754D01*
X104500Y152569D01*
X105430Y152754D01*
X106219Y153281D01*
X106746Y154070D01*
X106931Y155000D01*
X106746Y155930D01*
X106219Y156719D01*
X105430Y157246D01*
X104500Y157431D01*
D02*
G37*
G36*
X70500Y156431D02*
X69570Y156246D01*
X68781Y155719D01*
X68254Y154930D01*
X68069Y154000D01*
X68254Y153070D01*
X68781Y152281D01*
X69570Y151754D01*
X70500Y151569D01*
X71430Y151754D01*
X72219Y152281D01*
X72746Y153070D01*
X72931Y154000D01*
X72746Y154930D01*
X72219Y155719D01*
X71430Y156246D01*
X70500Y156431D01*
D02*
G37*
G36*
X19900Y127081D02*
Y123150D01*
X23831D01*
X23735Y123885D01*
X23297Y124942D01*
X22600Y125850D01*
X21692Y126547D01*
X20635Y126985D01*
X19900Y127081D01*
D02*
G37*
G36*
X19100D02*
X18365Y126985D01*
X17308Y126547D01*
X16400Y125850D01*
X15703Y124942D01*
X15265Y123885D01*
X15169Y123150D01*
X19100D01*
Y127081D01*
D02*
G37*
G36*
Y122350D02*
X15169D01*
X15265Y121615D01*
X15703Y120558D01*
X16400Y119650D01*
X17308Y118953D01*
X18365Y118516D01*
X19100Y118419D01*
Y122350D01*
D02*
G37*
G36*
X23831D02*
X19900D01*
Y118419D01*
X20635Y118516D01*
X21692Y118953D01*
X22600Y119650D01*
X23297Y120558D01*
X23735Y121615D01*
X23831Y122350D01*
D02*
G37*
G36*
X69500Y110227D02*
X67118Y110039D01*
X64795Y109481D01*
X62587Y108567D01*
X60550Y107318D01*
X58733Y105767D01*
X57182Y103950D01*
X55933Y101913D01*
X55019Y99705D01*
X54461Y97382D01*
X54273Y95000D01*
X54461Y92618D01*
X55019Y90295D01*
X55933Y88087D01*
X57182Y86050D01*
X58733Y84233D01*
X60550Y82682D01*
X62587Y81433D01*
X64795Y80519D01*
X67118Y79961D01*
X69500Y79773D01*
X71882Y79961D01*
X74205Y80519D01*
X76413Y81433D01*
X78450Y82682D01*
X80267Y84233D01*
X81818Y86050D01*
X83067Y88087D01*
X83981Y90295D01*
X84539Y92618D01*
X84727Y95000D01*
X84539Y97382D01*
X83981Y99705D01*
X83067Y101913D01*
X81818Y103950D01*
X80267Y105767D01*
X78450Y107318D01*
X76413Y108567D01*
X74205Y109481D01*
X71882Y110039D01*
X69500Y110227D01*
D02*
G37*
G36*
X19900Y73331D02*
Y69400D01*
X23831D01*
X23735Y70135D01*
X23297Y71192D01*
X22600Y72100D01*
X21692Y72797D01*
X20635Y73235D01*
X19900Y73331D01*
D02*
G37*
G36*
X19100D02*
X18365Y73235D01*
X17308Y72797D01*
X16400Y72100D01*
X15703Y71192D01*
X15265Y70135D01*
X15169Y69400D01*
X19100D01*
Y73331D01*
D02*
G37*
G36*
X23831Y68600D02*
X19900D01*
Y64669D01*
X20635Y64765D01*
X21692Y65203D01*
X22600Y65900D01*
X23297Y66808D01*
X23735Y67865D01*
X23831Y68600D01*
D02*
G37*
G36*
X19100D02*
X15169D01*
X15265Y67865D01*
X15703Y66808D01*
X16400Y65900D01*
X17308Y65203D01*
X18365Y64765D01*
X19100Y64669D01*
Y68600D01*
D02*
G37*
G36*
X20400Y41373D02*
Y32900D01*
X27928D01*
Y33484D01*
X27776Y35031D01*
X27325Y36518D01*
X26592Y37889D01*
X25606Y39090D01*
X24405Y40076D01*
X23034Y40809D01*
X21547Y41260D01*
X20400Y41373D01*
D02*
G37*
G36*
X19600D02*
X18453Y41260D01*
X16966Y40809D01*
X15596Y40076D01*
X14394Y39090D01*
X13408Y37889D01*
X12675Y36518D01*
X12224Y35031D01*
X12072Y33484D01*
Y32900D01*
X19600D01*
Y41373D01*
D02*
G37*
G36*
X27928Y32100D02*
X20400D01*
Y23627D01*
X21547Y23740D01*
X23034Y24191D01*
X24405Y24924D01*
X25606Y25910D01*
X26592Y27111D01*
X27325Y28482D01*
X27776Y29969D01*
X27928Y31516D01*
Y32100D01*
D02*
G37*
G36*
X19600D02*
X12072D01*
Y31516D01*
X12224Y29969D01*
X12675Y28482D01*
X13408Y27111D01*
X14394Y25910D01*
X15596Y24924D01*
X16966Y24191D01*
X18453Y23740D01*
X19600Y23627D01*
Y32100D01*
D02*
G37*
G36*
X60000Y41814D02*
X58375Y41654D01*
X56812Y41180D01*
X55372Y40410D01*
X54110Y39374D01*
X53074Y38112D01*
X52304Y36672D01*
X51830Y35109D01*
X51670Y33484D01*
Y31516D01*
X51830Y29891D01*
X52304Y28328D01*
X53074Y26888D01*
X54110Y25626D01*
X55372Y24590D01*
X56812Y23820D01*
X58375Y23346D01*
X60000Y23186D01*
X61625Y23346D01*
X63188Y23820D01*
X64628Y24590D01*
X65890Y25626D01*
X66926Y26888D01*
X67696Y28328D01*
X68170Y29891D01*
X68330Y31516D01*
Y33484D01*
X68170Y35109D01*
X67696Y36672D01*
X66926Y38112D01*
X65890Y39374D01*
X64628Y40410D01*
X63188Y41180D01*
X61625Y41654D01*
X60000Y41814D01*
D02*
G37*
G36*
X39500Y185945D02*
X37657Y185764D01*
X35885Y185227D01*
X34252Y184354D01*
X32821Y183179D01*
X31646Y181748D01*
X30773Y180115D01*
X30236Y178343D01*
X30055Y176500D01*
X30236Y174657D01*
X30773Y172885D01*
X31057Y172355D01*
Y32500D01*
X31229Y30755D01*
X31738Y29078D01*
X32564Y27531D01*
X33040Y26952D01*
X33074Y26888D01*
X34110Y25626D01*
X35372Y24590D01*
X36812Y23820D01*
X38375Y23346D01*
X40000Y23186D01*
X41625Y23346D01*
X43188Y23820D01*
X44628Y24590D01*
X45890Y25626D01*
X46926Y26888D01*
X46960Y26952D01*
X47436Y27531D01*
X48262Y29078D01*
X48771Y30755D01*
X48943Y32500D01*
Y173099D01*
X49264Y174157D01*
X49446Y176000D01*
X49264Y177843D01*
X48726Y179615D01*
X47854Y181248D01*
X46679Y182679D01*
X46179Y183179D01*
X44748Y184354D01*
X43115Y185227D01*
X41343Y185764D01*
X39500Y185945D01*
D02*
G37*
%LPD*%
G54D11*
X218500Y171500D02*
X219315Y172315D01*
Y174315D01*
X219500Y174500D01*
X105000Y79500D02*
X106500Y78000D01*
X215500Y95500D02*
X222916Y88084D01*
X271416D01*
X271500Y88000D01*
X292500Y76000D02*
X296000D01*
X280500Y88000D02*
X292500Y76000D01*
X271500Y88000D02*
X280500D01*
X258000Y149000D02*
X286000Y121000D01*
X254500Y149000D02*
X258000D01*
X286000Y121000D02*
X289500D01*
X98000Y120000D02*
X105000Y113000D01*
X98000Y120000D02*
Y136000D01*
X105000Y79500D02*
Y113000D01*
X255738Y111500D02*
X256000D01*
X255238Y111000D02*
X255738Y111500D01*
X219000Y111000D02*
X255238D01*
X188500Y42000D02*
X207500D01*
X197000Y46000D02*
X207500D01*
X287500Y180000D02*
X327000D01*
X287000Y187500D02*
Y193000D01*
X278500Y179000D02*
X287000Y187500D01*
X278500Y174500D02*
Y179000D01*
G54D121*
X308000Y89500D02*
Y128000D01*
Y71000D02*
Y89500D01*
X319500Y139500D02*
Y152500D01*
X308000Y128000D02*
X319500Y139500D01*
X308000Y62000D02*
Y71000D01*
X298500Y52500D02*
X308000Y62000D01*
X266000Y52500D02*
X298500D01*
G54D122*
X72500Y194500D02*
X87000Y180000D01*
Y116500D02*
Y180000D01*
X40000Y32500D02*
Y176000D01*
X87000Y116500D02*
X95000Y108500D01*
Y82000D02*
Y108500D01*
X80000Y67000D02*
X95000Y82000D01*
X80000Y33484D02*
Y67000D01*
G54D123*
X160000Y147000D02*
Y155500D01*
X155000Y160500D02*
X160000Y155500D01*
G54D125*
X20000Y32500D02*
Y176000D01*
X19500Y176500D02*
X20000Y176000D01*
G54D127*
X276500Y67000D02*
X301500D01*
X274000Y69500D02*
X296500D01*
G54D128*
X7000Y208000D02*
X16000Y217000D01*
X7000Y208000D02*
X7000Y13000D01*
X13000Y7000D01*
X304500Y6500D02*
X343500Y45500D01*
X125016Y6500D02*
X304500D01*
X100000Y31516D02*
X125016Y6500D01*
X343500Y45500D02*
Y62500D01*
X340000Y66000D02*
X343500Y62500D01*
X340000Y66000D02*
Y227500D01*
X13000Y7000D02*
X75484D01*
X100000Y31516D01*
Y32500D01*
G54D143*
X19500Y69000D02*
D03*
Y122750D02*
D03*
Y176500D02*
D03*
X299500Y152500D02*
D03*
X395500Y49000D02*
D03*
Y39000D02*
D03*
Y29000D02*
D03*
G54D144*
X39500Y69000D02*
D03*
Y122750D02*
D03*
Y176500D02*
D03*
X319500Y152500D02*
D03*
G54D146*
X272500Y196650D02*
D03*
G54D147*
X20000Y32500D02*
D03*
X40000D02*
D03*
X140000D02*
D03*
X80000D02*
D03*
X120000D02*
D03*
G54D148*
X100000D02*
D03*
G54D149*
X160000D02*
D03*
G54D150*
X200000Y238500D02*
D03*
X142500D02*
D03*
X105000D02*
D03*
X295000D02*
D03*
X47500D02*
D03*
X237500D02*
D03*
G54D152*
X198000Y72752D02*
D03*
G54D155*
X40000Y170415D02*
D03*
X35500Y172000D02*
D03*
X44000Y172500D02*
D03*
X33500Y177500D02*
D03*
X36500Y181500D02*
D03*
X42500D02*
D03*
X106500Y78000D02*
D03*
X386000Y24500D02*
D03*
X258000Y69000D02*
D03*
X227000Y68000D02*
D03*
X303500Y84000D02*
D03*
X301500Y98000D02*
D03*
X334500Y201500D02*
D03*
X333000Y187500D02*
D03*
X333500Y175500D02*
D03*
X307500Y182500D02*
D03*
X304500D02*
D03*
X301500D02*
D03*
X312500Y214000D02*
D03*
X321000Y213500D02*
D03*
X302000Y213000D02*
D03*
X301500Y185500D02*
D03*
X304500D02*
D03*
X307500D02*
D03*
Y189500D02*
D03*
X304500D02*
D03*
X301500D02*
D03*
X270000Y146500D02*
D03*
X266500Y168500D02*
D03*
X221000Y150000D02*
D03*
X185500Y90000D02*
D03*
X74000Y206000D02*
D03*
X24500Y195000D02*
D03*
X60000Y111500D02*
D03*
X92500Y11500D02*
D03*
X99000D02*
D03*
X395000Y100000D02*
D03*
X389500Y141000D02*
D03*
Y130000D02*
D03*
X382500Y173000D02*
D03*
X383500Y183500D02*
D03*
X374000Y209000D02*
D03*
X376500Y229000D02*
D03*
X321000Y235500D02*
D03*
X316500Y222500D02*
D03*
X184000Y116500D02*
D03*
X180500Y116000D02*
D03*
X203000Y105000D02*
D03*
X222500Y65000D02*
D03*
X201500Y20500D02*
D03*
X302000Y20000D02*
D03*
X344000Y18500D02*
D03*
X277500Y19000D02*
D03*
X334500Y19500D02*
D03*
X265500D02*
D03*
X212500Y20000D02*
D03*
X237500Y43500D02*
D03*
X238000Y58000D02*
D03*
X262500Y60500D02*
D03*
X267500Y74500D02*
D03*
X291500Y103000D02*
D03*
X302500Y107000D02*
D03*
X223000Y127000D02*
D03*
X269000Y133000D02*
D03*
X279000Y133500D02*
D03*
X282595D02*
D03*
X219500Y174500D02*
D03*
X212500Y166000D02*
D03*
X207500Y145500D02*
D03*
X228500Y135500D02*
D03*
X241000Y175500D02*
D03*
X235000Y149500D02*
D03*
X275046Y119546D02*
D03*
X285546Y91046D02*
D03*
X273500Y85500D02*
D03*
X211500Y118500D02*
D03*
X308000Y89500D02*
D03*
Y71000D02*
D03*
X266000Y52500D02*
D03*
X296000Y76000D02*
D03*
X271500Y88000D02*
D03*
X254500Y149000D02*
D03*
X289500Y121000D02*
D03*
X230000Y95500D02*
D03*
X215500D02*
D03*
X98000Y136000D02*
D03*
X155000Y160500D02*
D03*
X143500Y166000D02*
D03*
X126500Y174000D02*
D03*
X219000Y111000D02*
D03*
X256000Y111500D02*
D03*
X301500Y67000D02*
D03*
X276500D02*
D03*
X274000Y69500D02*
D03*
X296500D02*
D03*
X88500Y89000D02*
D03*
X188500Y42000D02*
D03*
X207500D02*
D03*
X197000Y46000D02*
D03*
X207500D02*
D03*
X287000Y180000D02*
D03*
X327000D02*
D03*
X287000Y193000D02*
D03*
X278500Y174500D02*
D03*
G54D156*
X45500Y177000D02*
D03*
X92500Y61500D02*
D03*
X73500Y115000D02*
D03*
X55500Y82000D02*
D03*
X53500Y113500D02*
D03*
X52000Y134000D02*
D03*
Y142500D02*
D03*
X255500Y180000D02*
D03*
X248500Y185000D02*
D03*
X190500Y155000D02*
D03*
X96000Y194000D02*
D03*
X106000Y192000D02*
D03*
X100000D02*
D03*
X90000Y193500D02*
D03*
X94000Y190500D02*
D03*
X104000Y186000D02*
D03*
X97500D02*
D03*
X100500Y144000D02*
D03*
X248500Y210000D02*
D03*
X9500Y240000D02*
D03*
X211500Y208000D02*
D03*
X155500Y206500D02*
D03*
X152000Y210500D02*
D03*
X155500D02*
D03*
X159000D02*
D03*
X162500D02*
D03*
X152000Y206500D02*
D03*
X49000D02*
D03*
X52500D02*
D03*
X56000Y205500D02*
D03*
X100500Y61500D02*
D03*
X97000D02*
D03*
X98500Y64500D02*
D03*
X94500D02*
D03*
X97000Y67500D02*
D03*
X218500Y210000D02*
D03*
X222000D02*
D03*
X215000D02*
D03*
X55500D02*
D03*
X52000D02*
D03*
X48500D02*
D03*
X74500Y188000D02*
D03*
X79000Y192500D02*
D03*
X74500Y197000D02*
D03*
X79000D02*
D03*
X69500D02*
D03*
Y183875D02*
D03*
Y179500D02*
D03*
Y192625D02*
D03*
Y188250D02*
D03*
G54D161*
X39500Y176500D02*
X40000Y176000D01*
X119500Y222500D02*
X120000Y222000D01*
X141500Y225000D02*
X176000D01*
X140000Y223500D02*
X141500Y225000D01*
X119500Y222500D02*
Y225000D01*
X102500Y226500D02*
X104000D01*
G54D162*
X120000Y32500D02*
Y222000D01*
X212500Y183500D02*
X236500Y207500D01*
X196500Y183500D02*
X212500D01*
X236500Y207500D02*
Y225000D01*
X160000Y147000D02*
X196500Y183500D01*
X140000Y166000D02*
Y223500D01*
Y166000D02*
X140000Y32500D01*
X160000D02*
Y147000D01*
G54D163*
X20250Y32000D02*
D03*
G54D164*
X74000Y184250D02*
D03*
G54D165*
X78750Y196750D02*
D03*
G54D166*
X294750Y239000D02*
D03*
G54D167*
X237373Y238877D02*
D03*
X142373D02*
D03*
G54D168*
X200000Y238500D02*
D03*
G54D169*
X105750Y238000D02*
D03*
G54D170*
X47623Y239127D02*
D03*
M02*
