G04*
G04 #@! TF.GenerationSoftware,Altium Limited,Altium Designer,19.1.5 (86)*
G04*
G04 Layer_Color=16711935*
%FSLAX25Y25*%
%MOIN*%
G70*
G01*
G75*
%ADD72R,0.06800X0.07690*%
%ADD90R,0.04954X0.05147*%
%ADD91R,0.04835X0.05107*%
%ADD95R,0.04000X0.04000*%
%ADD96R,0.04000X0.04000*%
%ADD97R,0.03000X0.03000*%
%ADD98R,0.03000X0.03000*%
%ADD100R,0.04400X0.06600*%
%ADD107C,0.07493*%
%ADD108C,0.09068*%
%ADD109C,0.08280*%
%ADD110C,0.07099*%
%ADD111O,0.14580X0.16548*%
%ADD112O,0.14580X0.16548*%
%ADD113R,0.14580X0.16548*%
%ADD114C,0.07493*%
%ADD115R,0.07493X0.07493*%
G04:AMPARAMS|DCode=116|XSize=90mil|YSize=68mil|CornerRadius=27.2mil|HoleSize=0mil|Usage=FLASHONLY|Rotation=0.000|XOffset=0mil|YOffset=0mil|HoleType=Round|Shape=RoundedRectangle|*
%AMROUNDEDRECTD116*
21,1,0.09000,0.01360,0,0,0.0*
21,1,0.03560,0.06800,0,0,0.0*
1,1,0.05440,0.01780,-0.00680*
1,1,0.05440,-0.01780,-0.00680*
1,1,0.05440,-0.01780,0.00680*
1,1,0.05440,0.01780,0.00680*
%
%ADD116ROUNDEDRECTD116*%
%ADD117O,0.05000X0.05400*%
%ADD118O,0.06800X0.06300*%
G04:AMPARAMS|DCode=119|XSize=63mil|YSize=68mil|CornerRadius=10.88mil|HoleSize=0mil|Usage=FLASHONLY|Rotation=270.000|XOffset=0mil|YOffset=0mil|HoleType=Round|Shape=RoundedRectangle|*
%AMROUNDEDRECTD119*
21,1,0.06300,0.04625,0,0,270.0*
21,1,0.04125,0.06800,0,0,270.0*
1,1,0.02175,-0.02313,-0.02063*
1,1,0.02175,-0.02313,0.02063*
1,1,0.02175,0.02313,0.02063*
1,1,0.02175,0.02313,-0.02063*
%
%ADD119ROUNDEDRECTD119*%
%ADD120C,0.28359*%
%ADD198R,0.07690X0.06800*%
%ADD199R,0.12611X0.07060*%
%ADD200R,0.07060X0.12611*%
%ADD201R,0.22060X0.12217*%
%ADD202R,0.10800X0.05800*%
%ADD203R,0.05800X0.10800*%
%ADD204R,0.06600X0.04400*%
%ADD205R,0.06400X0.04600*%
G54D72*
X384500Y112500D02*
D03*
X366500D02*
D03*
X384000Y75500D02*
D03*
X366000D02*
D03*
G54D90*
X189071Y212000D02*
D03*
X125929D02*
D03*
X90429D02*
D03*
X290071Y212100D02*
D03*
X33429Y208000D02*
D03*
X206971Y212100D02*
D03*
G54D91*
X179929Y212000D02*
D03*
X135071D02*
D03*
X99571D02*
D03*
X280929Y212100D02*
D03*
X42571Y208000D02*
D03*
X197829Y212100D02*
D03*
G54D95*
X377500Y59000D02*
D03*
X372500D02*
D03*
G54D96*
X182000Y218000D02*
D03*
Y223000D02*
D03*
X187000D02*
D03*
Y218000D02*
D03*
X133000D02*
D03*
Y223000D02*
D03*
X128000D02*
D03*
Y218000D02*
D03*
X97500D02*
D03*
Y223000D02*
D03*
X92500D02*
D03*
Y218000D02*
D03*
X282500D02*
D03*
Y223000D02*
D03*
X40100Y217900D02*
D03*
Y222900D02*
D03*
X287500Y223000D02*
D03*
Y218000D02*
D03*
X35100Y222900D02*
D03*
Y217900D02*
D03*
X200000Y218000D02*
D03*
Y223000D02*
D03*
X205000D02*
D03*
Y218000D02*
D03*
G54D97*
X376000Y29000D02*
D03*
X372000D02*
D03*
X376000Y39000D02*
D03*
X372000D02*
D03*
X376000Y49000D02*
D03*
X372000D02*
D03*
X184100Y128900D02*
D03*
X188100D02*
D03*
X212000Y126000D02*
D03*
X208000D02*
D03*
X184100Y124900D02*
D03*
X188100D02*
D03*
X212000Y130000D02*
D03*
X208000D02*
D03*
X184100Y120900D02*
D03*
X188100D02*
D03*
X212000Y134000D02*
D03*
X208000D02*
D03*
X233000Y123500D02*
D03*
X237000D02*
D03*
X186500Y228000D02*
D03*
X182500D02*
D03*
X132500D02*
D03*
X128500D02*
D03*
X97000D02*
D03*
X93000D02*
D03*
X39600Y227900D02*
D03*
X35600D02*
D03*
X287500Y228000D02*
D03*
X283500D02*
D03*
X204400Y228100D02*
D03*
X200400D02*
D03*
G54D98*
X210500Y191500D02*
D03*
Y187500D02*
D03*
G54D100*
X145900Y6500D02*
D03*
X134100D02*
D03*
X125900D02*
D03*
X114100D02*
D03*
X165900D02*
D03*
X154100D02*
D03*
X303100Y241000D02*
D03*
X314900D02*
D03*
X207600D02*
D03*
X219400D02*
D03*
X284400Y174000D02*
D03*
X272600D02*
D03*
X62900Y14000D02*
D03*
X51100D02*
D03*
X66600Y116000D02*
D03*
X78400D02*
D03*
X16100Y237000D02*
D03*
X27900D02*
D03*
G54D107*
X19500Y69000D02*
D03*
Y122750D02*
D03*
Y176500D02*
D03*
X299500Y152500D02*
D03*
X365500Y59000D02*
D03*
Y49000D02*
D03*
Y39000D02*
D03*
X395500Y49000D02*
D03*
X365500Y29000D02*
D03*
X395500Y39000D02*
D03*
Y29000D02*
D03*
Y59000D02*
D03*
G54D108*
X39500Y69000D02*
D03*
Y122750D02*
D03*
Y176500D02*
D03*
X319500Y152500D02*
D03*
G54D109*
X272500Y183000D02*
D03*
G54D110*
X272500Y196650D02*
D03*
G54D111*
X20000Y32500D02*
D03*
X40000D02*
D03*
X60000D02*
D03*
X140000D02*
D03*
X80000D02*
D03*
X120000D02*
D03*
G54D112*
X100000D02*
D03*
G54D113*
X160000D02*
D03*
G54D114*
X200000Y238500D02*
D03*
X190000D02*
D03*
X152500D02*
D03*
X142500D02*
D03*
X105000D02*
D03*
X95000D02*
D03*
X295000D02*
D03*
X285000D02*
D03*
X57500D02*
D03*
X47500D02*
D03*
X247500D02*
D03*
X237500D02*
D03*
G54D115*
X180000D02*
D03*
X132500D02*
D03*
X85000D02*
D03*
X275000D02*
D03*
X37500D02*
D03*
X227500D02*
D03*
G54D116*
X393500Y208100D02*
D03*
Y235443D02*
D03*
G54D117*
X382200Y212224D02*
D03*
Y231319D02*
D03*
G54D118*
X198000Y80626D02*
D03*
Y88500D02*
D03*
Y72752D02*
D03*
G54D119*
Y96374D02*
D03*
G54D120*
X343500Y62500D02*
D03*
X340000Y227500D02*
D03*
X16000Y217000D02*
D03*
X69500Y95000D02*
D03*
G54D198*
X382000Y85000D02*
D03*
Y103000D02*
D03*
G54D199*
X286500Y202858D02*
D03*
Y185142D02*
D03*
G54D200*
X38717Y14500D02*
D03*
X21000D02*
D03*
G54D201*
X319500Y164012D02*
D03*
Y202988D02*
D03*
G54D202*
X158500Y215500D02*
D03*
Y227500D02*
D03*
X147000Y215500D02*
D03*
Y227500D02*
D03*
X51500Y215500D02*
D03*
Y227500D02*
D03*
X63500Y215500D02*
D03*
Y227500D02*
D03*
X223500Y215500D02*
D03*
Y227500D02*
D03*
X235000Y215500D02*
D03*
Y227500D02*
D03*
G54D203*
X52500Y190500D02*
D03*
X64500D02*
D03*
X52500Y178500D02*
D03*
X64500D02*
D03*
G54D204*
X323000Y62100D02*
D03*
Y73900D02*
D03*
G54D205*
X144000Y20600D02*
D03*
Y13400D02*
D03*
X137000D02*
D03*
Y20600D02*
D03*
X123500D02*
D03*
Y13400D02*
D03*
X116500D02*
D03*
Y20600D02*
D03*
X163500D02*
D03*
Y13400D02*
D03*
X156500D02*
D03*
Y20600D02*
D03*
M02*
