G04*
G04 #@! TF.GenerationSoftware,Altium Limited,Altium Designer,19.1.5 (86)*
G04*
G04 Layer_Color=8421504*
%FSLAX25Y25*%
%MOIN*%
G70*
G01*
G75*
%ADD29R,0.03200X0.03200*%
%ADD30R,0.03200X0.03200*%
%ADD31R,0.02200X0.02200*%
%ADD32R,0.04331X0.03347*%
%ADD33R,0.05600X0.03800*%
%ADD34R,0.03347X0.04331*%
%ADD35R,0.03500X0.03000*%
%ADD36R,0.02200X0.02200*%
%ADD37O,0.01600X0.04331*%
%ADD38R,0.01600X0.04331*%
%ADD39R,0.03500X0.03200*%
%ADD40R,0.03000X0.02000*%
%ADD41R,0.04347X0.04153*%
%ADD42R,0.04307X0.04035*%
%ADD43R,0.05800X0.03600*%
%ADD44R,0.11811X0.06260*%
%ADD45R,0.03600X0.05800*%
%ADD46R,0.03800X0.05600*%
%ADD47R,0.10000X0.05000*%
%ADD48R,0.04035X0.04307*%
%ADD49R,0.04153X0.04347*%
%ADD50R,0.05000X0.10000*%
%ADD51R,0.03150X0.11811*%
%ADD52R,0.04724X0.09843*%
%ADD53R,0.09843X0.04724*%
%ADD54R,0.11811X0.03150*%
%ADD55R,0.22441X0.06693*%
%ADD56R,0.26000X0.23000*%
%ADD57R,0.08600X0.04800*%
%ADD58R,0.02400X0.04000*%
%ADD59R,0.02800X0.03800*%
%ADD60R,0.04000X0.02400*%
%ADD61R,0.03800X0.02800*%
%ADD62R,0.10315X0.13819*%
G04:AMPARAMS|DCode=63|XSize=23.62mil|YSize=78.74mil|CornerRadius=5.91mil|HoleSize=0mil|Usage=FLASHONLY|Rotation=90.000|XOffset=0mil|YOffset=0mil|HoleType=Round|Shape=RoundedRectangle|*
%AMROUNDEDRECTD63*
21,1,0.02362,0.06693,0,0,90.0*
21,1,0.01181,0.07874,0,0,90.0*
1,1,0.01181,0.03347,0.00591*
1,1,0.01181,0.03347,-0.00591*
1,1,0.01181,-0.03347,-0.00591*
1,1,0.01181,-0.03347,0.00591*
%
%ADD63ROUNDEDRECTD63*%
%ADD64O,0.07874X0.02362*%
%ADD65R,0.05118X0.06299*%
G04:AMPARAMS|DCode=66|XSize=12mil|YSize=64mil|CornerRadius=3mil|HoleSize=0mil|Usage=FLASHONLY|Rotation=270.000|XOffset=0mil|YOffset=0mil|HoleType=Round|Shape=RoundedRectangle|*
%AMROUNDEDRECTD66*
21,1,0.01200,0.05800,0,0,270.0*
21,1,0.00600,0.06400,0,0,270.0*
1,1,0.00600,-0.02900,-0.00300*
1,1,0.00600,-0.02900,0.00300*
1,1,0.00600,0.02900,0.00300*
1,1,0.00600,0.02900,-0.00300*
%
%ADD66ROUNDEDRECTD66*%
%ADD67O,0.07000X0.01900*%
G04:AMPARAMS|DCode=68|XSize=19mil|YSize=70mil|CornerRadius=4.75mil|HoleSize=0mil|Usage=FLASHONLY|Rotation=90.000|XOffset=0mil|YOffset=0mil|HoleType=Round|Shape=RoundedRectangle|*
%AMROUNDEDRECTD68*
21,1,0.01900,0.06050,0,0,90.0*
21,1,0.00950,0.07000,0,0,90.0*
1,1,0.00950,0.03025,0.00475*
1,1,0.00950,0.03025,-0.00475*
1,1,0.00950,-0.03025,-0.00475*
1,1,0.00950,-0.03025,0.00475*
%
%ADD68ROUNDEDRECTD68*%
%ADD69R,0.03937X0.10630*%
%ADD70O,0.07874X0.02362*%
%ADD71R,0.02500X0.02500*%
%ADD72R,0.03000X0.03500*%
%ADD73R,0.01181X0.05906*%
%ADD74R,0.05906X0.01181*%
G54D29*
X331300Y45200D02*
D03*
Y40200D02*
D03*
X321700Y45300D02*
D03*
Y40300D02*
D03*
X171900Y132600D02*
D03*
Y137600D02*
D03*
X76000Y132500D02*
D03*
Y137500D02*
D03*
X124000Y132500D02*
D03*
Y137500D02*
D03*
X43900Y27400D02*
D03*
Y22400D02*
D03*
X48900D02*
D03*
Y27400D02*
D03*
G54D30*
X264700Y67700D02*
D03*
X259700D02*
D03*
Y62700D02*
D03*
X264700D02*
D03*
X177400Y139100D02*
D03*
X182400D02*
D03*
X162500Y185500D02*
D03*
X157500D02*
D03*
X129500Y139000D02*
D03*
X134500D02*
D03*
X105000Y185500D02*
D03*
X100000D02*
D03*
X152500D02*
D03*
X147500D02*
D03*
X115000D02*
D03*
X110000D02*
D03*
X81500Y139000D02*
D03*
X86500D02*
D03*
X57000Y185500D02*
D03*
X52000D02*
D03*
X67000D02*
D03*
X62000D02*
D03*
X304500Y49500D02*
D03*
X309500D02*
D03*
X360000Y144500D02*
D03*
X355000D02*
D03*
X360000Y95000D02*
D03*
X355000D02*
D03*
X360000Y136500D02*
D03*
X355000D02*
D03*
X360000Y90000D02*
D03*
X355000D02*
D03*
X244260Y161492D02*
D03*
X249260D02*
D03*
X87000Y114500D02*
D03*
X92000D02*
D03*
Y109500D02*
D03*
X87000D02*
D03*
G54D31*
X269900Y59000D02*
D03*
X273900D02*
D03*
X282700Y58900D02*
D03*
X286700D02*
D03*
X199500Y177000D02*
D03*
X203500D02*
D03*
X199500Y172500D02*
D03*
X203500D02*
D03*
X228780Y233000D02*
D03*
X232780D02*
D03*
X225780Y229000D02*
D03*
X229780D02*
D03*
X217779Y228500D02*
D03*
X221779D02*
D03*
X245000Y204000D02*
D03*
X241000D02*
D03*
X221779Y200000D02*
D03*
X225780D02*
D03*
X373000Y5000D02*
D03*
X377000D02*
D03*
X373000Y9000D02*
D03*
X377000D02*
D03*
X166900Y138100D02*
D03*
X162900D02*
D03*
X71000Y138000D02*
D03*
X67000D02*
D03*
X61500Y181000D02*
D03*
X65500D02*
D03*
X157500D02*
D03*
X161500D02*
D03*
X119000Y138000D02*
D03*
X115000D02*
D03*
X109500Y181000D02*
D03*
X113500D02*
D03*
X224500Y177500D02*
D03*
X228500D02*
D03*
X214000Y100000D02*
D03*
X218000D02*
D03*
X317000Y119500D02*
D03*
X321000D02*
D03*
X317000Y111500D02*
D03*
X321000D02*
D03*
X317000Y103500D02*
D03*
X321000D02*
D03*
X317000Y79500D02*
D03*
X321000D02*
D03*
X238000Y52011D02*
D03*
X234000D02*
D03*
X238000Y48011D02*
D03*
X234000D02*
D03*
X238000Y44011D02*
D03*
X234000D02*
D03*
X359500Y189500D02*
D03*
X355500D02*
D03*
X285500Y121000D02*
D03*
X281500D02*
D03*
X173500Y53000D02*
D03*
X177500D02*
D03*
X231100Y156400D02*
D03*
X235100D02*
D03*
Y152400D02*
D03*
X231100D02*
D03*
X124500Y116500D02*
D03*
X120500D02*
D03*
X119000Y84000D02*
D03*
X115000D02*
D03*
X100500Y112000D02*
D03*
X96500D02*
D03*
X111000Y100000D02*
D03*
X115000D02*
D03*
X272500Y121500D02*
D03*
X268500D02*
D03*
X215200Y163000D02*
D03*
X211200D02*
D03*
X272500Y117500D02*
D03*
X268500D02*
D03*
X354500Y131500D02*
D03*
X350500D02*
D03*
X281500Y125000D02*
D03*
X285500D02*
D03*
X268500Y109500D02*
D03*
X272500D02*
D03*
X281500Y117000D02*
D03*
X285500D02*
D03*
X289500Y88500D02*
D03*
X285500D02*
D03*
X165000Y53000D02*
D03*
X169000D02*
D03*
X112000Y116500D02*
D03*
X116000D02*
D03*
X107500D02*
D03*
X103500D02*
D03*
X102500Y100000D02*
D03*
X106500D02*
D03*
X213500Y116500D02*
D03*
X217500D02*
D03*
X272500Y113500D02*
D03*
X268500D02*
D03*
G54D32*
X291892Y46360D02*
D03*
Y53840D02*
D03*
X280908Y50100D02*
D03*
G54D33*
X261200Y44500D02*
D03*
Y51700D02*
D03*
X194500Y60900D02*
D03*
Y68100D02*
D03*
G54D34*
X275340Y54092D02*
D03*
X267860D02*
D03*
X271600Y43108D02*
D03*
X235260Y172484D02*
D03*
X239000Y161500D02*
D03*
X231520D02*
D03*
X106000Y84008D02*
D03*
X102260Y94992D02*
D03*
X109740D02*
D03*
G54D35*
X270000Y141100D02*
D03*
Y146900D02*
D03*
X255000Y152600D02*
D03*
Y158400D02*
D03*
G54D36*
X180600Y90000D02*
D03*
Y86000D02*
D03*
X168500Y89500D02*
D03*
Y85500D02*
D03*
X189600Y90000D02*
D03*
Y86000D02*
D03*
X220000Y177500D02*
D03*
Y173500D02*
D03*
X219280Y219500D02*
D03*
Y223500D02*
D03*
X225780Y195500D02*
D03*
Y191500D02*
D03*
X236779Y219500D02*
D03*
Y223500D02*
D03*
Y228000D02*
D03*
Y232000D02*
D03*
X229780Y200000D02*
D03*
Y196000D02*
D03*
X236779Y204000D02*
D03*
Y200000D02*
D03*
X221280Y191500D02*
D03*
Y195500D02*
D03*
X238000Y131000D02*
D03*
Y135000D02*
D03*
X250000Y131000D02*
D03*
Y135000D02*
D03*
X254500Y47500D02*
D03*
Y51500D02*
D03*
X250500Y47500D02*
D03*
Y51500D02*
D03*
X120000Y112000D02*
D03*
Y108000D02*
D03*
X124500D02*
D03*
Y112000D02*
D03*
X173000Y89500D02*
D03*
Y85500D02*
D03*
X190400Y108200D02*
D03*
Y112200D02*
D03*
X185100Y90000D02*
D03*
Y86000D02*
D03*
X207500Y182500D02*
D03*
Y186500D02*
D03*
X326500Y40500D02*
D03*
Y44500D02*
D03*
X316900Y40600D02*
D03*
Y44600D02*
D03*
X310400Y40600D02*
D03*
Y44600D02*
D03*
X358500Y126000D02*
D03*
Y122000D02*
D03*
X303000Y40600D02*
D03*
Y44600D02*
D03*
X358500Y116000D02*
D03*
Y112000D02*
D03*
X228000Y56011D02*
D03*
Y52011D02*
D03*
X220500Y56011D02*
D03*
Y52011D02*
D03*
X212000Y56011D02*
D03*
Y52011D02*
D03*
X248100Y79000D02*
D03*
Y75000D02*
D03*
X321000Y208000D02*
D03*
Y204000D02*
D03*
X286500Y195500D02*
D03*
Y191500D02*
D03*
X321000Y216500D02*
D03*
Y212500D02*
D03*
X278500Y191500D02*
D03*
Y195500D02*
D03*
X164500Y57500D02*
D03*
Y61500D02*
D03*
X168500Y57500D02*
D03*
Y61500D02*
D03*
X172500D02*
D03*
Y57500D02*
D03*
X115000Y95500D02*
D03*
Y91500D02*
D03*
X184000Y116500D02*
D03*
Y112500D02*
D03*
X147000Y104500D02*
D03*
Y108500D02*
D03*
Y94500D02*
D03*
Y98500D02*
D03*
X211500Y186500D02*
D03*
Y182500D02*
D03*
X254000Y135000D02*
D03*
Y131000D02*
D03*
X238500Y75000D02*
D03*
Y79000D02*
D03*
X242500D02*
D03*
Y75000D02*
D03*
X314000Y93500D02*
D03*
Y89500D02*
D03*
X350000Y94500D02*
D03*
Y98500D02*
D03*
Y88000D02*
D03*
Y84000D02*
D03*
X230500Y75000D02*
D03*
Y79000D02*
D03*
X234500Y75000D02*
D03*
Y79000D02*
D03*
X234000Y135000D02*
D03*
Y131000D02*
D03*
X246000Y135000D02*
D03*
Y131000D02*
D03*
X230000D02*
D03*
Y135000D02*
D03*
X218000Y93000D02*
D03*
Y89000D02*
D03*
X267943Y89316D02*
D03*
Y85316D02*
D03*
X254200Y79000D02*
D03*
Y75000D02*
D03*
X290500Y195500D02*
D03*
Y191500D02*
D03*
X282500Y195500D02*
D03*
Y191500D02*
D03*
X244000Y166500D02*
D03*
Y170500D02*
D03*
X245000Y156500D02*
D03*
Y152500D02*
D03*
X242000Y135000D02*
D03*
Y131000D02*
D03*
G54D37*
X229059Y205500D02*
D03*
X231618D02*
D03*
X223941Y223500D02*
D03*
X229059D02*
D03*
X226500D02*
D03*
X231618D02*
D03*
X226500Y205500D02*
D03*
G54D38*
X223941D02*
D03*
G54D39*
X390500Y4500D02*
D03*
X396500D02*
D03*
X390500Y9500D02*
D03*
X396500D02*
D03*
G54D40*
X361200Y181500D02*
D03*
X355800D02*
D03*
X315600Y126500D02*
D03*
X321000D02*
D03*
G54D41*
X243500Y60571D02*
D03*
X140500Y94429D02*
D03*
G54D42*
X243500Y51429D02*
D03*
X140500Y103571D02*
D03*
G54D43*
X147500Y135000D02*
D03*
Y146800D02*
D03*
X99500Y135600D02*
D03*
Y147400D02*
D03*
X107000Y62000D02*
D03*
Y73800D02*
D03*
G54D44*
X300500Y195358D02*
D03*
Y177642D02*
D03*
G54D45*
X41400Y240000D02*
D03*
X29600D02*
D03*
X360600Y240500D02*
D03*
X372400D02*
D03*
G54D46*
X111100Y55000D02*
D03*
X103900D02*
D03*
X128600Y77000D02*
D03*
X121400D02*
D03*
X162400Y79500D02*
D03*
X169600D02*
D03*
G54D47*
X183000Y184000D02*
D03*
Y196000D02*
D03*
X171500Y184000D02*
D03*
Y196000D02*
D03*
X135500Y184000D02*
D03*
Y196000D02*
D03*
X88000Y184000D02*
D03*
Y196000D02*
D03*
X124000Y184000D02*
D03*
Y196000D02*
D03*
X76000Y184000D02*
D03*
Y196000D02*
D03*
G54D48*
X186971Y133100D02*
D03*
X53000Y191500D02*
D03*
X91071Y133000D02*
D03*
X101000Y191500D02*
D03*
X148929D02*
D03*
X139071Y133000D02*
D03*
X185071Y122500D02*
D03*
X153929Y88500D02*
D03*
X162429Y72500D02*
D03*
X275929Y148000D02*
D03*
Y154500D02*
D03*
G54D49*
X177829Y133100D02*
D03*
X62142Y191500D02*
D03*
X81929Y133000D02*
D03*
X110142Y191500D02*
D03*
X158071D02*
D03*
X129929Y133000D02*
D03*
X175929Y122500D02*
D03*
X163071Y88500D02*
D03*
X171571Y72500D02*
D03*
X285071Y148000D02*
D03*
Y154500D02*
D03*
G54D50*
X47000Y142000D02*
D03*
X35000D02*
D03*
X47000Y154000D02*
D03*
X35000D02*
D03*
G54D51*
X235752Y29000D02*
D03*
X243626D02*
D03*
X227878D02*
D03*
X251500D02*
D03*
X267248D02*
D03*
X259374D02*
D03*
X220004D02*
D03*
X212130D02*
D03*
X310752D02*
D03*
X318626D02*
D03*
X302878D02*
D03*
X326500D02*
D03*
X342248D02*
D03*
X334374D02*
D03*
G54D52*
X277091Y6362D02*
D03*
X202287D02*
D03*
X352091D02*
D03*
X293035D02*
D03*
G54D53*
X394638Y118783D02*
D03*
Y154217D02*
D03*
X395000Y108933D02*
D03*
Y73500D02*
D03*
X394500Y164000D02*
D03*
Y199433D02*
D03*
G54D54*
X372000Y136500D02*
D03*
Y144374D02*
D03*
Y128626D02*
D03*
X372362Y83342D02*
D03*
Y99090D02*
D03*
Y91216D02*
D03*
X371862Y181717D02*
D03*
Y189591D02*
D03*
Y173843D02*
D03*
G54D55*
X320500Y177642D02*
D03*
Y195358D02*
D03*
G54D56*
X70000Y93000D02*
D03*
G54D57*
X95000Y84250D02*
D03*
X95000Y101750D02*
D03*
G54D58*
X215440Y177500D02*
D03*
X207960D02*
D03*
X211700D02*
D03*
G54D59*
X207960Y167657D02*
D03*
X215440D02*
D03*
G54D60*
X177579Y65240D02*
D03*
Y57760D02*
D03*
Y61500D02*
D03*
X270421Y151760D02*
D03*
Y159240D02*
D03*
Y155500D02*
D03*
X114921Y104260D02*
D03*
Y111740D02*
D03*
Y108000D02*
D03*
G54D61*
X187421Y57760D02*
D03*
Y65240D02*
D03*
X260579Y159240D02*
D03*
Y151760D02*
D03*
X105079Y111740D02*
D03*
Y104260D02*
D03*
G54D62*
X303000Y209500D02*
D03*
G54D63*
X292000Y217000D02*
D03*
G54D64*
Y212000D02*
D03*
Y207000D02*
D03*
X314000Y202000D02*
D03*
Y212000D02*
D03*
Y217000D02*
D03*
Y207000D02*
D03*
X292000Y202000D02*
D03*
X328500Y121500D02*
D03*
Y116500D02*
D03*
X350500Y111500D02*
D03*
Y121500D02*
D03*
Y126500D02*
D03*
Y116500D02*
D03*
X328500Y111500D02*
D03*
X321000Y94000D02*
D03*
Y89000D02*
D03*
X343000Y84000D02*
D03*
Y94000D02*
D03*
Y99000D02*
D03*
Y89000D02*
D03*
X321000Y84000D02*
D03*
G54D65*
X282972Y95020D02*
D03*
Y109980D02*
D03*
X292028D02*
D03*
Y95020D02*
D03*
G54D66*
X382500Y226890D02*
D03*
Y224331D02*
D03*
Y221772D02*
D03*
Y219213D02*
D03*
Y216653D02*
D03*
G54D67*
X153700Y109339D02*
D03*
Y106780D02*
D03*
X177300Y117016D02*
D03*
X153700Y96543D02*
D03*
Y99102D02*
D03*
Y111898D02*
D03*
Y104220D02*
D03*
X177300Y114457D02*
D03*
Y106780D02*
D03*
Y101661D02*
D03*
Y111898D02*
D03*
Y109339D02*
D03*
Y104220D02*
D03*
X153700Y117016D02*
D03*
Y114457D02*
D03*
Y93984D02*
D03*
X177300Y96543D02*
D03*
Y99102D02*
D03*
X153700Y101661D02*
D03*
G54D68*
X177300Y93984D02*
D03*
G54D69*
X187421Y73500D02*
D03*
X177579D02*
D03*
G54D70*
X328500Y126500D02*
D03*
X321000Y99000D02*
D03*
G54D71*
X249500Y152400D02*
D03*
Y156600D02*
D03*
G54D72*
X145900Y114500D02*
D03*
X140100D02*
D03*
X286900Y162500D02*
D03*
X281100D02*
D03*
X163100Y66500D02*
D03*
X168900D02*
D03*
G54D73*
X251858Y122216D02*
D03*
X249890D02*
D03*
X247921D02*
D03*
X245953D02*
D03*
X253827D02*
D03*
X243984D02*
D03*
X242016D02*
D03*
X240047D02*
D03*
X238079D02*
D03*
X236110D02*
D03*
X234142D02*
D03*
X232173D02*
D03*
Y86783D02*
D03*
X234142D02*
D03*
X236110D02*
D03*
X238079D02*
D03*
X240047D02*
D03*
X242016D02*
D03*
X243984D02*
D03*
X245953D02*
D03*
X247921D02*
D03*
X249890D02*
D03*
X251858D02*
D03*
X253827D02*
D03*
G54D74*
X260717Y93673D02*
D03*
Y95642D02*
D03*
Y97610D02*
D03*
Y99579D02*
D03*
Y101547D02*
D03*
Y103516D02*
D03*
Y105484D02*
D03*
Y107453D02*
D03*
Y109421D02*
D03*
Y111390D02*
D03*
Y113358D02*
D03*
Y115327D02*
D03*
X225284D02*
D03*
Y113358D02*
D03*
Y111390D02*
D03*
Y109421D02*
D03*
Y107453D02*
D03*
Y105484D02*
D03*
Y103516D02*
D03*
Y101547D02*
D03*
Y99579D02*
D03*
Y97610D02*
D03*
Y95642D02*
D03*
Y93673D02*
D03*
M02*
