G04*
G04 #@! TF.GenerationSoftware,Altium Limited,Altium Designer,19.1.5 (86)*
G04*
G04 Layer_Physical_Order=1*
G04 Layer_Color=255*
%FSLAX25Y25*%
%MOIN*%
G70*
G01*
G75*
%ADD11C,0.01000*%
%ADD28R,0.26000X0.23000*%
%ADD29R,0.08600X0.04800*%
%ADD30R,0.02000X0.03000*%
%ADD31R,0.04331X0.01600*%
%ADD32O,0.04331X0.01600*%
%ADD33R,0.06000X0.06890*%
%ADD34R,0.03150X0.11811*%
%ADD35R,0.04724X0.13780*%
%ADD36R,0.11811X0.03150*%
%ADD37R,0.13780X0.04724*%
%ADD38R,0.02400X0.04000*%
%ADD39R,0.02800X0.03800*%
%ADD40R,0.04000X0.02400*%
%ADD41R,0.03800X0.02800*%
%ADD42R,0.10315X0.13819*%
G04:AMPARAMS|DCode=43|XSize=23.62mil|YSize=78.74mil|CornerRadius=5.91mil|HoleSize=0mil|Usage=FLASHONLY|Rotation=90.000|XOffset=0mil|YOffset=0mil|HoleType=Round|Shape=RoundedRectangle|*
%AMROUNDEDRECTD43*
21,1,0.02362,0.06693,0,0,90.0*
21,1,0.01181,0.07874,0,0,90.0*
1,1,0.01181,0.03347,0.00591*
1,1,0.01181,0.03347,-0.00591*
1,1,0.01181,-0.03347,-0.00591*
1,1,0.01181,-0.03347,0.00591*
%
%ADD43ROUNDEDRECTD43*%
%ADD44O,0.07874X0.02362*%
%ADD45R,0.05118X0.06299*%
G04:AMPARAMS|DCode=46|XSize=12mil|YSize=64mil|CornerRadius=3mil|HoleSize=0mil|Usage=FLASHONLY|Rotation=270.000|XOffset=0mil|YOffset=0mil|HoleType=Round|Shape=RoundedRectangle|*
%AMROUNDEDRECTD46*
21,1,0.01200,0.05800,0,0,270.0*
21,1,0.00600,0.06400,0,0,270.0*
1,1,0.00600,-0.02900,-0.00300*
1,1,0.00600,-0.02900,0.00300*
1,1,0.00600,0.02900,0.00300*
1,1,0.00600,0.02900,-0.00300*
%
%ADD46ROUNDEDRECTD46*%
%ADD47O,0.07000X0.01900*%
G04:AMPARAMS|DCode=48|XSize=19mil|YSize=70mil|CornerRadius=4.75mil|HoleSize=0mil|Usage=FLASHONLY|Rotation=90.000|XOffset=0mil|YOffset=0mil|HoleType=Round|Shape=RoundedRectangle|*
%AMROUNDEDRECTD48*
21,1,0.01900,0.06050,0,0,90.0*
21,1,0.00950,0.07000,0,0,90.0*
1,1,0.00950,0.03025,0.00475*
1,1,0.00950,0.03025,-0.00475*
1,1,0.00950,-0.03025,-0.00475*
1,1,0.00950,-0.03025,0.00475*
%
%ADD48ROUNDEDRECTD48*%
%ADD49R,0.03500X0.03200*%
%ADD50R,0.03937X0.10630*%
%ADD51R,0.04153X0.04347*%
%ADD52R,0.04035X0.04307*%
%ADD53R,0.03347X0.04331*%
%ADD54R,0.04331X0.03347*%
%ADD55O,0.07874X0.02362*%
%ADD56R,0.03200X0.03200*%
%ADD57R,0.03200X0.03200*%
%ADD58R,0.02200X0.02200*%
%ADD59R,0.02200X0.02200*%
%ADD60R,0.02500X0.02500*%
%ADD61R,0.03600X0.05800*%
%ADD62R,0.03800X0.05600*%
%ADD63R,0.03000X0.03500*%
%ADD64R,0.03500X0.03000*%
%ADD65C,0.05000*%
%ADD66R,0.01181X0.05906*%
%ADD67R,0.05906X0.01181*%
G04:AMPARAMS|DCode=116|XSize=90mil|YSize=68mil|CornerRadius=27.2mil|HoleSize=0mil|Usage=FLASHONLY|Rotation=0.000|XOffset=0mil|YOffset=0mil|HoleType=Round|Shape=RoundedRectangle|*
%AMROUNDEDRECTD116*
21,1,0.09000,0.01360,0,0,0.0*
21,1,0.03560,0.06800,0,0,0.0*
1,1,0.05440,0.01780,-0.00680*
1,1,0.05440,-0.01780,-0.00680*
1,1,0.05440,-0.01780,0.00680*
1,1,0.05440,0.01780,0.00680*
%
%ADD116ROUNDEDRECTD116*%
%ADD117O,0.05000X0.05400*%
%ADD121C,0.02000*%
%ADD122C,0.15000*%
%ADD123C,0.01200*%
%ADD124C,0.00800*%
%ADD125C,0.12000*%
%ADD126C,0.01500*%
%ADD127C,0.00700*%
%ADD128C,0.03000*%
%ADD129C,0.04000*%
%ADD130C,0.05000*%
%ADD131R,0.05400X0.02410*%
%ADD132R,0.11000X0.05000*%
%ADD133R,0.03600X0.06400*%
%ADD134R,0.19000X0.24500*%
%ADD135R,0.05500X0.05000*%
%ADD136R,0.08300X0.15150*%
%ADD137R,0.10254X0.09747*%
%ADD138R,0.08000X0.11000*%
%ADD139R,0.07006X0.04347*%
%ADD140R,0.03969X0.06960*%
%ADD141R,0.08000X0.05500*%
%ADD142R,0.08000X0.06500*%
%ADD143C,0.06693*%
%ADD144C,0.08268*%
%ADD145C,0.07480*%
%ADD146C,0.06299*%
%ADD147O,0.13780X0.15748*%
%ADD148O,0.13780X0.15748*%
%ADD149R,0.13780X0.15748*%
%ADD150C,0.06693*%
%ADD151R,0.06693X0.06693*%
%ADD152O,0.06000X0.05500*%
G04:AMPARAMS|DCode=153|XSize=55mil|YSize=60mil|CornerRadius=6.88mil|HoleSize=0mil|Usage=FLASHONLY|Rotation=270.000|XOffset=0mil|YOffset=0mil|HoleType=Round|Shape=RoundedRectangle|*
%AMROUNDEDRECTD153*
21,1,0.05500,0.04625,0,0,270.0*
21,1,0.04125,0.06000,0,0,270.0*
1,1,0.01375,-0.02313,-0.02063*
1,1,0.01375,-0.02313,0.02063*
1,1,0.01375,0.02313,0.02063*
1,1,0.01375,0.02313,-0.02063*
%
%ADD153ROUNDEDRECTD153*%
%ADD154C,0.27559*%
%ADD155C,0.01968*%
%ADD156C,0.03150*%
G36*
X299500Y241582D02*
X298800Y241345D01*
X298385Y241885D01*
X297394Y242646D01*
X296239Y243124D01*
X295000Y243287D01*
X293761Y243124D01*
X292606Y242646D01*
X291615Y241885D01*
X290854Y240894D01*
X290376Y239739D01*
X290213Y238500D01*
X290376Y237261D01*
X290854Y236106D01*
X291615Y235115D01*
X292606Y234354D01*
X293761Y233876D01*
X295000Y233713D01*
X296239Y233876D01*
X297394Y234354D01*
X298385Y235115D01*
X298800Y235655D01*
X299500Y235418D01*
X299500Y216500D01*
X269227D01*
X269158Y217200D01*
X269430Y217254D01*
X270219Y217781D01*
X270746Y218570D01*
X270931Y219500D01*
X270746Y220430D01*
X270219Y221219D01*
X269430Y221746D01*
X268500Y221931D01*
X267570Y221746D01*
X266781Y221219D01*
X266254Y220430D01*
X266069Y219500D01*
X266254Y218570D01*
X266781Y217781D01*
X267570Y217254D01*
X267842Y217200D01*
X267773Y216500D01*
X82000Y216500D01*
X82000Y184000D01*
X59000Y184000D01*
X59000Y205496D01*
X59000Y205500D01*
X59000Y205504D01*
X59000Y233984D01*
X59894Y234354D01*
X60885Y235115D01*
X61646Y236106D01*
X62124Y237261D01*
X62287Y238500D01*
X62124Y239739D01*
X61646Y240894D01*
X60885Y241885D01*
X59894Y242646D01*
X59000Y243016D01*
Y246063D01*
X299500D01*
Y241582D01*
D02*
G37*
G36*
X57573Y243351D02*
X57500Y243287D01*
X56261Y243124D01*
X55106Y242646D01*
X54115Y241885D01*
X53354Y240894D01*
X52876Y239739D01*
X52853Y239567D01*
X52147D01*
X52124Y239739D01*
X51646Y240894D01*
X50885Y241885D01*
X49894Y242646D01*
X48739Y243124D01*
X47500Y243287D01*
X46261Y243124D01*
X45106Y242646D01*
X44115Y241885D01*
X43354Y240894D01*
X42946Y239910D01*
X42246Y240049D01*
Y243247D01*
X32754D01*
Y233753D01*
X42246D01*
Y236951D01*
X42946Y237090D01*
X43354Y236106D01*
X44115Y235115D01*
X45106Y234354D01*
X46261Y233876D01*
X47500Y233713D01*
X48739Y233876D01*
X49894Y234354D01*
X50885Y235115D01*
X51646Y236106D01*
X52124Y237261D01*
X52147Y237433D01*
X52853D01*
X52876Y237261D01*
X53354Y236106D01*
X54115Y235115D01*
X55106Y234354D01*
X56261Y233876D01*
X57500Y233713D01*
X57573Y233649D01*
X57573Y205504D01*
X57573Y205500D01*
X57573Y205496D01*
X57573Y184000D01*
X57663Y183545D01*
X57589Y183325D01*
X57246Y182845D01*
X55600D01*
Y180679D01*
X47590D01*
X47436Y180968D01*
X46324Y182324D01*
X46324Y182324D01*
X45824Y182824D01*
X44469Y183936D01*
X42922Y184762D01*
X41245Y185271D01*
X39500Y185443D01*
X37755Y185271D01*
X36078Y184762D01*
X34532Y183936D01*
X33176Y182824D01*
X32064Y181468D01*
X31238Y179922D01*
X30729Y178245D01*
X30557Y176500D01*
X30729Y174755D01*
X31057Y173673D01*
Y166500D01*
Y148000D01*
Y125000D01*
Y32500D01*
X31229Y30755D01*
X31738Y29078D01*
X32564Y27531D01*
X33040Y26952D01*
X33074Y26888D01*
X34110Y25626D01*
X35372Y24590D01*
X36812Y23820D01*
X38375Y23346D01*
X40000Y23186D01*
X41625Y23346D01*
X43188Y23820D01*
X44628Y24590D01*
X45890Y25626D01*
X46926Y26888D01*
X46960Y26952D01*
X47436Y27531D01*
X48262Y29078D01*
X48771Y30755D01*
X48943Y32500D01*
Y122463D01*
X60000D01*
Y117500D01*
X71000D01*
Y118563D01*
X72000D01*
X72741Y118710D01*
X73370Y119130D01*
X82302Y128063D01*
X104784D01*
X104996Y127363D01*
X104781Y127219D01*
X104254Y126430D01*
X104069Y125500D01*
X104254Y124570D01*
X104461Y124260D01*
Y121954D01*
X103761Y121379D01*
X103500Y121431D01*
X102570Y121246D01*
X101781Y120719D01*
X101254Y119930D01*
X101069Y119000D01*
X101254Y118070D01*
X101563Y117608D01*
Y108500D01*
X101710Y107759D01*
X102130Y107130D01*
X121563Y87698D01*
Y85000D01*
X118500D01*
Y89500D01*
X113500D01*
Y89100D01*
X112400D01*
Y87000D01*
X111600D01*
Y89100D01*
X109900D01*
Y89100D01*
X109600D01*
Y89100D01*
X107900D01*
Y87000D01*
X107100D01*
Y89100D01*
X106000D01*
Y89500D01*
X101000D01*
Y85000D01*
X95000D01*
Y88000D01*
X91446D01*
X90871Y88700D01*
X90931Y89000D01*
X90746Y89930D01*
X90219Y90719D01*
X89430Y91246D01*
X88500Y91431D01*
X87570Y91246D01*
X86781Y90719D01*
X86254Y89930D01*
X86069Y89000D01*
X86129Y88700D01*
X85694Y88000D01*
X84000D01*
Y82000D01*
X84400D01*
Y80400D01*
X87000D01*
Y80000D01*
X87400D01*
Y77400D01*
X89000D01*
Y77000D01*
X95000D01*
Y80000D01*
X101779D01*
Y79440D01*
X103817D01*
X104216Y78740D01*
X104069Y78000D01*
X103708Y77560D01*
X101779D01*
Y73095D01*
X101284Y72600D01*
X100400Y72600D01*
X100300Y73259D01*
Y75650D01*
X95400D01*
Y72250D01*
Y68850D01*
X98966D01*
X99587Y68657D01*
X99587Y68150D01*
Y65892D01*
X104933D01*
Y68000D01*
X106667D01*
Y61927D01*
X110074D01*
X111030Y60970D01*
X111659Y60550D01*
X112400Y60403D01*
X112500D01*
Y55937D01*
X109073D01*
Y58073D01*
X102927D01*
Y55937D01*
X100700D01*
Y58550D01*
X89300D01*
Y50950D01*
X100700D01*
Y52063D01*
X102927D01*
Y50942D01*
X109073D01*
Y52063D01*
X112500D01*
Y51500D01*
X117500D01*
Y55961D01*
X123000D01*
X123780Y56116D01*
X124442Y56558D01*
X131442Y63558D01*
X131442Y63558D01*
X131884Y64220D01*
X132039Y65000D01*
Y96500D01*
X131884Y97280D01*
X131442Y97942D01*
X108539Y120845D01*
Y124260D01*
X108746Y124570D01*
X108931Y125500D01*
X108746Y126430D01*
X108556Y126714D01*
X109100Y127160D01*
X134130Y102130D01*
X134759Y101710D01*
X135500Y101563D01*
X170000D01*
Y1937D01*
X1937D01*
Y209557D01*
X2637Y209754D01*
X3681Y208050D01*
X5233Y206233D01*
X7050Y204681D01*
X9087Y203433D01*
X11295Y202519D01*
X13618Y201961D01*
X16000Y201774D01*
X18382Y201961D01*
X20705Y202519D01*
X22913Y203433D01*
X24950Y204681D01*
X26767Y206233D01*
X28319Y208050D01*
X29567Y210087D01*
X30481Y212295D01*
X31039Y214618D01*
X31227Y217000D01*
X31039Y219382D01*
X30481Y221705D01*
X29567Y223913D01*
X28319Y225950D01*
X26767Y227767D01*
X24950Y229318D01*
X22913Y230567D01*
X20705Y231481D01*
X18382Y232039D01*
X16000Y232226D01*
X13618Y232039D01*
X11295Y231481D01*
X9087Y230567D01*
X7050Y229318D01*
X5233Y227767D01*
X3681Y225950D01*
X2637Y224246D01*
X1937Y224443D01*
Y246063D01*
X57573D01*
Y243351D01*
D02*
G37*
G36*
X399563Y238379D02*
X398931Y238215D01*
X398863Y238222D01*
X398218Y239062D01*
X397358Y239722D01*
X396356Y240137D01*
X395280Y240279D01*
X391720D01*
X390645Y240137D01*
X389642Y239722D01*
X388782Y239062D01*
X388121Y238201D01*
X387706Y237199D01*
X387564Y236123D01*
Y234763D01*
X387706Y233688D01*
X388121Y232685D01*
X388782Y231825D01*
X389642Y231165D01*
X390645Y230749D01*
X391720Y230608D01*
X395280D01*
X396356Y230749D01*
X397358Y231165D01*
X398218Y231825D01*
X398863Y232665D01*
X398931Y232672D01*
X399563Y232508D01*
Y211036D01*
X398931Y210871D01*
X398863Y210879D01*
X398218Y211718D01*
X397358Y212379D01*
X396356Y212794D01*
X395280Y212936D01*
X391720D01*
X390645Y212794D01*
X389642Y212379D01*
X388782Y211718D01*
X388121Y210858D01*
X387706Y209856D01*
X387564Y208780D01*
Y207420D01*
X387706Y206345D01*
X388121Y205342D01*
X388782Y204482D01*
X389546Y203895D01*
X389512Y203539D01*
X389353Y203195D01*
X384210D01*
Y195671D01*
X399563D01*
Y167762D01*
X384210D01*
Y160238D01*
X399563D01*
Y157979D01*
X384348D01*
Y150454D01*
X399563D01*
Y122546D01*
X384637D01*
X384348Y122546D01*
X383937Y123075D01*
Y140500D01*
X383790Y141241D01*
X383370Y141870D01*
X379496Y145744D01*
X378867Y146164D01*
X378126Y146311D01*
X377306D01*
Y147349D01*
X363000D01*
Y147500D01*
X352000D01*
Y146437D01*
X351000D01*
X350259Y146290D01*
X349630Y145870D01*
X339130Y135370D01*
X338710Y134741D01*
X338563Y134000D01*
Y121500D01*
X338710Y120759D01*
X339130Y120130D01*
X343870Y115391D01*
X344498Y114971D01*
X345239Y114823D01*
X345777D01*
X345903Y114659D01*
X346442Y114245D01*
X346640Y114164D01*
X346659Y113398D01*
X346172Y113073D01*
X345690Y112351D01*
X345600Y111900D01*
X350500D01*
Y111500D01*
X350900D01*
Y109276D01*
X353256D01*
X353400Y109305D01*
X353543Y109238D01*
X354106Y108732D01*
X354239Y108064D01*
X354770Y107270D01*
X355564Y106739D01*
X356500Y106553D01*
X357436Y106739D01*
X358230Y107270D01*
X360230Y109270D01*
X360384Y109500D01*
X361000D01*
Y113500D01*
Y118500D01*
X356000D01*
Y118187D01*
X355215D01*
X355097Y118341D01*
X354783Y118581D01*
X354730Y118738D01*
Y119262D01*
X354783Y119419D01*
X355097Y119659D01*
X355215Y119813D01*
X356000D01*
Y119500D01*
X361000D01*
Y124500D01*
X360600D01*
Y125600D01*
X358500D01*
Y126000D01*
X358100D01*
Y128100D01*
X356400D01*
Y127483D01*
X355700Y127344D01*
X355510Y127802D01*
X355097Y128341D01*
X354629Y128700D01*
X354635Y128941D01*
X354827Y129400D01*
X356600D01*
Y131100D01*
X354500D01*
Y131900D01*
X356600D01*
Y133500D01*
X363000D01*
Y133525D01*
X374566D01*
X376244Y131848D01*
X375976Y131201D01*
X370400D01*
Y128626D01*
Y126051D01*
X376905D01*
X377063Y125416D01*
Y110802D01*
X372615Y106354D01*
X372070Y106246D01*
X371281Y105719D01*
X370754Y104930D01*
X370569Y104000D01*
X370754Y103070D01*
X370957Y102765D01*
X370583Y102065D01*
X363057D01*
Y99953D01*
X363016D01*
X362274Y99805D01*
X361646Y99386D01*
X360260Y98000D01*
X352100D01*
Y98100D01*
X350000D01*
Y98500D01*
X349600D01*
Y100600D01*
X347900D01*
X347900Y100600D01*
X347219Y100646D01*
X346607Y101055D01*
X345756Y101224D01*
X343400D01*
Y99000D01*
X343000D01*
Y98600D01*
X338100D01*
X338190Y98149D01*
X338672Y97427D01*
X339159Y97102D01*
X339140Y96336D01*
X338942Y96255D01*
X338403Y95841D01*
X337989Y95302D01*
X337729Y94674D01*
X337641Y94000D01*
X337729Y93326D01*
X337989Y92698D01*
X338403Y92159D01*
X338717Y91919D01*
X338770Y91762D01*
Y91238D01*
X338717Y91081D01*
X338403Y90841D01*
X337989Y90302D01*
X337729Y89674D01*
X337641Y89000D01*
X337729Y88326D01*
X337989Y87698D01*
X338403Y87159D01*
X338717Y86919D01*
X338770Y86762D01*
Y86238D01*
X338717Y86081D01*
X338403Y85841D01*
X337989Y85302D01*
X337729Y84674D01*
X337641Y84000D01*
X337729Y83326D01*
X337989Y82698D01*
X338403Y82159D01*
X338942Y81745D01*
X339204Y81637D01*
X339064Y80937D01*
X330000D01*
X329259Y80790D01*
X328630Y80370D01*
X326198Y77937D01*
X323500D01*
Y81397D01*
X323756D01*
X324430Y81485D01*
X325058Y81745D01*
X325597Y82159D01*
X326010Y82698D01*
X326271Y83326D01*
X326359Y84000D01*
X326271Y84674D01*
X326010Y85302D01*
X325597Y85841D01*
X325283Y86081D01*
X325230Y86238D01*
Y86762D01*
X325283Y86919D01*
X325597Y87159D01*
X326010Y87698D01*
X326271Y88326D01*
X326359Y89000D01*
X326271Y89674D01*
X326010Y90302D01*
X325597Y90841D01*
X325058Y91255D01*
X324860Y91336D01*
X324841Y92102D01*
X325328Y92427D01*
X325811Y93149D01*
X325900Y93600D01*
X321000D01*
Y94400D01*
X325900D01*
X325811Y94851D01*
X325328Y95573D01*
X324841Y95898D01*
X324860Y96664D01*
X325058Y96745D01*
X325597Y97159D01*
X326010Y97698D01*
X326271Y98326D01*
X326359Y99000D01*
X326271Y99674D01*
X326010Y100302D01*
X325597Y100841D01*
X325058Y101255D01*
X324430Y101515D01*
X323756Y101603D01*
X323500D01*
Y106000D01*
X314500D01*
Y103740D01*
X299982Y89222D01*
X299335Y89490D01*
Y117955D01*
X299746Y118570D01*
X299931Y119500D01*
X299746Y120430D01*
X299219Y121219D01*
X298430Y121746D01*
X297500Y121931D01*
X296570Y121746D01*
X295781Y121219D01*
X295254Y120430D01*
X295069Y119500D01*
X295254Y118570D01*
X295665Y117955D01*
Y114798D01*
X295587Y114130D01*
X294965Y114130D01*
X292428D01*
Y109980D01*
X292028D01*
D01*
X292428D01*
Y105831D01*
X294965D01*
X295587Y105831D01*
X295665Y105163D01*
Y99569D01*
X290664D01*
X287388Y102845D01*
X286793Y103243D01*
X286090Y103383D01*
X280475D01*
X280207Y104029D01*
X281609Y105431D01*
X286931D01*
Y114530D01*
X287478Y114900D01*
X287600D01*
Y116600D01*
X285500D01*
Y117400D01*
X287600D01*
Y117991D01*
X288000Y118500D01*
X288700Y118728D01*
X289500Y118569D01*
X290430Y118754D01*
X291219Y119281D01*
X291746Y120070D01*
X291931Y121000D01*
X291746Y121930D01*
X291219Y122719D01*
X290430Y123246D01*
X289500Y123431D01*
X288700Y123272D01*
X288000Y123500D01*
X287600Y124034D01*
Y125263D01*
X297200D01*
X297941Y125410D01*
X298570Y125830D01*
X307436Y134697D01*
X307781Y134663D01*
X308570Y134136D01*
X309500Y133951D01*
X310430Y134136D01*
X310892Y134445D01*
X315737D01*
X315882Y134233D01*
X316005Y133745D01*
X310130Y127870D01*
X309710Y127241D01*
X309563Y126500D01*
Y115392D01*
X309254Y114930D01*
X309069Y114000D01*
X309254Y113070D01*
X309781Y112281D01*
X310379Y111882D01*
X312130Y110130D01*
X312759Y109710D01*
X313500Y109563D01*
X314500D01*
Y109000D01*
X323500D01*
Y109185D01*
X324200Y109431D01*
X324442Y109245D01*
X325070Y108985D01*
X325744Y108897D01*
X331256D01*
X331930Y108985D01*
X332558Y109245D01*
X333097Y109659D01*
X333510Y110198D01*
X333771Y110826D01*
X333859Y111500D01*
X333771Y112174D01*
X333510Y112802D01*
X333097Y113341D01*
X332783Y113581D01*
X332730Y113738D01*
Y114262D01*
X332783Y114419D01*
X333097Y114659D01*
X333510Y115198D01*
X333771Y115826D01*
X333859Y116500D01*
X333771Y117174D01*
X333510Y117802D01*
X333097Y118341D01*
X332783Y118581D01*
X332730Y118738D01*
Y119262D01*
X332783Y119419D01*
X333097Y119659D01*
X333510Y120198D01*
X333771Y120826D01*
X333859Y121500D01*
X333771Y122174D01*
X333510Y122802D01*
X333097Y123341D01*
X332783Y123581D01*
X332730Y123738D01*
X332730Y124262D01*
X332783Y124419D01*
X333097Y124659D01*
X333510Y125198D01*
X333771Y125826D01*
X333859Y126500D01*
X333771Y127174D01*
X333510Y127802D01*
X333097Y128341D01*
X332558Y128755D01*
X331930Y129015D01*
X331256Y129103D01*
X328776D01*
X328508Y129750D01*
X356870Y158112D01*
X357290Y158740D01*
X357437Y159482D01*
Y179500D01*
X362000D01*
X362557Y179154D01*
Y178742D01*
X377168D01*
Y184691D01*
X362621D01*
X362557Y184691D01*
Y184691D01*
X362000Y184500D01*
X362000Y184500D01*
X353943D01*
X353940Y185200D01*
X355740Y187000D01*
X362000D01*
X362557Y186654D01*
Y186616D01*
X377168D01*
Y192565D01*
X362557D01*
Y192346D01*
X362000Y192000D01*
X353000D01*
Y189740D01*
X350630Y187370D01*
X350210Y186741D01*
X350137Y186374D01*
X349437Y186443D01*
Y194198D01*
X369956Y214716D01*
X378204D01*
X378638Y214016D01*
X378400Y213442D01*
X378266Y212424D01*
Y212024D01*
X378400Y211006D01*
X378793Y210058D01*
X379418Y209243D01*
X380233Y208618D01*
X381182Y208225D01*
X382200Y208091D01*
X383218Y208225D01*
X384167Y208618D01*
X384981Y209243D01*
X385607Y210058D01*
X386000Y211006D01*
X386134Y212024D01*
Y212424D01*
X386000Y213442D01*
X385776Y213981D01*
X386058Y214738D01*
X386162Y214818D01*
X386626Y215128D01*
X387001Y215690D01*
X387133Y216354D01*
Y216953D01*
X387001Y217617D01*
X386790Y217933D01*
X387001Y218249D01*
X387133Y218913D01*
Y219513D01*
X387001Y220176D01*
X386790Y220492D01*
X387001Y220808D01*
X387133Y221472D01*
Y222072D01*
X387001Y222735D01*
X386790Y223051D01*
X387001Y223367D01*
X387133Y224031D01*
Y224631D01*
X387001Y225294D01*
X386626Y225856D01*
X386520Y225927D01*
X386625Y226082D01*
X386706Y226490D01*
X382500D01*
X378294D01*
X378375Y226082D01*
X378480Y225927D01*
X378374Y225856D01*
X377999Y225294D01*
X377867Y224631D01*
Y224031D01*
X377603Y223709D01*
X367034D01*
X366292Y223561D01*
X365664Y223142D01*
X341012Y198490D01*
X340592Y197861D01*
X340445Y197120D01*
Y162684D01*
X321198Y143437D01*
X308777D01*
X308478Y144128D01*
X314010Y149660D01*
X314832Y149493D01*
X315553Y148553D01*
X316709Y147666D01*
X318055Y147109D01*
X319500Y146918D01*
X320945Y147109D01*
X322291Y147666D01*
X323447Y148553D01*
X324334Y149709D01*
X324891Y151055D01*
X325082Y152500D01*
X324891Y153945D01*
X324334Y155291D01*
X323447Y156447D01*
X322291Y157334D01*
X320945Y157891D01*
X319500Y158082D01*
X319484Y158079D01*
X312281Y165281D01*
X311467Y165907D01*
X310518Y166300D01*
X309500Y166434D01*
X290500D01*
Y170017D01*
X291000Y170500D01*
X300000D01*
Y171063D01*
X313500D01*
X313549Y171073D01*
X325000D01*
X325546Y171181D01*
X326009Y171491D01*
X326319Y171954D01*
X326427Y172500D01*
Y177131D01*
X326969Y177575D01*
X327000Y177569D01*
X327930Y177754D01*
X328719Y178281D01*
X329246Y179070D01*
X329431Y180000D01*
X329246Y180930D01*
X328719Y181719D01*
X327930Y182246D01*
X327000Y182431D01*
X326070Y182246D01*
X325700Y181999D01*
X325000Y182192D01*
Y186000D01*
Y191000D01*
X324600D01*
Y192100D01*
X322500D01*
Y192500D01*
X322100D01*
Y194600D01*
X320400D01*
X320400Y194600D01*
X319719Y194646D01*
X319107Y195054D01*
X318256Y195224D01*
X315900D01*
Y193000D01*
X315100D01*
Y195224D01*
X312744D01*
X311893Y195054D01*
X311172Y194572D01*
X310690Y193851D01*
X310602Y193409D01*
X304900D01*
Y185500D01*
Y177591D01*
X310073D01*
Y174937D01*
X300000D01*
Y175500D01*
X298388D01*
X298160Y176017D01*
X298128Y176200D01*
X298511Y176698D01*
X298771Y177326D01*
X298805Y177591D01*
X304100D01*
Y185500D01*
Y193409D01*
X298876D01*
Y193591D01*
X298722Y194367D01*
X298282Y195026D01*
X297623Y195466D01*
X296847Y195620D01*
X290154D01*
X289377Y195466D01*
X288718Y195026D01*
X288659Y194937D01*
X288392D01*
X287930Y195246D01*
X287000Y195431D01*
X286070Y195246D01*
X285281Y194719D01*
X284754Y193930D01*
X284569Y193000D01*
X284754Y192070D01*
X285281Y191281D01*
X286070Y190754D01*
X287000Y190569D01*
X287930Y190754D01*
X288392Y191063D01*
X288659D01*
X288718Y190974D01*
X288992Y190791D01*
X289036Y189943D01*
X288903Y189841D01*
X288490Y189302D01*
X288229Y188674D01*
X288141Y188000D01*
X288229Y187326D01*
X288311Y187129D01*
X287844Y186429D01*
X276348D01*
X276166Y186666D01*
X275092Y187490D01*
X273842Y188008D01*
X272500Y188184D01*
X271158Y188008D01*
X269908Y187490D01*
X268834Y186666D01*
X268652Y186429D01*
X263421D01*
X247925Y201925D01*
X256000Y210000D01*
X309500D01*
X309401Y210099D01*
Y246063D01*
X399563D01*
Y238379D01*
D02*
G37*
G36*
X307000Y211500D02*
X253500D01*
X245773Y204076D01*
X244425Y205425D01*
X243715Y205970D01*
X242888Y206312D01*
X242000Y206429D01*
X160500D01*
X159612Y206312D01*
X158785Y205970D01*
X158075Y205425D01*
X135524Y182874D01*
X83773D01*
X83581Y183120D01*
X83343Y183574D01*
X83427Y184000D01*
X83427Y215073D01*
X267773Y215073D01*
X267978Y215113D01*
X268187Y215134D01*
X268250Y215167D01*
X268319Y215181D01*
X268493Y215298D01*
X268500Y215301D01*
X268507Y215298D01*
X268681Y215181D01*
X268751Y215167D01*
X268813Y215134D01*
X269022Y215113D01*
X269227Y215073D01*
X299500D01*
X300046Y215181D01*
X300509Y215491D01*
X300819Y215954D01*
X300927Y216500D01*
X300927Y235418D01*
X300918Y235464D01*
X300924Y235511D01*
X300864Y235736D01*
X300819Y235964D01*
X300793Y236003D01*
X300780Y236049D01*
X300639Y236234D01*
X300509Y236427D01*
X300470Y236453D01*
X300441Y236491D01*
X300240Y236607D01*
X300046Y236736D01*
X299624Y237261D01*
X299787Y238500D01*
X299624Y239739D01*
X300046Y240264D01*
X300240Y240393D01*
X300441Y240509D01*
X300470Y240547D01*
X300509Y240573D01*
X300639Y240766D01*
X300780Y240951D01*
X300793Y240997D01*
X300819Y241036D01*
X300864Y241264D01*
X300924Y241489D01*
X300918Y241536D01*
X300927Y241582D01*
Y246063D01*
X307000D01*
Y211500D01*
D02*
G37*
G36*
X259575Y180575D02*
X260285Y180030D01*
X261112Y179688D01*
X262000Y179571D01*
X268652D01*
X268834Y179334D01*
X269908Y178510D01*
X271158Y177992D01*
X272500Y177815D01*
X273842Y177992D01*
X275092Y178510D01*
X276166Y179334D01*
X276348Y179571D01*
X284654D01*
X284754Y179070D01*
X285281Y178281D01*
X286070Y177754D01*
X287000Y177569D01*
X287479Y177664D01*
X288184Y177347D01*
X288295Y177167D01*
X288490Y176698D01*
X288903Y176159D01*
X289442Y175745D01*
X290070Y175485D01*
X290744Y175397D01*
X291000D01*
Y174483D01*
X290500Y174000D01*
X281341D01*
X280931Y174500D01*
X280746Y175430D01*
X280219Y176219D01*
X279430Y176746D01*
X278500Y176931D01*
X277570Y176746D01*
X276781Y176219D01*
X276254Y175430D01*
X276069Y174500D01*
X276254Y173570D01*
X276563Y173108D01*
Y173000D01*
X276710Y172259D01*
X277130Y171630D01*
X277500Y171260D01*
Y169000D01*
X277900D01*
Y167900D01*
X280000D01*
Y167100D01*
X277900D01*
Y165400D01*
X277962D01*
X278600Y165250D01*
Y162900D01*
X281100D01*
Y162100D01*
X278600D01*
Y161075D01*
X273821D01*
Y161840D01*
X267021D01*
Y156640D01*
X267421D01*
Y155900D01*
X270421D01*
Y155100D01*
X267421D01*
Y154360D01*
X267021D01*
Y149160D01*
X272511D01*
Y144447D01*
X272070Y143929D01*
X248305D01*
X248037Y144576D01*
X250980Y147520D01*
X251496Y148292D01*
X251596Y148308D01*
X252215Y148266D01*
X252254Y148070D01*
X252781Y147281D01*
X253570Y146754D01*
X254500Y146569D01*
X255430Y146754D01*
X256219Y147281D01*
X256746Y148070D01*
X256821Y148449D01*
X257279Y148960D01*
X263879D01*
Y154560D01*
X260415D01*
X260179Y154607D01*
X258150D01*
Y155500D01*
X258150D01*
X257910Y155740D01*
X258136Y156440D01*
X263879D01*
Y162040D01*
X257279D01*
Y160900D01*
X255400D01*
Y158400D01*
X254600D01*
Y160900D01*
X252260D01*
Y164492D01*
X246547D01*
Y166400D01*
X246500Y166636D01*
Y169000D01*
X246100D01*
Y170100D01*
X244000D01*
X241900D01*
Y169000D01*
X241500D01*
Y168692D01*
X238110D01*
X237933Y169319D01*
X237933Y169392D01*
Y172084D01*
X235260D01*
X232587D01*
Y169392D01*
X232587Y169319D01*
X232410Y168692D01*
X225011D01*
X224930Y168746D01*
X224835Y168765D01*
X223325Y170275D01*
X223300Y170471D01*
X223050Y171073D01*
X224870Y172892D01*
X225290Y173521D01*
X225394Y174042D01*
X225746Y174570D01*
X225931Y175500D01*
X225885Y175733D01*
X226422Y176490D01*
X226500Y176500D01*
Y176500D01*
X235500D01*
Y177063D01*
X247198D01*
X257146Y167115D01*
X257254Y166570D01*
X257781Y165781D01*
X258570Y165254D01*
X259500Y165069D01*
X260430Y165254D01*
X261219Y165781D01*
X261746Y166570D01*
X261931Y167500D01*
X261746Y168430D01*
X261219Y169219D01*
X260430Y169746D01*
X259885Y169854D01*
X249370Y180370D01*
X248741Y180790D01*
X248000Y180937D01*
X239091D01*
X238824Y181584D01*
X238870Y181630D01*
X239290Y182259D01*
X239437Y183000D01*
Y190000D01*
X239290Y190741D01*
X238870Y191370D01*
X238564Y191574D01*
X238415Y192415D01*
X241141Y195141D01*
X241500Y195069D01*
X242430Y195254D01*
X243219Y195781D01*
X243373Y196012D01*
X244070Y196080D01*
X259575Y180575D01*
D02*
G37*
G36*
X218000Y192000D02*
X222563D01*
Y190550D01*
X221863Y190337D01*
X221663Y190636D01*
X221068Y191034D01*
X220365Y191174D01*
X219400D01*
Y189339D01*
X219000D01*
Y189023D01*
X217635D01*
X217211Y188939D01*
X215879D01*
X215939Y188636D01*
X216065Y188448D01*
X216049Y188366D01*
X215562Y187638D01*
X215392Y186779D01*
X215562Y185921D01*
X215844Y185500D01*
X215562Y185079D01*
X215458Y184552D01*
X215391Y184221D01*
X215435Y183861D01*
X215435D01*
Y179461D01*
X219472D01*
X219761Y178761D01*
X215000Y174000D01*
X206662Y174000D01*
X206359Y174482D01*
X206626Y174900D01*
X207100D01*
Y176600D01*
X205000D01*
Y177000D01*
X204600D01*
Y179100D01*
X203973D01*
X203706Y179781D01*
X203894Y180037D01*
X203952Y180075D01*
X204438Y180803D01*
X204608Y181661D01*
X204438Y182520D01*
X204156Y182941D01*
X204438Y183362D01*
X204608Y184221D01*
X204438Y185079D01*
X204156Y185500D01*
X204438Y185921D01*
X204608Y186779D01*
X204438Y187638D01*
X204156Y188059D01*
X204438Y188480D01*
X204608Y189339D01*
X204438Y190197D01*
X203952Y190925D01*
X203390Y191300D01*
X203577Y192000D01*
X207500D01*
Y192069D01*
X208430Y192254D01*
X208892Y192563D01*
X218000D01*
Y192000D01*
D02*
G37*
G36*
X176630Y179394D02*
X177259Y178974D01*
X178000Y178826D01*
X180434D01*
X186810Y172450D01*
X186520Y171750D01*
X185300D01*
Y169400D01*
X187400D01*
Y170870D01*
X188100Y171160D01*
X190563Y168698D01*
Y163063D01*
X185681Y158181D01*
X178658Y165203D01*
X178926Y165850D01*
X182000Y165850D01*
X182534Y166250D01*
X182700Y166250D01*
X184500D01*
Y169000D01*
Y171750D01*
X182534Y171750D01*
X182000Y172150D01*
X181866Y172150D01*
X176811D01*
X176437Y172850D01*
X176564Y173040D01*
X176746Y173957D01*
X176564Y174874D01*
X176321Y175236D01*
X176564Y175599D01*
X176746Y176516D01*
X176564Y177433D01*
X176044Y178210D01*
X175679Y178454D01*
X175849Y179182D01*
X175888Y179188D01*
X176577Y179473D01*
X176630Y179394D01*
D02*
G37*
G36*
X124512Y175315D02*
X124254Y174930D01*
X124069Y174000D01*
X124254Y173070D01*
X124452Y172773D01*
X124078Y172073D01*
X122952D01*
Y164927D01*
Y158427D01*
Y157443D01*
X122552D01*
X121772Y157288D01*
X121400Y157039D01*
X105740D01*
X105430Y157246D01*
X104500Y157431D01*
X103570Y157246D01*
X102781Y156719D01*
X102254Y155930D01*
X102155Y155431D01*
X101395Y155200D01*
X98500Y158095D01*
Y160500D01*
X96240D01*
X94058Y162682D01*
Y165573D01*
X86927D01*
Y159427D01*
X91478D01*
X91665Y159389D01*
X91871D01*
X93500Y157760D01*
Y155500D01*
X93900D01*
Y154400D01*
X96000D01*
Y154000D01*
X96400D01*
Y151900D01*
X98100D01*
Y152390D01*
X98747Y152658D01*
X142321Y109084D01*
X142053Y108437D01*
X141302D01*
X112370Y137370D01*
X111741Y137790D01*
X111000Y137937D01*
X99392D01*
X98930Y138246D01*
X98551Y138321D01*
X98500Y139000D01*
X98500D01*
Y144000D01*
X90557D01*
Y144833D01*
X83427D01*
Y138687D01*
X90557D01*
Y139000D01*
X94063D01*
Y138000D01*
X94210Y137259D01*
X94630Y136630D01*
X95646Y135615D01*
X95754Y135070D01*
X96281Y134281D01*
X97070Y133754D01*
X98000Y133569D01*
X98930Y133754D01*
X99392Y134063D01*
X110198D01*
X138176Y106084D01*
X137908Y105437D01*
X136302D01*
X110370Y131370D01*
X109741Y131790D01*
X109000Y131937D01*
X81500D01*
X80759Y131790D01*
X80130Y131370D01*
X79550Y130790D01*
X79541Y130790D01*
X78875Y131105D01*
X78896Y131314D01*
X79370Y131630D01*
X81870Y134130D01*
X82290Y134759D01*
X82437Y135500D01*
Y147500D01*
X82290Y148241D01*
X81870Y148870D01*
X79940Y150800D01*
X79981Y151090D01*
X80187Y151500D01*
X81000D01*
Y155687D01*
X83073D01*
Y161833D01*
X77000D01*
Y163167D01*
X83073D01*
Y169313D01*
X79174D01*
X77370Y171118D01*
X77370Y171118D01*
X75979Y172508D01*
X76247Y173155D01*
X82400D01*
Y176015D01*
X124137D01*
X124512Y175315D01*
D02*
G37*
G36*
X228447Y157935D02*
X228600D01*
Y153900D01*
Y149900D01*
X233600D01*
Y150300D01*
X234700D01*
Y152400D01*
X235500D01*
Y150300D01*
X236138D01*
X236589Y149600D01*
X236569Y149500D01*
X236754Y148570D01*
X237281Y147781D01*
X237482Y147647D01*
X237269Y146947D01*
X221014D01*
X220230Y147730D01*
X219436Y148261D01*
X218500Y148447D01*
X216540D01*
Y154957D01*
X217223Y155000D01*
X221760D01*
X222146Y154615D01*
X222254Y154070D01*
X222781Y153281D01*
X223570Y152754D01*
X224500Y152569D01*
X225430Y152754D01*
X226219Y153281D01*
X226746Y154070D01*
X226931Y155000D01*
X226746Y155930D01*
X226219Y156719D01*
X225430Y157246D01*
X224885Y157354D01*
X224500Y157740D01*
Y159000D01*
X224500Y164000D01*
X225073Y164308D01*
X228447D01*
Y157935D01*
D02*
G37*
G36*
X310544Y155893D02*
X298580Y143929D01*
X291095D01*
X290522Y144629D01*
X290596Y145000D01*
X290411Y145930D01*
X289884Y146719D01*
X289095Y147246D01*
X288548Y147355D01*
Y150927D01*
Y154516D01*
X288630Y154599D01*
X289161Y155393D01*
X289347Y156329D01*
Y158566D01*
X307871D01*
X310544Y155893D01*
D02*
G37*
G36*
X190563Y161148D02*
Y157500D01*
X190710Y156759D01*
X191130Y156130D01*
X194630Y152630D01*
X195259Y152210D01*
X196000Y152063D01*
X200000D01*
X200741Y152210D01*
X201370Y152630D01*
X201790Y153259D01*
X201937Y154000D01*
X203460D01*
Y148357D01*
X207400D01*
Y147400D01*
X209500D01*
Y147000D01*
X209900D01*
Y144900D01*
X210466D01*
X210609Y144629D01*
X210187Y143929D01*
X202500D01*
X201612Y143813D01*
X200785Y143470D01*
X200284Y143085D01*
X199584Y143368D01*
Y143538D01*
X199449Y144221D01*
X199062Y144800D01*
X186181Y157681D01*
X189916Y161416D01*
X190563Y161148D01*
D02*
G37*
G36*
X300720Y136459D02*
X296198Y131937D01*
X260500D01*
X259759Y131790D01*
X259130Y131370D01*
X257615Y129854D01*
X257200Y129772D01*
X256500Y130143D01*
Y133500D01*
X256100D01*
Y134600D01*
X254000D01*
Y135400D01*
X256100D01*
Y137071D01*
X300000D01*
X300393Y137122D01*
X300720Y136459D01*
D02*
G37*
G36*
X200785Y137530D02*
X201612Y137188D01*
X202500Y137071D01*
X235129D01*
X235800Y137000D01*
Y135300D01*
X237900D01*
Y134500D01*
X235800D01*
Y133400D01*
X235400D01*
Y128400D01*
X236295D01*
Y126569D01*
X235022D01*
X234500Y127000D01*
Y132000D01*
X234100D01*
Y133100D01*
X232000D01*
X229900D01*
Y132000D01*
X229500D01*
Y131947D01*
X228000D01*
X227064Y131761D01*
X226270Y131230D01*
X225739Y130436D01*
X225553Y129500D01*
X225739Y128564D01*
X226270Y127770D01*
X227064Y127239D01*
X228000Y127053D01*
X229500D01*
Y127000D01*
X230149D01*
Y122303D01*
X230183Y122136D01*
Y121255D01*
X229536Y120987D01*
X226762Y123762D01*
X226183Y124148D01*
X225500Y124284D01*
X209739D01*
X201358Y132665D01*
X201196Y133480D01*
X200669Y134269D01*
X199880Y134796D01*
X199584Y134855D01*
Y137632D01*
X200284Y137915D01*
X200785Y137530D01*
D02*
G37*
G36*
X56000Y145500D02*
X62260D01*
X62965Y144796D01*
X63593Y144376D01*
X63927Y144309D01*
Y140935D01*
X70073D01*
Y142563D01*
X72443D01*
Y142427D01*
X74063D01*
Y139500D01*
X73500D01*
Y137081D01*
X67667D01*
Y129950D01*
X73813D01*
Y130500D01*
X78270D01*
X78603Y129843D01*
X71700Y122940D01*
X71000Y123230D01*
Y123500D01*
X70600D01*
Y125100D01*
X68000D01*
Y125500D01*
X67600D01*
Y128100D01*
X66000D01*
Y128500D01*
X65197D01*
Y129950D01*
X66333D01*
Y137081D01*
X60187D01*
Y129950D01*
X61323D01*
Y128500D01*
X60000D01*
Y126337D01*
X48943D01*
Y146063D01*
X56000D01*
Y145500D01*
D02*
G37*
G36*
X278612Y122206D02*
X278617Y122075D01*
X278202Y121798D01*
X276702Y120298D01*
X276304Y119702D01*
X276165Y119000D01*
Y108260D01*
X275297Y107392D01*
X274600Y107481D01*
Y109100D01*
X272500D01*
Y109900D01*
X274600D01*
Y111400D01*
Y113100D01*
X272500D01*
Y113900D01*
X274600D01*
Y115400D01*
Y117100D01*
X272500D01*
Y117900D01*
X274600D01*
Y119400D01*
Y121100D01*
X272500D01*
Y121900D01*
X274600D01*
Y122060D01*
X275300Y122434D01*
X275570Y122254D01*
X276500Y122069D01*
X277430Y122254D01*
X277900Y122568D01*
X278612Y122206D01*
D02*
G37*
G36*
X188716Y135261D02*
Y125000D01*
X188851Y124317D01*
X189238Y123738D01*
X191592Y121385D01*
X191754Y120570D01*
X192281Y119781D01*
X193070Y119254D01*
X193885Y119092D01*
X195118Y117858D01*
X194986Y117000D01*
X194739Y116835D01*
X187000D01*
X186298Y116696D01*
X185702Y116298D01*
X180240Y110835D01*
X171264D01*
X171226Y115463D01*
X171718Y115960D01*
X177721D01*
Y119082D01*
X177734Y119112D01*
X177851Y120000D01*
Y126240D01*
Y131071D01*
X180000D01*
X180888Y131187D01*
X181715Y131530D01*
X182425Y132075D01*
X184349Y133999D01*
X184894Y134709D01*
X185236Y135536D01*
X185353Y136424D01*
X185236Y137311D01*
X184894Y138138D01*
X185463Y138514D01*
X188716Y135261D01*
D02*
G37*
G36*
X162216Y154417D02*
Y151000D01*
X162352Y150317D01*
X162738Y149738D01*
X165238Y147238D01*
X165238Y147238D01*
X165817Y146852D01*
X166500Y146716D01*
X173301D01*
X173569Y146069D01*
X170000Y142500D01*
Y110835D01*
X167085D01*
X167000Y111500D01*
X167000D01*
Y116160D01*
X167979D01*
Y121360D01*
X167579D01*
Y122100D01*
X164579D01*
Y122900D01*
X167579D01*
Y123640D01*
X167979D01*
Y124902D01*
X168006Y125040D01*
Y132000D01*
X167947Y132296D01*
Y141215D01*
X161210D01*
Y137101D01*
X159500D01*
Y140100D01*
X153700D01*
Y136700D01*
X155094D01*
Y135811D01*
X155067Y135673D01*
Y131327D01*
X155094Y131189D01*
Y130250D01*
X153400D01*
X153025Y130795D01*
Y132693D01*
X152925Y133450D01*
X152847Y133640D01*
Y137054D01*
X152844D01*
Y140485D01*
X152727Y141373D01*
X152700Y141438D01*
Y144700D01*
X152498D01*
X152231Y145347D01*
X161569Y154685D01*
X162216Y154417D01*
D02*
G37*
G36*
X399563Y112695D02*
X384710D01*
Y105171D01*
X399563D01*
Y77262D01*
X384710D01*
Y69738D01*
X399563D01*
Y62591D01*
X399117Y62440D01*
X398863Y62402D01*
X397894Y63146D01*
X396739Y63624D01*
X395500Y63787D01*
X394261Y63624D01*
X393106Y63146D01*
X392115Y62385D01*
X391354Y61394D01*
X390876Y60239D01*
X390713Y59000D01*
X390876Y57761D01*
X391354Y56606D01*
X392115Y55615D01*
X393106Y54854D01*
X394261Y54376D01*
X395500Y54213D01*
X396739Y54376D01*
X397894Y54854D01*
X398863Y55598D01*
X399117Y55560D01*
X399563Y55409D01*
Y51995D01*
X398863Y51757D01*
X398600Y52100D01*
X397692Y52797D01*
X396635Y53235D01*
X395900Y53331D01*
Y49000D01*
Y44669D01*
X396635Y44765D01*
X397692Y45203D01*
X398600Y45900D01*
X398863Y46243D01*
X399563Y46005D01*
Y41995D01*
X398863Y41757D01*
X398600Y42100D01*
X397692Y42797D01*
X396635Y43235D01*
X395900Y43331D01*
Y39000D01*
Y34669D01*
X396635Y34765D01*
X397692Y35203D01*
X398600Y35900D01*
X398863Y36243D01*
X399563Y36005D01*
Y31995D01*
X398863Y31757D01*
X398600Y32100D01*
X397692Y32797D01*
X396635Y33235D01*
X395900Y33331D01*
Y29000D01*
Y24669D01*
X396635Y24765D01*
X397692Y25203D01*
X398600Y25900D01*
X398863Y26243D01*
X399563Y26005D01*
Y1937D01*
X355853D01*
Y16652D01*
X348328D01*
Y1937D01*
X296798D01*
Y16652D01*
X289273D01*
Y1937D01*
X286979D01*
Y16652D01*
X279454D01*
Y1937D01*
X243672D01*
Y16652D01*
X236147D01*
Y1937D01*
X233853D01*
Y16652D01*
X226328D01*
Y1937D01*
X182672D01*
Y16652D01*
X175147D01*
Y1937D01*
X172172D01*
X171346Y101066D01*
X171838Y101563D01*
X191977D01*
X192718Y101710D01*
X193347Y102130D01*
X200362Y109146D01*
X200907Y109254D01*
X201696Y109781D01*
X201900Y110087D01*
X202801Y110176D01*
X210723Y102254D01*
X210723Y102254D01*
X211301Y101867D01*
X211500Y101828D01*
Y97500D01*
X212063D01*
Y97000D01*
X212210Y96259D01*
X212630Y95630D01*
X213146Y95115D01*
X213254Y94570D01*
X213781Y93781D01*
X214570Y93254D01*
X215115Y93146D01*
X215500Y92760D01*
Y90500D01*
X215900D01*
Y89400D01*
X218000D01*
X220100D01*
Y90500D01*
X220500D01*
Y91645D01*
X225193D01*
X225380Y91683D01*
X226745D01*
X227013Y91036D01*
X212538Y76561D01*
X211689Y76703D01*
X211281Y77234D01*
X210467Y77859D01*
X209518Y78252D01*
X208500Y78386D01*
X207482Y78252D01*
X206533Y77859D01*
X205718Y77234D01*
X205093Y76419D01*
X204700Y75471D01*
X204566Y74453D01*
X204700Y73434D01*
X204908Y72932D01*
X188477Y56500D01*
X186000D01*
Y51500D01*
Y47500D01*
X186563D01*
Y43392D01*
X186254Y42930D01*
X186069Y42000D01*
X186254Y41070D01*
X186563Y40608D01*
Y38306D01*
X185777D01*
Y23695D01*
X191727D01*
Y38306D01*
X190437D01*
Y40608D01*
X190746Y41070D01*
X190931Y42000D01*
X190746Y42930D01*
X190437Y43392D01*
Y47500D01*
X191000D01*
Y51500D01*
Y53977D01*
X193996Y56972D01*
X194500Y56487D01*
Y51500D01*
Y47500D01*
X194500Y47500D01*
X194728Y46800D01*
X194569Y46000D01*
X194754Y45070D01*
X195063Y44608D01*
Y38306D01*
X193651D01*
Y23695D01*
X199601D01*
Y38306D01*
X198937D01*
Y44608D01*
X199246Y45070D01*
X199431Y46000D01*
X199272Y46800D01*
X199500Y47500D01*
X199500D01*
Y51500D01*
Y53977D01*
X201353Y55830D01*
X202000Y55562D01*
Y51500D01*
Y47500D01*
X202563D01*
Y38306D01*
X201525D01*
Y23695D01*
X207475D01*
Y38306D01*
X206437D01*
Y39067D01*
X207137Y39641D01*
X207318Y39605D01*
X207342Y39601D01*
X207342Y39601D01*
X207500Y39569D01*
X208000Y39500D01*
X208000Y39500D01*
X217000D01*
Y39900D01*
X220442D01*
X220710Y39253D01*
X219762Y38306D01*
X217273D01*
Y23695D01*
X223223D01*
Y34845D01*
X225730Y37352D01*
X226261Y38146D01*
X226447Y39083D01*
Y46500D01*
Y51367D01*
X226782Y51623D01*
X227407Y52438D01*
X227800Y53387D01*
X227934Y54405D01*
X227800Y55423D01*
X227407Y56372D01*
X226782Y57187D01*
X225967Y57812D01*
X225018Y58205D01*
X224000Y58339D01*
X222982Y58205D01*
X222033Y57812D01*
X221218Y57187D01*
X220593Y56372D01*
X220200Y55423D01*
X220066Y54405D01*
X220200Y53387D01*
X220593Y52438D01*
X221083Y51800D01*
X220874Y51218D01*
X220774Y51100D01*
X217000D01*
Y52500D01*
X208000D01*
Y51937D01*
X207000D01*
Y56477D01*
X213488Y62964D01*
X214033Y62546D01*
X214982Y62153D01*
X216000Y62019D01*
X217018Y62153D01*
X217967Y62546D01*
X218781Y63171D01*
X219407Y63986D01*
X219800Y64934D01*
X219934Y65952D01*
X219800Y66971D01*
X219407Y67919D01*
X218988Y68465D01*
X227300Y76777D01*
X228000Y76500D01*
D01*
X228400Y75966D01*
Y75400D01*
X230500D01*
Y75000D01*
X230900D01*
Y72900D01*
X234100D01*
Y75000D01*
X234900D01*
Y72900D01*
X238100D01*
Y75000D01*
X238900D01*
Y72900D01*
X242100D01*
Y75000D01*
X242900D01*
Y72900D01*
X243216D01*
Y71500D01*
X243352Y70817D01*
X243738Y70238D01*
X247716Y66261D01*
Y63823D01*
X247189Y63361D01*
X247000Y63386D01*
X245982Y63252D01*
X245033Y62859D01*
X244218Y62234D01*
X243593Y61419D01*
X243200Y60471D01*
X243066Y59452D01*
X243200Y58434D01*
X243593Y57486D01*
X244218Y56671D01*
X245033Y56046D01*
X245982Y55653D01*
X247000Y55519D01*
X247189Y55544D01*
X247716Y55082D01*
Y47000D01*
X247000D01*
Y42000D01*
Y38306D01*
X246777D01*
Y23695D01*
X252727D01*
Y38306D01*
X252000D01*
Y42000D01*
Y46487D01*
X252700Y46777D01*
X255000Y44477D01*
Y42000D01*
Y38306D01*
X254651D01*
Y23695D01*
X260601D01*
Y38306D01*
X260000D01*
Y42000D01*
Y47000D01*
X257523D01*
X252784Y51739D01*
Y55082D01*
X253311Y55544D01*
X253500Y55519D01*
X254518Y55653D01*
X255467Y56046D01*
X256281Y56671D01*
X256907Y57486D01*
X257300Y58434D01*
X257434Y59452D01*
X257300Y60471D01*
X256907Y61419D01*
X256281Y62234D01*
X255467Y62859D01*
X254518Y63252D01*
X253500Y63386D01*
X253311Y63361D01*
X252784Y63823D01*
Y68500D01*
X252648Y69183D01*
X252262Y69762D01*
X252262Y69762D01*
X250908Y71115D01*
X250746Y71930D01*
X250566Y72200D01*
X250940Y72900D01*
X253600D01*
Y75000D01*
X254000D01*
Y75400D01*
X256100D01*
Y76500D01*
X256500D01*
Y78773D01*
X257200Y78842D01*
X257254Y78570D01*
X257781Y77781D01*
X258570Y77254D01*
X259500Y77069D01*
X260430Y77254D01*
X260892Y77563D01*
X285588D01*
X285657Y76863D01*
X285070Y76746D01*
X284281Y76219D01*
X283754Y75430D01*
X283569Y74500D01*
X283754Y73570D01*
X284281Y72781D01*
X285070Y72254D01*
X286000Y72069D01*
X286300Y72129D01*
X287000Y71554D01*
Y67058D01*
X286667D01*
Y59927D01*
X292813D01*
Y66000D01*
X293000D01*
Y71000D01*
Y75273D01*
X293700Y75342D01*
X293754Y75070D01*
X294281Y74281D01*
X295070Y73754D01*
X296000Y73569D01*
X296930Y73754D01*
X297392Y74063D01*
X307508D01*
X307576Y73363D01*
X307064Y73261D01*
X306270Y72730D01*
X305739Y71936D01*
X305553Y71000D01*
X305739Y70064D01*
X306270Y69270D01*
X327893Y47647D01*
X327625Y47000D01*
X326595D01*
X307298Y66298D01*
X306702Y66696D01*
X306000Y66835D01*
X304066D01*
X303931Y67000D01*
X303746Y67930D01*
X303219Y68719D01*
X302430Y69246D01*
X301500Y69431D01*
X300570Y69246D01*
X299781Y68719D01*
X299254Y67930D01*
X299228Y67801D01*
X298619Y67531D01*
X298495Y68194D01*
X298746Y68570D01*
X298931Y69500D01*
X298746Y70430D01*
X298219Y71219D01*
X297430Y71746D01*
X296500Y71931D01*
X295570Y71746D01*
X294781Y71219D01*
X294254Y70430D01*
X294069Y69500D01*
X294254Y68570D01*
X294781Y67781D01*
X295196Y67504D01*
X295280Y66725D01*
X295258Y66685D01*
X294754Y65930D01*
X294569Y65000D01*
X294754Y64070D01*
X294991Y63716D01*
X294754Y63362D01*
X294569Y62432D01*
X294754Y61501D01*
X294991Y61147D01*
X294754Y60793D01*
X294569Y59863D01*
X294754Y58933D01*
X294991Y58579D01*
X294754Y58225D01*
X294569Y57294D01*
X294754Y56364D01*
X295281Y55576D01*
X296070Y55049D01*
X296795Y54904D01*
X301500Y50199D01*
Y48422D01*
X301466Y48250D01*
Y47000D01*
X300500D01*
Y42000D01*
Y38306D01*
X299903D01*
Y23695D01*
X305853D01*
Y38306D01*
X305500D01*
Y42000D01*
Y46500D01*
X308500D01*
Y42000D01*
Y38306D01*
X307777D01*
Y23695D01*
X313727D01*
Y38306D01*
X313500D01*
Y42000D01*
Y47000D01*
X312534D01*
Y48250D01*
X312534Y48250D01*
X312500Y48422D01*
Y50490D01*
X313147Y50758D01*
X316618Y47286D01*
X316500Y47000D01*
X316500D01*
Y42000D01*
Y38306D01*
X315651D01*
Y23695D01*
X321601D01*
Y38306D01*
X321500D01*
Y42000D01*
Y45990D01*
X322147Y46258D01*
X324000Y44405D01*
Y42000D01*
Y38306D01*
X323525D01*
Y23695D01*
X329475D01*
Y38306D01*
X329000D01*
Y42000D01*
Y45625D01*
X329647Y45893D01*
X336934Y38605D01*
X336644Y37905D01*
X336375Y37905D01*
X334774D01*
Y31400D01*
X336949D01*
Y37296D01*
X336949Y37601D01*
X337649Y37891D01*
X339226Y36313D01*
Y31575D01*
X339273Y31338D01*
Y23695D01*
X345223D01*
Y38306D01*
X343906D01*
X343404Y39057D01*
X309730Y72730D01*
X308936Y73261D01*
X308423Y73363D01*
X308492Y74063D01*
X327000D01*
X327741Y74210D01*
X328370Y74630D01*
X330802Y77063D01*
X337162D01*
X337302Y76363D01*
X336587Y76067D01*
X334550Y74818D01*
X332733Y73267D01*
X331182Y71450D01*
X329933Y69413D01*
X329019Y67205D01*
X328461Y64882D01*
X328274Y62500D01*
X328461Y60118D01*
X329019Y57795D01*
X329933Y55587D01*
X331182Y53550D01*
X332733Y51733D01*
X334550Y50182D01*
X336587Y48933D01*
X338795Y48019D01*
X341118Y47461D01*
X343500Y47273D01*
X345882Y47461D01*
X347445Y47836D01*
X347737Y47300D01*
X347764Y47193D01*
X347254Y46430D01*
X347069Y45500D01*
X347254Y44570D01*
X347781Y43781D01*
X348570Y43254D01*
X349500Y43069D01*
X350430Y43254D01*
X351045Y43665D01*
X353000D01*
Y38500D01*
X353665D01*
Y27500D01*
X353804Y26798D01*
X354202Y26202D01*
X364702Y15702D01*
X365298Y15304D01*
X366000Y15165D01*
X386350D01*
Y14000D01*
X392216D01*
X392650Y14000D01*
X393184Y14400D01*
X393350D01*
X395100D01*
Y17000D01*
Y19600D01*
X393184D01*
X392650Y20000D01*
X392216Y20000D01*
X386350D01*
Y18835D01*
X366760D01*
X357335Y28260D01*
Y38500D01*
X358000D01*
Y42500D01*
Y47500D01*
X353000D01*
Y47335D01*
X351045D01*
X350430Y47746D01*
X349718Y47888D01*
X349646Y48616D01*
X350413Y48933D01*
X352450Y50182D01*
X354267Y51733D01*
X355819Y53550D01*
X357067Y55587D01*
X357981Y57795D01*
X358539Y60118D01*
X358727Y62500D01*
X358539Y64882D01*
X357981Y67205D01*
X357067Y69413D01*
X355819Y71450D01*
X354267Y73267D01*
X352450Y74818D01*
X350413Y76067D01*
X349698Y76363D01*
X349838Y77063D01*
X363198D01*
X374063Y66198D01*
Y54392D01*
X373754Y53930D01*
X373569Y53000D01*
X373754Y52070D01*
X374281Y51281D01*
X375070Y50754D01*
X376000Y50569D01*
X376930Y50754D01*
X377719Y51281D01*
X378246Y52070D01*
X378431Y53000D01*
X378246Y53930D01*
X377937Y54392D01*
Y67000D01*
X377790Y67741D01*
X377370Y68370D01*
X365672Y80068D01*
X365962Y80768D01*
X369962D01*
Y82942D01*
X363457D01*
Y80937D01*
X347481D01*
X347184Y81637D01*
X347247Y81702D01*
X347900Y81900D01*
Y81900D01*
X347900Y81900D01*
X349600D01*
Y84000D01*
X350000D01*
Y84400D01*
X352100D01*
Y85500D01*
X352500D01*
Y86963D01*
X353900D01*
X354087Y87000D01*
X363000D01*
Y87565D01*
X363057Y88242D01*
X375019D01*
X375630Y87630D01*
X376259Y87210D01*
X376441Y87174D01*
X377070Y86754D01*
X378000Y86569D01*
X378930Y86754D01*
X379719Y87281D01*
X380246Y88070D01*
X380431Y89000D01*
X380246Y89930D01*
X379719Y90719D01*
X378930Y91246D01*
X378000Y91431D01*
X377668Y91704D01*
Y94191D01*
X363057D01*
X363000Y94868D01*
Y95260D01*
X363818Y96078D01*
X369287D01*
X369475Y96116D01*
X377668D01*
Y97063D01*
X384608D01*
X385070Y96754D01*
X386000Y96569D01*
X386930Y96754D01*
X387719Y97281D01*
X388246Y98070D01*
X388431Y99000D01*
X388246Y99930D01*
X387719Y100719D01*
X386930Y101246D01*
X386000Y101431D01*
X385070Y101246D01*
X384637Y100957D01*
X383937Y101098D01*
Y114491D01*
X384348Y115021D01*
X384637Y115021D01*
X399563D01*
Y112695D01*
D02*
G37*
G36*
X256364Y96351D02*
Y91683D01*
X262330D01*
X264697Y89316D01*
X264102Y88721D01*
X255817D01*
Y91136D01*
X252464D01*
X252090Y91836D01*
X252246Y92070D01*
X252431Y93000D01*
X252246Y93930D01*
X251855Y94516D01*
X252139Y95216D01*
X253500D01*
X254183Y95351D01*
X254762Y95738D01*
X255664Y96640D01*
X256364Y96351D01*
D02*
G37*
G36*
X276665Y94240D02*
Y88000D01*
X276804Y87298D01*
X277202Y86702D01*
X279821Y84084D01*
X279553Y83437D01*
X270043D01*
Y85329D01*
X270743Y85720D01*
X271500Y85569D01*
X272430Y85754D01*
X273219Y86281D01*
X273746Y87070D01*
X273931Y88000D01*
X273746Y88930D01*
X273219Y89719D01*
X272430Y90246D01*
X271500Y90431D01*
X271404Y90412D01*
X271264Y90505D01*
X270522Y90653D01*
X270443D01*
Y91522D01*
X270500Y91569D01*
X271430Y91754D01*
X272219Y92281D01*
X272746Y93070D01*
X272931Y94000D01*
X272746Y94930D01*
X272219Y95719D01*
X271430Y96246D01*
X270500Y96431D01*
X270012Y96334D01*
X269415Y96920D01*
X269431Y97000D01*
X269391Y97202D01*
X269835Y97743D01*
X273161D01*
X276665Y94240D01*
D02*
G37*
G36*
X305677Y88621D02*
X305761Y88531D01*
X306270Y87770D01*
X307064Y87239D01*
X308000Y87053D01*
X311500D01*
Y87000D01*
X313864D01*
X314100Y86953D01*
X316672D01*
X316717Y86919D01*
X316770Y86762D01*
Y86238D01*
X316717Y86081D01*
X316403Y85841D01*
X315989Y85302D01*
X315729Y84674D01*
X315641Y84000D01*
X315729Y83326D01*
X315989Y82698D01*
X315643Y82000D01*
X314500D01*
Y81437D01*
X298591D01*
X298324Y82084D01*
X305015Y88775D01*
X305677Y88621D01*
D02*
G37*
G36*
X127961Y95655D02*
Y65845D01*
X122155Y60039D01*
X117500D01*
Y63500D01*
Y68000D01*
Y72160D01*
X118321D01*
Y77360D01*
X117921D01*
Y78100D01*
X111921D01*
Y77360D01*
X111521D01*
Y73000D01*
X108416D01*
Y73860D01*
X108379Y74047D01*
Y75473D01*
X108416Y75660D01*
Y76576D01*
X108746Y77070D01*
X108931Y78000D01*
X108746Y78930D01*
X108379Y79480D01*
Y84900D01*
X109600D01*
Y84900D01*
X109900D01*
Y84900D01*
X110846D01*
X111521Y84840D01*
Y79640D01*
X111921D01*
Y78900D01*
X117921D01*
Y79640D01*
X118321D01*
Y80000D01*
X126000D01*
Y85000D01*
X125437D01*
Y88500D01*
X125290Y89241D01*
X124870Y89870D01*
X105437Y109302D01*
Y117189D01*
X106137Y117479D01*
X127961Y95655D01*
D02*
G37*
%LPC*%
G36*
X247500Y243287D02*
X246261Y243124D01*
X245106Y242646D01*
X244115Y241885D01*
X243354Y240894D01*
X242876Y239739D01*
X242853Y239567D01*
X242147D01*
X242124Y239739D01*
X241646Y240894D01*
X240885Y241885D01*
X239894Y242646D01*
X238739Y243124D01*
X237500Y243287D01*
X236261Y243124D01*
X235106Y242646D01*
X234115Y241885D01*
X233354Y240894D01*
X232946Y239910D01*
X232246Y240049D01*
Y243247D01*
X222754D01*
Y233753D01*
X230269D01*
X230447Y233718D01*
X230624Y233753D01*
X232246D01*
Y235376D01*
X232282Y235554D01*
X232246Y235731D01*
Y236951D01*
X232946Y237090D01*
X233354Y236106D01*
X234115Y235115D01*
X235106Y234354D01*
X236261Y233876D01*
X237500Y233713D01*
X238739Y233876D01*
X239894Y234354D01*
X240885Y235115D01*
X241646Y236106D01*
X242124Y237261D01*
X242147Y237433D01*
X242853D01*
X242876Y237261D01*
X243354Y236106D01*
X244115Y235115D01*
X245106Y234354D01*
X246261Y233876D01*
X247500Y233713D01*
X248739Y233876D01*
X249894Y234354D01*
X250885Y235115D01*
X251646Y236106D01*
X252124Y237261D01*
X252287Y238500D01*
X252124Y239739D01*
X251646Y240894D01*
X250885Y241885D01*
X249894Y242646D01*
X248739Y243124D01*
X247500Y243287D01*
D02*
G37*
G36*
X152500D02*
X151261Y243124D01*
X150106Y242646D01*
X149115Y241885D01*
X148354Y240894D01*
X147876Y239739D01*
X147853Y239567D01*
X147147D01*
X147124Y239739D01*
X146646Y240894D01*
X145885Y241885D01*
X144894Y242646D01*
X143739Y243124D01*
X142500Y243287D01*
X141261Y243124D01*
X140106Y242646D01*
X139115Y241885D01*
X138354Y240894D01*
X137946Y239910D01*
X137247Y240049D01*
Y243247D01*
X127753D01*
Y233753D01*
X137247D01*
Y236951D01*
X137946Y237090D01*
X138354Y236106D01*
X139115Y235115D01*
X140106Y234354D01*
X141261Y233876D01*
X142500Y233713D01*
X143739Y233876D01*
X144894Y234354D01*
X145885Y235115D01*
X146646Y236106D01*
X147124Y237261D01*
X147147Y237433D01*
X147853D01*
X147876Y237261D01*
X148354Y236106D01*
X149115Y235115D01*
X150106Y234354D01*
X151261Y233876D01*
X152500Y233713D01*
X153739Y233876D01*
X154894Y234354D01*
X155885Y235115D01*
X156646Y236106D01*
X157124Y237261D01*
X157287Y238500D01*
X157124Y239739D01*
X156646Y240894D01*
X155885Y241885D01*
X154894Y242646D01*
X153739Y243124D01*
X152500Y243287D01*
D02*
G37*
G36*
X285400Y242831D02*
Y238900D01*
X289331D01*
X289235Y239635D01*
X288797Y240692D01*
X288100Y241600D01*
X287192Y242297D01*
X286135Y242735D01*
X285400Y242831D01*
D02*
G37*
G36*
X284600D02*
X283865Y242735D01*
X282808Y242297D01*
X281900Y241600D01*
X281203Y240692D01*
X280765Y239635D01*
X280669Y238900D01*
X284600D01*
Y242831D01*
D02*
G37*
G36*
X190400D02*
Y238900D01*
X194331D01*
X194235Y239635D01*
X193797Y240692D01*
X193100Y241600D01*
X192192Y242297D01*
X191135Y242735D01*
X190400Y242831D01*
D02*
G37*
G36*
X189600D02*
X188865Y242735D01*
X187808Y242297D01*
X186900Y241600D01*
X186203Y240692D01*
X185765Y239635D01*
X185669Y238900D01*
X189600D01*
Y242831D01*
D02*
G37*
G36*
X95400D02*
Y238900D01*
X99331D01*
X99235Y239635D01*
X98797Y240692D01*
X98100Y241600D01*
X97192Y242297D01*
X96135Y242735D01*
X95400Y242831D01*
D02*
G37*
G36*
X94600D02*
X93865Y242735D01*
X92808Y242297D01*
X91900Y241600D01*
X91203Y240692D01*
X90765Y239635D01*
X90669Y238900D01*
X94600D01*
Y242831D01*
D02*
G37*
G36*
X215000Y243431D02*
X214070Y243246D01*
X213281Y242719D01*
X212754Y241930D01*
X212569Y241000D01*
X212754Y240070D01*
X213281Y239281D01*
X214070Y238754D01*
X215000Y238569D01*
X215930Y238754D01*
X216719Y239281D01*
X217246Y240070D01*
X217431Y241000D01*
X217246Y241930D01*
X216719Y242719D01*
X215930Y243246D01*
X215000Y243431D01*
D02*
G37*
G36*
X289331Y238100D02*
X285400D01*
Y234169D01*
X286135Y234265D01*
X287192Y234703D01*
X288100Y235400D01*
X288797Y236308D01*
X289235Y237365D01*
X289331Y238100D01*
D02*
G37*
G36*
X284600D02*
X280669D01*
X280765Y237365D01*
X281203Y236308D01*
X281900Y235400D01*
X282808Y234703D01*
X283865Y234265D01*
X284600Y234169D01*
Y238100D01*
D02*
G37*
G36*
X194331D02*
X190400D01*
Y234169D01*
X191135Y234265D01*
X192192Y234703D01*
X193100Y235400D01*
X193797Y236308D01*
X194235Y237365D01*
X194331Y238100D01*
D02*
G37*
G36*
X189600D02*
X185669D01*
X185765Y237365D01*
X186203Y236308D01*
X186900Y235400D01*
X187808Y234703D01*
X188865Y234265D01*
X189600Y234169D01*
Y238100D01*
D02*
G37*
G36*
X99331D02*
X95400D01*
Y234169D01*
X96135Y234265D01*
X97192Y234703D01*
X98100Y235400D01*
X98797Y236308D01*
X99235Y237365D01*
X99331Y238100D01*
D02*
G37*
G36*
X94600D02*
X90669D01*
X90765Y237365D01*
X91203Y236308D01*
X91900Y235400D01*
X92808Y234703D01*
X93865Y234265D01*
X94600Y234169D01*
Y238100D01*
D02*
G37*
G36*
X89746Y243247D02*
X80253D01*
Y233753D01*
X89746D01*
Y243247D01*
D02*
G37*
G36*
X279747D02*
X270253D01*
Y233753D01*
X277769D01*
X277946Y233718D01*
X278124Y233753D01*
X279747D01*
Y235376D01*
X279782Y235554D01*
X279747Y235731D01*
Y243247D01*
D02*
G37*
G36*
X184747D02*
X175253D01*
Y233753D01*
X182769D01*
X182947Y233718D01*
X183124Y233753D01*
X184747D01*
Y235376D01*
X184782Y235554D01*
X184747Y235731D01*
Y243247D01*
D02*
G37*
G36*
X200000Y243287D02*
X198761Y243124D01*
X197606Y242646D01*
X196615Y241885D01*
X195854Y240894D01*
X195376Y239739D01*
X195213Y238500D01*
X195376Y237261D01*
X195854Y236106D01*
X196615Y235115D01*
X197606Y234354D01*
X198761Y233876D01*
X200000Y233713D01*
X201239Y233876D01*
X202394Y234354D01*
X203385Y235115D01*
X204146Y236106D01*
X204624Y237261D01*
X204787Y238500D01*
X204624Y239739D01*
X204146Y240894D01*
X203385Y241885D01*
X202394Y242646D01*
X201239Y243124D01*
X200000Y243287D01*
D02*
G37*
G36*
X105000D02*
X103761Y243124D01*
X102606Y242646D01*
X101615Y241885D01*
X100854Y240894D01*
X100376Y239739D01*
X100213Y238500D01*
X100376Y237261D01*
X100854Y236106D01*
X101615Y235115D01*
X102606Y234354D01*
X103761Y233876D01*
X105000Y233713D01*
X106239Y233876D01*
X107394Y234354D01*
X108385Y235115D01*
X109146Y236106D01*
X109624Y237261D01*
X109787Y238500D01*
X109624Y239739D01*
X109146Y240894D01*
X108385Y241885D01*
X107394Y242646D01*
X106239Y243124D01*
X105000Y243287D01*
D02*
G37*
G36*
X81000Y229431D02*
X80070Y229246D01*
X79281Y228719D01*
X78754Y227930D01*
X78569Y227000D01*
X78754Y226070D01*
X79281Y225281D01*
X80070Y224754D01*
X81000Y224569D01*
X81930Y224754D01*
X82719Y225281D01*
X83246Y226070D01*
X83431Y227000D01*
X83246Y227930D01*
X82719Y228719D01*
X81930Y229246D01*
X81000Y229431D01*
D02*
G37*
G36*
X74000Y208431D02*
X73070Y208246D01*
X72281Y207719D01*
X71754Y206930D01*
X71569Y206000D01*
X71754Y205070D01*
X72281Y204281D01*
X73070Y203754D01*
X74000Y203569D01*
X74930Y203754D01*
X75719Y204281D01*
X76246Y205070D01*
X76431Y206000D01*
X76246Y206930D01*
X75719Y207719D01*
X74930Y208246D01*
X74000Y208431D01*
D02*
G37*
G36*
X19900Y180831D02*
Y176900D01*
X23831D01*
X23735Y177635D01*
X23297Y178692D01*
X22600Y179600D01*
X21692Y180297D01*
X20635Y180735D01*
X19900Y180831D01*
D02*
G37*
G36*
X19100D02*
X18365Y180735D01*
X17308Y180297D01*
X16400Y179600D01*
X15703Y178692D01*
X15265Y177635D01*
X15169Y176900D01*
X19100D01*
Y180831D01*
D02*
G37*
G36*
X23831Y176100D02*
X19900D01*
Y172169D01*
X20635Y172266D01*
X21692Y172703D01*
X22600Y173400D01*
X23297Y174308D01*
X23735Y175365D01*
X23831Y176100D01*
D02*
G37*
G36*
X19100D02*
X15169D01*
X15265Y175365D01*
X15703Y174308D01*
X16400Y173400D01*
X17308Y172703D01*
X18365Y172266D01*
X19100Y172169D01*
Y176100D01*
D02*
G37*
G36*
X19900Y127081D02*
Y123150D01*
X23831D01*
X23735Y123885D01*
X23297Y124942D01*
X22600Y125850D01*
X21692Y126547D01*
X20635Y126985D01*
X19900Y127081D01*
D02*
G37*
G36*
X19100D02*
X18365Y126985D01*
X17308Y126547D01*
X16400Y125850D01*
X15703Y124942D01*
X15265Y123885D01*
X15169Y123150D01*
X19100D01*
Y127081D01*
D02*
G37*
G36*
Y122350D02*
X15169D01*
X15265Y121615D01*
X15703Y120558D01*
X16400Y119650D01*
X17308Y118953D01*
X18365Y118516D01*
X19100Y118419D01*
Y122350D01*
D02*
G37*
G36*
X23831D02*
X19900D01*
Y118419D01*
X20635Y118516D01*
X21692Y118953D01*
X22600Y119650D01*
X23297Y120558D01*
X23735Y121615D01*
X23831Y122350D01*
D02*
G37*
G36*
X69500Y110227D02*
X67118Y110039D01*
X64795Y109481D01*
X62587Y108567D01*
X60550Y107318D01*
X58733Y105767D01*
X57182Y103950D01*
X55933Y101913D01*
X55019Y99705D01*
X54461Y97382D01*
X54273Y95000D01*
X54461Y92618D01*
X55019Y90295D01*
X55933Y88087D01*
X57182Y86050D01*
X58733Y84233D01*
X60550Y82682D01*
X62587Y81433D01*
X64795Y80519D01*
X67118Y79961D01*
X69500Y79773D01*
X71882Y79961D01*
X74205Y80519D01*
X76413Y81433D01*
X78450Y82682D01*
X80267Y84233D01*
X81818Y86050D01*
X83067Y88087D01*
X83981Y90295D01*
X84539Y92618D01*
X84727Y95000D01*
X84539Y97382D01*
X83981Y99705D01*
X83067Y101913D01*
X81818Y103950D01*
X80267Y105767D01*
X78450Y107318D01*
X76413Y108567D01*
X74205Y109481D01*
X71882Y110039D01*
X69500Y110227D01*
D02*
G37*
G36*
X86600Y79600D02*
X84400D01*
Y77400D01*
X86600D01*
Y79600D01*
D02*
G37*
G36*
X94600Y75650D02*
X89700D01*
Y72650D01*
X94600D01*
Y75650D01*
D02*
G37*
G36*
X19900Y73331D02*
Y69400D01*
X23831D01*
X23735Y70135D01*
X23297Y71192D01*
X22600Y72100D01*
X21692Y72797D01*
X20635Y73235D01*
X19900Y73331D01*
D02*
G37*
G36*
X19100D02*
X18365Y73235D01*
X17308Y72797D01*
X16400Y72100D01*
X15703Y71192D01*
X15265Y70135D01*
X15169Y69400D01*
X19100D01*
Y73331D01*
D02*
G37*
G36*
X94600Y71850D02*
X89700D01*
Y68850D01*
X94600D01*
Y71850D01*
D02*
G37*
G36*
X23831Y68600D02*
X19900D01*
Y64669D01*
X20635Y64765D01*
X21692Y65203D01*
X22600Y65900D01*
X23297Y66808D01*
X23735Y67865D01*
X23831Y68600D01*
D02*
G37*
G36*
X19100D02*
X15169D01*
X15265Y67865D01*
X15703Y66808D01*
X16400Y65900D01*
X17308Y65203D01*
X18365Y64765D01*
X19100Y64669D01*
Y68600D01*
D02*
G37*
G36*
X104933Y65092D02*
X102660D01*
Y62327D01*
X104933D01*
Y65092D01*
D02*
G37*
G36*
X101860D02*
X99587D01*
Y62327D01*
X101860D01*
Y65092D01*
D02*
G37*
G36*
X20400Y41373D02*
Y32900D01*
X27928D01*
Y33484D01*
X27776Y35031D01*
X27325Y36518D01*
X26592Y37889D01*
X25606Y39090D01*
X24405Y40076D01*
X23034Y40809D01*
X21547Y41260D01*
X20400Y41373D01*
D02*
G37*
G36*
X19600D02*
X18453Y41260D01*
X16966Y40809D01*
X15596Y40076D01*
X14394Y39090D01*
X13408Y37889D01*
X12675Y36518D01*
X12224Y35031D01*
X12072Y33484D01*
Y32900D01*
X19600D01*
Y41373D01*
D02*
G37*
G36*
X27928Y32100D02*
X20400D01*
Y23627D01*
X21547Y23740D01*
X23034Y24191D01*
X24405Y24924D01*
X25606Y25910D01*
X26592Y27111D01*
X27325Y28482D01*
X27776Y29969D01*
X27928Y31516D01*
Y32100D01*
D02*
G37*
G36*
X19600D02*
X12072D01*
Y31516D01*
X12224Y29969D01*
X12675Y28482D01*
X13408Y27111D01*
X14394Y25910D01*
X15596Y24924D01*
X16966Y24191D01*
X18453Y23740D01*
X19600Y23627D01*
Y32100D01*
D02*
G37*
G36*
X168290Y41774D02*
X151710D01*
Y23226D01*
X168290D01*
Y41774D01*
D02*
G37*
G36*
X100000Y41814D02*
X98375Y41654D01*
X96812Y41180D01*
X95372Y40410D01*
X94110Y39374D01*
X93074Y38112D01*
X92304Y36672D01*
X91830Y35109D01*
X91670Y33484D01*
Y31516D01*
X91830Y29891D01*
X92304Y28328D01*
X93074Y26888D01*
X94110Y25626D01*
X95372Y24590D01*
X96812Y23820D01*
X98375Y23346D01*
X100000Y23186D01*
X101625Y23346D01*
X103188Y23820D01*
X104628Y24590D01*
X105890Y25626D01*
X106926Y26888D01*
X107696Y28328D01*
X108170Y29891D01*
X108330Y31516D01*
Y33484D01*
X108170Y35109D01*
X107696Y36672D01*
X106926Y38112D01*
X105890Y39374D01*
X104628Y40410D01*
X103188Y41180D01*
X101625Y41654D01*
X100000Y41814D01*
D02*
G37*
G36*
X140000Y41814D02*
X138375Y41654D01*
X136812Y41180D01*
X135372Y40410D01*
X134110Y39374D01*
X133074Y38112D01*
X132304Y36672D01*
X131830Y35109D01*
X131670Y33484D01*
Y31516D01*
X131830Y29891D01*
X132304Y28328D01*
X133074Y26888D01*
X134110Y25626D01*
X135372Y24590D01*
X136812Y23820D01*
X138375Y23346D01*
X140000Y23186D01*
X141625Y23346D01*
X143188Y23820D01*
X144628Y24590D01*
X145890Y25626D01*
X146926Y26888D01*
X147696Y28328D01*
X148170Y29891D01*
X148330Y31516D01*
Y33484D01*
X148170Y35109D01*
X147696Y36672D01*
X146926Y38112D01*
X145890Y39374D01*
X144628Y40410D01*
X143188Y41180D01*
X141625Y41654D01*
X140000Y41814D01*
D02*
G37*
G36*
X120000D02*
X118375Y41654D01*
X116812Y41180D01*
X115372Y40410D01*
X114110Y39374D01*
X113074Y38112D01*
X112304Y36672D01*
X111830Y35109D01*
X111670Y33484D01*
Y31516D01*
X111830Y29891D01*
X112304Y28328D01*
X113074Y26888D01*
X114110Y25626D01*
X115372Y24590D01*
X116812Y23820D01*
X118375Y23346D01*
X120000Y23186D01*
X121625Y23346D01*
X123188Y23820D01*
X124628Y24590D01*
X125890Y25626D01*
X126926Y26888D01*
X127696Y28328D01*
X128170Y29891D01*
X128330Y31516D01*
Y33484D01*
X128170Y35109D01*
X127696Y36672D01*
X126926Y38112D01*
X125890Y39374D01*
X124628Y40410D01*
X123188Y41180D01*
X121625Y41654D01*
X120000Y41814D01*
D02*
G37*
G36*
X80000D02*
X78375Y41654D01*
X76812Y41180D01*
X75372Y40410D01*
X74110Y39374D01*
X73074Y38112D01*
X72304Y36672D01*
X71830Y35109D01*
X71670Y33484D01*
Y31516D01*
X71830Y29891D01*
X72304Y28328D01*
X73074Y26888D01*
X74110Y25626D01*
X75372Y24590D01*
X76812Y23820D01*
X78375Y23346D01*
X80000Y23186D01*
X81625Y23346D01*
X83188Y23820D01*
X84628Y24590D01*
X85890Y25626D01*
X86926Y26888D01*
X87696Y28328D01*
X88170Y29891D01*
X88330Y31516D01*
Y33484D01*
X88170Y35109D01*
X87696Y36672D01*
X86926Y38112D01*
X85890Y39374D01*
X84628Y40410D01*
X83188Y41180D01*
X81625Y41654D01*
X80000Y41814D01*
D02*
G37*
G36*
X84400Y76400D02*
X55600D01*
Y63247D01*
X53676Y61324D01*
X52564Y59969D01*
X51738Y58422D01*
X51229Y56745D01*
X51057Y55000D01*
Y32500D01*
X51229Y30755D01*
X51738Y29078D01*
X52564Y27531D01*
X53040Y26952D01*
X53074Y26888D01*
X54110Y25626D01*
X55372Y24590D01*
X56812Y23820D01*
X58375Y23346D01*
X60000Y23186D01*
X61625Y23346D01*
X63188Y23820D01*
X64628Y24590D01*
X65890Y25626D01*
X66926Y26888D01*
X66960Y26952D01*
X67436Y27531D01*
X68262Y29078D01*
X68771Y30755D01*
X68943Y32500D01*
Y50600D01*
X84400D01*
Y76400D01*
D02*
G37*
G36*
X373200Y242400D02*
X370800D01*
Y238900D01*
X373200D01*
Y242400D01*
D02*
G37*
G36*
X370000D02*
X367600D01*
Y238900D01*
X370000D01*
Y242400D01*
D02*
G37*
G36*
X361800Y242800D02*
X355400D01*
Y238337D01*
X353172Y236109D01*
X352477Y236191D01*
X352319Y236450D01*
X350767Y238267D01*
X348950Y239819D01*
X346913Y241067D01*
X344705Y241981D01*
X342382Y242539D01*
X340000Y242726D01*
X337618Y242539D01*
X335295Y241981D01*
X333087Y241067D01*
X331050Y239819D01*
X329233Y238267D01*
X327681Y236450D01*
X326433Y234413D01*
X325519Y232205D01*
X324961Y229882D01*
X324774Y227500D01*
X324961Y225118D01*
X325519Y222795D01*
X326433Y220587D01*
X327681Y218550D01*
X329233Y216733D01*
X331050Y215181D01*
X333087Y213933D01*
X335295Y213019D01*
X337618Y212461D01*
X340000Y212274D01*
X342382Y212461D01*
X344705Y213019D01*
X346913Y213933D01*
X348950Y215181D01*
X350767Y216733D01*
X352319Y218550D01*
X353567Y220587D01*
X354481Y222795D01*
X355039Y225118D01*
X355226Y227500D01*
X355045Y229807D01*
X355468Y230131D01*
X359537Y234200D01*
X361800D01*
Y242800D01*
D02*
G37*
G36*
X373200Y238100D02*
X370800D01*
Y234600D01*
X373200D01*
Y238100D01*
D02*
G37*
G36*
X370000D02*
X367600D01*
Y234600D01*
X370000D01*
Y238100D01*
D02*
G37*
G36*
X382200Y235453D02*
X381182Y235318D01*
X380233Y234926D01*
X379418Y234300D01*
X378793Y233486D01*
X378400Y232537D01*
X378266Y231519D01*
Y231119D01*
X378400Y230101D01*
X378793Y229152D01*
X378885Y229032D01*
X378686Y228142D01*
X378663Y228127D01*
X378375Y227697D01*
X378294Y227290D01*
X381404D01*
X382200Y227185D01*
X382500Y227224D01*
X382996Y227290D01*
X386706D01*
X386625Y227697D01*
X386337Y228127D01*
X385918Y228407D01*
X385907Y228415D01*
X385610Y229144D01*
X385620Y229185D01*
X386000Y230101D01*
X386134Y231119D01*
Y231519D01*
X386000Y232537D01*
X385607Y233486D01*
X384981Y234300D01*
X384167Y234926D01*
X383218Y235318D01*
X382200Y235453D01*
D02*
G37*
G36*
X272900Y200783D02*
Y197050D01*
X276633D01*
X276543Y197733D01*
X276125Y198743D01*
X275460Y199609D01*
X274593Y200275D01*
X273583Y200693D01*
X272900Y200783D01*
D02*
G37*
G36*
X272100Y200783D02*
X271417Y200693D01*
X270407Y200275D01*
X269541Y199609D01*
X268875Y198743D01*
X268457Y197733D01*
X268367Y197050D01*
X272100D01*
Y200783D01*
D02*
G37*
G36*
X324600Y194600D02*
X322900D01*
Y192900D01*
X324600D01*
Y194600D01*
D02*
G37*
G36*
X276633Y196250D02*
X272900D01*
Y192517D01*
X273583Y192607D01*
X274593Y193025D01*
X275460Y193691D01*
X276125Y194557D01*
X276543Y195567D01*
X276633Y196250D01*
D02*
G37*
G36*
X272100D02*
X268367D01*
X268457Y195567D01*
X268875Y194557D01*
X269541Y193691D01*
X270407Y193025D01*
X271417Y192607D01*
X272100Y192517D01*
Y196250D01*
D02*
G37*
G36*
X376768Y176417D02*
X370262D01*
Y174242D01*
X376768D01*
Y176417D01*
D02*
G37*
G36*
X369462D02*
X362957D01*
Y174242D01*
X369462D01*
Y176417D01*
D02*
G37*
G36*
X376768Y173442D02*
X370262D01*
Y171268D01*
X376768D01*
Y173442D01*
D02*
G37*
G36*
X369462D02*
X362957D01*
Y171268D01*
X369462D01*
Y173442D01*
D02*
G37*
G36*
X369600Y131201D02*
X363094D01*
Y129026D01*
X369600D01*
Y131201D01*
D02*
G37*
G36*
X360600Y128100D02*
X358900D01*
Y126400D01*
X360600D01*
Y128100D01*
D02*
G37*
G36*
X369600Y128226D02*
X363094D01*
Y126051D01*
X369600D01*
Y128226D01*
D02*
G37*
G36*
X291628Y114130D02*
X288469D01*
Y110380D01*
X291628D01*
Y114130D01*
D02*
G37*
G36*
X350100Y111100D02*
X345600D01*
X345690Y110649D01*
X346172Y109927D01*
X346893Y109446D01*
X347744Y109276D01*
X350100D01*
Y111100D01*
D02*
G37*
G36*
X291628Y109580D02*
X288469D01*
Y105831D01*
X291628D01*
Y109580D01*
D02*
G37*
G36*
X342600Y101224D02*
X340244D01*
X339393Y101055D01*
X338672Y100573D01*
X338190Y99851D01*
X338100Y99400D01*
X342600D01*
Y101224D01*
D02*
G37*
G36*
X352100Y100600D02*
X350400D01*
Y98900D01*
X352100D01*
Y100600D01*
D02*
G37*
G36*
X237933Y175650D02*
X235660D01*
Y172884D01*
X237933D01*
Y175650D01*
D02*
G37*
G36*
X234860D02*
X232587D01*
Y172884D01*
X234860D01*
Y175650D01*
D02*
G37*
G36*
X246100Y172600D02*
X244400D01*
Y170900D01*
X246100D01*
Y172600D01*
D02*
G37*
G36*
X243600D02*
X241900D01*
Y170900D01*
X243600D01*
Y172600D01*
D02*
G37*
G36*
X218600Y191174D02*
X217635D01*
X216932Y191034D01*
X216337Y190636D01*
X215939Y190041D01*
X215879Y189739D01*
X218600D01*
Y191174D01*
D02*
G37*
G36*
X207100Y179100D02*
X205400D01*
Y177400D01*
X207100D01*
Y179100D01*
D02*
G37*
G36*
X187400Y168600D02*
X185300D01*
Y166250D01*
X187400D01*
Y168600D01*
D02*
G37*
G36*
X95600Y153600D02*
X93900D01*
Y152200D01*
X93900Y151900D01*
X93366Y151500D01*
X90557D01*
Y152313D01*
X83427D01*
Y146167D01*
X90557D01*
Y146500D01*
X94500D01*
Y146900D01*
X95600D01*
Y149000D01*
Y151100D01*
X95134D01*
X95100Y151200D01*
X95600Y151893D01*
Y153600D01*
D02*
G37*
G36*
X98100Y151100D02*
X96400D01*
Y149400D01*
X98100D01*
Y151100D01*
D02*
G37*
G36*
Y148600D02*
X96400D01*
Y146900D01*
X98100D01*
Y148600D01*
D02*
G37*
G36*
X299900Y156831D02*
Y152900D01*
X303831D01*
X303735Y153635D01*
X303297Y154692D01*
X302600Y155600D01*
X301692Y156297D01*
X300635Y156735D01*
X299900Y156831D01*
D02*
G37*
G36*
X299100D02*
X298365Y156735D01*
X297308Y156297D01*
X296400Y155600D01*
X295703Y154692D01*
X295266Y153635D01*
X295169Y152900D01*
X299100D01*
Y156831D01*
D02*
G37*
G36*
X303831Y152100D02*
X299900D01*
Y148169D01*
X300635Y148266D01*
X301692Y148703D01*
X302600Y149400D01*
X303297Y150308D01*
X303735Y151365D01*
X303831Y152100D01*
D02*
G37*
G36*
X299100D02*
X295169D01*
X295266Y151365D01*
X295703Y150308D01*
X296400Y149400D01*
X297308Y148703D01*
X298365Y148266D01*
X299100Y148169D01*
Y152100D01*
D02*
G37*
G36*
X209100Y146600D02*
X207400D01*
Y144900D01*
X209100D01*
Y146600D01*
D02*
G37*
G36*
X234100Y135600D02*
X232400D01*
Y133900D01*
X234100D01*
Y135600D01*
D02*
G37*
G36*
X231600D02*
X229900D01*
Y133900D01*
X231600D01*
Y135600D01*
D02*
G37*
G36*
X70600Y128100D02*
X68400D01*
Y125900D01*
X70600D01*
Y128100D01*
D02*
G37*
G36*
X159500Y144300D02*
X157000D01*
Y140900D01*
X159500D01*
Y144300D01*
D02*
G37*
G36*
X156200D02*
X153700D01*
Y140900D01*
X156200D01*
Y144300D01*
D02*
G37*
G36*
X220100Y88600D02*
X218400D01*
Y86900D01*
X220100D01*
Y88600D01*
D02*
G37*
G36*
X217600D02*
X215900D01*
Y86900D01*
X217600D01*
Y88600D01*
D02*
G37*
G36*
X377268Y85917D02*
X370762D01*
Y83742D01*
X377268D01*
Y85917D01*
D02*
G37*
G36*
X369962D02*
X363457D01*
Y83742D01*
X369962D01*
Y85917D01*
D02*
G37*
G36*
X352100Y83600D02*
X350400D01*
Y81900D01*
X352100D01*
Y83600D01*
D02*
G37*
G36*
X377268Y82942D02*
X370762D01*
Y80768D01*
X377268D01*
Y82942D01*
D02*
G37*
G36*
X200312Y100565D02*
X195687D01*
X194873Y100403D01*
X194183Y99941D01*
X193721Y99251D01*
X193559Y98436D01*
Y94311D01*
X193721Y93497D01*
X194183Y92807D01*
X194831Y92373D01*
X194876Y92326D01*
X194985Y91609D01*
X194790Y91460D01*
X194125Y90593D01*
X193707Y89583D01*
X193564Y88500D01*
X193707Y87417D01*
X194125Y86407D01*
X194790Y85540D01*
X195544Y84962D01*
X195607Y84563D01*
X195544Y84164D01*
X194790Y83586D01*
X194125Y82719D01*
X193707Y81709D01*
X193564Y80626D01*
X193707Y79543D01*
X194125Y78533D01*
X194790Y77666D01*
X195657Y77001D01*
X196018Y76851D01*
Y76094D01*
X195859Y76028D01*
X195076Y75427D01*
X194474Y74643D01*
X194097Y73731D01*
X194020Y73152D01*
X198000D01*
X201980D01*
X201904Y73731D01*
X201526Y74643D01*
X200924Y75427D01*
X200141Y76028D01*
X199982Y76094D01*
Y76851D01*
X200343Y77001D01*
X201210Y77666D01*
X201875Y78533D01*
X202293Y79543D01*
X202436Y80626D01*
X202293Y81709D01*
X201875Y82719D01*
X201210Y83586D01*
X200456Y84164D01*
X200393Y84563D01*
X200456Y84962D01*
X201210Y85540D01*
X201875Y86407D01*
X202293Y87417D01*
X202436Y88500D01*
X202293Y89583D01*
X201875Y90593D01*
X201210Y91460D01*
X201015Y91609D01*
X201124Y92326D01*
X201169Y92373D01*
X201817Y92807D01*
X202279Y93497D01*
X202441Y94311D01*
Y98436D01*
X202279Y99251D01*
X201817Y99941D01*
X201127Y100403D01*
X200312Y100565D01*
D02*
G37*
G36*
X256100Y74600D02*
X254400D01*
Y72900D01*
X256100D01*
Y74600D01*
D02*
G37*
G36*
X230100D02*
X228400D01*
Y72900D01*
X230100D01*
Y74600D01*
D02*
G37*
G36*
X201980Y72352D02*
X198400D01*
Y68989D01*
X199229Y69099D01*
X200141Y69476D01*
X200924Y70077D01*
X201526Y70861D01*
X201904Y71773D01*
X201980Y72352D01*
D02*
G37*
G36*
X197600D02*
X194020D01*
X194097Y71773D01*
X194474Y70861D01*
X195076Y70077D01*
X195859Y69476D01*
X196771Y69099D01*
X197600Y68989D01*
Y72352D01*
D02*
G37*
G36*
X274000Y71931D02*
X273070Y71746D01*
X272281Y71219D01*
X271754Y70430D01*
X271569Y69500D01*
X271754Y68570D01*
X272281Y67781D01*
X273070Y67254D01*
X274000Y67069D01*
X274069Y67000D01*
X274254Y66070D01*
X274781Y65281D01*
X275570Y64754D01*
X276500Y64569D01*
X277430Y64754D01*
X278219Y65281D01*
X278746Y66070D01*
X278931Y67000D01*
X278746Y67930D01*
X278219Y68719D01*
X277430Y69246D01*
X276500Y69431D01*
X276431Y69500D01*
X276246Y70430D01*
X275719Y71219D01*
X274930Y71746D01*
X274000Y71931D01*
D02*
G37*
G36*
X284933Y66658D02*
X282660D01*
Y63892D01*
X284933D01*
Y66658D01*
D02*
G37*
G36*
X281860D02*
X279587D01*
Y63892D01*
X281860D01*
Y66658D01*
D02*
G37*
G36*
X284933Y63092D02*
X282660D01*
Y60327D01*
X284933D01*
Y63092D01*
D02*
G37*
G36*
X281860D02*
X279587D01*
Y60327D01*
X281860D01*
Y63092D01*
D02*
G37*
G36*
X233900Y57477D02*
Y54400D01*
X236978D01*
X236910Y54914D01*
X236557Y55765D01*
X235996Y56496D01*
X235265Y57057D01*
X234414Y57410D01*
X233900Y57477D01*
D02*
G37*
G36*
X233100D02*
X232586Y57410D01*
X231735Y57057D01*
X231004Y56496D01*
X230443Y55765D01*
X230090Y54914D01*
X230023Y54400D01*
X233100D01*
Y57477D01*
D02*
G37*
G36*
X236978Y53600D02*
X233900D01*
Y50523D01*
X234414Y50590D01*
X235265Y50943D01*
X235996Y51504D01*
X236557Y52235D01*
X236910Y53086D01*
X236978Y53600D01*
D02*
G37*
G36*
X233100D02*
X230023D01*
X230090Y53086D01*
X230443Y52235D01*
X231004Y51504D01*
X231735Y50943D01*
X232586Y50590D01*
X233100Y50523D01*
Y53600D01*
D02*
G37*
G36*
X395100Y53331D02*
X394365Y53235D01*
X393308Y52797D01*
X392400Y52100D01*
X391703Y51192D01*
X391265Y50135D01*
X391169Y49400D01*
X395100D01*
Y53331D01*
D02*
G37*
G36*
X278000Y60000D02*
X269000D01*
Y58461D01*
X268703Y58163D01*
X268172Y57370D01*
X267986Y56433D01*
Y56058D01*
X266687D01*
Y54947D01*
X266000D01*
X265064Y54761D01*
X264270Y54230D01*
X263739Y53436D01*
X263553Y52500D01*
X263739Y51564D01*
X264270Y50770D01*
X265064Y50239D01*
X266000Y50053D01*
X266687D01*
Y48927D01*
X272833D01*
Y52929D01*
X272872Y53127D01*
X272975Y53187D01*
X273580Y53328D01*
X273870Y52894D01*
X274167Y52597D01*
Y48927D01*
X280313D01*
Y50053D01*
X282927D01*
Y48943D01*
X289073D01*
Y56073D01*
X282927D01*
Y54947D01*
X280313D01*
Y56058D01*
X278047D01*
Y57400D01*
X278000Y57636D01*
Y60000D01*
D02*
G37*
G36*
X395100Y48600D02*
X391169D01*
X391265Y47865D01*
X391703Y46808D01*
X392400Y45900D01*
X393308Y45203D01*
X394365Y44765D01*
X395100Y44669D01*
Y48600D01*
D02*
G37*
G36*
Y43331D02*
X394365Y43235D01*
X393308Y42797D01*
X392400Y42100D01*
X391703Y41192D01*
X391265Y40135D01*
X391169Y39400D01*
X395100D01*
Y43331D01*
D02*
G37*
G36*
Y38600D02*
X391169D01*
X391265Y37865D01*
X391703Y36808D01*
X392400Y35900D01*
X393308Y35203D01*
X394365Y34765D01*
X395100Y34669D01*
Y38600D01*
D02*
G37*
G36*
X268075Y37905D02*
X265900D01*
Y31400D01*
X268075D01*
Y37905D01*
D02*
G37*
G36*
X214949D02*
X212774D01*
Y31400D01*
X214949D01*
Y37905D01*
D02*
G37*
G36*
X333974D02*
X331799D01*
Y31400D01*
X333974D01*
Y37905D01*
D02*
G37*
G36*
X211974D02*
X209799D01*
Y31400D01*
X211974D01*
Y37905D01*
D02*
G37*
G36*
X265100D02*
X262925D01*
Y31400D01*
X265100D01*
Y37905D01*
D02*
G37*
G36*
X395100Y33331D02*
X394365Y33235D01*
X393308Y32797D01*
X392400Y32100D01*
X391703Y31192D01*
X391265Y30135D01*
X391169Y29400D01*
X395100D01*
Y33331D01*
D02*
G37*
G36*
Y28600D02*
X391169D01*
X391265Y27865D01*
X391703Y26808D01*
X392400Y25900D01*
X393308Y25203D01*
X394365Y24765D01*
X395100Y24669D01*
Y28600D01*
D02*
G37*
G36*
X365500Y63787D02*
X364261Y63624D01*
X363106Y63146D01*
X362115Y62385D01*
X361354Y61394D01*
X360876Y60239D01*
X360713Y59000D01*
X360876Y57761D01*
X361354Y56606D01*
X362115Y55615D01*
X363106Y54854D01*
X364261Y54376D01*
X364433Y54353D01*
Y53647D01*
X364261Y53624D01*
X363106Y53146D01*
X362115Y52385D01*
X361354Y51394D01*
X360876Y50239D01*
X360713Y49000D01*
X360876Y47761D01*
X361354Y46606D01*
X362115Y45615D01*
X363106Y44854D01*
X364261Y44376D01*
X364433Y44353D01*
Y43647D01*
X364261Y43624D01*
X363106Y43146D01*
X362115Y42385D01*
X361354Y41394D01*
X360876Y40239D01*
X360713Y39000D01*
X360876Y37761D01*
X361354Y36606D01*
X362115Y35615D01*
X363106Y34854D01*
X364261Y34376D01*
X364433Y34353D01*
Y33647D01*
X364261Y33624D01*
X363106Y33146D01*
X362115Y32385D01*
X361354Y31394D01*
X360876Y30239D01*
X360713Y29000D01*
X360876Y27761D01*
X361354Y26606D01*
X362115Y25615D01*
X363106Y24854D01*
X364261Y24376D01*
X365500Y24213D01*
X366739Y24376D01*
X367894Y24854D01*
X368885Y25615D01*
X369646Y26606D01*
X370124Y27761D01*
X370287Y29000D01*
X370124Y30239D01*
X369646Y31394D01*
X368885Y32385D01*
X367894Y33146D01*
X366739Y33624D01*
X366567Y33647D01*
Y34353D01*
X366739Y34376D01*
X367894Y34854D01*
X368885Y35615D01*
X369646Y36606D01*
X370124Y37761D01*
X370287Y39000D01*
X370124Y40239D01*
X369646Y41394D01*
X368885Y42385D01*
X367894Y43146D01*
X366739Y43624D01*
X366567Y43647D01*
Y44353D01*
X366739Y44376D01*
X367894Y44854D01*
X368885Y45615D01*
X369646Y46606D01*
X370124Y47761D01*
X370287Y49000D01*
X370124Y50239D01*
X369646Y51394D01*
X368885Y52385D01*
X367894Y53146D01*
X366739Y53624D01*
X366567Y53647D01*
Y54353D01*
X366739Y54376D01*
X367894Y54854D01*
X368885Y55615D01*
X369646Y56606D01*
X370124Y57761D01*
X370287Y59000D01*
X370124Y60239D01*
X369646Y61394D01*
X368885Y62385D01*
X367894Y63146D01*
X366739Y63624D01*
X365500Y63787D01*
D02*
G37*
G36*
X336949Y30600D02*
X334774D01*
Y24094D01*
X336949D01*
Y30600D01*
D02*
G37*
G36*
X333974D02*
X331799D01*
Y24094D01*
X333974D01*
Y30600D01*
D02*
G37*
G36*
X268075D02*
X265900D01*
Y24094D01*
X268075D01*
Y30600D01*
D02*
G37*
G36*
X265100D02*
X262925D01*
Y24094D01*
X265100D01*
Y30600D01*
D02*
G37*
G36*
X214949D02*
X212774D01*
Y24094D01*
X214949D01*
Y30600D01*
D02*
G37*
G36*
X211974D02*
X209799D01*
Y24094D01*
X211974D01*
Y30600D01*
D02*
G37*
G36*
X276573Y45073D02*
X270427D01*
Y38306D01*
X270399D01*
Y23695D01*
X276349D01*
Y37942D01*
X276573D01*
Y45073D01*
D02*
G37*
G36*
X395900Y19600D02*
Y17400D01*
X398250D01*
Y19600D01*
X395900D01*
D02*
G37*
G36*
X398250Y16600D02*
X395900D01*
Y14400D01*
X398250D01*
Y16600D01*
D02*
G37*
%LPD*%
G54D11*
X313500Y173000D02*
G03*
X315500Y175000I0J2000D01*
G01*
X304900Y185900D02*
Y193409D01*
X304500Y185500D02*
X304900Y185900D01*
Y193409D02*
X305309Y193000D01*
X315500D01*
X103500Y108500D02*
Y119000D01*
X109000Y130000D02*
X135500Y103500D01*
X106479Y77979D02*
X106500Y78000D01*
X237950Y134950D02*
X253950D01*
X292028Y117140D02*
Y122473D01*
Y109980D02*
Y117140D01*
X291887Y117000D02*
X292028Y117140D01*
X285500Y117000D02*
X291887D01*
X285500Y125000D02*
X289500D01*
X292028Y122473D01*
X159500Y122500D02*
Y126414D01*
X158914Y127000D02*
X159500Y126414D01*
X156400Y127000D02*
X158914D01*
X155900Y127500D02*
X156400Y127000D01*
X109750Y87000D02*
X112000D01*
X107500D02*
X109750D01*
X110000Y86750D01*
Y82000D02*
Y86750D01*
X320750Y93750D02*
X321000Y94000D01*
X314250Y93750D02*
X320750D01*
X314000Y93500D02*
X314250Y93750D01*
X223500Y174262D02*
Y175500D01*
X220000Y170762D02*
X223500Y174262D01*
X220000Y170762D02*
X224000Y166762D01*
Y166500D02*
Y166762D01*
X214339Y177000D02*
X217000D01*
X205000D02*
X214339D01*
X214500Y177161D01*
Y188500D01*
X215335Y189335D01*
X218996D01*
X219000Y189339D01*
X217000Y177000D02*
X219500Y174500D01*
X212315Y166185D02*
X212500Y166000D01*
X210315Y166185D02*
X212315D01*
X210000Y166500D02*
X210315Y166185D01*
X207500Y145500D02*
X207685Y145685D01*
X208185D01*
X209500Y147000D01*
X210000Y161500D02*
Y166500D01*
X206245Y157000D02*
X217500D01*
X230257Y133743D02*
X231757D01*
X232000Y133500D01*
X228500Y135500D02*
X230257Y133743D01*
X234200Y133800D02*
X234500Y134100D01*
X235300Y134900D01*
X234200Y122275D02*
Y133800D01*
X234142Y122216D02*
X234200Y122275D01*
X235260Y172976D02*
X237784Y175500D01*
X235260Y172484D02*
Y172976D01*
X237784Y175500D02*
X241000D01*
X243681Y170819D02*
X244000Y170500D01*
X236433Y170819D02*
X243681D01*
X235260Y171992D02*
X236433Y170819D01*
X235260Y171992D02*
Y172484D01*
X242000Y147000D02*
X244900Y149900D01*
Y152400D01*
X245000Y152500D01*
X237500Y147000D02*
X242000D01*
X235000Y149500D02*
X237500Y147000D01*
X267436Y89316D02*
X268036Y88716D01*
X267436Y88809D02*
Y89316D01*
X235000Y149500D02*
X235050Y149550D01*
Y152350D01*
X235100Y152400D01*
X232600Y134100D02*
X234500D01*
X232000Y133500D02*
X232600Y134100D01*
X235300Y134900D02*
X237900D01*
X253950Y134950D02*
X254000Y135000D01*
X237900Y134900D02*
X237950Y134950D01*
X253913Y79087D02*
Y86697D01*
X261700Y127200D02*
X297200D01*
X260500Y130000D02*
X297000D01*
X297200Y127200D02*
X308941Y138941D01*
X258000Y127500D02*
X260500Y130000D01*
X297000D02*
X308500Y141500D01*
X258000Y123500D02*
X261700Y127200D01*
X229000Y85000D02*
X232173D01*
Y86783D01*
X211500Y118500D02*
X213500Y116500D01*
X205000Y194500D02*
X207500D01*
X204000Y172000D02*
X205000D01*
X206500Y169500D02*
X207400Y170400D01*
X206500Y167000D02*
Y169500D01*
X201315Y174685D02*
X204000Y172000D01*
X207400Y170400D02*
X209900D01*
X201315Y174685D02*
Y176685D01*
X201000Y177000D02*
X201315Y176685D01*
X220000Y96500D02*
X220262D01*
X221282Y97520D01*
X225193D01*
X225284Y97610D01*
X382000Y99090D02*
Y140500D01*
X370362Y99090D02*
X382000D01*
X370453Y99000D02*
X386000D01*
X370362Y99090D02*
X370453Y99000D01*
X327000Y76000D02*
X330000Y79000D01*
X296000Y76000D02*
X327000D01*
X330000Y79000D02*
X364000D01*
X376000Y67000D01*
Y53000D02*
Y67000D01*
X253827Y86783D02*
X264904D01*
X266836Y88716D01*
X267343D01*
X267436Y88809D01*
X271238Y88000D02*
X271500D01*
X270522Y88716D02*
X271238Y88000D01*
X268036Y88716D02*
X270522D01*
X285500Y121000D02*
X289500D01*
X215500Y95500D02*
X218000Y93000D01*
X214000Y97000D02*
X215500Y95500D01*
X232000Y129500D02*
X232087Y129413D01*
Y122303D02*
Y129413D01*
Y122303D02*
X232173Y122216D01*
X214000Y97000D02*
Y100000D01*
X218000Y93000D02*
X218583Y93583D01*
X225193D01*
X225284Y93673D01*
X96000Y138000D02*
X98000Y136000D01*
X96000Y138000D02*
Y141500D01*
X140500Y106500D02*
X184762D01*
X188500Y110238D01*
Y110500D01*
X111000Y136000D02*
X140500Y106500D01*
X98000Y136000D02*
X111000D01*
X135500Y103500D02*
X191977D01*
X81500Y130000D02*
X109000D01*
X191977Y103500D02*
X199977Y111500D01*
X72000Y120500D02*
X81500Y130000D01*
X103500Y108500D02*
X123500Y88500D01*
X68000Y120500D02*
X72000D01*
X123500Y82500D02*
Y88500D01*
X106479Y75660D02*
Y77979D01*
X105579Y74760D02*
X106479Y75660D01*
X311500Y114000D02*
Y126500D01*
Y113500D02*
Y114000D01*
X253827Y86783D02*
X253913Y86697D01*
Y79087D02*
X254000Y79000D01*
X267436Y89316D02*
X267943D01*
X263079Y93673D02*
X267436Y89316D01*
X260717Y93673D02*
X263079D01*
X246500Y93000D02*
X248000Y91500D01*
Y86862D02*
Y91500D01*
X249945Y92945D02*
X250000Y93000D01*
X295000Y81500D02*
X317000Y103500D01*
X266738Y97000D02*
X267000D01*
X367034Y221772D02*
X382500D01*
X342382Y197120D02*
X367034Y221772D01*
X368093Y219213D02*
X382500D01*
X344941Y196060D02*
X368093Y219213D01*
X369153Y216653D02*
X382500D01*
X347500Y195000D02*
X369153Y216653D01*
X254900Y152500D02*
X255000Y152600D01*
X254500Y152100D02*
X254900Y152500D01*
X254500Y149000D02*
Y152100D01*
X264000Y121500D02*
X268500D01*
X281500Y121000D02*
Y125000D01*
X260756Y109461D02*
X268461D01*
X260717Y109421D02*
X260756Y109461D01*
X268461D02*
X268500Y109500D01*
X266128Y97610D02*
X266738Y97000D01*
X260717Y97610D02*
X266128D01*
X286000Y74500D02*
X289500D01*
X290000Y74000D01*
X249945Y86839D02*
Y92945D01*
X249890Y86783D02*
X249945Y86839D01*
X247921Y86783D02*
X248000Y86862D01*
X260000Y83500D02*
X262000Y81500D01*
X295000D01*
X259500Y79500D02*
X317000D01*
X253913Y122303D02*
Y130913D01*
X254000Y131000D01*
X253827Y122216D02*
X253913Y122303D01*
X241950Y128050D02*
X242000Y128000D01*
X241950Y128050D02*
Y130850D01*
X241900Y130900D02*
X241950Y130850D01*
X222000Y157500D02*
X224500Y155000D01*
X242000Y128000D02*
X242008Y127992D01*
Y122224D02*
Y127992D01*
Y122224D02*
X242016Y122216D01*
X239000Y149500D02*
X239050Y149550D01*
Y152350D01*
X239100Y152400D01*
X260500Y118000D02*
X264000Y121500D01*
X260500Y115417D02*
Y118000D01*
Y115417D02*
X260591Y115327D01*
X260717D01*
X201750Y161750D02*
Y166250D01*
X201500Y161500D02*
X201750Y161750D01*
Y166250D02*
X202000Y166500D01*
X201500Y161500D02*
X206260D01*
X196000Y175500D02*
X200500Y171000D01*
X266000Y115511D02*
Y118000D01*
X263937Y113449D02*
X266000Y115511D01*
X260807Y113449D02*
X263937D01*
X260717Y113358D02*
X260807Y113449D01*
X266000Y118000D02*
X266185Y117815D01*
X268185D01*
X268500Y117500D01*
X287974Y145000D02*
X288165D01*
X285071Y147904D02*
X287974Y145000D01*
X285071Y147904D02*
Y148000D01*
X309500Y136382D02*
X324120D01*
X308941Y138941D02*
X323060D01*
X308500Y141500D02*
X322000D01*
X324120Y136382D02*
X347500Y159762D01*
X323060Y138941D02*
X344941Y160822D01*
X322000Y141500D02*
X342382Y161882D01*
Y197120D01*
X344941Y160822D02*
Y196060D01*
X347500Y159762D02*
Y195000D01*
X352000Y159500D02*
Y186000D01*
X317500Y132500D02*
X325000D01*
X311500Y126500D02*
X317500Y132500D01*
X325000D02*
X352000Y159500D01*
X326018Y130000D02*
X355500Y159482D01*
X318500Y130000D02*
X326018D01*
X317000Y128500D02*
X318500Y130000D01*
X317000Y126500D02*
Y128500D01*
X355500Y159482D02*
Y182000D01*
X321000Y84000D02*
X321000Y84000D01*
X321000Y79500D02*
Y84000D01*
Y99000D02*
X321000Y99000D01*
X321000Y99000D02*
Y103500D01*
X350000Y88000D02*
X350900Y88900D01*
X353900D01*
X355000Y90000D01*
X349000Y89000D02*
X350000Y88000D01*
X343000Y89000D02*
X349000D01*
X354500Y94500D02*
X355000Y95000D01*
X350000Y94500D02*
X354500D01*
X349750Y94250D02*
X350000Y94500D01*
X343250Y94250D02*
X349750D01*
X343000Y94000D02*
X343250Y94250D01*
X248000Y179000D02*
X259500Y167500D01*
X233000Y179000D02*
X248000D01*
X213620Y151537D02*
X213740Y151657D01*
X213620Y147120D02*
Y151537D01*
X213500Y147000D02*
X213620Y147120D01*
X207500Y194500D02*
X220500D01*
X218000Y161500D02*
X222000D01*
X213740D02*
X218000D01*
X206000Y166500D02*
X206500Y167000D01*
X209900Y170400D02*
X210000Y170500D01*
X202000Y157000D02*
X206245D01*
X206260Y156985D01*
Y151657D02*
Y156985D01*
X217500Y157000D02*
X218000Y157500D01*
X201500Y156500D02*
X202000Y157000D01*
X219000Y181661D02*
X220365D01*
X221927Y180100D01*
X223900D01*
X224500Y179500D01*
X224750Y179250D01*
X228750D01*
X229000Y179000D01*
X224500Y183500D02*
X229000D01*
X223780Y184221D02*
X224500Y183500D01*
X219000Y184221D02*
X223780D01*
X223780Y186779D02*
X224500Y187500D01*
X219000Y186779D02*
X223780D01*
X224500Y187500D02*
Y194500D01*
X201000Y189339D02*
Y194500D01*
X196500D02*
X201000D01*
Y177000D02*
Y181661D01*
X195750Y183750D02*
X196221Y184221D01*
X195750Y179750D02*
Y183750D01*
Y179750D02*
X196000Y179500D01*
X196221Y184221D02*
X201000D01*
X192000Y187000D02*
X196000D01*
X196221Y186779D01*
X201000D01*
X191500Y186500D02*
X192000Y187000D01*
X88500Y88738D02*
Y89000D01*
X88100Y88338D02*
X88500Y88738D01*
X88100Y86100D02*
Y88338D01*
X87000Y85000D02*
X88100Y86100D01*
X72248Y173500D02*
X76000Y169748D01*
X65500Y173500D02*
X72248D01*
X76000Y169748D02*
X76000D01*
X74400Y166600D02*
Y168600D01*
X71416Y171584D02*
X74400Y168600D01*
X69403Y171584D02*
X71416D01*
X76000Y169748D02*
X79508Y166240D01*
X62000Y170000D02*
X65500Y173500D01*
X62000Y164500D02*
Y170000D01*
X58260Y160760D02*
X62000Y164500D01*
X58260Y157579D02*
Y160760D01*
X63000Y120500D02*
X68000D01*
X70500Y154000D02*
X74500D01*
X40000Y148000D02*
X58500D01*
X78500Y154000D02*
Y157752D01*
X79508Y158760D01*
X90492Y162500D02*
X91665Y161327D01*
X92673D01*
X96000Y158000D01*
X86992Y149240D02*
X87232Y149000D01*
X92000D01*
X87252Y141500D02*
X92000D01*
X86992Y141760D02*
X87252Y141500D01*
X80500Y135500D02*
Y147500D01*
X78000Y133000D02*
X80500Y135500D01*
X76000Y133000D02*
X78000D01*
X78500Y149500D02*
X80500Y147500D01*
X71000Y149500D02*
X78500D01*
X70740Y133516D02*
X71256Y133000D01*
X76000D01*
X75008Y144500D02*
X76000Y145492D01*
X76008Y145500D01*
X76000Y137000D02*
Y145492D01*
X67000Y144500D02*
Y144992D01*
X65827Y146165D02*
X67000Y144992D01*
X64335Y146165D02*
X65827D01*
X62500Y148000D02*
X64335Y146165D01*
X67000Y144500D02*
X75008D01*
X63000Y125500D02*
X63260Y125760D01*
Y133516D01*
X40000Y125000D02*
X40859Y124141D01*
X42857D01*
X43117Y124400D01*
X61900D01*
X63000Y125500D01*
X62000Y157579D02*
X62250Y157329D01*
Y148250D02*
Y157329D01*
Y148250D02*
X62500Y148000D01*
X65740Y157579D02*
X66400Y156919D01*
Y150100D02*
Y156919D01*
Y150100D02*
X67000Y149500D01*
X53685Y170315D02*
X55866D01*
X58260Y167921D01*
Y167421D02*
Y167921D01*
X40000Y166500D02*
X40921Y167421D01*
X74500Y154000D02*
Y158000D01*
X70500Y166500D02*
Y169000D01*
X65740Y167921D02*
X69403Y171584D01*
X65740Y167421D02*
Y167921D01*
X74400Y166600D02*
X74500Y166500D01*
Y162000D02*
Y166500D01*
X70500Y158000D02*
X74500D01*
X69900Y161400D02*
X70500Y162000D01*
X68761Y161400D02*
X69900D01*
X65740Y158379D02*
X68761Y161400D01*
X65740Y157579D02*
Y158379D01*
X311500Y113500D02*
X313500Y111500D01*
X352000Y186000D02*
X355500Y189500D01*
X313500Y111500D02*
X317000D01*
X359500Y182000D02*
X369579D01*
X369862Y181717D01*
X359500Y189500D02*
X369772D01*
X369862Y189591D01*
X351000Y144500D02*
X355000D01*
X340500Y134000D02*
X351000Y144500D01*
X340500Y121500D02*
Y134000D01*
Y121500D02*
X345239Y116761D01*
X350239D01*
X350500Y116500D01*
X343000Y133000D02*
X346500Y136500D01*
X343000Y124000D02*
Y133000D01*
Y124000D02*
X345500Y121500D01*
X346500Y136500D02*
X355000D01*
X345500Y121500D02*
X350500D01*
X321000Y111500D02*
X328500D01*
X321000Y126500D02*
X328500D01*
Y119000D02*
Y121500D01*
Y116500D02*
Y119000D01*
X328000Y119500D02*
X328500Y119000D01*
X321000Y119500D02*
X328000D01*
X350500Y116500D02*
X350750Y116250D01*
X358250D01*
X358500Y116000D01*
X358250Y121750D02*
X358500Y122000D01*
X350750Y121750D02*
X358250D01*
X350500Y121500D02*
X350750Y121750D01*
X360000Y90000D02*
X361100Y91100D01*
X370246D01*
X370362Y91216D01*
X360000Y95000D02*
X363016Y98016D01*
X369287D01*
X370362Y99090D01*
X360000Y136500D02*
X370000D01*
X360000Y144500D02*
X360126Y144374D01*
X370000D01*
X377000Y89000D02*
X378000D01*
X375243Y90757D02*
X377000Y89000D01*
X370822Y90757D02*
X375243D01*
X370362Y91216D02*
X370822Y90757D01*
X379000Y110000D02*
Y131831D01*
X374331Y136500D02*
X379000Y131831D01*
X373000Y104000D02*
X379000Y110000D01*
X370000Y136500D02*
X374331D01*
X378126Y144374D02*
X382000Y140500D01*
X370000Y144374D02*
X378126D01*
X214500Y42000D02*
X218500D01*
X219000Y42500D01*
Y42800D01*
X214500Y46000D02*
Y50000D01*
Y42000D02*
Y46000D01*
X207500Y42000D02*
X210500D01*
X207500Y46000D02*
X210500D01*
X204500Y50000D02*
X210500D01*
X204500Y31000D02*
Y50000D01*
X197000Y31374D02*
Y50000D01*
X196626Y31000D02*
X197000Y31374D01*
X188500Y31252D02*
Y50000D01*
Y31252D02*
X188752Y31000D01*
X115430Y82370D02*
X116000Y82940D01*
X115300Y82240D02*
X115430Y82370D01*
X119370D01*
X119500Y82500D01*
X116000Y82940D02*
Y87000D01*
X100630Y82370D02*
X104449D01*
X104579Y82240D01*
X103679Y83140D02*
X104449Y82370D01*
X104579Y82240D02*
X105079D01*
X103679Y83140D02*
Y86821D01*
X103500Y87000D02*
X103679Y86821D01*
X100500Y82500D02*
X100630Y82370D01*
X92000Y82500D02*
Y85000D01*
Y80000D02*
Y82500D01*
X96500D01*
X115000Y70500D02*
Y74681D01*
X114921Y74760D02*
X115000Y74681D01*
X105079Y74760D02*
X105579D01*
X106479Y73860D01*
Y70521D02*
Y73860D01*
Y70521D02*
X106500Y70500D01*
X111000D01*
X115000Y66000D02*
Y70500D01*
X109740Y65000D02*
Y65492D01*
Y65000D02*
X112400Y62340D01*
X114660D01*
X115000Y62000D01*
X95750Y54000D02*
X115000D01*
X95000Y54750D02*
X95750Y54000D01*
X287000Y180000D02*
Y183000D01*
X322500Y180000D02*
X327000D01*
X315500Y183000D02*
Y188000D01*
X297500Y173000D02*
X313500D01*
X287000Y193000D02*
X293500D01*
X278500Y173000D02*
Y174500D01*
Y173000D02*
X280000Y171500D01*
X284000D02*
X288000D01*
X280000D02*
X284000D01*
X315500Y175000D02*
Y178000D01*
X293500Y173000D02*
Y178000D01*
X322500Y184000D02*
Y188500D01*
X315750Y188250D02*
X322250D01*
G54D28*
X70000Y63500D02*
D03*
G54D29*
X95000Y54750D02*
D03*
X95000Y72250D02*
D03*
G54D30*
X219000Y48200D02*
D03*
Y42800D02*
D03*
G54D31*
Y181661D02*
D03*
G54D32*
Y184221D02*
D03*
X201000Y189339D02*
D03*
Y184221D02*
D03*
Y186779D02*
D03*
Y181661D02*
D03*
X219000Y189339D02*
D03*
Y186779D02*
D03*
G54D33*
X78000Y178000D02*
D03*
X60000D02*
D03*
G54D34*
X310752Y31000D02*
D03*
X318626D02*
D03*
X302878D02*
D03*
X326500D02*
D03*
X342248D02*
D03*
X334374D02*
D03*
X212374D02*
D03*
X220248D02*
D03*
X204500D02*
D03*
X196626D02*
D03*
X188752D02*
D03*
X249752D02*
D03*
X257626D02*
D03*
X273374D02*
D03*
X265500D02*
D03*
G54D35*
X352091Y8362D02*
D03*
X293035D02*
D03*
X178909D02*
D03*
X230090D02*
D03*
X283217D02*
D03*
X239910D02*
D03*
G54D36*
X370000Y128626D02*
D03*
Y144374D02*
D03*
Y136500D02*
D03*
X370362Y83342D02*
D03*
Y99090D02*
D03*
Y91216D02*
D03*
X369862Y173843D02*
D03*
Y189591D02*
D03*
Y181717D02*
D03*
G54D37*
X392638Y154217D02*
D03*
Y118783D02*
D03*
X393000Y108933D02*
D03*
Y73500D02*
D03*
X392500Y199433D02*
D03*
Y164000D02*
D03*
G54D38*
X213740Y161500D02*
D03*
X206260D02*
D03*
X210000D02*
D03*
X58260Y157579D02*
D03*
X65740D02*
D03*
X62000D02*
D03*
G54D39*
X206260Y151657D02*
D03*
X213740D02*
D03*
X65740Y167421D02*
D03*
X58260D02*
D03*
G54D40*
X164579Y126240D02*
D03*
Y118760D02*
D03*
Y122500D02*
D03*
X270421Y151760D02*
D03*
Y159240D02*
D03*
Y155500D02*
D03*
X114921Y74760D02*
D03*
Y82240D02*
D03*
Y78500D02*
D03*
G54D41*
X174421Y118760D02*
D03*
Y126240D02*
D03*
X260579Y159240D02*
D03*
Y151760D02*
D03*
X105079Y82240D02*
D03*
Y74760D02*
D03*
G54D42*
X304500Y185500D02*
D03*
G54D43*
X293500Y193000D02*
D03*
G54D44*
Y188000D02*
D03*
Y183000D02*
D03*
X315500Y178000D02*
D03*
Y188000D02*
D03*
Y193000D02*
D03*
Y183000D02*
D03*
X293500Y178000D02*
D03*
X328500Y121500D02*
D03*
Y116500D02*
D03*
X350500Y111500D02*
D03*
Y121500D02*
D03*
Y126500D02*
D03*
Y116500D02*
D03*
X328500Y111500D02*
D03*
X321000Y94000D02*
D03*
Y89000D02*
D03*
X343000Y84000D02*
D03*
Y94000D02*
D03*
Y99000D02*
D03*
Y89000D02*
D03*
X321000Y84000D02*
D03*
G54D45*
X282972Y95020D02*
D03*
Y109980D02*
D03*
X292028D02*
D03*
Y95020D02*
D03*
G54D46*
X382500Y226890D02*
D03*
Y224331D02*
D03*
Y221772D02*
D03*
Y219213D02*
D03*
Y216653D02*
D03*
G54D47*
X148200Y168839D02*
D03*
Y166279D02*
D03*
X171800Y176516D02*
D03*
X148200Y156043D02*
D03*
Y158602D02*
D03*
Y171398D02*
D03*
Y163721D02*
D03*
X171800Y173957D02*
D03*
Y166279D02*
D03*
Y161161D02*
D03*
Y171398D02*
D03*
Y168839D02*
D03*
Y163720D02*
D03*
X148200Y176516D02*
D03*
Y173957D02*
D03*
Y153484D02*
D03*
X171800Y156043D02*
D03*
Y158602D02*
D03*
X148200Y161161D02*
D03*
G54D48*
X171800Y153484D02*
D03*
G54D49*
X395500Y17000D02*
D03*
X389500D02*
D03*
G54D50*
X174421Y134500D02*
D03*
X164579D02*
D03*
G54D51*
X126429Y168500D02*
D03*
Y162000D02*
D03*
Y155500D02*
D03*
X158571Y133500D02*
D03*
X285071Y148000D02*
D03*
Y154500D02*
D03*
G54D52*
X135571Y168500D02*
D03*
Y162000D02*
D03*
Y155500D02*
D03*
X149429Y133500D02*
D03*
X275929Y148000D02*
D03*
Y154500D02*
D03*
G54D53*
X273500Y41508D02*
D03*
X269760Y52492D02*
D03*
X277240D02*
D03*
X286000Y52508D02*
D03*
X282260Y63492D02*
D03*
X289740D02*
D03*
X235260Y172484D02*
D03*
X239000Y161500D02*
D03*
X231520D02*
D03*
X106000Y54508D02*
D03*
X102260Y65492D02*
D03*
X109740D02*
D03*
X67000Y144500D02*
D03*
X70740Y133516D02*
D03*
X63260D02*
D03*
G54D54*
X90492Y162500D02*
D03*
X79508Y158760D02*
D03*
Y166240D02*
D03*
X76008Y145500D02*
D03*
X86992Y149240D02*
D03*
Y141760D02*
D03*
G54D55*
X328500Y126500D02*
D03*
X321000Y99000D02*
D03*
G54D56*
X304500Y49500D02*
D03*
X309500D02*
D03*
X360000Y144500D02*
D03*
X355000D02*
D03*
X360000Y95000D02*
D03*
X355000D02*
D03*
X360000Y136500D02*
D03*
X355000D02*
D03*
X360000Y90000D02*
D03*
X355000D02*
D03*
X244260Y161492D02*
D03*
X249260D02*
D03*
X87000Y85000D02*
D03*
X92000D02*
D03*
Y80000D02*
D03*
X87000D02*
D03*
G54D57*
X290000Y74000D02*
D03*
Y69000D02*
D03*
X63000Y125500D02*
D03*
Y120500D02*
D03*
X68000D02*
D03*
Y125500D02*
D03*
G54D58*
X201000Y194500D02*
D03*
X205000D02*
D03*
X192500D02*
D03*
X196500D02*
D03*
X202000Y166500D02*
D03*
X206000D02*
D03*
X197500Y161500D02*
D03*
X201500D02*
D03*
X197500Y156500D02*
D03*
X201500D02*
D03*
X224500Y194500D02*
D03*
X220500D02*
D03*
X228500Y187500D02*
D03*
X224500D02*
D03*
X229000Y179000D02*
D03*
X233000D02*
D03*
Y183500D02*
D03*
X229000D02*
D03*
X214000Y100000D02*
D03*
X218000D02*
D03*
X317000Y126500D02*
D03*
X321000D02*
D03*
X317000Y119500D02*
D03*
X321000D02*
D03*
X317000Y111500D02*
D03*
X321000D02*
D03*
X271500Y57500D02*
D03*
X275500D02*
D03*
X317000Y103500D02*
D03*
X321000D02*
D03*
X317000Y79500D02*
D03*
X321000D02*
D03*
X214500Y50000D02*
D03*
X210500D02*
D03*
X214500Y46000D02*
D03*
X210500D02*
D03*
X214500Y42000D02*
D03*
X210500D02*
D03*
X359500Y189500D02*
D03*
X355500D02*
D03*
X359500Y182000D02*
D03*
X355500D02*
D03*
X285500Y121000D02*
D03*
X281500D02*
D03*
X160500Y114000D02*
D03*
X164500D02*
D03*
X231100Y156400D02*
D03*
X235100D02*
D03*
Y152400D02*
D03*
X231100D02*
D03*
X70500Y166500D02*
D03*
X74500D02*
D03*
X123500Y82500D02*
D03*
X119500D02*
D03*
X74500Y154000D02*
D03*
X78500D02*
D03*
X100500Y82500D02*
D03*
X96500D02*
D03*
X111000Y70500D02*
D03*
X115000D02*
D03*
X71000Y149500D02*
D03*
X67000D02*
D03*
X92000Y141500D02*
D03*
X96000D02*
D03*
X92000Y149000D02*
D03*
X96000D02*
D03*
X272500Y121500D02*
D03*
X268500D02*
D03*
X213500Y147000D02*
D03*
X209500D02*
D03*
X201000Y177000D02*
D03*
X205000D02*
D03*
X272500Y117500D02*
D03*
X268500D02*
D03*
X354500Y131500D02*
D03*
X350500D02*
D03*
X281500Y125000D02*
D03*
X285500D02*
D03*
X268500Y109500D02*
D03*
X272500D02*
D03*
X281500Y117000D02*
D03*
X285500D02*
D03*
X289500Y88500D02*
D03*
X285500D02*
D03*
X293500Y173000D02*
D03*
X297500D02*
D03*
X152000Y114000D02*
D03*
X156000D02*
D03*
X112000Y87000D02*
D03*
X116000D02*
D03*
X107500D02*
D03*
X103500D02*
D03*
X102500Y70500D02*
D03*
X106500D02*
D03*
X213500Y116500D02*
D03*
X217500D02*
D03*
X272500Y113500D02*
D03*
X268500D02*
D03*
X62500Y148000D02*
D03*
X58500D02*
D03*
G54D59*
X196000Y179500D02*
D03*
Y175500D02*
D03*
X191500Y190500D02*
D03*
Y186500D02*
D03*
X195500Y187500D02*
D03*
Y183500D02*
D03*
X222000Y161500D02*
D03*
Y157500D02*
D03*
X218000D02*
D03*
Y161500D02*
D03*
X224500Y183500D02*
D03*
Y179500D02*
D03*
X326500Y40500D02*
D03*
Y44500D02*
D03*
X319000Y40500D02*
D03*
Y44500D02*
D03*
X311000Y40500D02*
D03*
Y44500D02*
D03*
X358500Y126000D02*
D03*
Y122000D02*
D03*
X303000Y40500D02*
D03*
Y44500D02*
D03*
X358500Y116000D02*
D03*
Y112000D02*
D03*
X257500Y44500D02*
D03*
Y40500D02*
D03*
X249500Y44500D02*
D03*
Y40500D02*
D03*
X204500Y54000D02*
D03*
Y50000D02*
D03*
X197000Y54000D02*
D03*
Y50000D02*
D03*
X188500Y54000D02*
D03*
Y50000D02*
D03*
X239100Y156400D02*
D03*
Y152400D02*
D03*
X250000Y79000D02*
D03*
Y75000D02*
D03*
X322500Y184000D02*
D03*
Y180000D02*
D03*
X288000Y171500D02*
D03*
Y167500D02*
D03*
X322500Y192500D02*
D03*
Y188500D02*
D03*
X280000Y167500D02*
D03*
Y171500D02*
D03*
X151500Y118500D02*
D03*
Y122500D02*
D03*
X155500Y118500D02*
D03*
Y122500D02*
D03*
X159500D02*
D03*
Y118500D02*
D03*
X70500Y158000D02*
D03*
Y162000D02*
D03*
X115000Y58000D02*
D03*
Y54000D02*
D03*
Y66000D02*
D03*
Y62000D02*
D03*
X96000Y158000D02*
D03*
Y154000D02*
D03*
X76000Y137000D02*
D03*
Y133000D02*
D03*
X355500Y41000D02*
D03*
Y45000D02*
D03*
X250000Y131000D02*
D03*
Y135000D02*
D03*
X141000Y170000D02*
D03*
Y174000D02*
D03*
Y162000D02*
D03*
Y166000D02*
D03*
Y154000D02*
D03*
Y158000D02*
D03*
X210000Y170500D02*
D03*
Y166500D02*
D03*
X254000Y135000D02*
D03*
Y131000D02*
D03*
X238500Y75000D02*
D03*
Y79000D02*
D03*
X242500D02*
D03*
Y75000D02*
D03*
X314000Y93500D02*
D03*
Y89500D02*
D03*
X350000Y94500D02*
D03*
Y98500D02*
D03*
Y88000D02*
D03*
Y84000D02*
D03*
X230500Y75000D02*
D03*
Y79000D02*
D03*
X234500Y75000D02*
D03*
Y79000D02*
D03*
X237900Y134900D02*
D03*
Y130900D02*
D03*
X241900Y134900D02*
D03*
Y130900D02*
D03*
X232000Y129500D02*
D03*
Y133500D02*
D03*
X218000Y93000D02*
D03*
Y89000D02*
D03*
X267943Y89316D02*
D03*
Y85316D02*
D03*
X254000Y79000D02*
D03*
Y75000D02*
D03*
X284000Y171500D02*
D03*
Y167500D02*
D03*
X244000Y166500D02*
D03*
Y170500D02*
D03*
X245000Y156500D02*
D03*
Y152500D02*
D03*
X74500Y158000D02*
D03*
Y162000D02*
D03*
X246000Y135000D02*
D03*
Y131000D02*
D03*
G54D60*
X249500Y152400D02*
D03*
Y156600D02*
D03*
G54D61*
X358600Y238500D02*
D03*
X370400D02*
D03*
G54D62*
X149400Y140500D02*
D03*
X156600D02*
D03*
G54D63*
X179100Y169000D02*
D03*
X184900D02*
D03*
X286900Y162500D02*
D03*
X281100D02*
D03*
X150100Y127500D02*
D03*
X155900D02*
D03*
G54D64*
X255000Y152600D02*
D03*
Y158400D02*
D03*
G54D65*
X253500Y59452D02*
D03*
X247000D02*
D03*
X216000Y65952D02*
D03*
X208500Y74453D02*
D03*
Y66953D02*
D03*
X134694Y147091D02*
D03*
X219500Y169453D02*
D03*
X186500Y107952D02*
D03*
X233500Y54000D02*
D03*
X224000Y54405D02*
D03*
G54D66*
X251858Y122216D02*
D03*
X249890D02*
D03*
X247921D02*
D03*
X245953D02*
D03*
X253827D02*
D03*
X243984D02*
D03*
X242016D02*
D03*
X240047D02*
D03*
X238079D02*
D03*
X236110D02*
D03*
X234142D02*
D03*
X232173D02*
D03*
Y86783D02*
D03*
X234142D02*
D03*
X236110D02*
D03*
X238079D02*
D03*
X240047D02*
D03*
X242016D02*
D03*
X243984D02*
D03*
X245953D02*
D03*
X247921D02*
D03*
X249890D02*
D03*
X251858D02*
D03*
X253827D02*
D03*
G54D67*
X260717Y93673D02*
D03*
Y95642D02*
D03*
Y97610D02*
D03*
Y99579D02*
D03*
Y101547D02*
D03*
Y103516D02*
D03*
Y105484D02*
D03*
Y107453D02*
D03*
Y109421D02*
D03*
Y111390D02*
D03*
Y113358D02*
D03*
Y115327D02*
D03*
X225284D02*
D03*
Y113358D02*
D03*
Y111390D02*
D03*
Y109421D02*
D03*
Y107453D02*
D03*
Y105484D02*
D03*
Y103516D02*
D03*
Y101547D02*
D03*
Y99579D02*
D03*
Y97610D02*
D03*
Y95642D02*
D03*
Y93673D02*
D03*
G54D116*
X393500Y208100D02*
D03*
Y235443D02*
D03*
G54D117*
X382200Y212224D02*
D03*
Y231319D02*
D03*
G54D121*
X224000Y48000D02*
Y54500D01*
Y46500D02*
Y48000D01*
X219000D02*
X224000D01*
Y54405D02*
Y54500D01*
X285400Y88600D02*
Y92002D01*
X184900Y160600D02*
X185500Y160000D01*
X184900Y160600D02*
Y169000D01*
X244500Y144500D02*
X249250Y149250D01*
X220000Y144500D02*
X244500D01*
X218500Y146000D02*
X220000Y144500D01*
X282972Y94429D02*
Y95020D01*
Y94429D02*
X285400Y92002D01*
Y88600D02*
X285500Y88500D01*
X185500Y160000D02*
Y161000D01*
Y160000D02*
X190500Y155000D01*
X102260Y65492D02*
X102400Y65632D01*
Y70400D01*
X102500Y70500D01*
X308000Y89500D02*
X314000D01*
X341673Y31575D02*
Y37327D01*
X308000Y71000D02*
X341673Y37327D01*
Y31575D02*
X342248Y31000D01*
X266000Y52500D02*
X269752D01*
X269760Y52492D01*
X228000Y129500D02*
X232000D01*
X214500Y146000D02*
X218500D01*
X249380Y156720D02*
Y161372D01*
X289740Y63492D02*
X289870Y63622D01*
Y68870D01*
X290000Y69000D01*
X270433Y56433D02*
X271500Y57500D01*
X270433Y53165D02*
Y56433D01*
X269760Y52492D02*
X270433Y53165D01*
X277248Y52500D02*
Y52976D01*
X275600Y54624D02*
X277248Y52976D01*
X275600Y54624D02*
Y57400D01*
X275500Y57500D02*
X275600Y57400D01*
X277240Y52492D02*
X277248Y52500D01*
X285992D01*
X286000Y52508D01*
X273437Y41445D02*
X273500Y41508D01*
X273437Y31063D02*
Y41445D01*
X273374Y31000D02*
X273437Y31063D01*
X213500Y147000D02*
X214500Y146000D01*
X249250Y149250D02*
Y152150D01*
X249500Y152400D01*
X318146Y89000D02*
X321000D01*
X317746Y89400D02*
X318146Y89000D01*
X314100Y89400D02*
X317746D01*
X314000Y89500D02*
X314100Y89400D01*
X358500Y111000D02*
Y112000D01*
X356500Y109000D02*
X358500Y111000D01*
X346500Y131500D02*
X350500D01*
X244100Y161652D02*
X244256Y161496D01*
X244100Y161652D02*
Y166400D01*
X244000Y166500D02*
X244100Y166400D01*
X231200Y161180D02*
X231520Y161500D01*
X231200Y156500D02*
Y161180D01*
X231100Y156400D02*
X231200Y156500D01*
X239004Y161496D02*
X239100Y161400D01*
X239000Y161500D02*
X239004Y161496D01*
X239100Y156400D02*
Y161400D01*
X249600Y152500D02*
X254900D01*
X249500Y152400D02*
X249600Y152500D01*
X126429Y155403D02*
Y155500D01*
Y155403D02*
X141333Y140500D01*
X149400D01*
X126429Y162000D02*
Y168500D01*
Y155500D02*
Y162000D01*
X350500Y126500D02*
X350500Y126500D01*
X350500Y126500D02*
Y131500D01*
X219000Y48000D02*
Y48200D01*
X224000Y39083D02*
Y46500D01*
X220248Y35331D02*
X224000Y39083D01*
X220248Y31000D02*
Y35331D01*
X159500Y122500D02*
X164579D01*
X164539Y118720D02*
X164579Y118760D01*
X164539Y114039D02*
Y118720D01*
X164500Y114000D02*
X164539Y114039D01*
X151600Y114400D02*
X152000Y114000D01*
X151600Y114400D02*
Y118400D01*
X151500Y118500D02*
X151600Y118400D01*
X156000Y114000D02*
X160500D01*
X155500Y118500D02*
X155900Y118100D01*
Y114100D02*
Y118100D01*
Y114100D02*
X156000Y114000D01*
X155500Y118500D02*
X159500D01*
X150100Y127250D02*
Y127500D01*
Y127250D02*
X151400Y125950D01*
Y122600D02*
Y125950D01*
Y122600D02*
X151500Y122500D01*
X155500D01*
X286900Y162500D02*
X287400Y163000D01*
X286900Y156329D02*
Y162500D01*
X231520Y161008D02*
Y161500D01*
X231100Y152400D02*
Y156400D01*
X235100D02*
X239100D01*
X239004Y161496D02*
X244256D01*
X244260Y161492D01*
X245000Y156500D02*
X245100Y156600D01*
X249500D01*
X249260Y161492D02*
X249380Y161372D01*
Y156720D02*
X249500Y156600D01*
X255000Y152600D02*
X255440Y152160D01*
X260179D01*
X260579Y151760D01*
X275929Y151250D02*
Y154500D01*
Y148000D02*
Y151250D01*
X275421Y151758D02*
X275929Y151250D01*
X270423Y151758D02*
X275421D01*
X270421Y151760D02*
X270423Y151758D01*
X285071Y154500D02*
X286900Y156329D01*
X287400Y166900D02*
X288000Y167500D01*
X287400Y163000D02*
Y166900D01*
X284000Y167500D02*
X288000D01*
G54D122*
X40000Y32500D02*
Y125000D01*
Y148000D02*
Y166500D01*
Y125000D02*
Y148000D01*
Y166500D02*
Y176000D01*
X60000Y32500D02*
Y55000D01*
X68500Y63500D01*
X70000D01*
X39500Y176500D02*
X40000Y176000D01*
G54D123*
X106500Y120000D02*
X130000Y96500D01*
X171934Y168705D02*
X179395D01*
X122552Y155403D02*
X126429D01*
X122149Y155000D02*
X122552Y155403D01*
X104500Y155000D02*
X122149D01*
X106500Y120000D02*
Y125500D01*
X130000Y65000D02*
Y96500D01*
X123000Y58000D02*
X130000Y65000D01*
X154792Y160500D02*
X155000D01*
X153028Y158736D02*
X154792Y160500D01*
X148334Y158736D02*
X153028D01*
X148200Y158602D02*
X148334Y158736D01*
X126500Y174000D02*
X141000D01*
X115000Y58000D02*
X123000D01*
X149400Y140500D02*
Y145400D01*
X165500Y161500D01*
Y167000D01*
X167205Y168705D01*
X171666D01*
X171800Y168839D01*
X171934Y168705D01*
X135571Y168500D02*
Y168582D01*
X136989Y170000D01*
X141000D01*
X135571Y162000D02*
X141000D01*
X136989Y154000D02*
X141000D01*
X135571Y155418D02*
Y155500D01*
Y155418D02*
X136989Y154000D01*
X141000Y174000D02*
X141022Y173978D01*
X148178D01*
X148200Y173957D01*
X141000Y170000D02*
X142161Y168839D01*
X148200D01*
X141000Y166000D02*
X141146Y166146D01*
X148066D01*
X148200Y166279D01*
X141000Y162000D02*
X141839Y161161D01*
X148200D01*
X141000Y158000D02*
X141468Y158468D01*
X148066D01*
X148200Y158602D01*
X141000Y154000D02*
X141382Y153618D01*
X148066D01*
X148200Y153484D01*
G54D124*
X175000Y182500D02*
X181500D01*
X172000Y185000D02*
X180980D01*
X166000Y185500D02*
Y187500D01*
X154500Y173239D02*
Y187691D01*
X180980Y185000D02*
X196000Y169980D01*
X166000Y185500D02*
X171800Y179700D01*
Y176516D02*
Y179700D01*
X177500Y173000D02*
X181150D01*
X184900Y169250D01*
Y169000D02*
Y169250D01*
X273408Y85408D02*
X273500Y85500D01*
X176650Y172150D02*
X177500Y173000D01*
X176570Y172150D02*
X176650D01*
X176029Y171608D02*
X176570Y172150D01*
X172011Y171608D02*
X176029D01*
X171800Y171398D02*
X172011Y171608D01*
X165000Y175000D02*
Y179632D01*
X245900Y130900D02*
X246000Y130800D01*
Y131000D02*
X246516Y131516D01*
X245900Y130900D02*
X246000Y131000D01*
X250000D01*
X366000Y17000D02*
X389500D01*
X355500Y27500D02*
X366000Y17000D01*
X355500Y27500D02*
Y41000D01*
X349500Y45500D02*
X355000D01*
X187000Y115000D02*
X196284D01*
X181000Y109000D02*
X187000Y115000D01*
X228500Y187500D02*
X232500D01*
X187500Y197500D02*
X241500D01*
X180000Y190000D02*
X187500Y197500D01*
X246000Y128000D02*
Y130800D01*
X244175Y126175D02*
X246000Y128000D01*
X244175Y122407D02*
Y126175D01*
X243984Y122216D02*
X244175Y122407D01*
X268035Y85408D02*
X273408D01*
X267943Y85316D02*
X268035Y85408D01*
X225284Y95642D02*
X225425Y95500D01*
X230000D01*
X148200Y185200D02*
X162500Y199500D01*
X148200Y176516D02*
Y185200D01*
X162500Y199500D02*
X183500D01*
X184500Y198500D01*
X152659Y171398D02*
X154500Y173239D01*
X165000Y175000D02*
X166043Y173957D01*
X171800D01*
X169000Y197000D02*
X181500D01*
X165000Y190000D02*
X180000D01*
X161500Y186500D02*
X165000Y190000D01*
X158000Y186000D02*
X169000Y197000D01*
X158000Y166000D02*
Y186000D01*
X161500Y163000D02*
Y186500D01*
X188000Y191000D02*
X188224Y190776D01*
X188000Y194500D02*
X192500D01*
X181500Y182500D02*
X194000Y170000D01*
X217500Y116500D02*
X220500D01*
X220724Y116276D01*
X221972D01*
X222921Y115327D01*
X225284D01*
X145000Y109000D02*
X181000D01*
X96000Y158000D02*
X145000Y109000D01*
X256000Y111500D02*
X256055Y111445D01*
X260661D01*
X260717Y111390D01*
X252758Y102500D02*
Y102738D01*
X251858Y103638D02*
X252758Y102738D01*
X249890Y102800D02*
X250190Y102500D01*
X247621D02*
X247921Y102800D01*
X245053Y102500D02*
Y102738D01*
X242016Y103895D02*
X243500Y105379D01*
X242016Y86783D02*
Y103895D01*
X272500Y108000D02*
Y109500D01*
X271900Y107400D02*
X272500Y108000D01*
X260769Y107400D02*
X271900D01*
X260717Y107453D02*
X260769Y107400D01*
X218000Y100000D02*
X218231Y99769D01*
X225093D01*
X225284Y99579D01*
X230184Y99000D02*
X230500D01*
X229605Y99579D02*
X230184Y99000D01*
X225284Y99579D02*
X229605D01*
X245053Y102738D02*
X245953Y103638D01*
X243500Y105379D02*
Y105500D01*
X231047Y101547D02*
X233500Y104000D01*
X225284Y101547D02*
X231047D01*
X242016Y86783D02*
X242206Y86593D01*
X251858Y103638D02*
Y122216D01*
X319000Y44500D02*
Y47500D01*
X309500Y49500D02*
Y53500D01*
X303137Y59863D02*
X309500Y53500D01*
X297000Y59863D02*
X303137D01*
X304068Y62432D02*
X319000Y47500D01*
X297000Y62432D02*
X304068D01*
X306000Y65000D02*
X326500Y44500D01*
X297000Y65000D02*
X306000D01*
X304100Y49900D02*
X304500Y49500D01*
X304100Y49900D02*
Y50195D01*
X297000Y57294D02*
X304100Y50195D01*
X249890Y102800D02*
Y122216D01*
X245953Y103638D02*
Y122216D01*
X247921Y102800D02*
Y122216D01*
X196000Y163000D02*
Y169980D01*
X260732Y105500D02*
X276000D01*
X260717Y105484D02*
X260732Y105500D01*
X276000D02*
X278000Y107500D01*
Y119000D01*
X279500Y120500D01*
X281000D01*
X281500Y121000D01*
Y111453D02*
X282972Y109980D01*
X281500Y111453D02*
Y117000D01*
X266500Y113500D02*
X268500D01*
X264390Y111390D02*
X266500Y113500D01*
X260717Y111390D02*
X264390D01*
X154543Y156043D02*
X161500Y163000D01*
X148200Y156043D02*
X154543D01*
X196000Y163000D02*
X197500Y161500D01*
X194000Y158000D02*
Y170000D01*
Y158000D02*
X195200Y156800D01*
X197200D01*
X197500Y156500D01*
X148200Y171398D02*
X152659D01*
X188224Y190776D02*
X191224D01*
X191500Y190500D01*
X155720Y163721D02*
X158000Y166000D01*
X233000Y183500D02*
X235000Y185500D01*
Y190000D01*
X246372Y237372D02*
X247500Y238500D01*
X227500D02*
X230447Y235554D01*
X293872Y237372D02*
X295000Y238500D01*
X275000D02*
X277946Y235554D01*
X198872Y237372D02*
X200000Y238500D01*
X180000D02*
X182947Y235554D01*
X148200Y163721D02*
X155720D01*
X314000Y119500D02*
X317000D01*
X297500Y88000D02*
Y119500D01*
X294000Y84500D02*
X297500Y88000D01*
X282000Y84500D02*
X294000D01*
X278500Y88000D02*
X282000Y84500D01*
X278500Y88000D02*
Y95000D01*
X273921Y99579D02*
X278500Y95000D01*
X260717Y99579D02*
X273921D01*
X289868Y92861D02*
X292028Y95020D01*
X289868Y88368D02*
Y92861D01*
X289500Y88000D02*
X289868Y88368D01*
X277098Y103516D02*
X282972Y109390D01*
X286090Y101547D02*
X292028Y95610D01*
X260717Y101547D02*
X286090D01*
X292028Y95020D02*
Y95610D01*
X260717Y103516D02*
X277098D01*
X282972Y109390D02*
Y109980D01*
X280331Y159240D02*
X283298Y156273D01*
X283394D01*
X285071Y154596D01*
Y154500D02*
Y154596D01*
X270421Y159240D02*
X280331D01*
X315500Y188000D02*
X315750Y188250D01*
X322250D02*
X322500Y188500D01*
G54D125*
X20000Y32500D02*
Y176000D01*
X19500Y176500D02*
X20000Y176000D01*
G54D126*
X171500Y114000D02*
X178373D01*
X169000D02*
X171500D01*
X168500Y113500D02*
X169000Y114000D01*
X154000Y129650D02*
Y137000D01*
Y129650D02*
X155900Y127750D01*
Y127500D02*
Y127750D01*
X154000Y137000D02*
X156600Y139600D01*
Y140500D01*
X178373Y114000D02*
X180373Y116000D01*
X180500D01*
X169000Y116500D02*
X171500Y114000D01*
X169000Y116500D02*
Y121000D01*
X167950Y122050D02*
X169000Y121000D01*
X165029Y122050D02*
X167950D01*
X164579Y122500D02*
X165029Y122050D01*
X210000Y170500D02*
X220000D01*
X224000Y166500D01*
X244000D01*
G54D127*
X238500Y75000D02*
X242500D01*
X234500D02*
X238500D01*
X230500D02*
X234500D01*
X250000D02*
X254000D01*
X256453Y107453D02*
X260717D01*
X256000Y107000D02*
X256453Y107453D01*
X256000Y97662D02*
Y107000D01*
X251934Y93596D02*
X256000Y97662D01*
X251934Y86859D02*
Y93596D01*
X251858Y86783D02*
X251934Y86859D01*
X245953Y83047D02*
X250000Y79000D01*
X194000Y121500D02*
X211984Y103516D01*
X190500Y125000D02*
X194000Y121500D01*
Y124500D02*
X213016Y105484D01*
X191800Y126700D02*
X194000Y124500D01*
Y128000D02*
X214547Y107453D01*
X193100Y128900D02*
X194000Y128000D01*
X198994Y126006D02*
X211642Y113358D01*
X195000Y130000D02*
X198994Y126006D01*
X198461Y129539D02*
X207000Y121000D01*
X196500Y131500D02*
X198461Y129539D01*
X198950Y132550D02*
X209000Y122500D01*
X197800Y133700D02*
X198950Y132550D01*
X207000Y121000D02*
X225000D01*
X196500Y131500D02*
Y143000D01*
X214547Y107453D02*
X225284D01*
X193100Y128900D02*
Y137400D01*
X213016Y105484D02*
X225284D01*
X191800Y126700D02*
Y136700D01*
X211642Y113358D02*
X225284D01*
X195000Y130000D02*
Y142000D01*
X175839Y161161D02*
X195000Y142000D01*
X230000Y112500D02*
Y116000D01*
X231500Y111500D02*
Y116500D01*
X211984Y103516D02*
X225284D01*
X190500Y125000D02*
Y136000D01*
X253500Y115500D02*
X262500Y124500D01*
X253500Y108008D02*
Y115500D01*
Y108008D02*
X254693Y106816D01*
X253500Y97000D02*
X254693Y98193D01*
Y106816D01*
X246500Y97000D02*
X253500D01*
X240024Y97524D02*
Y122193D01*
X238079Y99579D02*
Y122216D01*
X236000Y101500D02*
X236055Y101555D01*
Y122161D01*
X236110Y122216D01*
X225500Y122500D02*
X231500Y116500D01*
X225000Y121000D02*
X230000Y116000D01*
X209000Y122500D02*
X225500D01*
X240000Y97500D02*
X240024Y97524D01*
Y122193D02*
X240047Y122216D01*
X212220Y73720D02*
X238079Y99579D01*
X245953Y83047D02*
Y86783D01*
X314000Y124500D02*
X314243Y124743D01*
X315243D01*
X317000Y126500D01*
X262500Y124500D02*
X276500D01*
X243984Y94484D02*
X246500Y97000D01*
X243984Y86783D02*
Y94484D01*
X232500Y82000D02*
X233901Y83401D01*
X231500Y82000D02*
X232500D01*
X230500Y81000D02*
X231500Y82000D01*
X233901Y83401D02*
Y86543D01*
X230500Y79000D02*
Y81000D01*
X266000Y94000D02*
X270500D01*
X264599Y95401D02*
X266000Y94000D01*
X260957Y95401D02*
X264599D01*
X260717Y95642D02*
X260957Y95401D01*
X326500Y31000D02*
Y40500D01*
X238079Y122216D02*
Y130900D01*
X171800Y165620D02*
X175718D01*
X197800Y143538D01*
X171800Y165620D02*
Y166279D01*
X197800Y133700D02*
Y143538D01*
X176000Y163500D02*
X196500Y143000D01*
X172020Y163500D02*
X176000D01*
X171800Y161161D02*
X175839D01*
X177016Y153484D02*
X193100Y137400D01*
X178500Y150000D02*
X191800Y136700D01*
X178000Y148500D02*
X190500Y136000D01*
X229421Y109421D02*
X231500Y111500D01*
X225284Y109421D02*
X229421D01*
X171800Y163720D02*
X172020Y163500D01*
X229130Y111630D02*
X230000Y112500D01*
X225524Y111630D02*
X229130D01*
X225284Y111390D02*
X225524Y111630D01*
X166500Y148500D02*
X178000D01*
X164000Y151000D02*
X166500Y148500D01*
X164000Y156500D02*
X166102Y158602D01*
X164000Y151000D02*
Y156500D01*
X166102Y158602D02*
X171800D01*
X167500Y150000D02*
X178500D01*
X166000Y151500D02*
X167500Y150000D01*
X166000Y155000D02*
X167043Y156043D01*
X166000Y151500D02*
Y155000D01*
X167043Y156043D02*
X171800D01*
Y153484D02*
X177016D01*
X309500Y49500D02*
X310750Y48250D01*
Y44750D02*
Y48250D01*
Y44750D02*
X311000Y44500D01*
X303250Y48250D02*
X304500Y49500D01*
X303250Y44750D02*
Y48250D01*
X303000Y44500D02*
X303250Y44750D01*
X318626Y40126D02*
X319000Y40500D01*
X318626Y31000D02*
Y40126D01*
X310752Y40252D02*
X311000Y40500D01*
X310752Y31000D02*
Y40252D01*
X302878Y40378D02*
X303000Y40500D01*
X302878Y31000D02*
Y40378D01*
X238079Y79421D02*
Y86783D01*
Y79421D02*
X238500Y79000D01*
X238000Y91500D02*
X238039Y91461D01*
Y86823D02*
Y91461D01*
Y86823D02*
X238079Y86783D01*
X248500Y71000D02*
X251000Y68500D01*
Y51000D02*
Y68500D01*
Y51000D02*
X257500Y44500D01*
X245000Y71500D02*
Y78000D01*
X244000Y79000D02*
X245000Y78000D01*
X242500Y79000D02*
X244000D01*
X240047Y81453D02*
X242500Y79000D01*
X240047Y81453D02*
Y86783D01*
X245000Y71500D02*
X249500Y67000D01*
Y44500D02*
Y67000D01*
X235250Y79750D02*
Y81407D01*
X234500Y79000D02*
X235250Y79750D01*
Y81407D02*
X236110Y82267D01*
X257500Y40500D02*
X257626Y40374D01*
Y31000D02*
Y40374D01*
X249500Y40500D02*
X249752Y40248D01*
Y31000D02*
Y40248D01*
X208220Y73720D02*
X212220D01*
X188500Y54000D02*
X208220Y73720D01*
X236110Y82267D02*
Y86783D01*
X226966Y81966D02*
X227000Y82000D01*
X224966Y81966D02*
X226966D01*
X197000Y54000D02*
X224966Y81966D01*
X204500Y56500D02*
X227000Y79000D01*
X204500Y54000D02*
Y56500D01*
X227000Y79000D02*
X230500D01*
X233901Y86543D02*
X234142Y86783D01*
G54D128*
X358500Y237300D02*
Y238500D01*
X340000Y227500D02*
X344699Y232199D01*
X353399D01*
X358500Y237300D01*
Y238500D02*
X358600D01*
X99008Y65492D02*
X102260D01*
X149429Y133364D02*
Y133500D01*
Y133364D02*
X150100Y132693D01*
Y127500D02*
Y132693D01*
G54D129*
X160500Y203000D02*
X242000D01*
X136945Y179445D02*
X160500Y203000D01*
X79000Y179445D02*
X136945D01*
X180000Y134500D02*
X181924Y136424D01*
X39500Y176500D02*
X40250Y177250D01*
X59250D01*
X60000Y178000D01*
X242000Y203000D02*
X262000Y183000D01*
X272500D01*
X78000Y178445D02*
X79000Y179445D01*
X78000Y178000D02*
Y178445D01*
X315493Y155993D02*
X318985Y152500D01*
X300000Y140500D02*
X315493Y155993D01*
X202500Y140500D02*
X205000D01*
X300000D01*
X174421Y134500D02*
X180000D01*
X318985Y152500D02*
X319500D01*
X149415Y133515D02*
X149429Y133500D01*
X149415Y133515D02*
Y140485D01*
X149400Y140500D02*
X149415Y140485D01*
X174421Y126240D02*
Y134500D01*
Y120000D02*
Y126240D01*
X287000Y183000D02*
X293500D01*
X272500D02*
X287000D01*
G54D130*
X287400Y162500D02*
X309500D01*
X319500Y152500D01*
G54D131*
X306800Y192205D02*
D03*
G54D132*
X93500Y74000D02*
D03*
G54D133*
X86200Y77200D02*
D03*
G54D134*
X20000Y32250D02*
D03*
G54D135*
X101250Y62000D02*
D03*
G54D136*
X94850Y67075D02*
D03*
G54D137*
X284873Y238627D02*
D03*
X189873D02*
D03*
X94873D02*
D03*
G54D138*
X69000Y181500D02*
D03*
G54D139*
X159997Y133500D02*
D03*
G54D140*
X164594Y128520D02*
D03*
G54D141*
X321000Y175250D02*
D03*
G54D142*
X315500Y175750D02*
D03*
G54D143*
X19500Y69000D02*
D03*
Y122750D02*
D03*
Y176500D02*
D03*
X299500Y152500D02*
D03*
X365500Y59000D02*
D03*
Y49000D02*
D03*
Y39000D02*
D03*
X395500Y49000D02*
D03*
X365500Y29000D02*
D03*
X395500Y39000D02*
D03*
Y29000D02*
D03*
Y59000D02*
D03*
G54D144*
X39500Y69000D02*
D03*
Y122750D02*
D03*
Y176500D02*
D03*
X319500Y152500D02*
D03*
G54D145*
X272500Y183000D02*
D03*
G54D146*
X272500Y196650D02*
D03*
G54D147*
X20000Y32500D02*
D03*
X40000D02*
D03*
X60000D02*
D03*
X140000D02*
D03*
X80000D02*
D03*
X120000D02*
D03*
G54D148*
X100000D02*
D03*
G54D149*
X160000D02*
D03*
G54D150*
X200000Y238500D02*
D03*
X190000D02*
D03*
X152500D02*
D03*
X142500D02*
D03*
X105000D02*
D03*
X95000D02*
D03*
X295000D02*
D03*
X285000D02*
D03*
X57500D02*
D03*
X47500D02*
D03*
X247500D02*
D03*
X237500D02*
D03*
G54D151*
X180000D02*
D03*
X132500D02*
D03*
X85000D02*
D03*
X275000D02*
D03*
X37500D02*
D03*
X227500D02*
D03*
G54D152*
X198000Y80626D02*
D03*
Y88500D02*
D03*
Y72752D02*
D03*
G54D153*
Y96374D02*
D03*
G54D154*
X343500Y62500D02*
D03*
X340000Y227500D02*
D03*
X16000Y217000D02*
D03*
X69500Y95000D02*
D03*
G54D155*
X40000Y170415D02*
D03*
X35500Y172000D02*
D03*
X44000Y172500D02*
D03*
X33500Y177500D02*
D03*
X36500Y181500D02*
D03*
X42500D02*
D03*
X103500Y119000D02*
D03*
X106500Y78000D02*
D03*
X175000Y182500D02*
D03*
X172000Y185000D02*
D03*
X166000Y187500D02*
D03*
X154500Y187691D02*
D03*
X386000Y24500D02*
D03*
X258000Y69000D02*
D03*
X227000Y68000D02*
D03*
X303500Y84000D02*
D03*
X301500Y98000D02*
D03*
X334500Y201500D02*
D03*
X333000Y187500D02*
D03*
X333500Y175500D02*
D03*
X307500Y182500D02*
D03*
X304500D02*
D03*
X301500D02*
D03*
X312500Y214000D02*
D03*
X321000Y213500D02*
D03*
X302000Y213000D02*
D03*
X301500Y185500D02*
D03*
X304500D02*
D03*
X307500D02*
D03*
Y189500D02*
D03*
X304500D02*
D03*
X301500D02*
D03*
X270000Y146500D02*
D03*
X266500Y168500D02*
D03*
X221000Y150000D02*
D03*
X185500Y90000D02*
D03*
X81000Y227000D02*
D03*
X74000Y206000D02*
D03*
X24500Y195000D02*
D03*
X60000Y111500D02*
D03*
X92500Y11500D02*
D03*
X99000D02*
D03*
X395000Y100000D02*
D03*
X389500Y141000D02*
D03*
Y130000D02*
D03*
X382500Y173000D02*
D03*
X383500Y183500D02*
D03*
X374000Y209000D02*
D03*
X376500Y229000D02*
D03*
X321000Y235500D02*
D03*
X215000Y241000D02*
D03*
X268500Y219500D02*
D03*
X316500Y222500D02*
D03*
X184000Y116500D02*
D03*
X180500Y116000D02*
D03*
X203000Y105000D02*
D03*
X222500Y65000D02*
D03*
X201500Y20500D02*
D03*
X302000Y20000D02*
D03*
X344000Y18500D02*
D03*
X277500Y19000D02*
D03*
X334500Y19500D02*
D03*
X265500D02*
D03*
X212500Y20000D02*
D03*
X237500Y43500D02*
D03*
X238000Y58000D02*
D03*
X262500Y60500D02*
D03*
X267500Y74500D02*
D03*
X291500Y103000D02*
D03*
X302500Y107000D02*
D03*
X223000Y127000D02*
D03*
X269000Y133000D02*
D03*
X279000Y133500D02*
D03*
X282595D02*
D03*
X223500Y175500D02*
D03*
X219500Y174500D02*
D03*
X212500Y166000D02*
D03*
X207500Y145500D02*
D03*
X228500Y135500D02*
D03*
X241000Y175500D02*
D03*
X235000Y149500D02*
D03*
X275046Y119546D02*
D03*
X285546Y91046D02*
D03*
X273500Y85500D02*
D03*
X165000Y179632D02*
D03*
X246000Y128000D02*
D03*
X349500Y45500D02*
D03*
X229000Y85000D02*
D03*
X194000Y121500D02*
D03*
X196284Y115000D02*
D03*
X194000Y124500D02*
D03*
Y128000D02*
D03*
X198994Y126006D02*
D03*
X198461Y129539D02*
D03*
X198950Y132550D02*
D03*
X211500Y118500D02*
D03*
X181924Y136424D02*
D03*
X232500Y187500D02*
D03*
X207500Y194500D02*
D03*
X241500Y197500D02*
D03*
X205000Y172000D02*
D03*
X220000Y96500D02*
D03*
X308000Y89500D02*
D03*
X386000Y99000D02*
D03*
X308000Y71000D02*
D03*
X266000Y52500D02*
D03*
X224000Y46500D02*
D03*
X296000Y76000D02*
D03*
X376000Y53000D02*
D03*
X271500Y88000D02*
D03*
X254500Y149000D02*
D03*
X289500Y121000D02*
D03*
X230000Y95500D02*
D03*
X215500D02*
D03*
X228000Y129500D02*
D03*
X218500Y146000D02*
D03*
X188500Y110500D02*
D03*
X104500Y155000D02*
D03*
X106500Y125500D02*
D03*
X98000Y136000D02*
D03*
X224000Y166500D02*
D03*
X155000Y160500D02*
D03*
X143500Y166000D02*
D03*
X126500Y174000D02*
D03*
X181500Y197000D02*
D03*
X184500Y198000D02*
D03*
X188000Y191000D02*
D03*
Y194500D02*
D03*
X220500Y116500D02*
D03*
X219000Y111000D02*
D03*
X199977Y111500D02*
D03*
X256000D02*
D03*
X252758Y102500D02*
D03*
X250190D02*
D03*
X247621D02*
D03*
X245053D02*
D03*
X236000Y101500D02*
D03*
X258000Y127500D02*
D03*
X230500Y99000D02*
D03*
X258000Y123500D02*
D03*
X243500Y105500D02*
D03*
X233500Y104000D02*
D03*
X301500Y67000D02*
D03*
X276500D02*
D03*
X274000Y69500D02*
D03*
X296500D02*
D03*
X240000Y97500D02*
D03*
X311500Y114000D02*
D03*
X314000Y124500D02*
D03*
X276500D02*
D03*
X270500Y94000D02*
D03*
X297000Y57294D02*
D03*
Y59863D02*
D03*
Y62432D02*
D03*
Y65000D02*
D03*
X246500Y93000D02*
D03*
X250000D02*
D03*
X267000Y97000D02*
D03*
X266000Y109500D02*
D03*
X249500Y159000D02*
D03*
X286000Y74500D02*
D03*
X260000Y83500D02*
D03*
X259500Y79500D02*
D03*
X254000Y127500D02*
D03*
X224500Y155000D02*
D03*
X242000Y128000D02*
D03*
X239000Y149500D02*
D03*
X260500Y118000D02*
D03*
X200500Y171000D02*
D03*
X266000Y118000D02*
D03*
X202500Y140500D02*
D03*
X205000D02*
D03*
X180000Y134500D02*
D03*
X288165Y145000D02*
D03*
X309500Y136382D02*
D03*
X356500Y109000D02*
D03*
X346500Y131500D02*
D03*
X259500Y167500D02*
D03*
X88500Y89000D02*
D03*
X70500Y154000D02*
D03*
X53500Y170500D02*
D03*
X70500Y169000D02*
D03*
X235000Y190000D02*
D03*
X314000Y119500D02*
D03*
X297500D02*
D03*
X378000Y89000D02*
D03*
X373000Y104000D02*
D03*
X238000Y91500D02*
D03*
X248500Y71000D02*
D03*
X235500Y82000D02*
D03*
X227000D02*
D03*
X188500Y42000D02*
D03*
X207500D02*
D03*
X197000Y46000D02*
D03*
X207500D02*
D03*
X287000Y180000D02*
D03*
X321000Y176500D02*
D03*
X323500D02*
D03*
Y174000D02*
D03*
X327000Y180000D02*
D03*
X315500Y175000D02*
D03*
X318500D02*
D03*
X321000Y174000D02*
D03*
X287000Y193000D02*
D03*
X278500Y174500D02*
D03*
G54D156*
X45500Y177000D02*
D03*
X92500Y61500D02*
D03*
X73500Y115000D02*
D03*
X55500Y82000D02*
D03*
X53500Y113500D02*
D03*
X52000Y134000D02*
D03*
Y142500D02*
D03*
X255500Y180000D02*
D03*
X248500Y185000D02*
D03*
X190500Y155000D02*
D03*
X96000Y194000D02*
D03*
X106000Y192000D02*
D03*
X100000D02*
D03*
X90000Y193500D02*
D03*
X94000Y190500D02*
D03*
X104000Y186000D02*
D03*
X97500D02*
D03*
X100500Y144000D02*
D03*
X248500Y210000D02*
D03*
X9500Y240000D02*
D03*
X211500Y208000D02*
D03*
X155500Y206500D02*
D03*
X152000Y210500D02*
D03*
X155500D02*
D03*
X159000D02*
D03*
X162500D02*
D03*
X152000Y206500D02*
D03*
X49000D02*
D03*
X52500D02*
D03*
X56000Y205500D02*
D03*
X100500Y61500D02*
D03*
X97000D02*
D03*
X98500Y64500D02*
D03*
X94500D02*
D03*
X97000Y67500D02*
D03*
X218500Y210000D02*
D03*
X222000D02*
D03*
X215000D02*
D03*
X55500D02*
D03*
X52000D02*
D03*
X48500D02*
D03*
X74500Y188000D02*
D03*
X79000Y192500D02*
D03*
X74500Y197000D02*
D03*
X79000D02*
D03*
X69500D02*
D03*
Y183875D02*
D03*
Y179500D02*
D03*
Y192625D02*
D03*
Y188250D02*
D03*
M02*
