G04*
G04 #@! TF.GenerationSoftware,Altium Limited,Altium Designer,19.1.5 (86)*
G04*
G04 Layer_Color=2752767*
%FSLAX25Y25*%
%MOIN*%
G70*
G01*
G75*
%ADD11C,0.01000*%
%ADD14C,0.01600*%
%ADD136C,0.01500*%
%ADD179C,0.00200*%
%ADD180C,0.01400*%
G54D11*
X431696Y100828D02*
G03*
X431696Y100828I-3333J0D01*
G01*
X430363Y25828D02*
G03*
X430363Y25828I-2000J0D01*
G01*
X431696D02*
G03*
X431696Y25828I-3333J0D01*
G01*
X425029Y174161D02*
X426696D01*
X425029D02*
Y177494D01*
X426696D01*
Y179161D01*
X430029D01*
Y177494D02*
Y179161D01*
Y177494D02*
X431696D01*
Y174161D02*
Y177494D01*
X430029Y174161D02*
X431696D01*
X430029Y172494D02*
Y174161D01*
X426696Y172494D02*
X430029D01*
X426696D02*
Y174161D01*
X425029Y157494D02*
X428363Y159161D01*
X431696Y157494D01*
X430029Y160828D02*
X431696Y157494D01*
X430029Y160828D02*
X431696Y164161D01*
X428363Y162494D02*
X431696Y164161D01*
X425029D02*
X428363Y162494D01*
X425029Y164161D02*
X426696Y160828D01*
X425029Y157494D02*
X426696Y160828D01*
X427362Y144827D02*
X428363Y143827D01*
X426363Y144827D02*
X427362D01*
X426363D02*
X427362Y145827D01*
X426363Y146827D02*
X427362Y145827D01*
X426363Y146827D02*
X427362D01*
X428363Y147827D01*
X429362Y146827D01*
X430363D01*
X429362Y145827D02*
X430363Y146827D01*
X429362Y145827D02*
X430363Y144827D01*
X429362D02*
X430363D01*
X428363Y143827D02*
X429362Y144827D01*
X426696Y144161D02*
X428363Y142494D01*
X425029Y144161D02*
X426696D01*
X425029D02*
X426696Y145827D01*
X425029Y147494D02*
X426696Y145827D01*
X425029Y147494D02*
X426696D01*
X428363Y149161D01*
X430029Y147494D01*
X431696D01*
X430029Y145827D02*
X431696Y147494D01*
X430029Y145827D02*
X431696Y144161D01*
X430029D02*
X431696D01*
X428363Y142494D02*
X430029Y144161D01*
X426696Y129161D02*
X428363Y127494D01*
X425029Y129161D02*
X426696D01*
X425029D02*
X426696Y130827D01*
X425029Y132494D02*
X426696Y130827D01*
X425029Y132494D02*
X426696D01*
X428363Y134161D01*
X430029Y132494D01*
X431696D01*
X430029Y130827D02*
X431696Y132494D01*
X430029Y130827D02*
X431696Y129161D01*
X430029D02*
X431696D01*
X428363Y127494D02*
X430029Y129161D01*
X425029Y115828D02*
X428363Y112494D01*
X431696Y115828D01*
X428363Y119161D02*
X431696Y115828D01*
X425029D02*
X428363Y119161D01*
X425029Y82494D02*
X431696D01*
Y89161D01*
X425029D02*
X431696D01*
X425029Y82494D02*
Y89161D01*
X428363Y68827D02*
X430363Y72828D01*
X426363D02*
X430363D01*
X426363D02*
X428363Y68827D01*
Y67494D02*
X431696Y74161D01*
X425029D02*
X431696D01*
X425029D02*
X428363Y67494D01*
X425029Y52494D02*
Y54161D01*
X426696Y55827D01*
X425029Y57494D02*
X426696Y55827D01*
X425029Y57494D02*
Y59161D01*
X426696D01*
X428363Y57494D01*
X430029Y59161D01*
X431696D01*
Y57494D02*
Y59161D01*
X430029Y55827D02*
X431696Y57494D01*
X430029Y55827D02*
X431696Y54161D01*
Y52494D02*
Y54161D01*
X430029Y52494D02*
X431696D01*
X428363Y54161D02*
X430029Y52494D01*
X426696D02*
X428363Y54161D01*
X425029Y52494D02*
X426696D01*
X428363Y37494D02*
X431696Y44161D01*
X425029D02*
X431696D01*
X425029D02*
X428363Y37494D01*
X1094464Y176493D02*
Y172494D01*
Y174494D01*
X1095464Y175493D01*
X1096464Y176493D01*
X1097463D01*
X1100462Y172494D02*
X1102462D01*
X1101462D01*
Y178492D01*
X1100462Y177493D01*
X1105461D02*
X1106460Y178492D01*
X1108460D01*
X1109459Y177493D01*
Y176493D01*
X1108460Y175493D01*
X1107460D01*
X1108460D01*
X1109459Y174494D01*
Y173494D01*
X1108460Y172494D01*
X1106460D01*
X1105461Y173494D01*
X1111459Y178492D02*
X1115458D01*
Y177493D01*
X1111459Y173494D01*
Y172494D01*
X1117457Y171494D02*
X1121456D01*
X1123455Y172494D02*
X1125454D01*
X1124455D01*
Y178492D01*
X1123455Y177493D01*
X1132452Y172494D02*
X1128453D01*
X1132452Y176493D01*
Y177493D01*
X1131452Y178492D01*
X1129453D01*
X1128453Y177493D01*
X1134451Y178492D02*
X1138450D01*
Y177493D01*
X1134451Y173494D01*
Y172494D01*
X1140450Y178492D02*
Y172494D01*
Y175493D01*
X1141449Y176493D01*
X1143449D01*
X1144448Y175493D01*
Y172494D01*
X1146448Y177493D02*
X1147447Y178492D01*
X1149447D01*
X1150446Y177493D01*
Y176493D01*
X1149447Y175493D01*
X1150446Y174494D01*
Y173494D01*
X1149447Y172494D01*
X1147447D01*
X1146448Y173494D01*
Y174494D01*
X1147447Y175493D01*
X1146448Y176493D01*
Y177493D01*
X1147447Y175493D02*
X1149447D01*
X1152446Y172494D02*
X1154445D01*
X1153445D01*
Y178492D01*
X1152446Y177493D01*
X1157444Y176493D02*
Y172494D01*
Y174494D01*
X1158444Y175493D01*
X1159443Y176493D01*
X1160443D01*
X1163442Y172494D02*
X1165441D01*
X1164442D01*
Y178492D01*
X1163442Y177493D01*
X1168441D02*
X1169440Y178492D01*
X1171439D01*
X1172439Y177493D01*
Y173494D01*
X1171439Y172494D01*
X1169440D01*
X1168441Y173494D01*
Y177493D01*
X1174438D02*
X1175438Y178492D01*
X1177437D01*
X1178437Y177493D01*
Y173494D01*
X1177437Y172494D01*
X1175438D01*
X1174438Y173494D01*
Y177493D01*
X1180437Y172494D02*
Y176493D01*
X1181436D01*
X1182436Y175493D01*
Y172494D01*
Y175493D01*
X1183436Y176493D01*
X1184435Y175493D01*
Y172494D01*
X1186435D02*
X1188434D01*
X1187434D01*
Y178492D01*
X1186435Y177493D01*
X1191433D02*
X1192433Y178492D01*
X1194432D01*
X1195432Y177493D01*
Y176493D01*
X1194432Y175493D01*
X1193432D01*
X1194432D01*
X1195432Y174494D01*
Y173494D01*
X1194432Y172494D01*
X1192433D01*
X1191433Y173494D01*
X1197431Y178492D02*
X1201430D01*
Y177493D01*
X1197431Y173494D01*
Y172494D01*
X1203429Y171494D02*
X1207428D01*
X1209427Y172494D02*
X1211427D01*
X1210427D01*
Y178492D01*
X1209427Y177493D01*
X1218424Y172494D02*
X1214426D01*
X1218424Y176493D01*
Y177493D01*
X1217425Y178492D01*
X1215425D01*
X1214426Y177493D01*
X1220424Y178492D02*
X1224422D01*
Y177493D01*
X1220424Y173494D01*
Y172494D01*
X1094464Y161493D02*
Y157494D01*
Y159494D01*
X1095464Y160493D01*
X1096464Y161493D01*
X1097463D01*
X1104461Y157494D02*
X1100462D01*
X1104461Y161493D01*
Y162493D01*
X1103461Y163492D01*
X1101462D01*
X1100462Y162493D01*
X1110459Y157494D02*
X1106460D01*
X1110459Y161493D01*
Y162493D01*
X1109459Y163492D01*
X1107460D01*
X1106460Y162493D01*
X1112459Y158494D02*
X1113458Y157494D01*
X1115458D01*
X1116457Y158494D01*
Y162493D01*
X1115458Y163492D01*
X1113458D01*
X1112459Y162493D01*
Y161493D01*
X1113458Y160493D01*
X1116457D01*
X1118457Y156494D02*
X1122455D01*
X1124455Y157494D02*
X1126454D01*
X1125454D01*
Y163492D01*
X1124455Y162493D01*
X1129453Y163492D02*
X1133452D01*
Y162493D01*
X1129453Y158494D01*
Y157494D01*
X1135451Y162493D02*
X1136451Y163492D01*
X1138450D01*
X1139450Y162493D01*
Y161493D01*
X1138450Y160493D01*
X1137451D01*
X1138450D01*
X1139450Y159494D01*
Y158494D01*
X1138450Y157494D01*
X1136451D01*
X1135451Y158494D01*
X1141449Y163492D02*
Y157494D01*
Y160493D01*
X1142449Y161493D01*
X1144448D01*
X1145448Y160493D01*
Y157494D01*
X1147447Y158494D02*
X1148447Y157494D01*
X1150446D01*
X1151446Y158494D01*
Y162493D01*
X1150446Y163492D01*
X1148447D01*
X1147447Y162493D01*
Y161493D01*
X1148447Y160493D01*
X1151446D01*
X1156444Y157494D02*
Y163492D01*
X1153445Y160493D01*
X1157444D01*
X1159443Y156494D02*
X1163442D01*
X1165441Y157494D02*
X1167441D01*
X1166441D01*
Y163492D01*
X1165441Y162493D01*
X1170440Y158494D02*
X1171439Y157494D01*
X1173439D01*
X1174438Y158494D01*
Y162493D01*
X1173439Y163492D01*
X1171439D01*
X1170440Y162493D01*
Y161493D01*
X1171439Y160493D01*
X1174438D01*
X1176438Y162493D02*
X1177438Y163492D01*
X1179437D01*
X1180437Y162493D01*
Y158494D01*
X1179437Y157494D01*
X1177438D01*
X1176438Y158494D01*
Y162493D01*
X1182436Y161493D02*
Y157494D01*
Y159494D01*
X1183436Y160493D01*
X1184435Y161493D01*
X1185435D01*
X1188434Y162493D02*
X1189434Y163492D01*
X1191433D01*
X1192433Y162493D01*
Y161493D01*
X1191433Y160493D01*
X1192433Y159494D01*
Y158494D01*
X1191433Y157494D01*
X1189434D01*
X1188434Y158494D01*
Y159494D01*
X1189434Y160493D01*
X1188434Y161493D01*
Y162493D01*
X1189434Y160493D02*
X1191433D01*
X1194432Y162493D02*
X1195432Y163492D01*
X1197431D01*
X1198431Y162493D01*
Y158494D01*
X1197431Y157494D01*
X1195432D01*
X1194432Y158494D01*
Y162493D01*
X1201430Y157494D02*
X1203429D01*
X1204429Y158494D01*
Y160493D01*
X1203429Y161493D01*
X1201430D01*
X1200430Y160493D01*
Y158494D01*
X1201430Y157494D01*
X1206428Y162493D02*
X1207428Y163492D01*
X1209427D01*
X1210427Y162493D01*
Y158494D01*
X1209427Y157494D01*
X1207428D01*
X1206428Y158494D01*
Y162493D01*
X1212426Y156494D02*
X1216425D01*
X1218424Y157494D02*
X1220424D01*
X1219424D01*
Y163492D01*
X1218424Y162493D01*
X1227421Y163492D02*
X1223423D01*
Y160493D01*
X1225422Y161493D01*
X1226422D01*
X1227421Y160493D01*
Y158494D01*
X1226422Y157494D01*
X1224422D01*
X1223423Y158494D01*
X1229421Y157494D02*
Y161493D01*
X1230420D01*
X1231420Y160493D01*
Y157494D01*
Y160493D01*
X1232420Y161493D01*
X1233419Y160493D01*
Y157494D01*
X1239417D02*
X1235419D01*
X1239417Y161493D01*
Y162493D01*
X1238418Y163492D01*
X1236419D01*
X1235419Y162493D01*
X1245416Y157494D02*
X1241417D01*
X1245416Y161493D01*
Y162493D01*
X1244416Y163492D01*
X1242416D01*
X1241417Y162493D01*
X1247415Y158494D02*
X1248415Y157494D01*
X1250414D01*
X1251414Y158494D01*
Y162493D01*
X1250414Y163492D01*
X1248415D01*
X1247415Y162493D01*
Y161493D01*
X1248415Y160493D01*
X1251414D01*
X1253413Y156494D02*
X1257412D01*
X1259411Y157494D02*
X1261410D01*
X1260411D01*
Y163492D01*
X1259411Y162493D01*
X1264409Y163492D02*
X1268408D01*
Y162493D01*
X1264409Y158494D01*
Y157494D01*
X1270407Y162493D02*
X1271407Y163492D01*
X1273407D01*
X1274406Y162493D01*
Y161493D01*
X1273407Y160493D01*
X1272407D01*
X1273407D01*
X1274406Y159494D01*
Y158494D01*
X1273407Y157494D01*
X1271407D01*
X1270407Y158494D01*
X1098463Y146493D02*
X1095464D01*
X1094464Y145493D01*
Y143494D01*
X1095464Y142494D01*
X1098463D01*
X1100462Y147493D02*
X1101462Y148492D01*
X1103461D01*
X1104461Y147493D01*
Y146493D01*
X1103461Y145493D01*
X1102462D01*
X1103461D01*
X1104461Y144493D01*
Y143494D01*
X1103461Y142494D01*
X1101462D01*
X1100462Y143494D01*
X1106460Y147493D02*
X1107460Y148492D01*
X1109459D01*
X1110459Y147493D01*
Y143494D01*
X1109459Y142494D01*
X1107460D01*
X1106460Y143494D01*
Y147493D01*
X1112459D02*
X1113458Y148492D01*
X1115458D01*
X1116457Y147493D01*
Y143494D01*
X1115458Y142494D01*
X1113458D01*
X1112459Y143494D01*
Y147493D01*
X1118457Y148492D02*
Y142494D01*
Y145493D01*
X1119456Y146493D01*
X1121456D01*
X1122455Y145493D01*
Y142494D01*
X1124455Y147493D02*
X1125454Y148492D01*
X1127454D01*
X1128453Y147493D01*
Y146493D01*
X1127454Y145493D01*
X1126454D01*
X1127454D01*
X1128453Y144493D01*
Y143494D01*
X1127454Y142494D01*
X1125454D01*
X1124455Y143494D01*
X1130453Y147493D02*
X1131452Y148492D01*
X1133452D01*
X1134451Y147493D01*
Y143494D01*
X1133452Y142494D01*
X1131452D01*
X1130453Y143494D01*
Y147493D01*
X1136451D02*
X1137451Y148492D01*
X1139450D01*
X1140450Y147493D01*
Y143494D01*
X1139450Y142494D01*
X1137451D01*
X1136451Y143494D01*
Y147493D01*
X1096464Y127494D02*
X1094464Y129493D01*
Y131493D01*
X1096464Y133492D01*
X1099463Y127494D02*
Y133492D01*
X1101462Y131493D01*
X1103461Y133492D01*
Y127494D01*
X1105461D02*
X1107460D01*
X1106460D01*
Y131493D01*
X1105461D01*
X1110459D02*
X1114458Y127494D01*
X1112459Y129493D01*
X1114458Y131493D01*
X1110459Y127494D01*
X1119456D02*
X1117457D01*
X1116457Y128494D01*
Y130493D01*
X1117457Y131493D01*
X1119456D01*
X1120456Y130493D01*
Y129493D01*
X1116457D01*
X1126454Y133492D02*
Y127494D01*
X1123455D01*
X1122455Y128494D01*
Y130493D01*
X1123455Y131493D01*
X1126454D01*
X1128453Y127494D02*
X1130453Y129493D01*
Y131493D01*
X1128453Y133492D01*
X1098463Y116493D02*
X1095464D01*
X1094464Y115493D01*
Y113494D01*
X1095464Y112494D01*
X1098463D01*
X1104461Y118492D02*
X1100462D01*
Y115493D01*
X1102462Y116493D01*
X1103461D01*
X1104461Y115493D01*
Y113494D01*
X1103461Y112494D01*
X1101462D01*
X1100462Y113494D01*
X1106460Y117493D02*
X1107460Y118492D01*
X1109459D01*
X1110459Y117493D01*
Y113494D01*
X1109459Y112494D01*
X1107460D01*
X1106460Y113494D01*
Y117493D01*
X1112459D02*
X1113458Y118492D01*
X1115458D01*
X1116457Y117493D01*
Y113494D01*
X1115458Y112494D01*
X1113458D01*
X1112459Y113494D01*
Y117493D01*
X1118457Y118492D02*
Y112494D01*
Y115493D01*
X1119456Y116493D01*
X1121456D01*
X1122455Y115493D01*
Y112494D01*
X1128453D02*
X1124455D01*
X1128453Y116493D01*
Y117493D01*
X1127454Y118492D01*
X1125454D01*
X1124455Y117493D01*
X1130453D02*
X1131452Y118492D01*
X1133452D01*
X1134451Y117493D01*
Y116493D01*
X1133452Y115493D01*
X1134451Y114494D01*
Y113494D01*
X1133452Y112494D01*
X1131452D01*
X1130453Y113494D01*
Y114494D01*
X1131452Y115493D01*
X1130453Y116493D01*
Y117493D01*
X1131452Y115493D02*
X1133452D01*
X1136451Y117493D02*
X1137451Y118492D01*
X1139450D01*
X1140450Y117493D01*
Y113494D01*
X1139450Y112494D01*
X1137451D01*
X1136451Y113494D01*
Y117493D01*
X1142449Y116493D02*
X1146448D01*
X1142449Y112494D01*
X1146448D01*
X1148447Y117493D02*
X1149447Y118492D01*
X1151446D01*
X1152446Y117493D01*
Y113494D01*
X1151446Y112494D01*
X1149447D01*
X1148447Y113494D01*
Y117493D01*
X1096464Y97494D02*
X1094464Y99493D01*
Y101493D01*
X1096464Y103492D01*
X1099463Y97494D02*
Y103492D01*
X1101462Y101493D01*
X1103461Y103492D01*
Y97494D01*
X1105461D02*
X1107460D01*
X1106460D01*
Y101493D01*
X1105461D01*
X1110459D02*
X1114458Y97494D01*
X1112459Y99493D01*
X1114458Y101493D01*
X1110459Y97494D01*
X1119456D02*
X1117457D01*
X1116457Y98494D01*
Y100493D01*
X1117457Y101493D01*
X1119456D01*
X1120456Y100493D01*
Y99493D01*
X1116457D01*
X1126454Y103492D02*
Y97494D01*
X1123455D01*
X1122455Y98494D01*
Y100493D01*
X1123455Y101493D01*
X1126454D01*
X1128453Y97494D02*
X1130453Y99493D01*
Y101493D01*
X1128453Y103492D01*
X1096464Y82494D02*
X1094464Y84493D01*
Y86493D01*
X1096464Y88492D01*
X1099463Y82494D02*
Y88492D01*
X1101462Y86493D01*
X1103461Y88492D01*
Y82494D01*
X1105461D02*
X1107460D01*
X1106460D01*
Y86493D01*
X1105461D01*
X1110459D02*
X1114458Y82494D01*
X1112459Y84493D01*
X1114458Y86493D01*
X1110459Y82494D01*
X1119456D02*
X1117457D01*
X1116457Y83494D01*
Y85493D01*
X1117457Y86493D01*
X1119456D01*
X1120456Y85493D01*
Y84493D01*
X1116457D01*
X1126454Y88492D02*
Y82494D01*
X1123455D01*
X1122455Y83494D01*
Y85493D01*
X1123455Y86493D01*
X1126454D01*
X1128453Y82494D02*
X1130453Y84493D01*
Y86493D01*
X1128453Y88492D01*
X1098463Y71493D02*
X1095464D01*
X1094464Y70493D01*
Y68494D01*
X1095464Y67494D01*
X1098463D01*
X1104461D02*
X1100462D01*
X1104461Y71493D01*
Y72493D01*
X1103461Y73492D01*
X1101462D01*
X1100462Y72493D01*
X1106460D02*
X1107460Y73492D01*
X1109459D01*
X1110459Y72493D01*
Y71493D01*
X1109459Y70493D01*
X1110459Y69494D01*
Y68494D01*
X1109459Y67494D01*
X1107460D01*
X1106460Y68494D01*
Y69494D01*
X1107460Y70493D01*
X1106460Y71493D01*
Y72493D01*
X1107460Y70493D02*
X1109459D01*
X1112459Y72493D02*
X1113458Y73492D01*
X1115458D01*
X1116457Y72493D01*
Y68494D01*
X1115458Y67494D01*
X1113458D01*
X1112459Y68494D01*
Y72493D01*
X1118457Y73492D02*
Y67494D01*
Y70493D01*
X1119456Y71493D01*
X1121456D01*
X1122455Y70493D01*
Y67494D01*
X1128453D02*
X1124455D01*
X1128453Y71493D01*
Y72493D01*
X1127454Y73492D01*
X1125454D01*
X1124455Y72493D01*
X1130453D02*
X1131452Y73492D01*
X1133452D01*
X1134451Y72493D01*
Y68494D01*
X1133452Y67494D01*
X1131452D01*
X1130453Y68494D01*
Y72493D01*
X1136451D02*
X1137451Y73492D01*
X1139450D01*
X1140450Y72493D01*
Y68494D01*
X1139450Y67494D01*
X1137451D01*
X1136451Y68494D01*
Y72493D01*
X1096464Y52494D02*
X1094464Y54493D01*
Y56493D01*
X1096464Y58492D01*
X1099463Y52494D02*
Y58492D01*
X1101462Y56493D01*
X1103461Y58492D01*
Y52494D01*
X1105461D02*
X1107460D01*
X1106460D01*
Y56493D01*
X1105461D01*
X1110459D02*
X1114458Y52494D01*
X1112459Y54493D01*
X1114458Y56493D01*
X1110459Y52494D01*
X1119456D02*
X1117457D01*
X1116457Y53494D01*
Y55493D01*
X1117457Y56493D01*
X1119456D01*
X1120456Y55493D01*
Y54493D01*
X1116457D01*
X1126454Y58492D02*
Y52494D01*
X1123455D01*
X1122455Y53494D01*
Y55493D01*
X1123455Y56493D01*
X1126454D01*
X1128453Y52494D02*
X1130453Y54493D01*
Y56493D01*
X1128453Y58492D01*
X1094464Y41493D02*
X1096464Y37494D01*
X1098463Y41493D01*
X1100462Y37494D02*
X1102462D01*
X1101462D01*
Y43492D01*
X1100462Y42492D01*
X1109459Y37494D02*
X1105461D01*
X1109459Y41493D01*
Y42492D01*
X1108460Y43492D01*
X1106460D01*
X1105461Y42492D01*
X1111459D02*
X1112459Y43492D01*
X1114458D01*
X1115458Y42492D01*
Y38494D01*
X1114458Y37494D01*
X1112459D01*
X1111459Y38494D01*
Y42492D01*
X1117457Y43492D02*
Y37494D01*
Y40493D01*
X1118457Y41493D01*
X1120456D01*
X1121456Y40493D01*
Y37494D01*
X1123455Y43492D02*
X1127454D01*
Y42492D01*
X1123455Y38494D01*
Y37494D01*
X1129453Y42492D02*
X1130453Y43492D01*
X1132452D01*
X1133452Y42492D01*
Y38494D01*
X1132452Y37494D01*
X1130453D01*
X1129453Y38494D01*
Y42492D01*
X1135451Y37494D02*
Y41493D01*
X1136451D01*
X1137451Y40493D01*
Y37494D01*
Y40493D01*
X1138450Y41493D01*
X1139450Y40493D01*
Y37494D01*
X1141449Y42492D02*
X1142449Y43492D01*
X1144448D01*
X1145448Y42492D01*
Y38494D01*
X1144448Y37494D01*
X1142449D01*
X1141449Y38494D01*
Y42492D01*
X1147447Y37494D02*
Y41493D01*
X1148447D01*
X1149447Y40493D01*
Y37494D01*
Y40493D01*
X1150446Y41493D01*
X1151446Y40493D01*
Y37494D01*
X1153445Y41493D02*
X1157444Y37494D01*
X1155445Y39494D01*
X1157444Y41493D01*
X1153445Y37494D01*
X1159443Y42492D02*
X1160443Y43492D01*
X1162442D01*
X1163442Y42492D01*
Y38494D01*
X1162442Y37494D01*
X1160443D01*
X1159443Y38494D01*
Y42492D01*
X1094464Y26493D02*
X1096464Y22494D01*
X1098463Y26493D01*
X1104461Y28492D02*
X1100462D01*
Y25493D01*
X1102462Y26493D01*
X1103461D01*
X1104461Y25493D01*
Y23494D01*
X1103461Y22494D01*
X1101462D01*
X1100462Y23494D01*
X1106460Y27492D02*
X1107460Y28492D01*
X1109459D01*
X1110459Y27492D01*
Y23494D01*
X1109459Y22494D01*
X1107460D01*
X1106460Y23494D01*
Y27492D01*
X1112459Y28492D02*
Y22494D01*
Y25493D01*
X1113458Y26493D01*
X1115458D01*
X1116457Y25493D01*
Y22494D01*
X1118457Y27492D02*
X1119456Y28492D01*
X1121456D01*
X1122455Y27492D01*
Y26493D01*
X1121456Y25493D01*
X1120456D01*
X1121456D01*
X1122455Y24494D01*
Y23494D01*
X1121456Y22494D01*
X1119456D01*
X1118457Y23494D01*
X1124455Y27492D02*
X1125454Y28492D01*
X1127454D01*
X1128453Y27492D01*
Y23494D01*
X1127454Y22494D01*
X1125454D01*
X1124455Y23494D01*
Y27492D01*
X1130453Y22494D02*
Y26493D01*
X1131452D01*
X1132452Y25493D01*
Y22494D01*
Y25493D01*
X1133452Y26493D01*
X1134451Y25493D01*
Y22494D01*
X1136451Y27492D02*
X1137451Y28492D01*
X1139450D01*
X1140450Y27492D01*
Y23494D01*
X1139450Y22494D01*
X1137451D01*
X1136451Y23494D01*
Y27492D01*
X1142449Y22494D02*
Y26493D01*
X1143449D01*
X1144448Y25493D01*
Y22494D01*
Y25493D01*
X1145448Y26493D01*
X1146448Y25493D01*
Y22494D01*
X1148447Y26493D02*
X1152446Y22494D01*
X1150446Y24494D01*
X1152446Y26493D01*
X1148447Y22494D01*
X1154445Y27492D02*
X1155445Y28492D01*
X1157444D01*
X1158444Y27492D01*
Y23494D01*
X1157444Y22494D01*
X1155445D01*
X1154445Y23494D01*
Y27492D01*
X985496Y172494D02*
Y178492D01*
X988495D01*
X989495Y177493D01*
Y175493D01*
X988495Y174494D01*
X985496D01*
X987495D02*
X989495Y172494D01*
X992494D02*
X994493D01*
X995493Y173494D01*
Y175493D01*
X994493Y176493D01*
X992494D01*
X991494Y175493D01*
Y173494D01*
X992494Y172494D01*
X997492Y176493D02*
Y173494D01*
X998492Y172494D01*
X1001491D01*
Y176493D01*
X1003490Y172494D02*
Y176493D01*
X1006489D01*
X1007489Y175493D01*
Y172494D01*
X1013487Y178492D02*
Y172494D01*
X1010488D01*
X1009488Y173494D01*
Y175493D01*
X1010488Y176493D01*
X1013487D01*
X1018485Y172494D02*
X1016486D01*
X1015486Y173494D01*
Y175493D01*
X1016486Y176493D01*
X1018485D01*
X1019485Y175493D01*
Y174494D01*
X1015486D01*
X1025483Y178492D02*
Y172494D01*
X1022484D01*
X1021484Y173494D01*
Y175493D01*
X1022484Y176493D01*
X1025483D01*
X985496Y157494D02*
Y163492D01*
X988495D01*
X989495Y162493D01*
Y160493D01*
X988495Y159494D01*
X985496D01*
X987495D02*
X989495Y157494D01*
X992494D02*
X994493D01*
X995493Y158494D01*
Y160493D01*
X994493Y161493D01*
X992494D01*
X991494Y160493D01*
Y158494D01*
X992494Y157494D01*
X997492Y161493D02*
Y158494D01*
X998492Y157494D01*
X1001491D01*
Y161493D01*
X1003490Y157494D02*
Y161493D01*
X1006489D01*
X1007489Y160493D01*
Y157494D01*
X1013487Y163492D02*
Y157494D01*
X1010488D01*
X1009488Y158494D01*
Y160493D01*
X1010488Y161493D01*
X1013487D01*
X1018485Y157494D02*
X1016486D01*
X1015486Y158494D01*
Y160493D01*
X1016486Y161493D01*
X1018485D01*
X1019485Y160493D01*
Y159494D01*
X1015486D01*
X1025483Y163492D02*
Y157494D01*
X1022484D01*
X1021484Y158494D01*
Y160493D01*
X1022484Y161493D01*
X1025483D01*
X1033481Y157494D02*
Y163492D01*
X1036480D01*
X1037479Y162493D01*
Y160493D01*
X1036480Y159494D01*
X1033481D01*
X1035480D02*
X1037479Y157494D01*
X1042478D02*
X1040478D01*
X1039479Y158494D01*
Y160493D01*
X1040478Y161493D01*
X1042478D01*
X1043477Y160493D01*
Y159494D01*
X1039479D01*
X1049475Y161493D02*
X1046476D01*
X1045477Y160493D01*
Y158494D01*
X1046476Y157494D01*
X1049475D01*
X1052474Y162493D02*
Y161493D01*
X1051475D01*
X1053474D01*
X1052474D01*
Y158494D01*
X1053474Y157494D01*
X1057473Y161493D02*
X1059472D01*
X1060472Y160493D01*
Y157494D01*
X1057473D01*
X1056473Y158494D01*
X1057473Y159494D01*
X1060472D01*
X1062471Y157494D02*
Y161493D01*
X1065470D01*
X1066470Y160493D01*
Y157494D01*
X1070469Y155495D02*
X1071468D01*
X1072468Y156494D01*
Y161493D01*
X1069469D01*
X1068469Y160493D01*
Y158494D01*
X1069469Y157494D01*
X1072468D01*
X1074467D02*
X1076467D01*
X1075467D01*
Y163492D01*
X1074467D01*
X1082465Y157494D02*
X1080465D01*
X1079466Y158494D01*
Y160493D01*
X1080465Y161493D01*
X1082465D01*
X1083464Y160493D01*
Y159494D01*
X1079466D01*
X985496Y142494D02*
Y148492D01*
X988495D01*
X989495Y147493D01*
Y145493D01*
X988495Y144493D01*
X985496D01*
X987495D02*
X989495Y142494D01*
X992494D02*
X994493D01*
X995493Y143494D01*
Y145493D01*
X994493Y146493D01*
X992494D01*
X991494Y145493D01*
Y143494D01*
X992494Y142494D01*
X997492Y146493D02*
Y143494D01*
X998492Y142494D01*
X1001491D01*
Y146493D01*
X1003490Y142494D02*
Y146493D01*
X1006489D01*
X1007489Y145493D01*
Y142494D01*
X1013487Y148492D02*
Y142494D01*
X1010488D01*
X1009488Y143494D01*
Y145493D01*
X1010488Y146493D01*
X1013487D01*
X1018485Y142494D02*
X1016486D01*
X1015486Y143494D01*
Y145493D01*
X1016486Y146493D01*
X1018485D01*
X1019485Y145493D01*
Y144493D01*
X1015486D01*
X1025483Y148492D02*
Y142494D01*
X1022484D01*
X1021484Y143494D01*
Y145493D01*
X1022484Y146493D01*
X1025483D01*
X987495Y127494D02*
X985496Y129493D01*
Y131493D01*
X987495Y133492D01*
X990495Y127494D02*
Y133492D01*
X992494Y131493D01*
X994493Y133492D01*
Y127494D01*
X996492D02*
X998492D01*
X997492D01*
Y131493D01*
X996492D01*
X1001491D02*
X1005490Y127494D01*
X1003490Y129493D01*
X1005490Y131493D01*
X1001491Y127494D01*
X1010488D02*
X1008489D01*
X1007489Y128494D01*
Y130493D01*
X1008489Y131493D01*
X1010488D01*
X1011488Y130493D01*
Y129493D01*
X1007489D01*
X1017486Y133492D02*
Y127494D01*
X1014487D01*
X1013487Y128494D01*
Y130493D01*
X1014487Y131493D01*
X1017486D01*
X1019485Y127494D02*
X1021484Y129493D01*
Y131493D01*
X1019485Y133492D01*
X985496Y112494D02*
Y118492D01*
X988495D01*
X989495Y117493D01*
Y115493D01*
X988495Y114494D01*
X985496D01*
X987495D02*
X989495Y112494D01*
X992494D02*
X994493D01*
X995493Y113494D01*
Y115493D01*
X994493Y116493D01*
X992494D01*
X991494Y115493D01*
Y113494D01*
X992494Y112494D01*
X997492Y116493D02*
Y113494D01*
X998492Y112494D01*
X1001491D01*
Y116493D01*
X1003490Y112494D02*
Y116493D01*
X1006489D01*
X1007489Y115493D01*
Y112494D01*
X1013487Y118492D02*
Y112494D01*
X1010488D01*
X1009488Y113494D01*
Y115493D01*
X1010488Y116493D01*
X1013487D01*
X1018485Y112494D02*
X1016486D01*
X1015486Y113494D01*
Y115493D01*
X1016486Y116493D01*
X1018485D01*
X1019485Y115493D01*
Y114494D01*
X1015486D01*
X1025483Y118492D02*
Y112494D01*
X1022484D01*
X1021484Y113494D01*
Y115493D01*
X1022484Y116493D01*
X1025483D01*
X985496Y97494D02*
Y103492D01*
X988495D01*
X989495Y102493D01*
Y100493D01*
X988495Y99493D01*
X985496D01*
X987495D02*
X989495Y97494D01*
X992494D02*
X994493D01*
X995493Y98494D01*
Y100493D01*
X994493Y101493D01*
X992494D01*
X991494Y100493D01*
Y98494D01*
X992494Y97494D01*
X997492Y101493D02*
Y98494D01*
X998492Y97494D01*
X1001491D01*
Y101493D01*
X1003490Y97494D02*
Y101493D01*
X1006489D01*
X1007489Y100493D01*
Y97494D01*
X1013487Y103492D02*
Y97494D01*
X1010488D01*
X1009488Y98494D01*
Y100493D01*
X1010488Y101493D01*
X1013487D01*
X1018485Y97494D02*
X1016486D01*
X1015486Y98494D01*
Y100493D01*
X1016486Y101493D01*
X1018485D01*
X1019485Y100493D01*
Y99493D01*
X1015486D01*
X1025483Y103492D02*
Y97494D01*
X1022484D01*
X1021484Y98494D01*
Y100493D01*
X1022484Y101493D01*
X1025483D01*
X985496Y82494D02*
Y88492D01*
X988495D01*
X989495Y87493D01*
Y85493D01*
X988495Y84493D01*
X985496D01*
X987495D02*
X989495Y82494D01*
X992494D02*
X994493D01*
X995493Y83494D01*
Y85493D01*
X994493Y86493D01*
X992494D01*
X991494Y85493D01*
Y83494D01*
X992494Y82494D01*
X997492Y86493D02*
Y83494D01*
X998492Y82494D01*
X1001491D01*
Y86493D01*
X1003490Y82494D02*
Y86493D01*
X1006489D01*
X1007489Y85493D01*
Y82494D01*
X1013487Y88492D02*
Y82494D01*
X1010488D01*
X1009488Y83494D01*
Y85493D01*
X1010488Y86493D01*
X1013487D01*
X1018485Y82494D02*
X1016486D01*
X1015486Y83494D01*
Y85493D01*
X1016486Y86493D01*
X1018485D01*
X1019485Y85493D01*
Y84493D01*
X1015486D01*
X1025483Y88492D02*
Y82494D01*
X1022484D01*
X1021484Y83494D01*
Y85493D01*
X1022484Y86493D01*
X1025483D01*
X985496Y67494D02*
Y73492D01*
X988495D01*
X989495Y72493D01*
Y70493D01*
X988495Y69494D01*
X985496D01*
X987495D02*
X989495Y67494D01*
X992494D02*
X994493D01*
X995493Y68494D01*
Y70493D01*
X994493Y71493D01*
X992494D01*
X991494Y70493D01*
Y68494D01*
X992494Y67494D01*
X997492Y71493D02*
Y68494D01*
X998492Y67494D01*
X1001491D01*
Y71493D01*
X1003490Y67494D02*
Y71493D01*
X1006489D01*
X1007489Y70493D01*
Y67494D01*
X1013487Y73492D02*
Y67494D01*
X1010488D01*
X1009488Y68494D01*
Y70493D01*
X1010488Y71493D01*
X1013487D01*
X1018485Y67494D02*
X1016486D01*
X1015486Y68494D01*
Y70493D01*
X1016486Y71493D01*
X1018485D01*
X1019485Y70493D01*
Y69494D01*
X1015486D01*
X1025483Y73492D02*
Y67494D01*
X1022484D01*
X1021484Y68494D01*
Y70493D01*
X1022484Y71493D01*
X1025483D01*
X987495Y52494D02*
X985496Y54493D01*
Y56493D01*
X987495Y58492D01*
X990495Y52494D02*
Y58492D01*
X992494Y56493D01*
X994493Y58492D01*
Y52494D01*
X996492D02*
X998492D01*
X997492D01*
Y56493D01*
X996492D01*
X1001491D02*
X1005490Y52494D01*
X1003490Y54493D01*
X1005490Y56493D01*
X1001491Y52494D01*
X1010488D02*
X1008489D01*
X1007489Y53494D01*
Y55493D01*
X1008489Y56493D01*
X1010488D01*
X1011488Y55493D01*
Y54493D01*
X1007489D01*
X1017486Y58492D02*
Y52494D01*
X1014487D01*
X1013487Y53494D01*
Y55493D01*
X1014487Y56493D01*
X1017486D01*
X1019485Y52494D02*
X1021484Y54493D01*
Y56493D01*
X1019485Y58492D01*
X985496Y37494D02*
Y43492D01*
X988495D01*
X989495Y42492D01*
Y40493D01*
X988495Y39494D01*
X985496D01*
X987495D02*
X989495Y37494D01*
X992494D02*
X994493D01*
X995493Y38494D01*
Y40493D01*
X994493Y41493D01*
X992494D01*
X991494Y40493D01*
Y38494D01*
X992494Y37494D01*
X997492Y41493D02*
Y38494D01*
X998492Y37494D01*
X1001491D01*
Y41493D01*
X1003490Y37494D02*
Y41493D01*
X1006489D01*
X1007489Y40493D01*
Y37494D01*
X1013487Y43492D02*
Y37494D01*
X1010488D01*
X1009488Y38494D01*
Y40493D01*
X1010488Y41493D01*
X1013487D01*
X1018485Y37494D02*
X1016486D01*
X1015486Y38494D01*
Y40493D01*
X1016486Y41493D01*
X1018485D01*
X1019485Y40493D01*
Y39494D01*
X1015486D01*
X1025483Y43492D02*
Y37494D01*
X1022484D01*
X1021484Y38494D01*
Y40493D01*
X1022484Y41493D01*
X1025483D01*
X985496Y22494D02*
Y28492D01*
X988495D01*
X989495Y27492D01*
Y25493D01*
X988495Y24494D01*
X985496D01*
X987495D02*
X989495Y22494D01*
X992494D02*
X994493D01*
X995493Y23494D01*
Y25493D01*
X994493Y26493D01*
X992494D01*
X991494Y25493D01*
Y23494D01*
X992494Y22494D01*
X997492Y26493D02*
Y23494D01*
X998492Y22494D01*
X1001491D01*
Y26493D01*
X1003490Y22494D02*
Y26493D01*
X1006489D01*
X1007489Y25493D01*
Y22494D01*
X1013487Y28492D02*
Y22494D01*
X1010488D01*
X1009488Y23494D01*
Y25493D01*
X1010488Y26493D01*
X1013487D01*
X1018485Y22494D02*
X1016486D01*
X1015486Y23494D01*
Y25493D01*
X1016486Y26493D01*
X1018485D01*
X1019485Y25493D01*
Y24494D01*
X1015486D01*
X1025483Y28492D02*
Y22494D01*
X1022484D01*
X1021484Y23494D01*
Y25493D01*
X1022484Y26493D01*
X1025483D01*
X926511Y172494D02*
Y178492D01*
X929510D01*
X930510Y177493D01*
Y175493D01*
X929510Y174494D01*
X926511D01*
X933509Y176493D02*
X935508D01*
X936508Y175493D01*
Y172494D01*
X933509D01*
X932509Y173494D01*
X933509Y174494D01*
X936508D01*
X942506Y178492D02*
Y172494D01*
X939507D01*
X938507Y173494D01*
Y175493D01*
X939507Y176493D01*
X942506D01*
X926511Y157494D02*
Y163492D01*
X929510D01*
X930510Y162493D01*
Y160493D01*
X929510Y159494D01*
X926511D01*
X933509Y161493D02*
X935508D01*
X936508Y160493D01*
Y157494D01*
X933509D01*
X932509Y158494D01*
X933509Y159494D01*
X936508D01*
X942506Y163492D02*
Y157494D01*
X939507D01*
X938507Y158494D01*
Y160493D01*
X939507Y161493D01*
X942506D01*
X926511Y142494D02*
Y148492D01*
X929510D01*
X930510Y147493D01*
Y145493D01*
X929510Y144493D01*
X926511D01*
X933509Y146493D02*
X935508D01*
X936508Y145493D01*
Y142494D01*
X933509D01*
X932509Y143494D01*
X933509Y144493D01*
X936508D01*
X942506Y148492D02*
Y142494D01*
X939507D01*
X938507Y143494D01*
Y145493D01*
X939507Y146493D01*
X942506D01*
X926511Y127494D02*
Y133492D01*
X929510D01*
X930510Y132493D01*
Y130493D01*
X929510Y129493D01*
X926511D01*
X933509Y131493D02*
X935508D01*
X936508Y130493D01*
Y127494D01*
X933509D01*
X932509Y128494D01*
X933509Y129493D01*
X936508D01*
X942506Y133492D02*
Y127494D01*
X939507D01*
X938507Y128494D01*
Y130493D01*
X939507Y131493D01*
X942506D01*
X926511Y112494D02*
Y118492D01*
X929510D01*
X930510Y117493D01*
Y115493D01*
X929510Y114494D01*
X926511D01*
X933509Y116493D02*
X935508D01*
X936508Y115493D01*
Y112494D01*
X933509D01*
X932509Y113494D01*
X933509Y114494D01*
X936508D01*
X942506Y118492D02*
Y112494D01*
X939507D01*
X938507Y113494D01*
Y115493D01*
X939507Y116493D01*
X942506D01*
X926511Y97494D02*
Y103492D01*
X929510D01*
X930510Y102493D01*
Y100493D01*
X929510Y99493D01*
X926511D01*
X933509Y101493D02*
X935508D01*
X936508Y100493D01*
Y97494D01*
X933509D01*
X932509Y98494D01*
X933509Y99493D01*
X936508D01*
X942506Y103492D02*
Y97494D01*
X939507D01*
X938507Y98494D01*
Y100493D01*
X939507Y101493D01*
X942506D01*
X926511Y82494D02*
Y88492D01*
X929510D01*
X930510Y87493D01*
Y85493D01*
X929510Y84493D01*
X926511D01*
X933509Y86493D02*
X935508D01*
X936508Y85493D01*
Y82494D01*
X933509D01*
X932509Y83494D01*
X933509Y84493D01*
X936508D01*
X942506Y88492D02*
Y82494D01*
X939507D01*
X938507Y83494D01*
Y85493D01*
X939507Y86493D01*
X942506D01*
X926511Y67494D02*
Y73492D01*
X929510D01*
X930510Y72493D01*
Y70493D01*
X929510Y69494D01*
X926511D01*
X933509Y71493D02*
X935508D01*
X936508Y70493D01*
Y67494D01*
X933509D01*
X932509Y68494D01*
X933509Y69494D01*
X936508D01*
X942506Y73492D02*
Y67494D01*
X939507D01*
X938507Y68494D01*
Y70493D01*
X939507Y71493D01*
X942506D01*
X926511Y52494D02*
Y58492D01*
X929510D01*
X930510Y57493D01*
Y55493D01*
X929510Y54493D01*
X926511D01*
X933509Y56493D02*
X935508D01*
X936508Y55493D01*
Y52494D01*
X933509D01*
X932509Y53494D01*
X933509Y54493D01*
X936508D01*
X942506Y58492D02*
Y52494D01*
X939507D01*
X938507Y53494D01*
Y55493D01*
X939507Y56493D01*
X942506D01*
X926511Y43492D02*
Y39494D01*
X928511Y37494D01*
X930510Y39494D01*
Y43492D01*
X932509Y37494D02*
X934509D01*
X933509D01*
Y41493D01*
X932509D01*
X938507D02*
X940507D01*
X941506Y40493D01*
Y37494D01*
X938507D01*
X937508Y38494D01*
X938507Y39494D01*
X941506D01*
X926511Y28492D02*
Y24494D01*
X928511Y22494D01*
X930510Y24494D01*
Y28492D01*
X932509Y22494D02*
X934509D01*
X933509D01*
Y26493D01*
X932509D01*
X938507D02*
X940507D01*
X941506Y25493D01*
Y22494D01*
X938507D01*
X937508Y23494D01*
X938507Y24494D01*
X941506D01*
X776556Y178492D02*
X780555D01*
X778555D01*
Y172494D01*
X783554D02*
X785553D01*
X786553Y173494D01*
Y175493D01*
X785553Y176493D01*
X783554D01*
X782554Y175493D01*
Y173494D01*
X783554Y172494D01*
X788552Y170495D02*
Y176493D01*
X791551D01*
X792551Y175493D01*
Y173494D01*
X791551Y172494D01*
X788552D01*
X800548Y178492D02*
Y172494D01*
X804547D01*
X807546Y176493D02*
X809546D01*
X810545Y175493D01*
Y172494D01*
X807546D01*
X806546Y173494D01*
X807546Y174494D01*
X810545D01*
X812545Y176493D02*
Y173494D01*
X813544Y172494D01*
X816543D01*
Y171494D01*
X815544Y170495D01*
X814544D01*
X816543Y172494D02*
Y176493D01*
X821542Y172494D02*
X819542D01*
X818543Y173494D01*
Y175493D01*
X819542Y176493D01*
X821542D01*
X822541Y175493D01*
Y174494D01*
X818543D01*
X824541Y176493D02*
Y172494D01*
Y174494D01*
X825540Y175493D01*
X826540Y176493D01*
X827540D01*
X836537Y175493D02*
X840536D01*
X848533Y178492D02*
Y172494D01*
X851532D01*
X852532Y173494D01*
Y174494D01*
X851532Y175493D01*
X848533D01*
X851532D01*
X852532Y176493D01*
Y177493D01*
X851532Y178492D01*
X848533D01*
X855531Y172494D02*
X857530D01*
X858530Y173494D01*
Y175493D01*
X857530Y176493D01*
X855531D01*
X854531Y175493D01*
Y173494D01*
X855531Y172494D01*
X861529Y177493D02*
Y176493D01*
X860529D01*
X862528D01*
X861529D01*
Y173494D01*
X862528Y172494D01*
X866527Y177493D02*
Y176493D01*
X865527D01*
X867527D01*
X866527D01*
Y173494D01*
X867527Y172494D01*
X871525D02*
X873525D01*
X874524Y173494D01*
Y175493D01*
X873525Y176493D01*
X871525D01*
X870526Y175493D01*
Y173494D01*
X871525Y172494D01*
X876524D02*
Y176493D01*
X877524D01*
X878523Y175493D01*
Y172494D01*
Y175493D01*
X879523Y176493D01*
X880523Y175493D01*
Y172494D01*
X888520Y178492D02*
Y172494D01*
X892519D01*
X895518Y176493D02*
X897517D01*
X898517Y175493D01*
Y172494D01*
X895518D01*
X894518Y173494D01*
X895518Y174494D01*
X898517D01*
X900516Y176493D02*
Y173494D01*
X901516Y172494D01*
X904515D01*
Y171494D01*
X903515Y170495D01*
X902515D01*
X904515Y172494D02*
Y176493D01*
X909513Y172494D02*
X907514D01*
X906514Y173494D01*
Y175493D01*
X907514Y176493D01*
X909513D01*
X910513Y175493D01*
Y174494D01*
X906514D01*
X912512Y176493D02*
Y172494D01*
Y174494D01*
X913512Y175493D01*
X914511Y176493D01*
X915511D01*
X776556Y163492D02*
X780555D01*
X778555D01*
Y157494D01*
X783554D02*
X785553D01*
X786553Y158494D01*
Y160493D01*
X785553Y161493D01*
X783554D01*
X782554Y160493D01*
Y158494D01*
X783554Y157494D01*
X788552Y155495D02*
Y161493D01*
X791551D01*
X792551Y160493D01*
Y158494D01*
X791551Y157494D01*
X788552D01*
X800548Y163492D02*
Y157494D01*
X804547D01*
X807546Y161493D02*
X809546D01*
X810545Y160493D01*
Y157494D01*
X807546D01*
X806546Y158494D01*
X807546Y159494D01*
X810545D01*
X812545Y161493D02*
Y158494D01*
X813544Y157494D01*
X816543D01*
Y156494D01*
X815544Y155495D01*
X814544D01*
X816543Y157494D02*
Y161493D01*
X821542Y157494D02*
X819542D01*
X818543Y158494D01*
Y160493D01*
X819542Y161493D01*
X821542D01*
X822541Y160493D01*
Y159494D01*
X818543D01*
X824541Y161493D02*
Y157494D01*
Y159494D01*
X825540Y160493D01*
X826540Y161493D01*
X827540D01*
X836537Y160493D02*
X840536D01*
X848533Y163492D02*
Y157494D01*
X851532D01*
X852532Y158494D01*
Y159494D01*
X851532Y160493D01*
X848533D01*
X851532D01*
X852532Y161493D01*
Y162493D01*
X851532Y163492D01*
X848533D01*
X855531Y157494D02*
X857530D01*
X858530Y158494D01*
Y160493D01*
X857530Y161493D01*
X855531D01*
X854531Y160493D01*
Y158494D01*
X855531Y157494D01*
X861529Y162493D02*
Y161493D01*
X860529D01*
X862528D01*
X861529D01*
Y158494D01*
X862528Y157494D01*
X866527Y162493D02*
Y161493D01*
X865527D01*
X867527D01*
X866527D01*
Y158494D01*
X867527Y157494D01*
X871525D02*
X873525D01*
X874524Y158494D01*
Y160493D01*
X873525Y161493D01*
X871525D01*
X870526Y160493D01*
Y158494D01*
X871525Y157494D01*
X876524D02*
Y161493D01*
X877524D01*
X878523Y160493D01*
Y157494D01*
Y160493D01*
X879523Y161493D01*
X880523Y160493D01*
Y157494D01*
X888520Y163492D02*
Y157494D01*
X892519D01*
X895518Y161493D02*
X897517D01*
X898517Y160493D01*
Y157494D01*
X895518D01*
X894518Y158494D01*
X895518Y159494D01*
X898517D01*
X900516Y161493D02*
Y158494D01*
X901516Y157494D01*
X904515D01*
Y156494D01*
X903515Y155495D01*
X902515D01*
X904515Y157494D02*
Y161493D01*
X909513Y157494D02*
X907514D01*
X906514Y158494D01*
Y160493D01*
X907514Y161493D01*
X909513D01*
X910513Y160493D01*
Y159494D01*
X906514D01*
X912512Y161493D02*
Y157494D01*
Y159494D01*
X913512Y160493D01*
X914511Y161493D01*
X915511D01*
X776556Y148492D02*
X780555D01*
X778555D01*
Y142494D01*
X783554D02*
X785553D01*
X786553Y143494D01*
Y145493D01*
X785553Y146493D01*
X783554D01*
X782554Y145493D01*
Y143494D01*
X783554Y142494D01*
X788552Y140495D02*
Y146493D01*
X791551D01*
X792551Y145493D01*
Y143494D01*
X791551Y142494D01*
X788552D01*
X800548Y148492D02*
Y142494D01*
X804547D01*
X807546Y146493D02*
X809546D01*
X810545Y145493D01*
Y142494D01*
X807546D01*
X806546Y143494D01*
X807546Y144493D01*
X810545D01*
X812545Y146493D02*
Y143494D01*
X813544Y142494D01*
X816543D01*
Y141495D01*
X815544Y140495D01*
X814544D01*
X816543Y142494D02*
Y146493D01*
X821542Y142494D02*
X819542D01*
X818543Y143494D01*
Y145493D01*
X819542Y146493D01*
X821542D01*
X822541Y145493D01*
Y144493D01*
X818543D01*
X824541Y146493D02*
Y142494D01*
Y144493D01*
X825540Y145493D01*
X826540Y146493D01*
X827540D01*
X836537Y145493D02*
X840536D01*
X848533Y148492D02*
Y142494D01*
X851532D01*
X852532Y143494D01*
Y144493D01*
X851532Y145493D01*
X848533D01*
X851532D01*
X852532Y146493D01*
Y147493D01*
X851532Y148492D01*
X848533D01*
X855531Y142494D02*
X857530D01*
X858530Y143494D01*
Y145493D01*
X857530Y146493D01*
X855531D01*
X854531Y145493D01*
Y143494D01*
X855531Y142494D01*
X861529Y147493D02*
Y146493D01*
X860529D01*
X862528D01*
X861529D01*
Y143494D01*
X862528Y142494D01*
X866527Y147493D02*
Y146493D01*
X865527D01*
X867527D01*
X866527D01*
Y143494D01*
X867527Y142494D01*
X871525D02*
X873525D01*
X874524Y143494D01*
Y145493D01*
X873525Y146493D01*
X871525D01*
X870526Y145493D01*
Y143494D01*
X871525Y142494D01*
X876524D02*
Y146493D01*
X877524D01*
X878523Y145493D01*
Y142494D01*
Y145493D01*
X879523Y146493D01*
X880523Y145493D01*
Y142494D01*
X888520Y148492D02*
Y142494D01*
X892519D01*
X895518Y146493D02*
X897517D01*
X898517Y145493D01*
Y142494D01*
X895518D01*
X894518Y143494D01*
X895518Y144493D01*
X898517D01*
X900516Y146493D02*
Y143494D01*
X901516Y142494D01*
X904515D01*
Y141495D01*
X903515Y140495D01*
X902515D01*
X904515Y142494D02*
Y146493D01*
X909513Y142494D02*
X907514D01*
X906514Y143494D01*
Y145493D01*
X907514Y146493D01*
X909513D01*
X910513Y145493D01*
Y144493D01*
X906514D01*
X912512Y146493D02*
Y142494D01*
Y144493D01*
X913512Y145493D01*
X914511Y146493D01*
X915511D01*
X776556Y133492D02*
X780555D01*
X778555D01*
Y127494D01*
X783554D02*
X785553D01*
X786553Y128494D01*
Y130493D01*
X785553Y131493D01*
X783554D01*
X782554Y130493D01*
Y128494D01*
X783554Y127494D01*
X788552Y125495D02*
Y131493D01*
X791551D01*
X792551Y130493D01*
Y128494D01*
X791551Y127494D01*
X788552D01*
X800548Y133492D02*
Y127494D01*
X804547D01*
X807546Y131493D02*
X809546D01*
X810545Y130493D01*
Y127494D01*
X807546D01*
X806546Y128494D01*
X807546Y129493D01*
X810545D01*
X812545Y131493D02*
Y128494D01*
X813544Y127494D01*
X816543D01*
Y126495D01*
X815544Y125495D01*
X814544D01*
X816543Y127494D02*
Y131493D01*
X821542Y127494D02*
X819542D01*
X818543Y128494D01*
Y130493D01*
X819542Y131493D01*
X821542D01*
X822541Y130493D01*
Y129493D01*
X818543D01*
X824541Y131493D02*
Y127494D01*
Y129493D01*
X825540Y130493D01*
X826540Y131493D01*
X827540D01*
X836537Y130493D02*
X840536D01*
X848533Y133492D02*
Y127494D01*
X851532D01*
X852532Y128494D01*
Y129493D01*
X851532Y130493D01*
X848533D01*
X851532D01*
X852532Y131493D01*
Y132493D01*
X851532Y133492D01*
X848533D01*
X855531Y127494D02*
X857530D01*
X858530Y128494D01*
Y130493D01*
X857530Y131493D01*
X855531D01*
X854531Y130493D01*
Y128494D01*
X855531Y127494D01*
X861529Y132493D02*
Y131493D01*
X860529D01*
X862528D01*
X861529D01*
Y128494D01*
X862528Y127494D01*
X866527Y132493D02*
Y131493D01*
X865527D01*
X867527D01*
X866527D01*
Y128494D01*
X867527Y127494D01*
X871525D02*
X873525D01*
X874524Y128494D01*
Y130493D01*
X873525Y131493D01*
X871525D01*
X870526Y130493D01*
Y128494D01*
X871525Y127494D01*
X876524D02*
Y131493D01*
X877524D01*
X878523Y130493D01*
Y127494D01*
Y130493D01*
X879523Y131493D01*
X880523Y130493D01*
Y127494D01*
X888520Y133492D02*
Y127494D01*
X892519D01*
X895518Y131493D02*
X897517D01*
X898517Y130493D01*
Y127494D01*
X895518D01*
X894518Y128494D01*
X895518Y129493D01*
X898517D01*
X900516Y131493D02*
Y128494D01*
X901516Y127494D01*
X904515D01*
Y126495D01*
X903515Y125495D01*
X902515D01*
X904515Y127494D02*
Y131493D01*
X909513Y127494D02*
X907514D01*
X906514Y128494D01*
Y130493D01*
X907514Y131493D01*
X909513D01*
X910513Y130493D01*
Y129493D01*
X906514D01*
X912512Y131493D02*
Y127494D01*
Y129493D01*
X913512Y130493D01*
X914511Y131493D01*
X915511D01*
X776556Y118492D02*
X780555D01*
X778555D01*
Y112494D01*
X783554D02*
X785553D01*
X786553Y113494D01*
Y115493D01*
X785553Y116493D01*
X783554D01*
X782554Y115493D01*
Y113494D01*
X783554Y112494D01*
X788552Y110495D02*
Y116493D01*
X791551D01*
X792551Y115493D01*
Y113494D01*
X791551Y112494D01*
X788552D01*
X800548Y118492D02*
Y112494D01*
X804547D01*
X807546Y116493D02*
X809546D01*
X810545Y115493D01*
Y112494D01*
X807546D01*
X806546Y113494D01*
X807546Y114494D01*
X810545D01*
X812545Y116493D02*
Y113494D01*
X813544Y112494D01*
X816543D01*
Y111495D01*
X815544Y110495D01*
X814544D01*
X816543Y112494D02*
Y116493D01*
X821542Y112494D02*
X819542D01*
X818543Y113494D01*
Y115493D01*
X819542Y116493D01*
X821542D01*
X822541Y115493D01*
Y114494D01*
X818543D01*
X824541Y116493D02*
Y112494D01*
Y114494D01*
X825540Y115493D01*
X826540Y116493D01*
X827540D01*
X836537Y115493D02*
X840536D01*
X848533Y118492D02*
Y112494D01*
X851532D01*
X852532Y113494D01*
Y114494D01*
X851532Y115493D01*
X848533D01*
X851532D01*
X852532Y116493D01*
Y117493D01*
X851532Y118492D01*
X848533D01*
X855531Y112494D02*
X857530D01*
X858530Y113494D01*
Y115493D01*
X857530Y116493D01*
X855531D01*
X854531Y115493D01*
Y113494D01*
X855531Y112494D01*
X861529Y117493D02*
Y116493D01*
X860529D01*
X862528D01*
X861529D01*
Y113494D01*
X862528Y112494D01*
X866527Y117493D02*
Y116493D01*
X865527D01*
X867527D01*
X866527D01*
Y113494D01*
X867527Y112494D01*
X871525D02*
X873525D01*
X874524Y113494D01*
Y115493D01*
X873525Y116493D01*
X871525D01*
X870526Y115493D01*
Y113494D01*
X871525Y112494D01*
X876524D02*
Y116493D01*
X877524D01*
X878523Y115493D01*
Y112494D01*
Y115493D01*
X879523Y116493D01*
X880523Y115493D01*
Y112494D01*
X888520Y118492D02*
Y112494D01*
X892519D01*
X895518Y116493D02*
X897517D01*
X898517Y115493D01*
Y112494D01*
X895518D01*
X894518Y113494D01*
X895518Y114494D01*
X898517D01*
X900516Y116493D02*
Y113494D01*
X901516Y112494D01*
X904515D01*
Y111495D01*
X903515Y110495D01*
X902515D01*
X904515Y112494D02*
Y116493D01*
X909513Y112494D02*
X907514D01*
X906514Y113494D01*
Y115493D01*
X907514Y116493D01*
X909513D01*
X910513Y115493D01*
Y114494D01*
X906514D01*
X912512Y116493D02*
Y112494D01*
Y114494D01*
X913512Y115493D01*
X914511Y116493D01*
X915511D01*
X776556Y103492D02*
X780555D01*
X778555D01*
Y97494D01*
X783554D02*
X785553D01*
X786553Y98494D01*
Y100493D01*
X785553Y101493D01*
X783554D01*
X782554Y100493D01*
Y98494D01*
X783554Y97494D01*
X788552Y95495D02*
Y101493D01*
X791551D01*
X792551Y100493D01*
Y98494D01*
X791551Y97494D01*
X788552D01*
X800548Y103492D02*
Y97494D01*
X804547D01*
X807546Y101493D02*
X809546D01*
X810545Y100493D01*
Y97494D01*
X807546D01*
X806546Y98494D01*
X807546Y99493D01*
X810545D01*
X812545Y101493D02*
Y98494D01*
X813544Y97494D01*
X816543D01*
Y96495D01*
X815544Y95495D01*
X814544D01*
X816543Y97494D02*
Y101493D01*
X821542Y97494D02*
X819542D01*
X818543Y98494D01*
Y100493D01*
X819542Y101493D01*
X821542D01*
X822541Y100493D01*
Y99493D01*
X818543D01*
X824541Y101493D02*
Y97494D01*
Y99493D01*
X825540Y100493D01*
X826540Y101493D01*
X827540D01*
X836537Y100493D02*
X840536D01*
X848533Y103492D02*
Y97494D01*
X851532D01*
X852532Y98494D01*
Y99493D01*
X851532Y100493D01*
X848533D01*
X851532D01*
X852532Y101493D01*
Y102493D01*
X851532Y103492D01*
X848533D01*
X855531Y97494D02*
X857530D01*
X858530Y98494D01*
Y100493D01*
X857530Y101493D01*
X855531D01*
X854531Y100493D01*
Y98494D01*
X855531Y97494D01*
X861529Y102493D02*
Y101493D01*
X860529D01*
X862528D01*
X861529D01*
Y98494D01*
X862528Y97494D01*
X866527Y102493D02*
Y101493D01*
X865527D01*
X867527D01*
X866527D01*
Y98494D01*
X867527Y97494D01*
X871525D02*
X873525D01*
X874524Y98494D01*
Y100493D01*
X873525Y101493D01*
X871525D01*
X870526Y100493D01*
Y98494D01*
X871525Y97494D01*
X876524D02*
Y101493D01*
X877524D01*
X878523Y100493D01*
Y97494D01*
Y100493D01*
X879523Y101493D01*
X880523Y100493D01*
Y97494D01*
X888520Y103492D02*
Y97494D01*
X892519D01*
X895518Y101493D02*
X897517D01*
X898517Y100493D01*
Y97494D01*
X895518D01*
X894518Y98494D01*
X895518Y99493D01*
X898517D01*
X900516Y101493D02*
Y98494D01*
X901516Y97494D01*
X904515D01*
Y96495D01*
X903515Y95495D01*
X902515D01*
X904515Y97494D02*
Y101493D01*
X909513Y97494D02*
X907514D01*
X906514Y98494D01*
Y100493D01*
X907514Y101493D01*
X909513D01*
X910513Y100493D01*
Y99493D01*
X906514D01*
X912512Y101493D02*
Y97494D01*
Y99493D01*
X913512Y100493D01*
X914511Y101493D01*
X915511D01*
X776556Y88492D02*
X780555D01*
X778555D01*
Y82494D01*
X783554D02*
X785553D01*
X786553Y83494D01*
Y85493D01*
X785553Y86493D01*
X783554D01*
X782554Y85493D01*
Y83494D01*
X783554Y82494D01*
X788552Y80495D02*
Y86493D01*
X791551D01*
X792551Y85493D01*
Y83494D01*
X791551Y82494D01*
X788552D01*
X800548Y88492D02*
Y82494D01*
X804547D01*
X807546Y86493D02*
X809546D01*
X810545Y85493D01*
Y82494D01*
X807546D01*
X806546Y83494D01*
X807546Y84493D01*
X810545D01*
X812545Y86493D02*
Y83494D01*
X813544Y82494D01*
X816543D01*
Y81494D01*
X815544Y80495D01*
X814544D01*
X816543Y82494D02*
Y86493D01*
X821542Y82494D02*
X819542D01*
X818543Y83494D01*
Y85493D01*
X819542Y86493D01*
X821542D01*
X822541Y85493D01*
Y84493D01*
X818543D01*
X824541Y86493D02*
Y82494D01*
Y84493D01*
X825540Y85493D01*
X826540Y86493D01*
X827540D01*
X836537Y85493D02*
X840536D01*
X848533Y88492D02*
Y82494D01*
X851532D01*
X852532Y83494D01*
Y84493D01*
X851532Y85493D01*
X848533D01*
X851532D01*
X852532Y86493D01*
Y87493D01*
X851532Y88492D01*
X848533D01*
X855531Y82494D02*
X857530D01*
X858530Y83494D01*
Y85493D01*
X857530Y86493D01*
X855531D01*
X854531Y85493D01*
Y83494D01*
X855531Y82494D01*
X861529Y87493D02*
Y86493D01*
X860529D01*
X862528D01*
X861529D01*
Y83494D01*
X862528Y82494D01*
X866527Y87493D02*
Y86493D01*
X865527D01*
X867527D01*
X866527D01*
Y83494D01*
X867527Y82494D01*
X871525D02*
X873525D01*
X874524Y83494D01*
Y85493D01*
X873525Y86493D01*
X871525D01*
X870526Y85493D01*
Y83494D01*
X871525Y82494D01*
X876524D02*
Y86493D01*
X877524D01*
X878523Y85493D01*
Y82494D01*
Y85493D01*
X879523Y86493D01*
X880523Y85493D01*
Y82494D01*
X888520Y88492D02*
Y82494D01*
X892519D01*
X895518Y86493D02*
X897517D01*
X898517Y85493D01*
Y82494D01*
X895518D01*
X894518Y83494D01*
X895518Y84493D01*
X898517D01*
X900516Y86493D02*
Y83494D01*
X901516Y82494D01*
X904515D01*
Y81494D01*
X903515Y80495D01*
X902515D01*
X904515Y82494D02*
Y86493D01*
X909513Y82494D02*
X907514D01*
X906514Y83494D01*
Y85493D01*
X907514Y86493D01*
X909513D01*
X910513Y85493D01*
Y84493D01*
X906514D01*
X912512Y86493D02*
Y82494D01*
Y84493D01*
X913512Y85493D01*
X914511Y86493D01*
X915511D01*
X776556Y73492D02*
X780555D01*
X778555D01*
Y67494D01*
X783554D02*
X785553D01*
X786553Y68494D01*
Y70493D01*
X785553Y71493D01*
X783554D01*
X782554Y70493D01*
Y68494D01*
X783554Y67494D01*
X788552Y65495D02*
Y71493D01*
X791551D01*
X792551Y70493D01*
Y68494D01*
X791551Y67494D01*
X788552D01*
X800548Y73492D02*
Y67494D01*
X804547D01*
X807546Y71493D02*
X809546D01*
X810545Y70493D01*
Y67494D01*
X807546D01*
X806546Y68494D01*
X807546Y69494D01*
X810545D01*
X812545Y71493D02*
Y68494D01*
X813544Y67494D01*
X816543D01*
Y66495D01*
X815544Y65495D01*
X814544D01*
X816543Y67494D02*
Y71493D01*
X821542Y67494D02*
X819542D01*
X818543Y68494D01*
Y70493D01*
X819542Y71493D01*
X821542D01*
X822541Y70493D01*
Y69494D01*
X818543D01*
X824541Y71493D02*
Y67494D01*
Y69494D01*
X825540Y70493D01*
X826540Y71493D01*
X827540D01*
X836537Y70493D02*
X840536D01*
X848533Y73492D02*
Y67494D01*
X851532D01*
X852532Y68494D01*
Y69494D01*
X851532Y70493D01*
X848533D01*
X851532D01*
X852532Y71493D01*
Y72493D01*
X851532Y73492D01*
X848533D01*
X855531Y67494D02*
X857530D01*
X858530Y68494D01*
Y70493D01*
X857530Y71493D01*
X855531D01*
X854531Y70493D01*
Y68494D01*
X855531Y67494D01*
X861529Y72493D02*
Y71493D01*
X860529D01*
X862528D01*
X861529D01*
Y68494D01*
X862528Y67494D01*
X866527Y72493D02*
Y71493D01*
X865527D01*
X867527D01*
X866527D01*
Y68494D01*
X867527Y67494D01*
X871525D02*
X873525D01*
X874524Y68494D01*
Y70493D01*
X873525Y71493D01*
X871525D01*
X870526Y70493D01*
Y68494D01*
X871525Y67494D01*
X876524D02*
Y71493D01*
X877524D01*
X878523Y70493D01*
Y67494D01*
Y70493D01*
X879523Y71493D01*
X880523Y70493D01*
Y67494D01*
X888520Y73492D02*
Y67494D01*
X892519D01*
X895518Y71493D02*
X897517D01*
X898517Y70493D01*
Y67494D01*
X895518D01*
X894518Y68494D01*
X895518Y69494D01*
X898517D01*
X900516Y71493D02*
Y68494D01*
X901516Y67494D01*
X904515D01*
Y66495D01*
X903515Y65495D01*
X902515D01*
X904515Y67494D02*
Y71493D01*
X909513Y67494D02*
X907514D01*
X906514Y68494D01*
Y70493D01*
X907514Y71493D01*
X909513D01*
X910513Y70493D01*
Y69494D01*
X906514D01*
X912512Y71493D02*
Y67494D01*
Y69494D01*
X913512Y70493D01*
X914511Y71493D01*
X915511D01*
X776556Y58492D02*
X780555D01*
X778555D01*
Y52494D01*
X783554D02*
X785553D01*
X786553Y53494D01*
Y55493D01*
X785553Y56493D01*
X783554D01*
X782554Y55493D01*
Y53494D01*
X783554Y52494D01*
X788552Y50495D02*
Y56493D01*
X791551D01*
X792551Y55493D01*
Y53494D01*
X791551Y52494D01*
X788552D01*
X800548Y58492D02*
Y52494D01*
X804547D01*
X807546Y56493D02*
X809546D01*
X810545Y55493D01*
Y52494D01*
X807546D01*
X806546Y53494D01*
X807546Y54493D01*
X810545D01*
X812545Y56493D02*
Y53494D01*
X813544Y52494D01*
X816543D01*
Y51494D01*
X815544Y50495D01*
X814544D01*
X816543Y52494D02*
Y56493D01*
X821542Y52494D02*
X819542D01*
X818543Y53494D01*
Y55493D01*
X819542Y56493D01*
X821542D01*
X822541Y55493D01*
Y54493D01*
X818543D01*
X824541Y56493D02*
Y52494D01*
Y54493D01*
X825540Y55493D01*
X826540Y56493D01*
X827540D01*
X836537Y55493D02*
X840536D01*
X848533Y58492D02*
Y52494D01*
X851532D01*
X852532Y53494D01*
Y54493D01*
X851532Y55493D01*
X848533D01*
X851532D01*
X852532Y56493D01*
Y57493D01*
X851532Y58492D01*
X848533D01*
X855531Y52494D02*
X857530D01*
X858530Y53494D01*
Y55493D01*
X857530Y56493D01*
X855531D01*
X854531Y55493D01*
Y53494D01*
X855531Y52494D01*
X861529Y57493D02*
Y56493D01*
X860529D01*
X862528D01*
X861529D01*
Y53494D01*
X862528Y52494D01*
X866527Y57493D02*
Y56493D01*
X865527D01*
X867527D01*
X866527D01*
Y53494D01*
X867527Y52494D01*
X871525D02*
X873525D01*
X874524Y53494D01*
Y55493D01*
X873525Y56493D01*
X871525D01*
X870526Y55493D01*
Y53494D01*
X871525Y52494D01*
X876524D02*
Y56493D01*
X877524D01*
X878523Y55493D01*
Y52494D01*
Y55493D01*
X879523Y56493D01*
X880523Y55493D01*
Y52494D01*
X888520Y58492D02*
Y52494D01*
X892519D01*
X895518Y56493D02*
X897517D01*
X898517Y55493D01*
Y52494D01*
X895518D01*
X894518Y53494D01*
X895518Y54493D01*
X898517D01*
X900516Y56493D02*
Y53494D01*
X901516Y52494D01*
X904515D01*
Y51494D01*
X903515Y50495D01*
X902515D01*
X904515Y52494D02*
Y56493D01*
X909513Y52494D02*
X907514D01*
X906514Y53494D01*
Y55493D01*
X907514Y56493D01*
X909513D01*
X910513Y55493D01*
Y54493D01*
X906514D01*
X912512Y56493D02*
Y52494D01*
Y54493D01*
X913512Y55493D01*
X914511Y56493D01*
X915511D01*
X776556Y43492D02*
X780555D01*
X778555D01*
Y37494D01*
X783554D02*
X785553D01*
X786553Y38494D01*
Y40493D01*
X785553Y41493D01*
X783554D01*
X782554Y40493D01*
Y38494D01*
X783554Y37494D01*
X788552Y35495D02*
Y41493D01*
X791551D01*
X792551Y40493D01*
Y38494D01*
X791551Y37494D01*
X788552D01*
X800548Y43492D02*
Y37494D01*
X804547D01*
X807546Y41493D02*
X809546D01*
X810545Y40493D01*
Y37494D01*
X807546D01*
X806546Y38494D01*
X807546Y39494D01*
X810545D01*
X812545Y41493D02*
Y38494D01*
X813544Y37494D01*
X816543D01*
Y36494D01*
X815544Y35495D01*
X814544D01*
X816543Y37494D02*
Y41493D01*
X821542Y37494D02*
X819542D01*
X818543Y38494D01*
Y40493D01*
X819542Y41493D01*
X821542D01*
X822541Y40493D01*
Y39494D01*
X818543D01*
X824541Y41493D02*
Y37494D01*
Y39494D01*
X825540Y40493D01*
X826540Y41493D01*
X827540D01*
X836537Y40493D02*
X840536D01*
X848533Y43492D02*
Y37494D01*
X851532D01*
X852532Y38494D01*
Y39494D01*
X851532Y40493D01*
X848533D01*
X851532D01*
X852532Y41493D01*
Y42492D01*
X851532Y43492D01*
X848533D01*
X855531Y37494D02*
X857530D01*
X858530Y38494D01*
Y40493D01*
X857530Y41493D01*
X855531D01*
X854531Y40493D01*
Y38494D01*
X855531Y37494D01*
X861529Y42492D02*
Y41493D01*
X860529D01*
X862528D01*
X861529D01*
Y38494D01*
X862528Y37494D01*
X866527Y42492D02*
Y41493D01*
X865527D01*
X867527D01*
X866527D01*
Y38494D01*
X867527Y37494D01*
X871525D02*
X873525D01*
X874524Y38494D01*
Y40493D01*
X873525Y41493D01*
X871525D01*
X870526Y40493D01*
Y38494D01*
X871525Y37494D01*
X876524D02*
Y41493D01*
X877524D01*
X878523Y40493D01*
Y37494D01*
Y40493D01*
X879523Y41493D01*
X880523Y40493D01*
Y37494D01*
X888520Y43492D02*
Y37494D01*
X892519D01*
X895518Y41493D02*
X897517D01*
X898517Y40493D01*
Y37494D01*
X895518D01*
X894518Y38494D01*
X895518Y39494D01*
X898517D01*
X900516Y41493D02*
Y38494D01*
X901516Y37494D01*
X904515D01*
Y36494D01*
X903515Y35495D01*
X902515D01*
X904515Y37494D02*
Y41493D01*
X909513Y37494D02*
X907514D01*
X906514Y38494D01*
Y40493D01*
X907514Y41493D01*
X909513D01*
X910513Y40493D01*
Y39494D01*
X906514D01*
X912512Y41493D02*
Y37494D01*
Y39494D01*
X913512Y40493D01*
X914511Y41493D01*
X915511D01*
X776556Y28492D02*
X780555D01*
X778555D01*
Y22494D01*
X783554D02*
X785553D01*
X786553Y23494D01*
Y25493D01*
X785553Y26493D01*
X783554D01*
X782554Y25493D01*
Y23494D01*
X783554Y22494D01*
X788552Y20495D02*
Y26493D01*
X791551D01*
X792551Y25493D01*
Y23494D01*
X791551Y22494D01*
X788552D01*
X800548Y28492D02*
Y22494D01*
X804547D01*
X807546Y26493D02*
X809546D01*
X810545Y25493D01*
Y22494D01*
X807546D01*
X806546Y23494D01*
X807546Y24494D01*
X810545D01*
X812545Y26493D02*
Y23494D01*
X813544Y22494D01*
X816543D01*
Y21495D01*
X815544Y20495D01*
X814544D01*
X816543Y22494D02*
Y26493D01*
X821542Y22494D02*
X819542D01*
X818543Y23494D01*
Y25493D01*
X819542Y26493D01*
X821542D01*
X822541Y25493D01*
Y24494D01*
X818543D01*
X824541Y26493D02*
Y22494D01*
Y24494D01*
X825540Y25493D01*
X826540Y26493D01*
X827540D01*
X836537Y25493D02*
X840536D01*
X848533Y28492D02*
Y22494D01*
X851532D01*
X852532Y23494D01*
Y24494D01*
X851532Y25493D01*
X848533D01*
X851532D01*
X852532Y26493D01*
Y27492D01*
X851532Y28492D01*
X848533D01*
X855531Y22494D02*
X857530D01*
X858530Y23494D01*
Y25493D01*
X857530Y26493D01*
X855531D01*
X854531Y25493D01*
Y23494D01*
X855531Y22494D01*
X861529Y27492D02*
Y26493D01*
X860529D01*
X862528D01*
X861529D01*
Y23494D01*
X862528Y22494D01*
X866527Y27492D02*
Y26493D01*
X865527D01*
X867527D01*
X866527D01*
Y23494D01*
X867527Y22494D01*
X871525D02*
X873525D01*
X874524Y23494D01*
Y25493D01*
X873525Y26493D01*
X871525D01*
X870526Y25493D01*
Y23494D01*
X871525Y22494D01*
X876524D02*
Y26493D01*
X877524D01*
X878523Y25493D01*
Y22494D01*
Y25493D01*
X879523Y26493D01*
X880523Y25493D01*
Y22494D01*
X888520Y28492D02*
Y22494D01*
X892519D01*
X895518Y26493D02*
X897517D01*
X898517Y25493D01*
Y22494D01*
X895518D01*
X894518Y23494D01*
X895518Y24494D01*
X898517D01*
X900516Y26493D02*
Y23494D01*
X901516Y22494D01*
X904515D01*
Y21495D01*
X903515Y20495D01*
X902515D01*
X904515Y22494D02*
Y26493D01*
X909513Y22494D02*
X907514D01*
X906514Y23494D01*
Y25493D01*
X907514Y26493D01*
X909513D01*
X910513Y25493D01*
Y24494D01*
X906514D01*
X912512Y26493D02*
Y22494D01*
Y24494D01*
X913512Y25493D01*
X914511Y26493D01*
X915511D01*
X703176Y172494D02*
Y178492D01*
X706175D01*
X707175Y177493D01*
Y175493D01*
X706175Y174494D01*
X703176D01*
X705175D02*
X707175Y172494D01*
X710174D02*
X712173D01*
X713173Y173494D01*
Y175493D01*
X712173Y176493D01*
X710174D01*
X709174Y175493D01*
Y173494D01*
X710174Y172494D01*
X715172Y176493D02*
Y173494D01*
X716172Y172494D01*
X719171D01*
Y176493D01*
X721170Y172494D02*
Y176493D01*
X724169D01*
X725169Y175493D01*
Y172494D01*
X731167Y178492D02*
Y172494D01*
X728168D01*
X727168Y173494D01*
Y175493D01*
X728168Y176493D01*
X731167D01*
X707175Y162493D02*
X706175Y163492D01*
X704176D01*
X703176Y162493D01*
Y161493D01*
X704176Y160493D01*
X706175D01*
X707175Y159494D01*
Y158494D01*
X706175Y157494D01*
X704176D01*
X703176Y158494D01*
X709174Y157494D02*
X711173D01*
X710174D01*
Y163492D01*
X709174D01*
X715172Y157494D02*
X717171D01*
X718171Y158494D01*
Y160493D01*
X717171Y161493D01*
X715172D01*
X714172Y160493D01*
Y158494D01*
X715172Y157494D01*
X721170Y162493D02*
Y161493D01*
X720170D01*
X722170D01*
X721170D01*
Y158494D01*
X722170Y157494D01*
X703176Y142494D02*
Y148492D01*
X706175D01*
X707175Y147493D01*
Y145493D01*
X706175Y144493D01*
X703176D01*
X705175D02*
X707175Y142494D01*
X710174D02*
X712173D01*
X713173Y143494D01*
Y145493D01*
X712173Y146493D01*
X710174D01*
X709174Y145493D01*
Y143494D01*
X710174Y142494D01*
X715172Y146493D02*
Y143494D01*
X716172Y142494D01*
X719171D01*
Y146493D01*
X721170Y142494D02*
Y146493D01*
X724169D01*
X725169Y145493D01*
Y142494D01*
X731167Y148492D02*
Y142494D01*
X728168D01*
X727168Y143494D01*
Y145493D01*
X728168Y146493D01*
X731167D01*
X703176Y127494D02*
Y133492D01*
X706175D01*
X707175Y132493D01*
Y130493D01*
X706175Y129493D01*
X703176D01*
X705175D02*
X707175Y127494D01*
X710174D02*
X712173D01*
X713173Y128494D01*
Y130493D01*
X712173Y131493D01*
X710174D01*
X709174Y130493D01*
Y128494D01*
X710174Y127494D01*
X715172Y131493D02*
Y128494D01*
X716172Y127494D01*
X719171D01*
Y131493D01*
X721170Y127494D02*
Y131493D01*
X724169D01*
X725169Y130493D01*
Y127494D01*
X731167Y133492D02*
Y127494D01*
X728168D01*
X727168Y128494D01*
Y130493D01*
X728168Y131493D01*
X731167D01*
X703176Y112494D02*
Y118492D01*
X706175D01*
X707175Y117493D01*
Y115493D01*
X706175Y114494D01*
X703176D01*
X705175D02*
X707175Y112494D01*
X710174D02*
X712173D01*
X713173Y113494D01*
Y115493D01*
X712173Y116493D01*
X710174D01*
X709174Y115493D01*
Y113494D01*
X710174Y112494D01*
X715172Y116493D02*
Y113494D01*
X716172Y112494D01*
X719171D01*
Y116493D01*
X721170Y112494D02*
Y116493D01*
X724169D01*
X725169Y115493D01*
Y112494D01*
X731167Y118492D02*
Y112494D01*
X728168D01*
X727168Y113494D01*
Y115493D01*
X728168Y116493D01*
X731167D01*
X703176Y97494D02*
Y103492D01*
X706175D01*
X707175Y102493D01*
Y100493D01*
X706175Y99493D01*
X703176D01*
X705175D02*
X707175Y97494D01*
X710174D02*
X712173D01*
X713173Y98494D01*
Y100493D01*
X712173Y101493D01*
X710174D01*
X709174Y100493D01*
Y98494D01*
X710174Y97494D01*
X715172Y101493D02*
Y98494D01*
X716172Y97494D01*
X719171D01*
Y101493D01*
X721170Y97494D02*
Y101493D01*
X724169D01*
X725169Y100493D01*
Y97494D01*
X731167Y103492D02*
Y97494D01*
X728168D01*
X727168Y98494D01*
Y100493D01*
X728168Y101493D01*
X731167D01*
X703176Y82494D02*
Y88492D01*
X706175D01*
X707175Y87493D01*
Y85493D01*
X706175Y84493D01*
X703176D01*
X705175D02*
X707175Y82494D01*
X710174D02*
X712173D01*
X713173Y83494D01*
Y85493D01*
X712173Y86493D01*
X710174D01*
X709174Y85493D01*
Y83494D01*
X710174Y82494D01*
X715172Y86493D02*
Y83494D01*
X716172Y82494D01*
X719171D01*
Y86493D01*
X721170Y82494D02*
Y86493D01*
X724169D01*
X725169Y85493D01*
Y82494D01*
X731167Y88492D02*
Y82494D01*
X728168D01*
X727168Y83494D01*
Y85493D01*
X728168Y86493D01*
X731167D01*
X703176Y67494D02*
Y73492D01*
X706175D01*
X707175Y72493D01*
Y70493D01*
X706175Y69494D01*
X703176D01*
X705175D02*
X707175Y67494D01*
X710174D02*
X712173D01*
X713173Y68494D01*
Y70493D01*
X712173Y71493D01*
X710174D01*
X709174Y70493D01*
Y68494D01*
X710174Y67494D01*
X715172Y71493D02*
Y68494D01*
X716172Y67494D01*
X719171D01*
Y71493D01*
X721170Y67494D02*
Y71493D01*
X724169D01*
X725169Y70493D01*
Y67494D01*
X731167Y73492D02*
Y67494D01*
X728168D01*
X727168Y68494D01*
Y70493D01*
X728168Y71493D01*
X731167D01*
X703176Y52494D02*
Y58492D01*
X706175D01*
X707175Y57493D01*
Y55493D01*
X706175Y54493D01*
X703176D01*
X705175D02*
X707175Y52494D01*
X710174D02*
X712173D01*
X713173Y53494D01*
Y55493D01*
X712173Y56493D01*
X710174D01*
X709174Y55493D01*
Y53494D01*
X710174Y52494D01*
X715172Y56493D02*
Y53494D01*
X716172Y52494D01*
X719171D01*
Y56493D01*
X721170Y52494D02*
Y56493D01*
X724169D01*
X725169Y55493D01*
Y52494D01*
X731167Y58492D02*
Y52494D01*
X728168D01*
X727168Y53494D01*
Y55493D01*
X728168Y56493D01*
X731167D01*
X703176Y37494D02*
Y43492D01*
X706175D01*
X707175Y42492D01*
Y40493D01*
X706175Y39494D01*
X703176D01*
X705175D02*
X707175Y37494D01*
X710174D02*
X712173D01*
X713173Y38494D01*
Y40493D01*
X712173Y41493D01*
X710174D01*
X709174Y40493D01*
Y38494D01*
X710174Y37494D01*
X715172Y41493D02*
Y38494D01*
X716172Y37494D01*
X719171D01*
Y41493D01*
X721170Y37494D02*
Y41493D01*
X724169D01*
X725169Y40493D01*
Y37494D01*
X731167Y43492D02*
Y37494D01*
X728168D01*
X727168Y38494D01*
Y40493D01*
X728168Y41493D01*
X731167D01*
X703176Y22494D02*
Y28492D01*
X706175D01*
X707175Y27492D01*
Y25493D01*
X706175Y24494D01*
X703176D01*
X705175D02*
X707175Y22494D01*
X710174D02*
X712173D01*
X713173Y23494D01*
Y25493D01*
X712173Y26493D01*
X710174D01*
X709174Y25493D01*
Y23494D01*
X710174Y22494D01*
X715172Y26493D02*
Y23494D01*
X716172Y22494D01*
X719171D01*
Y26493D01*
X721170Y22494D02*
Y26493D01*
X724169D01*
X725169Y25493D01*
Y22494D01*
X731167Y28492D02*
Y22494D01*
X728168D01*
X727168Y23494D01*
Y25493D01*
X728168Y26493D01*
X731167D01*
X652588Y172494D02*
Y178492D01*
X655587D01*
X656587Y177493D01*
Y175493D01*
X655587Y174494D01*
X652588D01*
X658586Y178492D02*
X662585D01*
X660586D01*
Y172494D01*
X664584Y178492D02*
Y172494D01*
Y175493D01*
X668583D01*
Y178492D01*
Y172494D01*
X652588Y157494D02*
Y163492D01*
X655587D01*
X656587Y162493D01*
Y160493D01*
X655587Y159494D01*
X652588D01*
X658586Y163492D02*
X662585D01*
X660586D01*
Y157494D01*
X664584Y163492D02*
Y157494D01*
Y160493D01*
X668583D01*
Y163492D01*
Y157494D01*
X652588Y142494D02*
Y148492D01*
X655587D01*
X656587Y147493D01*
Y145493D01*
X655587Y144493D01*
X652588D01*
X658586Y148492D02*
X662585D01*
X660586D01*
Y142494D01*
X664584Y148492D02*
Y142494D01*
Y145493D01*
X668583D01*
Y148492D01*
Y142494D01*
X652588Y127494D02*
Y133492D01*
X655587D01*
X656587Y132493D01*
Y130493D01*
X655587Y129493D01*
X652588D01*
X658586Y133492D02*
X662585D01*
X660586D01*
Y127494D01*
X664584Y133492D02*
Y127494D01*
Y130493D01*
X668583D01*
Y133492D01*
Y127494D01*
X652588Y112494D02*
Y118492D01*
X655587D01*
X656587Y117493D01*
Y115493D01*
X655587Y114494D01*
X652588D01*
X658586Y118492D02*
X662585D01*
X660586D01*
Y112494D01*
X664584Y118492D02*
Y112494D01*
Y115493D01*
X668583D01*
Y118492D01*
Y112494D01*
X652588Y97494D02*
Y103492D01*
X655587D01*
X656587Y102493D01*
Y100493D01*
X655587Y99493D01*
X652588D01*
X658586Y103492D02*
X662585D01*
X660586D01*
Y97494D01*
X664584Y103492D02*
Y97494D01*
Y100493D01*
X668583D01*
Y103492D01*
Y97494D01*
X652588Y82494D02*
Y88492D01*
X655587D01*
X656587Y87493D01*
Y85493D01*
X655587Y84493D01*
X652588D01*
X658586Y88492D02*
X662585D01*
X660586D01*
Y82494D01*
X664584Y88492D02*
Y82494D01*
Y85493D01*
X668583D01*
Y88492D01*
Y82494D01*
X652588Y67494D02*
Y73492D01*
X655587D01*
X656587Y72493D01*
Y70493D01*
X655587Y69494D01*
X652588D01*
X658586Y73492D02*
X662585D01*
X660586D01*
Y67494D01*
X664584Y73492D02*
Y67494D01*
Y70493D01*
X668583D01*
Y73492D01*
Y67494D01*
X652588Y52494D02*
Y58492D01*
X655587D01*
X656587Y57493D01*
Y55493D01*
X655587Y54493D01*
X652588D01*
X658586Y58492D02*
X662585D01*
X660586D01*
Y52494D01*
X664584Y58492D02*
Y52494D01*
Y55493D01*
X668583D01*
Y58492D01*
Y52494D01*
X652588Y37494D02*
Y43492D01*
X655587D01*
X656587Y42492D01*
Y40493D01*
X655587Y39494D01*
X652588D01*
X658586Y43492D02*
X662585D01*
X660586D01*
Y37494D01*
X664584Y43492D02*
Y37494D01*
Y40493D01*
X668583D01*
Y43492D01*
Y37494D01*
X652588Y22494D02*
Y28492D01*
X655587D01*
X656587Y27492D01*
Y25493D01*
X655587Y24494D01*
X652588D01*
X658586Y28492D02*
X662585D01*
X660586D01*
Y22494D01*
X664584Y28492D02*
Y22494D01*
Y25493D01*
X668583D01*
Y28492D01*
Y22494D01*
X538622Y177493D02*
X539621Y178492D01*
X541621D01*
X542620Y177493D01*
Y176493D01*
X541621Y175493D01*
X540621D01*
X541621D01*
X542620Y174494D01*
Y173494D01*
X541621Y172494D01*
X539621D01*
X538622Y173494D01*
X548619Y172494D02*
X544620D01*
X548619Y176493D01*
Y177493D01*
X547619Y178492D01*
X545619D01*
X544620Y177493D01*
X550618Y172494D02*
Y173494D01*
X551617D01*
Y172494D01*
X550618D01*
X555616Y177493D02*
X556616Y178492D01*
X558615D01*
X559615Y177493D01*
Y173494D01*
X558615Y172494D01*
X556616D01*
X555616Y173494D01*
Y177493D01*
X561614D02*
X562614Y178492D01*
X564613D01*
X565613Y177493D01*
Y173494D01*
X564613Y172494D01*
X562614D01*
X561614Y173494D01*
Y177493D01*
X567612Y172494D02*
Y176493D01*
X568612D01*
X569612Y175493D01*
Y172494D01*
Y175493D01*
X570611Y176493D01*
X571611Y175493D01*
Y172494D01*
X573610D02*
X575610D01*
X574610D01*
Y176493D01*
X573610D01*
X578609Y172494D02*
X580608D01*
X579608D01*
Y178492D01*
X578609D01*
X591605Y172494D02*
X589605Y174494D01*
Y176493D01*
X591605Y178492D01*
X594604Y177493D02*
X595603Y178492D01*
X597603D01*
X598602Y177493D01*
Y173494D01*
X597603Y172494D01*
X595603D01*
X594604Y173494D01*
Y177493D01*
X600602Y172494D02*
Y173494D01*
X601601D01*
Y172494D01*
X600602D01*
X605600Y177493D02*
X606600Y178492D01*
X608599D01*
X609599Y177493D01*
Y176493D01*
X608599Y175493D01*
X609599Y174494D01*
Y173494D01*
X608599Y172494D01*
X606600D01*
X605600Y173494D01*
Y174494D01*
X606600Y175493D01*
X605600Y176493D01*
Y177493D01*
X606600Y175493D02*
X608599D01*
X611598Y172494D02*
X613597D01*
X612598D01*
Y178492D01*
X611598Y177493D01*
X616597D02*
X617596Y178492D01*
X619595D01*
X620595Y177493D01*
Y176493D01*
X619595Y175493D01*
X618596D01*
X619595D01*
X620595Y174494D01*
Y173494D01*
X619595Y172494D01*
X617596D01*
X616597Y173494D01*
X622594Y172494D02*
Y176493D01*
X623594D01*
X624594Y175493D01*
Y172494D01*
Y175493D01*
X625594Y176493D01*
X626593Y175493D01*
Y172494D01*
X628593D02*
Y176493D01*
X629592D01*
X630592Y175493D01*
Y172494D01*
Y175493D01*
X631592Y176493D01*
X632591Y175493D01*
Y172494D01*
X634591D02*
X636590Y174494D01*
Y176493D01*
X634591Y178492D01*
X538622Y162493D02*
X539621Y163492D01*
X541621D01*
X542620Y162493D01*
Y161493D01*
X541621Y160493D01*
X540621D01*
X541621D01*
X542620Y159494D01*
Y158494D01*
X541621Y157494D01*
X539621D01*
X538622Y158494D01*
X544620Y163492D02*
X548619D01*
Y162493D01*
X544620Y158494D01*
Y157494D01*
X550618D02*
Y158494D01*
X551617D01*
Y157494D01*
X550618D01*
X555616Y162493D02*
X556616Y163492D01*
X558615D01*
X559615Y162493D01*
Y158494D01*
X558615Y157494D01*
X556616D01*
X555616Y158494D01*
Y162493D01*
X561614D02*
X562614Y163492D01*
X564613D01*
X565613Y162493D01*
Y158494D01*
X564613Y157494D01*
X562614D01*
X561614Y158494D01*
Y162493D01*
X567612Y157494D02*
Y161493D01*
X568612D01*
X569612Y160493D01*
Y157494D01*
Y160493D01*
X570611Y161493D01*
X571611Y160493D01*
Y157494D01*
X573610D02*
X575610D01*
X574610D01*
Y161493D01*
X573610D01*
X578609Y157494D02*
X580608D01*
X579608D01*
Y163492D01*
X578609D01*
X591605Y157494D02*
X589605Y159494D01*
Y161493D01*
X591605Y163492D01*
X594604Y162493D02*
X595603Y163492D01*
X597603D01*
X598602Y162493D01*
Y158494D01*
X597603Y157494D01*
X595603D01*
X594604Y158494D01*
Y162493D01*
X600602Y157494D02*
Y158494D01*
X601601D01*
Y157494D01*
X600602D01*
X605600Y158494D02*
X606600Y157494D01*
X608599D01*
X609599Y158494D01*
Y162493D01*
X608599Y163492D01*
X606600D01*
X605600Y162493D01*
Y161493D01*
X606600Y160493D01*
X609599D01*
X614597Y157494D02*
Y163492D01*
X611598Y160493D01*
X615597D01*
X617596Y162493D02*
X618596Y163492D01*
X620595D01*
X621595Y162493D01*
Y158494D01*
X620595Y157494D01*
X618596D01*
X617596Y158494D01*
Y162493D01*
X623594Y157494D02*
Y161493D01*
X624594D01*
X625594Y160493D01*
Y157494D01*
Y160493D01*
X626593Y161493D01*
X627593Y160493D01*
Y157494D01*
X629592D02*
Y161493D01*
X630592D01*
X631592Y160493D01*
Y157494D01*
Y160493D01*
X632591Y161493D01*
X633591Y160493D01*
Y157494D01*
X635590D02*
X637590Y159494D01*
Y161493D01*
X635590Y163492D01*
X538622Y142494D02*
X540621D01*
X539621D01*
Y148492D01*
X538622Y147493D01*
X543620Y142494D02*
X545619D01*
X544620D01*
Y148492D01*
X543620Y147493D01*
X548619D02*
X549618Y148492D01*
X551617D01*
X552617Y147493D01*
Y146493D01*
X551617Y145493D01*
X552617Y144493D01*
Y143494D01*
X551617Y142494D01*
X549618D01*
X548619Y143494D01*
Y144493D01*
X549618Y145493D01*
X548619Y146493D01*
Y147493D01*
X549618Y145493D02*
X551617D01*
X554616Y142494D02*
Y143494D01*
X555616D01*
Y142494D01*
X554616D01*
X559615D02*
X561614D01*
X560615D01*
Y148492D01*
X559615Y147493D01*
X564613Y142494D02*
X566613D01*
X565613D01*
Y148492D01*
X564613Y147493D01*
X569612Y142494D02*
Y146493D01*
X570611D01*
X571611Y145493D01*
Y142494D01*
Y145493D01*
X572611Y146493D01*
X573610Y145493D01*
Y142494D01*
X575610D02*
X577609D01*
X576609D01*
Y146493D01*
X575610D01*
X580608Y142494D02*
X582608D01*
X581608D01*
Y148492D01*
X580608D01*
X593604Y142494D02*
X591605Y144493D01*
Y146493D01*
X593604Y148492D01*
X596603Y147493D02*
X597603Y148492D01*
X599602D01*
X600602Y147493D01*
Y146493D01*
X599602Y145493D01*
X598602D01*
X599602D01*
X600602Y144493D01*
Y143494D01*
X599602Y142494D01*
X597603D01*
X596603Y143494D01*
X602601Y142494D02*
Y143494D01*
X603601D01*
Y142494D01*
X602601D01*
X607599Y147493D02*
X608599Y148492D01*
X610598D01*
X611598Y147493D01*
Y143494D01*
X610598Y142494D01*
X608599D01*
X607599Y143494D01*
Y147493D01*
X613597D02*
X614597Y148492D01*
X616597D01*
X617596Y147493D01*
Y143494D01*
X616597Y142494D01*
X614597D01*
X613597Y143494D01*
Y147493D01*
X619595D02*
X620595Y148492D01*
X622594D01*
X623594Y147493D01*
Y143494D01*
X622594Y142494D01*
X620595D01*
X619595Y143494D01*
Y147493D01*
X625594Y142494D02*
Y146493D01*
X626593D01*
X627593Y145493D01*
Y142494D01*
Y145493D01*
X628593Y146493D01*
X629592Y145493D01*
Y142494D01*
X631592D02*
Y146493D01*
X632591D01*
X633591Y145493D01*
Y142494D01*
Y145493D01*
X634591Y146493D01*
X635590Y145493D01*
Y142494D01*
X637590D02*
X639589Y144493D01*
Y146493D01*
X637590Y148492D01*
X538622Y132493D02*
X539621Y133492D01*
X541621D01*
X542620Y132493D01*
Y131493D01*
X541621Y130493D01*
X540621D01*
X541621D01*
X542620Y129493D01*
Y128494D01*
X541621Y127494D01*
X539621D01*
X538622Y128494D01*
X548619Y133492D02*
X544620D01*
Y130493D01*
X546619Y131493D01*
X547619D01*
X548619Y130493D01*
Y128494D01*
X547619Y127494D01*
X545619D01*
X544620Y128494D01*
X550618Y127494D02*
Y128494D01*
X551617D01*
Y127494D01*
X550618D01*
X555616Y132493D02*
X556616Y133492D01*
X558615D01*
X559615Y132493D01*
Y128494D01*
X558615Y127494D01*
X556616D01*
X555616Y128494D01*
Y132493D01*
X561614D02*
X562614Y133492D01*
X564613D01*
X565613Y132493D01*
Y128494D01*
X564613Y127494D01*
X562614D01*
X561614Y128494D01*
Y132493D01*
X567612Y127494D02*
Y131493D01*
X568612D01*
X569612Y130493D01*
Y127494D01*
Y130493D01*
X570611Y131493D01*
X571611Y130493D01*
Y127494D01*
X573610D02*
X575610D01*
X574610D01*
Y131493D01*
X573610D01*
X578609Y127494D02*
X580608D01*
X579608D01*
Y133492D01*
X578609D01*
X591605Y127494D02*
X589605Y129493D01*
Y131493D01*
X591605Y133492D01*
X594604Y132493D02*
X595603Y133492D01*
X597603D01*
X598602Y132493D01*
Y128494D01*
X597603Y127494D01*
X595603D01*
X594604Y128494D01*
Y132493D01*
X600602Y127494D02*
Y128494D01*
X601601D01*
Y127494D01*
X600602D01*
X605600Y132493D02*
X606600Y133492D01*
X608599D01*
X609599Y132493D01*
Y131493D01*
X608599Y130493D01*
X609599Y129493D01*
Y128494D01*
X608599Y127494D01*
X606600D01*
X605600Y128494D01*
Y129493D01*
X606600Y130493D01*
X605600Y131493D01*
Y132493D01*
X606600Y130493D02*
X608599D01*
X611598Y132493D02*
X612598Y133492D01*
X614597D01*
X615597Y132493D01*
Y131493D01*
X614597Y130493D01*
X615597Y129493D01*
Y128494D01*
X614597Y127494D01*
X612598D01*
X611598Y128494D01*
Y129493D01*
X612598Y130493D01*
X611598Y131493D01*
Y132493D01*
X612598Y130493D02*
X614597D01*
X617596Y128494D02*
X618596Y127494D01*
X620595D01*
X621595Y128494D01*
Y132493D01*
X620595Y133492D01*
X618596D01*
X617596Y132493D01*
Y131493D01*
X618596Y130493D01*
X621595D01*
X623594Y127494D02*
Y131493D01*
X624594D01*
X625594Y130493D01*
Y127494D01*
Y130493D01*
X626593Y131493D01*
X627593Y130493D01*
Y127494D01*
X629592D02*
Y131493D01*
X630592D01*
X631592Y130493D01*
Y127494D01*
Y130493D01*
X632591Y131493D01*
X633591Y130493D01*
Y127494D01*
X635590D02*
X637590Y129493D01*
Y131493D01*
X635590Y133492D01*
X538622Y112494D02*
X540621D01*
X539621D01*
Y118492D01*
X538622Y117493D01*
X543620Y112494D02*
X545619D01*
X544620D01*
Y118492D01*
X543620Y117493D01*
X548619D02*
X549618Y118492D01*
X551617D01*
X552617Y117493D01*
Y113494D01*
X551617Y112494D01*
X549618D01*
X548619Y113494D01*
Y117493D01*
X554616Y112494D02*
Y113494D01*
X555616D01*
Y112494D01*
X554616D01*
X563614D02*
X559615D01*
X563614Y116493D01*
Y117493D01*
X562614Y118492D01*
X560615D01*
X559615Y117493D01*
X568612Y112494D02*
Y118492D01*
X565613Y115493D01*
X569612D01*
X571611Y112494D02*
Y116493D01*
X572611D01*
X573610Y115493D01*
Y112494D01*
Y115493D01*
X574610Y116493D01*
X575610Y115493D01*
Y112494D01*
X577609D02*
X579608D01*
X578609D01*
Y116493D01*
X577609D01*
X582608Y112494D02*
X584607D01*
X583607D01*
Y118492D01*
X582608D01*
X595603Y112494D02*
X593604Y114494D01*
Y116493D01*
X595603Y118492D01*
X602601Y112494D02*
X598602D01*
X602601Y116493D01*
Y117493D01*
X601601Y118492D01*
X599602D01*
X598602Y117493D01*
X604600Y112494D02*
Y113494D01*
X605600D01*
Y112494D01*
X604600D01*
X609599Y117493D02*
X610598Y118492D01*
X612598D01*
X613597Y117493D01*
Y116493D01*
X612598Y115493D01*
X613597Y114494D01*
Y113494D01*
X612598Y112494D01*
X610598D01*
X609599Y113494D01*
Y114494D01*
X610598Y115493D01*
X609599Y116493D01*
Y117493D01*
X610598Y115493D02*
X612598D01*
X615597Y117493D02*
X616597Y118492D01*
X618596D01*
X619595Y117493D01*
Y113494D01*
X618596Y112494D01*
X616597D01*
X615597Y113494D01*
Y117493D01*
X621595D02*
X622594Y118492D01*
X624594D01*
X625594Y117493D01*
Y113494D01*
X624594Y112494D01*
X622594D01*
X621595Y113494D01*
Y117493D01*
X627593Y112494D02*
Y116493D01*
X628593D01*
X629592Y115493D01*
Y112494D01*
Y115493D01*
X630592Y116493D01*
X631592Y115493D01*
Y112494D01*
X633591D02*
Y116493D01*
X634591D01*
X635590Y115493D01*
Y112494D01*
Y115493D01*
X636590Y116493D01*
X637590Y115493D01*
Y112494D01*
X639589D02*
X641588Y114494D01*
Y116493D01*
X639589Y118492D01*
X538622Y102493D02*
X539621Y103492D01*
X541621D01*
X542620Y102493D01*
Y101493D01*
X541621Y100493D01*
X540621D01*
X541621D01*
X542620Y99493D01*
Y98494D01*
X541621Y97494D01*
X539621D01*
X538622Y98494D01*
X544620D02*
X545619Y97494D01*
X547619D01*
X548619Y98494D01*
Y102493D01*
X547619Y103492D01*
X545619D01*
X544620Y102493D01*
Y101493D01*
X545619Y100493D01*
X548619D01*
X550618Y97494D02*
Y98494D01*
X551617D01*
Y97494D01*
X550618D01*
X555616Y102493D02*
X556616Y103492D01*
X558615D01*
X559615Y102493D01*
Y101493D01*
X558615Y100493D01*
X557616D01*
X558615D01*
X559615Y99493D01*
Y98494D01*
X558615Y97494D01*
X556616D01*
X555616Y98494D01*
X561614Y103492D02*
X565613D01*
Y102493D01*
X561614Y98494D01*
Y97494D01*
X567612D02*
Y101493D01*
X568612D01*
X569612Y100493D01*
Y97494D01*
Y100493D01*
X570611Y101493D01*
X571611Y100493D01*
Y97494D01*
X573610D02*
X575610D01*
X574610D01*
Y101493D01*
X573610D01*
X578609Y97494D02*
X580608D01*
X579608D01*
Y103492D01*
X578609D01*
X591605Y97494D02*
X589605Y99493D01*
Y101493D01*
X591605Y103492D01*
X594604Y97494D02*
X596603D01*
X595603D01*
Y103492D01*
X594604Y102493D01*
X599602Y97494D02*
Y98494D01*
X600602D01*
Y97494D01*
X599602D01*
X604600Y102493D02*
X605600Y103492D01*
X607599D01*
X608599Y102493D01*
Y98494D01*
X607599Y97494D01*
X605600D01*
X604600Y98494D01*
Y102493D01*
X610598D02*
X611598Y103492D01*
X613597D01*
X614597Y102493D01*
Y98494D01*
X613597Y97494D01*
X611598D01*
X610598Y98494D01*
Y102493D01*
X616597D02*
X617596Y103492D01*
X619595D01*
X620595Y102493D01*
Y98494D01*
X619595Y97494D01*
X617596D01*
X616597Y98494D01*
Y102493D01*
X622594Y97494D02*
Y101493D01*
X623594D01*
X624594Y100493D01*
Y97494D01*
Y100493D01*
X625594Y101493D01*
X626593Y100493D01*
Y97494D01*
X628593D02*
Y101493D01*
X629592D01*
X630592Y100493D01*
Y97494D01*
Y100493D01*
X631592Y101493D01*
X632591Y100493D01*
Y97494D01*
X634591D02*
X636590Y99493D01*
Y101493D01*
X634591Y103492D01*
X541621Y82494D02*
Y88492D01*
X538622Y85493D01*
X542620D01*
X544620Y88492D02*
X548619D01*
Y87493D01*
X544620Y83494D01*
Y82494D01*
X550618D02*
Y83494D01*
X551617D01*
Y82494D01*
X550618D01*
X559615D02*
X555616D01*
X559615Y86493D01*
Y87493D01*
X558615Y88492D01*
X556616D01*
X555616Y87493D01*
X564613Y82494D02*
Y88492D01*
X561614Y85493D01*
X565613D01*
X567612Y82494D02*
Y86493D01*
X568612D01*
X569612Y85493D01*
Y82494D01*
Y85493D01*
X570611Y86493D01*
X571611Y85493D01*
Y82494D01*
X573610D02*
X575610D01*
X574610D01*
Y86493D01*
X573610D01*
X578609Y82494D02*
X580608D01*
X579608D01*
Y88492D01*
X578609D01*
X591605Y82494D02*
X589605Y84493D01*
Y86493D01*
X591605Y88492D01*
X594604Y82494D02*
X596603D01*
X595603D01*
Y88492D01*
X594604Y87493D01*
X599602Y82494D02*
Y83494D01*
X600602D01*
Y82494D01*
X599602D01*
X608599D02*
X604600D01*
X608599Y86493D01*
Y87493D01*
X607599Y88492D01*
X605600D01*
X604600Y87493D01*
X610598D02*
X611598Y88492D01*
X613597D01*
X614597Y87493D01*
Y83494D01*
X613597Y82494D01*
X611598D01*
X610598Y83494D01*
Y87493D01*
X616597D02*
X617596Y88492D01*
X619595D01*
X620595Y87493D01*
Y83494D01*
X619595Y82494D01*
X617596D01*
X616597Y83494D01*
Y87493D01*
X622594Y82494D02*
Y86493D01*
X623594D01*
X624594Y85493D01*
Y82494D01*
Y85493D01*
X625594Y86493D01*
X626593Y85493D01*
Y82494D01*
X628593D02*
Y86493D01*
X629592D01*
X630592Y85493D01*
Y82494D01*
Y85493D01*
X631592Y86493D01*
X632591Y85493D01*
Y82494D01*
X634591D02*
X636590Y84493D01*
Y86493D01*
X634591Y88492D01*
X538622Y73492D02*
X542620D01*
Y72493D01*
X538622Y68494D01*
Y67494D01*
X544620Y72493D02*
X545619Y73492D01*
X547619D01*
X548619Y72493D01*
Y71493D01*
X547619Y70493D01*
X548619Y69494D01*
Y68494D01*
X547619Y67494D01*
X545619D01*
X544620Y68494D01*
Y69494D01*
X545619Y70493D01*
X544620Y71493D01*
Y72493D01*
X545619Y70493D02*
X547619D01*
X550618Y67494D02*
Y68494D01*
X551617D01*
Y67494D01*
X550618D01*
X555616Y73492D02*
X559615D01*
Y72493D01*
X555616Y68494D01*
Y67494D01*
X564613D02*
Y73492D01*
X561614Y70493D01*
X565613D01*
X567612Y67494D02*
Y71493D01*
X568612D01*
X569612Y70493D01*
Y67494D01*
Y70493D01*
X570611Y71493D01*
X571611Y70493D01*
Y67494D01*
X573610D02*
X575610D01*
X574610D01*
Y71493D01*
X573610D01*
X578609Y67494D02*
X580608D01*
X579608D01*
Y73492D01*
X578609D01*
X591605Y67494D02*
X589605Y69494D01*
Y71493D01*
X591605Y73492D01*
X598602Y67494D02*
X594604D01*
X598602Y71493D01*
Y72493D01*
X597603Y73492D01*
X595603D01*
X594604Y72493D01*
X600602Y67494D02*
Y68494D01*
X601601D01*
Y67494D01*
X600602D01*
X605600Y72493D02*
X606600Y73492D01*
X608599D01*
X609599Y72493D01*
Y68494D01*
X608599Y67494D01*
X606600D01*
X605600Y68494D01*
Y72493D01*
X611598D02*
X612598Y73492D01*
X614597D01*
X615597Y72493D01*
Y68494D01*
X614597Y67494D01*
X612598D01*
X611598Y68494D01*
Y72493D01*
X617596D02*
X618596Y73492D01*
X620595D01*
X621595Y72493D01*
Y68494D01*
X620595Y67494D01*
X618596D01*
X617596Y68494D01*
Y72493D01*
X623594Y67494D02*
Y71493D01*
X624594D01*
X625594Y70493D01*
Y67494D01*
Y70493D01*
X626593Y71493D01*
X627593Y70493D01*
Y67494D01*
X629592D02*
Y71493D01*
X630592D01*
X631592Y70493D01*
Y67494D01*
Y70493D01*
X632591Y71493D01*
X633591Y70493D01*
Y67494D01*
X635590D02*
X637590Y69494D01*
Y71493D01*
X635590Y73492D01*
X541621Y52494D02*
Y58492D01*
X538622Y55493D01*
X542620D01*
X544620Y57493D02*
X545619Y58492D01*
X547619D01*
X548619Y57493D01*
Y56493D01*
X547619Y55493D01*
X546619D01*
X547619D01*
X548619Y54493D01*
Y53494D01*
X547619Y52494D01*
X545619D01*
X544620Y53494D01*
X550618Y52494D02*
Y53494D01*
X551617D01*
Y52494D01*
X550618D01*
X555616Y57493D02*
X556616Y58492D01*
X558615D01*
X559615Y57493D01*
Y56493D01*
X558615Y55493D01*
X557616D01*
X558615D01*
X559615Y54493D01*
Y53494D01*
X558615Y52494D01*
X556616D01*
X555616Y53494D01*
X561614Y52494D02*
X563614D01*
X562614D01*
Y58492D01*
X561614Y57493D01*
X566613Y52494D02*
Y56493D01*
X567612D01*
X568612Y55493D01*
Y52494D01*
Y55493D01*
X569612Y56493D01*
X570611Y55493D01*
Y52494D01*
X572611D02*
X574610D01*
X573610D01*
Y56493D01*
X572611D01*
X577609Y52494D02*
X579608D01*
X578609D01*
Y58492D01*
X577609D01*
X590605Y52494D02*
X588605Y54493D01*
Y56493D01*
X590605Y58492D01*
X593604Y52494D02*
X595603D01*
X594604D01*
Y58492D01*
X593604Y57493D01*
X598602Y52494D02*
Y53494D01*
X599602D01*
Y52494D01*
X598602D01*
X603601D02*
X605600D01*
X604600D01*
Y58492D01*
X603601Y57493D01*
X608599D02*
X609599Y58492D01*
X611598D01*
X612598Y57493D01*
Y53494D01*
X611598Y52494D01*
X609599D01*
X608599Y53494D01*
Y57493D01*
X614597D02*
X615597Y58492D01*
X617596D01*
X618596Y57493D01*
Y53494D01*
X617596Y52494D01*
X615597D01*
X614597Y53494D01*
Y57493D01*
X620595Y52494D02*
Y56493D01*
X621595D01*
X622594Y55493D01*
Y52494D01*
Y55493D01*
X623594Y56493D01*
X624594Y55493D01*
Y52494D01*
X626593D02*
Y56493D01*
X627593D01*
X628593Y55493D01*
Y52494D01*
Y55493D01*
X629592Y56493D01*
X630592Y55493D01*
Y52494D01*
X632591D02*
X634591Y54493D01*
Y56493D01*
X632591Y58492D01*
X542620Y37494D02*
X538622D01*
X542620Y41493D01*
Y42492D01*
X541621Y43492D01*
X539621D01*
X538622Y42492D01*
X544620Y43492D02*
X548619D01*
Y42492D01*
X544620Y38494D01*
Y37494D01*
X550618D02*
Y38494D01*
X551617D01*
Y37494D01*
X550618D01*
X559615Y43492D02*
X555616D01*
Y40493D01*
X557616Y41493D01*
X558615D01*
X559615Y40493D01*
Y38494D01*
X558615Y37494D01*
X556616D01*
X555616Y38494D01*
X565613Y43492D02*
X563614Y42492D01*
X561614Y40493D01*
Y38494D01*
X562614Y37494D01*
X564613D01*
X565613Y38494D01*
Y39494D01*
X564613Y40493D01*
X561614D01*
X567612Y37494D02*
Y41493D01*
X568612D01*
X569612Y40493D01*
Y37494D01*
Y40493D01*
X570611Y41493D01*
X571611Y40493D01*
Y37494D01*
X573610D02*
X575610D01*
X574610D01*
Y41493D01*
X573610D01*
X578609Y37494D02*
X580608D01*
X579608D01*
Y43492D01*
X578609D01*
X591605Y37494D02*
X589605Y39494D01*
Y41493D01*
X591605Y43492D01*
X594604Y42492D02*
X595603Y43492D01*
X597603D01*
X598602Y42492D01*
Y38494D01*
X597603Y37494D01*
X595603D01*
X594604Y38494D01*
Y42492D01*
X600602Y37494D02*
Y38494D01*
X601601D01*
Y37494D01*
X600602D01*
X605600Y43492D02*
X609599D01*
Y42492D01*
X605600Y38494D01*
Y37494D01*
X611598Y42492D02*
X612598Y43492D01*
X614597D01*
X615597Y42492D01*
Y38494D01*
X614597Y37494D01*
X612598D01*
X611598Y38494D01*
Y42492D01*
X617596D02*
X618596Y43492D01*
X620595D01*
X621595Y42492D01*
Y38494D01*
X620595Y37494D01*
X618596D01*
X617596Y38494D01*
Y42492D01*
X623594Y37494D02*
Y41493D01*
X624594D01*
X625594Y40493D01*
Y37494D01*
Y40493D01*
X626593Y41493D01*
X627593Y40493D01*
Y37494D01*
X629592D02*
Y41493D01*
X630592D01*
X631592Y40493D01*
Y37494D01*
Y40493D01*
X632591Y41493D01*
X633591Y40493D01*
Y37494D01*
X635590D02*
X637590Y39494D01*
Y41493D01*
X635590Y43492D01*
X538622Y22494D02*
X540621D01*
X539621D01*
Y28492D01*
X538622Y27492D01*
X543620Y22494D02*
X545619D01*
X544620D01*
Y28492D01*
X543620Y27492D01*
X548619Y22494D02*
Y23494D01*
X549618D01*
Y22494D01*
X548619D01*
X553617Y27492D02*
X554616Y28492D01*
X556616D01*
X557616Y27492D01*
Y26493D01*
X556616Y25493D01*
X557616Y24494D01*
Y23494D01*
X556616Y22494D01*
X554616D01*
X553617Y23494D01*
Y24494D01*
X554616Y25493D01*
X553617Y26493D01*
Y27492D01*
X554616Y25493D02*
X556616D01*
X559615Y22494D02*
X561614D01*
X560615D01*
Y28492D01*
X559615Y27492D01*
X564613Y22494D02*
Y26493D01*
X565613D01*
X566613Y25493D01*
Y22494D01*
Y25493D01*
X567612Y26493D01*
X568612Y25493D01*
Y22494D01*
X570611D02*
X572611D01*
X571611D01*
Y26493D01*
X570611D01*
X575610Y22494D02*
X577609D01*
X576609D01*
Y28492D01*
X575610D01*
X588605Y22494D02*
X586606Y24494D01*
Y26493D01*
X588605Y28492D01*
X591605Y27492D02*
X592604Y28492D01*
X594604D01*
X595603Y27492D01*
Y23494D01*
X594604Y22494D01*
X592604D01*
X591605Y23494D01*
Y27492D01*
X597603Y22494D02*
Y23494D01*
X598602D01*
Y22494D01*
X597603D01*
X602601Y27492D02*
X603601Y28492D01*
X605600D01*
X606600Y27492D01*
Y26493D01*
X605600Y25493D01*
X604600D01*
X605600D01*
X606600Y24494D01*
Y23494D01*
X605600Y22494D01*
X603601D01*
X602601Y23494D01*
X608599Y27492D02*
X609599Y28492D01*
X611598D01*
X612598Y27492D01*
Y23494D01*
X611598Y22494D01*
X609599D01*
X608599Y23494D01*
Y27492D01*
X614597D02*
X615597Y28492D01*
X617596D01*
X618596Y27492D01*
Y23494D01*
X617596Y22494D01*
X615597D01*
X614597Y23494D01*
Y27492D01*
X620595Y22494D02*
Y26493D01*
X621595D01*
X622594Y25493D01*
Y22494D01*
Y25493D01*
X623594Y26493D01*
X624594Y25493D01*
Y22494D01*
X626593D02*
Y26493D01*
X627593D01*
X628593Y25493D01*
Y22494D01*
Y25493D01*
X629592Y26493D01*
X630592Y25493D01*
Y22494D01*
X632591D02*
X634591Y24494D01*
Y26493D01*
X632591Y28492D01*
X478638Y12493D02*
X479637Y13492D01*
X481637D01*
X482636Y12493D01*
Y11493D01*
X481637Y10493D01*
X480637D01*
X481637D01*
X482636Y9493D01*
Y8494D01*
X481637Y7494D01*
X479637D01*
X478638Y8494D01*
X484636Y12493D02*
X485635Y13492D01*
X487635D01*
X488634Y12493D01*
Y8494D01*
X487635Y7494D01*
X485635D01*
X484636Y8494D01*
Y12493D01*
X494632Y13492D02*
X490634D01*
Y10493D01*
X492633Y11493D01*
X493633D01*
X494632Y10493D01*
Y8494D01*
X493633Y7494D01*
X491633D01*
X490634Y8494D01*
X502630Y13492D02*
X506629D01*
X504629D01*
Y7494D01*
X509627D02*
X511627D01*
X512627Y8494D01*
Y10493D01*
X511627Y11493D01*
X509627D01*
X508628Y10493D01*
Y8494D01*
X509627Y7494D01*
X515626Y12493D02*
Y11493D01*
X514626D01*
X516625D01*
X515626D01*
Y8494D01*
X516625Y7494D01*
X520624Y11493D02*
X522623D01*
X523623Y10493D01*
Y7494D01*
X520624D01*
X519624Y8494D01*
X520624Y9493D01*
X523623D01*
X525622Y7494D02*
X527622D01*
X526622D01*
Y13492D01*
X525622D01*
X482636Y172494D02*
X478638D01*
X482636Y176493D01*
Y177493D01*
X481637Y178492D01*
X479637D01*
X478638Y177493D01*
X482636Y157494D02*
X478638D01*
X482636Y161493D01*
Y162493D01*
X481637Y163492D01*
X479637D01*
X478638Y162493D01*
Y147493D02*
X479637Y148492D01*
X481637D01*
X482636Y147493D01*
Y146493D01*
X481637Y145493D01*
X480637D01*
X481637D01*
X482636Y144493D01*
Y143494D01*
X481637Y142494D01*
X479637D01*
X478638Y143494D01*
X481637Y127494D02*
Y133492D01*
X478638Y130493D01*
X482636D01*
X481637Y112494D02*
Y118492D01*
X478638Y115493D01*
X482636D01*
Y103492D02*
X478638D01*
Y100493D01*
X480637Y101493D01*
X481637D01*
X482636Y100493D01*
Y98494D01*
X481637Y97494D01*
X479637D01*
X478638Y98494D01*
X482636Y88492D02*
X478638D01*
Y85493D01*
X480637Y86493D01*
X481637D01*
X482636Y85493D01*
Y83494D01*
X481637Y82494D01*
X479637D01*
X478638Y83494D01*
Y72493D02*
X479637Y73492D01*
X481637D01*
X482636Y72493D01*
Y71493D01*
X481637Y70493D01*
X482636Y69494D01*
Y68494D01*
X481637Y67494D01*
X479637D01*
X478638Y68494D01*
Y69494D01*
X479637Y70493D01*
X478638Y71493D01*
Y72493D01*
X479637Y70493D02*
X481637D01*
X482636Y52494D02*
X478638D01*
X482636Y56493D01*
Y57493D01*
X481637Y58492D01*
X479637D01*
X478638Y57493D01*
X488634Y58492D02*
X486635Y57493D01*
X484636Y55493D01*
Y53494D01*
X485635Y52494D01*
X487635D01*
X488634Y53494D01*
Y54493D01*
X487635Y55493D01*
X484636D01*
X482636Y43492D02*
X480637Y42492D01*
X478638Y40493D01*
Y38494D01*
X479637Y37494D01*
X481637D01*
X482636Y38494D01*
Y39494D01*
X481637Y40493D01*
X478638D01*
X484636Y42492D02*
X485635Y43492D01*
X487635D01*
X488634Y42492D01*
Y38494D01*
X487635Y37494D01*
X485635D01*
X484636Y38494D01*
Y42492D01*
X478638Y22494D02*
X480637D01*
X479637D01*
Y28492D01*
X478638Y27492D01*
X483636D02*
X484636Y28492D01*
X486635D01*
X487635Y27492D01*
Y26493D01*
X486635Y25493D01*
X487635Y24494D01*
Y23494D01*
X486635Y22494D01*
X484636D01*
X483636Y23494D01*
Y24494D01*
X484636Y25493D01*
X483636Y26493D01*
Y27492D01*
X484636Y25493D02*
X486635D01*
X493633Y28492D02*
X491633Y27492D01*
X489634Y25493D01*
Y23494D01*
X490634Y22494D01*
X492633D01*
X493633Y23494D01*
Y24494D01*
X492633Y25493D01*
X489634D01*
X606597Y-15001D02*
X610596D01*
X606597Y-13002D02*
X610596D01*
X618593Y-17001D02*
Y-11003D01*
X621592D01*
X622592Y-12002D01*
Y-14002D01*
X621592Y-15001D01*
X618593D01*
X620592D02*
X622592Y-17001D01*
X625591D02*
X627590D01*
X628590Y-16001D01*
Y-14002D01*
X627590Y-13002D01*
X625591D01*
X624591Y-14002D01*
Y-16001D01*
X625591Y-17001D01*
X630589Y-13002D02*
Y-16001D01*
X631589Y-17001D01*
X634588D01*
Y-13002D01*
X637587Y-12002D02*
Y-13002D01*
X636587D01*
X638587D01*
X637587D01*
Y-16001D01*
X638587Y-17001D01*
X644585D02*
X642585D01*
X641586Y-16001D01*
Y-14002D01*
X642585Y-13002D01*
X644585D01*
X645584Y-14002D01*
Y-15001D01*
X641586D01*
X651582Y-11003D02*
Y-17001D01*
X648583D01*
X647584Y-16001D01*
Y-14002D01*
X648583Y-13002D01*
X651582D01*
X659580Y-17001D02*
Y-11003D01*
X662579D01*
X663579Y-12002D01*
Y-14002D01*
X662579Y-15001D01*
X659580D01*
X666577Y-13002D02*
X668577D01*
X669577Y-14002D01*
Y-17001D01*
X666577D01*
X665578Y-16001D01*
X666577Y-15001D01*
X669577D01*
X672576Y-12002D02*
Y-13002D01*
X671576D01*
X673575D01*
X672576D01*
Y-16001D01*
X673575Y-17001D01*
X676574Y-11003D02*
Y-17001D01*
Y-14002D01*
X677574Y-13002D01*
X679573D01*
X680573Y-14002D01*
Y-17001D01*
X688570Y-11003D02*
Y-17001D01*
X692569D01*
X697568D02*
X695568D01*
X694568Y-16001D01*
Y-14002D01*
X695568Y-13002D01*
X697568D01*
X698567Y-14002D01*
Y-15001D01*
X694568D01*
X700567Y-17001D02*
Y-13002D01*
X703566D01*
X704565Y-14002D01*
Y-17001D01*
X708564Y-19000D02*
X709564D01*
X710563Y-18000D01*
Y-13002D01*
X707564D01*
X706565Y-14002D01*
Y-16001D01*
X707564Y-17001D01*
X710563D01*
X713562Y-12002D02*
Y-13002D01*
X712563D01*
X714562D01*
X713562D01*
Y-16001D01*
X714562Y-17001D01*
X717561Y-11003D02*
Y-17001D01*
Y-14002D01*
X718561Y-13002D01*
X720560D01*
X721560Y-14002D01*
Y-17001D01*
X729557Y-14002D02*
X733556D01*
X731557Y-12002D02*
Y-16001D01*
X741553Y-11003D02*
X745552D01*
X743553D01*
Y-17001D01*
X748551D02*
X750550D01*
X751550Y-16001D01*
Y-14002D01*
X750550Y-13002D01*
X748551D01*
X747551Y-14002D01*
Y-16001D01*
X748551Y-17001D01*
X754549D02*
X756548D01*
X757548Y-16001D01*
Y-14002D01*
X756548Y-13002D01*
X754549D01*
X753549Y-14002D01*
Y-16001D01*
X754549Y-17001D01*
X759548D02*
X761547D01*
X760547D01*
Y-11003D01*
X759548D01*
X774543Y-12002D02*
X773543Y-11003D01*
X771544D01*
X770544Y-12002D01*
Y-13002D01*
X771544Y-14002D01*
X773543D01*
X774543Y-15001D01*
Y-16001D01*
X773543Y-17001D01*
X771544D01*
X770544Y-16001D01*
X776542Y-17001D02*
X778541D01*
X777542D01*
Y-13002D01*
X776542D01*
X781540D02*
X785539D01*
X781540Y-17001D01*
X785539D01*
X790537D02*
X788538D01*
X787538Y-16001D01*
Y-14002D01*
X788538Y-13002D01*
X790537D01*
X791537Y-14002D01*
Y-15001D01*
X787538D01*
X799535D02*
X803533D01*
X799535Y-13002D02*
X803533D01*
X815529Y-12002D02*
X814530Y-11003D01*
X812530D01*
X811531Y-12002D01*
Y-13002D01*
X812530Y-14002D01*
X814530D01*
X815529Y-15001D01*
Y-16001D01*
X814530Y-17001D01*
X812530D01*
X811531Y-16001D01*
X817529Y-17001D02*
X819528D01*
X818528D01*
Y-11003D01*
X817529D01*
X823527Y-17001D02*
X825526D01*
X826526Y-16001D01*
Y-14002D01*
X825526Y-13002D01*
X823527D01*
X822527Y-14002D01*
Y-16001D01*
X823527Y-17001D01*
X829525Y-12002D02*
Y-13002D01*
X828525D01*
X830525D01*
X829525D01*
Y-16001D01*
X830525Y-17001D01*
X839522D02*
X841521D01*
X840521D01*
Y-11003D01*
X839522D01*
X847519Y-17001D02*
X845520D01*
X844520Y-16001D01*
Y-14002D01*
X845520Y-13002D01*
X847519D01*
X848519Y-14002D01*
Y-15001D01*
X844520D01*
X850518Y-17001D02*
Y-13002D01*
X853517D01*
X854517Y-14002D01*
Y-17001D01*
X858515Y-19000D02*
X859515D01*
X860515Y-18000D01*
Y-13002D01*
X857516D01*
X856516Y-14002D01*
Y-16001D01*
X857516Y-17001D01*
X860515D01*
X863514Y-12002D02*
Y-13002D01*
X862514D01*
X864513D01*
X863514D01*
Y-16001D01*
X864513Y-17001D01*
X867513Y-11003D02*
Y-17001D01*
Y-14002D01*
X868512Y-13002D01*
X870512D01*
X871511Y-14002D01*
Y-17001D01*
X880508Y-13002D02*
X882508D01*
X883507Y-14002D01*
Y-17001D01*
X880508D01*
X879509Y-16001D01*
X880508Y-15001D01*
X883507D01*
X885507Y-17001D02*
X888506D01*
X889505Y-16001D01*
X888506Y-15001D01*
X886506D01*
X885507Y-14002D01*
X886506Y-13002D01*
X889505D01*
X901501Y-11003D02*
Y-17001D01*
X898503D01*
X897503Y-16001D01*
Y-14002D01*
X898503Y-13002D01*
X901501D01*
X906500Y-17001D02*
X904501D01*
X903501Y-16001D01*
Y-14002D01*
X904501Y-13002D01*
X906500D01*
X907500Y-14002D01*
Y-15001D01*
X903501D01*
X910499Y-17001D02*
Y-12002D01*
Y-14002D01*
X909499D01*
X911498D01*
X910499D01*
Y-12002D01*
X911498Y-11003D01*
X914497Y-17001D02*
X916497D01*
X915497D01*
Y-13002D01*
X914497D01*
X919496Y-17001D02*
Y-13002D01*
X922495D01*
X923494Y-14002D01*
Y-17001D01*
X928493D02*
X926493D01*
X925494Y-16001D01*
Y-14002D01*
X926493Y-13002D01*
X928493D01*
X929492Y-14002D01*
Y-15001D01*
X925494D01*
X935491Y-11003D02*
Y-17001D01*
X932491D01*
X931492Y-16001D01*
Y-14002D01*
X932491Y-13002D01*
X935491D01*
X943488Y-17001D02*
X945487D01*
X944488D01*
Y-13002D01*
X943488D01*
X948486Y-17001D02*
Y-13002D01*
X951485D01*
X952485Y-14002D01*
Y-17001D01*
X961482Y-12002D02*
Y-13002D01*
X960483D01*
X962482D01*
X961482D01*
Y-16001D01*
X962482Y-17001D01*
X965481Y-11003D02*
Y-17001D01*
Y-14002D01*
X966481Y-13002D01*
X968480D01*
X969479Y-14002D01*
Y-17001D01*
X974478D02*
X972479D01*
X971479Y-16001D01*
Y-14002D01*
X972479Y-13002D01*
X974478D01*
X975478Y-14002D01*
Y-15001D01*
X971479D01*
X983475Y-17001D02*
Y-11003D01*
X986474D01*
X987474Y-12002D01*
Y-14002D01*
X986474Y-15001D01*
X983475D01*
X993472Y-12002D02*
X992472Y-11003D01*
X990473D01*
X989473Y-12002D01*
Y-16001D01*
X990473Y-17001D01*
X992472D01*
X993472Y-16001D01*
X995471Y-11003D02*
Y-17001D01*
X998470D01*
X999470Y-16001D01*
Y-15001D01*
X998470Y-14002D01*
X995471D01*
X998470D01*
X999470Y-13002D01*
Y-12002D01*
X998470Y-11003D01*
X995471D01*
X1007467Y-17001D02*
X1009467D01*
X1008467D01*
Y-11003D01*
X1007467D01*
X1013465Y-13002D02*
X1015465D01*
X1016464Y-14002D01*
Y-17001D01*
X1013465D01*
X1012466Y-16001D01*
X1013465Y-15001D01*
X1016464D01*
X1018464Y-13002D02*
Y-16001D01*
X1019463Y-17001D01*
X1022462D01*
Y-18000D01*
X1021463Y-19000D01*
X1020463D01*
X1022462Y-17001D02*
Y-13002D01*
X1025461Y-17001D02*
X1027461D01*
X1028461Y-16001D01*
Y-14002D01*
X1027461Y-13002D01*
X1025461D01*
X1024462Y-14002D01*
Y-16001D01*
X1025461Y-17001D01*
X1030460Y-13002D02*
Y-16001D01*
X1031460Y-17001D01*
X1034459D01*
Y-13002D01*
X1037458Y-12002D02*
Y-13002D01*
X1036458D01*
X1038457D01*
X1037458D01*
Y-16001D01*
X1038457Y-17001D01*
X641586Y-5004D02*
X645584D01*
X641586Y-3005D02*
X645584D01*
X657581Y-2005D02*
X656581Y-1005D01*
X654581D01*
X653582Y-2005D01*
Y-6004D01*
X654581Y-7003D01*
X656581D01*
X657581Y-6004D01*
X660579Y-3005D02*
X662579D01*
X663579Y-4004D01*
Y-7003D01*
X660579D01*
X659580Y-6004D01*
X660579Y-5004D01*
X663579D01*
X665578Y-7003D02*
X667577D01*
X666577D01*
Y-1005D01*
X665578D01*
X674575Y-3005D02*
X671576D01*
X670576Y-4004D01*
Y-6004D01*
X671576Y-7003D01*
X674575D01*
X676574Y-3005D02*
Y-6004D01*
X677574Y-7003D01*
X680573D01*
Y-3005D01*
X682572Y-7003D02*
X684572D01*
X683572D01*
Y-1005D01*
X682572D01*
X688570Y-3005D02*
X690570D01*
X691570Y-4004D01*
Y-7003D01*
X688570D01*
X687571Y-6004D01*
X688570Y-5004D01*
X691570D01*
X694568Y-2005D02*
Y-3005D01*
X693569D01*
X695568D01*
X694568D01*
Y-6004D01*
X695568Y-7003D01*
X701566D02*
X699567D01*
X698567Y-6004D01*
Y-4004D01*
X699567Y-3005D01*
X701566D01*
X702566Y-4004D01*
Y-5004D01*
X698567D01*
X708564Y-1005D02*
Y-7003D01*
X705565D01*
X704565Y-6004D01*
Y-4004D01*
X705565Y-3005D01*
X708564D01*
X717561Y-7003D02*
Y-2005D01*
Y-4004D01*
X716561D01*
X718561D01*
X717561D01*
Y-2005D01*
X718561Y-1005D01*
X721560Y-3005D02*
Y-7003D01*
Y-5004D01*
X722559Y-4004D01*
X723559Y-3005D01*
X724559D01*
X728557Y-7003D02*
X730557D01*
X731557Y-6004D01*
Y-4004D01*
X730557Y-3005D01*
X728557D01*
X727558Y-4004D01*
Y-6004D01*
X728557Y-7003D01*
X733556D02*
Y-3005D01*
X734556D01*
X735555Y-4004D01*
Y-7003D01*
Y-4004D01*
X736555Y-3005D01*
X737555Y-4004D01*
Y-7003D01*
X746552Y-2005D02*
Y-3005D01*
X745552D01*
X747551D01*
X746552D01*
Y-6004D01*
X747551Y-7003D01*
X751550D02*
X753549D01*
X754549Y-6004D01*
Y-4004D01*
X753549Y-3005D01*
X751550D01*
X750550Y-4004D01*
Y-6004D01*
X751550Y-7003D01*
X757548D02*
X759548D01*
X760547Y-6004D01*
Y-4004D01*
X759548Y-3005D01*
X757548D01*
X756548Y-4004D01*
Y-6004D01*
X757548Y-7003D01*
X762546D02*
X764546D01*
X763546D01*
Y-1005D01*
X762546D01*
X773543Y-7003D02*
X776542D01*
X777542Y-6004D01*
X776542Y-5004D01*
X774543D01*
X773543Y-4004D01*
X774543Y-3005D01*
X777542D01*
X780541Y-2005D02*
Y-3005D01*
X779541D01*
X781540D01*
X780541D01*
Y-6004D01*
X781540Y-7003D01*
X785539Y-3005D02*
X787538D01*
X788538Y-4004D01*
Y-7003D01*
X785539D01*
X784539Y-6004D01*
X785539Y-5004D01*
X788538D01*
X790537Y-3005D02*
Y-7003D01*
Y-5004D01*
X791537Y-4004D01*
X792537Y-3005D01*
X793537D01*
X797535Y-2005D02*
Y-3005D01*
X796535D01*
X798535D01*
X797535D01*
Y-6004D01*
X798535Y-7003D01*
X811531Y-3005D02*
X808532D01*
X807532Y-4004D01*
Y-6004D01*
X808532Y-7003D01*
X811531D01*
X816529D02*
X814530D01*
X813530Y-6004D01*
Y-4004D01*
X814530Y-3005D01*
X816529D01*
X817529Y-4004D01*
Y-5004D01*
X813530D01*
X819528Y-7003D02*
Y-3005D01*
X822527D01*
X823527Y-4004D01*
Y-7003D01*
X826526Y-2005D02*
Y-3005D01*
X825526D01*
X827526D01*
X826526D01*
Y-6004D01*
X827526Y-7003D01*
X830525Y-3005D02*
Y-7003D01*
Y-5004D01*
X831524Y-4004D01*
X832524Y-3005D01*
X833523D01*
X839522Y-7003D02*
X837522D01*
X836523Y-6004D01*
Y-4004D01*
X837522Y-3005D01*
X839522D01*
X840521Y-4004D01*
Y-5004D01*
X836523D01*
X848519Y-9003D02*
Y-3005D01*
X851518D01*
X852517Y-4004D01*
Y-6004D01*
X851518Y-7003D01*
X848519D01*
X855516D02*
X857516D01*
X858515Y-6004D01*
Y-4004D01*
X857516Y-3005D01*
X855516D01*
X854517Y-4004D01*
Y-6004D01*
X855516Y-7003D01*
X860515D02*
X863514D01*
X864513Y-6004D01*
X863514Y-5004D01*
X861514D01*
X860515Y-4004D01*
X861514Y-3005D01*
X864513D01*
X866513Y-7003D02*
X868512D01*
X867513D01*
Y-3005D01*
X866513D01*
X872511Y-2005D02*
Y-3005D01*
X871511D01*
X873511D01*
X872511D01*
Y-6004D01*
X873511Y-7003D01*
X876510D02*
X878509D01*
X877509D01*
Y-3005D01*
X876510D01*
X882508Y-7003D02*
X884507D01*
X885507Y-6004D01*
Y-4004D01*
X884507Y-3005D01*
X882508D01*
X881508Y-4004D01*
Y-6004D01*
X882508Y-7003D01*
X887506D02*
Y-3005D01*
X890505D01*
X891505Y-4004D01*
Y-7003D01*
X900502Y-2005D02*
Y-3005D01*
X899502D01*
X901501D01*
X900502D01*
Y-6004D01*
X901501Y-7003D01*
X905500D02*
X907500D01*
X908499Y-6004D01*
Y-4004D01*
X907500Y-3005D01*
X905500D01*
X904500Y-4004D01*
Y-6004D01*
X905500Y-7003D01*
X917496Y-2005D02*
Y-3005D01*
X916497D01*
X918496D01*
X917496D01*
Y-6004D01*
X918496Y-7003D01*
X922495D02*
X924494D01*
X925494Y-6004D01*
Y-4004D01*
X924494Y-3005D01*
X922495D01*
X921495Y-4004D01*
Y-6004D01*
X922495Y-7003D01*
X928493D02*
X930492D01*
X931492Y-6004D01*
Y-4004D01*
X930492Y-3005D01*
X928493D01*
X927493Y-4004D01*
Y-6004D01*
X928493Y-7003D01*
X933491D02*
X935491D01*
X934491D01*
Y-1005D01*
X933491D01*
X947487Y-7003D02*
X945487D01*
X944488Y-6004D01*
Y-4004D01*
X945487Y-3005D01*
X947487D01*
X948486Y-4004D01*
Y-5004D01*
X944488D01*
X950486Y-7003D02*
Y-3005D01*
X953485D01*
X954484Y-4004D01*
Y-7003D01*
X960482Y-1005D02*
Y-7003D01*
X957483D01*
X956484Y-6004D01*
Y-4004D01*
X957483Y-3005D01*
X960482D01*
X972479D02*
X969479D01*
X968480Y-4004D01*
Y-6004D01*
X969479Y-7003D01*
X972479D01*
X977477D02*
X975478D01*
X974478Y-6004D01*
Y-4004D01*
X975478Y-3005D01*
X977477D01*
X978477Y-4004D01*
Y-5004D01*
X974478D01*
X980476Y-7003D02*
Y-3005D01*
X983475D01*
X984475Y-4004D01*
Y-7003D01*
X987474Y-2005D02*
Y-3005D01*
X986474D01*
X988473D01*
X987474D01*
Y-6004D01*
X988473Y-7003D01*
X991472Y-3005D02*
Y-7003D01*
Y-5004D01*
X992472Y-4004D01*
X993472Y-3005D01*
X994471D01*
X1000469Y-7003D02*
X998470D01*
X997470Y-6004D01*
Y-4004D01*
X998470Y-3005D01*
X1000469D01*
X1001469Y-4004D01*
Y-5004D01*
X997470D01*
X1009467Y-9003D02*
Y-3005D01*
X1012466D01*
X1013465Y-4004D01*
Y-6004D01*
X1012466Y-7003D01*
X1009467D01*
X1016464D02*
X1018464D01*
X1019463Y-6004D01*
Y-4004D01*
X1018464Y-3005D01*
X1016464D01*
X1015465Y-4004D01*
Y-6004D01*
X1016464Y-7003D01*
X1021463D02*
X1024462D01*
X1025461Y-6004D01*
X1024462Y-5004D01*
X1022462D01*
X1021463Y-4004D01*
X1022462Y-3005D01*
X1025461D01*
X1027461Y-7003D02*
X1029460D01*
X1028460D01*
Y-3005D01*
X1027461D01*
X1033459Y-2005D02*
Y-3005D01*
X1032459D01*
X1034459D01*
X1033459D01*
Y-6004D01*
X1034459Y-7003D01*
X1037457D02*
X1039457D01*
X1038457D01*
Y-3005D01*
X1037457D01*
X1043456Y-7003D02*
X1045455D01*
X1046455Y-6004D01*
Y-4004D01*
X1045455Y-3005D01*
X1043456D01*
X1042456Y-4004D01*
Y-6004D01*
X1043456Y-7003D01*
X1048454D02*
Y-3005D01*
X1051453D01*
X1052453Y-4004D01*
Y-7003D01*
X1054452D02*
Y-6004D01*
X1055452D01*
Y-7003D01*
X1054452D01*
G54D14*
X1504143Y194692D02*
Y187494D01*
Y191093D01*
X1508942D01*
Y194692D01*
Y187494D01*
X1512541D02*
X1514940D01*
X1516139Y188694D01*
Y191093D01*
X1514940Y192293D01*
X1512541D01*
X1511341Y191093D01*
Y188694D01*
X1512541Y187494D01*
X1518539D02*
X1520938D01*
X1519738D01*
Y194692D01*
X1518539D01*
X1528135Y187494D02*
X1525736D01*
X1524537Y188694D01*
Y191093D01*
X1525736Y192293D01*
X1528135D01*
X1529335Y191093D01*
Y189893D01*
X1524537D01*
X1538932Y194692D02*
X1543731D01*
X1541331D01*
Y187494D01*
X1547329D02*
X1549728D01*
X1550928Y188694D01*
Y191093D01*
X1549728Y192293D01*
X1547329D01*
X1546130Y191093D01*
Y188694D01*
X1547329Y187494D01*
X1553327D02*
X1555727D01*
X1554527D01*
Y194692D01*
X1553327D01*
X1562924Y187494D02*
X1560525D01*
X1559325Y188694D01*
Y191093D01*
X1560525Y192293D01*
X1562924D01*
X1564124Y191093D01*
Y189893D01*
X1559325D01*
X1566523Y192293D02*
Y187494D01*
Y189893D01*
X1567723Y191093D01*
X1568922Y192293D01*
X1570122D01*
X1574920D02*
X1577320D01*
X1578519Y191093D01*
Y187494D01*
X1574920D01*
X1573721Y188694D01*
X1574920Y189893D01*
X1578519D01*
X1580918Y187494D02*
Y192293D01*
X1584517D01*
X1585717Y191093D01*
Y187494D01*
X1592915Y192293D02*
X1589316D01*
X1588116Y191093D01*
Y188694D01*
X1589316Y187494D01*
X1592915D01*
X1598913D02*
X1596513D01*
X1595314Y188694D01*
Y191093D01*
X1596513Y192293D01*
X1598913D01*
X1600112Y191093D01*
Y189893D01*
X1595314D01*
X1612108Y187494D02*
X1609709Y189893D01*
Y192293D01*
X1612108Y194692D01*
X1615707Y191093D02*
X1620506D01*
X1622905Y187494D02*
X1625304Y189893D01*
Y192293D01*
X1622905Y194692D01*
X1370782D02*
Y187494D01*
Y191093D01*
X1375581D01*
Y194692D01*
Y187494D01*
X1379180D02*
X1381579D01*
X1382779Y188694D01*
Y191093D01*
X1381579Y192293D01*
X1379180D01*
X1377980Y191093D01*
Y188694D01*
X1379180Y187494D01*
X1385178D02*
X1387577D01*
X1386377D01*
Y194692D01*
X1385178D01*
X1394775Y187494D02*
X1392375D01*
X1391176Y188694D01*
Y191093D01*
X1392375Y192293D01*
X1394775D01*
X1395974Y191093D01*
Y189893D01*
X1391176D01*
X1405571Y194692D02*
X1410370D01*
X1407971D01*
Y187494D01*
X1413968D02*
X1416368D01*
X1417567Y188694D01*
Y191093D01*
X1416368Y192293D01*
X1413968D01*
X1412769Y191093D01*
Y188694D01*
X1413968Y187494D01*
X1419967D02*
X1422366D01*
X1421166D01*
Y194692D01*
X1419967D01*
X1429564Y187494D02*
X1427164D01*
X1425965Y188694D01*
Y191093D01*
X1427164Y192293D01*
X1429564D01*
X1430763Y191093D01*
Y189893D01*
X1425965D01*
X1433162Y192293D02*
Y187494D01*
Y189893D01*
X1434362Y191093D01*
X1435561Y192293D01*
X1436761D01*
X1441560D02*
X1443959D01*
X1445158Y191093D01*
Y187494D01*
X1441560D01*
X1440360Y188694D01*
X1441560Y189893D01*
X1445158D01*
X1447558Y187494D02*
Y192293D01*
X1451157D01*
X1452356Y191093D01*
Y187494D01*
X1459554Y192293D02*
X1455955D01*
X1454755Y191093D01*
Y188694D01*
X1455955Y187494D01*
X1459554D01*
X1465552D02*
X1463153D01*
X1461953Y188694D01*
Y191093D01*
X1463153Y192293D01*
X1465552D01*
X1466751Y191093D01*
Y189893D01*
X1461953D01*
X1478748Y187494D02*
X1476348Y189893D01*
Y192293D01*
X1478748Y194692D01*
X1482346Y191093D02*
X1487145D01*
X1484746Y193492D02*
Y188694D01*
X1489544Y187494D02*
X1491943Y189893D01*
Y192293D01*
X1489544Y194692D01*
X1285406D02*
Y187494D01*
X1289005D01*
X1290205Y188694D01*
Y193492D01*
X1289005Y194692D01*
X1285406D01*
X1296203Y187494D02*
X1293804D01*
X1292604Y188694D01*
Y191093D01*
X1293804Y192293D01*
X1296203D01*
X1297402Y191093D01*
Y189893D01*
X1292604D01*
X1299802Y187494D02*
X1303400D01*
X1304600Y188694D01*
X1303400Y189893D01*
X1301001D01*
X1299802Y191093D01*
X1301001Y192293D01*
X1304600D01*
X1311798D02*
X1308199D01*
X1306999Y191093D01*
Y188694D01*
X1308199Y187494D01*
X1311798D01*
X1314197Y192293D02*
Y187494D01*
Y189893D01*
X1315396Y191093D01*
X1316596Y192293D01*
X1317796D01*
X1321395Y187494D02*
X1323794D01*
X1322594D01*
Y192293D01*
X1321395D01*
X1327393Y185095D02*
Y192293D01*
X1330991D01*
X1332191Y191093D01*
Y188694D01*
X1330991Y187494D01*
X1327393D01*
X1335790Y193492D02*
Y192293D01*
X1334590D01*
X1336989D01*
X1335790D01*
Y188694D01*
X1336989Y187494D01*
X1340588D02*
X1342988D01*
X1341788D01*
Y192293D01*
X1340588D01*
X1347786Y187494D02*
X1350185D01*
X1351385Y188694D01*
Y191093D01*
X1350185Y192293D01*
X1347786D01*
X1346586Y191093D01*
Y188694D01*
X1347786Y187494D01*
X1353784D02*
Y192293D01*
X1357383D01*
X1358582Y191093D01*
Y187494D01*
X1094464Y194692D02*
X1099263D01*
X1096864D01*
Y187494D01*
X1105261D02*
X1102862D01*
X1101662Y188694D01*
Y191093D01*
X1102862Y192293D01*
X1105261D01*
X1106460Y191093D01*
Y189893D01*
X1101662D01*
X1108860Y187494D02*
Y192293D01*
X1110059D01*
X1111259Y191093D01*
Y187494D01*
Y191093D01*
X1112459Y192293D01*
X1113658Y191093D01*
Y187494D01*
X1116057Y185095D02*
Y192293D01*
X1119656D01*
X1120856Y191093D01*
Y188694D01*
X1119656Y187494D01*
X1116057D01*
X1123255D02*
X1125654D01*
X1124455D01*
Y194692D01*
X1123255D01*
X1130453Y192293D02*
X1132852D01*
X1134052Y191093D01*
Y187494D01*
X1130453D01*
X1129253Y188694D01*
X1130453Y189893D01*
X1134052D01*
X1137650Y193492D02*
Y192293D01*
X1136451D01*
X1138850D01*
X1137650D01*
Y188694D01*
X1138850Y187494D01*
X1146048D02*
X1143649D01*
X1142449Y188694D01*
Y191093D01*
X1143649Y192293D01*
X1146048D01*
X1147247Y191093D01*
Y189893D01*
X1142449D01*
X985496Y187494D02*
Y194692D01*
X989095D01*
X990294Y193492D01*
Y191093D01*
X989095Y189893D01*
X985496D01*
X993893Y192293D02*
X996293D01*
X997492Y191093D01*
Y187494D01*
X993893D01*
X992694Y188694D01*
X993893Y189893D01*
X997492D01*
X1004690Y194692D02*
Y187494D01*
X1001091D01*
X999891Y188694D01*
Y191093D01*
X1001091Y192293D01*
X1004690D01*
X1019085Y193492D02*
X1017886Y194692D01*
X1015486D01*
X1014287Y193492D01*
Y192293D01*
X1015486Y191093D01*
X1017886D01*
X1019085Y189893D01*
Y188694D01*
X1017886Y187494D01*
X1015486D01*
X1014287Y188694D01*
X1021484Y194692D02*
Y187494D01*
Y191093D01*
X1022684Y192293D01*
X1025083D01*
X1026283Y191093D01*
Y187494D01*
X1029882Y192293D02*
X1032281D01*
X1033481Y191093D01*
Y187494D01*
X1029882D01*
X1028682Y188694D01*
X1029882Y189893D01*
X1033481D01*
X1035880Y185095D02*
Y192293D01*
X1039479D01*
X1040678Y191093D01*
Y188694D01*
X1039479Y187494D01*
X1035880D01*
X1046676D02*
X1044277D01*
X1043077Y188694D01*
Y191093D01*
X1044277Y192293D01*
X1046676D01*
X1047876Y191093D01*
Y189893D01*
X1043077D01*
X926511Y194692D02*
Y189893D01*
X928910Y187494D01*
X931310Y189893D01*
Y194692D01*
X933709Y187494D02*
X936108D01*
X934908D01*
Y192293D01*
X933709D01*
X940907D02*
X943306D01*
X944505Y191093D01*
Y187494D01*
X940907D01*
X939707Y188694D01*
X940907Y189893D01*
X944505D01*
X946905Y187494D02*
X951703Y192293D01*
X954102Y187494D02*
Y194692D01*
X957701D01*
X958901Y193492D01*
Y191093D01*
X957701Y189893D01*
X954102D01*
X962500Y192293D02*
X964899D01*
X966098Y191093D01*
Y187494D01*
X962500D01*
X961300Y188694D01*
X962500Y189893D01*
X966098D01*
X973296Y194692D02*
Y187494D01*
X969697D01*
X968498Y188694D01*
Y191093D01*
X969697Y192293D01*
X973296D01*
X776556Y194692D02*
Y187494D01*
X780155D01*
X781355Y188694D01*
Y193492D01*
X780155Y194692D01*
X776556D01*
X783754Y192293D02*
Y187494D01*
Y189893D01*
X784953Y191093D01*
X786153Y192293D01*
X787353D01*
X790951Y187494D02*
X793351D01*
X792151D01*
Y192293D01*
X790951D01*
X796950Y187494D02*
X799349D01*
X798149D01*
Y194692D01*
X796950D01*
X802948Y187494D02*
X805347D01*
X804147D01*
Y194692D01*
X802948D01*
X816143D02*
Y187494D01*
X820942D01*
X824541Y192293D02*
X826940D01*
X828139Y191093D01*
Y187494D01*
X824541D01*
X823341Y188694D01*
X824541Y189893D01*
X828139D01*
X830539Y192293D02*
Y188694D01*
X831738Y187494D01*
X835337D01*
Y186295D01*
X834138Y185095D01*
X832938D01*
X835337Y187494D02*
Y192293D01*
X841335Y187494D02*
X838936D01*
X837736Y188694D01*
Y191093D01*
X838936Y192293D01*
X841335D01*
X842535Y191093D01*
Y189893D01*
X837736D01*
X844934Y192293D02*
Y187494D01*
Y189893D01*
X846134Y191093D01*
X847333Y192293D01*
X848533D01*
X859329Y187494D02*
Y194692D01*
X862928D01*
X864128Y193492D01*
Y191093D01*
X862928Y189893D01*
X859329D01*
X867727Y192293D02*
X870126D01*
X871325Y191093D01*
Y187494D01*
X867727D01*
X866527Y188694D01*
X867727Y189893D01*
X871325D01*
X873725Y187494D02*
X876124D01*
X874924D01*
Y192293D01*
X873725D01*
X879723D02*
Y187494D01*
Y189893D01*
X880922Y191093D01*
X882122Y192293D01*
X883322D01*
X703176Y194692D02*
Y187494D01*
Y191093D01*
X707974D01*
Y194692D01*
Y187494D01*
X711573D02*
X713973D01*
X715172Y188694D01*
Y191093D01*
X713973Y192293D01*
X711573D01*
X710374Y191093D01*
Y188694D01*
X711573Y187494D01*
X717571D02*
X719971D01*
X718771D01*
Y194692D01*
X717571D01*
X727168Y187494D02*
X724769D01*
X723569Y188694D01*
Y191093D01*
X724769Y192293D01*
X727168D01*
X728368Y191093D01*
Y189893D01*
X723569D01*
X737965Y194692D02*
X742763D01*
X740364D01*
Y187494D01*
X745162Y192293D02*
Y188694D01*
X746362Y187494D01*
X749961D01*
Y186295D01*
X748761Y185095D01*
X747562D01*
X749961Y187494D02*
Y192293D01*
X752360Y185095D02*
Y192293D01*
X755959D01*
X757159Y191093D01*
Y188694D01*
X755959Y187494D01*
X752360D01*
X763157D02*
X760757D01*
X759558Y188694D01*
Y191093D01*
X760757Y192293D01*
X763157D01*
X764356Y191093D01*
Y189893D01*
X759558D01*
X652588Y187494D02*
Y194692D01*
X656187D01*
X657387Y193492D01*
Y191093D01*
X656187Y189893D01*
X652588D01*
X659786Y187494D02*
X662185D01*
X660986D01*
Y194692D01*
X659786D01*
X666984Y192293D02*
X669383D01*
X670583Y191093D01*
Y187494D01*
X666984D01*
X665784Y188694D01*
X666984Y189893D01*
X670583D01*
X674181Y193492D02*
Y192293D01*
X672982D01*
X675381D01*
X674181D01*
Y188694D01*
X675381Y187494D01*
X682579D02*
X680180D01*
X678980Y188694D01*
Y191093D01*
X680180Y192293D01*
X682579D01*
X683778Y191093D01*
Y189893D01*
X678980D01*
X690976Y194692D02*
Y187494D01*
X687377D01*
X686177Y188694D01*
Y191093D01*
X687377Y192293D01*
X690976D01*
X538622Y194692D02*
Y187494D01*
Y191093D01*
X543420D01*
Y194692D01*
Y187494D01*
X547019D02*
X549418D01*
X550618Y188694D01*
Y191093D01*
X549418Y192293D01*
X547019D01*
X545819Y191093D01*
Y188694D01*
X547019Y187494D01*
X553017D02*
X555416D01*
X554217D01*
Y194692D01*
X553017D01*
X562614Y187494D02*
X560215D01*
X559015Y188694D01*
Y191093D01*
X560215Y192293D01*
X562614D01*
X563814Y191093D01*
Y189893D01*
X559015D01*
X578209Y193492D02*
X577009Y194692D01*
X574610D01*
X573411Y193492D01*
Y192293D01*
X574610Y191093D01*
X577009D01*
X578209Y189893D01*
Y188694D01*
X577009Y187494D01*
X574610D01*
X573411Y188694D01*
X580608Y187494D02*
X583007D01*
X581808D01*
Y192293D01*
X580608D01*
X586606D02*
X591405D01*
X586606Y187494D01*
X591405D01*
X597403D02*
X595004D01*
X593804Y188694D01*
Y191093D01*
X595004Y192293D01*
X597403D01*
X598602Y191093D01*
Y189893D01*
X593804D01*
X483436Y193492D02*
X482236Y194692D01*
X479837D01*
X478638Y193492D01*
Y188694D01*
X479837Y187494D01*
X482236D01*
X483436Y188694D01*
X487035Y187494D02*
X489434D01*
X490634Y188694D01*
Y191093D01*
X489434Y192293D01*
X487035D01*
X485835Y191093D01*
Y188694D01*
X487035Y187494D01*
X493033Y192293D02*
Y188694D01*
X494233Y187494D01*
X497831D01*
Y192293D01*
X500231Y187494D02*
Y192293D01*
X503829D01*
X505029Y191093D01*
Y187494D01*
X508628Y193492D02*
Y192293D01*
X507428D01*
X509828D01*
X508628D01*
Y188694D01*
X509828Y187494D01*
X432848Y193492D02*
X431649Y194692D01*
X429250D01*
X428050Y193492D01*
Y192293D01*
X429250Y191093D01*
X431649D01*
X432848Y189893D01*
Y188694D01*
X431649Y187494D01*
X429250D01*
X428050Y188694D01*
X435248Y192293D02*
Y188694D01*
X436447Y187494D01*
X440046D01*
Y186295D01*
X438846Y185095D01*
X437647D01*
X440046Y187494D02*
Y192293D01*
X442445Y187494D02*
Y192293D01*
X443645D01*
X444845Y191093D01*
Y187494D01*
Y191093D01*
X446044Y192293D01*
X447244Y191093D01*
Y187494D01*
X449643Y194692D02*
Y187494D01*
X453242D01*
X454441Y188694D01*
Y189893D01*
Y191093D01*
X453242Y192293D01*
X449643D01*
X458040Y187494D02*
X460439D01*
X461639Y188694D01*
Y191093D01*
X460439Y192293D01*
X458040D01*
X456841Y191093D01*
Y188694D01*
X458040Y187494D01*
X464038D02*
X466438D01*
X465238D01*
Y194692D01*
X464038D01*
G54D136*
X419050Y182994D02*
X1637504D01*
X419050Y17994D02*
X1637504D01*
X419050Y2994D02*
X1637504D01*
Y197994D01*
X419050D02*
X1637504D01*
X419050Y2994D02*
Y197994D01*
X1499643Y2994D02*
Y197994D01*
X1366282Y2994D02*
Y197994D01*
X1280906Y2994D02*
Y197994D01*
X1089964Y2994D02*
Y197994D01*
X980996Y2994D02*
Y197994D01*
X922011Y2994D02*
Y197994D01*
X772056Y2994D02*
Y197994D01*
X698676Y2994D02*
Y197994D01*
X648088Y2994D02*
Y197994D01*
X534122Y2994D02*
Y197994D01*
X474138Y2994D02*
Y197994D01*
G54D179*
X250100Y159000D02*
G03*
X250100Y159000I-600J0D01*
G01*
X250500D02*
G03*
X250500Y159000I-1000J0D01*
G01*
X266600Y109500D02*
G03*
X266600Y109500I-600J0D01*
G01*
X267000D02*
G03*
X267000Y109500I-1000J0D01*
G01*
X216100Y95500D02*
G03*
X216100Y95500I-600J0D01*
G01*
X216500D02*
G03*
X216500Y95500I-1000J0D01*
G01*
X290100Y121000D02*
G03*
X290100Y121000I-600J0D01*
G01*
X290500D02*
G03*
X290500Y121000I-1000J0D01*
G01*
X272100Y88000D02*
G03*
X272100Y88000I-600J0D01*
G01*
X272500D02*
G03*
X272500Y88000I-1000J0D01*
G01*
X376600Y53000D02*
G03*
X376600Y53000I-600J0D01*
G01*
X377000D02*
G03*
X377000Y53000I-1000J0D01*
G01*
X296600Y76000D02*
G03*
X296600Y76000I-600J0D01*
G01*
X297000D02*
G03*
X297000Y76000I-1000J0D01*
G01*
X310100Y136382D02*
G03*
X310100Y136382I-600J0D01*
G01*
X310500D02*
G03*
X310500Y136382I-1000J0D01*
G01*
X288765Y145000D02*
G03*
X288765Y145000I-600J0D01*
G01*
X289165D02*
G03*
X289165Y145000I-1000J0D01*
G01*
X357100Y109000D02*
G03*
X357100Y109000I-600J0D01*
G01*
X357500D02*
G03*
X357500Y109000I-1000J0D01*
G01*
X308600Y71000D02*
G03*
X308600Y71000I-600J0D01*
G01*
X309000D02*
G03*
X309000Y71000I-1000J0D01*
G01*
X308600Y89500D02*
G03*
X308600Y89500I-600J0D01*
G01*
X309000D02*
G03*
X309000Y89500I-1000J0D01*
G01*
X298100Y119500D02*
G03*
X298100Y119500I-600J0D01*
G01*
X298500D02*
G03*
X298500Y119500I-1000J0D01*
G01*
X314600D02*
G03*
X314600Y119500I-600J0D01*
G01*
X315000D02*
G03*
X315000Y119500I-1000J0D01*
G01*
X266600Y118000D02*
G03*
X266600Y118000I-600J0D01*
G01*
X267000D02*
G03*
X267000Y118000I-1000J0D01*
G01*
X261100D02*
G03*
X261100Y118000I-600J0D01*
G01*
X261500D02*
G03*
X261500Y118000I-1000J0D01*
G01*
X260100Y79500D02*
G03*
X260100Y79500I-600J0D01*
G01*
X260500D02*
G03*
X260500Y79500I-1000J0D01*
G01*
X260600Y83500D02*
G03*
X260600Y83500I-600J0D01*
G01*
X261000D02*
G03*
X261000Y83500I-1000J0D01*
G01*
X231600Y48011D02*
G03*
X231600Y48011I-600J0D01*
G01*
X232000D02*
G03*
X232000Y48011I-1000J0D01*
G01*
X221100D02*
G03*
X221100Y48011I-600J0D01*
G01*
X221500D02*
G03*
X221500Y48011I-1000J0D01*
G01*
X231600Y44011D02*
G03*
X231600Y44011I-600J0D01*
G01*
X232000D02*
G03*
X232000Y44011I-1000J0D01*
G01*
X212600D02*
G03*
X212600Y44011I-600J0D01*
G01*
X213000D02*
G03*
X213000Y44011I-1000J0D01*
G01*
X240600Y97500D02*
G03*
X240600Y97500I-600J0D01*
G01*
X241000D02*
G03*
X241000Y97500I-1000J0D01*
G01*
X297100Y69500D02*
G03*
X297100Y69500I-600J0D01*
G01*
X297500D02*
G03*
X297500Y69500I-1000J0D01*
G01*
X274600D02*
G03*
X274600Y69500I-600J0D01*
G01*
X275000D02*
G03*
X275000Y69500I-1000J0D01*
G01*
X277100Y67000D02*
G03*
X277100Y67000I-600J0D01*
G01*
X277500D02*
G03*
X277500Y67000I-1000J0D01*
G01*
X302100D02*
G03*
X302100Y67000I-600J0D01*
G01*
X302500D02*
G03*
X302500Y67000I-1000J0D01*
G01*
X236600Y101500D02*
G03*
X236600Y101500I-600J0D01*
G01*
X237000D02*
G03*
X237000Y101500I-1000J0D01*
G01*
X326100Y204000D02*
G03*
X326100Y204000I-600J0D01*
G01*
X326500D02*
G03*
X326500Y204000I-1000J0D01*
G01*
X286100D02*
G03*
X286100Y204000I-600J0D01*
G01*
X286500D02*
G03*
X286500Y204000I-1000J0D01*
G01*
X297600Y59863D02*
G03*
X297600Y59863I-600J0D01*
G01*
X298000D02*
G03*
X298000Y59863I-1000J0D01*
G01*
X248221Y102500D02*
G03*
X248221Y102500I-600J0D01*
G01*
X248621D02*
G03*
X248621Y102500I-1000J0D01*
G01*
X297600Y57294D02*
G03*
X297600Y57294I-600J0D01*
G01*
X298000D02*
G03*
X298000Y57294I-1000J0D01*
G01*
X245653Y102500D02*
G03*
X245653Y102500I-600J0D01*
G01*
X246053D02*
G03*
X246053Y102500I-1000J0D01*
G01*
X297600Y65000D02*
G03*
X297600Y65000I-600J0D01*
G01*
X298000D02*
G03*
X298000Y65000I-1000J0D01*
G01*
X253358Y102500D02*
G03*
X253358Y102500I-600J0D01*
G01*
X253758D02*
G03*
X253758Y102500I-1000J0D01*
G01*
X297600Y62432D02*
G03*
X297600Y62432I-600J0D01*
G01*
X298000D02*
G03*
X298000Y62432I-1000J0D01*
G01*
X250790Y102500D02*
G03*
X250790Y102500I-600J0D01*
G01*
X251190D02*
G03*
X251190Y102500I-1000J0D01*
G01*
X229600Y85000D02*
G03*
X229600Y85000I-600J0D01*
G01*
X230000D02*
G03*
X230000Y85000I-1000J0D01*
G01*
X220600Y96500D02*
G03*
X220600Y96500I-600J0D01*
G01*
X221000D02*
G03*
X221000Y96500I-1000J0D01*
G01*
X227600Y82000D02*
G03*
X227600Y82000I-600J0D01*
G01*
X228000D02*
G03*
X228000Y82000I-1000J0D01*
G01*
X236100D02*
G03*
X236100Y82000I-600J0D01*
G01*
X236500D02*
G03*
X236500Y82000I-1000J0D01*
G01*
X238600Y91500D02*
G03*
X238600Y91500I-600J0D01*
G01*
X239000D02*
G03*
X239000Y91500I-1000J0D01*
G01*
X277100Y124500D02*
G03*
X277100Y124500I-600J0D01*
G01*
X277500D02*
G03*
X277500Y124500I-1000J0D01*
G01*
X312100Y114000D02*
G03*
X312100Y114000I-600J0D01*
G01*
X312500D02*
G03*
X312500Y114000I-1000J0D01*
G01*
X244100Y105500D02*
G03*
X244100Y105500I-600J0D01*
G01*
X244500D02*
G03*
X244500Y105500I-1000J0D01*
G01*
X234100Y104000D02*
G03*
X234100Y104000I-600J0D01*
G01*
X234500D02*
G03*
X234500Y104000I-1000J0D01*
G01*
X258600Y123500D02*
G03*
X258600Y123500I-600J0D01*
G01*
X259000D02*
G03*
X259000Y123500I-1000J0D01*
G01*
X231100Y99000D02*
G03*
X231100Y99000I-600J0D01*
G01*
X231500D02*
G03*
X231500Y99000I-1000J0D01*
G01*
X258600Y127500D02*
G03*
X258600Y127500I-600J0D01*
G01*
X259000D02*
G03*
X259000Y127500I-1000J0D01*
G01*
X374600Y104000D02*
G03*
X374600Y104000I-600J0D01*
G01*
X375000D02*
G03*
X375000Y104000I-1000J0D01*
G01*
X386600Y99000D02*
G03*
X386600Y99000I-600J0D01*
G01*
X387000D02*
G03*
X387000Y99000I-1000J0D01*
G01*
X277600Y198500D02*
G03*
X277600Y198500I-600J0D01*
G01*
X278000D02*
G03*
X278000Y198500I-1000J0D01*
G01*
X286100Y217000D02*
G03*
X286100Y217000I-600J0D01*
G01*
X286500D02*
G03*
X286500Y217000I-1000J0D01*
G01*
X254600Y127500D02*
G03*
X254600Y127500I-600J0D01*
G01*
X255000D02*
G03*
X255000Y127500I-1000J0D01*
G01*
X315100Y123993D02*
G03*
X315100Y123993I-600J0D01*
G01*
X315500D02*
G03*
X315500Y123993I-1000J0D01*
G01*
X381100Y90500D02*
G03*
X381100Y90500I-600J0D01*
G01*
X381500D02*
G03*
X381500Y90500I-1000J0D01*
G01*
X42100Y148500D02*
G03*
X42100Y148500I-600J0D01*
G01*
X42500D02*
G03*
X42500Y148500I-1000J0D01*
G01*
X27600D02*
G03*
X27600Y148500I-600J0D01*
G01*
X28000D02*
G03*
X28000Y148500I-1000J0D01*
G01*
X24600Y136500D02*
G03*
X24600Y136500I-600J0D01*
G01*
X25000D02*
G03*
X25000Y136500I-1000J0D01*
G01*
X37100Y133500D02*
G03*
X37100Y133500I-600J0D01*
G01*
X37500D02*
G03*
X37500Y133500I-1000J0D01*
G01*
X102100Y127000D02*
G03*
X102100Y127000I-600J0D01*
G01*
X102500D02*
G03*
X102500Y127000I-1000J0D01*
G01*
X100600Y181500D02*
G03*
X100600Y181500I-600J0D01*
G01*
X101000D02*
G03*
X101000Y181500I-1000J0D01*
G01*
X54600Y131000D02*
G03*
X54600Y131000I-600J0D01*
G01*
X55000D02*
G03*
X55000Y131000I-1000J0D01*
G01*
X52100Y181500D02*
G03*
X52100Y181500I-600J0D01*
G01*
X52500D02*
G03*
X52500Y181500I-1000J0D01*
G01*
X98600Y120500D02*
G03*
X98600Y120500I-600J0D01*
G01*
X99000D02*
G03*
X99000Y120500I-1000J0D01*
G01*
X124100Y96500D02*
G03*
X124100Y96500I-600J0D01*
G01*
X124500D02*
G03*
X124500Y96500I-1000J0D01*
G01*
X160600Y115000D02*
G03*
X160600Y115000I-600J0D01*
G01*
X161000D02*
G03*
X161000Y115000I-1000J0D01*
G01*
X180100Y125500D02*
G03*
X180100Y125500I-600J0D01*
G01*
X180500D02*
G03*
X180500Y125500I-1000J0D01*
G01*
X160600Y92500D02*
G03*
X160600Y92500I-600J0D01*
G01*
X161000D02*
G03*
X161000Y92500I-1000J0D01*
G01*
X186100Y162000D02*
G03*
X186100Y162000I-600J0D01*
G01*
X186500D02*
G03*
X186500Y162000I-1000J0D01*
G01*
X148100Y181000D02*
G03*
X148100Y181000I-600J0D01*
G01*
X148500D02*
G03*
X148500Y181000I-1000J0D01*
G01*
X185100Y101500D02*
G03*
X185100Y101500I-600J0D01*
G01*
X185500D02*
G03*
X185500Y101500I-1000J0D01*
G01*
X199100Y109500D02*
G03*
X199100Y109500I-600J0D01*
G01*
X199500D02*
G03*
X199500Y109500I-1000J0D01*
G01*
X205600Y111500D02*
G03*
X205600Y111500I-600J0D01*
G01*
X206000D02*
G03*
X206000Y111500I-1000J0D01*
G01*
X204100Y105500D02*
G03*
X204100Y105500I-600J0D01*
G01*
X204500D02*
G03*
X204500Y105500I-1000J0D01*
G01*
X347184Y131500D02*
G03*
X347184Y131500I-600J0D01*
G01*
X347584D02*
G03*
X347584Y131500I-1000J0D01*
G01*
X197100Y184000D02*
G03*
X197100Y184000I-600J0D01*
G01*
X197500D02*
G03*
X197500Y184000I-1000J0D01*
G01*
X197100Y172500D02*
G03*
X197100Y172500I-600J0D01*
G01*
X197500D02*
G03*
X197500Y172500I-1000J0D01*
G01*
X142600Y187500D02*
G03*
X142600Y187500I-600J0D01*
G01*
X143000D02*
G03*
X143000Y187500I-1000J0D01*
G01*
X142600Y190500D02*
G03*
X142600Y190500I-600J0D01*
G01*
X143000D02*
G03*
X143000Y190500I-1000J0D01*
G01*
X231600Y192500D02*
G03*
X231600Y192500I-600J0D01*
G01*
X232000D02*
G03*
X232000Y192500I-1000J0D01*
G01*
X229100Y190500D02*
G03*
X229100Y190500I-600J0D01*
G01*
X229500D02*
G03*
X229500Y190500I-1000J0D01*
G01*
X255100Y149000D02*
G03*
X255100Y149000I-600J0D01*
G01*
X255500D02*
G03*
X255500Y149000I-1000J0D01*
G01*
X221600Y182500D02*
G03*
X221600Y182500I-600J0D01*
G01*
X222000D02*
G03*
X222000Y182500I-1000J0D01*
G01*
X237600Y235000D02*
G03*
X237600Y235000I-600J0D01*
G01*
X238000D02*
G03*
X238000Y235000I-1000J0D01*
G01*
X233600Y230000D02*
G03*
X233600Y230000I-600J0D01*
G01*
X234000D02*
G03*
X234000Y230000I-1000J0D01*
G01*
X45100Y179000D02*
G03*
X45100Y179000I-600J0D01*
G01*
X45500D02*
G03*
X45500Y179000I-1000J0D01*
G01*
X197100Y165500D02*
G03*
X197100Y165500I-600J0D01*
G01*
X197500D02*
G03*
X197500Y165500I-1000J0D01*
G01*
X240600Y128500D02*
G03*
X240600Y128500I-600J0D01*
G01*
X241000D02*
G03*
X241000Y128500I-1000J0D01*
G01*
X243100Y116000D02*
G03*
X243100Y116000I-600J0D01*
G01*
X243500D02*
G03*
X243500Y116000I-1000J0D01*
G01*
X250600Y93000D02*
G03*
X250600Y93000I-600J0D01*
G01*
X251000D02*
G03*
X251000Y93000I-1000J0D01*
G01*
X246600D02*
G03*
X246600Y93000I-600J0D01*
G01*
X247000D02*
G03*
X247000Y93000I-1000J0D01*
G01*
X252100Y40956D02*
G03*
X252100Y40956I-600J0D01*
G01*
X252500D02*
G03*
X252500Y40956I-1000J0D01*
G01*
X75100Y114500D02*
G03*
X75100Y114500I-600J0D01*
G01*
X75500D02*
G03*
X75500Y114500I-1000J0D01*
G01*
X256100Y67500D02*
G03*
X256100Y67500I-600J0D01*
G01*
X256500D02*
G03*
X256500Y67500I-1000J0D01*
G01*
X256600Y111500D02*
G03*
X256600Y111500I-600J0D01*
G01*
X257000D02*
G03*
X257000Y111500I-1000J0D01*
G01*
X147600Y83000D02*
G03*
X147600Y83000I-600J0D01*
G01*
X148000D02*
G03*
X148000Y83000I-1000J0D01*
G01*
X266600Y168500D02*
G03*
X266600Y168500I-600J0D01*
G01*
X267000D02*
G03*
X267000Y168500I-1000J0D01*
G01*
X240600Y174500D02*
G03*
X240600Y174500I-600J0D01*
G01*
X241000D02*
G03*
X241000Y174500I-1000J0D01*
G01*
X217100Y185000D02*
G03*
X217100Y185000I-600J0D01*
G01*
X217500D02*
G03*
X217500Y185000I-1000J0D01*
G01*
X239104Y192004D02*
G03*
X239104Y192004I-600J0D01*
G01*
X239504D02*
G03*
X239504Y192004I-1000J0D01*
G01*
X215600Y159000D02*
G03*
X215600Y159000I-600J0D01*
G01*
X216000D02*
G03*
X216000Y159000I-1000J0D01*
G01*
X17600Y174000D02*
G03*
X17600Y174000I-600J0D01*
G01*
X18000D02*
G03*
X18000Y174000I-1000J0D01*
G01*
X95100Y192000D02*
G03*
X95100Y192000I-600J0D01*
G01*
X95500D02*
G03*
X95500Y192000I-1000J0D01*
G01*
X95600Y188500D02*
G03*
X95600Y188500I-600J0D01*
G01*
X96000D02*
G03*
X96000Y188500I-1000J0D01*
G01*
X205600Y128500D02*
G03*
X205600Y128500I-600J0D01*
G01*
X206000D02*
G03*
X206000Y128500I-1000J0D01*
G01*
X239100Y61000D02*
G03*
X239100Y61000I-600J0D01*
G01*
X239500D02*
G03*
X239500Y61000I-1000J0D01*
G01*
X228600Y123500D02*
G03*
X228600Y123500I-600J0D01*
G01*
X229000D02*
G03*
X229000Y123500I-1000J0D01*
G01*
X215600Y205000D02*
G03*
X215600Y205000I-600J0D01*
G01*
X216000D02*
G03*
X216000Y205000I-1000J0D01*
G01*
X213100Y202000D02*
G03*
X213100Y202000I-600J0D01*
G01*
X213500D02*
G03*
X213500Y202000I-1000J0D01*
G01*
X200388Y61000D02*
G03*
X200388Y61000I-600J0D01*
G01*
X200788D02*
G03*
X200788Y61000I-1000J0D01*
G01*
X293100Y102500D02*
G03*
X293100Y102500I-600J0D01*
G01*
X293500D02*
G03*
X293500Y102500I-1000J0D01*
G01*
X282600Y90500D02*
G03*
X282600Y90500I-600J0D01*
G01*
X283000D02*
G03*
X283000Y90500I-1000J0D01*
G01*
X304100Y99000D02*
G03*
X304100Y99000I-600J0D01*
G01*
X304500D02*
G03*
X304500Y99000I-1000J0D01*
G01*
X305100Y85000D02*
G03*
X305100Y85000I-600J0D01*
G01*
X305500D02*
G03*
X305500Y85000I-1000J0D01*
G01*
X313100Y106500D02*
G03*
X313100Y106500I-600J0D01*
G01*
X313500D02*
G03*
X313500Y106500I-1000J0D01*
G01*
X364100Y168000D02*
G03*
X364100Y168000I-600J0D01*
G01*
X364500D02*
G03*
X364500Y168000I-1000J0D01*
G01*
X360100D02*
G03*
X360100Y168000I-600J0D01*
G01*
X360500D02*
G03*
X360500Y168000I-1000J0D01*
G01*
X366100Y123000D02*
G03*
X366100Y123000I-600J0D01*
G01*
X366500D02*
G03*
X366500Y123000I-1000J0D01*
G01*
X369100D02*
G03*
X369100Y123000I-600J0D01*
G01*
X369500D02*
G03*
X369500Y123000I-1000J0D01*
G01*
X364100Y104500D02*
G03*
X364100Y104500I-600J0D01*
G01*
X364500D02*
G03*
X364500Y104500I-1000J0D01*
G01*
X363600Y83500D02*
G03*
X363600Y83500I-600J0D01*
G01*
X364000D02*
G03*
X364000Y83500I-1000J0D01*
G01*
X359600Y74500D02*
G03*
X359600Y74500I-600J0D01*
G01*
X360000D02*
G03*
X360000Y74500I-1000J0D01*
G01*
X218100Y181500D02*
G03*
X218100Y181500I-600J0D01*
G01*
X218500D02*
G03*
X218500Y181500I-1000J0D01*
G01*
X203100Y184500D02*
G03*
X203100Y184500I-600J0D01*
G01*
X203500D02*
G03*
X203500Y184500I-1000J0D01*
G01*
X207100Y162000D02*
G03*
X207100Y162000I-600J0D01*
G01*
X207500D02*
G03*
X207500Y162000I-1000J0D01*
G01*
X10100D02*
G03*
X10100Y162000I-600J0D01*
G01*
X10500D02*
G03*
X10500Y162000I-1000J0D01*
G01*
X11600Y132500D02*
G03*
X11600Y132500I-600J0D01*
G01*
X12000D02*
G03*
X12000Y132500I-1000J0D01*
G01*
X62600Y130500D02*
G03*
X62600Y130500I-600J0D01*
G01*
X63000D02*
G03*
X63000Y130500I-1000J0D01*
G01*
X130600Y92500D02*
G03*
X130600Y92500I-600J0D01*
G01*
X131000D02*
G03*
X131000Y92500I-1000J0D01*
G01*
X186600Y152500D02*
G03*
X186600Y152500I-600J0D01*
G01*
X187000D02*
G03*
X187000Y152500I-1000J0D01*
G01*
X232600Y115000D02*
G03*
X232600Y115000I-600J0D01*
G01*
X233000D02*
G03*
X233000Y115000I-1000J0D01*
G01*
X232600Y110500D02*
G03*
X232600Y110500I-600J0D01*
G01*
X233000D02*
G03*
X233000Y110500I-1000J0D01*
G01*
X222100Y89000D02*
G03*
X222100Y89000I-600J0D01*
G01*
X222500D02*
G03*
X222500Y89000I-1000J0D01*
G01*
X266900Y75400D02*
G03*
X266900Y75400I-600J0D01*
G01*
X267300D02*
G03*
X267300Y75400I-1000J0D01*
G01*
X158600Y118500D02*
G03*
X158600Y118500I-600J0D01*
G01*
X159000D02*
G03*
X159000Y118500I-1000J0D01*
G01*
X120100Y132000D02*
G03*
X120100Y132000I-600J0D01*
G01*
X120500D02*
G03*
X120500Y132000I-1000J0D01*
G01*
X102100Y107500D02*
G03*
X102100Y107500I-600J0D01*
G01*
X102500D02*
G03*
X102500Y107500I-1000J0D01*
G01*
X87100Y102000D02*
G03*
X87100Y102000I-600J0D01*
G01*
X87500D02*
G03*
X87500Y102000I-1000J0D01*
G01*
X117600Y130000D02*
G03*
X117600Y130000I-600J0D01*
G01*
X118000D02*
G03*
X118000Y130000I-1000J0D01*
G01*
X117600Y133500D02*
G03*
X117600Y133500I-600J0D01*
G01*
X118000D02*
G03*
X118000Y133500I-1000J0D01*
G01*
X236100Y168500D02*
G03*
X236100Y168500I-600J0D01*
G01*
X236500D02*
G03*
X236500Y168500I-1000J0D01*
G01*
X240600Y148500D02*
G03*
X240600Y148500I-600J0D01*
G01*
X241000D02*
G03*
X241000Y148500I-1000J0D01*
G01*
X235600D02*
G03*
X235600Y148500I-600J0D01*
G01*
X236000D02*
G03*
X236000Y148500I-1000J0D01*
G01*
X232100Y140000D02*
G03*
X232100Y140000I-600J0D01*
G01*
X232500D02*
G03*
X232500Y140000I-1000J0D01*
G01*
X244100Y140500D02*
G03*
X244100Y140500I-600J0D01*
G01*
X244500D02*
G03*
X244500Y140500I-1000J0D01*
G01*
X258100Y135000D02*
G03*
X258100Y135000I-600J0D01*
G01*
X258500D02*
G03*
X258500Y135000I-1000J0D01*
G01*
X276100Y121000D02*
G03*
X276100Y121000I-600J0D01*
G01*
X276500D02*
G03*
X276500Y121000I-1000J0D01*
G01*
X276100Y115500D02*
G03*
X276100Y115500I-600J0D01*
G01*
X276500D02*
G03*
X276500Y115500I-1000J0D01*
G01*
X290100Y117000D02*
G03*
X290100Y117000I-600J0D01*
G01*
X290500D02*
G03*
X290500Y117000I-1000J0D01*
G01*
X302600Y127000D02*
G03*
X302600Y127000I-600J0D01*
G01*
X303000D02*
G03*
X303000Y127000I-1000J0D01*
G01*
X288100Y135500D02*
G03*
X288100Y135500I-600J0D01*
G01*
X288500D02*
G03*
X288500Y135500I-1000J0D01*
G01*
X274200Y85100D02*
G03*
X274200Y85100I-600J0D01*
G01*
X274600D02*
G03*
X274600Y85100I-1000J0D01*
G01*
X258400Y71800D02*
G03*
X258400Y71800I-600J0D01*
G01*
X258800D02*
G03*
X258800Y71800I-1000J0D01*
G01*
X239100Y71000D02*
G03*
X239100Y71000I-600J0D01*
G01*
X239500D02*
G03*
X239500Y71000I-1000J0D01*
G01*
X225100D02*
G03*
X225100Y71000I-600J0D01*
G01*
X225500D02*
G03*
X225500Y71000I-1000J0D01*
G01*
X233100Y63900D02*
G03*
X233100Y63900I-600J0D01*
G01*
X233500D02*
G03*
X233500Y63900I-1000J0D01*
G01*
X235600Y57500D02*
G03*
X235600Y57500I-600J0D01*
G01*
X236000D02*
G03*
X236000Y57500I-1000J0D01*
G01*
X271100Y94000D02*
G03*
X271100Y94000I-600J0D01*
G01*
X271500D02*
G03*
X271500Y94000I-1000J0D01*
G01*
X231000Y95700D02*
G03*
X231000Y95700I-600J0D01*
G01*
X231400D02*
G03*
X231400Y95700I-1000J0D01*
G01*
X177300Y86700D02*
G03*
X177300Y86700I-600J0D01*
G01*
X177700D02*
G03*
X177700Y86700I-1000J0D01*
G01*
X173100Y66400D02*
G03*
X173100Y66400I-600J0D01*
G01*
X173500D02*
G03*
X173500Y66400I-1000J0D01*
G01*
X121600Y104600D02*
G03*
X121600Y104600I-600J0D01*
G01*
X122000D02*
G03*
X122000Y104600I-1000J0D01*
G01*
X129000Y109100D02*
G03*
X129000Y109100I-600J0D01*
G01*
X129400D02*
G03*
X129400Y109100I-1000J0D01*
G01*
X131900Y120400D02*
G03*
X131900Y120400I-600J0D01*
G01*
X132300D02*
G03*
X132300Y120400I-1000J0D01*
G01*
X332300Y95400D02*
G03*
X332300Y95400I-600J0D01*
G01*
X332700D02*
G03*
X332700Y95400I-1000J0D01*
G01*
X205000Y117600D02*
G03*
X205000Y117600I-600J0D01*
G01*
X205400D02*
G03*
X205400Y117600I-1000J0D01*
G01*
X189750Y115100D02*
G03*
X189750Y115100I-600J0D01*
G01*
X190150D02*
G03*
X190150Y115100I-1000J0D01*
G01*
X183700Y94000D02*
G03*
X183700Y94000I-600J0D01*
G01*
X184100D02*
G03*
X184100Y94000I-1000J0D01*
G01*
X185900Y96500D02*
G03*
X185900Y96500I-600J0D01*
G01*
X186300D02*
G03*
X186300Y96500I-1000J0D01*
G01*
X279200Y84300D02*
G03*
X279200Y84300I-600J0D01*
G01*
X279600D02*
G03*
X279600Y84300I-1000J0D01*
G01*
X280000Y58900D02*
G03*
X280000Y58900I-600J0D01*
G01*
X280400D02*
G03*
X280400Y58900I-1000J0D01*
G01*
X271500Y53600D02*
G03*
X271500Y53600I-600J0D01*
G01*
X271900D02*
G03*
X271900Y53600I-1000J0D01*
G01*
X5300Y5200D02*
G03*
X5300Y5200I-600J0D01*
G01*
X5700D02*
G03*
X5700Y5200I-1000J0D01*
G01*
X209600Y66186D02*
G03*
X209600Y66186I-600J0D01*
G01*
X210000D02*
G03*
X210000Y66186I-1000J0D01*
G01*
X249800Y68900D02*
G03*
X249800Y68900I-600J0D01*
G01*
X250200D02*
G03*
X250200Y68900I-1000J0D01*
G01*
X270300Y64700D02*
G03*
X270300Y64700I-600J0D01*
G01*
X270700D02*
G03*
X270700Y64700I-1000J0D01*
G01*
X332600Y19400D02*
G03*
X332600Y19400I-600J0D01*
G01*
X333000D02*
G03*
X333000Y19400I-1000J0D01*
G01*
X272500Y62300D02*
G03*
X272500Y62300I-600J0D01*
G01*
X272900D02*
G03*
X272900Y62300I-1000J0D01*
G01*
X329600Y16000D02*
G03*
X329600Y16000I-600J0D01*
G01*
X330000D02*
G03*
X330000Y16000I-1000J0D01*
G01*
X261800Y58200D02*
G03*
X261800Y58200I-600J0D01*
G01*
X262200D02*
G03*
X262200Y58200I-1000J0D01*
G01*
X331100Y73500D02*
G03*
X331100Y73500I-600J0D01*
G01*
X331500D02*
G03*
X331500Y73500I-1000J0D01*
G01*
X335700Y72200D02*
G03*
X335700Y72200I-600J0D01*
G01*
X336100D02*
G03*
X336100Y72200I-1000J0D01*
G01*
X338700Y36100D02*
G03*
X338700Y36100I-600J0D01*
G01*
X339100D02*
G03*
X339100Y36100I-1000J0D01*
G01*
X260000Y19700D02*
G03*
X260000Y19700I-600J0D01*
G01*
X260400D02*
G03*
X260400Y19700I-1000J0D01*
G01*
X272000Y220650D02*
G03*
X272000Y220650I-1000J0D01*
G01*
X18500Y53500D02*
G03*
X18500Y53500I-1000J0D01*
G01*
Y106500D02*
G03*
X18500Y106500I-1000J0D01*
G01*
X300500Y152500D02*
G03*
X300500Y152500I-1000J0D01*
G01*
X16500Y183000D02*
G03*
X16500Y183000I-1000J0D01*
G01*
X82000Y202500D02*
X83000Y204500D01*
X81000D02*
X83000D01*
X81000D02*
X82000Y202500D01*
X75000D02*
X76000Y204500D01*
X74000D02*
X76000D01*
X74000D02*
X75000Y202500D01*
X89500D02*
X90500Y204500D01*
X88500D02*
X90500D01*
X88500D02*
X89500Y202500D01*
X75000Y209000D02*
X76000Y211000D01*
X74000D02*
X76000D01*
X74000D02*
X75000Y209000D01*
X82000D02*
X83000Y211000D01*
X81000D02*
X83000D01*
X81000D02*
X82000Y209000D01*
X89500D02*
X90500Y211000D01*
X88500D02*
X90500D01*
X88500D02*
X89500Y209000D01*
X130000Y202500D02*
X131000Y204500D01*
X129000D02*
X131000D01*
X129000D02*
X130000Y202500D01*
X123500D02*
X124500Y204500D01*
X122500D02*
X124500D01*
X122500D02*
X123500Y202500D01*
X136500D02*
X137500Y204500D01*
X135500D02*
X137500D01*
X135500D02*
X136500Y202500D01*
X123500Y209000D02*
X124500Y211000D01*
X122500D02*
X124500D01*
X122500D02*
X123500Y209000D01*
X130000D02*
X131000Y211000D01*
X129000D02*
X131000D01*
X129000D02*
X130000Y209000D01*
X136500D02*
X137500Y211000D01*
X135500D02*
X137500D01*
X135500D02*
X136500Y209000D01*
X177000Y202500D02*
X178000Y204500D01*
X176000D02*
X178000D01*
X176000D02*
X177000Y202500D01*
X170000D02*
X171000Y204500D01*
X169000D02*
X171000D01*
X169000D02*
X170000Y202500D01*
X184000D02*
X185000Y204500D01*
X183000D02*
X185000D01*
X183000D02*
X184000Y202500D01*
X170000Y209000D02*
X171000Y211000D01*
X169000D02*
X171000D01*
X169000D02*
X170000Y209000D01*
X177000D02*
X178000Y211000D01*
X176000D02*
X178000D01*
X176000D02*
X177000Y209000D01*
X184000D02*
X185000Y211000D01*
X183000D02*
X185000D01*
X183000D02*
X184000Y209000D01*
X106000D02*
X107000Y211000D01*
X105000D02*
X107000D01*
X105000D02*
X106000Y209000D01*
Y202500D02*
X107000Y204500D01*
X105000D02*
X107000D01*
X105000D02*
X106000Y202500D01*
X152500Y209000D02*
X153500Y211000D01*
X151500D02*
X153500D01*
X151500D02*
X152500Y209000D01*
Y202500D02*
X153500Y204500D01*
X151500D02*
X153500D01*
X151500D02*
X152500Y202500D01*
X14000Y79000D02*
X15000Y81000D01*
X13000D02*
X15000D01*
X13000D02*
X14000Y79000D01*
X16500Y194000D02*
X17500Y196000D01*
X15500D02*
X17500D01*
X15500D02*
X16500Y194000D01*
X67000Y28500D02*
X68000Y30500D01*
X66000D02*
X68000D01*
X66000D02*
X67000Y28500D01*
X172000Y43000D02*
X173000Y45000D01*
X171000D02*
X173000D01*
X171000D02*
X172000Y43000D01*
X204000Y39500D02*
X205000Y41500D01*
X203000D02*
X205000D01*
X203000D02*
X204000Y39500D01*
X209000Y145500D02*
X210000Y147500D01*
X208000D02*
X210000D01*
X208000D02*
X209000Y145500D01*
X196000Y122000D02*
X197000Y124000D01*
X195000D02*
X197000D01*
X195000D02*
X196000Y122000D01*
X221000Y121500D02*
X222000Y123500D01*
X220000D02*
X222000D01*
X220000D02*
X221000Y121500D01*
X276000Y140000D02*
X277000Y142000D01*
X275000D02*
X277000D01*
X275000D02*
X276000Y140000D01*
X297000Y222000D02*
X298000Y224000D01*
X296000D02*
X298000D01*
X296000D02*
X297000Y222000D01*
X310500Y221500D02*
X311500Y223500D01*
X309500D02*
X311500D01*
X309500D02*
X310500Y221500D01*
X300500Y212500D02*
X301500Y214500D01*
X299500D02*
X301500D01*
X299500D02*
X300500Y212500D01*
X305500D02*
X306500Y214500D01*
X304500D02*
X306500D01*
X304500D02*
X305500Y212500D01*
X303000Y208000D02*
X304000Y210000D01*
X302000D02*
X304000D01*
X302000D02*
X303000Y208000D01*
X158000Y130500D02*
X159000Y132500D01*
X157000D02*
X159000D01*
X157000D02*
X158000Y130500D01*
X148500Y73000D02*
X149500Y75000D01*
X147500D02*
X149500D01*
X147500D02*
X148500Y73000D01*
X130500Y54000D02*
X131500Y56000D01*
X129500D02*
X131500D01*
X129500D02*
X130500Y54000D01*
Y31000D02*
X131500Y33000D01*
X129500D02*
X131500D01*
X129500D02*
X130500Y31000D01*
X185500Y47500D02*
X186500Y49500D01*
X184500D02*
X186500D01*
X184500D02*
X185500Y47500D01*
X41000Y13000D02*
X42000Y15000D01*
X40000D02*
X42000D01*
X40000D02*
X41000Y13000D01*
X91500Y31000D02*
X92500Y33000D01*
X90500D02*
X92500D01*
X90500D02*
X91500Y31000D01*
X252500Y188500D02*
X253500Y190500D01*
X251500D02*
X253500D01*
X251500D02*
X252500Y188500D01*
X255000Y169000D02*
X256000Y171000D01*
X254000D02*
X256000D01*
X254000D02*
X255000Y169000D01*
X275500Y173000D02*
X276500Y175000D01*
X274500D02*
X276500D01*
X274500D02*
X275500Y173000D01*
X271000Y235500D02*
X272000Y237500D01*
X270000D02*
X272000D01*
X270000D02*
X271000Y235500D01*
X333000Y164000D02*
X334000Y166000D01*
X332000D02*
X334000D01*
X332000D02*
X333000Y164000D01*
X384500Y16000D02*
X385500Y18000D01*
X383500D02*
X385500D01*
X383500D02*
X384500Y16000D01*
X57500Y113000D02*
X58500Y115000D01*
X56500D02*
X58500D01*
X56500D02*
X57500Y113000D01*
X80500Y118000D02*
X81500Y120000D01*
X79500D02*
X81500D01*
X79500D02*
X80500Y118000D01*
X195500Y75500D02*
X196500Y77500D01*
X194500D02*
X196500D01*
X194500D02*
X195500Y75500D01*
X284200Y33500D02*
X285200Y35500D01*
X283200D02*
X285200D01*
X283200D02*
X284200Y33500D01*
X66600Y209000D02*
X67600Y211000D01*
X65600D02*
X67600D01*
X65600D02*
X66600Y209000D01*
Y202500D02*
X67600Y204500D01*
X65600D02*
X67600D01*
X65600D02*
X66600Y202500D01*
X57100Y204900D02*
X58100Y206900D01*
X56100D02*
X58100D01*
X56100D02*
X57100Y204900D01*
X161200D02*
X162200Y206900D01*
X160200D02*
X162200D01*
X160200D02*
X161200Y204900D01*
X144400D02*
X145400Y206900D01*
X143400D02*
X145400D01*
X143400D02*
X144400Y204900D01*
X114800D02*
X115800Y206900D01*
X113800D02*
X115800D01*
X113800D02*
X114800Y204900D01*
X97700D02*
X98700Y206900D01*
X96700D02*
X98700D01*
X96700D02*
X97700Y204900D01*
X205000Y72126D02*
X205500Y71626D01*
X204500Y72126D02*
X205000D01*
X204500D02*
X205000Y72626D01*
X204500Y73126D02*
X205000Y72626D01*
X204500Y73126D02*
X205000D01*
X205500Y73626D01*
X206000Y73126D01*
X206500D01*
X206000Y72626D02*
X206500Y73126D01*
X206000Y72626D02*
X206500Y72126D01*
X206000D02*
X206500D01*
X205500Y71626D02*
X206000Y72126D01*
X205000Y95748D02*
X205500Y95248D01*
X204500Y95748D02*
X205000D01*
X204500D02*
X205000Y96248D01*
X204500Y96748D02*
X205000Y96248D01*
X204500Y96748D02*
X205000D01*
X205500Y97248D01*
X206000Y96748D01*
X206500D01*
X206000Y96248D02*
X206500Y96748D01*
X206000Y96248D02*
X206500Y95748D01*
X206000D02*
X206500D01*
X205500Y95248D02*
X206000Y95748D01*
X205000Y87874D02*
X205500Y87374D01*
X204500Y87874D02*
X205000D01*
X204500D02*
X205000Y88374D01*
X204500Y88874D02*
X205000Y88374D01*
X204500Y88874D02*
X205000D01*
X205500Y89374D01*
X206000Y88874D01*
X206500D01*
X206000Y88374D02*
X206500Y88874D01*
X206000Y88374D02*
X206500Y87874D01*
X206000D02*
X206500D01*
X205500Y87374D02*
X206000Y87874D01*
X205000Y80000D02*
X205500Y79500D01*
X204500Y80000D02*
X205000D01*
X204500D02*
X205000Y80500D01*
X204500Y81000D02*
X205000Y80500D01*
X204500Y81000D02*
X205000D01*
X205500Y81500D01*
X206000Y81000D01*
X206500D01*
X206000Y80500D02*
X206500Y81000D01*
X206000Y80500D02*
X206500Y80000D01*
X206000D02*
X206500D01*
X205500Y79500D02*
X206000Y80000D01*
X394500Y58000D02*
Y58500D01*
X395000Y59000D01*
X394500Y59500D02*
X395000Y59000D01*
X394500Y59500D02*
Y60000D01*
X395000D01*
X395500Y59500D01*
X396000Y60000D01*
X396500D01*
Y59500D02*
Y60000D01*
X396000Y59000D02*
X396500Y59500D01*
X396000Y59000D02*
X396500Y58500D01*
Y58000D02*
Y58500D01*
X396000Y58000D02*
X396500D01*
X395500Y58500D02*
X396000Y58000D01*
X395000D02*
X395500Y58500D01*
X394500Y58000D02*
X395000D01*
X394500Y28000D02*
Y28500D01*
X395000Y29000D01*
X394500Y29500D02*
X395000Y29000D01*
X394500Y29500D02*
Y30000D01*
X395000D01*
X395500Y29500D01*
X396000Y30000D01*
X396500D01*
Y29500D02*
Y30000D01*
X396000Y29000D02*
X396500Y29500D01*
X396000Y29000D02*
X396500Y28500D01*
Y28000D02*
Y28500D01*
X396000Y28000D02*
X396500D01*
X395500Y28500D02*
X396000Y28000D01*
X395000D02*
X395500Y28500D01*
X394500Y28000D02*
X395000D01*
X394500Y38000D02*
Y38500D01*
X395000Y39000D01*
X394500Y39500D02*
X395000Y39000D01*
X394500Y39500D02*
Y40000D01*
X395000D01*
X395500Y39500D01*
X396000Y40000D01*
X396500D01*
Y39500D02*
Y40000D01*
X396000Y39000D02*
X396500Y39500D01*
X396000Y39000D02*
X396500Y38500D01*
Y38000D02*
Y38500D01*
X396000Y38000D02*
X396500D01*
X395500Y38500D02*
X396000Y38000D01*
X395000D02*
X395500Y38500D01*
X394500Y38000D02*
X395000D01*
X364500Y28000D02*
Y28500D01*
X365000Y29000D01*
X364500Y29500D02*
X365000Y29000D01*
X364500Y29500D02*
Y30000D01*
X365000D01*
X365500Y29500D01*
X366000Y30000D01*
X366500D01*
Y29500D02*
Y30000D01*
X366000Y29000D02*
X366500Y29500D01*
X366000Y29000D02*
X366500Y28500D01*
Y28000D02*
Y28500D01*
X366000Y28000D02*
X366500D01*
X365500Y28500D02*
X366000Y28000D01*
X365000D02*
X365500Y28500D01*
X364500Y28000D02*
X365000D01*
X394500Y48000D02*
Y48500D01*
X395000Y49000D01*
X394500Y49500D02*
X395000Y49000D01*
X394500Y49500D02*
Y50000D01*
X395000D01*
X395500Y49500D01*
X396000Y50000D01*
X396500D01*
Y49500D02*
Y50000D01*
X396000Y49000D02*
X396500Y49500D01*
X396000Y49000D02*
X396500Y48500D01*
Y48000D02*
Y48500D01*
X396000Y48000D02*
X396500D01*
X395500Y48500D02*
X396000Y48000D01*
X395000D02*
X395500Y48500D01*
X394500Y48000D02*
X395000D01*
X364500Y38000D02*
Y38500D01*
X365000Y39000D01*
X364500Y39500D02*
X365000Y39000D01*
X364500Y39500D02*
Y40000D01*
X365000D01*
X365500Y39500D01*
X366000Y40000D01*
X366500D01*
Y39500D02*
Y40000D01*
X366000Y39000D02*
X366500Y39500D01*
X366000Y39000D02*
X366500Y38500D01*
Y38000D02*
Y38500D01*
X366000Y38000D02*
X366500D01*
X365500Y38500D02*
X366000Y38000D01*
X365000D02*
X365500Y38500D01*
X364500Y38000D02*
X365000D01*
X364500Y48000D02*
Y48500D01*
X365000Y49000D01*
X364500Y49500D02*
X365000Y49000D01*
X364500Y49500D02*
Y50000D01*
X365000D01*
X365500Y49500D01*
X366000Y50000D01*
X366500D01*
Y49500D02*
Y50000D01*
X366000Y49000D02*
X366500Y49500D01*
X366000Y49000D02*
X366500Y48500D01*
Y48000D02*
Y48500D01*
X366000Y48000D02*
X366500D01*
X365500Y48500D02*
X366000Y48000D01*
X365000D02*
X365500Y48500D01*
X364500Y48000D02*
X365000D01*
X364500Y58000D02*
Y58500D01*
X365000Y59000D01*
X364500Y59500D02*
X365000Y59000D01*
X364500Y59500D02*
Y60000D01*
X365000D01*
X365500Y59500D01*
X366000Y60000D01*
X366500D01*
Y59500D02*
Y60000D01*
X366000Y59000D02*
X366500Y59500D01*
X366000Y59000D02*
X366500Y58500D01*
Y58000D02*
Y58500D01*
X366000Y58000D02*
X366500D01*
X365500Y58500D02*
X366000Y58000D01*
X365000D02*
X365500Y58500D01*
X364500Y58000D02*
X365000D01*
X381200Y230819D02*
X381700D01*
X381200D02*
Y231819D01*
X381700D01*
Y232319D01*
X382700D01*
Y231819D02*
Y232319D01*
Y231819D02*
X383200D01*
Y230819D02*
Y231819D01*
X382700Y230819D02*
X383200D01*
X382700Y230319D02*
Y230819D01*
X381700Y230319D02*
X382700D01*
X381700D02*
Y230819D01*
X381200Y211724D02*
X381700D01*
X381200D02*
Y212724D01*
X381700D01*
Y213224D01*
X382700D01*
Y212724D02*
Y213224D01*
Y212724D02*
X383200D01*
Y211724D02*
Y212724D01*
X382700Y211724D02*
X383200D01*
X382700Y211224D02*
Y211724D01*
X381700Y211224D02*
X382700D01*
X381700D02*
Y211724D01*
X392500Y235043D02*
X393500Y235543D01*
X394500Y235043D01*
X394000Y236043D02*
X394500Y235043D01*
X394000Y236043D02*
X394500Y237043D01*
X393500Y236543D02*
X394500Y237043D01*
X392500D02*
X393500Y236543D01*
X392500Y237043D02*
X393000Y236043D01*
X392500Y235043D02*
X393000Y236043D01*
X392500Y206500D02*
X393500Y207000D01*
X394500Y206500D01*
X394000Y207500D02*
X394500Y206500D01*
X394000Y207500D02*
X394500Y208500D01*
X393500Y208000D02*
X394500Y208500D01*
X392500D02*
X393500Y208000D01*
X392500Y208500D02*
X393000Y207500D01*
X392500Y206500D02*
X393000Y207500D01*
X270000Y206000D02*
X272000D01*
Y208000D01*
X270000D02*
X272000D01*
X270000Y206000D02*
Y208000D01*
X36500Y52500D02*
X38500D01*
Y54500D01*
X36500D02*
X38500D01*
X36500Y52500D02*
Y54500D01*
Y105500D02*
X38500D01*
Y107500D01*
X36500D02*
X38500D01*
X36500Y105500D02*
Y107500D01*
X156228Y146248D02*
Y146748D01*
X156728Y147248D01*
X156228Y147748D02*
X156728Y147248D01*
X156228Y147748D02*
Y148248D01*
X156728D01*
X157228Y147748D01*
X157728Y148248D01*
X158228D01*
Y147748D02*
Y148248D01*
X157728Y147248D02*
X158228Y147748D01*
X157728Y147248D02*
X158228Y146748D01*
Y146248D02*
Y146748D01*
X157728Y146248D02*
X158228D01*
X157228Y146748D02*
X157728Y146248D01*
X156728D02*
X157228Y146748D01*
X156228Y146248D02*
X156728D01*
X166228D02*
Y146748D01*
X166728Y147248D01*
X166228Y147748D02*
X166728Y147248D01*
X166228Y147748D02*
Y148248D01*
X166728D01*
X167228Y147748D01*
X167728Y148248D01*
X168228D01*
Y147748D02*
Y148248D01*
X167728Y147248D02*
X168228Y147748D01*
X167728Y147248D02*
X168228Y146748D01*
Y146248D02*
Y146748D01*
X167728Y146248D02*
X168228D01*
X167228Y146748D02*
X167728Y146248D01*
X166728D02*
X167228Y146748D01*
X166228Y146248D02*
X166728D01*
X176228D02*
Y146748D01*
X176728Y147248D01*
X176228Y147748D02*
X176728Y147248D01*
X176228Y147748D02*
Y148248D01*
X176728D01*
X177228Y147748D01*
X177728Y148248D01*
X178228D01*
Y147748D02*
Y148248D01*
X177728Y147248D02*
X178228Y147748D01*
X177728Y147248D02*
X178228Y146748D01*
Y146248D02*
Y146748D01*
X177728Y146248D02*
X178228D01*
X177228Y146748D02*
X177728Y146248D01*
X176728D02*
X177228Y146748D01*
X176228Y146248D02*
X176728D01*
X176228Y170248D02*
Y170748D01*
X176728Y171248D01*
X176228Y171748D02*
X176728Y171248D01*
X176228Y171748D02*
Y172248D01*
X176728D01*
X177228Y171748D01*
X177728Y172248D01*
X178228D01*
Y171748D02*
Y172248D01*
X177728Y171248D02*
X178228Y171748D01*
X177728Y171248D02*
X178228Y170748D01*
Y170248D02*
Y170748D01*
X177728Y170248D02*
X178228D01*
X177228Y170748D02*
X177728Y170248D01*
X176728D02*
X177228Y170748D01*
X176228Y170248D02*
X176728D01*
X166228D02*
Y170748D01*
X166728Y171248D01*
X166228Y171748D02*
X166728Y171248D01*
X166228Y171748D02*
Y172248D01*
X166728D01*
X167228Y171748D01*
X167728Y172248D01*
X168228D01*
Y171748D02*
Y172248D01*
X167728Y171248D02*
X168228Y171748D01*
X167728Y171248D02*
X168228Y170748D01*
Y170248D02*
Y170748D01*
X167728Y170248D02*
X168228D01*
X167228Y170748D02*
X167728Y170248D01*
X166728D02*
X167228Y170748D01*
X166228Y170248D02*
X166728D01*
X156228D02*
Y170748D01*
X156728Y171248D01*
X156228Y171748D02*
X156728Y171248D01*
X156228Y171748D02*
Y172248D01*
X156728D01*
X157228Y171748D01*
X157728Y172248D01*
X158228D01*
Y171748D02*
Y172248D01*
X157728Y171248D02*
X158228Y171748D01*
X157728Y171248D02*
X158228Y170748D01*
Y170248D02*
Y170748D01*
X157728Y170248D02*
X158228D01*
X157228Y170748D02*
X157728Y170248D01*
X156728D02*
X157228Y170748D01*
X156228Y170248D02*
X156728D01*
X108478Y146248D02*
Y146748D01*
X108978Y147248D01*
X108478Y147748D02*
X108978Y147248D01*
X108478Y147748D02*
Y148248D01*
X108978D01*
X109478Y147748D01*
X109978Y148248D01*
X110478D01*
Y147748D02*
Y148248D01*
X109978Y147248D02*
X110478Y147748D01*
X109978Y147248D02*
X110478Y146748D01*
Y146248D02*
Y146748D01*
X109978Y146248D02*
X110478D01*
X109478Y146748D02*
X109978Y146248D01*
X108978D02*
X109478Y146748D01*
X108478Y146248D02*
X108978D01*
X118478D02*
Y146748D01*
X118978Y147248D01*
X118478Y147748D02*
X118978Y147248D01*
X118478Y147748D02*
Y148248D01*
X118978D01*
X119478Y147748D01*
X119978Y148248D01*
X120478D01*
Y147748D02*
Y148248D01*
X119978Y147248D02*
X120478Y147748D01*
X119978Y147248D02*
X120478Y146748D01*
Y146248D02*
Y146748D01*
X119978Y146248D02*
X120478D01*
X119478Y146748D02*
X119978Y146248D01*
X118978D02*
X119478Y146748D01*
X118478Y146248D02*
X118978D01*
X128478D02*
Y146748D01*
X128978Y147248D01*
X128478Y147748D02*
X128978Y147248D01*
X128478Y147748D02*
Y148248D01*
X128978D01*
X129478Y147748D01*
X129978Y148248D01*
X130478D01*
Y147748D02*
Y148248D01*
X129978Y147248D02*
X130478Y147748D01*
X129978Y147248D02*
X130478Y146748D01*
Y146248D02*
Y146748D01*
X129978Y146248D02*
X130478D01*
X129478Y146748D02*
X129978Y146248D01*
X128978D02*
X129478Y146748D01*
X128478Y146248D02*
X128978D01*
X128478Y170248D02*
Y170748D01*
X128978Y171248D01*
X128478Y171748D02*
X128978Y171248D01*
X128478Y171748D02*
Y172248D01*
X128978D01*
X129478Y171748D01*
X129978Y172248D01*
X130478D01*
Y171748D02*
Y172248D01*
X129978Y171248D02*
X130478Y171748D01*
X129978Y171248D02*
X130478Y170748D01*
Y170248D02*
Y170748D01*
X129978Y170248D02*
X130478D01*
X129478Y170748D02*
X129978Y170248D01*
X128978D02*
X129478Y170748D01*
X128478Y170248D02*
X128978D01*
X118478D02*
Y170748D01*
X118978Y171248D01*
X118478Y171748D02*
X118978Y171248D01*
X118478Y171748D02*
Y172248D01*
X118978D01*
X119478Y171748D01*
X119978Y172248D01*
X120478D01*
Y171748D02*
Y172248D01*
X119978Y171248D02*
X120478Y171748D01*
X119978Y171248D02*
X120478Y170748D01*
Y170248D02*
Y170748D01*
X119978Y170248D02*
X120478D01*
X119478Y170748D02*
X119978Y170248D01*
X118978D02*
X119478Y170748D01*
X118478Y170248D02*
X118978D01*
X108478D02*
Y170748D01*
X108978Y171248D01*
X108478Y171748D02*
X108978Y171248D01*
X108478Y171748D02*
Y172248D01*
X108978D01*
X109478Y171748D01*
X109978Y172248D01*
X110478D01*
Y171748D02*
Y172248D01*
X109978Y171248D02*
X110478Y171748D01*
X109978Y171248D02*
X110478Y170748D01*
Y170248D02*
Y170748D01*
X109978Y170248D02*
X110478D01*
X109478Y170748D02*
X109978Y170248D01*
X108978D02*
X109478Y170748D01*
X108478Y170248D02*
X108978D01*
X60728Y146248D02*
Y146748D01*
X61228Y147248D01*
X60728Y147748D02*
X61228Y147248D01*
X60728Y147748D02*
Y148248D01*
X61228D01*
X61728Y147748D01*
X62228Y148248D01*
X62728D01*
Y147748D02*
Y148248D01*
X62228Y147248D02*
X62728Y147748D01*
X62228Y147248D02*
X62728Y146748D01*
Y146248D02*
Y146748D01*
X62228Y146248D02*
X62728D01*
X61728Y146748D02*
X62228Y146248D01*
X61228D02*
X61728Y146748D01*
X60728Y146248D02*
X61228D01*
X70728D02*
Y146748D01*
X71228Y147248D01*
X70728Y147748D02*
X71228Y147248D01*
X70728Y147748D02*
Y148248D01*
X71228D01*
X71728Y147748D01*
X72228Y148248D01*
X72728D01*
Y147748D02*
Y148248D01*
X72228Y147248D02*
X72728Y147748D01*
X72228Y147248D02*
X72728Y146748D01*
Y146248D02*
Y146748D01*
X72228Y146248D02*
X72728D01*
X71728Y146748D02*
X72228Y146248D01*
X71228D02*
X71728Y146748D01*
X70728Y146248D02*
X71228D01*
X80728D02*
Y146748D01*
X81228Y147248D01*
X80728Y147748D02*
X81228Y147248D01*
X80728Y147748D02*
Y148248D01*
X81228D01*
X81728Y147748D01*
X82228Y148248D01*
X82728D01*
Y147748D02*
Y148248D01*
X82228Y147248D02*
X82728Y147748D01*
X82228Y147248D02*
X82728Y146748D01*
Y146248D02*
Y146748D01*
X82228Y146248D02*
X82728D01*
X81728Y146748D02*
X82228Y146248D01*
X81228D02*
X81728Y146748D01*
X80728Y146248D02*
X81228D01*
X80728Y170248D02*
Y170748D01*
X81228Y171248D01*
X80728Y171748D02*
X81228Y171248D01*
X80728Y171748D02*
Y172248D01*
X81228D01*
X81728Y171748D01*
X82228Y172248D01*
X82728D01*
Y171748D02*
Y172248D01*
X82228Y171248D02*
X82728Y171748D01*
X82228Y171248D02*
X82728Y170748D01*
Y170248D02*
Y170748D01*
X82228Y170248D02*
X82728D01*
X81728Y170748D02*
X82228Y170248D01*
X81228D02*
X81728Y170748D01*
X80728Y170248D02*
X81228D01*
X70728D02*
Y170748D01*
X71228Y171248D01*
X70728Y171748D02*
X71228Y171248D01*
X70728Y171748D02*
Y172248D01*
X71228D01*
X71728Y171748D01*
X72228Y172248D01*
X72728D01*
Y171748D02*
Y172248D01*
X72228Y171248D02*
X72728Y171748D01*
X72228Y171248D02*
X72728Y170748D01*
Y170248D02*
Y170748D01*
X72228Y170248D02*
X72728D01*
X71728Y170748D02*
X72228Y170248D01*
X71228D02*
X71728Y170748D01*
X70728Y170248D02*
X71228D01*
X60728D02*
Y170748D01*
X61228Y171248D01*
X60728Y171748D02*
X61228Y171248D01*
X60728Y171748D02*
Y172248D01*
X61228D01*
X61728Y171748D01*
X62228Y172248D01*
X62728D01*
Y171748D02*
Y172248D01*
X62228Y171248D02*
X62728Y171748D01*
X62228Y171248D02*
X62728Y170748D01*
Y170248D02*
Y170748D01*
X62228Y170248D02*
X62728D01*
X61728Y170748D02*
X62228Y170248D01*
X61228D02*
X61728Y170748D01*
X60728Y170248D02*
X61228D01*
X344000Y60000D02*
X345000Y59000D01*
X346000Y60000D01*
X345000Y61000D02*
X346000Y60000D01*
X344000D02*
X345000Y61000D01*
X344000Y232000D02*
X345000Y231000D01*
X346000Y232000D01*
X345000Y233000D02*
X346000Y232000D01*
X344000D02*
X345000Y233000D01*
X15000Y16000D02*
X16000Y15000D01*
X17000Y16000D01*
X16000Y17000D02*
X17000Y16000D01*
X15000D02*
X16000Y17000D01*
X318500Y151500D02*
X320500D01*
Y153500D01*
X318500D02*
X320500D01*
X318500Y151500D02*
Y153500D01*
X34500Y182000D02*
X36500D01*
Y184000D01*
X34500D02*
X36500D01*
X34500Y182000D02*
Y184000D01*
X66200Y14700D02*
X66500Y14400D01*
X65900Y14700D02*
X66200D01*
X65900D02*
X66200Y15000D01*
X65900Y15300D02*
X66200Y15000D01*
X65900Y15300D02*
X66200D01*
X66500Y15600D01*
X66800Y15300D01*
X67100D01*
X66800Y15000D02*
X67100Y15300D01*
X66800Y15000D02*
X67100Y14700D01*
X66800D02*
X67100D01*
X66500Y14400D02*
X66800Y14700D01*
X66000Y14500D02*
X66500Y14000D01*
X65500Y14500D02*
X66000D01*
X65500D02*
X66000Y15000D01*
X65500Y15500D02*
X66000Y15000D01*
X65500Y15500D02*
X66000D01*
X66500Y16000D01*
X67000Y15500D01*
X67500D01*
X67000Y15000D02*
X67500Y15500D01*
X67000Y15000D02*
X67500Y14500D01*
X67000D02*
X67500D01*
X66500Y14000D02*
X67000Y14500D01*
X66500Y43140D02*
X67100Y44340D01*
X65900D02*
X67100D01*
X65900D02*
X66500Y43140D01*
Y42740D02*
X67500Y44740D01*
X65500D02*
X67500D01*
X65500D02*
X66500Y42740D01*
Y64794D02*
X67100Y65994D01*
X65900D02*
X67100D01*
X65900D02*
X66500Y64794D01*
Y64394D02*
X67500Y66394D01*
X65500D02*
X67500D01*
X65500D02*
X66500Y64394D01*
X91200Y14700D02*
X91500Y14400D01*
X90900Y14700D02*
X91200D01*
X90900D02*
X91200Y15000D01*
X90900Y15300D02*
X91200Y15000D01*
X90900Y15300D02*
X91200D01*
X91500Y15600D01*
X91800Y15300D01*
X92100D01*
X91800Y15000D02*
X92100Y15300D01*
X91800Y15000D02*
X92100Y14700D01*
X91800D02*
X92100D01*
X91500Y14400D02*
X91800Y14700D01*
X91000Y14500D02*
X91500Y14000D01*
X90500Y14500D02*
X91000D01*
X90500D02*
X91000Y15000D01*
X90500Y15500D02*
X91000Y15000D01*
X90500Y15500D02*
X91000D01*
X91500Y16000D01*
X92000Y15500D01*
X92500D01*
X92000Y15000D02*
X92500Y15500D01*
X92000Y15000D02*
X92500Y14500D01*
X92000D02*
X92500D01*
X91500Y14000D02*
X92000Y14500D01*
X91500Y43140D02*
X92100Y44340D01*
X90900D02*
X92100D01*
X90900D02*
X91500Y43140D01*
Y42740D02*
X92500Y44740D01*
X90500D02*
X92500D01*
X90500D02*
X91500Y42740D01*
Y64794D02*
X92100Y65994D01*
X90900D02*
X92100D01*
X90900D02*
X91500Y64794D01*
Y64394D02*
X92500Y66394D01*
X90500D02*
X92500D01*
X90500D02*
X91500Y64394D01*
X129700Y14700D02*
X130000Y14400D01*
X129400Y14700D02*
X129700D01*
X129400D02*
X129700Y15000D01*
X129400Y15300D02*
X129700Y15000D01*
X129400Y15300D02*
X129700D01*
X130000Y15600D01*
X130300Y15300D01*
X130600D01*
X130300Y15000D02*
X130600Y15300D01*
X130300Y15000D02*
X130600Y14700D01*
X130300D02*
X130600D01*
X130000Y14400D02*
X130300Y14700D01*
X129500Y14500D02*
X130000Y14000D01*
X129000Y14500D02*
X129500D01*
X129000D02*
X129500Y15000D01*
X129000Y15500D02*
X129500Y15000D01*
X129000Y15500D02*
X129500D01*
X130000Y16000D01*
X130500Y15500D01*
X131000D01*
X130500Y15000D02*
X131000Y15500D01*
X130500Y15000D02*
X131000Y14500D01*
X130500D02*
X131000D01*
X130000Y14000D02*
X130500Y14500D01*
X138268Y65187D02*
X138868Y66387D01*
X137668D02*
X138868D01*
X137668D02*
X138268Y65187D01*
Y64787D02*
X139268Y66787D01*
X137268D02*
X139268D01*
X137268D02*
X138268Y64787D01*
Y43534D02*
X138868Y44734D01*
X137668D02*
X138868D01*
X137668D02*
X138268Y43534D01*
Y43134D02*
X139268Y45134D01*
X137268D02*
X139268D01*
X137268D02*
X138268Y43134D01*
X121732Y65187D02*
X122332Y66387D01*
X121132D02*
X122332D01*
X121132D02*
X121732Y65187D01*
Y64787D02*
X122732Y66787D01*
X120732D02*
X122732D01*
X120732D02*
X121732Y64787D01*
Y43534D02*
X122332Y44734D01*
X121132D02*
X122332D01*
X121132D02*
X121732Y43534D01*
Y43134D02*
X122732Y45134D01*
X120732D02*
X122732D01*
X120732D02*
X121732Y43134D01*
X15000Y232000D02*
X16000Y231000D01*
X17000Y232000D01*
X16000Y233000D02*
X17000Y232000D01*
X15000D02*
X16000Y233000D01*
G54D180*
X531319Y-11003D02*
Y-17001D01*
Y-14002D01*
X535318D01*
Y-11003D01*
Y-17001D01*
X538317D02*
X540316D01*
X541316Y-16001D01*
Y-14002D01*
X540316Y-13002D01*
X538317D01*
X537317Y-14002D01*
Y-16001D01*
X538317Y-17001D01*
X543315D02*
X545314D01*
X544315D01*
Y-11003D01*
X543315D01*
X551312Y-17001D02*
X549313D01*
X548313Y-16001D01*
Y-14002D01*
X549313Y-13002D01*
X551312D01*
X552312Y-14002D01*
Y-15001D01*
X548313D01*
X560310Y-11003D02*
Y-17001D01*
X564308D01*
X569307D02*
X567307D01*
X566308Y-16001D01*
Y-14002D01*
X567307Y-13002D01*
X569307D01*
X570306Y-14002D01*
Y-15001D01*
X566308D01*
X572306Y-17001D02*
Y-13002D01*
X575305D01*
X576304Y-14002D01*
Y-17001D01*
X580303Y-19000D02*
X581303D01*
X582303Y-18000D01*
Y-13002D01*
X579303D01*
X578304Y-14002D01*
Y-16001D01*
X579303Y-17001D01*
X582303D01*
X585301Y-12002D02*
Y-13002D01*
X584302D01*
X586301D01*
X585301D01*
Y-16001D01*
X586301Y-17001D01*
X589300Y-11003D02*
Y-17001D01*
Y-14002D01*
X590300Y-13002D01*
X592299D01*
X593299Y-14002D01*
Y-17001D01*
X531319Y-7003D02*
Y-1005D01*
X534318D01*
X535318Y-2005D01*
Y-4004D01*
X534318Y-5004D01*
X531319D01*
X533318D02*
X535318Y-7003D01*
X538317D02*
X540316D01*
X541316Y-6004D01*
Y-4004D01*
X540316Y-3005D01*
X538317D01*
X537317Y-4004D01*
Y-6004D01*
X538317Y-7003D01*
X543315Y-3005D02*
Y-6004D01*
X544315Y-7003D01*
X547314D01*
Y-3005D01*
X550313Y-2005D02*
Y-3005D01*
X549313D01*
X551312D01*
X550313D01*
Y-6004D01*
X551312Y-7003D01*
X557310D02*
X555311D01*
X554312Y-6004D01*
Y-4004D01*
X555311Y-3005D01*
X557310D01*
X558310Y-4004D01*
Y-5004D01*
X554312D01*
X564308Y-1005D02*
Y-7003D01*
X561309D01*
X560310Y-6004D01*
Y-4004D01*
X561309Y-3005D01*
X564308D01*
X572306Y-7003D02*
Y-1005D01*
X575305D01*
X576304Y-2005D01*
Y-4004D01*
X575305Y-5004D01*
X572306D01*
X579303Y-3005D02*
X581303D01*
X582303Y-4004D01*
Y-7003D01*
X579303D01*
X578304Y-6004D01*
X579303Y-5004D01*
X582303D01*
X585301Y-2005D02*
Y-3005D01*
X584302D01*
X586301D01*
X585301D01*
Y-6004D01*
X586301Y-7003D01*
X589300Y-1005D02*
Y-7003D01*
Y-4004D01*
X590300Y-3005D01*
X592299D01*
X593299Y-4004D01*
Y-7003D01*
X601296Y-1005D02*
Y-7003D01*
X605295D01*
X610293D02*
X608294D01*
X607294Y-6004D01*
Y-4004D01*
X608294Y-3005D01*
X610293D01*
X611293Y-4004D01*
Y-5004D01*
X607294D01*
X613292Y-7003D02*
Y-3005D01*
X616291D01*
X617291Y-4004D01*
Y-7003D01*
X621290Y-9003D02*
X622290D01*
X623289Y-8003D01*
Y-3005D01*
X620290D01*
X619290Y-4004D01*
Y-6004D01*
X620290Y-7003D01*
X623289D01*
X626288Y-2005D02*
Y-3005D01*
X625288D01*
X627288D01*
X626288D01*
Y-6004D01*
X627288Y-7003D01*
X630287Y-1005D02*
Y-7003D01*
Y-4004D01*
X631287Y-3005D01*
X633286D01*
X634286Y-4004D01*
Y-7003D01*
X432049Y-2005D02*
X431049Y-1005D01*
X429050D01*
X428050Y-2005D01*
Y-3005D01*
X429050Y-4004D01*
X431049D01*
X432049Y-5004D01*
Y-6004D01*
X431049Y-7003D01*
X429050D01*
X428050Y-6004D01*
X434048Y-7003D02*
X436047D01*
X435048D01*
Y-1005D01*
X434048D01*
X440046Y-7003D02*
X442045D01*
X443045Y-6004D01*
Y-4004D01*
X442045Y-3005D01*
X440046D01*
X439046Y-4004D01*
Y-6004D01*
X440046Y-7003D01*
X446044Y-2005D02*
Y-3005D01*
X445045D01*
X447044D01*
X446044D01*
Y-6004D01*
X447044Y-7003D01*
X460040Y-1005D02*
Y-7003D01*
X457041D01*
X456041Y-6004D01*
Y-4004D01*
X457041Y-3005D01*
X460040D01*
X465038Y-7003D02*
X463039D01*
X462039Y-6004D01*
Y-4004D01*
X463039Y-3005D01*
X465038D01*
X466038Y-4004D01*
Y-5004D01*
X462039D01*
X469037Y-7003D02*
Y-2005D01*
Y-4004D01*
X468037D01*
X470036D01*
X469037D01*
Y-2005D01*
X470036Y-1005D01*
X473035Y-7003D02*
X475035D01*
X474035D01*
Y-3005D01*
X473035D01*
X478034Y-7003D02*
Y-3005D01*
X481033D01*
X482032Y-4004D01*
Y-7003D01*
X484032D02*
X486031D01*
X485032D01*
Y-3005D01*
X484032D01*
X490030Y-2005D02*
Y-3005D01*
X489030D01*
X491030D01*
X490030D01*
Y-6004D01*
X491030Y-7003D01*
X494029D02*
X496028D01*
X495028D01*
Y-3005D01*
X494029D01*
X500027Y-7003D02*
X502026D01*
X503026Y-6004D01*
Y-4004D01*
X502026Y-3005D01*
X500027D01*
X499027Y-4004D01*
Y-6004D01*
X500027Y-7003D01*
X505025D02*
Y-3005D01*
X508024D01*
X509024Y-4004D01*
Y-7003D01*
X511023D02*
X514022D01*
X515022Y-6004D01*
X514022Y-5004D01*
X512023D01*
X511023Y-4004D01*
X512023Y-3005D01*
X515022D01*
X523019D02*
X524019D01*
Y-4004D01*
X523019D01*
Y-3005D01*
Y-6004D02*
X524019D01*
Y-7003D01*
X523019D01*
Y-6004D01*
M02*
