M48
;Layer_Color=9474304
;FILE_FORMAT=2:5
INCH,TZ
;TYPE=PLATED
T1F00S00C0.01181
T2F00S00C0.02756
T3F00S00C0.03200
T4F00S00C0.03500
T6F00S00C0.03937
T7F00S00C0.04331
T8F00S00C0.04724
T9F00S00C0.07874
T10F00S00C0.11024
T11F00S00C0.11811
%
T01
X4700Y5200
X11000Y132500
X24000Y136500
X27000Y148500
X36500Y133500
X9500Y162000
X17000Y174000
X44500Y179000
X51500Y181500
X41500Y148500
X54000Y131000
X62000Y130500
X74500Y114500
X86500Y102000
X101500Y107500
X98000Y120500
X101500Y127000
X117000Y130000
Y133500
X119500Y132000
X131300Y120400
X128400Y109100
X121000Y104600
X123500Y96500
X130000Y92500
X147000Y83000
X160000Y92500
X176700Y86700
X183100Y94000
X185300Y96500
X184500Y101500
X189150Y115100
X179500Y125500
X158000Y118500
X160000Y115000
X172500Y66400
X186000Y152500
X185500Y162000
X147500Y181000
X100000Y181500
X196500Y184000
X202500Y184500
X216500Y185000
X217500Y181500
X221000Y182500
X240000Y174500
X235500Y168500
X235000Y148500
X240000
X243500Y140500
X231500Y140000
X228000Y123500
X232000Y115000
Y110500
X233500Y104000
X236000Y101500
X230500Y99000
X230400Y95700
X220000Y96500
X215500Y95500
X221500Y89000
X229000Y85000
X227000Y82000
X235500
X238000Y91500
X240000Y97500
X245053Y102500
X247621
X250190
X252758
X256000Y111500
X260500Y118000
X266000
Y109500
X275500Y115500
Y121000
X276500Y124500
X289500Y121000
Y117000
X297500Y119500
X302000Y127000
X314500Y123993
X314000Y119500
X311500Y114000
X312500Y106500
X303500Y99000
X308000Y89500
X304500Y85000
X308000Y71000
X301500Y67000
X297000Y65000
Y62432
Y59863
Y57294
X296500Y69500
X296000Y76000
X278600Y84300
X273600Y85100
X271500Y88000
X270500Y94000
X282000Y90500
X292500Y102500
X287500Y135500
X288165Y145000
X309500Y136382
X346584Y131500
X331700Y95400
X330500Y73500
X276500Y67000
X274000Y69500
X267500Y73500
X259000Y69500
X255500Y67500
X248500Y71000
X238500
Y61000
X235000Y57500
X232500Y65000
X224500Y71000
X209000Y67000
X199788Y61000
X212000Y44011
X220500Y48011
X231000
Y44011
X251500Y40956
X270900Y53600
X279400Y58900
X259500Y79500
X260000Y83500
X250000Y93000
X246000
X243500Y105500
X242500Y116000
X240000Y128500
X254000Y127500
X258000
Y123500
X257500Y135000
X254500Y149000
X249500Y159000
X266000Y168500
X215000Y159000
X206500Y162000
X196500Y165500
Y172500
X205000Y128500
X204400Y117600
X205000Y111500
X203500Y105500
X198500Y109500
X356500Y109000
X363500Y104500
X374000Y104000
X386000Y99000
X380500Y90500
X363000Y83500
X359000Y74500
X376000Y53000
X368500Y123000
X365500
X363500Y168000
X359500
X325500Y204000
X285500
Y217000
X277000Y198500
X238504Y192004
X231000Y192500
X228500Y190500
X212500Y202000
X215000Y205000
X233000Y230000
X237000Y235000
X142000Y190500
Y187500
X95000Y188500
X94500Y192000
T02
X384500Y17000
X67000Y29500
X41000Y14000
X14000Y80000
X57500Y114000
X80500Y119000
X158000Y131500
X148500Y74000
X130500Y55000
Y32000
X91500
X172000Y44000
X185500Y48500
X204000Y40500
X195500Y76500
X196000Y123000
X221000Y122500
X209000Y146500
X255000Y170000
X275500Y174000
X276000Y141000
X333000Y165000
X261200Y63300
X284200Y34500
X252500Y189500
X271000Y236500
X297000Y223000
X300500Y213500
X305500
X303000Y209000
X310500Y222500
X184000Y210000
Y203500
X177000
Y210000
X170000
Y203500
X161200Y205900
X152500Y203500
Y210000
X144400Y205900
X136500Y203500
Y210000
X130000
X123500
Y203500
X130000
X114800Y205900
X106000Y203500
Y210000
X97700Y205900
X89500Y203500
Y210000
X82000
Y203500
X75000
Y210000
X66600
Y203500
X57100Y205900
X16500Y195000
T03
X382200Y212224
Y231319
T04
X205500Y72626
Y80500
Y88374
Y96248
T06
X17500Y53500
Y106500
X15500Y183000
X299500Y152500
X271000Y220650
T07
X365500Y29000
X395500
X177228Y147248
X167228
X157228
X157228Y171248
X167228
X177228
X129478
X119478
X109478
X109478Y147248
X119478
X129478
X81728
X71728
X61728
X61728Y171248
X71728
X81728
X365500Y59000
Y49000
Y39000
X395500
Y49000
Y59000
T08
X35500Y183000
X37500Y106500
Y53500
X319500Y152500
X271000Y207000
T09
X66500Y43740
Y65394
X91500
Y43740
X121732Y44134
X138268
Y65787
X121732
T10
X16000Y16000
X345000Y60000
Y232000
X16000
T11
X66500Y15000
X91500
X130000
M30
