G04*
G04 #@! TF.GenerationSoftware,Altium Limited,Altium Designer,19.1.5 (86)*
G04*
G04 Layer_Color=128*
%FSLAX25Y25*%
%MOIN*%
G70*
G01*
G75*
%ADD29R,0.03200X0.03200*%
%ADD30R,0.03200X0.03200*%
%ADD31R,0.02200X0.02200*%
%ADD32R,0.04331X0.03347*%
%ADD33R,0.05600X0.03800*%
%ADD34R,0.03347X0.04331*%
%ADD36R,0.02200X0.02200*%
%ADD43R,0.05800X0.03600*%
%ADD44R,0.11811X0.06260*%
%ADD45R,0.03600X0.05800*%
%ADD60R,0.04000X0.02400*%
%ADD61R,0.03800X0.02800*%
%ADD167R,0.06890X0.06000*%
%ADD168R,0.06000X0.06890*%
G54D29*
X191500Y128500D02*
D03*
Y133500D02*
D03*
G54D30*
X377500Y59000D02*
D03*
X372500D02*
D03*
G54D31*
X34350Y152500D02*
D03*
X30349D02*
D03*
X34350Y148500D02*
D03*
X30349D02*
D03*
X26349Y174000D02*
D03*
X30349D02*
D03*
X5350Y154000D02*
D03*
X9349D02*
D03*
X376000Y29000D02*
D03*
X372000D02*
D03*
X376000Y39000D02*
D03*
X372000D02*
D03*
X376000Y49000D02*
D03*
X372000D02*
D03*
G54D32*
X5865Y141260D02*
D03*
Y148740D02*
D03*
X16849Y145000D02*
D03*
G54D33*
X116000Y34100D02*
D03*
Y26900D02*
D03*
X109000D02*
D03*
Y34100D02*
D03*
X159000Y59100D02*
D03*
Y51900D02*
D03*
X152000D02*
D03*
Y59100D02*
D03*
G54D34*
X38590Y157508D02*
D03*
X31109D02*
D03*
X34850Y168492D02*
D03*
X14109Y164992D02*
D03*
X21590D02*
D03*
X17850Y154008D02*
D03*
G54D36*
X26349Y156500D02*
D03*
Y152500D02*
D03*
X20349Y136500D02*
D03*
Y140500D02*
D03*
X21350Y174000D02*
D03*
Y170000D02*
D03*
X13849Y174000D02*
D03*
Y170000D02*
D03*
X38849Y152500D02*
D03*
Y148500D02*
D03*
X21849Y145000D02*
D03*
Y149000D02*
D03*
G54D43*
X262000Y218800D02*
D03*
Y207000D02*
D03*
X323000Y62100D02*
D03*
Y73900D02*
D03*
G54D44*
X50500Y63358D02*
D03*
Y45642D02*
D03*
G54D45*
X118400Y20000D02*
D03*
X106600D02*
D03*
X161400Y45000D02*
D03*
X149600D02*
D03*
X25600Y40000D02*
D03*
X37400D02*
D03*
X25600Y32000D02*
D03*
X37400D02*
D03*
G54D60*
X29928Y140000D02*
D03*
Y143740D02*
D03*
Y136260D02*
D03*
G54D61*
X39771D02*
D03*
Y143740D02*
D03*
G54D167*
X35500Y192500D02*
D03*
Y210500D02*
D03*
X382000Y85000D02*
D03*
Y103000D02*
D03*
G54D168*
X384500Y112500D02*
D03*
X366500D02*
D03*
X384000Y75500D02*
D03*
X366000D02*
D03*
M02*
