G04*
G04 #@! TF.GenerationSoftware,Altium Limited,Altium Designer,19.1.5 (86)*
G04*
G04 Layer_Color=255*
%FSLAX25Y25*%
%MOIN*%
G70*
G01*
G75*
%ADD28R,0.26000X0.23000*%
%ADD29R,0.08600X0.04800*%
%ADD30R,0.02000X0.03000*%
%ADD31R,0.04331X0.01600*%
%ADD32O,0.04331X0.01600*%
%ADD33R,0.06000X0.06890*%
%ADD34R,0.03150X0.11811*%
%ADD35R,0.04724X0.13780*%
%ADD36R,0.11811X0.03150*%
%ADD37R,0.13780X0.04724*%
%ADD38R,0.02400X0.04000*%
%ADD39R,0.02800X0.03800*%
%ADD40R,0.04000X0.02400*%
%ADD41R,0.03800X0.02800*%
%ADD42R,0.10315X0.13819*%
G04:AMPARAMS|DCode=43|XSize=23.62mil|YSize=78.74mil|CornerRadius=5.91mil|HoleSize=0mil|Usage=FLASHONLY|Rotation=90.000|XOffset=0mil|YOffset=0mil|HoleType=Round|Shape=RoundedRectangle|*
%AMROUNDEDRECTD43*
21,1,0.02362,0.06693,0,0,90.0*
21,1,0.01181,0.07874,0,0,90.0*
1,1,0.01181,0.03347,0.00591*
1,1,0.01181,0.03347,-0.00591*
1,1,0.01181,-0.03347,-0.00591*
1,1,0.01181,-0.03347,0.00591*
%
%ADD43ROUNDEDRECTD43*%
%ADD44O,0.07874X0.02362*%
%ADD45R,0.05118X0.06299*%
G04:AMPARAMS|DCode=46|XSize=12mil|YSize=64mil|CornerRadius=3mil|HoleSize=0mil|Usage=FLASHONLY|Rotation=270.000|XOffset=0mil|YOffset=0mil|HoleType=Round|Shape=RoundedRectangle|*
%AMROUNDEDRECTD46*
21,1,0.01200,0.05800,0,0,270.0*
21,1,0.00600,0.06400,0,0,270.0*
1,1,0.00600,-0.02900,-0.00300*
1,1,0.00600,-0.02900,0.00300*
1,1,0.00600,0.02900,0.00300*
1,1,0.00600,0.02900,-0.00300*
%
%ADD46ROUNDEDRECTD46*%
%ADD47O,0.07000X0.01900*%
G04:AMPARAMS|DCode=48|XSize=19mil|YSize=70mil|CornerRadius=4.75mil|HoleSize=0mil|Usage=FLASHONLY|Rotation=90.000|XOffset=0mil|YOffset=0mil|HoleType=Round|Shape=RoundedRectangle|*
%AMROUNDEDRECTD48*
21,1,0.01900,0.06050,0,0,90.0*
21,1,0.00950,0.07000,0,0,90.0*
1,1,0.00950,0.03025,0.00475*
1,1,0.00950,0.03025,-0.00475*
1,1,0.00950,-0.03025,-0.00475*
1,1,0.00950,-0.03025,0.00475*
%
%ADD48ROUNDEDRECTD48*%
%ADD49R,0.03500X0.03200*%
%ADD50R,0.03937X0.10630*%
%ADD51R,0.04153X0.04347*%
%ADD52R,0.04035X0.04307*%
%ADD53R,0.03347X0.04331*%
%ADD54R,0.04331X0.03347*%
%ADD55O,0.07874X0.02362*%
%ADD56R,0.03200X0.03200*%
%ADD57R,0.03200X0.03200*%
%ADD58R,0.02200X0.02200*%
%ADD59R,0.02200X0.02200*%
%ADD60R,0.02500X0.02500*%
%ADD61R,0.03600X0.05800*%
%ADD62R,0.03800X0.05600*%
%ADD63R,0.03000X0.03500*%
%ADD64R,0.03500X0.03000*%
%ADD65C,0.05000*%
%ADD66R,0.01181X0.05906*%
%ADD67R,0.05906X0.01181*%
G04:AMPARAMS|DCode=116|XSize=90mil|YSize=68mil|CornerRadius=27.2mil|HoleSize=0mil|Usage=FLASHONLY|Rotation=0.000|XOffset=0mil|YOffset=0mil|HoleType=Round|Shape=RoundedRectangle|*
%AMROUNDEDRECTD116*
21,1,0.09000,0.01360,0,0,0.0*
21,1,0.03560,0.06800,0,0,0.0*
1,1,0.05440,0.01780,-0.00680*
1,1,0.05440,-0.01780,-0.00680*
1,1,0.05440,-0.01780,0.00680*
1,1,0.05440,0.01780,0.00680*
%
%ADD116ROUNDEDRECTD116*%
%ADD117O,0.05000X0.05400*%
%ADD143C,0.06693*%
%ADD144C,0.08268*%
%ADD145C,0.07480*%
%ADD146C,0.06299*%
%ADD147O,0.13780X0.15748*%
%ADD148O,0.13780X0.15748*%
%ADD149R,0.13780X0.15748*%
%ADD150C,0.06693*%
%ADD151R,0.06693X0.06693*%
%ADD152O,0.06000X0.05500*%
G04:AMPARAMS|DCode=153|XSize=55mil|YSize=60mil|CornerRadius=6.88mil|HoleSize=0mil|Usage=FLASHONLY|Rotation=270.000|XOffset=0mil|YOffset=0mil|HoleType=Round|Shape=RoundedRectangle|*
%AMROUNDEDRECTD153*
21,1,0.05500,0.04625,0,0,270.0*
21,1,0.04125,0.06000,0,0,270.0*
1,1,0.01375,-0.02313,-0.02063*
1,1,0.01375,-0.02313,0.02063*
1,1,0.01375,0.02313,0.02063*
1,1,0.01375,0.02313,-0.02063*
%
%ADD153ROUNDEDRECTD153*%
%ADD154C,0.27559*%
G54D28*
X70000Y63500D02*
D03*
G54D29*
X95000Y54750D02*
D03*
X95000Y72250D02*
D03*
G54D30*
X219000Y48200D02*
D03*
Y42800D02*
D03*
G54D31*
Y181661D02*
D03*
G54D32*
Y184221D02*
D03*
X201000Y189339D02*
D03*
Y184221D02*
D03*
Y186779D02*
D03*
Y181661D02*
D03*
X219000Y189339D02*
D03*
Y186779D02*
D03*
G54D33*
X78000Y178000D02*
D03*
X60000D02*
D03*
G54D34*
X310752Y31000D02*
D03*
X318626D02*
D03*
X302878D02*
D03*
X326500D02*
D03*
X342248D02*
D03*
X334374D02*
D03*
X212374D02*
D03*
X220248D02*
D03*
X204500D02*
D03*
X196626D02*
D03*
X188752D02*
D03*
X249752D02*
D03*
X257626D02*
D03*
X273374D02*
D03*
X265500D02*
D03*
G54D35*
X352091Y8362D02*
D03*
X293035D02*
D03*
X178909D02*
D03*
X230090D02*
D03*
X283217D02*
D03*
X239910D02*
D03*
G54D36*
X370000Y128626D02*
D03*
Y144374D02*
D03*
Y136500D02*
D03*
X370362Y83342D02*
D03*
Y99090D02*
D03*
Y91216D02*
D03*
X369862Y173843D02*
D03*
Y189591D02*
D03*
Y181717D02*
D03*
G54D37*
X392638Y154217D02*
D03*
Y118783D02*
D03*
X393000Y108933D02*
D03*
Y73500D02*
D03*
X392500Y199433D02*
D03*
Y164000D02*
D03*
G54D38*
X213740Y161500D02*
D03*
X206260D02*
D03*
X210000D02*
D03*
X58260Y157579D02*
D03*
X65740D02*
D03*
X62000D02*
D03*
G54D39*
X206260Y151657D02*
D03*
X213740D02*
D03*
X65740Y167421D02*
D03*
X58260D02*
D03*
G54D40*
X164579Y126240D02*
D03*
Y118760D02*
D03*
Y122500D02*
D03*
X270421Y151760D02*
D03*
Y159240D02*
D03*
Y155500D02*
D03*
X114921Y74760D02*
D03*
Y82240D02*
D03*
Y78500D02*
D03*
G54D41*
X174421Y118760D02*
D03*
Y126240D02*
D03*
X260579Y159240D02*
D03*
Y151760D02*
D03*
X105079Y82240D02*
D03*
Y74760D02*
D03*
G54D42*
X304500Y185500D02*
D03*
G54D43*
X293500Y193000D02*
D03*
G54D44*
Y188000D02*
D03*
Y183000D02*
D03*
X315500Y178000D02*
D03*
Y188000D02*
D03*
Y193000D02*
D03*
Y183000D02*
D03*
X293500Y178000D02*
D03*
X328500Y121500D02*
D03*
Y116500D02*
D03*
X350500Y111500D02*
D03*
Y121500D02*
D03*
Y126500D02*
D03*
Y116500D02*
D03*
X328500Y111500D02*
D03*
X321000Y94000D02*
D03*
Y89000D02*
D03*
X343000Y84000D02*
D03*
Y94000D02*
D03*
Y99000D02*
D03*
Y89000D02*
D03*
X321000Y84000D02*
D03*
G54D45*
X282972Y95020D02*
D03*
Y109980D02*
D03*
X292028D02*
D03*
Y95020D02*
D03*
G54D46*
X382500Y226890D02*
D03*
Y224331D02*
D03*
Y221772D02*
D03*
Y219213D02*
D03*
Y216653D02*
D03*
G54D47*
X148200Y168839D02*
D03*
Y166279D02*
D03*
X171800Y176516D02*
D03*
X148200Y156043D02*
D03*
Y158602D02*
D03*
Y171398D02*
D03*
Y163721D02*
D03*
X171800Y173957D02*
D03*
Y166279D02*
D03*
Y161161D02*
D03*
Y171398D02*
D03*
Y168839D02*
D03*
Y163720D02*
D03*
X148200Y176516D02*
D03*
Y173957D02*
D03*
Y153484D02*
D03*
X171800Y156043D02*
D03*
Y158602D02*
D03*
X148200Y161161D02*
D03*
G54D48*
X171800Y153484D02*
D03*
G54D49*
X395500Y17000D02*
D03*
X389500D02*
D03*
G54D50*
X174421Y134500D02*
D03*
X164579D02*
D03*
G54D51*
X126429Y168500D02*
D03*
Y162000D02*
D03*
Y155500D02*
D03*
X158571Y133500D02*
D03*
X285071Y148000D02*
D03*
Y154500D02*
D03*
G54D52*
X135571Y168500D02*
D03*
Y162000D02*
D03*
Y155500D02*
D03*
X149429Y133500D02*
D03*
X275929Y148000D02*
D03*
Y154500D02*
D03*
G54D53*
X273500Y41508D02*
D03*
X269760Y52492D02*
D03*
X277240D02*
D03*
X286000Y52508D02*
D03*
X282260Y63492D02*
D03*
X289740D02*
D03*
X235260Y172484D02*
D03*
X239000Y161500D02*
D03*
X231520D02*
D03*
X106000Y54508D02*
D03*
X102260Y65492D02*
D03*
X109740D02*
D03*
X67000Y144500D02*
D03*
X70740Y133516D02*
D03*
X63260D02*
D03*
G54D54*
X90492Y162500D02*
D03*
X79508Y158760D02*
D03*
Y166240D02*
D03*
X76008Y145500D02*
D03*
X86992Y149240D02*
D03*
Y141760D02*
D03*
G54D55*
X328500Y126500D02*
D03*
X321000Y99000D02*
D03*
G54D56*
X304500Y49500D02*
D03*
X309500D02*
D03*
X360000Y144500D02*
D03*
X355000D02*
D03*
X360000Y95000D02*
D03*
X355000D02*
D03*
X360000Y136500D02*
D03*
X355000D02*
D03*
X360000Y90000D02*
D03*
X355000D02*
D03*
X244260Y161492D02*
D03*
X249260D02*
D03*
X87000Y85000D02*
D03*
X92000D02*
D03*
Y80000D02*
D03*
X87000D02*
D03*
G54D57*
X290000Y74000D02*
D03*
Y69000D02*
D03*
X63000Y125500D02*
D03*
Y120500D02*
D03*
X68000D02*
D03*
Y125500D02*
D03*
G54D58*
X201000Y194500D02*
D03*
X205000D02*
D03*
X192500D02*
D03*
X196500D02*
D03*
X202000Y166500D02*
D03*
X206000D02*
D03*
X197500Y161500D02*
D03*
X201500D02*
D03*
X197500Y156500D02*
D03*
X201500D02*
D03*
X224500Y194500D02*
D03*
X220500D02*
D03*
X228500Y187500D02*
D03*
X224500D02*
D03*
X229000Y179000D02*
D03*
X233000D02*
D03*
Y183500D02*
D03*
X229000D02*
D03*
X214000Y100000D02*
D03*
X218000D02*
D03*
X317000Y126500D02*
D03*
X321000D02*
D03*
X317000Y119500D02*
D03*
X321000D02*
D03*
X317000Y111500D02*
D03*
X321000D02*
D03*
X271500Y57500D02*
D03*
X275500D02*
D03*
X317000Y103500D02*
D03*
X321000D02*
D03*
X317000Y79500D02*
D03*
X321000D02*
D03*
X214500Y50000D02*
D03*
X210500D02*
D03*
X214500Y46000D02*
D03*
X210500D02*
D03*
X214500Y42000D02*
D03*
X210500D02*
D03*
X359500Y189500D02*
D03*
X355500D02*
D03*
X359500Y182000D02*
D03*
X355500D02*
D03*
X285500Y121000D02*
D03*
X281500D02*
D03*
X160500Y114000D02*
D03*
X164500D02*
D03*
X231100Y156400D02*
D03*
X235100D02*
D03*
Y152400D02*
D03*
X231100D02*
D03*
X70500Y166500D02*
D03*
X74500D02*
D03*
X123500Y82500D02*
D03*
X119500D02*
D03*
X74500Y154000D02*
D03*
X78500D02*
D03*
X100500Y82500D02*
D03*
X96500D02*
D03*
X111000Y70500D02*
D03*
X115000D02*
D03*
X71000Y149500D02*
D03*
X67000D02*
D03*
X92000Y141500D02*
D03*
X96000D02*
D03*
X92000Y149000D02*
D03*
X96000D02*
D03*
X272500Y121500D02*
D03*
X268500D02*
D03*
X213500Y147000D02*
D03*
X209500D02*
D03*
X201000Y177000D02*
D03*
X205000D02*
D03*
X272500Y117500D02*
D03*
X268500D02*
D03*
X354500Y131500D02*
D03*
X350500D02*
D03*
X281500Y125000D02*
D03*
X285500D02*
D03*
X268500Y109500D02*
D03*
X272500D02*
D03*
X281500Y117000D02*
D03*
X285500D02*
D03*
X289500Y88500D02*
D03*
X285500D02*
D03*
X293500Y173000D02*
D03*
X297500D02*
D03*
X152000Y114000D02*
D03*
X156000D02*
D03*
X112000Y87000D02*
D03*
X116000D02*
D03*
X107500D02*
D03*
X103500D02*
D03*
X102500Y70500D02*
D03*
X106500D02*
D03*
X213500Y116500D02*
D03*
X217500D02*
D03*
X272500Y113500D02*
D03*
X268500D02*
D03*
X62500Y148000D02*
D03*
X58500D02*
D03*
G54D59*
X196000Y179500D02*
D03*
Y175500D02*
D03*
X191500Y190500D02*
D03*
Y186500D02*
D03*
X195500Y187500D02*
D03*
Y183500D02*
D03*
X222000Y161500D02*
D03*
Y157500D02*
D03*
X218000D02*
D03*
Y161500D02*
D03*
X224500Y183500D02*
D03*
Y179500D02*
D03*
X326500Y40500D02*
D03*
Y44500D02*
D03*
X319000Y40500D02*
D03*
Y44500D02*
D03*
X311000Y40500D02*
D03*
Y44500D02*
D03*
X358500Y126000D02*
D03*
Y122000D02*
D03*
X303000Y40500D02*
D03*
Y44500D02*
D03*
X358500Y116000D02*
D03*
Y112000D02*
D03*
X257500Y44500D02*
D03*
Y40500D02*
D03*
X249500Y44500D02*
D03*
Y40500D02*
D03*
X204500Y54000D02*
D03*
Y50000D02*
D03*
X197000Y54000D02*
D03*
Y50000D02*
D03*
X188500Y54000D02*
D03*
Y50000D02*
D03*
X239100Y156400D02*
D03*
Y152400D02*
D03*
X250000Y79000D02*
D03*
Y75000D02*
D03*
X322500Y184000D02*
D03*
Y180000D02*
D03*
X288000Y171500D02*
D03*
Y167500D02*
D03*
X322500Y192500D02*
D03*
Y188500D02*
D03*
X280000Y167500D02*
D03*
Y171500D02*
D03*
X151500Y118500D02*
D03*
Y122500D02*
D03*
X155500Y118500D02*
D03*
Y122500D02*
D03*
X159500D02*
D03*
Y118500D02*
D03*
X70500Y158000D02*
D03*
Y162000D02*
D03*
X115000Y58000D02*
D03*
Y54000D02*
D03*
Y66000D02*
D03*
Y62000D02*
D03*
X96000Y158000D02*
D03*
Y154000D02*
D03*
X76000Y137000D02*
D03*
Y133000D02*
D03*
X355500Y41000D02*
D03*
Y45000D02*
D03*
X250000Y131000D02*
D03*
Y135000D02*
D03*
X141000Y170000D02*
D03*
Y174000D02*
D03*
Y162000D02*
D03*
Y166000D02*
D03*
Y154000D02*
D03*
Y158000D02*
D03*
X210000Y170500D02*
D03*
Y166500D02*
D03*
X254000Y135000D02*
D03*
Y131000D02*
D03*
X238500Y75000D02*
D03*
Y79000D02*
D03*
X242500D02*
D03*
Y75000D02*
D03*
X314000Y93500D02*
D03*
Y89500D02*
D03*
X350000Y94500D02*
D03*
Y98500D02*
D03*
Y88000D02*
D03*
Y84000D02*
D03*
X230500Y75000D02*
D03*
Y79000D02*
D03*
X234500Y75000D02*
D03*
Y79000D02*
D03*
X237900Y134900D02*
D03*
Y130900D02*
D03*
X241900Y134900D02*
D03*
Y130900D02*
D03*
X232000Y129500D02*
D03*
Y133500D02*
D03*
X218000Y93000D02*
D03*
Y89000D02*
D03*
X267943Y89316D02*
D03*
Y85316D02*
D03*
X254000Y79000D02*
D03*
Y75000D02*
D03*
X284000Y171500D02*
D03*
Y167500D02*
D03*
X244000Y166500D02*
D03*
Y170500D02*
D03*
X245000Y156500D02*
D03*
Y152500D02*
D03*
X74500Y158000D02*
D03*
Y162000D02*
D03*
X246000Y135000D02*
D03*
Y131000D02*
D03*
G54D60*
X249500Y152400D02*
D03*
Y156600D02*
D03*
G54D61*
X358600Y238500D02*
D03*
X370400D02*
D03*
G54D62*
X149400Y140500D02*
D03*
X156600D02*
D03*
G54D63*
X179100Y169000D02*
D03*
X184900D02*
D03*
X286900Y162500D02*
D03*
X281100D02*
D03*
X150100Y127500D02*
D03*
X155900D02*
D03*
G54D64*
X255000Y152600D02*
D03*
Y158400D02*
D03*
G54D65*
X253500Y59452D02*
D03*
X247000D02*
D03*
X216000Y65952D02*
D03*
X208500Y74453D02*
D03*
Y66953D02*
D03*
X134694Y147091D02*
D03*
X219500Y169453D02*
D03*
X186500Y107952D02*
D03*
X233500Y54000D02*
D03*
X224000Y54405D02*
D03*
G54D66*
X251858Y122216D02*
D03*
X249890D02*
D03*
X247921D02*
D03*
X245953D02*
D03*
X253827D02*
D03*
X243984D02*
D03*
X242016D02*
D03*
X240047D02*
D03*
X238079D02*
D03*
X236110D02*
D03*
X234142D02*
D03*
X232173D02*
D03*
Y86783D02*
D03*
X234142D02*
D03*
X236110D02*
D03*
X238079D02*
D03*
X240047D02*
D03*
X242016D02*
D03*
X243984D02*
D03*
X245953D02*
D03*
X247921D02*
D03*
X249890D02*
D03*
X251858D02*
D03*
X253827D02*
D03*
G54D67*
X260717Y93673D02*
D03*
Y95642D02*
D03*
Y97610D02*
D03*
Y99579D02*
D03*
Y101547D02*
D03*
Y103516D02*
D03*
Y105484D02*
D03*
Y107453D02*
D03*
Y109421D02*
D03*
Y111390D02*
D03*
Y113358D02*
D03*
Y115327D02*
D03*
X225284D02*
D03*
Y113358D02*
D03*
Y111390D02*
D03*
Y109421D02*
D03*
Y107453D02*
D03*
Y105484D02*
D03*
Y103516D02*
D03*
Y101547D02*
D03*
Y99579D02*
D03*
Y97610D02*
D03*
Y95642D02*
D03*
Y93673D02*
D03*
G54D116*
X393500Y208100D02*
D03*
Y235443D02*
D03*
G54D117*
X382200Y212224D02*
D03*
Y231319D02*
D03*
G54D143*
X19500Y69000D02*
D03*
Y122750D02*
D03*
Y176500D02*
D03*
X299500Y152500D02*
D03*
X365500Y59000D02*
D03*
Y49000D02*
D03*
Y39000D02*
D03*
X395500Y49000D02*
D03*
X365500Y29000D02*
D03*
X395500Y39000D02*
D03*
Y29000D02*
D03*
Y59000D02*
D03*
G54D144*
X39500Y69000D02*
D03*
Y122750D02*
D03*
Y176500D02*
D03*
X319500Y152500D02*
D03*
G54D145*
X272500Y183000D02*
D03*
G54D146*
X272500Y196650D02*
D03*
G54D147*
X20000Y32500D02*
D03*
X40000D02*
D03*
X60000D02*
D03*
X140000D02*
D03*
X80000D02*
D03*
X120000D02*
D03*
G54D148*
X100000D02*
D03*
G54D149*
X160000D02*
D03*
G54D150*
X200000Y238500D02*
D03*
X190000D02*
D03*
X152500D02*
D03*
X142500D02*
D03*
X105000D02*
D03*
X95000D02*
D03*
X295000D02*
D03*
X285000D02*
D03*
X57500D02*
D03*
X47500D02*
D03*
X247500D02*
D03*
X237500D02*
D03*
G54D151*
X180000D02*
D03*
X132500D02*
D03*
X85000D02*
D03*
X275000D02*
D03*
X37500D02*
D03*
X227500D02*
D03*
G54D152*
X198000Y80626D02*
D03*
Y88500D02*
D03*
Y72752D02*
D03*
G54D153*
Y96374D02*
D03*
G54D154*
X343500Y62500D02*
D03*
X340000Y227500D02*
D03*
X16000Y217000D02*
D03*
X69500Y95000D02*
D03*
M02*
