G04*
G04 #@! TF.GenerationSoftware,Altium Limited,Altium Designer,19.1.5 (86)*
G04*
G04 Layer_Color=2752767*
%FSLAX25Y25*%
%MOIN*%
G70*
G01*
G75*
%ADD11C,0.01000*%
%ADD14C,0.01600*%
%ADD126C,0.01500*%
%ADD214C,0.00200*%
%ADD215C,0.01400*%
G54D11*
X432396Y104727D02*
G03*
X432396Y104727I-3333J0D01*
G01*
X431063Y29728D02*
G03*
X431063Y29728I-2000J0D01*
G01*
X432396D02*
G03*
X432396Y29728I-3333J0D01*
G01*
X425729Y163061D02*
X427396D01*
X425729D02*
Y166394D01*
X427396D01*
Y168061D01*
X430729D01*
Y166394D02*
Y168061D01*
Y166394D02*
X432396D01*
Y163061D02*
Y166394D01*
X430729Y163061D02*
X432396D01*
X430729Y161394D02*
Y163061D01*
X427396Y161394D02*
X430729D01*
X427396D02*
Y163061D01*
X425729Y146394D02*
X429063Y148061D01*
X432396Y146394D01*
X430729Y149727D02*
X432396Y146394D01*
X430729Y149727D02*
X432396Y153061D01*
X429063Y151394D02*
X432396Y153061D01*
X425729D02*
X429063Y151394D01*
X425729Y153061D02*
X427396Y149727D01*
X425729Y146394D02*
X427396Y149727D01*
Y133061D02*
X429063Y131394D01*
X425729Y133061D02*
X427396D01*
X425729D02*
X427396Y134728D01*
X425729Y136394D02*
X427396Y134728D01*
X425729Y136394D02*
X427396D01*
X429063Y138061D01*
X430729Y136394D01*
X432396D01*
X430729Y134728D02*
X432396Y136394D01*
X430729Y134728D02*
X432396Y133061D01*
X430729D02*
X432396D01*
X429063Y131394D02*
X430729Y133061D01*
X425729Y119728D02*
X429063Y116394D01*
X432396Y119728D01*
X429063Y123061D02*
X432396Y119728D01*
X425729D02*
X429063Y123061D01*
X425729Y86394D02*
X432396D01*
Y93061D01*
X425729D02*
X432396D01*
X425729Y86394D02*
Y93061D01*
X429063Y71394D02*
X432396Y78061D01*
X425729D02*
X432396D01*
X425729D02*
X429063Y71394D01*
X425729Y56394D02*
Y58061D01*
X427396Y59728D01*
X425729Y61394D02*
X427396Y59728D01*
X425729Y61394D02*
Y63061D01*
X427396D01*
X429063Y61394D01*
X430729Y63061D01*
X432396D01*
Y61394D02*
Y63061D01*
X430729Y59728D02*
X432396Y61394D01*
X430729Y59728D02*
X432396Y58061D01*
Y56394D02*
Y58061D01*
X430729Y56394D02*
X432396D01*
X429063Y58061D02*
X430729Y56394D01*
X427396D02*
X429063Y58061D01*
X425729Y56394D02*
X427396D01*
X427063Y42728D02*
X431063D01*
Y46727D01*
X427063D02*
X431063D01*
X427063Y42728D02*
Y46727D01*
X425729Y41394D02*
X432396D01*
Y48061D01*
X425729D02*
X432396D01*
X425729Y41394D02*
Y48061D01*
X1745173Y164393D02*
X1749172D01*
X1745173Y151393D02*
X1746173Y152392D01*
X1748172D01*
X1749172Y151393D01*
Y150393D01*
X1748172Y149393D01*
X1747172D01*
X1748172D01*
X1749172Y148393D01*
Y147394D01*
X1748172Y146394D01*
X1746173D01*
X1745173Y147394D01*
X1751171Y151393D02*
X1752171Y152392D01*
X1754170D01*
X1755170Y151393D01*
Y150393D01*
X1754170Y149393D01*
X1755170Y148393D01*
Y147394D01*
X1754170Y146394D01*
X1752171D01*
X1751171Y147394D01*
Y148393D01*
X1752171Y149393D01*
X1751171Y150393D01*
Y151393D01*
X1752171Y149393D02*
X1754170D01*
X1757169Y146394D02*
Y147394D01*
X1758169D01*
Y146394D01*
X1757169D01*
X1762168Y151393D02*
X1763167Y152392D01*
X1765166D01*
X1766166Y151393D01*
Y147394D01*
X1765166Y146394D01*
X1763167D01*
X1762168Y147394D01*
Y151393D01*
X1768166D02*
X1769165Y152392D01*
X1771165D01*
X1772164Y151393D01*
Y147394D01*
X1771165Y146394D01*
X1769165D01*
X1768166Y147394D01*
Y151393D01*
X1774164Y146394D02*
Y150393D01*
X1775163D01*
X1776163Y149393D01*
Y146394D01*
Y149393D01*
X1777163Y150393D01*
X1778162Y149393D01*
Y146394D01*
X1780162D02*
X1782161D01*
X1781161D01*
Y150393D01*
X1780162D01*
X1785160Y146394D02*
X1787159D01*
X1786160D01*
Y152392D01*
X1785160D01*
X1798156Y146394D02*
X1796157Y148393D01*
Y150393D01*
X1798156Y152392D01*
X1801155Y151393D02*
X1802155Y152392D01*
X1804154D01*
X1805154Y151393D01*
Y147394D01*
X1804154Y146394D01*
X1802155D01*
X1801155Y147394D01*
Y151393D01*
X1807153Y146394D02*
Y147394D01*
X1808153D01*
Y146394D01*
X1807153D01*
X1812151Y147394D02*
X1813151Y146394D01*
X1815150D01*
X1816150Y147394D01*
Y151393D01*
X1815150Y152392D01*
X1813151D01*
X1812151Y151393D01*
Y150393D01*
X1813151Y149393D01*
X1816150D01*
X1822148Y152392D02*
X1820149Y151393D01*
X1818149Y149393D01*
Y147394D01*
X1819149Y146394D01*
X1821148D01*
X1822148Y147394D01*
Y148393D01*
X1821148Y149393D01*
X1818149D01*
X1828146Y152392D02*
X1824147D01*
Y149393D01*
X1826147Y150393D01*
X1827147D01*
X1828146Y149393D01*
Y147394D01*
X1827147Y146394D01*
X1825147D01*
X1824147Y147394D01*
X1830145Y146394D02*
Y150393D01*
X1831145D01*
X1832145Y149393D01*
Y146394D01*
Y149393D01*
X1833145Y150393D01*
X1834144Y149393D01*
Y146394D01*
X1836143D02*
Y150393D01*
X1837143D01*
X1838143Y149393D01*
Y146394D01*
Y149393D01*
X1839143Y150393D01*
X1840142Y149393D01*
Y146394D01*
X1842142D02*
X1844141Y148393D01*
Y150393D01*
X1842142Y152392D01*
X1745173Y134393D02*
X1749172D01*
X1745173Y119393D02*
X1749172D01*
X1745173Y104393D02*
X1749172D01*
X1745173Y89393D02*
X1749172D01*
X1745173Y74393D02*
X1749172D01*
X1745173Y59393D02*
X1749172D01*
X1745173Y44393D02*
X1749172D01*
X1745173Y29393D02*
X1749172D01*
X1636205Y164393D02*
X1640203D01*
X1636205Y152392D02*
X1640203D01*
Y151393D01*
X1636205Y147394D01*
Y146394D01*
X1646202Y152392D02*
X1642203D01*
Y149393D01*
X1644202Y150393D01*
X1645202D01*
X1646202Y149393D01*
Y147394D01*
X1645202Y146394D01*
X1643202D01*
X1642203Y147394D01*
X1648201Y146394D02*
Y147394D01*
X1649200D01*
Y146394D01*
X1648201D01*
X1653199Y151393D02*
X1654199Y152392D01*
X1656198D01*
X1657198Y151393D01*
Y147394D01*
X1656198Y146394D01*
X1654199D01*
X1653199Y147394D01*
Y151393D01*
X1659197D02*
X1660197Y152392D01*
X1662196D01*
X1663196Y151393D01*
Y147394D01*
X1662196Y146394D01*
X1660197D01*
X1659197Y147394D01*
Y151393D01*
X1665195Y146394D02*
Y150393D01*
X1666195D01*
X1667195Y149393D01*
Y146394D01*
Y149393D01*
X1668194Y150393D01*
X1669194Y149393D01*
Y146394D01*
X1671193D02*
X1673193D01*
X1672193D01*
Y150393D01*
X1671193D01*
X1676192Y146394D02*
X1678191D01*
X1677191D01*
Y152392D01*
X1676192D01*
X1689187Y146394D02*
X1687188Y148393D01*
Y150393D01*
X1689187Y152392D01*
X1692187Y146394D02*
X1694186D01*
X1693186D01*
Y152392D01*
X1692187Y151393D01*
X1697185Y146394D02*
Y147394D01*
X1698185D01*
Y146394D01*
X1697185D01*
X1702183Y147394D02*
X1703183Y146394D01*
X1705182D01*
X1706182Y147394D01*
Y151393D01*
X1705182Y152392D01*
X1703183D01*
X1702183Y151393D01*
Y150393D01*
X1703183Y149393D01*
X1706182D01*
X1708181Y151393D02*
X1709181Y152392D01*
X1711180D01*
X1712180Y151393D01*
Y147394D01*
X1711180Y146394D01*
X1709181D01*
X1708181Y147394D01*
Y151393D01*
X1718178Y152392D02*
X1714179D01*
Y149393D01*
X1716179Y150393D01*
X1717179D01*
X1718178Y149393D01*
Y147394D01*
X1717179Y146394D01*
X1715179D01*
X1714179Y147394D01*
X1720177Y146394D02*
Y150393D01*
X1721177D01*
X1722177Y149393D01*
Y146394D01*
Y149393D01*
X1723177Y150393D01*
X1724176Y149393D01*
Y146394D01*
X1726176D02*
Y150393D01*
X1727175D01*
X1728175Y149393D01*
Y146394D01*
Y149393D01*
X1729175Y150393D01*
X1730174Y149393D01*
Y146394D01*
X1732174D02*
X1734173Y148393D01*
Y150393D01*
X1732174Y152392D01*
X1636205Y134393D02*
X1640203D01*
X1636205Y119393D02*
X1640203D01*
X1636205Y104393D02*
X1640203D01*
X1636205Y89393D02*
X1640203D01*
X1636205Y74393D02*
X1640203D01*
X1636205Y59393D02*
X1640203D01*
X1636205Y44393D02*
X1640203D01*
X1636205Y29393D02*
X1640203D01*
X1093165Y165393D02*
Y161394D01*
Y163393D01*
X1094165Y164393D01*
X1095164Y165393D01*
X1096164D01*
X1099163Y161394D02*
X1101162D01*
X1100163D01*
Y167392D01*
X1099163Y166393D01*
X1104161D02*
X1105161Y167392D01*
X1107160D01*
X1108160Y166393D01*
Y165393D01*
X1107160Y164393D01*
X1106161D01*
X1107160D01*
X1108160Y163393D01*
Y162394D01*
X1107160Y161394D01*
X1105161D01*
X1104161Y162394D01*
X1110159Y167392D02*
X1114158D01*
Y166393D01*
X1110159Y162394D01*
Y161394D01*
X1116158Y160395D02*
X1120156D01*
X1122156Y161394D02*
X1124155D01*
X1123155D01*
Y167392D01*
X1122156Y166393D01*
X1131153Y161394D02*
X1127154D01*
X1131153Y165393D01*
Y166393D01*
X1130153Y167392D01*
X1128154D01*
X1127154Y166393D01*
X1133152Y167392D02*
X1137151D01*
Y166393D01*
X1133152Y162394D01*
Y161394D01*
X1139150Y167392D02*
Y161394D01*
Y164393D01*
X1140150Y165393D01*
X1142149D01*
X1143149Y164393D01*
Y161394D01*
X1145148Y166393D02*
X1146148Y167392D01*
X1148147D01*
X1149147Y166393D01*
Y165393D01*
X1148147Y164393D01*
X1149147Y163393D01*
Y162394D01*
X1148147Y161394D01*
X1146148D01*
X1145148Y162394D01*
Y163393D01*
X1146148Y164393D01*
X1145148Y165393D01*
Y166393D01*
X1146148Y164393D02*
X1148147D01*
X1151146Y161394D02*
X1153146D01*
X1152146D01*
Y167392D01*
X1151146Y166393D01*
X1156145Y165393D02*
Y161394D01*
Y163393D01*
X1157144Y164393D01*
X1158144Y165393D01*
X1159144D01*
X1162143Y161394D02*
X1164142D01*
X1163142D01*
Y167392D01*
X1162143Y166393D01*
X1167141D02*
X1168141Y167392D01*
X1170140D01*
X1171140Y166393D01*
Y162394D01*
X1170140Y161394D01*
X1168141D01*
X1167141Y162394D01*
Y166393D01*
X1173139D02*
X1174139Y167392D01*
X1176138D01*
X1177138Y166393D01*
Y162394D01*
X1176138Y161394D01*
X1174139D01*
X1173139Y162394D01*
Y166393D01*
X1179137Y161394D02*
Y165393D01*
X1180137D01*
X1181137Y164393D01*
Y161394D01*
Y164393D01*
X1182136Y165393D01*
X1183136Y164393D01*
Y161394D01*
X1185135D02*
X1187135D01*
X1186135D01*
Y167392D01*
X1185135Y166393D01*
X1190134D02*
X1191133Y167392D01*
X1193133D01*
X1194132Y166393D01*
Y165393D01*
X1193133Y164393D01*
X1192133D01*
X1193133D01*
X1194132Y163393D01*
Y162394D01*
X1193133Y161394D01*
X1191133D01*
X1190134Y162394D01*
X1196132Y167392D02*
X1200130D01*
Y166393D01*
X1196132Y162394D01*
Y161394D01*
X1202130Y160395D02*
X1206129D01*
X1208128Y161394D02*
X1210127D01*
X1209128D01*
Y167392D01*
X1208128Y166393D01*
X1217125Y161394D02*
X1213126D01*
X1217125Y165393D01*
Y166393D01*
X1216125Y167392D01*
X1214126D01*
X1213126Y166393D01*
X1219124Y167392D02*
X1223123D01*
Y166393D01*
X1219124Y162394D01*
Y161394D01*
X1093165Y150393D02*
Y146394D01*
Y148393D01*
X1094165Y149393D01*
X1095164Y150393D01*
X1096164D01*
X1103162Y146394D02*
X1099163D01*
X1103162Y150393D01*
Y151393D01*
X1102162Y152392D01*
X1100163D01*
X1099163Y151393D01*
X1109160Y146394D02*
X1105161D01*
X1109160Y150393D01*
Y151393D01*
X1108160Y152392D01*
X1106161D01*
X1105161Y151393D01*
X1111159Y147394D02*
X1112159Y146394D01*
X1114158D01*
X1115158Y147394D01*
Y151393D01*
X1114158Y152392D01*
X1112159D01*
X1111159Y151393D01*
Y150393D01*
X1112159Y149393D01*
X1115158D01*
X1117157Y145395D02*
X1121156D01*
X1123155Y146394D02*
X1125155D01*
X1124155D01*
Y152392D01*
X1123155Y151393D01*
X1128154Y152392D02*
X1132152D01*
Y151393D01*
X1128154Y147394D01*
Y146394D01*
X1134152Y151393D02*
X1135151Y152392D01*
X1137151D01*
X1138151Y151393D01*
Y150393D01*
X1137151Y149393D01*
X1136151D01*
X1137151D01*
X1138151Y148393D01*
Y147394D01*
X1137151Y146394D01*
X1135151D01*
X1134152Y147394D01*
X1140150Y152392D02*
Y146394D01*
Y149393D01*
X1141150Y150393D01*
X1143149D01*
X1144149Y149393D01*
Y146394D01*
X1146148Y147394D02*
X1147148Y146394D01*
X1149147D01*
X1150147Y147394D01*
Y151393D01*
X1149147Y152392D01*
X1147148D01*
X1146148Y151393D01*
Y150393D01*
X1147148Y149393D01*
X1150147D01*
X1155145Y146394D02*
Y152392D01*
X1152146Y149393D01*
X1156145D01*
X1158144Y145395D02*
X1162143D01*
X1164142Y146394D02*
X1166141D01*
X1165142D01*
Y152392D01*
X1164142Y151393D01*
X1169141Y147394D02*
X1170140Y146394D01*
X1172139D01*
X1173139Y147394D01*
Y151393D01*
X1172139Y152392D01*
X1170140D01*
X1169141Y151393D01*
Y150393D01*
X1170140Y149393D01*
X1173139D01*
X1175138Y151393D02*
X1176138Y152392D01*
X1178137D01*
X1179137Y151393D01*
Y147394D01*
X1178137Y146394D01*
X1176138D01*
X1175138Y147394D01*
Y151393D01*
X1181137Y150393D02*
Y146394D01*
Y148393D01*
X1182136Y149393D01*
X1183136Y150393D01*
X1184136D01*
X1187135Y151393D02*
X1188134Y152392D01*
X1190134D01*
X1191133Y151393D01*
Y150393D01*
X1190134Y149393D01*
X1191133Y148393D01*
Y147394D01*
X1190134Y146394D01*
X1188134D01*
X1187135Y147394D01*
Y148393D01*
X1188134Y149393D01*
X1187135Y150393D01*
Y151393D01*
X1188134Y149393D02*
X1190134D01*
X1193133Y151393D02*
X1194132Y152392D01*
X1196132D01*
X1197131Y151393D01*
Y147394D01*
X1196132Y146394D01*
X1194132D01*
X1193133Y147394D01*
Y151393D01*
X1200130Y146394D02*
X1202130D01*
X1203129Y147394D01*
Y149393D01*
X1202130Y150393D01*
X1200130D01*
X1199131Y149393D01*
Y147394D01*
X1200130Y146394D01*
X1205129Y151393D02*
X1206129Y152392D01*
X1208128D01*
X1209128Y151393D01*
Y147394D01*
X1208128Y146394D01*
X1206129D01*
X1205129Y147394D01*
Y151393D01*
X1211127Y145395D02*
X1215126D01*
X1217125Y146394D02*
X1219124D01*
X1218125D01*
Y152392D01*
X1217125Y151393D01*
X1226122Y152392D02*
X1222123D01*
Y149393D01*
X1224123Y150393D01*
X1225122D01*
X1226122Y149393D01*
Y147394D01*
X1225122Y146394D01*
X1223123D01*
X1222123Y147394D01*
X1228121Y146394D02*
Y150393D01*
X1229121D01*
X1230121Y149393D01*
Y146394D01*
Y149393D01*
X1231120Y150393D01*
X1232120Y149393D01*
Y146394D01*
X1238118D02*
X1234119D01*
X1238118Y150393D01*
Y151393D01*
X1237119Y152392D01*
X1235119D01*
X1234119Y151393D01*
X1244116Y146394D02*
X1240117D01*
X1244116Y150393D01*
Y151393D01*
X1243116Y152392D01*
X1241117D01*
X1240117Y151393D01*
X1246116Y147394D02*
X1247115Y146394D01*
X1249115D01*
X1250114Y147394D01*
Y151393D01*
X1249115Y152392D01*
X1247115D01*
X1246116Y151393D01*
Y150393D01*
X1247115Y149393D01*
X1250114D01*
X1252114Y145395D02*
X1256112D01*
X1258112Y146394D02*
X1260111D01*
X1259111D01*
Y152392D01*
X1258112Y151393D01*
X1263110Y152392D02*
X1267109D01*
Y151393D01*
X1263110Y147394D01*
Y146394D01*
X1269108Y151393D02*
X1270108Y152392D01*
X1272107D01*
X1273107Y151393D01*
Y150393D01*
X1272107Y149393D01*
X1271107D01*
X1272107D01*
X1273107Y148393D01*
Y147394D01*
X1272107Y146394D01*
X1270108D01*
X1269108Y147394D01*
X1095164Y131394D02*
X1093165Y133394D01*
Y135393D01*
X1095164Y137392D01*
X1098163Y131394D02*
Y137392D01*
X1100163Y135393D01*
X1102162Y137392D01*
Y131394D01*
X1104161D02*
X1106161D01*
X1105161D01*
Y135393D01*
X1104161D01*
X1109160D02*
X1113159Y131394D01*
X1111159Y133394D01*
X1113159Y135393D01*
X1109160Y131394D01*
X1118157D02*
X1116158D01*
X1115158Y132394D01*
Y134393D01*
X1116158Y135393D01*
X1118157D01*
X1119157Y134393D01*
Y133394D01*
X1115158D01*
X1125155Y137392D02*
Y131394D01*
X1122156D01*
X1121156Y132394D01*
Y134393D01*
X1122156Y135393D01*
X1125155D01*
X1127154Y131394D02*
X1129153Y133394D01*
Y135393D01*
X1127154Y137392D01*
X1095164Y116394D02*
X1093165Y118394D01*
Y120393D01*
X1095164Y122392D01*
X1098163Y116394D02*
Y122392D01*
X1100163Y120393D01*
X1102162Y122392D01*
Y116394D01*
X1104161D02*
X1106161D01*
X1105161D01*
Y120393D01*
X1104161D01*
X1109160D02*
X1113159Y116394D01*
X1111159Y118394D01*
X1113159Y120393D01*
X1109160Y116394D01*
X1118157D02*
X1116158D01*
X1115158Y117394D01*
Y119393D01*
X1116158Y120393D01*
X1118157D01*
X1119157Y119393D01*
Y118394D01*
X1115158D01*
X1125155Y122392D02*
Y116394D01*
X1122156D01*
X1121156Y117394D01*
Y119393D01*
X1122156Y120393D01*
X1125155D01*
X1127154Y116394D02*
X1129153Y118394D01*
Y120393D01*
X1127154Y122392D01*
X1095164Y101394D02*
X1093165Y103393D01*
Y105393D01*
X1095164Y107392D01*
X1098163Y101394D02*
Y107392D01*
X1100163Y105393D01*
X1102162Y107392D01*
Y101394D01*
X1104161D02*
X1106161D01*
X1105161D01*
Y105393D01*
X1104161D01*
X1109160D02*
X1113159Y101394D01*
X1111159Y103393D01*
X1113159Y105393D01*
X1109160Y101394D01*
X1118157D02*
X1116158D01*
X1115158Y102394D01*
Y104393D01*
X1116158Y105393D01*
X1118157D01*
X1119157Y104393D01*
Y103393D01*
X1115158D01*
X1125155Y107392D02*
Y101394D01*
X1122156D01*
X1121156Y102394D01*
Y104393D01*
X1122156Y105393D01*
X1125155D01*
X1127154Y101394D02*
X1129153Y103393D01*
Y105393D01*
X1127154Y107392D01*
X1095164Y86394D02*
X1093165Y88393D01*
Y90393D01*
X1095164Y92392D01*
X1098163Y86394D02*
Y92392D01*
X1100163Y90393D01*
X1102162Y92392D01*
Y86394D01*
X1104161D02*
X1106161D01*
X1105161D01*
Y90393D01*
X1104161D01*
X1109160D02*
X1113159Y86394D01*
X1111159Y88393D01*
X1113159Y90393D01*
X1109160Y86394D01*
X1118157D02*
X1116158D01*
X1115158Y87394D01*
Y89393D01*
X1116158Y90393D01*
X1118157D01*
X1119157Y89393D01*
Y88393D01*
X1115158D01*
X1125155Y92392D02*
Y86394D01*
X1122156D01*
X1121156Y87394D01*
Y89393D01*
X1122156Y90393D01*
X1125155D01*
X1127154Y86394D02*
X1129153Y88393D01*
Y90393D01*
X1127154Y92392D01*
X1095164Y71394D02*
X1093165Y73393D01*
Y75393D01*
X1095164Y77392D01*
X1098163Y71394D02*
Y77392D01*
X1100163Y75393D01*
X1102162Y77392D01*
Y71394D01*
X1104161D02*
X1106161D01*
X1105161D01*
Y75393D01*
X1104161D01*
X1109160D02*
X1113159Y71394D01*
X1111159Y73393D01*
X1113159Y75393D01*
X1109160Y71394D01*
X1118157D02*
X1116158D01*
X1115158Y72394D01*
Y74393D01*
X1116158Y75393D01*
X1118157D01*
X1119157Y74393D01*
Y73393D01*
X1115158D01*
X1125155Y77392D02*
Y71394D01*
X1122156D01*
X1121156Y72394D01*
Y74393D01*
X1122156Y75393D01*
X1125155D01*
X1127154Y71394D02*
X1129153Y73393D01*
Y75393D01*
X1127154Y77392D01*
X1095164Y56394D02*
X1093165Y58394D01*
Y60393D01*
X1095164Y62392D01*
X1098163Y56394D02*
Y62392D01*
X1100163Y60393D01*
X1102162Y62392D01*
Y56394D01*
X1104161D02*
X1106161D01*
X1105161D01*
Y60393D01*
X1104161D01*
X1109160D02*
X1113159Y56394D01*
X1111159Y58394D01*
X1113159Y60393D01*
X1109160Y56394D01*
X1118157D02*
X1116158D01*
X1115158Y57394D01*
Y59393D01*
X1116158Y60393D01*
X1118157D01*
X1119157Y59393D01*
Y58394D01*
X1115158D01*
X1125155Y62392D02*
Y56394D01*
X1122156D01*
X1121156Y57394D01*
Y59393D01*
X1122156Y60393D01*
X1125155D01*
X1127154Y56394D02*
X1129153Y58394D01*
Y60393D01*
X1127154Y62392D01*
X1093165Y45393D02*
X1095164Y41394D01*
X1097164Y45393D01*
X1099163Y46393D02*
X1100163Y47392D01*
X1102162D01*
X1103162Y46393D01*
Y45393D01*
X1102162Y44393D01*
X1103162Y43393D01*
Y42394D01*
X1102162Y41394D01*
X1100163D01*
X1099163Y42394D01*
Y43393D01*
X1100163Y44393D01*
X1099163Y45393D01*
Y46393D01*
X1100163Y44393D02*
X1102162D01*
X1105161Y46393D02*
X1106161Y47392D01*
X1108160D01*
X1109160Y46393D01*
Y42394D01*
X1108160Y41394D01*
X1106161D01*
X1105161Y42394D01*
Y46393D01*
X1111159Y47392D02*
Y41394D01*
Y44393D01*
X1112159Y45393D01*
X1114158D01*
X1115158Y44393D01*
Y41394D01*
X1121156Y47392D02*
X1117157D01*
Y44393D01*
X1119157Y45393D01*
X1120156D01*
X1121156Y44393D01*
Y42394D01*
X1120156Y41394D01*
X1118157D01*
X1117157Y42394D01*
X1123155Y46393D02*
X1124155Y47392D01*
X1126154D01*
X1127154Y46393D01*
Y42394D01*
X1126154Y41394D01*
X1124155D01*
X1123155Y42394D01*
Y46393D01*
X1129153Y41394D02*
Y45393D01*
X1130153D01*
X1131153Y44393D01*
Y41394D01*
Y44393D01*
X1132152Y45393D01*
X1133152Y44393D01*
Y41394D01*
X1135151Y46393D02*
X1136151Y47392D01*
X1138151D01*
X1139150Y46393D01*
Y42394D01*
X1138151Y41394D01*
X1136151D01*
X1135151Y42394D01*
Y46393D01*
X1141150Y41394D02*
Y45393D01*
X1142149D01*
X1143149Y44393D01*
Y41394D01*
Y44393D01*
X1144149Y45393D01*
X1145148Y44393D01*
Y41394D01*
X1147148Y45393D02*
X1151146Y41394D01*
X1149147Y43393D01*
X1151146Y45393D01*
X1147148Y41394D01*
X1153146Y46393D02*
X1154145Y47392D01*
X1156145D01*
X1157144Y46393D01*
Y42394D01*
X1156145Y41394D01*
X1154145D01*
X1153146Y42394D01*
Y46393D01*
X1093165Y30393D02*
X1095164Y26394D01*
X1097164Y30393D01*
X1103162Y32392D02*
X1099163D01*
Y29393D01*
X1101162Y30393D01*
X1102162D01*
X1103162Y29393D01*
Y27394D01*
X1102162Y26394D01*
X1100163D01*
X1099163Y27394D01*
X1105161Y31392D02*
X1106161Y32392D01*
X1108160D01*
X1109160Y31392D01*
Y27394D01*
X1108160Y26394D01*
X1106161D01*
X1105161Y27394D01*
Y31392D01*
X1111159Y32392D02*
Y26394D01*
Y29393D01*
X1112159Y30393D01*
X1114158D01*
X1115158Y29393D01*
Y26394D01*
X1117157Y31392D02*
X1118157Y32392D01*
X1120156D01*
X1121156Y31392D01*
Y30393D01*
X1120156Y29393D01*
X1119157D01*
X1120156D01*
X1121156Y28394D01*
Y27394D01*
X1120156Y26394D01*
X1118157D01*
X1117157Y27394D01*
X1123155Y31392D02*
X1124155Y32392D01*
X1126154D01*
X1127154Y31392D01*
Y27394D01*
X1126154Y26394D01*
X1124155D01*
X1123155Y27394D01*
Y31392D01*
X1129153Y26394D02*
Y30393D01*
X1130153D01*
X1131153Y29393D01*
Y26394D01*
Y29393D01*
X1132152Y30393D01*
X1133152Y29393D01*
Y26394D01*
X1135151Y31392D02*
X1136151Y32392D01*
X1138151D01*
X1139150Y31392D01*
Y27394D01*
X1138151Y26394D01*
X1136151D01*
X1135151Y27394D01*
Y31392D01*
X1141150Y26394D02*
Y30393D01*
X1142149D01*
X1143149Y29393D01*
Y26394D01*
Y29393D01*
X1144149Y30393D01*
X1145148Y29393D01*
Y26394D01*
X1147148Y30393D02*
X1151146Y26394D01*
X1149147Y28394D01*
X1151146Y30393D01*
X1147148Y26394D01*
X1153146Y31392D02*
X1154145Y32392D01*
X1156145D01*
X1157144Y31392D01*
Y27394D01*
X1156145Y26394D01*
X1154145D01*
X1153146Y27394D01*
Y31392D01*
X984197Y161394D02*
Y167392D01*
X987196D01*
X988195Y166393D01*
Y164393D01*
X987196Y163393D01*
X984197D01*
X986196D02*
X988195Y161394D01*
X991195D02*
X993194D01*
X994193Y162394D01*
Y164393D01*
X993194Y165393D01*
X991195D01*
X990195Y164393D01*
Y162394D01*
X991195Y161394D01*
X996193Y165393D02*
Y162394D01*
X997192Y161394D01*
X1000191D01*
Y165393D01*
X1002191Y161394D02*
Y165393D01*
X1005190D01*
X1006190Y164393D01*
Y161394D01*
X1012188Y167392D02*
Y161394D01*
X1009189D01*
X1008189Y162394D01*
Y164393D01*
X1009189Y165393D01*
X1012188D01*
X1017186Y161394D02*
X1015187D01*
X1014187Y162394D01*
Y164393D01*
X1015187Y165393D01*
X1017186D01*
X1018186Y164393D01*
Y163393D01*
X1014187D01*
X1024184Y167392D02*
Y161394D01*
X1021185D01*
X1020185Y162394D01*
Y164393D01*
X1021185Y165393D01*
X1024184D01*
X984197Y146394D02*
Y152392D01*
X987196D01*
X988195Y151393D01*
Y149393D01*
X987196Y148393D01*
X984197D01*
X986196D02*
X988195Y146394D01*
X991195D02*
X993194D01*
X994193Y147394D01*
Y149393D01*
X993194Y150393D01*
X991195D01*
X990195Y149393D01*
Y147394D01*
X991195Y146394D01*
X996193Y150393D02*
Y147394D01*
X997192Y146394D01*
X1000191D01*
Y150393D01*
X1002191Y146394D02*
Y150393D01*
X1005190D01*
X1006190Y149393D01*
Y146394D01*
X1012188Y152392D02*
Y146394D01*
X1009189D01*
X1008189Y147394D01*
Y149393D01*
X1009189Y150393D01*
X1012188D01*
X1017186Y146394D02*
X1015187D01*
X1014187Y147394D01*
Y149393D01*
X1015187Y150393D01*
X1017186D01*
X1018186Y149393D01*
Y148393D01*
X1014187D01*
X1024184Y152392D02*
Y146394D01*
X1021185D01*
X1020185Y147394D01*
Y149393D01*
X1021185Y150393D01*
X1024184D01*
X1032181Y146394D02*
Y152392D01*
X1035180D01*
X1036180Y151393D01*
Y149393D01*
X1035180Y148393D01*
X1032181D01*
X1034181D02*
X1036180Y146394D01*
X1041178D02*
X1039179D01*
X1038179Y147394D01*
Y149393D01*
X1039179Y150393D01*
X1041178D01*
X1042178Y149393D01*
Y148393D01*
X1038179D01*
X1048176Y150393D02*
X1045177D01*
X1044177Y149393D01*
Y147394D01*
X1045177Y146394D01*
X1048176D01*
X1051175Y151393D02*
Y150393D01*
X1050175D01*
X1052175D01*
X1051175D01*
Y147394D01*
X1052175Y146394D01*
X1056173Y150393D02*
X1058173D01*
X1059173Y149393D01*
Y146394D01*
X1056173D01*
X1055174Y147394D01*
X1056173Y148393D01*
X1059173D01*
X1061172Y146394D02*
Y150393D01*
X1064171D01*
X1065170Y149393D01*
Y146394D01*
X1069169Y144395D02*
X1070169D01*
X1071169Y145395D01*
Y150393D01*
X1068170D01*
X1067170Y149393D01*
Y147394D01*
X1068170Y146394D01*
X1071169D01*
X1073168D02*
X1075167D01*
X1074168D01*
Y152392D01*
X1073168D01*
X1081165Y146394D02*
X1079166D01*
X1078166Y147394D01*
Y149393D01*
X1079166Y150393D01*
X1081165D01*
X1082165Y149393D01*
Y148393D01*
X1078166D01*
X986196Y131394D02*
X984197Y133394D01*
Y135393D01*
X986196Y137392D01*
X989195Y131394D02*
Y137392D01*
X991194Y135393D01*
X993194Y137392D01*
Y131394D01*
X995193D02*
X997192D01*
X996193D01*
Y135393D01*
X995193D01*
X1000191D02*
X1004190Y131394D01*
X1002191Y133394D01*
X1004190Y135393D01*
X1000191Y131394D01*
X1009189D02*
X1007189D01*
X1006190Y132394D01*
Y134393D01*
X1007189Y135393D01*
X1009189D01*
X1010188Y134393D01*
Y133394D01*
X1006190D01*
X1016186Y137392D02*
Y131394D01*
X1013187D01*
X1012188Y132394D01*
Y134393D01*
X1013187Y135393D01*
X1016186D01*
X1018186Y131394D02*
X1020185Y133394D01*
Y135393D01*
X1018186Y137392D01*
X984197Y116394D02*
Y122392D01*
X987196D01*
X988195Y121393D01*
Y119393D01*
X987196Y118394D01*
X984197D01*
X986196D02*
X988195Y116394D01*
X991195D02*
X993194D01*
X994193Y117394D01*
Y119393D01*
X993194Y120393D01*
X991195D01*
X990195Y119393D01*
Y117394D01*
X991195Y116394D01*
X996193Y120393D02*
Y117394D01*
X997192Y116394D01*
X1000191D01*
Y120393D01*
X1002191Y116394D02*
Y120393D01*
X1005190D01*
X1006190Y119393D01*
Y116394D01*
X1012188Y122392D02*
Y116394D01*
X1009189D01*
X1008189Y117394D01*
Y119393D01*
X1009189Y120393D01*
X1012188D01*
X1017186Y116394D02*
X1015187D01*
X1014187Y117394D01*
Y119393D01*
X1015187Y120393D01*
X1017186D01*
X1018186Y119393D01*
Y118394D01*
X1014187D01*
X1024184Y122392D02*
Y116394D01*
X1021185D01*
X1020185Y117394D01*
Y119393D01*
X1021185Y120393D01*
X1024184D01*
X984197Y101394D02*
Y107392D01*
X987196D01*
X988195Y106393D01*
Y104393D01*
X987196Y103393D01*
X984197D01*
X986196D02*
X988195Y101394D01*
X991195D02*
X993194D01*
X994193Y102394D01*
Y104393D01*
X993194Y105393D01*
X991195D01*
X990195Y104393D01*
Y102394D01*
X991195Y101394D01*
X996193Y105393D02*
Y102394D01*
X997192Y101394D01*
X1000191D01*
Y105393D01*
X1002191Y101394D02*
Y105393D01*
X1005190D01*
X1006190Y104393D01*
Y101394D01*
X1012188Y107392D02*
Y101394D01*
X1009189D01*
X1008189Y102394D01*
Y104393D01*
X1009189Y105393D01*
X1012188D01*
X1017186Y101394D02*
X1015187D01*
X1014187Y102394D01*
Y104393D01*
X1015187Y105393D01*
X1017186D01*
X1018186Y104393D01*
Y103393D01*
X1014187D01*
X1024184Y107392D02*
Y101394D01*
X1021185D01*
X1020185Y102394D01*
Y104393D01*
X1021185Y105393D01*
X1024184D01*
X984197Y86394D02*
Y92392D01*
X987196D01*
X988195Y91393D01*
Y89393D01*
X987196Y88393D01*
X984197D01*
X986196D02*
X988195Y86394D01*
X991195D02*
X993194D01*
X994193Y87394D01*
Y89393D01*
X993194Y90393D01*
X991195D01*
X990195Y89393D01*
Y87394D01*
X991195Y86394D01*
X996193Y90393D02*
Y87394D01*
X997192Y86394D01*
X1000191D01*
Y90393D01*
X1002191Y86394D02*
Y90393D01*
X1005190D01*
X1006190Y89393D01*
Y86394D01*
X1012188Y92392D02*
Y86394D01*
X1009189D01*
X1008189Y87394D01*
Y89393D01*
X1009189Y90393D01*
X1012188D01*
X1017186Y86394D02*
X1015187D01*
X1014187Y87394D01*
Y89393D01*
X1015187Y90393D01*
X1017186D01*
X1018186Y89393D01*
Y88393D01*
X1014187D01*
X1024184Y92392D02*
Y86394D01*
X1021185D01*
X1020185Y87394D01*
Y89393D01*
X1021185Y90393D01*
X1024184D01*
X986196Y71394D02*
X984197Y73393D01*
Y75393D01*
X986196Y77392D01*
X989195Y71394D02*
Y77392D01*
X991194Y75393D01*
X993194Y77392D01*
Y71394D01*
X995193D02*
X997192D01*
X996193D01*
Y75393D01*
X995193D01*
X1000191D02*
X1004190Y71394D01*
X1002191Y73393D01*
X1004190Y75393D01*
X1000191Y71394D01*
X1009189D02*
X1007189D01*
X1006190Y72394D01*
Y74393D01*
X1007189Y75393D01*
X1009189D01*
X1010188Y74393D01*
Y73393D01*
X1006190D01*
X1016186Y77392D02*
Y71394D01*
X1013187D01*
X1012188Y72394D01*
Y74393D01*
X1013187Y75393D01*
X1016186D01*
X1018186Y71394D02*
X1020185Y73393D01*
Y75393D01*
X1018186Y77392D01*
X986196Y56394D02*
X984197Y58394D01*
Y60393D01*
X986196Y62392D01*
X989195Y56394D02*
Y62392D01*
X991194Y60393D01*
X993194Y62392D01*
Y56394D01*
X995193D02*
X997192D01*
X996193D01*
Y60393D01*
X995193D01*
X1000191D02*
X1004190Y56394D01*
X1002191Y58394D01*
X1004190Y60393D01*
X1000191Y56394D01*
X1009189D02*
X1007189D01*
X1006190Y57394D01*
Y59393D01*
X1007189Y60393D01*
X1009189D01*
X1010188Y59393D01*
Y58394D01*
X1006190D01*
X1016186Y62392D02*
Y56394D01*
X1013187D01*
X1012188Y57394D01*
Y59393D01*
X1013187Y60393D01*
X1016186D01*
X1018186Y56394D02*
X1020185Y58394D01*
Y60393D01*
X1018186Y62392D01*
X984197Y41394D02*
Y47392D01*
X987196D01*
X988195Y46393D01*
Y44393D01*
X987196Y43393D01*
X984197D01*
X986196D02*
X988195Y41394D01*
X991195D02*
X993194D01*
X994193Y42394D01*
Y44393D01*
X993194Y45393D01*
X991195D01*
X990195Y44393D01*
Y42394D01*
X991195Y41394D01*
X996193Y45393D02*
Y42394D01*
X997192Y41394D01*
X1000191D01*
Y45393D01*
X1002191Y41394D02*
Y45393D01*
X1005190D01*
X1006190Y44393D01*
Y41394D01*
X1012188Y47392D02*
Y41394D01*
X1009189D01*
X1008189Y42394D01*
Y44393D01*
X1009189Y45393D01*
X1012188D01*
X1017186Y41394D02*
X1015187D01*
X1014187Y42394D01*
Y44393D01*
X1015187Y45393D01*
X1017186D01*
X1018186Y44393D01*
Y43393D01*
X1014187D01*
X1024184Y47392D02*
Y41394D01*
X1021185D01*
X1020185Y42394D01*
Y44393D01*
X1021185Y45393D01*
X1024184D01*
X984197Y26394D02*
Y32392D01*
X987196D01*
X988195Y31392D01*
Y29393D01*
X987196Y28394D01*
X984197D01*
X986196D02*
X988195Y26394D01*
X991195D02*
X993194D01*
X994193Y27394D01*
Y29393D01*
X993194Y30393D01*
X991195D01*
X990195Y29393D01*
Y27394D01*
X991195Y26394D01*
X996193Y30393D02*
Y27394D01*
X997192Y26394D01*
X1000191D01*
Y30393D01*
X1002191Y26394D02*
Y30393D01*
X1005190D01*
X1006190Y29393D01*
Y26394D01*
X1012188Y32392D02*
Y26394D01*
X1009189D01*
X1008189Y27394D01*
Y29393D01*
X1009189Y30393D01*
X1012188D01*
X1017186Y26394D02*
X1015187D01*
X1014187Y27394D01*
Y29393D01*
X1015187Y30393D01*
X1017186D01*
X1018186Y29393D01*
Y28394D01*
X1014187D01*
X1024184Y32392D02*
Y26394D01*
X1021185D01*
X1020185Y27394D01*
Y29393D01*
X1021185Y30393D01*
X1024184D01*
X925212Y161394D02*
Y167392D01*
X928211D01*
X929211Y166393D01*
Y164393D01*
X928211Y163393D01*
X925212D01*
X932210Y165393D02*
X934209D01*
X935209Y164393D01*
Y161394D01*
X932210D01*
X931210Y162394D01*
X932210Y163393D01*
X935209D01*
X941207Y167392D02*
Y161394D01*
X938208D01*
X937208Y162394D01*
Y164393D01*
X938208Y165393D01*
X941207D01*
X925212Y146394D02*
Y152392D01*
X928211D01*
X929211Y151393D01*
Y149393D01*
X928211Y148393D01*
X925212D01*
X932210Y150393D02*
X934209D01*
X935209Y149393D01*
Y146394D01*
X932210D01*
X931210Y147394D01*
X932210Y148393D01*
X935209D01*
X941207Y152392D02*
Y146394D01*
X938208D01*
X937208Y147394D01*
Y149393D01*
X938208Y150393D01*
X941207D01*
X925212Y131394D02*
Y137392D01*
X928211D01*
X929211Y136393D01*
Y134393D01*
X928211Y133394D01*
X925212D01*
X932210Y135393D02*
X934209D01*
X935209Y134393D01*
Y131394D01*
X932210D01*
X931210Y132394D01*
X932210Y133394D01*
X935209D01*
X941207Y137392D02*
Y131394D01*
X938208D01*
X937208Y132394D01*
Y134393D01*
X938208Y135393D01*
X941207D01*
X925212Y116394D02*
Y122392D01*
X928211D01*
X929211Y121393D01*
Y119393D01*
X928211Y118394D01*
X925212D01*
X932210Y120393D02*
X934209D01*
X935209Y119393D01*
Y116394D01*
X932210D01*
X931210Y117394D01*
X932210Y118394D01*
X935209D01*
X941207Y122392D02*
Y116394D01*
X938208D01*
X937208Y117394D01*
Y119393D01*
X938208Y120393D01*
X941207D01*
X925212Y101394D02*
Y107392D01*
X928211D01*
X929211Y106393D01*
Y104393D01*
X928211Y103393D01*
X925212D01*
X932210Y105393D02*
X934209D01*
X935209Y104393D01*
Y101394D01*
X932210D01*
X931210Y102394D01*
X932210Y103393D01*
X935209D01*
X941207Y107392D02*
Y101394D01*
X938208D01*
X937208Y102394D01*
Y104393D01*
X938208Y105393D01*
X941207D01*
X925212Y86394D02*
Y92392D01*
X928211D01*
X929211Y91393D01*
Y89393D01*
X928211Y88393D01*
X925212D01*
X932210Y90393D02*
X934209D01*
X935209Y89393D01*
Y86394D01*
X932210D01*
X931210Y87394D01*
X932210Y88393D01*
X935209D01*
X941207Y92392D02*
Y86394D01*
X938208D01*
X937208Y87394D01*
Y89393D01*
X938208Y90393D01*
X941207D01*
X925212Y71394D02*
Y77392D01*
X928211D01*
X929211Y76393D01*
Y74393D01*
X928211Y73393D01*
X925212D01*
X932210Y75393D02*
X934209D01*
X935209Y74393D01*
Y71394D01*
X932210D01*
X931210Y72394D01*
X932210Y73393D01*
X935209D01*
X941207Y77392D02*
Y71394D01*
X938208D01*
X937208Y72394D01*
Y74393D01*
X938208Y75393D01*
X941207D01*
X925212Y56394D02*
Y62392D01*
X928211D01*
X929211Y61393D01*
Y59393D01*
X928211Y58394D01*
X925212D01*
X932210Y60393D02*
X934209D01*
X935209Y59393D01*
Y56394D01*
X932210D01*
X931210Y57394D01*
X932210Y58394D01*
X935209D01*
X941207Y62392D02*
Y56394D01*
X938208D01*
X937208Y57394D01*
Y59393D01*
X938208Y60393D01*
X941207D01*
X925212Y47392D02*
Y43393D01*
X927211Y41394D01*
X929211Y43393D01*
Y47392D01*
X931210Y41394D02*
X933209D01*
X932210D01*
Y45393D01*
X931210D01*
X937208D02*
X939207D01*
X940207Y44393D01*
Y41394D01*
X937208D01*
X936208Y42394D01*
X937208Y43393D01*
X940207D01*
X925212Y32392D02*
Y28394D01*
X927211Y26394D01*
X929211Y28394D01*
Y32392D01*
X931210Y26394D02*
X933209D01*
X932210D01*
Y30393D01*
X931210D01*
X937208D02*
X939207D01*
X940207Y29393D01*
Y26394D01*
X937208D01*
X936208Y27394D01*
X937208Y28394D01*
X940207D01*
X775257Y167392D02*
X779255D01*
X777256D01*
Y161394D01*
X782255D02*
X784254D01*
X785254Y162394D01*
Y164393D01*
X784254Y165393D01*
X782255D01*
X781255Y164393D01*
Y162394D01*
X782255Y161394D01*
X787253Y159395D02*
Y165393D01*
X790252D01*
X791252Y164393D01*
Y162394D01*
X790252Y161394D01*
X787253D01*
X799249Y167392D02*
Y161394D01*
X803248D01*
X806247Y165393D02*
X808246D01*
X809246Y164393D01*
Y161394D01*
X806247D01*
X805247Y162394D01*
X806247Y163393D01*
X809246D01*
X811245Y165393D02*
Y162394D01*
X812245Y161394D01*
X815244D01*
Y160395D01*
X814244Y159395D01*
X813245D01*
X815244Y161394D02*
Y165393D01*
X820242Y161394D02*
X818243D01*
X817243Y162394D01*
Y164393D01*
X818243Y165393D01*
X820242D01*
X821242Y164393D01*
Y163393D01*
X817243D01*
X823241Y165393D02*
Y161394D01*
Y163393D01*
X824241Y164393D01*
X825241Y165393D01*
X826240D01*
X835237Y164393D02*
X839236D01*
X847233Y167392D02*
Y161394D01*
X850233D01*
X851232Y162394D01*
Y163393D01*
X850233Y164393D01*
X847233D01*
X850233D01*
X851232Y165393D01*
Y166393D01*
X850233Y167392D01*
X847233D01*
X854231Y161394D02*
X856231D01*
X857230Y162394D01*
Y164393D01*
X856231Y165393D01*
X854231D01*
X853232Y164393D01*
Y162394D01*
X854231Y161394D01*
X860229Y166393D02*
Y165393D01*
X859230D01*
X861229D01*
X860229D01*
Y162394D01*
X861229Y161394D01*
X865228Y166393D02*
Y165393D01*
X864228D01*
X866227D01*
X865228D01*
Y162394D01*
X866227Y161394D01*
X870226D02*
X872225D01*
X873225Y162394D01*
Y164393D01*
X872225Y165393D01*
X870226D01*
X869226Y164393D01*
Y162394D01*
X870226Y161394D01*
X875224D02*
Y165393D01*
X876224D01*
X877224Y164393D01*
Y161394D01*
Y164393D01*
X878224Y165393D01*
X879223Y164393D01*
Y161394D01*
X887221Y167392D02*
Y161394D01*
X891219D01*
X894218Y165393D02*
X896218D01*
X897217Y164393D01*
Y161394D01*
X894218D01*
X893219Y162394D01*
X894218Y163393D01*
X897217D01*
X899217Y165393D02*
Y162394D01*
X900216Y161394D01*
X903215D01*
Y160395D01*
X902216Y159395D01*
X901216D01*
X903215Y161394D02*
Y165393D01*
X908214Y161394D02*
X906215D01*
X905215Y162394D01*
Y164393D01*
X906215Y165393D01*
X908214D01*
X909214Y164393D01*
Y163393D01*
X905215D01*
X911213Y165393D02*
Y161394D01*
Y163393D01*
X912212Y164393D01*
X913212Y165393D01*
X914212D01*
X775257Y152392D02*
X779255D01*
X777256D01*
Y146394D01*
X782255D02*
X784254D01*
X785254Y147394D01*
Y149393D01*
X784254Y150393D01*
X782255D01*
X781255Y149393D01*
Y147394D01*
X782255Y146394D01*
X787253Y144395D02*
Y150393D01*
X790252D01*
X791252Y149393D01*
Y147394D01*
X790252Y146394D01*
X787253D01*
X799249Y152392D02*
Y146394D01*
X803248D01*
X806247Y150393D02*
X808246D01*
X809246Y149393D01*
Y146394D01*
X806247D01*
X805247Y147394D01*
X806247Y148393D01*
X809246D01*
X811245Y150393D02*
Y147394D01*
X812245Y146394D01*
X815244D01*
Y145395D01*
X814244Y144395D01*
X813245D01*
X815244Y146394D02*
Y150393D01*
X820242Y146394D02*
X818243D01*
X817243Y147394D01*
Y149393D01*
X818243Y150393D01*
X820242D01*
X821242Y149393D01*
Y148393D01*
X817243D01*
X823241Y150393D02*
Y146394D01*
Y148393D01*
X824241Y149393D01*
X825241Y150393D01*
X826240D01*
X835237Y149393D02*
X839236D01*
X847233Y152392D02*
Y146394D01*
X850233D01*
X851232Y147394D01*
Y148393D01*
X850233Y149393D01*
X847233D01*
X850233D01*
X851232Y150393D01*
Y151393D01*
X850233Y152392D01*
X847233D01*
X854231Y146394D02*
X856231D01*
X857230Y147394D01*
Y149393D01*
X856231Y150393D01*
X854231D01*
X853232Y149393D01*
Y147394D01*
X854231Y146394D01*
X860229Y151393D02*
Y150393D01*
X859230D01*
X861229D01*
X860229D01*
Y147394D01*
X861229Y146394D01*
X865228Y151393D02*
Y150393D01*
X864228D01*
X866227D01*
X865228D01*
Y147394D01*
X866227Y146394D01*
X870226D02*
X872225D01*
X873225Y147394D01*
Y149393D01*
X872225Y150393D01*
X870226D01*
X869226Y149393D01*
Y147394D01*
X870226Y146394D01*
X875224D02*
Y150393D01*
X876224D01*
X877224Y149393D01*
Y146394D01*
Y149393D01*
X878224Y150393D01*
X879223Y149393D01*
Y146394D01*
X887221Y152392D02*
Y146394D01*
X891219D01*
X894218Y150393D02*
X896218D01*
X897217Y149393D01*
Y146394D01*
X894218D01*
X893219Y147394D01*
X894218Y148393D01*
X897217D01*
X899217Y150393D02*
Y147394D01*
X900216Y146394D01*
X903215D01*
Y145395D01*
X902216Y144395D01*
X901216D01*
X903215Y146394D02*
Y150393D01*
X908214Y146394D02*
X906215D01*
X905215Y147394D01*
Y149393D01*
X906215Y150393D01*
X908214D01*
X909214Y149393D01*
Y148393D01*
X905215D01*
X911213Y150393D02*
Y146394D01*
Y148393D01*
X912212Y149393D01*
X913212Y150393D01*
X914212D01*
X775257Y137392D02*
X779255D01*
X777256D01*
Y131394D01*
X782255D02*
X784254D01*
X785254Y132394D01*
Y134393D01*
X784254Y135393D01*
X782255D01*
X781255Y134393D01*
Y132394D01*
X782255Y131394D01*
X787253Y129395D02*
Y135393D01*
X790252D01*
X791252Y134393D01*
Y132394D01*
X790252Y131394D01*
X787253D01*
X799249Y137392D02*
Y131394D01*
X803248D01*
X806247Y135393D02*
X808246D01*
X809246Y134393D01*
Y131394D01*
X806247D01*
X805247Y132394D01*
X806247Y133394D01*
X809246D01*
X811245Y135393D02*
Y132394D01*
X812245Y131394D01*
X815244D01*
Y130394D01*
X814244Y129395D01*
X813245D01*
X815244Y131394D02*
Y135393D01*
X820242Y131394D02*
X818243D01*
X817243Y132394D01*
Y134393D01*
X818243Y135393D01*
X820242D01*
X821242Y134393D01*
Y133394D01*
X817243D01*
X823241Y135393D02*
Y131394D01*
Y133394D01*
X824241Y134393D01*
X825241Y135393D01*
X826240D01*
X835237Y134393D02*
X839236D01*
X847233Y137392D02*
Y131394D01*
X850233D01*
X851232Y132394D01*
Y133394D01*
X850233Y134393D01*
X847233D01*
X850233D01*
X851232Y135393D01*
Y136393D01*
X850233Y137392D01*
X847233D01*
X854231Y131394D02*
X856231D01*
X857230Y132394D01*
Y134393D01*
X856231Y135393D01*
X854231D01*
X853232Y134393D01*
Y132394D01*
X854231Y131394D01*
X860229Y136393D02*
Y135393D01*
X859230D01*
X861229D01*
X860229D01*
Y132394D01*
X861229Y131394D01*
X865228Y136393D02*
Y135393D01*
X864228D01*
X866227D01*
X865228D01*
Y132394D01*
X866227Y131394D01*
X870226D02*
X872225D01*
X873225Y132394D01*
Y134393D01*
X872225Y135393D01*
X870226D01*
X869226Y134393D01*
Y132394D01*
X870226Y131394D01*
X875224D02*
Y135393D01*
X876224D01*
X877224Y134393D01*
Y131394D01*
Y134393D01*
X878224Y135393D01*
X879223Y134393D01*
Y131394D01*
X887221Y137392D02*
Y131394D01*
X891219D01*
X894218Y135393D02*
X896218D01*
X897217Y134393D01*
Y131394D01*
X894218D01*
X893219Y132394D01*
X894218Y133394D01*
X897217D01*
X899217Y135393D02*
Y132394D01*
X900216Y131394D01*
X903215D01*
Y130394D01*
X902216Y129395D01*
X901216D01*
X903215Y131394D02*
Y135393D01*
X908214Y131394D02*
X906215D01*
X905215Y132394D01*
Y134393D01*
X906215Y135393D01*
X908214D01*
X909214Y134393D01*
Y133394D01*
X905215D01*
X911213Y135393D02*
Y131394D01*
Y133394D01*
X912212Y134393D01*
X913212Y135393D01*
X914212D01*
X775257Y122392D02*
X779255D01*
X777256D01*
Y116394D01*
X782255D02*
X784254D01*
X785254Y117394D01*
Y119393D01*
X784254Y120393D01*
X782255D01*
X781255Y119393D01*
Y117394D01*
X782255Y116394D01*
X787253Y114395D02*
Y120393D01*
X790252D01*
X791252Y119393D01*
Y117394D01*
X790252Y116394D01*
X787253D01*
X799249Y122392D02*
Y116394D01*
X803248D01*
X806247Y120393D02*
X808246D01*
X809246Y119393D01*
Y116394D01*
X806247D01*
X805247Y117394D01*
X806247Y118394D01*
X809246D01*
X811245Y120393D02*
Y117394D01*
X812245Y116394D01*
X815244D01*
Y115394D01*
X814244Y114395D01*
X813245D01*
X815244Y116394D02*
Y120393D01*
X820242Y116394D02*
X818243D01*
X817243Y117394D01*
Y119393D01*
X818243Y120393D01*
X820242D01*
X821242Y119393D01*
Y118394D01*
X817243D01*
X823241Y120393D02*
Y116394D01*
Y118394D01*
X824241Y119393D01*
X825241Y120393D01*
X826240D01*
X835237Y119393D02*
X839236D01*
X847233Y122392D02*
Y116394D01*
X850233D01*
X851232Y117394D01*
Y118394D01*
X850233Y119393D01*
X847233D01*
X850233D01*
X851232Y120393D01*
Y121393D01*
X850233Y122392D01*
X847233D01*
X854231Y116394D02*
X856231D01*
X857230Y117394D01*
Y119393D01*
X856231Y120393D01*
X854231D01*
X853232Y119393D01*
Y117394D01*
X854231Y116394D01*
X860229Y121393D02*
Y120393D01*
X859230D01*
X861229D01*
X860229D01*
Y117394D01*
X861229Y116394D01*
X865228Y121393D02*
Y120393D01*
X864228D01*
X866227D01*
X865228D01*
Y117394D01*
X866227Y116394D01*
X870226D02*
X872225D01*
X873225Y117394D01*
Y119393D01*
X872225Y120393D01*
X870226D01*
X869226Y119393D01*
Y117394D01*
X870226Y116394D01*
X875224D02*
Y120393D01*
X876224D01*
X877224Y119393D01*
Y116394D01*
Y119393D01*
X878224Y120393D01*
X879223Y119393D01*
Y116394D01*
X887221Y122392D02*
Y116394D01*
X891219D01*
X894218Y120393D02*
X896218D01*
X897217Y119393D01*
Y116394D01*
X894218D01*
X893219Y117394D01*
X894218Y118394D01*
X897217D01*
X899217Y120393D02*
Y117394D01*
X900216Y116394D01*
X903215D01*
Y115394D01*
X902216Y114395D01*
X901216D01*
X903215Y116394D02*
Y120393D01*
X908214Y116394D02*
X906215D01*
X905215Y117394D01*
Y119393D01*
X906215Y120393D01*
X908214D01*
X909214Y119393D01*
Y118394D01*
X905215D01*
X911213Y120393D02*
Y116394D01*
Y118394D01*
X912212Y119393D01*
X913212Y120393D01*
X914212D01*
X775257Y107392D02*
X779255D01*
X777256D01*
Y101394D01*
X782255D02*
X784254D01*
X785254Y102394D01*
Y104393D01*
X784254Y105393D01*
X782255D01*
X781255Y104393D01*
Y102394D01*
X782255Y101394D01*
X787253Y99395D02*
Y105393D01*
X790252D01*
X791252Y104393D01*
Y102394D01*
X790252Y101394D01*
X787253D01*
X799249Y107392D02*
Y101394D01*
X803248D01*
X806247Y105393D02*
X808246D01*
X809246Y104393D01*
Y101394D01*
X806247D01*
X805247Y102394D01*
X806247Y103393D01*
X809246D01*
X811245Y105393D02*
Y102394D01*
X812245Y101394D01*
X815244D01*
Y100394D01*
X814244Y99395D01*
X813245D01*
X815244Y101394D02*
Y105393D01*
X820242Y101394D02*
X818243D01*
X817243Y102394D01*
Y104393D01*
X818243Y105393D01*
X820242D01*
X821242Y104393D01*
Y103393D01*
X817243D01*
X823241Y105393D02*
Y101394D01*
Y103393D01*
X824241Y104393D01*
X825241Y105393D01*
X826240D01*
X835237Y104393D02*
X839236D01*
X847233Y107392D02*
Y101394D01*
X850233D01*
X851232Y102394D01*
Y103393D01*
X850233Y104393D01*
X847233D01*
X850233D01*
X851232Y105393D01*
Y106393D01*
X850233Y107392D01*
X847233D01*
X854231Y101394D02*
X856231D01*
X857230Y102394D01*
Y104393D01*
X856231Y105393D01*
X854231D01*
X853232Y104393D01*
Y102394D01*
X854231Y101394D01*
X860229Y106393D02*
Y105393D01*
X859230D01*
X861229D01*
X860229D01*
Y102394D01*
X861229Y101394D01*
X865228Y106393D02*
Y105393D01*
X864228D01*
X866227D01*
X865228D01*
Y102394D01*
X866227Y101394D01*
X870226D02*
X872225D01*
X873225Y102394D01*
Y104393D01*
X872225Y105393D01*
X870226D01*
X869226Y104393D01*
Y102394D01*
X870226Y101394D01*
X875224D02*
Y105393D01*
X876224D01*
X877224Y104393D01*
Y101394D01*
Y104393D01*
X878224Y105393D01*
X879223Y104393D01*
Y101394D01*
X887221Y107392D02*
Y101394D01*
X891219D01*
X894218Y105393D02*
X896218D01*
X897217Y104393D01*
Y101394D01*
X894218D01*
X893219Y102394D01*
X894218Y103393D01*
X897217D01*
X899217Y105393D02*
Y102394D01*
X900216Y101394D01*
X903215D01*
Y100394D01*
X902216Y99395D01*
X901216D01*
X903215Y101394D02*
Y105393D01*
X908214Y101394D02*
X906215D01*
X905215Y102394D01*
Y104393D01*
X906215Y105393D01*
X908214D01*
X909214Y104393D01*
Y103393D01*
X905215D01*
X911213Y105393D02*
Y101394D01*
Y103393D01*
X912212Y104393D01*
X913212Y105393D01*
X914212D01*
X775257Y92392D02*
X779255D01*
X777256D01*
Y86394D01*
X782255D02*
X784254D01*
X785254Y87394D01*
Y89393D01*
X784254Y90393D01*
X782255D01*
X781255Y89393D01*
Y87394D01*
X782255Y86394D01*
X787253Y84395D02*
Y90393D01*
X790252D01*
X791252Y89393D01*
Y87394D01*
X790252Y86394D01*
X787253D01*
X799249Y92392D02*
Y86394D01*
X803248D01*
X806247Y90393D02*
X808246D01*
X809246Y89393D01*
Y86394D01*
X806247D01*
X805247Y87394D01*
X806247Y88393D01*
X809246D01*
X811245Y90393D02*
Y87394D01*
X812245Y86394D01*
X815244D01*
Y85395D01*
X814244Y84395D01*
X813245D01*
X815244Y86394D02*
Y90393D01*
X820242Y86394D02*
X818243D01*
X817243Y87394D01*
Y89393D01*
X818243Y90393D01*
X820242D01*
X821242Y89393D01*
Y88393D01*
X817243D01*
X823241Y90393D02*
Y86394D01*
Y88393D01*
X824241Y89393D01*
X825241Y90393D01*
X826240D01*
X835237Y89393D02*
X839236D01*
X847233Y92392D02*
Y86394D01*
X850233D01*
X851232Y87394D01*
Y88393D01*
X850233Y89393D01*
X847233D01*
X850233D01*
X851232Y90393D01*
Y91393D01*
X850233Y92392D01*
X847233D01*
X854231Y86394D02*
X856231D01*
X857230Y87394D01*
Y89393D01*
X856231Y90393D01*
X854231D01*
X853232Y89393D01*
Y87394D01*
X854231Y86394D01*
X860229Y91393D02*
Y90393D01*
X859230D01*
X861229D01*
X860229D01*
Y87394D01*
X861229Y86394D01*
X865228Y91393D02*
Y90393D01*
X864228D01*
X866227D01*
X865228D01*
Y87394D01*
X866227Y86394D01*
X870226D02*
X872225D01*
X873225Y87394D01*
Y89393D01*
X872225Y90393D01*
X870226D01*
X869226Y89393D01*
Y87394D01*
X870226Y86394D01*
X875224D02*
Y90393D01*
X876224D01*
X877224Y89393D01*
Y86394D01*
Y89393D01*
X878224Y90393D01*
X879223Y89393D01*
Y86394D01*
X887221Y92392D02*
Y86394D01*
X891219D01*
X894218Y90393D02*
X896218D01*
X897217Y89393D01*
Y86394D01*
X894218D01*
X893219Y87394D01*
X894218Y88393D01*
X897217D01*
X899217Y90393D02*
Y87394D01*
X900216Y86394D01*
X903215D01*
Y85395D01*
X902216Y84395D01*
X901216D01*
X903215Y86394D02*
Y90393D01*
X908214Y86394D02*
X906215D01*
X905215Y87394D01*
Y89393D01*
X906215Y90393D01*
X908214D01*
X909214Y89393D01*
Y88393D01*
X905215D01*
X911213Y90393D02*
Y86394D01*
Y88393D01*
X912212Y89393D01*
X913212Y90393D01*
X914212D01*
X775257Y77392D02*
X779255D01*
X777256D01*
Y71394D01*
X782255D02*
X784254D01*
X785254Y72394D01*
Y74393D01*
X784254Y75393D01*
X782255D01*
X781255Y74393D01*
Y72394D01*
X782255Y71394D01*
X787253Y69395D02*
Y75393D01*
X790252D01*
X791252Y74393D01*
Y72394D01*
X790252Y71394D01*
X787253D01*
X799249Y77392D02*
Y71394D01*
X803248D01*
X806247Y75393D02*
X808246D01*
X809246Y74393D01*
Y71394D01*
X806247D01*
X805247Y72394D01*
X806247Y73393D01*
X809246D01*
X811245Y75393D02*
Y72394D01*
X812245Y71394D01*
X815244D01*
Y70394D01*
X814244Y69395D01*
X813245D01*
X815244Y71394D02*
Y75393D01*
X820242Y71394D02*
X818243D01*
X817243Y72394D01*
Y74393D01*
X818243Y75393D01*
X820242D01*
X821242Y74393D01*
Y73393D01*
X817243D01*
X823241Y75393D02*
Y71394D01*
Y73393D01*
X824241Y74393D01*
X825241Y75393D01*
X826240D01*
X835237Y74393D02*
X839236D01*
X847233Y77392D02*
Y71394D01*
X850233D01*
X851232Y72394D01*
Y73393D01*
X850233Y74393D01*
X847233D01*
X850233D01*
X851232Y75393D01*
Y76393D01*
X850233Y77392D01*
X847233D01*
X854231Y71394D02*
X856231D01*
X857230Y72394D01*
Y74393D01*
X856231Y75393D01*
X854231D01*
X853232Y74393D01*
Y72394D01*
X854231Y71394D01*
X860229Y76393D02*
Y75393D01*
X859230D01*
X861229D01*
X860229D01*
Y72394D01*
X861229Y71394D01*
X865228Y76393D02*
Y75393D01*
X864228D01*
X866227D01*
X865228D01*
Y72394D01*
X866227Y71394D01*
X870226D02*
X872225D01*
X873225Y72394D01*
Y74393D01*
X872225Y75393D01*
X870226D01*
X869226Y74393D01*
Y72394D01*
X870226Y71394D01*
X875224D02*
Y75393D01*
X876224D01*
X877224Y74393D01*
Y71394D01*
Y74393D01*
X878224Y75393D01*
X879223Y74393D01*
Y71394D01*
X887221Y77392D02*
Y71394D01*
X891219D01*
X894218Y75393D02*
X896218D01*
X897217Y74393D01*
Y71394D01*
X894218D01*
X893219Y72394D01*
X894218Y73393D01*
X897217D01*
X899217Y75393D02*
Y72394D01*
X900216Y71394D01*
X903215D01*
Y70394D01*
X902216Y69395D01*
X901216D01*
X903215Y71394D02*
Y75393D01*
X908214Y71394D02*
X906215D01*
X905215Y72394D01*
Y74393D01*
X906215Y75393D01*
X908214D01*
X909214Y74393D01*
Y73393D01*
X905215D01*
X911213Y75393D02*
Y71394D01*
Y73393D01*
X912212Y74393D01*
X913212Y75393D01*
X914212D01*
X775257Y62392D02*
X779255D01*
X777256D01*
Y56394D01*
X782255D02*
X784254D01*
X785254Y57394D01*
Y59393D01*
X784254Y60393D01*
X782255D01*
X781255Y59393D01*
Y57394D01*
X782255Y56394D01*
X787253Y54395D02*
Y60393D01*
X790252D01*
X791252Y59393D01*
Y57394D01*
X790252Y56394D01*
X787253D01*
X799249Y62392D02*
Y56394D01*
X803248D01*
X806247Y60393D02*
X808246D01*
X809246Y59393D01*
Y56394D01*
X806247D01*
X805247Y57394D01*
X806247Y58394D01*
X809246D01*
X811245Y60393D02*
Y57394D01*
X812245Y56394D01*
X815244D01*
Y55395D01*
X814244Y54395D01*
X813245D01*
X815244Y56394D02*
Y60393D01*
X820242Y56394D02*
X818243D01*
X817243Y57394D01*
Y59393D01*
X818243Y60393D01*
X820242D01*
X821242Y59393D01*
Y58394D01*
X817243D01*
X823241Y60393D02*
Y56394D01*
Y58394D01*
X824241Y59393D01*
X825241Y60393D01*
X826240D01*
X835237Y59393D02*
X839236D01*
X847233Y62392D02*
Y56394D01*
X850233D01*
X851232Y57394D01*
Y58394D01*
X850233Y59393D01*
X847233D01*
X850233D01*
X851232Y60393D01*
Y61393D01*
X850233Y62392D01*
X847233D01*
X854231Y56394D02*
X856231D01*
X857230Y57394D01*
Y59393D01*
X856231Y60393D01*
X854231D01*
X853232Y59393D01*
Y57394D01*
X854231Y56394D01*
X860229Y61393D02*
Y60393D01*
X859230D01*
X861229D01*
X860229D01*
Y57394D01*
X861229Y56394D01*
X865228Y61393D02*
Y60393D01*
X864228D01*
X866227D01*
X865228D01*
Y57394D01*
X866227Y56394D01*
X870226D02*
X872225D01*
X873225Y57394D01*
Y59393D01*
X872225Y60393D01*
X870226D01*
X869226Y59393D01*
Y57394D01*
X870226Y56394D01*
X875224D02*
Y60393D01*
X876224D01*
X877224Y59393D01*
Y56394D01*
Y59393D01*
X878224Y60393D01*
X879223Y59393D01*
Y56394D01*
X887221Y62392D02*
Y56394D01*
X891219D01*
X894218Y60393D02*
X896218D01*
X897217Y59393D01*
Y56394D01*
X894218D01*
X893219Y57394D01*
X894218Y58394D01*
X897217D01*
X899217Y60393D02*
Y57394D01*
X900216Y56394D01*
X903215D01*
Y55395D01*
X902216Y54395D01*
X901216D01*
X903215Y56394D02*
Y60393D01*
X908214Y56394D02*
X906215D01*
X905215Y57394D01*
Y59393D01*
X906215Y60393D01*
X908214D01*
X909214Y59393D01*
Y58394D01*
X905215D01*
X911213Y60393D02*
Y56394D01*
Y58394D01*
X912212Y59393D01*
X913212Y60393D01*
X914212D01*
X775257Y47392D02*
X779255D01*
X777256D01*
Y41394D01*
X782255D02*
X784254D01*
X785254Y42394D01*
Y44393D01*
X784254Y45393D01*
X782255D01*
X781255Y44393D01*
Y42394D01*
X782255Y41394D01*
X787253Y39395D02*
Y45393D01*
X790252D01*
X791252Y44393D01*
Y42394D01*
X790252Y41394D01*
X787253D01*
X799249Y47392D02*
Y41394D01*
X803248D01*
X806247Y45393D02*
X808246D01*
X809246Y44393D01*
Y41394D01*
X806247D01*
X805247Y42394D01*
X806247Y43393D01*
X809246D01*
X811245Y45393D02*
Y42394D01*
X812245Y41394D01*
X815244D01*
Y40394D01*
X814244Y39395D01*
X813245D01*
X815244Y41394D02*
Y45393D01*
X820242Y41394D02*
X818243D01*
X817243Y42394D01*
Y44393D01*
X818243Y45393D01*
X820242D01*
X821242Y44393D01*
Y43393D01*
X817243D01*
X823241Y45393D02*
Y41394D01*
Y43393D01*
X824241Y44393D01*
X825241Y45393D01*
X826240D01*
X835237Y44393D02*
X839236D01*
X847233Y47392D02*
Y41394D01*
X850233D01*
X851232Y42394D01*
Y43393D01*
X850233Y44393D01*
X847233D01*
X850233D01*
X851232Y45393D01*
Y46393D01*
X850233Y47392D01*
X847233D01*
X854231Y41394D02*
X856231D01*
X857230Y42394D01*
Y44393D01*
X856231Y45393D01*
X854231D01*
X853232Y44393D01*
Y42394D01*
X854231Y41394D01*
X860229Y46393D02*
Y45393D01*
X859230D01*
X861229D01*
X860229D01*
Y42394D01*
X861229Y41394D01*
X865228Y46393D02*
Y45393D01*
X864228D01*
X866227D01*
X865228D01*
Y42394D01*
X866227Y41394D01*
X870226D02*
X872225D01*
X873225Y42394D01*
Y44393D01*
X872225Y45393D01*
X870226D01*
X869226Y44393D01*
Y42394D01*
X870226Y41394D01*
X875224D02*
Y45393D01*
X876224D01*
X877224Y44393D01*
Y41394D01*
Y44393D01*
X878224Y45393D01*
X879223Y44393D01*
Y41394D01*
X887221Y47392D02*
Y41394D01*
X891219D01*
X894218Y45393D02*
X896218D01*
X897217Y44393D01*
Y41394D01*
X894218D01*
X893219Y42394D01*
X894218Y43393D01*
X897217D01*
X899217Y45393D02*
Y42394D01*
X900216Y41394D01*
X903215D01*
Y40394D01*
X902216Y39395D01*
X901216D01*
X903215Y41394D02*
Y45393D01*
X908214Y41394D02*
X906215D01*
X905215Y42394D01*
Y44393D01*
X906215Y45393D01*
X908214D01*
X909214Y44393D01*
Y43393D01*
X905215D01*
X911213Y45393D02*
Y41394D01*
Y43393D01*
X912212Y44393D01*
X913212Y45393D01*
X914212D01*
X775257Y32392D02*
X779255D01*
X777256D01*
Y26394D01*
X782255D02*
X784254D01*
X785254Y27394D01*
Y29393D01*
X784254Y30393D01*
X782255D01*
X781255Y29393D01*
Y27394D01*
X782255Y26394D01*
X787253Y24395D02*
Y30393D01*
X790252D01*
X791252Y29393D01*
Y27394D01*
X790252Y26394D01*
X787253D01*
X799249Y32392D02*
Y26394D01*
X803248D01*
X806247Y30393D02*
X808246D01*
X809246Y29393D01*
Y26394D01*
X806247D01*
X805247Y27394D01*
X806247Y28394D01*
X809246D01*
X811245Y30393D02*
Y27394D01*
X812245Y26394D01*
X815244D01*
Y25394D01*
X814244Y24395D01*
X813245D01*
X815244Y26394D02*
Y30393D01*
X820242Y26394D02*
X818243D01*
X817243Y27394D01*
Y29393D01*
X818243Y30393D01*
X820242D01*
X821242Y29393D01*
Y28394D01*
X817243D01*
X823241Y30393D02*
Y26394D01*
Y28394D01*
X824241Y29393D01*
X825241Y30393D01*
X826240D01*
X835237Y29393D02*
X839236D01*
X847233Y32392D02*
Y26394D01*
X850233D01*
X851232Y27394D01*
Y28394D01*
X850233Y29393D01*
X847233D01*
X850233D01*
X851232Y30393D01*
Y31392D01*
X850233Y32392D01*
X847233D01*
X854231Y26394D02*
X856231D01*
X857230Y27394D01*
Y29393D01*
X856231Y30393D01*
X854231D01*
X853232Y29393D01*
Y27394D01*
X854231Y26394D01*
X860229Y31392D02*
Y30393D01*
X859230D01*
X861229D01*
X860229D01*
Y27394D01*
X861229Y26394D01*
X865228Y31392D02*
Y30393D01*
X864228D01*
X866227D01*
X865228D01*
Y27394D01*
X866227Y26394D01*
X870226D02*
X872225D01*
X873225Y27394D01*
Y29393D01*
X872225Y30393D01*
X870226D01*
X869226Y29393D01*
Y27394D01*
X870226Y26394D01*
X875224D02*
Y30393D01*
X876224D01*
X877224Y29393D01*
Y26394D01*
Y29393D01*
X878224Y30393D01*
X879223Y29393D01*
Y26394D01*
X887221Y32392D02*
Y26394D01*
X891219D01*
X894218Y30393D02*
X896218D01*
X897217Y29393D01*
Y26394D01*
X894218D01*
X893219Y27394D01*
X894218Y28394D01*
X897217D01*
X899217Y30393D02*
Y27394D01*
X900216Y26394D01*
X903215D01*
Y25394D01*
X902216Y24395D01*
X901216D01*
X903215Y26394D02*
Y30393D01*
X908214Y26394D02*
X906215D01*
X905215Y27394D01*
Y29393D01*
X906215Y30393D01*
X908214D01*
X909214Y29393D01*
Y28394D01*
X905215D01*
X911213Y30393D02*
Y26394D01*
Y28394D01*
X912212Y29393D01*
X913212Y30393D01*
X914212D01*
X701877Y161394D02*
Y167392D01*
X704876D01*
X705875Y166393D01*
Y164393D01*
X704876Y163393D01*
X701877D01*
X703876D02*
X705875Y161394D01*
X708874D02*
X710874D01*
X711873Y162394D01*
Y164393D01*
X710874Y165393D01*
X708874D01*
X707875Y164393D01*
Y162394D01*
X708874Y161394D01*
X713873Y165393D02*
Y162394D01*
X714872Y161394D01*
X717871D01*
Y165393D01*
X719871Y161394D02*
Y165393D01*
X722870D01*
X723870Y164393D01*
Y161394D01*
X729868Y167392D02*
Y161394D01*
X726868D01*
X725869Y162394D01*
Y164393D01*
X726868Y165393D01*
X729868D01*
X705875Y151393D02*
X704876Y152392D01*
X702876D01*
X701877Y151393D01*
Y150393D01*
X702876Y149393D01*
X704876D01*
X705875Y148393D01*
Y147394D01*
X704876Y146394D01*
X702876D01*
X701877Y147394D01*
X707875Y146394D02*
X709874D01*
X708874D01*
Y152392D01*
X707875D01*
X713873Y146394D02*
X715872D01*
X716872Y147394D01*
Y149393D01*
X715872Y150393D01*
X713873D01*
X712873Y149393D01*
Y147394D01*
X713873Y146394D01*
X719871Y151393D02*
Y150393D01*
X718871D01*
X720870D01*
X719871D01*
Y147394D01*
X720870Y146394D01*
X701877Y131394D02*
Y137392D01*
X704876D01*
X705875Y136393D01*
Y134393D01*
X704876Y133394D01*
X701877D01*
X703876D02*
X705875Y131394D01*
X708874D02*
X710874D01*
X711873Y132394D01*
Y134393D01*
X710874Y135393D01*
X708874D01*
X707875Y134393D01*
Y132394D01*
X708874Y131394D01*
X713873Y135393D02*
Y132394D01*
X714872Y131394D01*
X717871D01*
Y135393D01*
X719871Y131394D02*
Y135393D01*
X722870D01*
X723870Y134393D01*
Y131394D01*
X729868Y137392D02*
Y131394D01*
X726868D01*
X725869Y132394D01*
Y134393D01*
X726868Y135393D01*
X729868D01*
X701877Y116394D02*
Y122392D01*
X704876D01*
X705875Y121393D01*
Y119393D01*
X704876Y118394D01*
X701877D01*
X703876D02*
X705875Y116394D01*
X708874D02*
X710874D01*
X711873Y117394D01*
Y119393D01*
X710874Y120393D01*
X708874D01*
X707875Y119393D01*
Y117394D01*
X708874Y116394D01*
X713873Y120393D02*
Y117394D01*
X714872Y116394D01*
X717871D01*
Y120393D01*
X719871Y116394D02*
Y120393D01*
X722870D01*
X723870Y119393D01*
Y116394D01*
X729868Y122392D02*
Y116394D01*
X726868D01*
X725869Y117394D01*
Y119393D01*
X726868Y120393D01*
X729868D01*
X701877Y101394D02*
Y107392D01*
X704876D01*
X705875Y106393D01*
Y104393D01*
X704876Y103393D01*
X701877D01*
X703876D02*
X705875Y101394D01*
X708874D02*
X710874D01*
X711873Y102394D01*
Y104393D01*
X710874Y105393D01*
X708874D01*
X707875Y104393D01*
Y102394D01*
X708874Y101394D01*
X713873Y105393D02*
Y102394D01*
X714872Y101394D01*
X717871D01*
Y105393D01*
X719871Y101394D02*
Y105393D01*
X722870D01*
X723870Y104393D01*
Y101394D01*
X729868Y107392D02*
Y101394D01*
X726868D01*
X725869Y102394D01*
Y104393D01*
X726868Y105393D01*
X729868D01*
X701877Y86394D02*
Y92392D01*
X704876D01*
X705875Y91393D01*
Y89393D01*
X704876Y88393D01*
X701877D01*
X703876D02*
X705875Y86394D01*
X708874D02*
X710874D01*
X711873Y87394D01*
Y89393D01*
X710874Y90393D01*
X708874D01*
X707875Y89393D01*
Y87394D01*
X708874Y86394D01*
X713873Y90393D02*
Y87394D01*
X714872Y86394D01*
X717871D01*
Y90393D01*
X719871Y86394D02*
Y90393D01*
X722870D01*
X723870Y89393D01*
Y86394D01*
X729868Y92392D02*
Y86394D01*
X726868D01*
X725869Y87394D01*
Y89393D01*
X726868Y90393D01*
X729868D01*
X701877Y71394D02*
Y77392D01*
X704876D01*
X705875Y76393D01*
Y74393D01*
X704876Y73393D01*
X701877D01*
X703876D02*
X705875Y71394D01*
X708874D02*
X710874D01*
X711873Y72394D01*
Y74393D01*
X710874Y75393D01*
X708874D01*
X707875Y74393D01*
Y72394D01*
X708874Y71394D01*
X713873Y75393D02*
Y72394D01*
X714872Y71394D01*
X717871D01*
Y75393D01*
X719871Y71394D02*
Y75393D01*
X722870D01*
X723870Y74393D01*
Y71394D01*
X729868Y77392D02*
Y71394D01*
X726868D01*
X725869Y72394D01*
Y74393D01*
X726868Y75393D01*
X729868D01*
X701877Y56394D02*
Y62392D01*
X704876D01*
X705875Y61393D01*
Y59393D01*
X704876Y58394D01*
X701877D01*
X703876D02*
X705875Y56394D01*
X708874D02*
X710874D01*
X711873Y57394D01*
Y59393D01*
X710874Y60393D01*
X708874D01*
X707875Y59393D01*
Y57394D01*
X708874Y56394D01*
X713873Y60393D02*
Y57394D01*
X714872Y56394D01*
X717871D01*
Y60393D01*
X719871Y56394D02*
Y60393D01*
X722870D01*
X723870Y59393D01*
Y56394D01*
X729868Y62392D02*
Y56394D01*
X726868D01*
X725869Y57394D01*
Y59393D01*
X726868Y60393D01*
X729868D01*
X701877Y41394D02*
Y47392D01*
X704876D01*
X705875Y46393D01*
Y44393D01*
X704876Y43393D01*
X701877D01*
X703876D02*
X705875Y41394D01*
X708874D02*
X710874D01*
X711873Y42394D01*
Y44393D01*
X710874Y45393D01*
X708874D01*
X707875Y44393D01*
Y42394D01*
X708874Y41394D01*
X713873Y45393D02*
Y42394D01*
X714872Y41394D01*
X717871D01*
Y45393D01*
X719871Y41394D02*
Y45393D01*
X722870D01*
X723870Y44393D01*
Y41394D01*
X729868Y47392D02*
Y41394D01*
X726868D01*
X725869Y42394D01*
Y44393D01*
X726868Y45393D01*
X729868D01*
X701877Y26394D02*
Y32392D01*
X704876D01*
X705875Y31392D01*
Y29393D01*
X704876Y28394D01*
X701877D01*
X703876D02*
X705875Y26394D01*
X708874D02*
X710874D01*
X711873Y27394D01*
Y29393D01*
X710874Y30393D01*
X708874D01*
X707875Y29393D01*
Y27394D01*
X708874Y26394D01*
X713873Y30393D02*
Y27394D01*
X714872Y26394D01*
X717871D01*
Y30393D01*
X719871Y26394D02*
Y30393D01*
X722870D01*
X723870Y29393D01*
Y26394D01*
X729868Y32392D02*
Y26394D01*
X726868D01*
X725869Y27394D01*
Y29393D01*
X726868Y30393D01*
X729868D01*
X651289Y161394D02*
Y167392D01*
X654288D01*
X655288Y166393D01*
Y164393D01*
X654288Y163393D01*
X651289D01*
X657287Y167392D02*
X661286D01*
X659286D01*
Y161394D01*
X663285Y167392D02*
Y161394D01*
Y164393D01*
X667284D01*
Y167392D01*
Y161394D01*
X651289Y146394D02*
Y152392D01*
X654288D01*
X655288Y151393D01*
Y149393D01*
X654288Y148393D01*
X651289D01*
X657287Y152392D02*
X661286D01*
X659286D01*
Y146394D01*
X663285Y152392D02*
Y146394D01*
Y149393D01*
X667284D01*
Y152392D01*
Y146394D01*
X651289Y131394D02*
Y137392D01*
X654288D01*
X655288Y136393D01*
Y134393D01*
X654288Y133394D01*
X651289D01*
X657287Y137392D02*
X661286D01*
X659286D01*
Y131394D01*
X663285Y137392D02*
Y131394D01*
Y134393D01*
X667284D01*
Y137392D01*
Y131394D01*
X651289Y116394D02*
Y122392D01*
X654288D01*
X655288Y121393D01*
Y119393D01*
X654288Y118394D01*
X651289D01*
X657287Y122392D02*
X661286D01*
X659286D01*
Y116394D01*
X663285Y122392D02*
Y116394D01*
Y119393D01*
X667284D01*
Y122392D01*
Y116394D01*
X651289Y101394D02*
Y107392D01*
X654288D01*
X655288Y106393D01*
Y104393D01*
X654288Y103393D01*
X651289D01*
X657287Y107392D02*
X661286D01*
X659286D01*
Y101394D01*
X663285Y107392D02*
Y101394D01*
Y104393D01*
X667284D01*
Y107392D01*
Y101394D01*
X651289Y86394D02*
Y92392D01*
X654288D01*
X655288Y91393D01*
Y89393D01*
X654288Y88393D01*
X651289D01*
X657287Y92392D02*
X661286D01*
X659286D01*
Y86394D01*
X663285Y92392D02*
Y86394D01*
Y89393D01*
X667284D01*
Y92392D01*
Y86394D01*
X651289Y71394D02*
Y77392D01*
X654288D01*
X655288Y76393D01*
Y74393D01*
X654288Y73393D01*
X651289D01*
X657287Y77392D02*
X661286D01*
X659286D01*
Y71394D01*
X663285Y77392D02*
Y71394D01*
Y74393D01*
X667284D01*
Y77392D01*
Y71394D01*
X651289Y56394D02*
Y62392D01*
X654288D01*
X655288Y61393D01*
Y59393D01*
X654288Y58394D01*
X651289D01*
X657287Y62392D02*
X661286D01*
X659286D01*
Y56394D01*
X663285Y62392D02*
Y56394D01*
Y59393D01*
X667284D01*
Y62392D01*
Y56394D01*
X651289Y41394D02*
Y47392D01*
X654288D01*
X655288Y46393D01*
Y44393D01*
X654288Y43393D01*
X651289D01*
X657287Y47392D02*
X661286D01*
X659286D01*
Y41394D01*
X663285Y47392D02*
Y41394D01*
Y44393D01*
X667284D01*
Y47392D01*
Y41394D01*
X651289Y26394D02*
Y32392D01*
X654288D01*
X655288Y31392D01*
Y29393D01*
X654288Y28394D01*
X651289D01*
X657287Y32392D02*
X661286D01*
X659286D01*
Y26394D01*
X663285Y32392D02*
Y26394D01*
Y29393D01*
X667284D01*
Y32392D01*
Y26394D01*
X537322Y166393D02*
X538322Y167392D01*
X540321D01*
X541321Y166393D01*
Y165393D01*
X540321Y164393D01*
X539322D01*
X540321D01*
X541321Y163393D01*
Y162394D01*
X540321Y161394D01*
X538322D01*
X537322Y162394D01*
X547319Y161394D02*
X543320D01*
X547319Y165393D01*
Y166393D01*
X546319Y167392D01*
X544320D01*
X543320Y166393D01*
X549319Y161394D02*
Y162394D01*
X550318D01*
Y161394D01*
X549319D01*
X554317Y166393D02*
X555316Y167392D01*
X557316D01*
X558316Y166393D01*
Y162394D01*
X557316Y161394D01*
X555316D01*
X554317Y162394D01*
Y166393D01*
X560315D02*
X561315Y167392D01*
X563314D01*
X564314Y166393D01*
Y162394D01*
X563314Y161394D01*
X561315D01*
X560315Y162394D01*
Y166393D01*
X566313Y161394D02*
Y165393D01*
X567313D01*
X568312Y164393D01*
Y161394D01*
Y164393D01*
X569312Y165393D01*
X570312Y164393D01*
Y161394D01*
X572311D02*
X574310D01*
X573311D01*
Y165393D01*
X572311D01*
X577309Y161394D02*
X579309D01*
X578309D01*
Y167392D01*
X577309D01*
X590305Y161394D02*
X588306Y163393D01*
Y165393D01*
X590305Y167392D01*
X593304Y166393D02*
X594304Y167392D01*
X596303D01*
X597303Y166393D01*
Y162394D01*
X596303Y161394D01*
X594304D01*
X593304Y162394D01*
Y166393D01*
X599302Y161394D02*
Y162394D01*
X600302D01*
Y161394D01*
X599302D01*
X604301Y166393D02*
X605300Y167392D01*
X607300D01*
X608299Y166393D01*
Y165393D01*
X607300Y164393D01*
X608299Y163393D01*
Y162394D01*
X607300Y161394D01*
X605300D01*
X604301Y162394D01*
Y163393D01*
X605300Y164393D01*
X604301Y165393D01*
Y166393D01*
X605300Y164393D02*
X607300D01*
X610299Y161394D02*
X612298D01*
X611298D01*
Y167392D01*
X610299Y166393D01*
X615297D02*
X616297Y167392D01*
X618296D01*
X619296Y166393D01*
Y165393D01*
X618296Y164393D01*
X617297D01*
X618296D01*
X619296Y163393D01*
Y162394D01*
X618296Y161394D01*
X616297D01*
X615297Y162394D01*
X621295Y161394D02*
Y165393D01*
X622295D01*
X623294Y164393D01*
Y161394D01*
Y164393D01*
X624294Y165393D01*
X625294Y164393D01*
Y161394D01*
X627293D02*
Y165393D01*
X628293D01*
X629293Y164393D01*
Y161394D01*
Y164393D01*
X630292Y165393D01*
X631292Y164393D01*
Y161394D01*
X633291D02*
X635291Y163393D01*
Y165393D01*
X633291Y167392D01*
X537322Y151393D02*
X538322Y152392D01*
X540321D01*
X541321Y151393D01*
Y150393D01*
X540321Y149393D01*
X539322D01*
X540321D01*
X541321Y148393D01*
Y147394D01*
X540321Y146394D01*
X538322D01*
X537322Y147394D01*
X543320Y152392D02*
X547319D01*
Y151393D01*
X543320Y147394D01*
Y146394D01*
X549319D02*
Y147394D01*
X550318D01*
Y146394D01*
X549319D01*
X554317Y151393D02*
X555316Y152392D01*
X557316D01*
X558316Y151393D01*
Y147394D01*
X557316Y146394D01*
X555316D01*
X554317Y147394D01*
Y151393D01*
X560315D02*
X561315Y152392D01*
X563314D01*
X564314Y151393D01*
Y147394D01*
X563314Y146394D01*
X561315D01*
X560315Y147394D01*
Y151393D01*
X566313Y146394D02*
Y150393D01*
X567313D01*
X568312Y149393D01*
Y146394D01*
Y149393D01*
X569312Y150393D01*
X570312Y149393D01*
Y146394D01*
X572311D02*
X574310D01*
X573311D01*
Y150393D01*
X572311D01*
X577309Y146394D02*
X579309D01*
X578309D01*
Y152392D01*
X577309D01*
X590305Y146394D02*
X588306Y148393D01*
Y150393D01*
X590305Y152392D01*
X593304Y151393D02*
X594304Y152392D01*
X596303D01*
X597303Y151393D01*
Y147394D01*
X596303Y146394D01*
X594304D01*
X593304Y147394D01*
Y151393D01*
X599302Y146394D02*
Y147394D01*
X600302D01*
Y146394D01*
X599302D01*
X604301Y147394D02*
X605300Y146394D01*
X607300D01*
X608299Y147394D01*
Y151393D01*
X607300Y152392D01*
X605300D01*
X604301Y151393D01*
Y150393D01*
X605300Y149393D01*
X608299D01*
X613298Y146394D02*
Y152392D01*
X610299Y149393D01*
X614297D01*
X616297Y151393D02*
X617297Y152392D01*
X619296D01*
X620295Y151393D01*
Y147394D01*
X619296Y146394D01*
X617297D01*
X616297Y147394D01*
Y151393D01*
X622295Y146394D02*
Y150393D01*
X623294D01*
X624294Y149393D01*
Y146394D01*
Y149393D01*
X625294Y150393D01*
X626294Y149393D01*
Y146394D01*
X628293D02*
Y150393D01*
X629293D01*
X630292Y149393D01*
Y146394D01*
Y149393D01*
X631292Y150393D01*
X632292Y149393D01*
Y146394D01*
X634291D02*
X636290Y148393D01*
Y150393D01*
X634291Y152392D01*
X537322Y136393D02*
X538322Y137392D01*
X540321D01*
X541321Y136393D01*
Y135393D01*
X540321Y134393D01*
X539322D01*
X540321D01*
X541321Y133394D01*
Y132394D01*
X540321Y131394D01*
X538322D01*
X537322Y132394D01*
X547319Y137392D02*
X543320D01*
Y134393D01*
X545320Y135393D01*
X546319D01*
X547319Y134393D01*
Y132394D01*
X546319Y131394D01*
X544320D01*
X543320Y132394D01*
X549319Y131394D02*
Y132394D01*
X550318D01*
Y131394D01*
X549319D01*
X554317Y136393D02*
X555316Y137392D01*
X557316D01*
X558316Y136393D01*
Y132394D01*
X557316Y131394D01*
X555316D01*
X554317Y132394D01*
Y136393D01*
X560315D02*
X561315Y137392D01*
X563314D01*
X564314Y136393D01*
Y132394D01*
X563314Y131394D01*
X561315D01*
X560315Y132394D01*
Y136393D01*
X566313Y131394D02*
Y135393D01*
X567313D01*
X568312Y134393D01*
Y131394D01*
Y134393D01*
X569312Y135393D01*
X570312Y134393D01*
Y131394D01*
X572311D02*
X574310D01*
X573311D01*
Y135393D01*
X572311D01*
X577309Y131394D02*
X579309D01*
X578309D01*
Y137392D01*
X577309D01*
X590305Y131394D02*
X588306Y133394D01*
Y135393D01*
X590305Y137392D01*
X593304Y136393D02*
X594304Y137392D01*
X596303D01*
X597303Y136393D01*
Y132394D01*
X596303Y131394D01*
X594304D01*
X593304Y132394D01*
Y136393D01*
X599302Y131394D02*
Y132394D01*
X600302D01*
Y131394D01*
X599302D01*
X604301Y136393D02*
X605300Y137392D01*
X607300D01*
X608299Y136393D01*
Y135393D01*
X607300Y134393D01*
X608299Y133394D01*
Y132394D01*
X607300Y131394D01*
X605300D01*
X604301Y132394D01*
Y133394D01*
X605300Y134393D01*
X604301Y135393D01*
Y136393D01*
X605300Y134393D02*
X607300D01*
X610299Y136393D02*
X611298Y137392D01*
X613298D01*
X614297Y136393D01*
Y135393D01*
X613298Y134393D01*
X614297Y133394D01*
Y132394D01*
X613298Y131394D01*
X611298D01*
X610299Y132394D01*
Y133394D01*
X611298Y134393D01*
X610299Y135393D01*
Y136393D01*
X611298Y134393D02*
X613298D01*
X616297Y132394D02*
X617297Y131394D01*
X619296D01*
X620295Y132394D01*
Y136393D01*
X619296Y137392D01*
X617297D01*
X616297Y136393D01*
Y135393D01*
X617297Y134393D01*
X620295D01*
X622295Y131394D02*
Y135393D01*
X623294D01*
X624294Y134393D01*
Y131394D01*
Y134393D01*
X625294Y135393D01*
X626294Y134393D01*
Y131394D01*
X628293D02*
Y135393D01*
X629293D01*
X630292Y134393D01*
Y131394D01*
Y134393D01*
X631292Y135393D01*
X632292Y134393D01*
Y131394D01*
X634291D02*
X636290Y133394D01*
Y135393D01*
X634291Y137392D01*
X537322Y116394D02*
X539322D01*
X538322D01*
Y122392D01*
X537322Y121393D01*
X545320Y116394D02*
Y122392D01*
X542321Y119393D01*
X546319D01*
X548319Y117394D02*
X549319Y116394D01*
X551318D01*
X552317Y117394D01*
Y121393D01*
X551318Y122392D01*
X549319D01*
X548319Y121393D01*
Y120393D01*
X549319Y119393D01*
X552317D01*
X554317Y116394D02*
Y117394D01*
X555316D01*
Y116394D01*
X554317D01*
X563314Y122392D02*
X561315Y121393D01*
X559315Y119393D01*
Y117394D01*
X560315Y116394D01*
X562314D01*
X563314Y117394D01*
Y118394D01*
X562314Y119393D01*
X559315D01*
X565313Y116394D02*
X567313D01*
X566313D01*
Y122392D01*
X565313Y121393D01*
X570312Y116394D02*
Y120393D01*
X571311D01*
X572311Y119393D01*
Y116394D01*
Y119393D01*
X573311Y120393D01*
X574310Y119393D01*
Y116394D01*
X576310D02*
X578309D01*
X577309D01*
Y120393D01*
X576310D01*
X581308Y116394D02*
X583308D01*
X582308D01*
Y122392D01*
X581308D01*
X594304Y116394D02*
X592305Y118394D01*
Y120393D01*
X594304Y122392D01*
X597303Y121393D02*
X598303Y122392D01*
X600302D01*
X601302Y121393D01*
Y120393D01*
X600302Y119393D01*
X599302D01*
X600302D01*
X601302Y118394D01*
Y117394D01*
X600302Y116394D01*
X598303D01*
X597303Y117394D01*
X603301Y116394D02*
Y117394D01*
X604301D01*
Y116394D01*
X603301D01*
X608299Y121393D02*
X609299Y122392D01*
X611298D01*
X612298Y121393D01*
Y120393D01*
X611298Y119393D01*
X612298Y118394D01*
Y117394D01*
X611298Y116394D01*
X609299D01*
X608299Y117394D01*
Y118394D01*
X609299Y119393D01*
X608299Y120393D01*
Y121393D01*
X609299Y119393D02*
X611298D01*
X614297Y121393D02*
X615297Y122392D01*
X617297D01*
X618296Y121393D01*
Y117394D01*
X617297Y116394D01*
X615297D01*
X614297Y117394D01*
Y121393D01*
X620295D02*
X621295Y122392D01*
X623294D01*
X624294Y121393D01*
Y117394D01*
X623294Y116394D01*
X621295D01*
X620295Y117394D01*
Y121393D01*
X626294Y116394D02*
Y120393D01*
X627293D01*
X628293Y119393D01*
Y116394D01*
Y119393D01*
X629293Y120393D01*
X630292Y119393D01*
Y116394D01*
X632292D02*
Y120393D01*
X633291D01*
X634291Y119393D01*
Y116394D01*
Y119393D01*
X635291Y120393D01*
X636290Y119393D01*
Y116394D01*
X638290D02*
X640289Y118394D01*
Y120393D01*
X638290Y122392D01*
X537322Y106393D02*
X538322Y107392D01*
X540321D01*
X541321Y106393D01*
Y105393D01*
X540321Y104393D01*
X539322D01*
X540321D01*
X541321Y103393D01*
Y102394D01*
X540321Y101394D01*
X538322D01*
X537322Y102394D01*
X543320D02*
X544320Y101394D01*
X546319D01*
X547319Y102394D01*
Y106393D01*
X546319Y107392D01*
X544320D01*
X543320Y106393D01*
Y105393D01*
X544320Y104393D01*
X547319D01*
X549319Y101394D02*
Y102394D01*
X550318D01*
Y101394D01*
X549319D01*
X554317Y106393D02*
X555316Y107392D01*
X557316D01*
X558316Y106393D01*
Y105393D01*
X557316Y104393D01*
X556316D01*
X557316D01*
X558316Y103393D01*
Y102394D01*
X557316Y101394D01*
X555316D01*
X554317Y102394D01*
X560315Y107392D02*
X564314D01*
Y106393D01*
X560315Y102394D01*
Y101394D01*
X566313D02*
Y105393D01*
X567313D01*
X568312Y104393D01*
Y101394D01*
Y104393D01*
X569312Y105393D01*
X570312Y104393D01*
Y101394D01*
X572311D02*
X574310D01*
X573311D01*
Y105393D01*
X572311D01*
X577309Y101394D02*
X579309D01*
X578309D01*
Y107392D01*
X577309D01*
X590305Y101394D02*
X588306Y103393D01*
Y105393D01*
X590305Y107392D01*
X593304Y101394D02*
X595304D01*
X594304D01*
Y107392D01*
X593304Y106393D01*
X598303Y101394D02*
Y102394D01*
X599302D01*
Y101394D01*
X598303D01*
X603301Y106393D02*
X604301Y107392D01*
X606300D01*
X607300Y106393D01*
Y102394D01*
X606300Y101394D01*
X604301D01*
X603301Y102394D01*
Y106393D01*
X609299D02*
X610299Y107392D01*
X612298D01*
X613298Y106393D01*
Y102394D01*
X612298Y101394D01*
X610299D01*
X609299Y102394D01*
Y106393D01*
X615297D02*
X616297Y107392D01*
X618296D01*
X619296Y106393D01*
Y102394D01*
X618296Y101394D01*
X616297D01*
X615297Y102394D01*
Y106393D01*
X621295Y101394D02*
Y105393D01*
X622295D01*
X623294Y104393D01*
Y101394D01*
Y104393D01*
X624294Y105393D01*
X625294Y104393D01*
Y101394D01*
X627293D02*
Y105393D01*
X628293D01*
X629293Y104393D01*
Y101394D01*
Y104393D01*
X630292Y105393D01*
X631292Y104393D01*
Y101394D01*
X633291D02*
X635291Y103393D01*
Y105393D01*
X633291Y107392D01*
X540321Y86394D02*
Y92392D01*
X537322Y89393D01*
X541321D01*
X543320Y92392D02*
X547319D01*
Y91393D01*
X543320Y87394D01*
Y86394D01*
X549319D02*
Y87394D01*
X550318D01*
Y86394D01*
X549319D01*
X558316D02*
X554317D01*
X558316Y90393D01*
Y91393D01*
X557316Y92392D01*
X555316D01*
X554317Y91393D01*
X563314Y86394D02*
Y92392D01*
X560315Y89393D01*
X564314D01*
X566313Y86394D02*
Y90393D01*
X567313D01*
X568312Y89393D01*
Y86394D01*
Y89393D01*
X569312Y90393D01*
X570312Y89393D01*
Y86394D01*
X572311D02*
X574310D01*
X573311D01*
Y90393D01*
X572311D01*
X577309Y86394D02*
X579309D01*
X578309D01*
Y92392D01*
X577309D01*
X590305Y86394D02*
X588306Y88393D01*
Y90393D01*
X590305Y92392D01*
X593304Y86394D02*
X595304D01*
X594304D01*
Y92392D01*
X593304Y91393D01*
X598303Y86394D02*
Y87394D01*
X599302D01*
Y86394D01*
X598303D01*
X607300D02*
X603301D01*
X607300Y90393D01*
Y91393D01*
X606300Y92392D01*
X604301D01*
X603301Y91393D01*
X609299D02*
X610299Y92392D01*
X612298D01*
X613298Y91393D01*
Y87394D01*
X612298Y86394D01*
X610299D01*
X609299Y87394D01*
Y91393D01*
X615297D02*
X616297Y92392D01*
X618296D01*
X619296Y91393D01*
Y87394D01*
X618296Y86394D01*
X616297D01*
X615297Y87394D01*
Y91393D01*
X621295Y86394D02*
Y90393D01*
X622295D01*
X623294Y89393D01*
Y86394D01*
Y89393D01*
X624294Y90393D01*
X625294Y89393D01*
Y86394D01*
X627293D02*
Y90393D01*
X628293D01*
X629293Y89393D01*
Y86394D01*
Y89393D01*
X630292Y90393D01*
X631292Y89393D01*
Y86394D01*
X633291D02*
X635291Y88393D01*
Y90393D01*
X633291Y92392D01*
X541321Y77392D02*
X537322D01*
Y74393D01*
X539322Y75393D01*
X540321D01*
X541321Y74393D01*
Y72394D01*
X540321Y71394D01*
X538322D01*
X537322Y72394D01*
X543320D02*
X544320Y71394D01*
X546319D01*
X547319Y72394D01*
Y76393D01*
X546319Y77392D01*
X544320D01*
X543320Y76393D01*
Y75393D01*
X544320Y74393D01*
X547319D01*
X549319Y71394D02*
Y72394D01*
X550318D01*
Y71394D01*
X549319D01*
X554317Y76393D02*
X555316Y77392D01*
X557316D01*
X558316Y76393D01*
Y75393D01*
X557316Y74393D01*
X558316Y73393D01*
Y72394D01*
X557316Y71394D01*
X555316D01*
X554317Y72394D01*
Y73393D01*
X555316Y74393D01*
X554317Y75393D01*
Y76393D01*
X555316Y74393D02*
X557316D01*
X563314Y71394D02*
Y77392D01*
X560315Y74393D01*
X564314D01*
X566313Y71394D02*
Y75393D01*
X567313D01*
X568312Y74393D01*
Y71394D01*
Y74393D01*
X569312Y75393D01*
X570312Y74393D01*
Y71394D01*
X572311D02*
X574310D01*
X573311D01*
Y75393D01*
X572311D01*
X577309Y71394D02*
X579309D01*
X578309D01*
Y77392D01*
X577309D01*
X590305Y71394D02*
X588306Y73393D01*
Y75393D01*
X590305Y77392D01*
X593304Y71394D02*
X595304D01*
X594304D01*
Y77392D01*
X593304Y76393D01*
X598303Y71394D02*
Y72394D01*
X599302D01*
Y71394D01*
X598303D01*
X607300Y77392D02*
X603301D01*
Y74393D01*
X605300Y75393D01*
X606300D01*
X607300Y74393D01*
Y72394D01*
X606300Y71394D01*
X604301D01*
X603301Y72394D01*
X613298Y71394D02*
X609299D01*
X613298Y75393D01*
Y76393D01*
X612298Y77392D01*
X610299D01*
X609299Y76393D01*
X615297D02*
X616297Y77392D01*
X618296D01*
X619296Y76393D01*
Y72394D01*
X618296Y71394D01*
X616297D01*
X615297Y72394D01*
Y76393D01*
X621295Y71394D02*
Y75393D01*
X622295D01*
X623294Y74393D01*
Y71394D01*
Y74393D01*
X624294Y75393D01*
X625294Y74393D01*
Y71394D01*
X627293D02*
Y75393D01*
X628293D01*
X629293Y74393D01*
Y71394D01*
Y74393D01*
X630292Y75393D01*
X631292Y74393D01*
Y71394D01*
X633291D02*
X635291Y73393D01*
Y75393D01*
X633291Y77392D01*
X540321Y56394D02*
Y62392D01*
X537322Y59393D01*
X541321D01*
X543320Y61393D02*
X544320Y62392D01*
X546319D01*
X547319Y61393D01*
Y60393D01*
X546319Y59393D01*
X545320D01*
X546319D01*
X547319Y58394D01*
Y57394D01*
X546319Y56394D01*
X544320D01*
X543320Y57394D01*
X549319Y56394D02*
Y57394D01*
X550318D01*
Y56394D01*
X549319D01*
X554317Y61393D02*
X555316Y62392D01*
X557316D01*
X558316Y61393D01*
Y60393D01*
X557316Y59393D01*
X556316D01*
X557316D01*
X558316Y58394D01*
Y57394D01*
X557316Y56394D01*
X555316D01*
X554317Y57394D01*
X560315Y56394D02*
X562314D01*
X561315D01*
Y62392D01*
X560315Y61393D01*
X565313Y56394D02*
Y60393D01*
X566313D01*
X567313Y59393D01*
Y56394D01*
Y59393D01*
X568312Y60393D01*
X569312Y59393D01*
Y56394D01*
X571311D02*
X573311D01*
X572311D01*
Y60393D01*
X571311D01*
X576310Y56394D02*
X578309D01*
X577309D01*
Y62392D01*
X576310D01*
X589305Y56394D02*
X587306Y58394D01*
Y60393D01*
X589305Y62392D01*
X592305Y56394D02*
X594304D01*
X593304D01*
Y62392D01*
X592305Y61393D01*
X597303Y56394D02*
Y57394D01*
X598303D01*
Y56394D01*
X597303D01*
X602301D02*
X604301D01*
X603301D01*
Y62392D01*
X602301Y61393D01*
X607300D02*
X608299Y62392D01*
X610299D01*
X611298Y61393D01*
Y57394D01*
X610299Y56394D01*
X608299D01*
X607300Y57394D01*
Y61393D01*
X613298D02*
X614297Y62392D01*
X616297D01*
X617297Y61393D01*
Y57394D01*
X616297Y56394D01*
X614297D01*
X613298Y57394D01*
Y61393D01*
X619296Y56394D02*
Y60393D01*
X620295D01*
X621295Y59393D01*
Y56394D01*
Y59393D01*
X622295Y60393D01*
X623294Y59393D01*
Y56394D01*
X625294D02*
Y60393D01*
X626294D01*
X627293Y59393D01*
Y56394D01*
Y59393D01*
X628293Y60393D01*
X629293Y59393D01*
Y56394D01*
X631292D02*
X633291Y58394D01*
Y60393D01*
X631292Y62392D01*
X537322Y41394D02*
X539322D01*
X538322D01*
Y47392D01*
X537322Y46393D01*
X542321Y42394D02*
X543320Y41394D01*
X545320D01*
X546319Y42394D01*
Y46393D01*
X545320Y47392D01*
X543320D01*
X542321Y46393D01*
Y45393D01*
X543320Y44393D01*
X546319D01*
X548319Y41394D02*
Y42394D01*
X549319D01*
Y41394D01*
X548319D01*
X557316Y47392D02*
X555316Y46393D01*
X553317Y44393D01*
Y42394D01*
X554317Y41394D01*
X556316D01*
X557316Y42394D01*
Y43393D01*
X556316Y44393D01*
X553317D01*
X559315Y42394D02*
X560315Y41394D01*
X562314D01*
X563314Y42394D01*
Y46393D01*
X562314Y47392D01*
X560315D01*
X559315Y46393D01*
Y45393D01*
X560315Y44393D01*
X563314D01*
X565313Y41394D02*
Y45393D01*
X566313D01*
X567313Y44393D01*
Y41394D01*
Y44393D01*
X568312Y45393D01*
X569312Y44393D01*
Y41394D01*
X571311D02*
X573311D01*
X572311D01*
Y45393D01*
X571311D01*
X576310Y41394D02*
X578309D01*
X577309D01*
Y47392D01*
X576310D01*
X589305Y41394D02*
X587306Y43393D01*
Y45393D01*
X589305Y47392D01*
X592305Y46393D02*
X593304Y47392D01*
X595304D01*
X596303Y46393D01*
Y42394D01*
X595304Y41394D01*
X593304D01*
X592305Y42394D01*
Y46393D01*
X598303Y41394D02*
Y42394D01*
X599302D01*
Y41394D01*
X598303D01*
X607300Y47392D02*
X603301D01*
Y44393D01*
X605300Y45393D01*
X606300D01*
X607300Y44393D01*
Y42394D01*
X606300Y41394D01*
X604301D01*
X603301Y42394D01*
X609299Y46393D02*
X610299Y47392D01*
X612298D01*
X613298Y46393D01*
Y42394D01*
X612298Y41394D01*
X610299D01*
X609299Y42394D01*
Y46393D01*
X615297D02*
X616297Y47392D01*
X618296D01*
X619296Y46393D01*
Y42394D01*
X618296Y41394D01*
X616297D01*
X615297Y42394D01*
Y46393D01*
X621295Y41394D02*
Y45393D01*
X622295D01*
X623294Y44393D01*
Y41394D01*
Y44393D01*
X624294Y45393D01*
X625294Y44393D01*
Y41394D01*
X627293D02*
Y45393D01*
X628293D01*
X629293Y44393D01*
Y41394D01*
Y44393D01*
X630292Y45393D01*
X631292Y44393D01*
Y41394D01*
X633291D02*
X635291Y43393D01*
Y45393D01*
X633291Y47392D01*
X537322Y26394D02*
X539322D01*
X538322D01*
Y32392D01*
X537322Y31392D01*
X542321Y26394D02*
X544320D01*
X543320D01*
Y32392D01*
X542321Y31392D01*
X547319Y26394D02*
Y27394D01*
X548319D01*
Y26394D01*
X547319D01*
X552317Y31392D02*
X553317Y32392D01*
X555316D01*
X556316Y31392D01*
Y30393D01*
X555316Y29393D01*
X556316Y28394D01*
Y27394D01*
X555316Y26394D01*
X553317D01*
X552317Y27394D01*
Y28394D01*
X553317Y29393D01*
X552317Y30393D01*
Y31392D01*
X553317Y29393D02*
X555316D01*
X558316Y26394D02*
X560315D01*
X559315D01*
Y32392D01*
X558316Y31392D01*
X563314Y26394D02*
Y30393D01*
X564314D01*
X565313Y29393D01*
Y26394D01*
Y29393D01*
X566313Y30393D01*
X567313Y29393D01*
Y26394D01*
X569312D02*
X571311D01*
X570312D01*
Y30393D01*
X569312D01*
X574310Y26394D02*
X576310D01*
X575310D01*
Y32392D01*
X574310D01*
X587306Y26394D02*
X585307Y28394D01*
Y30393D01*
X587306Y32392D01*
X590305Y31392D02*
X591305Y32392D01*
X593304D01*
X594304Y31392D01*
Y27394D01*
X593304Y26394D01*
X591305D01*
X590305Y27394D01*
Y31392D01*
X596303Y26394D02*
Y27394D01*
X597303D01*
Y26394D01*
X596303D01*
X601302Y31392D02*
X602301Y32392D01*
X604301D01*
X605300Y31392D01*
Y30393D01*
X604301Y29393D01*
X603301D01*
X604301D01*
X605300Y28394D01*
Y27394D01*
X604301Y26394D01*
X602301D01*
X601302Y27394D01*
X607300Y31392D02*
X608299Y32392D01*
X610299D01*
X611298Y31392D01*
Y27394D01*
X610299Y26394D01*
X608299D01*
X607300Y27394D01*
Y31392D01*
X613298D02*
X614297Y32392D01*
X616297D01*
X617297Y31392D01*
Y27394D01*
X616297Y26394D01*
X614297D01*
X613298Y27394D01*
Y31392D01*
X619296Y26394D02*
Y30393D01*
X620295D01*
X621295Y29393D01*
Y26394D01*
Y29393D01*
X622295Y30393D01*
X623294Y29393D01*
Y26394D01*
X625294D02*
Y30393D01*
X626294D01*
X627293Y29393D01*
Y26394D01*
Y29393D01*
X628293Y30393D01*
X629293Y29393D01*
Y26394D01*
X631292D02*
X633291Y28394D01*
Y30393D01*
X631292Y32392D01*
X479338Y16393D02*
X480337Y17392D01*
X482337D01*
X483336Y16393D01*
Y15393D01*
X482337Y14393D01*
X481337D01*
X482337D01*
X483336Y13394D01*
Y12394D01*
X482337Y11394D01*
X480337D01*
X479338Y12394D01*
X485336Y11394D02*
X487335D01*
X486335D01*
Y17392D01*
X485336Y16393D01*
X490334Y11394D02*
X492333D01*
X491334D01*
Y17392D01*
X490334Y16393D01*
X501331Y17392D02*
X505329D01*
X503330D01*
Y11394D01*
X508328D02*
X510327D01*
X511327Y12394D01*
Y14393D01*
X510327Y15393D01*
X508328D01*
X507329Y14393D01*
Y12394D01*
X508328Y11394D01*
X514326Y16393D02*
Y15393D01*
X513327D01*
X515326D01*
X514326D01*
Y12394D01*
X515326Y11394D01*
X519325Y15393D02*
X521324D01*
X522324Y14393D01*
Y11394D01*
X519325D01*
X518325Y12394D01*
X519325Y13394D01*
X522324D01*
X524323Y11394D02*
X526322D01*
X525323D01*
Y17392D01*
X524323D01*
X483336Y161394D02*
X479338D01*
X483336Y165393D01*
Y166393D01*
X482337Y167392D01*
X480337D01*
X479338Y166393D01*
X483336Y146394D02*
X479338D01*
X483336Y150393D01*
Y151393D01*
X482337Y152392D01*
X480337D01*
X479338Y151393D01*
X482337Y131394D02*
Y137392D01*
X479338Y134393D01*
X483336D01*
X482337Y116394D02*
Y122392D01*
X479338Y119393D01*
X483336D01*
Y107392D02*
X479338D01*
Y104393D01*
X481337Y105393D01*
X482337D01*
X483336Y104393D01*
Y102394D01*
X482337Y101394D01*
X480337D01*
X479338Y102394D01*
X483336Y92392D02*
X479338D01*
Y89393D01*
X481337Y90393D01*
X482337D01*
X483336Y89393D01*
Y87394D01*
X482337Y86394D01*
X480337D01*
X479338Y87394D01*
Y76393D02*
X480337Y77392D01*
X482337D01*
X483336Y76393D01*
Y75393D01*
X482337Y74393D01*
X483336Y73393D01*
Y72394D01*
X482337Y71394D01*
X480337D01*
X479338Y72394D01*
Y73393D01*
X480337Y74393D01*
X479338Y75393D01*
Y76393D01*
X480337Y74393D02*
X482337D01*
X483336Y56394D02*
X479338D01*
X483336Y60393D01*
Y61393D01*
X482337Y62392D01*
X480337D01*
X479338Y61393D01*
X489334Y62392D02*
X487335Y61393D01*
X485336Y59393D01*
Y57394D01*
X486335Y56394D01*
X488335D01*
X489334Y57394D01*
Y58394D01*
X488335Y59393D01*
X485336D01*
X483336Y47392D02*
X479338D01*
Y44393D01*
X481337Y45393D01*
X482337D01*
X483336Y44393D01*
Y42394D01*
X482337Y41394D01*
X480337D01*
X479338Y42394D01*
X485336Y46393D02*
X486335Y47392D01*
X488335D01*
X489334Y46393D01*
Y42394D01*
X488335Y41394D01*
X486335D01*
X485336Y42394D01*
Y46393D01*
X483336Y26394D02*
X479338D01*
X483336Y30393D01*
Y31392D01*
X482337Y32392D01*
X480337D01*
X479338Y31392D01*
X485336D02*
X486335Y32392D01*
X488335D01*
X489334Y31392D01*
Y27394D01*
X488335Y26394D01*
X486335D01*
X485336Y27394D01*
Y31392D01*
X495332Y32392D02*
X491334D01*
Y29393D01*
X493333Y30393D01*
X494333D01*
X495332Y29393D01*
Y27394D01*
X494333Y26394D01*
X492333D01*
X491334Y27394D01*
X607297Y-11101D02*
X611296D01*
X607297Y-9102D02*
X611296D01*
X619293Y-13101D02*
Y-7103D01*
X622292D01*
X623292Y-8102D01*
Y-10102D01*
X622292Y-11101D01*
X619293D01*
X621292D02*
X623292Y-13101D01*
X626291D02*
X628290D01*
X629290Y-12101D01*
Y-10102D01*
X628290Y-9102D01*
X626291D01*
X625291Y-10102D01*
Y-12101D01*
X626291Y-13101D01*
X631289Y-9102D02*
Y-12101D01*
X632289Y-13101D01*
X635288D01*
Y-9102D01*
X638287Y-8102D02*
Y-9102D01*
X637287D01*
X639287D01*
X638287D01*
Y-12101D01*
X639287Y-13101D01*
X645285D02*
X643285D01*
X642286Y-12101D01*
Y-10102D01*
X643285Y-9102D01*
X645285D01*
X646284Y-10102D01*
Y-11101D01*
X642286D01*
X652282Y-7103D02*
Y-13101D01*
X649283D01*
X648284Y-12101D01*
Y-10102D01*
X649283Y-9102D01*
X652282D01*
X660280Y-13101D02*
Y-7103D01*
X663279D01*
X664279Y-8102D01*
Y-10102D01*
X663279Y-11101D01*
X660280D01*
X667277Y-9102D02*
X669277D01*
X670277Y-10102D01*
Y-13101D01*
X667277D01*
X666278Y-12101D01*
X667277Y-11101D01*
X670277D01*
X673276Y-8102D02*
Y-9102D01*
X672276D01*
X674275D01*
X673276D01*
Y-12101D01*
X674275Y-13101D01*
X677274Y-7103D02*
Y-13101D01*
Y-10102D01*
X678274Y-9102D01*
X680273D01*
X681273Y-10102D01*
Y-13101D01*
X689270Y-7103D02*
Y-13101D01*
X693269D01*
X698268D02*
X696268D01*
X695268Y-12101D01*
Y-10102D01*
X696268Y-9102D01*
X698268D01*
X699267Y-10102D01*
Y-11101D01*
X695268D01*
X701267Y-13101D02*
Y-9102D01*
X704266D01*
X705265Y-10102D01*
Y-13101D01*
X709264Y-15100D02*
X710264D01*
X711263Y-14100D01*
Y-9102D01*
X708264D01*
X707265Y-10102D01*
Y-12101D01*
X708264Y-13101D01*
X711263D01*
X714262Y-8102D02*
Y-9102D01*
X713263D01*
X715262D01*
X714262D01*
Y-12101D01*
X715262Y-13101D01*
X718261Y-7103D02*
Y-13101D01*
Y-10102D01*
X719261Y-9102D01*
X721260D01*
X722260Y-10102D01*
Y-13101D01*
X730257Y-10102D02*
X734256D01*
X732257Y-8102D02*
Y-12101D01*
X742253Y-7103D02*
X746252D01*
X744253D01*
Y-13101D01*
X749251D02*
X751250D01*
X752250Y-12101D01*
Y-10102D01*
X751250Y-9102D01*
X749251D01*
X748251Y-10102D01*
Y-12101D01*
X749251Y-13101D01*
X755249D02*
X757248D01*
X758248Y-12101D01*
Y-10102D01*
X757248Y-9102D01*
X755249D01*
X754249Y-10102D01*
Y-12101D01*
X755249Y-13101D01*
X760248D02*
X762247D01*
X761247D01*
Y-7103D01*
X760248D01*
X775243Y-8102D02*
X774243Y-7103D01*
X772244D01*
X771244Y-8102D01*
Y-9102D01*
X772244Y-10102D01*
X774243D01*
X775243Y-11101D01*
Y-12101D01*
X774243Y-13101D01*
X772244D01*
X771244Y-12101D01*
X777242Y-13101D02*
X779241D01*
X778242D01*
Y-9102D01*
X777242D01*
X782240D02*
X786239D01*
X782240Y-13101D01*
X786239D01*
X791237D02*
X789238D01*
X788238Y-12101D01*
Y-10102D01*
X789238Y-9102D01*
X791237D01*
X792237Y-10102D01*
Y-11101D01*
X788238D01*
X800235D02*
X804233D01*
X800235Y-9102D02*
X804233D01*
X816229Y-8102D02*
X815230Y-7103D01*
X813230D01*
X812231Y-8102D01*
Y-9102D01*
X813230Y-10102D01*
X815230D01*
X816229Y-11101D01*
Y-12101D01*
X815230Y-13101D01*
X813230D01*
X812231Y-12101D01*
X818229Y-13101D02*
X820228D01*
X819228D01*
Y-7103D01*
X818229D01*
X824227Y-13101D02*
X826226D01*
X827226Y-12101D01*
Y-10102D01*
X826226Y-9102D01*
X824227D01*
X823227Y-10102D01*
Y-12101D01*
X824227Y-13101D01*
X830225Y-8102D02*
Y-9102D01*
X829225D01*
X831225D01*
X830225D01*
Y-12101D01*
X831225Y-13101D01*
X840222D02*
X842221D01*
X841221D01*
Y-7103D01*
X840222D01*
X848219Y-13101D02*
X846220D01*
X845220Y-12101D01*
Y-10102D01*
X846220Y-9102D01*
X848219D01*
X849219Y-10102D01*
Y-11101D01*
X845220D01*
X851218Y-13101D02*
Y-9102D01*
X854217D01*
X855217Y-10102D01*
Y-13101D01*
X859215Y-15100D02*
X860215D01*
X861215Y-14100D01*
Y-9102D01*
X858216D01*
X857216Y-10102D01*
Y-12101D01*
X858216Y-13101D01*
X861215D01*
X864214Y-8102D02*
Y-9102D01*
X863214D01*
X865213D01*
X864214D01*
Y-12101D01*
X865213Y-13101D01*
X868213Y-7103D02*
Y-13101D01*
Y-10102D01*
X869212Y-9102D01*
X871212D01*
X872211Y-10102D01*
Y-13101D01*
X881208Y-9102D02*
X883208D01*
X884207Y-10102D01*
Y-13101D01*
X881208D01*
X880209Y-12101D01*
X881208Y-11101D01*
X884207D01*
X886207Y-13101D02*
X889206D01*
X890205Y-12101D01*
X889206Y-11101D01*
X887206D01*
X886207Y-10102D01*
X887206Y-9102D01*
X890205D01*
X902201Y-7103D02*
Y-13101D01*
X899203D01*
X898203Y-12101D01*
Y-10102D01*
X899203Y-9102D01*
X902201D01*
X907200Y-13101D02*
X905201D01*
X904201Y-12101D01*
Y-10102D01*
X905201Y-9102D01*
X907200D01*
X908200Y-10102D01*
Y-11101D01*
X904201D01*
X911199Y-13101D02*
Y-8102D01*
Y-10102D01*
X910199D01*
X912198D01*
X911199D01*
Y-8102D01*
X912198Y-7103D01*
X915197Y-13101D02*
X917197D01*
X916197D01*
Y-9102D01*
X915197D01*
X920196Y-13101D02*
Y-9102D01*
X923195D01*
X924194Y-10102D01*
Y-13101D01*
X929193D02*
X927193D01*
X926194Y-12101D01*
Y-10102D01*
X927193Y-9102D01*
X929193D01*
X930192Y-10102D01*
Y-11101D01*
X926194D01*
X936191Y-7103D02*
Y-13101D01*
X933191D01*
X932192Y-12101D01*
Y-10102D01*
X933191Y-9102D01*
X936191D01*
X944188Y-13101D02*
X946187D01*
X945188D01*
Y-9102D01*
X944188D01*
X949186Y-13101D02*
Y-9102D01*
X952185D01*
X953185Y-10102D01*
Y-13101D01*
X962182Y-8102D02*
Y-9102D01*
X961182D01*
X963182D01*
X962182D01*
Y-12101D01*
X963182Y-13101D01*
X966181Y-7103D02*
Y-13101D01*
Y-10102D01*
X967181Y-9102D01*
X969180D01*
X970179Y-10102D01*
Y-13101D01*
X975178D02*
X973179D01*
X972179Y-12101D01*
Y-10102D01*
X973179Y-9102D01*
X975178D01*
X976178Y-10102D01*
Y-11101D01*
X972179D01*
X984175Y-13101D02*
Y-7103D01*
X987174D01*
X988174Y-8102D01*
Y-10102D01*
X987174Y-11101D01*
X984175D01*
X994172Y-8102D02*
X993172Y-7103D01*
X991173D01*
X990173Y-8102D01*
Y-12101D01*
X991173Y-13101D01*
X993172D01*
X994172Y-12101D01*
X996171Y-7103D02*
Y-13101D01*
X999170D01*
X1000170Y-12101D01*
Y-11101D01*
X999170Y-10102D01*
X996171D01*
X999170D01*
X1000170Y-9102D01*
Y-8102D01*
X999170Y-7103D01*
X996171D01*
X1008167Y-13101D02*
X1010167D01*
X1009167D01*
Y-7103D01*
X1008167D01*
X1014165Y-9102D02*
X1016165D01*
X1017164Y-10102D01*
Y-13101D01*
X1014165D01*
X1013166Y-12101D01*
X1014165Y-11101D01*
X1017164D01*
X1019164Y-9102D02*
Y-12101D01*
X1020163Y-13101D01*
X1023162D01*
Y-14100D01*
X1022163Y-15100D01*
X1021163D01*
X1023162Y-13101D02*
Y-9102D01*
X1026161Y-13101D02*
X1028161D01*
X1029160Y-12101D01*
Y-10102D01*
X1028161Y-9102D01*
X1026161D01*
X1025162Y-10102D01*
Y-12101D01*
X1026161Y-13101D01*
X1031160Y-9102D02*
Y-12101D01*
X1032160Y-13101D01*
X1035159D01*
Y-9102D01*
X1038158Y-8102D02*
Y-9102D01*
X1037158D01*
X1039157D01*
X1038158D01*
Y-12101D01*
X1039157Y-13101D01*
X642286Y-1104D02*
X646284D01*
X642286Y895D02*
X646284D01*
X658281Y1895D02*
X657281Y2895D01*
X655281D01*
X654282Y1895D01*
Y-2104D01*
X655281Y-3103D01*
X657281D01*
X658281Y-2104D01*
X661279Y895D02*
X663279D01*
X664279Y-104D01*
Y-3103D01*
X661279D01*
X660280Y-2104D01*
X661279Y-1104D01*
X664279D01*
X666278Y-3103D02*
X668277D01*
X667277D01*
Y2895D01*
X666278D01*
X675275Y895D02*
X672276D01*
X671276Y-104D01*
Y-2104D01*
X672276Y-3103D01*
X675275D01*
X677274Y895D02*
Y-2104D01*
X678274Y-3103D01*
X681273D01*
Y895D01*
X683272Y-3103D02*
X685272D01*
X684272D01*
Y2895D01*
X683272D01*
X689270Y895D02*
X691270D01*
X692270Y-104D01*
Y-3103D01*
X689270D01*
X688271Y-2104D01*
X689270Y-1104D01*
X692270D01*
X695268Y1895D02*
Y895D01*
X694269D01*
X696268D01*
X695268D01*
Y-2104D01*
X696268Y-3103D01*
X702266D02*
X700267D01*
X699267Y-2104D01*
Y-104D01*
X700267Y895D01*
X702266D01*
X703266Y-104D01*
Y-1104D01*
X699267D01*
X709264Y2895D02*
Y-3103D01*
X706265D01*
X705265Y-2104D01*
Y-104D01*
X706265Y895D01*
X709264D01*
X718261Y-3103D02*
Y1895D01*
Y-104D01*
X717261D01*
X719261D01*
X718261D01*
Y1895D01*
X719261Y2895D01*
X722260Y895D02*
Y-3103D01*
Y-1104D01*
X723259Y-104D01*
X724259Y895D01*
X725259D01*
X729257Y-3103D02*
X731257D01*
X732257Y-2104D01*
Y-104D01*
X731257Y895D01*
X729257D01*
X728258Y-104D01*
Y-2104D01*
X729257Y-3103D01*
X734256D02*
Y895D01*
X735256D01*
X736255Y-104D01*
Y-3103D01*
Y-104D01*
X737255Y895D01*
X738255Y-104D01*
Y-3103D01*
X747252Y1895D02*
Y895D01*
X746252D01*
X748251D01*
X747252D01*
Y-2104D01*
X748251Y-3103D01*
X752250D02*
X754249D01*
X755249Y-2104D01*
Y-104D01*
X754249Y895D01*
X752250D01*
X751250Y-104D01*
Y-2104D01*
X752250Y-3103D01*
X758248D02*
X760248D01*
X761247Y-2104D01*
Y-104D01*
X760248Y895D01*
X758248D01*
X757248Y-104D01*
Y-2104D01*
X758248Y-3103D01*
X763246D02*
X765246D01*
X764246D01*
Y2895D01*
X763246D01*
X774243Y-3103D02*
X777242D01*
X778242Y-2104D01*
X777242Y-1104D01*
X775243D01*
X774243Y-104D01*
X775243Y895D01*
X778242D01*
X781241Y1895D02*
Y895D01*
X780241D01*
X782240D01*
X781241D01*
Y-2104D01*
X782240Y-3103D01*
X786239Y895D02*
X788238D01*
X789238Y-104D01*
Y-3103D01*
X786239D01*
X785239Y-2104D01*
X786239Y-1104D01*
X789238D01*
X791237Y895D02*
Y-3103D01*
Y-1104D01*
X792237Y-104D01*
X793237Y895D01*
X794237D01*
X798235Y1895D02*
Y895D01*
X797235D01*
X799235D01*
X798235D01*
Y-2104D01*
X799235Y-3103D01*
X812231Y895D02*
X809232D01*
X808232Y-104D01*
Y-2104D01*
X809232Y-3103D01*
X812231D01*
X817229D02*
X815230D01*
X814230Y-2104D01*
Y-104D01*
X815230Y895D01*
X817229D01*
X818229Y-104D01*
Y-1104D01*
X814230D01*
X820228Y-3103D02*
Y895D01*
X823227D01*
X824227Y-104D01*
Y-3103D01*
X827226Y1895D02*
Y895D01*
X826226D01*
X828226D01*
X827226D01*
Y-2104D01*
X828226Y-3103D01*
X831225Y895D02*
Y-3103D01*
Y-1104D01*
X832224Y-104D01*
X833224Y895D01*
X834223D01*
X840222Y-3103D02*
X838222D01*
X837223Y-2104D01*
Y-104D01*
X838222Y895D01*
X840222D01*
X841221Y-104D01*
Y-1104D01*
X837223D01*
X849219Y-5103D02*
Y895D01*
X852218D01*
X853217Y-104D01*
Y-2104D01*
X852218Y-3103D01*
X849219D01*
X856216D02*
X858216D01*
X859215Y-2104D01*
Y-104D01*
X858216Y895D01*
X856216D01*
X855217Y-104D01*
Y-2104D01*
X856216Y-3103D01*
X861215D02*
X864214D01*
X865213Y-2104D01*
X864214Y-1104D01*
X862214D01*
X861215Y-104D01*
X862214Y895D01*
X865213D01*
X867213Y-3103D02*
X869212D01*
X868213D01*
Y895D01*
X867213D01*
X873211Y1895D02*
Y895D01*
X872211D01*
X874211D01*
X873211D01*
Y-2104D01*
X874211Y-3103D01*
X877210D02*
X879209D01*
X878209D01*
Y895D01*
X877210D01*
X883208Y-3103D02*
X885207D01*
X886207Y-2104D01*
Y-104D01*
X885207Y895D01*
X883208D01*
X882208Y-104D01*
Y-2104D01*
X883208Y-3103D01*
X888206D02*
Y895D01*
X891205D01*
X892205Y-104D01*
Y-3103D01*
X901202Y1895D02*
Y895D01*
X900202D01*
X902201D01*
X901202D01*
Y-2104D01*
X902201Y-3103D01*
X906200D02*
X908200D01*
X909199Y-2104D01*
Y-104D01*
X908200Y895D01*
X906200D01*
X905200Y-104D01*
Y-2104D01*
X906200Y-3103D01*
X918196Y1895D02*
Y895D01*
X917197D01*
X919196D01*
X918196D01*
Y-2104D01*
X919196Y-3103D01*
X923195D02*
X925194D01*
X926194Y-2104D01*
Y-104D01*
X925194Y895D01*
X923195D01*
X922195Y-104D01*
Y-2104D01*
X923195Y-3103D01*
X929193D02*
X931192D01*
X932192Y-2104D01*
Y-104D01*
X931192Y895D01*
X929193D01*
X928193Y-104D01*
Y-2104D01*
X929193Y-3103D01*
X934191D02*
X936191D01*
X935191D01*
Y2895D01*
X934191D01*
X948187Y-3103D02*
X946187D01*
X945188Y-2104D01*
Y-104D01*
X946187Y895D01*
X948187D01*
X949186Y-104D01*
Y-1104D01*
X945188D01*
X951186Y-3103D02*
Y895D01*
X954185D01*
X955184Y-104D01*
Y-3103D01*
X961182Y2895D02*
Y-3103D01*
X958183D01*
X957184Y-2104D01*
Y-104D01*
X958183Y895D01*
X961182D01*
X973179D02*
X970179D01*
X969180Y-104D01*
Y-2104D01*
X970179Y-3103D01*
X973179D01*
X978177D02*
X976178D01*
X975178Y-2104D01*
Y-104D01*
X976178Y895D01*
X978177D01*
X979177Y-104D01*
Y-1104D01*
X975178D01*
X981176Y-3103D02*
Y895D01*
X984175D01*
X985175Y-104D01*
Y-3103D01*
X988174Y1895D02*
Y895D01*
X987174D01*
X989173D01*
X988174D01*
Y-2104D01*
X989173Y-3103D01*
X992172Y895D02*
Y-3103D01*
Y-1104D01*
X993172Y-104D01*
X994172Y895D01*
X995171D01*
X1001169Y-3103D02*
X999170D01*
X998170Y-2104D01*
Y-104D01*
X999170Y895D01*
X1001169D01*
X1002169Y-104D01*
Y-1104D01*
X998170D01*
X1010167Y-5103D02*
Y895D01*
X1013166D01*
X1014165Y-104D01*
Y-2104D01*
X1013166Y-3103D01*
X1010167D01*
X1017164D02*
X1019164D01*
X1020163Y-2104D01*
Y-104D01*
X1019164Y895D01*
X1017164D01*
X1016165Y-104D01*
Y-2104D01*
X1017164Y-3103D01*
X1022163D02*
X1025162D01*
X1026161Y-2104D01*
X1025162Y-1104D01*
X1023162D01*
X1022163Y-104D01*
X1023162Y895D01*
X1026161D01*
X1028161Y-3103D02*
X1030160D01*
X1029160D01*
Y895D01*
X1028161D01*
X1034159Y1895D02*
Y895D01*
X1033159D01*
X1035159D01*
X1034159D01*
Y-2104D01*
X1035159Y-3103D01*
X1038157D02*
X1040157D01*
X1039157D01*
Y895D01*
X1038157D01*
X1044156Y-3103D02*
X1046155D01*
X1047155Y-2104D01*
Y-104D01*
X1046155Y895D01*
X1044156D01*
X1043156Y-104D01*
Y-2104D01*
X1044156Y-3103D01*
X1049154D02*
Y895D01*
X1052153D01*
X1053153Y-104D01*
Y-3103D01*
X1055152D02*
Y-2104D01*
X1056152D01*
Y-3103D01*
X1055152D01*
G54D14*
X1745173Y176394D02*
Y183592D01*
X1748772D01*
X1749971Y182392D01*
Y179993D01*
X1748772Y178793D01*
X1745173D01*
X1747572D02*
X1749971Y176394D01*
X1753570D02*
X1755969D01*
X1757169Y177594D01*
Y179993D01*
X1755969Y181193D01*
X1753570D01*
X1752371Y179993D01*
Y177594D01*
X1753570Y176394D01*
X1759568Y181193D02*
Y177594D01*
X1760768Y176394D01*
X1764367D01*
Y181193D01*
X1767966Y182392D02*
Y181193D01*
X1766766D01*
X1769165D01*
X1767966D01*
Y177594D01*
X1769165Y176394D01*
X1776363D02*
X1773964D01*
X1772764Y177594D01*
Y179993D01*
X1773964Y181193D01*
X1776363D01*
X1777563Y179993D01*
Y178793D01*
X1772764D01*
X1784760Y183592D02*
Y176394D01*
X1781161D01*
X1779962Y177594D01*
Y179993D01*
X1781161Y181193D01*
X1784760D01*
X1794357Y176394D02*
Y183592D01*
X1797956D01*
X1799155Y182392D01*
Y179993D01*
X1797956Y178793D01*
X1794357D01*
X1802754Y181193D02*
X1805154D01*
X1806353Y179993D01*
Y176394D01*
X1802754D01*
X1801555Y177594D01*
X1802754Y178793D01*
X1806353D01*
X1809952Y182392D02*
Y181193D01*
X1808752D01*
X1811152D01*
X1809952D01*
Y177594D01*
X1811152Y176394D01*
X1814750Y183592D02*
Y176394D01*
Y179993D01*
X1815950Y181193D01*
X1818349D01*
X1819549Y179993D01*
Y176394D01*
X1829146Y183592D02*
Y176394D01*
X1833944D01*
X1839942D02*
X1837543D01*
X1836344Y177594D01*
Y179993D01*
X1837543Y181193D01*
X1839942D01*
X1841142Y179993D01*
Y178793D01*
X1836344D01*
X1843541Y176394D02*
Y181193D01*
X1847140D01*
X1848340Y179993D01*
Y176394D01*
X1853138Y173995D02*
X1854338D01*
X1855537Y175195D01*
Y181193D01*
X1851938D01*
X1850739Y179993D01*
Y177594D01*
X1851938Y176394D01*
X1855537D01*
X1859136Y182392D02*
Y181193D01*
X1857936D01*
X1860336D01*
X1859136D01*
Y177594D01*
X1860336Y176394D01*
X1863935Y183592D02*
Y176394D01*
Y179993D01*
X1865134Y181193D01*
X1867533D01*
X1868733Y179993D01*
Y176394D01*
X1636205Y183592D02*
Y176394D01*
Y179993D01*
X1641003D01*
Y183592D01*
Y176394D01*
X1644602D02*
X1647001D01*
X1648201Y177594D01*
Y179993D01*
X1647001Y181193D01*
X1644602D01*
X1643402Y179993D01*
Y177594D01*
X1644602Y176394D01*
X1650600D02*
X1652999D01*
X1651800D01*
Y183592D01*
X1650600D01*
X1660197Y176394D02*
X1657798D01*
X1656598Y177594D01*
Y179993D01*
X1657798Y181193D01*
X1660197D01*
X1661396Y179993D01*
Y178793D01*
X1656598D01*
X1670993Y183592D02*
Y176394D01*
X1675792D01*
X1681790D02*
X1679391D01*
X1678191Y177594D01*
Y179993D01*
X1679391Y181193D01*
X1681790D01*
X1682990Y179993D01*
Y178793D01*
X1678191D01*
X1685389Y176394D02*
Y181193D01*
X1688988D01*
X1690187Y179993D01*
Y176394D01*
X1694986Y173995D02*
X1696185D01*
X1697385Y175195D01*
Y181193D01*
X1693786D01*
X1692586Y179993D01*
Y177594D01*
X1693786Y176394D01*
X1697385D01*
X1700984Y182392D02*
Y181193D01*
X1699784D01*
X1702183D01*
X1700984D01*
Y177594D01*
X1702183Y176394D01*
X1705782Y183592D02*
Y176394D01*
Y179993D01*
X1706982Y181193D01*
X1709381D01*
X1710581Y179993D01*
Y176394D01*
X1502844Y183592D02*
Y176394D01*
Y179993D01*
X1507642D01*
Y183592D01*
Y176394D01*
X1511241D02*
X1513640D01*
X1514840Y177594D01*
Y179993D01*
X1513640Y181193D01*
X1511241D01*
X1510042Y179993D01*
Y177594D01*
X1511241Y176394D01*
X1517239D02*
X1519639D01*
X1518439D01*
Y183592D01*
X1517239D01*
X1526836Y176394D02*
X1524437D01*
X1523237Y177594D01*
Y179993D01*
X1524437Y181193D01*
X1526836D01*
X1528036Y179993D01*
Y178793D01*
X1523237D01*
X1537633Y183592D02*
X1542431D01*
X1540032D01*
Y176394D01*
X1546030D02*
X1548429D01*
X1549629Y177594D01*
Y179993D01*
X1548429Y181193D01*
X1546030D01*
X1544830Y179993D01*
Y177594D01*
X1546030Y176394D01*
X1552028D02*
X1554427D01*
X1553228D01*
Y183592D01*
X1552028D01*
X1561625Y176394D02*
X1559226D01*
X1558026Y177594D01*
Y179993D01*
X1559226Y181193D01*
X1561625D01*
X1562825Y179993D01*
Y178793D01*
X1558026D01*
X1565224Y181193D02*
Y176394D01*
Y178793D01*
X1566423Y179993D01*
X1567623Y181193D01*
X1568823D01*
X1573621D02*
X1576020D01*
X1577220Y179993D01*
Y176394D01*
X1573621D01*
X1572421Y177594D01*
X1573621Y178793D01*
X1577220D01*
X1579619Y176394D02*
Y181193D01*
X1583218D01*
X1584418Y179993D01*
Y176394D01*
X1591615Y181193D02*
X1588016D01*
X1586817Y179993D01*
Y177594D01*
X1588016Y176394D01*
X1591615D01*
X1597613D02*
X1595214D01*
X1594014Y177594D01*
Y179993D01*
X1595214Y181193D01*
X1597613D01*
X1598813Y179993D01*
Y178793D01*
X1594014D01*
X1610809Y176394D02*
X1608410Y178793D01*
Y181193D01*
X1610809Y183592D01*
X1614408Y179993D02*
X1619206D01*
X1621605Y176394D02*
X1624005Y178793D01*
Y181193D01*
X1621605Y183592D01*
X1369483D02*
Y176394D01*
Y179993D01*
X1374282D01*
Y183592D01*
Y176394D01*
X1377880D02*
X1380280D01*
X1381479Y177594D01*
Y179993D01*
X1380280Y181193D01*
X1377880D01*
X1376681Y179993D01*
Y177594D01*
X1377880Y176394D01*
X1383879D02*
X1386278D01*
X1385078D01*
Y183592D01*
X1383879D01*
X1393475Y176394D02*
X1391076D01*
X1389876Y177594D01*
Y179993D01*
X1391076Y181193D01*
X1393475D01*
X1394675Y179993D01*
Y178793D01*
X1389876D01*
X1404272Y183592D02*
X1409070D01*
X1406671D01*
Y176394D01*
X1412669D02*
X1415068D01*
X1416268Y177594D01*
Y179993D01*
X1415068Y181193D01*
X1412669D01*
X1411469Y179993D01*
Y177594D01*
X1412669Y176394D01*
X1418667D02*
X1421066D01*
X1419867D01*
Y183592D01*
X1418667D01*
X1428264Y176394D02*
X1425865D01*
X1424665Y177594D01*
Y179993D01*
X1425865Y181193D01*
X1428264D01*
X1429464Y179993D01*
Y178793D01*
X1424665D01*
X1431863Y181193D02*
Y176394D01*
Y178793D01*
X1433063Y179993D01*
X1434262Y181193D01*
X1435462D01*
X1440260D02*
X1442659D01*
X1443859Y179993D01*
Y176394D01*
X1440260D01*
X1439061Y177594D01*
X1440260Y178793D01*
X1443859D01*
X1446258Y176394D02*
Y181193D01*
X1449857D01*
X1451057Y179993D01*
Y176394D01*
X1458254Y181193D02*
X1454656D01*
X1453456Y179993D01*
Y177594D01*
X1454656Y176394D01*
X1458254D01*
X1464252D02*
X1461853D01*
X1460654Y177594D01*
Y179993D01*
X1461853Y181193D01*
X1464252D01*
X1465452Y179993D01*
Y178793D01*
X1460654D01*
X1477448Y176394D02*
X1475049Y178793D01*
Y181193D01*
X1477448Y183592D01*
X1481047Y179993D02*
X1485845D01*
X1483446Y182392D02*
Y177594D01*
X1488245Y176394D02*
X1490644Y178793D01*
Y181193D01*
X1488245Y183592D01*
X1284107D02*
Y176394D01*
X1287706D01*
X1288905Y177594D01*
Y182392D01*
X1287706Y183592D01*
X1284107D01*
X1294903Y176394D02*
X1292504D01*
X1291304Y177594D01*
Y179993D01*
X1292504Y181193D01*
X1294903D01*
X1296103Y179993D01*
Y178793D01*
X1291304D01*
X1298502Y176394D02*
X1302101D01*
X1303301Y177594D01*
X1302101Y178793D01*
X1299702D01*
X1298502Y179993D01*
X1299702Y181193D01*
X1303301D01*
X1310498D02*
X1306899D01*
X1305700Y179993D01*
Y177594D01*
X1306899Y176394D01*
X1310498D01*
X1312897Y181193D02*
Y176394D01*
Y178793D01*
X1314097Y179993D01*
X1315297Y181193D01*
X1316496D01*
X1320095Y176394D02*
X1322494D01*
X1321295D01*
Y181193D01*
X1320095D01*
X1326093Y173995D02*
Y181193D01*
X1329692D01*
X1330892Y179993D01*
Y177594D01*
X1329692Y176394D01*
X1326093D01*
X1334490Y182392D02*
Y181193D01*
X1333291D01*
X1335690D01*
X1334490D01*
Y177594D01*
X1335690Y176394D01*
X1339289D02*
X1341688D01*
X1340489D01*
Y181193D01*
X1339289D01*
X1346487Y176394D02*
X1348886D01*
X1350086Y177594D01*
Y179993D01*
X1348886Y181193D01*
X1346487D01*
X1345287Y179993D01*
Y177594D01*
X1346487Y176394D01*
X1352485D02*
Y181193D01*
X1356083D01*
X1357283Y179993D01*
Y176394D01*
X1093165Y183592D02*
X1097964D01*
X1095564D01*
Y176394D01*
X1103961D02*
X1101562D01*
X1100363Y177594D01*
Y179993D01*
X1101562Y181193D01*
X1103961D01*
X1105161Y179993D01*
Y178793D01*
X1100363D01*
X1107560Y176394D02*
Y181193D01*
X1108760D01*
X1109960Y179993D01*
Y176394D01*
Y179993D01*
X1111159Y181193D01*
X1112359Y179993D01*
Y176394D01*
X1114758Y173995D02*
Y181193D01*
X1118357D01*
X1119557Y179993D01*
Y177594D01*
X1118357Y176394D01*
X1114758D01*
X1121956D02*
X1124355D01*
X1123155D01*
Y183592D01*
X1121956D01*
X1129153Y181193D02*
X1131553D01*
X1132752Y179993D01*
Y176394D01*
X1129153D01*
X1127954Y177594D01*
X1129153Y178793D01*
X1132752D01*
X1136351Y182392D02*
Y181193D01*
X1135151D01*
X1137551D01*
X1136351D01*
Y177594D01*
X1137551Y176394D01*
X1144748D02*
X1142349D01*
X1141150Y177594D01*
Y179993D01*
X1142349Y181193D01*
X1144748D01*
X1145948Y179993D01*
Y178793D01*
X1141150D01*
X984197Y176394D02*
Y183592D01*
X987796D01*
X988995Y182392D01*
Y179993D01*
X987796Y178793D01*
X984197D01*
X992594Y181193D02*
X994993D01*
X996193Y179993D01*
Y176394D01*
X992594D01*
X991394Y177594D01*
X992594Y178793D01*
X996193D01*
X1003391Y183592D02*
Y176394D01*
X999792D01*
X998592Y177594D01*
Y179993D01*
X999792Y181193D01*
X1003391D01*
X1017786Y182392D02*
X1016586Y183592D01*
X1014187D01*
X1012987Y182392D01*
Y181193D01*
X1014187Y179993D01*
X1016586D01*
X1017786Y178793D01*
Y177594D01*
X1016586Y176394D01*
X1014187D01*
X1012987Y177594D01*
X1020185Y183592D02*
Y176394D01*
Y179993D01*
X1021385Y181193D01*
X1023784D01*
X1024984Y179993D01*
Y176394D01*
X1028582Y181193D02*
X1030982D01*
X1032181Y179993D01*
Y176394D01*
X1028582D01*
X1027383Y177594D01*
X1028582Y178793D01*
X1032181D01*
X1034580Y173995D02*
Y181193D01*
X1038179D01*
X1039379Y179993D01*
Y177594D01*
X1038179Y176394D01*
X1034580D01*
X1045377D02*
X1042978D01*
X1041778Y177594D01*
Y179993D01*
X1042978Y181193D01*
X1045377D01*
X1046576Y179993D01*
Y178793D01*
X1041778D01*
X925212Y183592D02*
Y178793D01*
X927611Y176394D01*
X930010Y178793D01*
Y183592D01*
X932409Y176394D02*
X934809D01*
X933609D01*
Y181193D01*
X932409D01*
X939607D02*
X942006D01*
X943206Y179993D01*
Y176394D01*
X939607D01*
X938408Y177594D01*
X939607Y178793D01*
X943206D01*
X945605Y176394D02*
X950404Y181193D01*
X952803Y176394D02*
Y183592D01*
X956402D01*
X957601Y182392D01*
Y179993D01*
X956402Y178793D01*
X952803D01*
X961200Y181193D02*
X963599D01*
X964799Y179993D01*
Y176394D01*
X961200D01*
X960001Y177594D01*
X961200Y178793D01*
X964799D01*
X971997Y183592D02*
Y176394D01*
X968398D01*
X967198Y177594D01*
Y179993D01*
X968398Y181193D01*
X971997D01*
X775257Y183592D02*
Y176394D01*
X778856D01*
X780055Y177594D01*
Y182392D01*
X778856Y183592D01*
X775257D01*
X782454Y181193D02*
Y176394D01*
Y178793D01*
X783654Y179993D01*
X784854Y181193D01*
X786053D01*
X789652Y176394D02*
X792051D01*
X790852D01*
Y181193D01*
X789652D01*
X795650Y176394D02*
X798049D01*
X796850D01*
Y183592D01*
X795650D01*
X801648Y176394D02*
X804047D01*
X802848D01*
Y183592D01*
X801648D01*
X814844D02*
Y176394D01*
X819642D01*
X823241Y181193D02*
X825640D01*
X826840Y179993D01*
Y176394D01*
X823241D01*
X822042Y177594D01*
X823241Y178793D01*
X826840D01*
X829239Y181193D02*
Y177594D01*
X830439Y176394D01*
X834038D01*
Y175195D01*
X832838Y173995D01*
X831639D01*
X834038Y176394D02*
Y181193D01*
X840036Y176394D02*
X837637D01*
X836437Y177594D01*
Y179993D01*
X837637Y181193D01*
X840036D01*
X841236Y179993D01*
Y178793D01*
X836437D01*
X843635Y181193D02*
Y176394D01*
Y178793D01*
X844834Y179993D01*
X846034Y181193D01*
X847233D01*
X858030Y176394D02*
Y183592D01*
X861629D01*
X862829Y182392D01*
Y179993D01*
X861629Y178793D01*
X858030D01*
X866427Y181193D02*
X868826D01*
X870026Y179993D01*
Y176394D01*
X866427D01*
X865228Y177594D01*
X866427Y178793D01*
X870026D01*
X872425Y176394D02*
X874825D01*
X873625D01*
Y181193D01*
X872425D01*
X878423D02*
Y176394D01*
Y178793D01*
X879623Y179993D01*
X880823Y181193D01*
X882022D01*
X701877Y183592D02*
Y176394D01*
Y179993D01*
X706675D01*
Y183592D01*
Y176394D01*
X710274D02*
X712673D01*
X713873Y177594D01*
Y179993D01*
X712673Y181193D01*
X710274D01*
X709074Y179993D01*
Y177594D01*
X710274Y176394D01*
X716272D02*
X718671D01*
X717472D01*
Y183592D01*
X716272D01*
X725869Y176394D02*
X723470D01*
X722270Y177594D01*
Y179993D01*
X723470Y181193D01*
X725869D01*
X727069Y179993D01*
Y178793D01*
X722270D01*
X736665Y183592D02*
X741464D01*
X739065D01*
Y176394D01*
X743863Y181193D02*
Y177594D01*
X745063Y176394D01*
X748662D01*
Y175195D01*
X747462Y173995D01*
X746262D01*
X748662Y176394D02*
Y181193D01*
X751061Y173995D02*
Y181193D01*
X754660D01*
X755859Y179993D01*
Y177594D01*
X754660Y176394D01*
X751061D01*
X761857D02*
X759458D01*
X758258Y177594D01*
Y179993D01*
X759458Y181193D01*
X761857D01*
X763057Y179993D01*
Y178793D01*
X758258D01*
X651289Y176394D02*
Y183592D01*
X654888D01*
X656087Y182392D01*
Y179993D01*
X654888Y178793D01*
X651289D01*
X658487Y176394D02*
X660886D01*
X659686D01*
Y183592D01*
X658487D01*
X665684Y181193D02*
X668084D01*
X669283Y179993D01*
Y176394D01*
X665684D01*
X664485Y177594D01*
X665684Y178793D01*
X669283D01*
X672882Y182392D02*
Y181193D01*
X671682D01*
X674082D01*
X672882D01*
Y177594D01*
X674082Y176394D01*
X681279D02*
X678880D01*
X677680Y177594D01*
Y179993D01*
X678880Y181193D01*
X681279D01*
X682479Y179993D01*
Y178793D01*
X677680D01*
X689677Y183592D02*
Y176394D01*
X686078D01*
X684878Y177594D01*
Y179993D01*
X686078Y181193D01*
X689677D01*
X537322Y183592D02*
Y176394D01*
Y179993D01*
X542121D01*
Y183592D01*
Y176394D01*
X545720D02*
X548119D01*
X549319Y177594D01*
Y179993D01*
X548119Y181193D01*
X545720D01*
X544520Y179993D01*
Y177594D01*
X545720Y176394D01*
X551718D02*
X554117D01*
X552917D01*
Y183592D01*
X551718D01*
X561315Y176394D02*
X558915D01*
X557716Y177594D01*
Y179993D01*
X558915Y181193D01*
X561315D01*
X562514Y179993D01*
Y178793D01*
X557716D01*
X576910Y182392D02*
X575710Y183592D01*
X573311D01*
X572111Y182392D01*
Y181193D01*
X573311Y179993D01*
X575710D01*
X576910Y178793D01*
Y177594D01*
X575710Y176394D01*
X573311D01*
X572111Y177594D01*
X579309Y176394D02*
X581708D01*
X580508D01*
Y181193D01*
X579309D01*
X585307D02*
X590105D01*
X585307Y176394D01*
X590105D01*
X596103D02*
X593704D01*
X592505Y177594D01*
Y179993D01*
X593704Y181193D01*
X596103D01*
X597303Y179993D01*
Y178793D01*
X592505D01*
X484136Y182392D02*
X482936Y183592D01*
X480537D01*
X479338Y182392D01*
Y177594D01*
X480537Y176394D01*
X482936D01*
X484136Y177594D01*
X487735Y176394D02*
X490134D01*
X491334Y177594D01*
Y179993D01*
X490134Y181193D01*
X487735D01*
X486535Y179993D01*
Y177594D01*
X487735Y176394D01*
X493733Y181193D02*
Y177594D01*
X494933Y176394D01*
X498531D01*
Y181193D01*
X500931Y176394D02*
Y181193D01*
X504529D01*
X505729Y179993D01*
Y176394D01*
X509328Y182392D02*
Y181193D01*
X508128D01*
X510528D01*
X509328D01*
Y177594D01*
X510528Y176394D01*
X433548Y182392D02*
X432349Y183592D01*
X429950D01*
X428750Y182392D01*
Y181193D01*
X429950Y179993D01*
X432349D01*
X433548Y178793D01*
Y177594D01*
X432349Y176394D01*
X429950D01*
X428750Y177594D01*
X435948Y181193D02*
Y177594D01*
X437147Y176394D01*
X440746D01*
Y175195D01*
X439546Y173995D01*
X438347D01*
X440746Y176394D02*
Y181193D01*
X443145Y176394D02*
Y181193D01*
X444345D01*
X445545Y179993D01*
Y176394D01*
Y179993D01*
X446744Y181193D01*
X447944Y179993D01*
Y176394D01*
X450343Y183592D02*
Y176394D01*
X453942D01*
X455141Y177594D01*
Y178793D01*
Y179993D01*
X453942Y181193D01*
X450343D01*
X458740Y176394D02*
X461139D01*
X462339Y177594D01*
Y179993D01*
X461139Y181193D01*
X458740D01*
X457541Y179993D01*
Y177594D01*
X458740Y176394D01*
X464738D02*
X467138D01*
X465938D01*
Y183592D01*
X464738D01*
G54D126*
X419750Y171894D02*
X1880933D01*
X419750Y21894D02*
X1880933D01*
X419750Y6894D02*
X1880933D01*
Y186894D01*
X419750D02*
X1880933D01*
X419750Y6894D02*
Y186894D01*
X1740673Y6894D02*
Y186894D01*
X1631705Y6894D02*
Y186894D01*
X1498344Y6894D02*
Y186894D01*
X1364983Y6894D02*
Y186894D01*
X1279607Y6894D02*
Y186894D01*
X1088665Y6894D02*
Y186894D01*
X979697Y6894D02*
Y186894D01*
X920712Y6894D02*
Y186894D01*
X770757Y6894D02*
Y186894D01*
X697377Y6894D02*
Y186894D01*
X646789Y6894D02*
Y186894D01*
X532822Y6894D02*
Y186894D01*
X474838Y6894D02*
Y186894D01*
G54D214*
X279100Y174500D02*
G03*
X279100Y174500I-600J0D01*
G01*
X279500D02*
G03*
X279500Y174500I-1000J0D01*
G01*
X287600Y193000D02*
G03*
X287600Y193000I-600J0D01*
G01*
X288000D02*
G03*
X288000Y193000I-1000J0D01*
G01*
X321600Y174000D02*
G03*
X321600Y174000I-600J0D01*
G01*
X322000D02*
G03*
X322000Y174000I-1000J0D01*
G01*
X319100Y175000D02*
G03*
X319100Y175000I-600J0D01*
G01*
X319500D02*
G03*
X319500Y175000I-1000J0D01*
G01*
X316100D02*
G03*
X316100Y175000I-600J0D01*
G01*
X316500D02*
G03*
X316500Y175000I-1000J0D01*
G01*
X327600Y180000D02*
G03*
X327600Y180000I-600J0D01*
G01*
X328000D02*
G03*
X328000Y180000I-1000J0D01*
G01*
X324100Y174000D02*
G03*
X324100Y174000I-600J0D01*
G01*
X324500D02*
G03*
X324500Y174000I-1000J0D01*
G01*
X324100Y176500D02*
G03*
X324100Y176500I-600J0D01*
G01*
X324500D02*
G03*
X324500Y176500I-1000J0D01*
G01*
X321600D02*
G03*
X321600Y176500I-600J0D01*
G01*
X322000D02*
G03*
X322000Y176500I-1000J0D01*
G01*
X287600Y180000D02*
G03*
X287600Y180000I-600J0D01*
G01*
X288000D02*
G03*
X288000Y180000I-1000J0D01*
G01*
X208100Y46000D02*
G03*
X208100Y46000I-600J0D01*
G01*
X208500D02*
G03*
X208500Y46000I-1000J0D01*
G01*
X197600D02*
G03*
X197600Y46000I-600J0D01*
G01*
X198000D02*
G03*
X198000Y46000I-1000J0D01*
G01*
X208100Y42000D02*
G03*
X208100Y42000I-600J0D01*
G01*
X208500D02*
G03*
X208500Y42000I-1000J0D01*
G01*
X189100D02*
G03*
X189100Y42000I-600J0D01*
G01*
X189500D02*
G03*
X189500Y42000I-1000J0D01*
G01*
X227600Y82000D02*
G03*
X227600Y82000I-600J0D01*
G01*
X228000D02*
G03*
X228000Y82000I-1000J0D01*
G01*
X236100D02*
G03*
X236100Y82000I-600J0D01*
G01*
X236500D02*
G03*
X236500Y82000I-1000J0D01*
G01*
X249100Y71000D02*
G03*
X249100Y71000I-600J0D01*
G01*
X249500D02*
G03*
X249500Y71000I-1000J0D01*
G01*
X238600Y91500D02*
G03*
X238600Y91500I-600J0D01*
G01*
X239000D02*
G03*
X239000Y91500I-1000J0D01*
G01*
X373600Y104000D02*
G03*
X373600Y104000I-600J0D01*
G01*
X374000D02*
G03*
X374000Y104000I-1000J0D01*
G01*
X378600Y89000D02*
G03*
X378600Y89000I-600J0D01*
G01*
X379000D02*
G03*
X379000Y89000I-1000J0D01*
G01*
X298100Y119500D02*
G03*
X298100Y119500I-600J0D01*
G01*
X298500D02*
G03*
X298500Y119500I-1000J0D01*
G01*
X314600D02*
G03*
X314600Y119500I-600J0D01*
G01*
X315000D02*
G03*
X315000Y119500I-1000J0D01*
G01*
X235600Y190000D02*
G03*
X235600Y190000I-600J0D01*
G01*
X236000D02*
G03*
X236000Y190000I-1000J0D01*
G01*
X71100Y169000D02*
G03*
X71100Y169000I-600J0D01*
G01*
X71500D02*
G03*
X71500Y169000I-1000J0D01*
G01*
X54100Y170500D02*
G03*
X54100Y170500I-600J0D01*
G01*
X54500D02*
G03*
X54500Y170500I-1000J0D01*
G01*
X71100Y154000D02*
G03*
X71100Y154000I-600J0D01*
G01*
X71500D02*
G03*
X71500Y154000I-1000J0D01*
G01*
X89100Y89000D02*
G03*
X89100Y89000I-600J0D01*
G01*
X89500D02*
G03*
X89500Y89000I-1000J0D01*
G01*
X260100Y167500D02*
G03*
X260100Y167500I-600J0D01*
G01*
X260500D02*
G03*
X260500Y167500I-1000J0D01*
G01*
X347100Y131500D02*
G03*
X347100Y131500I-600J0D01*
G01*
X347500D02*
G03*
X347500Y131500I-1000J0D01*
G01*
X357100Y109000D02*
G03*
X357100Y109000I-600J0D01*
G01*
X357500D02*
G03*
X357500Y109000I-1000J0D01*
G01*
X310100Y136382D02*
G03*
X310100Y136382I-600J0D01*
G01*
X310500D02*
G03*
X310500Y136382I-1000J0D01*
G01*
X288765Y145000D02*
G03*
X288765Y145000I-600J0D01*
G01*
X289165D02*
G03*
X289165Y145000I-1000J0D01*
G01*
X180600Y134500D02*
G03*
X180600Y134500I-600J0D01*
G01*
X181000D02*
G03*
X181000Y134500I-1000J0D01*
G01*
X205600Y140500D02*
G03*
X205600Y140500I-600J0D01*
G01*
X206000D02*
G03*
X206000Y140500I-1000J0D01*
G01*
X203100D02*
G03*
X203100Y140500I-600J0D01*
G01*
X203500D02*
G03*
X203500Y140500I-1000J0D01*
G01*
X266600Y118000D02*
G03*
X266600Y118000I-600J0D01*
G01*
X267000D02*
G03*
X267000Y118000I-1000J0D01*
G01*
X201100Y171000D02*
G03*
X201100Y171000I-600J0D01*
G01*
X201500D02*
G03*
X201500Y171000I-1000J0D01*
G01*
X261100Y118000D02*
G03*
X261100Y118000I-600J0D01*
G01*
X261500D02*
G03*
X261500Y118000I-1000J0D01*
G01*
X239600Y149500D02*
G03*
X239600Y149500I-600J0D01*
G01*
X240000D02*
G03*
X240000Y149500I-1000J0D01*
G01*
X242600Y128000D02*
G03*
X242600Y128000I-600J0D01*
G01*
X243000D02*
G03*
X243000Y128000I-1000J0D01*
G01*
X225100Y155000D02*
G03*
X225100Y155000I-600J0D01*
G01*
X225500D02*
G03*
X225500Y155000I-1000J0D01*
G01*
X254600Y127500D02*
G03*
X254600Y127500I-600J0D01*
G01*
X255000D02*
G03*
X255000Y127500I-1000J0D01*
G01*
X260100Y79500D02*
G03*
X260100Y79500I-600J0D01*
G01*
X260500D02*
G03*
X260500Y79500I-1000J0D01*
G01*
X260600Y83500D02*
G03*
X260600Y83500I-600J0D01*
G01*
X261000D02*
G03*
X261000Y83500I-1000J0D01*
G01*
X286600Y74500D02*
G03*
X286600Y74500I-600J0D01*
G01*
X287000D02*
G03*
X287000Y74500I-1000J0D01*
G01*
X250100Y159000D02*
G03*
X250100Y159000I-600J0D01*
G01*
X250500D02*
G03*
X250500Y159000I-1000J0D01*
G01*
X266600Y109500D02*
G03*
X266600Y109500I-600J0D01*
G01*
X267000D02*
G03*
X267000Y109500I-1000J0D01*
G01*
X267600Y97000D02*
G03*
X267600Y97000I-600J0D01*
G01*
X268000D02*
G03*
X268000Y97000I-1000J0D01*
G01*
X250600Y93000D02*
G03*
X250600Y93000I-600J0D01*
G01*
X251000D02*
G03*
X251000Y93000I-1000J0D01*
G01*
X247100D02*
G03*
X247100Y93000I-600J0D01*
G01*
X247500D02*
G03*
X247500Y93000I-1000J0D01*
G01*
X297600Y65000D02*
G03*
X297600Y65000I-600J0D01*
G01*
X298000D02*
G03*
X298000Y65000I-1000J0D01*
G01*
X297600Y62432D02*
G03*
X297600Y62432I-600J0D01*
G01*
X298000D02*
G03*
X298000Y62432I-1000J0D01*
G01*
X297600Y59863D02*
G03*
X297600Y59863I-600J0D01*
G01*
X298000D02*
G03*
X298000Y59863I-1000J0D01*
G01*
X297600Y57294D02*
G03*
X297600Y57294I-600J0D01*
G01*
X298000D02*
G03*
X298000Y57294I-1000J0D01*
G01*
X271100Y94000D02*
G03*
X271100Y94000I-600J0D01*
G01*
X271500D02*
G03*
X271500Y94000I-1000J0D01*
G01*
X277100Y124500D02*
G03*
X277100Y124500I-600J0D01*
G01*
X277500D02*
G03*
X277500Y124500I-1000J0D01*
G01*
X314600D02*
G03*
X314600Y124500I-600J0D01*
G01*
X315000D02*
G03*
X315000Y124500I-1000J0D01*
G01*
X312100Y114000D02*
G03*
X312100Y114000I-600J0D01*
G01*
X312500D02*
G03*
X312500Y114000I-1000J0D01*
G01*
X240600Y97500D02*
G03*
X240600Y97500I-600J0D01*
G01*
X241000D02*
G03*
X241000Y97500I-1000J0D01*
G01*
X297100Y69500D02*
G03*
X297100Y69500I-600J0D01*
G01*
X297500D02*
G03*
X297500Y69500I-1000J0D01*
G01*
X274600D02*
G03*
X274600Y69500I-600J0D01*
G01*
X275000D02*
G03*
X275000Y69500I-1000J0D01*
G01*
X277100Y67000D02*
G03*
X277100Y67000I-600J0D01*
G01*
X277500D02*
G03*
X277500Y67000I-1000J0D01*
G01*
X302100D02*
G03*
X302100Y67000I-600J0D01*
G01*
X302500D02*
G03*
X302500Y67000I-1000J0D01*
G01*
X234100Y104000D02*
G03*
X234100Y104000I-600J0D01*
G01*
X234500D02*
G03*
X234500Y104000I-1000J0D01*
G01*
X244100Y105500D02*
G03*
X244100Y105500I-600J0D01*
G01*
X244500D02*
G03*
X244500Y105500I-1000J0D01*
G01*
X258600Y123500D02*
G03*
X258600Y123500I-600J0D01*
G01*
X259000D02*
G03*
X259000Y123500I-1000J0D01*
G01*
X231100Y99000D02*
G03*
X231100Y99000I-600J0D01*
G01*
X231500D02*
G03*
X231500Y99000I-1000J0D01*
G01*
X258600Y127500D02*
G03*
X258600Y127500I-600J0D01*
G01*
X259000D02*
G03*
X259000Y127500I-1000J0D01*
G01*
X236600Y101500D02*
G03*
X236600Y101500I-600J0D01*
G01*
X237000D02*
G03*
X237000Y101500I-1000J0D01*
G01*
X245653Y102500D02*
G03*
X245653Y102500I-600J0D01*
G01*
X246053D02*
G03*
X246053Y102500I-1000J0D01*
G01*
X248221D02*
G03*
X248221Y102500I-600J0D01*
G01*
X248621D02*
G03*
X248621Y102500I-1000J0D01*
G01*
X250790D02*
G03*
X250790Y102500I-600J0D01*
G01*
X251190D02*
G03*
X251190Y102500I-1000J0D01*
G01*
X253358D02*
G03*
X253358Y102500I-600J0D01*
G01*
X253758D02*
G03*
X253758Y102500I-1000J0D01*
G01*
X256600Y111500D02*
G03*
X256600Y111500I-600J0D01*
G01*
X257000D02*
G03*
X257000Y111500I-1000J0D01*
G01*
X200577D02*
G03*
X200577Y111500I-600J0D01*
G01*
X200977D02*
G03*
X200977Y111500I-1000J0D01*
G01*
X219600Y111000D02*
G03*
X219600Y111000I-600J0D01*
G01*
X220000D02*
G03*
X220000Y111000I-1000J0D01*
G01*
X221100Y116500D02*
G03*
X221100Y116500I-600J0D01*
G01*
X221500D02*
G03*
X221500Y116500I-1000J0D01*
G01*
X188600Y194500D02*
G03*
X188600Y194500I-600J0D01*
G01*
X189000D02*
G03*
X189000Y194500I-1000J0D01*
G01*
X188600Y191000D02*
G03*
X188600Y191000I-600J0D01*
G01*
X189000D02*
G03*
X189000Y191000I-1000J0D01*
G01*
X185100Y198000D02*
G03*
X185100Y198000I-600J0D01*
G01*
X185500D02*
G03*
X185500Y198000I-1000J0D01*
G01*
X182100Y197000D02*
G03*
X182100Y197000I-600J0D01*
G01*
X182500D02*
G03*
X182500Y197000I-1000J0D01*
G01*
X127100Y174000D02*
G03*
X127100Y174000I-600J0D01*
G01*
X127500D02*
G03*
X127500Y174000I-1000J0D01*
G01*
X144100Y166000D02*
G03*
X144100Y166000I-600J0D01*
G01*
X144500D02*
G03*
X144500Y166000I-1000J0D01*
G01*
X155600Y160500D02*
G03*
X155600Y160500I-600J0D01*
G01*
X156000D02*
G03*
X156000Y160500I-1000J0D01*
G01*
X224600Y166500D02*
G03*
X224600Y166500I-600J0D01*
G01*
X225000D02*
G03*
X225000Y166500I-1000J0D01*
G01*
X98600Y136000D02*
G03*
X98600Y136000I-600J0D01*
G01*
X99000D02*
G03*
X99000Y136000I-1000J0D01*
G01*
X107100Y125500D02*
G03*
X107100Y125500I-600J0D01*
G01*
X107500D02*
G03*
X107500Y125500I-1000J0D01*
G01*
X105100Y155000D02*
G03*
X105100Y155000I-600J0D01*
G01*
X105500D02*
G03*
X105500Y155000I-1000J0D01*
G01*
X189100Y110500D02*
G03*
X189100Y110500I-600J0D01*
G01*
X189500D02*
G03*
X189500Y110500I-1000J0D01*
G01*
X219100Y146000D02*
G03*
X219100Y146000I-600J0D01*
G01*
X219500D02*
G03*
X219500Y146000I-1000J0D01*
G01*
X228600Y129500D02*
G03*
X228600Y129500I-600J0D01*
G01*
X229000D02*
G03*
X229000Y129500I-1000J0D01*
G01*
X216100Y95500D02*
G03*
X216100Y95500I-600J0D01*
G01*
X216500D02*
G03*
X216500Y95500I-1000J0D01*
G01*
X230600D02*
G03*
X230600Y95500I-600J0D01*
G01*
X231000D02*
G03*
X231000Y95500I-1000J0D01*
G01*
X290100Y121000D02*
G03*
X290100Y121000I-600J0D01*
G01*
X290500D02*
G03*
X290500Y121000I-1000J0D01*
G01*
X255100Y149000D02*
G03*
X255100Y149000I-600J0D01*
G01*
X255500D02*
G03*
X255500Y149000I-1000J0D01*
G01*
X272100Y88000D02*
G03*
X272100Y88000I-600J0D01*
G01*
X272500D02*
G03*
X272500Y88000I-1000J0D01*
G01*
X376600Y53000D02*
G03*
X376600Y53000I-600J0D01*
G01*
X377000D02*
G03*
X377000Y53000I-1000J0D01*
G01*
X296600Y76000D02*
G03*
X296600Y76000I-600J0D01*
G01*
X297000D02*
G03*
X297000Y76000I-1000J0D01*
G01*
X224600Y46500D02*
G03*
X224600Y46500I-600J0D01*
G01*
X225000D02*
G03*
X225000Y46500I-1000J0D01*
G01*
X266600Y52500D02*
G03*
X266600Y52500I-600J0D01*
G01*
X267000D02*
G03*
X267000Y52500I-1000J0D01*
G01*
X308600Y71000D02*
G03*
X308600Y71000I-600J0D01*
G01*
X309000D02*
G03*
X309000Y71000I-1000J0D01*
G01*
X386600Y99000D02*
G03*
X386600Y99000I-600J0D01*
G01*
X387000D02*
G03*
X387000Y99000I-1000J0D01*
G01*
X308600Y89500D02*
G03*
X308600Y89500I-600J0D01*
G01*
X309000D02*
G03*
X309000Y89500I-1000J0D01*
G01*
X220600Y96500D02*
G03*
X220600Y96500I-600J0D01*
G01*
X221000D02*
G03*
X221000Y96500I-1000J0D01*
G01*
X205600Y172000D02*
G03*
X205600Y172000I-600J0D01*
G01*
X206000D02*
G03*
X206000Y172000I-1000J0D01*
G01*
X242100Y197500D02*
G03*
X242100Y197500I-600J0D01*
G01*
X242500D02*
G03*
X242500Y197500I-1000J0D01*
G01*
X208100Y194500D02*
G03*
X208100Y194500I-600J0D01*
G01*
X208500D02*
G03*
X208500Y194500I-1000J0D01*
G01*
X233100Y187500D02*
G03*
X233100Y187500I-600J0D01*
G01*
X233500D02*
G03*
X233500Y187500I-1000J0D01*
G01*
X182524Y136424D02*
G03*
X182524Y136424I-600J0D01*
G01*
X182924D02*
G03*
X182924Y136424I-1000J0D01*
G01*
X212100Y118500D02*
G03*
X212100Y118500I-600J0D01*
G01*
X212500D02*
G03*
X212500Y118500I-1000J0D01*
G01*
X199550Y132550D02*
G03*
X199550Y132550I-600J0D01*
G01*
X199950D02*
G03*
X199950Y132550I-1000J0D01*
G01*
X199061Y129539D02*
G03*
X199061Y129539I-600J0D01*
G01*
X199461D02*
G03*
X199461Y129539I-1000J0D01*
G01*
X199594Y126006D02*
G03*
X199594Y126006I-600J0D01*
G01*
X199994D02*
G03*
X199994Y126006I-1000J0D01*
G01*
X194600Y128000D02*
G03*
X194600Y128000I-600J0D01*
G01*
X195000D02*
G03*
X195000Y128000I-1000J0D01*
G01*
X194600Y124500D02*
G03*
X194600Y124500I-600J0D01*
G01*
X195000D02*
G03*
X195000Y124500I-1000J0D01*
G01*
X196884Y115000D02*
G03*
X196884Y115000I-600J0D01*
G01*
X197284D02*
G03*
X197284Y115000I-1000J0D01*
G01*
X194600Y121500D02*
G03*
X194600Y121500I-600J0D01*
G01*
X195000D02*
G03*
X195000Y121500I-1000J0D01*
G01*
X229600Y85000D02*
G03*
X229600Y85000I-600J0D01*
G01*
X230000D02*
G03*
X230000Y85000I-1000J0D01*
G01*
X350100Y45500D02*
G03*
X350100Y45500I-600J0D01*
G01*
X350500D02*
G03*
X350500Y45500I-1000J0D01*
G01*
X246600Y128000D02*
G03*
X246600Y128000I-600J0D01*
G01*
X247000D02*
G03*
X247000Y128000I-1000J0D01*
G01*
X165600Y179632D02*
G03*
X165600Y179632I-600J0D01*
G01*
X166000D02*
G03*
X166000Y179632I-1000J0D01*
G01*
X274100Y85500D02*
G03*
X274100Y85500I-600J0D01*
G01*
X274500D02*
G03*
X274500Y85500I-1000J0D01*
G01*
X286146Y91046D02*
G03*
X286146Y91046I-600J0D01*
G01*
X286546D02*
G03*
X286546Y91046I-1000J0D01*
G01*
X275646Y119546D02*
G03*
X275646Y119546I-600J0D01*
G01*
X276046D02*
G03*
X276046Y119546I-1000J0D01*
G01*
X235600Y149500D02*
G03*
X235600Y149500I-600J0D01*
G01*
X236000D02*
G03*
X236000Y149500I-1000J0D01*
G01*
X241600Y175500D02*
G03*
X241600Y175500I-600J0D01*
G01*
X242000D02*
G03*
X242000Y175500I-1000J0D01*
G01*
X229100Y135500D02*
G03*
X229100Y135500I-600J0D01*
G01*
X229500D02*
G03*
X229500Y135500I-1000J0D01*
G01*
X208100Y145500D02*
G03*
X208100Y145500I-600J0D01*
G01*
X208500D02*
G03*
X208500Y145500I-1000J0D01*
G01*
X213100Y166000D02*
G03*
X213100Y166000I-600J0D01*
G01*
X213500D02*
G03*
X213500Y166000I-1000J0D01*
G01*
X220100Y174500D02*
G03*
X220100Y174500I-600J0D01*
G01*
X220500D02*
G03*
X220500Y174500I-1000J0D01*
G01*
X224100Y175500D02*
G03*
X224100Y175500I-600J0D01*
G01*
X224500D02*
G03*
X224500Y175500I-1000J0D01*
G01*
X283195Y133500D02*
G03*
X283195Y133500I-600J0D01*
G01*
X283595D02*
G03*
X283595Y133500I-1000J0D01*
G01*
X279600D02*
G03*
X279600Y133500I-600J0D01*
G01*
X280000D02*
G03*
X280000Y133500I-1000J0D01*
G01*
X269600Y133000D02*
G03*
X269600Y133000I-600J0D01*
G01*
X270000D02*
G03*
X270000Y133000I-1000J0D01*
G01*
X223600Y127000D02*
G03*
X223600Y127000I-600J0D01*
G01*
X224000D02*
G03*
X224000Y127000I-1000J0D01*
G01*
X303100Y107000D02*
G03*
X303100Y107000I-600J0D01*
G01*
X303500D02*
G03*
X303500Y107000I-1000J0D01*
G01*
X292100Y103000D02*
G03*
X292100Y103000I-600J0D01*
G01*
X292500D02*
G03*
X292500Y103000I-1000J0D01*
G01*
X268100Y74500D02*
G03*
X268100Y74500I-600J0D01*
G01*
X268500D02*
G03*
X268500Y74500I-1000J0D01*
G01*
X263100Y60500D02*
G03*
X263100Y60500I-600J0D01*
G01*
X263500D02*
G03*
X263500Y60500I-1000J0D01*
G01*
X238600Y58000D02*
G03*
X238600Y58000I-600J0D01*
G01*
X239000D02*
G03*
X239000Y58000I-1000J0D01*
G01*
X238100Y43500D02*
G03*
X238100Y43500I-600J0D01*
G01*
X238500D02*
G03*
X238500Y43500I-1000J0D01*
G01*
X213100Y20000D02*
G03*
X213100Y20000I-600J0D01*
G01*
X213500D02*
G03*
X213500Y20000I-1000J0D01*
G01*
X266100Y19500D02*
G03*
X266100Y19500I-600J0D01*
G01*
X266500D02*
G03*
X266500Y19500I-1000J0D01*
G01*
X335100D02*
G03*
X335100Y19500I-600J0D01*
G01*
X335500D02*
G03*
X335500Y19500I-1000J0D01*
G01*
X278100Y19000D02*
G03*
X278100Y19000I-600J0D01*
G01*
X278500D02*
G03*
X278500Y19000I-1000J0D01*
G01*
X344600Y18500D02*
G03*
X344600Y18500I-600J0D01*
G01*
X345000D02*
G03*
X345000Y18500I-1000J0D01*
G01*
X302600Y20000D02*
G03*
X302600Y20000I-600J0D01*
G01*
X303000D02*
G03*
X303000Y20000I-1000J0D01*
G01*
X202100Y20500D02*
G03*
X202100Y20500I-600J0D01*
G01*
X202500D02*
G03*
X202500Y20500I-1000J0D01*
G01*
X223100Y65000D02*
G03*
X223100Y65000I-600J0D01*
G01*
X223500D02*
G03*
X223500Y65000I-1000J0D01*
G01*
X203600Y105000D02*
G03*
X203600Y105000I-600J0D01*
G01*
X204000D02*
G03*
X204000Y105000I-1000J0D01*
G01*
X181100Y116000D02*
G03*
X181100Y116000I-600J0D01*
G01*
X181500D02*
G03*
X181500Y116000I-1000J0D01*
G01*
X184600Y116500D02*
G03*
X184600Y116500I-600J0D01*
G01*
X185000D02*
G03*
X185000Y116500I-1000J0D01*
G01*
X317100Y222500D02*
G03*
X317100Y222500I-600J0D01*
G01*
X317500D02*
G03*
X317500Y222500I-1000J0D01*
G01*
X269100Y219500D02*
G03*
X269100Y219500I-600J0D01*
G01*
X269500D02*
G03*
X269500Y219500I-1000J0D01*
G01*
X215600Y241000D02*
G03*
X215600Y241000I-600J0D01*
G01*
X216000D02*
G03*
X216000Y241000I-1000J0D01*
G01*
X321600Y235500D02*
G03*
X321600Y235500I-600J0D01*
G01*
X322000D02*
G03*
X322000Y235500I-1000J0D01*
G01*
X377100Y229000D02*
G03*
X377100Y229000I-600J0D01*
G01*
X377500D02*
G03*
X377500Y229000I-1000J0D01*
G01*
X374600Y209000D02*
G03*
X374600Y209000I-600J0D01*
G01*
X375000D02*
G03*
X375000Y209000I-1000J0D01*
G01*
X384100Y183500D02*
G03*
X384100Y183500I-600J0D01*
G01*
X384500D02*
G03*
X384500Y183500I-1000J0D01*
G01*
X383100Y173000D02*
G03*
X383100Y173000I-600J0D01*
G01*
X383500D02*
G03*
X383500Y173000I-1000J0D01*
G01*
X390100Y130000D02*
G03*
X390100Y130000I-600J0D01*
G01*
X390500D02*
G03*
X390500Y130000I-1000J0D01*
G01*
X390100Y141000D02*
G03*
X390100Y141000I-600J0D01*
G01*
X390500D02*
G03*
X390500Y141000I-1000J0D01*
G01*
X395600Y100000D02*
G03*
X395600Y100000I-600J0D01*
G01*
X396000D02*
G03*
X396000Y100000I-1000J0D01*
G01*
X99600Y11500D02*
G03*
X99600Y11500I-600J0D01*
G01*
X100000D02*
G03*
X100000Y11500I-1000J0D01*
G01*
X93100D02*
G03*
X93100Y11500I-600J0D01*
G01*
X93500D02*
G03*
X93500Y11500I-1000J0D01*
G01*
X60600Y111500D02*
G03*
X60600Y111500I-600J0D01*
G01*
X61000D02*
G03*
X61000Y111500I-1000J0D01*
G01*
X25100Y195000D02*
G03*
X25100Y195000I-600J0D01*
G01*
X25500D02*
G03*
X25500Y195000I-1000J0D01*
G01*
X74600Y206000D02*
G03*
X74600Y206000I-600J0D01*
G01*
X75000D02*
G03*
X75000Y206000I-1000J0D01*
G01*
X81600Y227000D02*
G03*
X81600Y227000I-600J0D01*
G01*
X82000D02*
G03*
X82000Y227000I-1000J0D01*
G01*
X186100Y90000D02*
G03*
X186100Y90000I-600J0D01*
G01*
X186500D02*
G03*
X186500Y90000I-1000J0D01*
G01*
X221600Y150000D02*
G03*
X221600Y150000I-600J0D01*
G01*
X222000D02*
G03*
X222000Y150000I-1000J0D01*
G01*
X267100Y168500D02*
G03*
X267100Y168500I-600J0D01*
G01*
X267500D02*
G03*
X267500Y168500I-1000J0D01*
G01*
X270600Y146500D02*
G03*
X270600Y146500I-600J0D01*
G01*
X271000D02*
G03*
X271000Y146500I-1000J0D01*
G01*
X302100Y189500D02*
G03*
X302100Y189500I-600J0D01*
G01*
X302500D02*
G03*
X302500Y189500I-1000J0D01*
G01*
X305100D02*
G03*
X305100Y189500I-600J0D01*
G01*
X305500D02*
G03*
X305500Y189500I-1000J0D01*
G01*
X308100D02*
G03*
X308100Y189500I-600J0D01*
G01*
X308500D02*
G03*
X308500Y189500I-1000J0D01*
G01*
X308100Y185500D02*
G03*
X308100Y185500I-600J0D01*
G01*
X308500D02*
G03*
X308500Y185500I-1000J0D01*
G01*
X305100D02*
G03*
X305100Y185500I-600J0D01*
G01*
X305500D02*
G03*
X305500Y185500I-1000J0D01*
G01*
X302100D02*
G03*
X302100Y185500I-600J0D01*
G01*
X302500D02*
G03*
X302500Y185500I-1000J0D01*
G01*
X302600Y213000D02*
G03*
X302600Y213000I-600J0D01*
G01*
X303000D02*
G03*
X303000Y213000I-1000J0D01*
G01*
X321600Y213500D02*
G03*
X321600Y213500I-600J0D01*
G01*
X322000D02*
G03*
X322000Y213500I-1000J0D01*
G01*
X313100Y214000D02*
G03*
X313100Y214000I-600J0D01*
G01*
X313500D02*
G03*
X313500Y214000I-1000J0D01*
G01*
X302100Y182500D02*
G03*
X302100Y182500I-600J0D01*
G01*
X302500D02*
G03*
X302500Y182500I-1000J0D01*
G01*
X305100D02*
G03*
X305100Y182500I-600J0D01*
G01*
X305500D02*
G03*
X305500Y182500I-1000J0D01*
G01*
X308100D02*
G03*
X308100Y182500I-600J0D01*
G01*
X308500D02*
G03*
X308500Y182500I-1000J0D01*
G01*
X334100Y175500D02*
G03*
X334100Y175500I-600J0D01*
G01*
X334500D02*
G03*
X334500Y175500I-1000J0D01*
G01*
X333600Y187500D02*
G03*
X333600Y187500I-600J0D01*
G01*
X334000D02*
G03*
X334000Y187500I-1000J0D01*
G01*
X335100Y201500D02*
G03*
X335100Y201500I-600J0D01*
G01*
X335500D02*
G03*
X335500Y201500I-1000J0D01*
G01*
X302100Y98000D02*
G03*
X302100Y98000I-600J0D01*
G01*
X302500D02*
G03*
X302500Y98000I-1000J0D01*
G01*
X304100Y84000D02*
G03*
X304100Y84000I-600J0D01*
G01*
X304500D02*
G03*
X304500Y84000I-1000J0D01*
G01*
X227600Y68000D02*
G03*
X227600Y68000I-600J0D01*
G01*
X228000D02*
G03*
X228000Y68000I-1000J0D01*
G01*
X258600Y69000D02*
G03*
X258600Y69000I-600J0D01*
G01*
X259000D02*
G03*
X259000Y69000I-1000J0D01*
G01*
X386600Y24500D02*
G03*
X386600Y24500I-600J0D01*
G01*
X387000D02*
G03*
X387000Y24500I-1000J0D01*
G01*
X155100Y187691D02*
G03*
X155100Y187691I-600J0D01*
G01*
X155500D02*
G03*
X155500Y187691I-1000J0D01*
G01*
X166600Y187500D02*
G03*
X166600Y187500I-600J0D01*
G01*
X167000D02*
G03*
X167000Y187500I-1000J0D01*
G01*
X172600Y185000D02*
G03*
X172600Y185000I-600J0D01*
G01*
X173000D02*
G03*
X173000Y185000I-1000J0D01*
G01*
X175600Y182500D02*
G03*
X175600Y182500I-600J0D01*
G01*
X176000D02*
G03*
X176000Y182500I-1000J0D01*
G01*
X107100Y78000D02*
G03*
X107100Y78000I-600J0D01*
G01*
X107500D02*
G03*
X107500Y78000I-1000J0D01*
G01*
X104100Y119000D02*
G03*
X104100Y119000I-600J0D01*
G01*
X104500D02*
G03*
X104500Y119000I-1000J0D01*
G01*
X43100Y181500D02*
G03*
X43100Y181500I-600J0D01*
G01*
X43500D02*
G03*
X43500Y181500I-1000J0D01*
G01*
X37100D02*
G03*
X37100Y181500I-600J0D01*
G01*
X37500D02*
G03*
X37500Y181500I-1000J0D01*
G01*
X34100Y177500D02*
G03*
X34100Y177500I-600J0D01*
G01*
X34500D02*
G03*
X34500Y177500I-1000J0D01*
G01*
X44600Y172500D02*
G03*
X44600Y172500I-600J0D01*
G01*
X45000D02*
G03*
X45000Y172500I-1000J0D01*
G01*
X36100Y172000D02*
G03*
X36100Y172000I-600J0D01*
G01*
X36500D02*
G03*
X36500Y172000I-1000J0D01*
G01*
X40600Y170415D02*
G03*
X40600Y170415I-600J0D01*
G01*
X41000D02*
G03*
X41000Y170415I-1000J0D01*
G01*
X273500Y196650D02*
G03*
X273500Y196650I-1000J0D01*
G01*
X300500Y152500D02*
G03*
X300500Y152500I-1000J0D01*
G01*
X20500Y176500D02*
G03*
X20500Y176500I-1000J0D01*
G01*
Y122750D02*
G03*
X20500Y122750I-1000J0D01*
G01*
Y69000D02*
G03*
X20500Y69000I-1000J0D01*
G01*
X68900Y187650D02*
X70100D01*
Y188850D01*
X68900D02*
X70100D01*
X68900Y187650D02*
Y188850D01*
X68500Y187250D02*
X70500D01*
Y189250D01*
X68500D02*
X70500D01*
X68500Y187250D02*
Y189250D01*
X68900Y192025D02*
X70100D01*
Y193225D01*
X68900D02*
X70100D01*
X68900Y192025D02*
Y193225D01*
X68500Y191625D02*
X70500D01*
Y193625D01*
X68500D02*
X70500D01*
X68500Y191625D02*
Y193625D01*
X68900Y178900D02*
X70100D01*
Y180100D01*
X68900D02*
X70100D01*
X68900Y178900D02*
Y180100D01*
X68500Y178500D02*
X70500D01*
Y180500D01*
X68500D02*
X70500D01*
X68500Y178500D02*
Y180500D01*
X68900Y183275D02*
X70100D01*
Y184475D01*
X68900D02*
X70100D01*
X68900Y183275D02*
Y184475D01*
X68500Y182875D02*
X70500D01*
Y184875D01*
X68500D02*
X70500D01*
X68500Y182875D02*
Y184875D01*
X68900Y196400D02*
X70100D01*
Y197600D01*
X68900D02*
X70100D01*
X68900Y196400D02*
Y197600D01*
X68500Y196000D02*
X70500D01*
Y198000D01*
X68500D02*
X70500D01*
X68500Y196000D02*
Y198000D01*
X78400Y196400D02*
X79600D01*
Y197600D01*
X78400D02*
X79600D01*
X78400Y196400D02*
Y197600D01*
X78000Y196000D02*
X80000D01*
Y198000D01*
X78000D02*
X80000D01*
X78000Y196000D02*
Y198000D01*
X73900Y196400D02*
X75100D01*
Y197600D01*
X73900D02*
X75100D01*
X73900Y196400D02*
Y197600D01*
X73500Y196000D02*
X75500D01*
Y198000D01*
X73500D02*
X75500D01*
X73500Y196000D02*
Y198000D01*
X78400Y191900D02*
X79600D01*
Y193100D01*
X78400D02*
X79600D01*
X78400Y191900D02*
Y193100D01*
X78000Y191500D02*
X80000D01*
Y193500D01*
X78000D02*
X80000D01*
X78000Y191500D02*
Y193500D01*
X73900Y187400D02*
X75100D01*
Y188600D01*
X73900D02*
X75100D01*
X73900Y187400D02*
Y188600D01*
X73500Y187000D02*
X75500D01*
Y189000D01*
X73500D02*
X75500D01*
X73500Y187000D02*
Y189000D01*
X47900Y209400D02*
X49100D01*
Y210600D01*
X47900D02*
X49100D01*
X47900Y209400D02*
Y210600D01*
X47500Y209000D02*
X49500D01*
Y211000D01*
X47500D02*
X49500D01*
X47500Y209000D02*
Y211000D01*
X51400Y209400D02*
X52600D01*
Y210600D01*
X51400D02*
X52600D01*
X51400Y209400D02*
Y210600D01*
X51000Y209000D02*
X53000D01*
Y211000D01*
X51000D02*
X53000D01*
X51000Y209000D02*
Y211000D01*
X54900Y209400D02*
X56100D01*
Y210600D01*
X54900D02*
X56100D01*
X54900Y209400D02*
Y210600D01*
X54500Y209000D02*
X56500D01*
Y211000D01*
X54500D02*
X56500D01*
X54500Y209000D02*
Y211000D01*
X214400Y209400D02*
X215600D01*
Y210600D01*
X214400D02*
X215600D01*
X214400Y209400D02*
Y210600D01*
X214000Y209000D02*
X216000D01*
Y211000D01*
X214000D02*
X216000D01*
X214000Y209000D02*
Y211000D01*
X221400Y209400D02*
X222600D01*
Y210600D01*
X221400D02*
X222600D01*
X221400Y209400D02*
Y210600D01*
X221000Y209000D02*
X223000D01*
Y211000D01*
X221000D02*
X223000D01*
X221000Y209000D02*
Y211000D01*
X217900Y209400D02*
X219100D01*
Y210600D01*
X217900D02*
X219100D01*
X217900Y209400D02*
Y210600D01*
X217500Y209000D02*
X219500D01*
Y211000D01*
X217500D02*
X219500D01*
X217500Y209000D02*
Y211000D01*
X96400Y66900D02*
X97600D01*
Y68100D01*
X96400D02*
X97600D01*
X96400Y66900D02*
Y68100D01*
X96000Y66500D02*
X98000D01*
Y68500D01*
X96000D02*
X98000D01*
X96000Y66500D02*
Y68500D01*
X93900Y63900D02*
X95100D01*
Y65100D01*
X93900D02*
X95100D01*
X93900Y63900D02*
Y65100D01*
X93500Y63500D02*
X95500D01*
Y65500D01*
X93500D02*
X95500D01*
X93500Y63500D02*
Y65500D01*
X97900Y63900D02*
X99100D01*
Y65100D01*
X97900D02*
X99100D01*
X97900Y63900D02*
Y65100D01*
X97500Y63500D02*
X99500D01*
Y65500D01*
X97500D02*
X99500D01*
X97500Y63500D02*
Y65500D01*
X96400Y60900D02*
X97600D01*
Y62100D01*
X96400D02*
X97600D01*
X96400Y60900D02*
Y62100D01*
X96000Y60500D02*
X98000D01*
Y62500D01*
X96000D02*
X98000D01*
X96000Y60500D02*
Y62500D01*
X99900Y60900D02*
X101100D01*
Y62100D01*
X99900D02*
X101100D01*
X99900Y60900D02*
Y62100D01*
X99500Y60500D02*
X101500D01*
Y62500D01*
X99500D02*
X101500D01*
X99500Y60500D02*
Y62500D01*
X55400Y204900D02*
X56600D01*
Y206100D01*
X55400D02*
X56600D01*
X55400Y204900D02*
Y206100D01*
X55000Y204500D02*
X57000D01*
Y206500D01*
X55000D02*
X57000D01*
X55000Y204500D02*
Y206500D01*
X51900Y205900D02*
X53100D01*
Y207100D01*
X51900D02*
X53100D01*
X51900Y205900D02*
Y207100D01*
X51500Y205500D02*
X53500D01*
Y207500D01*
X51500D02*
X53500D01*
X51500Y205500D02*
Y207500D01*
X48400Y205900D02*
X49600D01*
Y207100D01*
X48400D02*
X49600D01*
X48400Y205900D02*
Y207100D01*
X48000Y205500D02*
X50000D01*
Y207500D01*
X48000D02*
X50000D01*
X48000Y205500D02*
Y207500D01*
X151400Y205900D02*
X152600D01*
Y207100D01*
X151400D02*
X152600D01*
X151400Y205900D02*
Y207100D01*
X151000Y205500D02*
X153000D01*
Y207500D01*
X151000D02*
X153000D01*
X151000Y205500D02*
Y207500D01*
X161900Y209900D02*
X163100D01*
Y211100D01*
X161900D02*
X163100D01*
X161900Y209900D02*
Y211100D01*
X161500Y209500D02*
X163500D01*
Y211500D01*
X161500D02*
X163500D01*
X161500Y209500D02*
Y211500D01*
X158400Y209900D02*
X159600D01*
Y211100D01*
X158400D02*
X159600D01*
X158400Y209900D02*
Y211100D01*
X158000Y209500D02*
X160000D01*
Y211500D01*
X158000D02*
X160000D01*
X158000Y209500D02*
Y211500D01*
X154900Y209900D02*
X156100D01*
Y211100D01*
X154900D02*
X156100D01*
X154900Y209900D02*
Y211100D01*
X154500Y209500D02*
X156500D01*
Y211500D01*
X154500D02*
X156500D01*
X154500Y209500D02*
Y211500D01*
X151400Y209900D02*
X152600D01*
Y211100D01*
X151400D02*
X152600D01*
X151400Y209900D02*
Y211100D01*
X151000Y209500D02*
X153000D01*
Y211500D01*
X151000D02*
X153000D01*
X151000Y209500D02*
Y211500D01*
X154900Y205900D02*
X156100D01*
Y207100D01*
X154900D02*
X156100D01*
X154900Y205900D02*
Y207100D01*
X154500Y205500D02*
X156500D01*
Y207500D01*
X154500D02*
X156500D01*
X154500Y205500D02*
Y207500D01*
X210900Y207400D02*
X212100D01*
Y208600D01*
X210900D02*
X212100D01*
X210900Y207400D02*
Y208600D01*
X210500Y207000D02*
X212500D01*
Y209000D01*
X210500D02*
X212500D01*
X210500Y207000D02*
Y209000D01*
X8900Y239400D02*
X10100D01*
Y240600D01*
X8900D02*
X10100D01*
X8900Y239400D02*
Y240600D01*
X8500Y239000D02*
X10500D01*
Y241000D01*
X8500D02*
X10500D01*
X8500Y239000D02*
Y241000D01*
X247900Y209400D02*
X249100D01*
Y210600D01*
X247900D02*
X249100D01*
X247900Y209400D02*
Y210600D01*
X247500Y209000D02*
X249500D01*
Y211000D01*
X247500D02*
X249500D01*
X247500Y209000D02*
Y211000D01*
X99900Y143400D02*
X101100D01*
Y144600D01*
X99900D02*
X101100D01*
X99900Y143400D02*
Y144600D01*
X99500Y143000D02*
X101500D01*
Y145000D01*
X99500D02*
X101500D01*
X99500Y143000D02*
Y145000D01*
X96900Y185400D02*
X98100D01*
Y186600D01*
X96900D02*
X98100D01*
X96900Y185400D02*
Y186600D01*
X96500Y185000D02*
X98500D01*
Y187000D01*
X96500D02*
X98500D01*
X96500Y185000D02*
Y187000D01*
X103400Y185400D02*
X104600D01*
Y186600D01*
X103400D02*
X104600D01*
X103400Y185400D02*
Y186600D01*
X103000Y185000D02*
X105000D01*
Y187000D01*
X103000D02*
X105000D01*
X103000Y185000D02*
Y187000D01*
X93400Y189900D02*
X94600D01*
Y191100D01*
X93400D02*
X94600D01*
X93400Y189900D02*
Y191100D01*
X93000Y189500D02*
X95000D01*
Y191500D01*
X93000D02*
X95000D01*
X93000Y189500D02*
Y191500D01*
X89400Y192900D02*
X90600D01*
Y194100D01*
X89400D02*
X90600D01*
X89400Y192900D02*
Y194100D01*
X89000Y192500D02*
X91000D01*
Y194500D01*
X89000D02*
X91000D01*
X89000Y192500D02*
Y194500D01*
X99400Y191400D02*
X100600D01*
Y192600D01*
X99400D02*
X100600D01*
X99400Y191400D02*
Y192600D01*
X99000Y191000D02*
X101000D01*
Y193000D01*
X99000D02*
X101000D01*
X99000Y191000D02*
Y193000D01*
X105400Y191400D02*
X106600D01*
Y192600D01*
X105400D02*
X106600D01*
X105400Y191400D02*
Y192600D01*
X105000Y191000D02*
X107000D01*
Y193000D01*
X105000D02*
X107000D01*
X105000Y191000D02*
Y193000D01*
X95400Y193400D02*
X96600D01*
Y194600D01*
X95400D02*
X96600D01*
X95400Y193400D02*
Y194600D01*
X95000Y193000D02*
X97000D01*
Y195000D01*
X95000D02*
X97000D01*
X95000Y193000D02*
Y195000D01*
X189900Y154400D02*
X191100D01*
Y155600D01*
X189900D02*
X191100D01*
X189900Y154400D02*
Y155600D01*
X189500Y154000D02*
X191500D01*
Y156000D01*
X189500D02*
X191500D01*
X189500Y154000D02*
Y156000D01*
X247900Y184400D02*
X249100D01*
Y185600D01*
X247900D02*
X249100D01*
X247900Y184400D02*
Y185600D01*
X247500Y184000D02*
X249500D01*
Y186000D01*
X247500D02*
X249500D01*
X247500Y184000D02*
Y186000D01*
X254900Y179400D02*
X256100D01*
Y180600D01*
X254900D02*
X256100D01*
X254900Y179400D02*
Y180600D01*
X254500Y179000D02*
X256500D01*
Y181000D01*
X254500D02*
X256500D01*
X254500Y179000D02*
Y181000D01*
X51400Y141900D02*
X52600D01*
Y143100D01*
X51400D02*
X52600D01*
X51400Y141900D02*
Y143100D01*
X51000Y141500D02*
X53000D01*
Y143500D01*
X51000D02*
X53000D01*
X51000Y141500D02*
Y143500D01*
X51400Y133400D02*
X52600D01*
Y134600D01*
X51400D02*
X52600D01*
X51400Y133400D02*
Y134600D01*
X51000Y133000D02*
X53000D01*
Y135000D01*
X51000D02*
X53000D01*
X51000Y133000D02*
Y135000D01*
X52900Y112900D02*
X54100D01*
Y114100D01*
X52900D02*
X54100D01*
X52900Y112900D02*
Y114100D01*
X52500Y112500D02*
X54500D01*
Y114500D01*
X52500D02*
X54500D01*
X52500Y112500D02*
Y114500D01*
X54900Y81400D02*
X56100D01*
Y82600D01*
X54900D02*
X56100D01*
X54900Y81400D02*
Y82600D01*
X54500Y81000D02*
X56500D01*
Y83000D01*
X54500D02*
X56500D01*
X54500Y81000D02*
Y83000D01*
X72900Y114400D02*
X74100D01*
Y115600D01*
X72900D02*
X74100D01*
X72900Y114400D02*
Y115600D01*
X72500Y114000D02*
X74500D01*
Y116000D01*
X72500D02*
X74500D01*
X72500Y114000D02*
Y116000D01*
X91900Y60900D02*
X93100D01*
Y62100D01*
X91900D02*
X93100D01*
X91900Y60900D02*
Y62100D01*
X91500Y60500D02*
X93500D01*
Y62500D01*
X91500D02*
X93500D01*
X91500Y60500D02*
Y62500D01*
X44900Y176400D02*
X46100D01*
Y177600D01*
X44900D02*
X46100D01*
X44900Y176400D02*
Y177600D01*
X44500Y176000D02*
X46500D01*
Y178000D01*
X44500D02*
X46500D01*
X44500Y176000D02*
Y178000D01*
X68500Y95000D02*
X69500Y94000D01*
X70500Y95000D01*
X69500Y96000D02*
X70500Y95000D01*
X68500D02*
X69500Y96000D01*
X15000Y217000D02*
X16000Y216000D01*
X17000Y217000D01*
X16000Y218000D02*
X17000Y217000D01*
X15000D02*
X16000Y218000D01*
X339000Y227500D02*
X340000Y226500D01*
X341000Y227500D01*
X340000Y228500D02*
X341000Y227500D01*
X339000D02*
X340000Y228500D01*
X342500Y62500D02*
X343500Y61500D01*
X344500Y62500D01*
X343500Y63500D02*
X344500Y62500D01*
X342500D02*
X343500Y63500D01*
X197500Y72252D02*
X198000Y71752D01*
X197000Y72252D02*
X197500D01*
X197000D02*
X197500Y72752D01*
X197000Y73252D02*
X197500Y72752D01*
X197000Y73252D02*
X197500D01*
X198000Y73752D01*
X198500Y73252D01*
X199000D01*
X198500Y72752D02*
X199000Y73252D01*
X198500Y72752D02*
X199000Y72252D01*
X198500D02*
X199000D01*
X198000Y71752D02*
X198500Y72252D01*
X197500Y95874D02*
X198000Y95374D01*
X197000Y95874D02*
X197500D01*
X197000D02*
X197500Y96374D01*
X197000Y96874D02*
X197500Y96374D01*
X197000Y96874D02*
X197500D01*
X198000Y97374D01*
X198500Y96874D01*
X199000D01*
X198500Y96374D02*
X199000Y96874D01*
X198500Y96374D02*
X199000Y95874D01*
X198500D02*
X199000D01*
X198000Y95374D02*
X198500Y95874D01*
X197500Y88000D02*
X198000Y87500D01*
X197000Y88000D02*
X197500D01*
X197000D02*
X197500Y88500D01*
X197000Y89000D02*
X197500Y88500D01*
X197000Y89000D02*
X197500D01*
X198000Y89500D01*
X198500Y89000D01*
X199000D01*
X198500Y88500D02*
X199000Y89000D01*
X198500Y88500D02*
X199000Y88000D01*
X198500D02*
X199000D01*
X198000Y87500D02*
X198500Y88000D01*
X197500Y80126D02*
X198000Y79626D01*
X197000Y80126D02*
X197500D01*
X197000D02*
X197500Y80626D01*
X197000Y81126D02*
X197500Y80626D01*
X197000Y81126D02*
X197500D01*
X198000Y81626D01*
X198500Y81126D01*
X199000D01*
X198500Y80626D02*
X199000Y81126D01*
X198500Y80626D02*
X199000Y80126D01*
X198500D02*
X199000D01*
X198000Y79626D02*
X198500Y80126D01*
X394500Y58000D02*
Y58500D01*
X395000Y59000D01*
X394500Y59500D02*
X395000Y59000D01*
X394500Y59500D02*
Y60000D01*
X395000D01*
X395500Y59500D01*
X396000Y60000D01*
X396500D01*
Y59500D02*
Y60000D01*
X396000Y59000D02*
X396500Y59500D01*
X396000Y59000D02*
X396500Y58500D01*
Y58000D02*
Y58500D01*
X396000Y58000D02*
X396500D01*
X395500Y58500D02*
X396000Y58000D01*
X395000D02*
X395500Y58500D01*
X394500Y58000D02*
X395000D01*
X394500Y28000D02*
Y28500D01*
X395000Y29000D01*
X394500Y29500D02*
X395000Y29000D01*
X394500Y29500D02*
Y30000D01*
X395000D01*
X395500Y29500D01*
X396000Y30000D01*
X396500D01*
Y29500D02*
Y30000D01*
X396000Y29000D02*
X396500Y29500D01*
X396000Y29000D02*
X396500Y28500D01*
Y28000D02*
Y28500D01*
X396000Y28000D02*
X396500D01*
X395500Y28500D02*
X396000Y28000D01*
X395000D02*
X395500Y28500D01*
X394500Y28000D02*
X395000D01*
X394500Y38000D02*
Y38500D01*
X395000Y39000D01*
X394500Y39500D02*
X395000Y39000D01*
X394500Y39500D02*
Y40000D01*
X395000D01*
X395500Y39500D01*
X396000Y40000D01*
X396500D01*
Y39500D02*
Y40000D01*
X396000Y39000D02*
X396500Y39500D01*
X396000Y39000D02*
X396500Y38500D01*
Y38000D02*
Y38500D01*
X396000Y38000D02*
X396500D01*
X395500Y38500D02*
X396000Y38000D01*
X395000D02*
X395500Y38500D01*
X394500Y38000D02*
X395000D01*
X364500Y28000D02*
Y28500D01*
X365000Y29000D01*
X364500Y29500D02*
X365000Y29000D01*
X364500Y29500D02*
Y30000D01*
X365000D01*
X365500Y29500D01*
X366000Y30000D01*
X366500D01*
Y29500D02*
Y30000D01*
X366000Y29000D02*
X366500Y29500D01*
X366000Y29000D02*
X366500Y28500D01*
Y28000D02*
Y28500D01*
X366000Y28000D02*
X366500D01*
X365500Y28500D02*
X366000Y28000D01*
X365000D02*
X365500Y28500D01*
X364500Y28000D02*
X365000D01*
X394500Y48000D02*
Y48500D01*
X395000Y49000D01*
X394500Y49500D02*
X395000Y49000D01*
X394500Y49500D02*
Y50000D01*
X395000D01*
X395500Y49500D01*
X396000Y50000D01*
X396500D01*
Y49500D02*
Y50000D01*
X396000Y49000D02*
X396500Y49500D01*
X396000Y49000D02*
X396500Y48500D01*
Y48000D02*
Y48500D01*
X396000Y48000D02*
X396500D01*
X395500Y48500D02*
X396000Y48000D01*
X395000D02*
X395500Y48500D01*
X394500Y48000D02*
X395000D01*
X364500Y38000D02*
Y38500D01*
X365000Y39000D01*
X364500Y39500D02*
X365000Y39000D01*
X364500Y39500D02*
Y40000D01*
X365000D01*
X365500Y39500D01*
X366000Y40000D01*
X366500D01*
Y39500D02*
Y40000D01*
X366000Y39000D02*
X366500Y39500D01*
X366000Y39000D02*
X366500Y38500D01*
Y38000D02*
Y38500D01*
X366000Y38000D02*
X366500D01*
X365500Y38500D02*
X366000Y38000D01*
X365000D02*
X365500Y38500D01*
X364500Y38000D02*
X365000D01*
X364500Y48000D02*
Y48500D01*
X365000Y49000D01*
X364500Y49500D02*
X365000Y49000D01*
X364500Y49500D02*
Y50000D01*
X365000D01*
X365500Y49500D01*
X366000Y50000D01*
X366500D01*
Y49500D02*
Y50000D01*
X366000Y49000D02*
X366500Y49500D01*
X366000Y49000D02*
X366500Y48500D01*
Y48000D02*
Y48500D01*
X366000Y48000D02*
X366500D01*
X365500Y48500D02*
X366000Y48000D01*
X365000D02*
X365500Y48500D01*
X364500Y48000D02*
X365000D01*
X364500Y58000D02*
Y58500D01*
X365000Y59000D01*
X364500Y59500D02*
X365000Y59000D01*
X364500Y59500D02*
Y60000D01*
X365000D01*
X365500Y59500D01*
X366000Y60000D01*
X366500D01*
Y59500D02*
Y60000D01*
X366000Y59000D02*
X366500Y59500D01*
X366000Y59000D02*
X366500Y58500D01*
Y58000D02*
Y58500D01*
X366000Y58000D02*
X366500D01*
X365500Y58500D02*
X366000Y58000D01*
X365000D02*
X365500Y58500D01*
X364500Y58000D02*
X365000D01*
X381200Y230819D02*
X381700D01*
X381200D02*
Y231819D01*
X381700D01*
Y232319D01*
X382700D01*
Y231819D02*
Y232319D01*
Y231819D02*
X383200D01*
Y230819D02*
Y231819D01*
X382700Y230819D02*
X383200D01*
X382700Y230319D02*
Y230819D01*
X381700Y230319D02*
X382700D01*
X381700D02*
Y230819D01*
X381200Y211724D02*
X381700D01*
X381200D02*
Y212724D01*
X381700D01*
Y213224D01*
X382700D01*
Y212724D02*
Y213224D01*
Y212724D02*
X383200D01*
Y211724D02*
Y212724D01*
X382700Y211724D02*
X383200D01*
X382700Y211224D02*
Y211724D01*
X381700Y211224D02*
X382700D01*
X381700D02*
Y211724D01*
X392500Y235043D02*
X393500Y235543D01*
X394500Y235043D01*
X394000Y236043D02*
X394500Y235043D01*
X394000Y236043D02*
X394500Y237043D01*
X393500Y236543D02*
X394500Y237043D01*
X392500D02*
X393500Y236543D01*
X392500Y237043D02*
X393000Y236043D01*
X392500Y235043D02*
X393000Y236043D01*
X392500Y206500D02*
X393500Y207000D01*
X394500Y206500D01*
X394000Y207500D02*
X394500Y206500D01*
X394000Y207500D02*
X394500Y208500D01*
X393500Y208000D02*
X394500Y208500D01*
X392500D02*
X393500Y208000D01*
X392500Y208500D02*
X393000Y207500D01*
X392500Y206500D02*
X393000Y207500D01*
X226500Y237500D02*
Y238000D01*
X227000Y238500D01*
X226500Y239000D02*
X227000Y238500D01*
X226500Y239000D02*
Y239500D01*
X227000D01*
X227500Y239000D01*
X228000Y239500D01*
X228500D01*
Y239000D02*
Y239500D01*
X228000Y238500D02*
X228500Y239000D01*
X228000Y238500D02*
X228500Y238000D01*
Y237500D02*
Y238000D01*
X228000Y237500D02*
X228500D01*
X227500Y238000D02*
X228000Y237500D01*
X227000D02*
X227500Y238000D01*
X226500Y237500D02*
X227000D01*
X236500D02*
Y238000D01*
X237000Y238500D01*
X236500Y239000D02*
X237000Y238500D01*
X236500Y239000D02*
Y239500D01*
X237000D01*
X237500Y239000D01*
X238000Y239500D01*
X238500D01*
Y239000D02*
Y239500D01*
X238000Y238500D02*
X238500Y239000D01*
X238000Y238500D02*
X238500Y238000D01*
Y237500D02*
Y238000D01*
X238000Y237500D02*
X238500D01*
X237500Y238000D02*
X238000Y237500D01*
X237000D02*
X237500Y238000D01*
X236500Y237500D02*
X237000D01*
X246500D02*
Y238000D01*
X247000Y238500D01*
X246500Y239000D02*
X247000Y238500D01*
X246500Y239000D02*
Y239500D01*
X247000D01*
X247500Y239000D01*
X248000Y239500D01*
X248500D01*
Y239000D02*
Y239500D01*
X248000Y238500D02*
X248500Y239000D01*
X248000Y238500D02*
X248500Y238000D01*
Y237500D02*
Y238000D01*
X248000Y237500D02*
X248500D01*
X247500Y238000D02*
X248000Y237500D01*
X247000D02*
X247500Y238000D01*
X246500Y237500D02*
X247000D01*
X36500D02*
Y238000D01*
X37000Y238500D01*
X36500Y239000D02*
X37000Y238500D01*
X36500Y239000D02*
Y239500D01*
X37000D01*
X37500Y239000D01*
X38000Y239500D01*
X38500D01*
Y239000D02*
Y239500D01*
X38000Y238500D02*
X38500Y239000D01*
X38000Y238500D02*
X38500Y238000D01*
Y237500D02*
Y238000D01*
X38000Y237500D02*
X38500D01*
X37500Y238000D02*
X38000Y237500D01*
X37000D02*
X37500Y238000D01*
X36500Y237500D02*
X37000D01*
X46500D02*
Y238000D01*
X47000Y238500D01*
X46500Y239000D02*
X47000Y238500D01*
X46500Y239000D02*
Y239500D01*
X47000D01*
X47500Y239000D01*
X48000Y239500D01*
X48500D01*
Y239000D02*
Y239500D01*
X48000Y238500D02*
X48500Y239000D01*
X48000Y238500D02*
X48500Y238000D01*
Y237500D02*
Y238000D01*
X48000Y237500D02*
X48500D01*
X47500Y238000D02*
X48000Y237500D01*
X47000D02*
X47500Y238000D01*
X46500Y237500D02*
X47000D01*
X56500D02*
Y238000D01*
X57000Y238500D01*
X56500Y239000D02*
X57000Y238500D01*
X56500Y239000D02*
Y239500D01*
X57000D01*
X57500Y239000D01*
X58000Y239500D01*
X58500D01*
Y239000D02*
Y239500D01*
X58000Y238500D02*
X58500Y239000D01*
X58000Y238500D02*
X58500Y238000D01*
Y237500D02*
Y238000D01*
X58000Y237500D02*
X58500D01*
X57500Y238000D02*
X58000Y237500D01*
X57000D02*
X57500Y238000D01*
X56500Y237500D02*
X57000D01*
X274000D02*
Y238000D01*
X274500Y238500D01*
X274000Y239000D02*
X274500Y238500D01*
X274000Y239000D02*
Y239500D01*
X274500D01*
X275000Y239000D01*
X275500Y239500D01*
X276000D01*
Y239000D02*
Y239500D01*
X275500Y238500D02*
X276000Y239000D01*
X275500Y238500D02*
X276000Y238000D01*
Y237500D02*
Y238000D01*
X275500Y237500D02*
X276000D01*
X275000Y238000D02*
X275500Y237500D01*
X274500D02*
X275000Y238000D01*
X274000Y237500D02*
X274500D01*
X284000D02*
Y238000D01*
X284500Y238500D01*
X284000Y239000D02*
X284500Y238500D01*
X284000Y239000D02*
Y239500D01*
X284500D01*
X285000Y239000D01*
X285500Y239500D01*
X286000D01*
Y239000D02*
Y239500D01*
X285500Y238500D02*
X286000Y239000D01*
X285500Y238500D02*
X286000Y238000D01*
Y237500D02*
Y238000D01*
X285500Y237500D02*
X286000D01*
X285000Y238000D02*
X285500Y237500D01*
X284500D02*
X285000Y238000D01*
X284000Y237500D02*
X284500D01*
X294000D02*
Y238000D01*
X294500Y238500D01*
X294000Y239000D02*
X294500Y238500D01*
X294000Y239000D02*
Y239500D01*
X294500D01*
X295000Y239000D01*
X295500Y239500D01*
X296000D01*
Y239000D02*
Y239500D01*
X295500Y238500D02*
X296000Y239000D01*
X295500Y238500D02*
X296000Y238000D01*
Y237500D02*
Y238000D01*
X295500Y237500D02*
X296000D01*
X295000Y238000D02*
X295500Y237500D01*
X294500D02*
X295000Y238000D01*
X294000Y237500D02*
X294500D01*
X84000D02*
Y238000D01*
X84500Y238500D01*
X84000Y239000D02*
X84500Y238500D01*
X84000Y239000D02*
Y239500D01*
X84500D01*
X85000Y239000D01*
X85500Y239500D01*
X86000D01*
Y239000D02*
Y239500D01*
X85500Y238500D02*
X86000Y239000D01*
X85500Y238500D02*
X86000Y238000D01*
Y237500D02*
Y238000D01*
X85500Y237500D02*
X86000D01*
X85000Y238000D02*
X85500Y237500D01*
X84500D02*
X85000Y238000D01*
X84000Y237500D02*
X84500D01*
X94000D02*
Y238000D01*
X94500Y238500D01*
X94000Y239000D02*
X94500Y238500D01*
X94000Y239000D02*
Y239500D01*
X94500D01*
X95000Y239000D01*
X95500Y239500D01*
X96000D01*
Y239000D02*
Y239500D01*
X95500Y238500D02*
X96000Y239000D01*
X95500Y238500D02*
X96000Y238000D01*
Y237500D02*
Y238000D01*
X95500Y237500D02*
X96000D01*
X95000Y238000D02*
X95500Y237500D01*
X94500D02*
X95000Y238000D01*
X94000Y237500D02*
X94500D01*
X104000D02*
Y238000D01*
X104500Y238500D01*
X104000Y239000D02*
X104500Y238500D01*
X104000Y239000D02*
Y239500D01*
X104500D01*
X105000Y239000D01*
X105500Y239500D01*
X106000D01*
Y239000D02*
Y239500D01*
X105500Y238500D02*
X106000Y239000D01*
X105500Y238500D02*
X106000Y238000D01*
Y237500D02*
Y238000D01*
X105500Y237500D02*
X106000D01*
X105000Y238000D02*
X105500Y237500D01*
X104500D02*
X105000Y238000D01*
X104000Y237500D02*
X104500D01*
X131500D02*
Y238000D01*
X132000Y238500D01*
X131500Y239000D02*
X132000Y238500D01*
X131500Y239000D02*
Y239500D01*
X132000D01*
X132500Y239000D01*
X133000Y239500D01*
X133500D01*
Y239000D02*
Y239500D01*
X133000Y238500D02*
X133500Y239000D01*
X133000Y238500D02*
X133500Y238000D01*
Y237500D02*
Y238000D01*
X133000Y237500D02*
X133500D01*
X132500Y238000D02*
X133000Y237500D01*
X132000D02*
X132500Y238000D01*
X131500Y237500D02*
X132000D01*
X141500D02*
Y238000D01*
X142000Y238500D01*
X141500Y239000D02*
X142000Y238500D01*
X141500Y239000D02*
Y239500D01*
X142000D01*
X142500Y239000D01*
X143000Y239500D01*
X143500D01*
Y239000D02*
Y239500D01*
X143000Y238500D02*
X143500Y239000D01*
X143000Y238500D02*
X143500Y238000D01*
Y237500D02*
Y238000D01*
X143000Y237500D02*
X143500D01*
X142500Y238000D02*
X143000Y237500D01*
X142000D02*
X142500Y238000D01*
X141500Y237500D02*
X142000D01*
X151500D02*
Y238000D01*
X152000Y238500D01*
X151500Y239000D02*
X152000Y238500D01*
X151500Y239000D02*
Y239500D01*
X152000D01*
X152500Y239000D01*
X153000Y239500D01*
X153500D01*
Y239000D02*
Y239500D01*
X153000Y238500D02*
X153500Y239000D01*
X153000Y238500D02*
X153500Y238000D01*
Y237500D02*
Y238000D01*
X153000Y237500D02*
X153500D01*
X152500Y238000D02*
X153000Y237500D01*
X152000D02*
X152500Y238000D01*
X151500Y237500D02*
X152000D01*
X179000D02*
Y238000D01*
X179500Y238500D01*
X179000Y239000D02*
X179500Y238500D01*
X179000Y239000D02*
Y239500D01*
X179500D01*
X180000Y239000D01*
X180500Y239500D01*
X181000D01*
Y239000D02*
Y239500D01*
X180500Y238500D02*
X181000Y239000D01*
X180500Y238500D02*
X181000Y238000D01*
Y237500D02*
Y238000D01*
X180500Y237500D02*
X181000D01*
X180000Y238000D02*
X180500Y237500D01*
X179500D02*
X180000Y238000D01*
X179000Y237500D02*
X179500D01*
X189000D02*
Y238000D01*
X189500Y238500D01*
X189000Y239000D02*
X189500Y238500D01*
X189000Y239000D02*
Y239500D01*
X189500D01*
X190000Y239000D01*
X190500Y239500D01*
X191000D01*
Y239000D02*
Y239500D01*
X190500Y238500D02*
X191000Y239000D01*
X190500Y238500D02*
X191000Y238000D01*
Y237500D02*
Y238000D01*
X190500Y237500D02*
X191000D01*
X190000Y238000D02*
X190500Y237500D01*
X189500D02*
X190000Y238000D01*
X189000Y237500D02*
X189500D01*
X199000D02*
Y238000D01*
X199500Y238500D01*
X199000Y239000D02*
X199500Y238500D01*
X199000Y239000D02*
Y239500D01*
X199500D01*
X200000Y239000D01*
X200500Y239500D01*
X201000D01*
Y239000D02*
Y239500D01*
X200500Y238500D02*
X201000Y239000D01*
X200500Y238500D02*
X201000Y238000D01*
Y237500D02*
Y238000D01*
X200500Y237500D02*
X201000D01*
X200000Y238000D02*
X200500Y237500D01*
X199500D02*
X200000Y238000D01*
X199000Y237500D02*
X199500D01*
X120000Y31500D02*
X121000Y33500D01*
X119000D02*
X121000D01*
X119000D02*
X120000Y31500D01*
X80000D02*
X81000Y33500D01*
X79000D02*
X81000D01*
X79000D02*
X80000Y31500D01*
X160000D02*
X161000Y33500D01*
X159000D02*
X161000D01*
X159000D02*
X160000Y31500D01*
X140000D02*
X141000Y33500D01*
X139000D02*
X141000D01*
X139000D02*
X140000Y31500D01*
X60000D02*
X61000Y33500D01*
X59000D02*
X61000D01*
X59000D02*
X60000Y31500D01*
X100000D02*
X101000Y33500D01*
X99000D02*
X101000D01*
X99000D02*
X100000Y31500D01*
X40000D02*
X41000Y33500D01*
X39000D02*
X41000D01*
X39000D02*
X40000Y31500D01*
X20000D02*
X21000Y33500D01*
X19000D02*
X21000D01*
X19000D02*
X20000Y31500D01*
X271500Y182000D02*
X273500D01*
Y184000D01*
X271500D02*
X273500D01*
X271500Y182000D02*
Y184000D01*
X318500Y151500D02*
X320500D01*
Y153500D01*
X318500D02*
X320500D01*
X318500Y151500D02*
Y153500D01*
X38500Y175500D02*
X40500D01*
Y177500D01*
X38500D02*
X40500D01*
X38500Y175500D02*
Y177500D01*
Y121750D02*
X40500D01*
Y123750D01*
X38500D02*
X40500D01*
X38500Y121750D02*
Y123750D01*
Y68000D02*
X40500D01*
Y70000D01*
X38500D02*
X40500D01*
X38500Y68000D02*
Y70000D01*
G54D215*
X532019Y-7103D02*
Y-13101D01*
Y-10102D01*
X536018D01*
Y-7103D01*
Y-13101D01*
X539017D02*
X541016D01*
X542016Y-12101D01*
Y-10102D01*
X541016Y-9102D01*
X539017D01*
X538017Y-10102D01*
Y-12101D01*
X539017Y-13101D01*
X544015D02*
X546014D01*
X545015D01*
Y-7103D01*
X544015D01*
X552012Y-13101D02*
X550013D01*
X549013Y-12101D01*
Y-10102D01*
X550013Y-9102D01*
X552012D01*
X553012Y-10102D01*
Y-11101D01*
X549013D01*
X561010Y-7103D02*
Y-13101D01*
X565008D01*
X570007D02*
X568007D01*
X567008Y-12101D01*
Y-10102D01*
X568007Y-9102D01*
X570007D01*
X571006Y-10102D01*
Y-11101D01*
X567008D01*
X573006Y-13101D02*
Y-9102D01*
X576005D01*
X577004Y-10102D01*
Y-13101D01*
X581003Y-15100D02*
X582003D01*
X583003Y-14100D01*
Y-9102D01*
X580003D01*
X579004Y-10102D01*
Y-12101D01*
X580003Y-13101D01*
X583003D01*
X586001Y-8102D02*
Y-9102D01*
X585002D01*
X587001D01*
X586001D01*
Y-12101D01*
X587001Y-13101D01*
X590000Y-7103D02*
Y-13101D01*
Y-10102D01*
X591000Y-9102D01*
X592999D01*
X593999Y-10102D01*
Y-13101D01*
X532019Y-3103D02*
Y2895D01*
X535018D01*
X536018Y1895D01*
Y-104D01*
X535018Y-1104D01*
X532019D01*
X534018D02*
X536018Y-3103D01*
X539017D02*
X541016D01*
X542016Y-2104D01*
Y-104D01*
X541016Y895D01*
X539017D01*
X538017Y-104D01*
Y-2104D01*
X539017Y-3103D01*
X544015Y895D02*
Y-2104D01*
X545015Y-3103D01*
X548014D01*
Y895D01*
X551013Y1895D02*
Y895D01*
X550013D01*
X552012D01*
X551013D01*
Y-2104D01*
X552012Y-3103D01*
X558010D02*
X556011D01*
X555012Y-2104D01*
Y-104D01*
X556011Y895D01*
X558010D01*
X559010Y-104D01*
Y-1104D01*
X555012D01*
X565008Y2895D02*
Y-3103D01*
X562009D01*
X561010Y-2104D01*
Y-104D01*
X562009Y895D01*
X565008D01*
X573006Y-3103D02*
Y2895D01*
X576005D01*
X577004Y1895D01*
Y-104D01*
X576005Y-1104D01*
X573006D01*
X580003Y895D02*
X582003D01*
X583003Y-104D01*
Y-3103D01*
X580003D01*
X579004Y-2104D01*
X580003Y-1104D01*
X583003D01*
X586001Y1895D02*
Y895D01*
X585002D01*
X587001D01*
X586001D01*
Y-2104D01*
X587001Y-3103D01*
X590000Y2895D02*
Y-3103D01*
Y-104D01*
X591000Y895D01*
X592999D01*
X593999Y-104D01*
Y-3103D01*
X601996Y2895D02*
Y-3103D01*
X605995D01*
X610993D02*
X608994D01*
X607994Y-2104D01*
Y-104D01*
X608994Y895D01*
X610993D01*
X611993Y-104D01*
Y-1104D01*
X607994D01*
X613992Y-3103D02*
Y895D01*
X616991D01*
X617991Y-104D01*
Y-3103D01*
X621990Y-5103D02*
X622990D01*
X623989Y-4103D01*
Y895D01*
X620990D01*
X619990Y-104D01*
Y-2104D01*
X620990Y-3103D01*
X623989D01*
X626988Y1895D02*
Y895D01*
X625988D01*
X627988D01*
X626988D01*
Y-2104D01*
X627988Y-3103D01*
X630987Y2895D02*
Y-3103D01*
Y-104D01*
X631987Y895D01*
X633986D01*
X634986Y-104D01*
Y-3103D01*
X432749Y1895D02*
X431749Y2895D01*
X429750D01*
X428750Y1895D01*
Y895D01*
X429750Y-104D01*
X431749D01*
X432749Y-1104D01*
Y-2104D01*
X431749Y-3103D01*
X429750D01*
X428750Y-2104D01*
X434748Y-3103D02*
X436747D01*
X435748D01*
Y2895D01*
X434748D01*
X440746Y-3103D02*
X442745D01*
X443745Y-2104D01*
Y-104D01*
X442745Y895D01*
X440746D01*
X439746Y-104D01*
Y-2104D01*
X440746Y-3103D01*
X446744Y1895D02*
Y895D01*
X445745D01*
X447744D01*
X446744D01*
Y-2104D01*
X447744Y-3103D01*
X460740Y2895D02*
Y-3103D01*
X457741D01*
X456741Y-2104D01*
Y-104D01*
X457741Y895D01*
X460740D01*
X465738Y-3103D02*
X463739D01*
X462739Y-2104D01*
Y-104D01*
X463739Y895D01*
X465738D01*
X466738Y-104D01*
Y-1104D01*
X462739D01*
X469737Y-3103D02*
Y1895D01*
Y-104D01*
X468737D01*
X470736D01*
X469737D01*
Y1895D01*
X470736Y2895D01*
X473735Y-3103D02*
X475735D01*
X474735D01*
Y895D01*
X473735D01*
X478734Y-3103D02*
Y895D01*
X481733D01*
X482732Y-104D01*
Y-3103D01*
X484732D02*
X486731D01*
X485732D01*
Y895D01*
X484732D01*
X490730Y1895D02*
Y895D01*
X489730D01*
X491730D01*
X490730D01*
Y-2104D01*
X491730Y-3103D01*
X494729D02*
X496728D01*
X495728D01*
Y895D01*
X494729D01*
X500727Y-3103D02*
X502726D01*
X503726Y-2104D01*
Y-104D01*
X502726Y895D01*
X500727D01*
X499727Y-104D01*
Y-2104D01*
X500727Y-3103D01*
X505725D02*
Y895D01*
X508724D01*
X509724Y-104D01*
Y-3103D01*
X511723D02*
X514722D01*
X515722Y-2104D01*
X514722Y-1104D01*
X512723D01*
X511723Y-104D01*
X512723Y895D01*
X515722D01*
X523719D02*
X524719D01*
Y-104D01*
X523719D01*
Y895D01*
Y-2104D02*
X524719D01*
Y-3103D01*
X523719D01*
Y-2104D01*
M02*
