G04*
G04 #@! TF.GenerationSoftware,Altium Limited,Altium Designer,19.1.5 (86)*
G04*
G04 Layer_Physical_Order=1*
G04 Layer_Color=255*
%FSLAX25Y25*%
%MOIN*%
G70*
G01*
G75*
%ADD11C,0.01000*%
%ADD18C,0.00800*%
%ADD29R,0.03200X0.03200*%
%ADD30R,0.03200X0.03200*%
%ADD31R,0.02200X0.02200*%
%ADD32R,0.04331X0.03347*%
%ADD33R,0.05600X0.03800*%
%ADD34R,0.03347X0.04331*%
%ADD35R,0.03500X0.03000*%
%ADD36R,0.02200X0.02200*%
%ADD37O,0.01600X0.04331*%
%ADD38R,0.01600X0.04331*%
%ADD39R,0.03500X0.03200*%
%ADD40R,0.03000X0.02000*%
%ADD41R,0.04347X0.04153*%
%ADD42R,0.04307X0.04035*%
%ADD43R,0.05800X0.03600*%
%ADD44R,0.11811X0.06260*%
%ADD45R,0.03600X0.05800*%
%ADD46R,0.03800X0.05600*%
%ADD47R,0.10000X0.05000*%
%ADD48R,0.04035X0.04307*%
%ADD49R,0.04153X0.04347*%
%ADD50R,0.05000X0.10000*%
%ADD51R,0.03150X0.11811*%
%ADD52R,0.04724X0.09843*%
%ADD53R,0.09843X0.04724*%
%ADD54R,0.11811X0.03150*%
%ADD55R,0.22441X0.06693*%
%ADD56R,0.26000X0.23000*%
%ADD57R,0.08600X0.04800*%
%ADD58R,0.02400X0.04000*%
%ADD59R,0.02800X0.03800*%
%ADD60R,0.04000X0.02400*%
%ADD61R,0.03800X0.02800*%
%ADD62R,0.10315X0.13819*%
G04:AMPARAMS|DCode=63|XSize=23.62mil|YSize=78.74mil|CornerRadius=5.91mil|HoleSize=0mil|Usage=FLASHONLY|Rotation=90.000|XOffset=0mil|YOffset=0mil|HoleType=Round|Shape=RoundedRectangle|*
%AMROUNDEDRECTD63*
21,1,0.02362,0.06693,0,0,90.0*
21,1,0.01181,0.07874,0,0,90.0*
1,1,0.01181,0.03347,0.00591*
1,1,0.01181,0.03347,-0.00591*
1,1,0.01181,-0.03347,-0.00591*
1,1,0.01181,-0.03347,0.00591*
%
%ADD63ROUNDEDRECTD63*%
%ADD64O,0.07874X0.02362*%
%ADD65R,0.05118X0.06299*%
G04:AMPARAMS|DCode=66|XSize=12mil|YSize=64mil|CornerRadius=3mil|HoleSize=0mil|Usage=FLASHONLY|Rotation=270.000|XOffset=0mil|YOffset=0mil|HoleType=Round|Shape=RoundedRectangle|*
%AMROUNDEDRECTD66*
21,1,0.01200,0.05800,0,0,270.0*
21,1,0.00600,0.06400,0,0,270.0*
1,1,0.00600,-0.02900,-0.00300*
1,1,0.00600,-0.02900,0.00300*
1,1,0.00600,0.02900,0.00300*
1,1,0.00600,0.02900,-0.00300*
%
%ADD66ROUNDEDRECTD66*%
%ADD67O,0.07000X0.01900*%
G04:AMPARAMS|DCode=68|XSize=19mil|YSize=70mil|CornerRadius=4.75mil|HoleSize=0mil|Usage=FLASHONLY|Rotation=90.000|XOffset=0mil|YOffset=0mil|HoleType=Round|Shape=RoundedRectangle|*
%AMROUNDEDRECTD68*
21,1,0.01900,0.06050,0,0,90.0*
21,1,0.00950,0.07000,0,0,90.0*
1,1,0.00950,0.03025,0.00475*
1,1,0.00950,0.03025,-0.00475*
1,1,0.00950,-0.03025,-0.00475*
1,1,0.00950,-0.03025,0.00475*
%
%ADD68ROUNDEDRECTD68*%
%ADD69R,0.03937X0.10630*%
%ADD70O,0.07874X0.02362*%
%ADD71R,0.02500X0.02500*%
%ADD72R,0.03000X0.03500*%
%ADD73R,0.01181X0.05906*%
%ADD74R,0.05906X0.01181*%
G04:AMPARAMS|DCode=129|XSize=90mil|YSize=68mil|CornerRadius=27.2mil|HoleSize=0mil|Usage=FLASHONLY|Rotation=0.000|XOffset=0mil|YOffset=0mil|HoleType=Round|Shape=RoundedRectangle|*
%AMROUNDEDRECTD129*
21,1,0.09000,0.01360,0,0,0.0*
21,1,0.03560,0.06800,0,0,0.0*
1,1,0.05440,0.01780,-0.00680*
1,1,0.05440,-0.01780,-0.00680*
1,1,0.05440,-0.01780,0.00680*
1,1,0.05440,0.01780,0.00680*
%
%ADD129ROUNDEDRECTD129*%
%ADD130O,0.05000X0.05400*%
%ADD133C,0.00700*%
%ADD134C,0.03000*%
%ADD135C,0.02000*%
%ADD136C,0.01500*%
%ADD137C,0.04000*%
%ADD138C,0.01200*%
%ADD139C,0.08000*%
%ADD140C,0.05000*%
%ADD141R,0.19500X0.18500*%
%ADD142R,0.05500X0.05571*%
%ADD143R,0.04500X0.09107*%
%ADD144R,0.23500X0.11500*%
%ADD145R,0.07000X0.09000*%
%ADD146R,0.21571X0.11000*%
%ADD147R,0.23708X0.12841*%
%ADD148R,0.08500X0.12500*%
%ADD149R,0.07937X0.04500*%
%ADD150R,0.07006X0.04347*%
%ADD151R,0.03969X0.06960*%
%ADD152C,0.19685*%
%ADD153C,0.11024*%
%ADD154C,0.11811*%
%ADD155C,0.08268*%
%ADD156C,0.06693*%
%ADD157R,0.06693X0.06693*%
%ADD158C,0.06693*%
%ADD159C,0.07480*%
%ADD160C,0.06299*%
%ADD161O,0.06000X0.05500*%
G04:AMPARAMS|DCode=162|XSize=55mil|YSize=60mil|CornerRadius=6.88mil|HoleSize=0mil|Usage=FLASHONLY|Rotation=270.000|XOffset=0mil|YOffset=0mil|HoleType=Round|Shape=RoundedRectangle|*
%AMROUNDEDRECTD162*
21,1,0.05500,0.04625,0,0,270.0*
21,1,0.04125,0.06000,0,0,270.0*
1,1,0.01375,-0.02313,-0.02063*
1,1,0.01375,-0.02313,0.02063*
1,1,0.01375,0.02313,0.02063*
1,1,0.01375,0.02313,-0.02063*
%
%ADD162ROUNDEDRECTD162*%
%ADD163C,0.01968*%
%ADD164C,0.04724*%
G36*
X399638Y237676D02*
X399138Y237576D01*
X398879Y238201D01*
X398218Y239062D01*
X397358Y239722D01*
X396356Y240137D01*
X395280Y240279D01*
X391720D01*
X390645Y240137D01*
X389642Y239722D01*
X388782Y239062D01*
X388121Y238201D01*
X387706Y237199D01*
X387564Y236123D01*
Y234763D01*
X387706Y233688D01*
X388121Y232685D01*
X388782Y231825D01*
X389642Y231165D01*
X390645Y230749D01*
X391720Y230608D01*
X395280D01*
X396356Y230749D01*
X397358Y231165D01*
X398218Y231825D01*
X398879Y232685D01*
X399138Y233310D01*
X399638Y233211D01*
Y210332D01*
X399138Y210233D01*
X398879Y210858D01*
X398218Y211718D01*
X397358Y212379D01*
X396356Y212794D01*
X395280Y212936D01*
X391720D01*
X390645Y212794D01*
X389642Y212379D01*
X388782Y211718D01*
X388121Y210858D01*
X387706Y209856D01*
X387564Y208780D01*
Y207420D01*
X387706Y206345D01*
X388121Y205342D01*
X388782Y204482D01*
X389642Y203821D01*
X389946Y203695D01*
X389847Y203195D01*
X388179D01*
Y195671D01*
X399638D01*
Y167762D01*
X388179D01*
Y160238D01*
X399638D01*
Y157979D01*
X388316D01*
Y150454D01*
X399638D01*
Y122546D01*
X388447D01*
Y141000D01*
X388261Y141936D01*
X387730Y142730D01*
X384730Y145730D01*
X383936Y146261D01*
X383000Y146447D01*
X379306D01*
Y147349D01*
X364694D01*
Y146311D01*
X363000D01*
Y147500D01*
X352000D01*
Y146437D01*
X351000D01*
X350259Y146290D01*
X349630Y145870D01*
X339130Y135370D01*
X338710Y134741D01*
X338563Y134000D01*
Y121500D01*
X338710Y120759D01*
X339130Y120130D01*
X343870Y115391D01*
X344498Y114971D01*
X345239Y114823D01*
X345777D01*
X345903Y114659D01*
X346442Y114245D01*
X346884Y114062D01*
X346890Y113711D01*
X346859Y113532D01*
X346172Y113073D01*
X345690Y112351D01*
X345600Y111900D01*
X350500D01*
Y111500D01*
X350900D01*
Y109276D01*
X353256D01*
X353612Y109347D01*
X353999Y109043D01*
X354067Y108928D01*
X354239Y108064D01*
X354770Y107270D01*
X355564Y106739D01*
X356500Y106553D01*
X357436Y106739D01*
X358230Y107270D01*
X360230Y109270D01*
X360384Y109500D01*
X361000D01*
Y113500D01*
Y118500D01*
X356000D01*
Y118187D01*
X355215D01*
X355097Y118341D01*
X354600Y118722D01*
X354567Y119000D01*
X354600Y119278D01*
X355097Y119659D01*
X355215Y119813D01*
X356000D01*
Y119500D01*
X361000D01*
Y124500D01*
X360600D01*
Y125600D01*
X358500D01*
X356400D01*
Y124500D01*
X356000D01*
Y123687D01*
X354922D01*
X354587Y124163D01*
X354600Y124278D01*
X355097Y124659D01*
X355510Y125198D01*
X355771Y125826D01*
X355859Y126500D01*
X355771Y127174D01*
X355510Y127802D01*
X355097Y128341D01*
X354558Y128755D01*
X354206Y128900D01*
X354306Y129400D01*
X356600D01*
Y131100D01*
X354500D01*
Y131900D01*
X356600D01*
Y133500D01*
X363000D01*
Y134563D01*
X364694D01*
Y133525D01*
X377014D01*
X378839Y131701D01*
X378631Y131201D01*
X378526Y131201D01*
Y131201D01*
X378519Y131201D01*
X372400D01*
Y129026D01*
X378906D01*
Y130486D01*
X379405Y130753D01*
X379553Y130654D01*
Y122514D01*
X372270Y115230D01*
X371739Y114436D01*
X371553Y113500D01*
Y104000D01*
X371739Y103064D01*
X372072Y102565D01*
X371805Y102065D01*
X365057D01*
Y99953D01*
X363016D01*
X362274Y99805D01*
X361646Y99386D01*
X360260Y98000D01*
X352100D01*
Y98100D01*
X350000D01*
Y98500D01*
X349600D01*
Y100600D01*
X347900D01*
Y100600D01*
X347400Y100465D01*
X347328Y100573D01*
X346607Y101055D01*
X345756Y101224D01*
X343400D01*
Y99000D01*
X343000D01*
Y98600D01*
X338100D01*
X338190Y98149D01*
X338672Y97427D01*
X339359Y96968D01*
X339390Y96789D01*
X339384Y96438D01*
X338942Y96255D01*
X338403Y95841D01*
X337989Y95302D01*
X337729Y94674D01*
X337641Y94000D01*
X337729Y93326D01*
X337989Y92698D01*
X338403Y92159D01*
X338900Y91778D01*
X338933Y91500D01*
X338900Y91222D01*
X338403Y90841D01*
X337989Y90302D01*
X337729Y89674D01*
X337641Y89000D01*
X337729Y88326D01*
X337989Y87698D01*
X338403Y87159D01*
X338900Y86778D01*
X338933Y86500D01*
X338900Y86222D01*
X338403Y85841D01*
X337989Y85302D01*
X337729Y84674D01*
X337641Y84000D01*
X337729Y83326D01*
X337989Y82698D01*
X338403Y82159D01*
X338942Y81745D01*
X339570Y81485D01*
X339936Y81437D01*
X339903Y80937D01*
X330000D01*
X329259Y80790D01*
X328630Y80370D01*
X326198Y77937D01*
X323500D01*
Y81397D01*
X323756D01*
X324430Y81485D01*
X325058Y81745D01*
X325597Y82159D01*
X326010Y82698D01*
X326271Y83326D01*
X326359Y84000D01*
X326271Y84674D01*
X326010Y85302D01*
X325597Y85841D01*
X325100Y86222D01*
X325067Y86500D01*
X325100Y86778D01*
X325597Y87159D01*
X326010Y87698D01*
X326271Y88326D01*
X326359Y89000D01*
X326271Y89674D01*
X326010Y90302D01*
X325597Y90841D01*
X325058Y91255D01*
X324616Y91438D01*
X324610Y91789D01*
X324641Y91968D01*
X325328Y92427D01*
X325811Y93149D01*
X325900Y93600D01*
X321000D01*
Y94400D01*
X325900D01*
X325811Y94851D01*
X325328Y95573D01*
X324641Y96032D01*
X324610Y96211D01*
X324616Y96562D01*
X325058Y96745D01*
X325597Y97159D01*
X326010Y97698D01*
X326271Y98326D01*
X326359Y99000D01*
X326271Y99674D01*
X326010Y100302D01*
X325597Y100841D01*
X325058Y101255D01*
X324430Y101515D01*
X323756Y101603D01*
X323500D01*
Y106000D01*
X314500D01*
Y103740D01*
X299797Y89037D01*
X299335Y89228D01*
Y117955D01*
X299746Y118570D01*
X299931Y119500D01*
X299746Y120430D01*
X299219Y121219D01*
X298430Y121746D01*
X297500Y121931D01*
X296570Y121746D01*
X295781Y121219D01*
X295254Y120430D01*
X295069Y119500D01*
X295254Y118570D01*
X295665Y117955D01*
Y114598D01*
X295587Y114130D01*
X295165Y114130D01*
X292428D01*
Y109980D01*
Y105831D01*
X295587Y105831D01*
X295665Y105363D01*
Y99569D01*
X290664D01*
X287388Y102845D01*
X286793Y103243D01*
X286090Y103383D01*
X280214D01*
X280023Y103844D01*
X281609Y105431D01*
X286931D01*
Y114530D01*
X287245Y114900D01*
X287600D01*
Y116600D01*
X285500D01*
Y117400D01*
X287600D01*
Y118500D01*
X288000D01*
Y118533D01*
X288500Y118801D01*
X288570Y118754D01*
X289500Y118569D01*
X290430Y118754D01*
X291219Y119281D01*
X291746Y120070D01*
X291931Y121000D01*
X291746Y121930D01*
X291219Y122719D01*
X290430Y123246D01*
X289500Y123431D01*
X288570Y123246D01*
X288500Y123199D01*
X288000Y123467D01*
Y123500D01*
X287600D01*
Y125263D01*
X297200D01*
X297941Y125410D01*
X298570Y125830D01*
X307436Y134697D01*
X307781Y134663D01*
X308570Y134136D01*
X309500Y133951D01*
X310430Y134136D01*
X310892Y134445D01*
X314090D01*
X314242Y133945D01*
X314130Y133870D01*
X310130Y129870D01*
X309710Y129241D01*
X309563Y128500D01*
Y115392D01*
X309254Y114930D01*
X309069Y114000D01*
X309254Y113070D01*
X309781Y112281D01*
X310379Y111882D01*
X312130Y110130D01*
X312759Y109710D01*
X313500Y109563D01*
X314500D01*
Y109000D01*
X323500D01*
Y109563D01*
X324029D01*
X324442Y109245D01*
X325070Y108985D01*
X325744Y108897D01*
X331256D01*
X331930Y108985D01*
X332558Y109245D01*
X333097Y109659D01*
X333510Y110198D01*
X333771Y110826D01*
X333859Y111500D01*
X333771Y112174D01*
X333510Y112802D01*
X333097Y113341D01*
X332600Y113722D01*
X332567Y114000D01*
X332600Y114278D01*
X333097Y114659D01*
X333510Y115198D01*
X333771Y115826D01*
X333859Y116500D01*
X333771Y117174D01*
X333510Y117802D01*
X333097Y118341D01*
X332600Y118722D01*
X332567Y119000D01*
X332600Y119278D01*
X333097Y119659D01*
X333510Y120198D01*
X333771Y120826D01*
X333859Y121500D01*
X333771Y122174D01*
X333510Y122802D01*
X333097Y123341D01*
X332600Y123722D01*
X332567Y124000D01*
X332600Y124278D01*
X333097Y124659D01*
X333510Y125198D01*
X333771Y125826D01*
X333859Y126500D01*
X333771Y127174D01*
X333510Y127802D01*
X333097Y128341D01*
X332558Y128755D01*
X331930Y129015D01*
X331256Y129103D01*
X328514D01*
X328323Y129565D01*
X356870Y158112D01*
X357290Y158740D01*
X357437Y159482D01*
Y179100D01*
X364100D01*
Y179100D01*
X364557Y178995D01*
Y178742D01*
X379168D01*
Y184691D01*
X364557D01*
Y184005D01*
X364100Y183900D01*
Y183900D01*
X353937D01*
Y185198D01*
X355740Y187000D01*
X362000D01*
Y187563D01*
X364557D01*
Y186616D01*
X379168D01*
Y192565D01*
X364557D01*
Y191437D01*
X362000D01*
Y192000D01*
X353000D01*
Y189740D01*
X350630Y187370D01*
X350210Y186741D01*
X350063Y186000D01*
Y160666D01*
X349937Y160582D01*
X349437Y160849D01*
Y194198D01*
X369956Y214716D01*
X378465D01*
X378721Y214216D01*
X378400Y213442D01*
X378266Y212424D01*
Y212024D01*
X378400Y211006D01*
X378793Y210058D01*
X379418Y209243D01*
X380233Y208618D01*
X381182Y208225D01*
X382200Y208091D01*
X383218Y208225D01*
X384167Y208618D01*
X384981Y209243D01*
X385607Y210058D01*
X386000Y211006D01*
X386134Y212024D01*
Y212424D01*
X386000Y213442D01*
X385698Y214170D01*
X385926Y214725D01*
X386063Y214752D01*
X386626Y215128D01*
X387001Y215690D01*
X387133Y216354D01*
Y216953D01*
X387001Y217617D01*
X386790Y217933D01*
X387001Y218249D01*
X387133Y218913D01*
Y219513D01*
X387001Y220176D01*
X386790Y220492D01*
X387001Y220808D01*
X387133Y221472D01*
Y222072D01*
X387001Y222735D01*
X386790Y223051D01*
X387001Y223367D01*
X387133Y224031D01*
Y224631D01*
X387001Y225294D01*
X386626Y225856D01*
X386520Y225927D01*
X386625Y226082D01*
X386706Y226490D01*
X382500D01*
X378294D01*
X378375Y226082D01*
X378480Y225927D01*
X378374Y225856D01*
X377999Y225294D01*
X377867Y224631D01*
Y224031D01*
X377603Y223709D01*
X367034D01*
X366292Y223561D01*
X365664Y223142D01*
X341012Y198490D01*
X340592Y197861D01*
X340445Y197120D01*
Y162684D01*
X321198Y143437D01*
X308500D01*
X307759Y143290D01*
X307130Y142870D01*
X296198Y131937D01*
X260500D01*
X259759Y131790D01*
X259130Y131370D01*
X257615Y129854D01*
X257070Y129746D01*
X256941Y129660D01*
X256500Y129896D01*
Y133500D01*
X256100D01*
Y134600D01*
X254000D01*
Y135000D01*
X253600D01*
Y137100D01*
X252500D01*
Y137500D01*
X251937D01*
Y139000D01*
X251790Y139741D01*
X251370Y140370D01*
X247600Y144140D01*
X250980Y147520D01*
X251511Y148314D01*
X251603Y148779D01*
X252113D01*
X252254Y148070D01*
X252781Y147281D01*
X253570Y146754D01*
X254500Y146569D01*
X255430Y146754D01*
X256219Y147281D01*
X256746Y148070D01*
X256876Y148725D01*
X257279Y148960D01*
X263879D01*
Y154560D01*
X260415D01*
X260179Y154607D01*
X258150D01*
Y155500D01*
X257991D01*
X257750Y155900D01*
Y156440D01*
X263879D01*
Y162040D01*
X257279D01*
Y160900D01*
X255400D01*
Y158400D01*
X254600D01*
Y160900D01*
X252260D01*
Y164492D01*
X246547D01*
Y166400D01*
X246500Y166636D01*
Y169000D01*
X246100D01*
Y170100D01*
X244000D01*
Y170500D01*
X243600D01*
Y172600D01*
X242192D01*
Y173489D01*
X242246Y173570D01*
X242431Y174500D01*
X242319Y175063D01*
X242713Y175563D01*
X256198D01*
X263646Y168115D01*
X263754Y167570D01*
X264281Y166781D01*
X265070Y166254D01*
X266000Y166069D01*
X266930Y166254D01*
X267719Y166781D01*
X268246Y167570D01*
X268431Y168500D01*
X268246Y169430D01*
X267719Y170219D01*
X266930Y170746D01*
X266385Y170854D01*
X258370Y178870D01*
X257741Y179290D01*
X257000Y179437D01*
X231000D01*
Y180000D01*
X222450D01*
X222298Y180500D01*
X222719Y180781D01*
X223246Y181570D01*
X223431Y182500D01*
X223246Y183430D01*
X223077Y183683D01*
Y187546D01*
X223577Y187720D01*
X224095Y187373D01*
X224837Y187226D01*
X227519D01*
X227612Y187188D01*
X228500Y187071D01*
X229388Y187188D01*
X230215Y187530D01*
X230925Y188075D01*
X231470Y188785D01*
X231813Y189612D01*
X231896Y190247D01*
X231930Y190254D01*
X232719Y190781D01*
X233246Y191570D01*
X233431Y192500D01*
X233246Y193430D01*
X232835Y194045D01*
Y194780D01*
X232696Y195482D01*
X232298Y196077D01*
X232279Y196096D01*
Y198063D01*
X234279D01*
Y197500D01*
X238808D01*
Y195408D01*
X237669Y194269D01*
X237574Y194250D01*
X236785Y193723D01*
X236258Y192934D01*
X236073Y192004D01*
X236258Y191074D01*
X236785Y190285D01*
X237574Y189758D01*
X238504Y189573D01*
X239434Y189758D01*
X240223Y190285D01*
X240750Y191074D01*
X240769Y191169D01*
X242550Y192950D01*
X243025Y193661D01*
X243192Y194500D01*
Y201500D01*
X243500D01*
Y201900D01*
X244600D01*
Y204000D01*
X245000D01*
D01*
X244600D01*
Y206100D01*
X243500D01*
Y206500D01*
X238717D01*
Y217000D01*
X239280D01*
Y221000D01*
Y225500D01*
Y229500D01*
Y234239D01*
X239431Y235000D01*
X239246Y235930D01*
X238719Y236719D01*
X237930Y237246D01*
X237000Y237431D01*
X236070Y237246D01*
X235468Y236844D01*
X235000Y236937D01*
X230500D01*
X229759Y236790D01*
X229130Y236370D01*
X228710Y235741D01*
X228662Y235500D01*
X226279D01*
Y231500D01*
X223280D01*
Y231000D01*
X215280D01*
Y228740D01*
X211130Y224590D01*
X210710Y223962D01*
X210563Y223220D01*
Y203392D01*
X210254Y202930D01*
X210069Y202000D01*
X210254Y201070D01*
X210781Y200281D01*
X211570Y199754D01*
X212500Y199569D01*
X213430Y199754D01*
X214219Y200281D01*
X214746Y201070D01*
X214931Y202000D01*
X214908Y202116D01*
X215315Y202632D01*
X215930Y202754D01*
X216719Y203281D01*
X217246Y204070D01*
X217354Y204615D01*
X217370Y204630D01*
X217790Y205259D01*
X217937Y206000D01*
Y217400D01*
X218880D01*
Y219500D01*
X219280D01*
Y219900D01*
X221379D01*
Y220757D01*
X221880Y220949D01*
X222193Y220791D01*
X222355Y220549D01*
X223082Y220062D01*
X223941Y219892D01*
X224799Y220062D01*
X225220Y220344D01*
X225642Y220062D01*
X226500Y219892D01*
X227358Y220062D01*
X227780Y220344D01*
X228201Y220062D01*
X229059Y219892D01*
X229918Y220062D01*
X230339Y220344D01*
X230760Y220062D01*
X231618Y219892D01*
X232476Y220062D01*
X233204Y220549D01*
X233691Y221276D01*
X233748Y221563D01*
X234279D01*
Y217000D01*
X234842D01*
Y206500D01*
X234279D01*
Y201937D01*
X232279D01*
Y202431D01*
X232320Y202439D01*
X232916Y202837D01*
X233314Y203432D01*
X233453Y204135D01*
Y205100D01*
X231618D01*
Y205500D01*
X231302D01*
Y206865D01*
X231218Y207289D01*
Y208621D01*
X230916Y208561D01*
X230728Y208435D01*
X230645Y208452D01*
X229918Y208938D01*
X229059Y209108D01*
X228201Y208938D01*
X227780Y208656D01*
X227358Y208938D01*
X226634Y209082D01*
X226500Y209108D01*
X226141Y209065D01*
Y209065D01*
X221741D01*
Y204674D01*
X221010Y203943D01*
X220590Y203315D01*
X220442Y202573D01*
Y202500D01*
X219280D01*
Y198000D01*
X218779D01*
Y193000D01*
Y189000D01*
X219202D01*
Y186078D01*
X218957Y185999D01*
X218703Y185995D01*
X218219Y186719D01*
X217430Y187246D01*
X217335Y187265D01*
X216650Y187950D01*
X215939Y188425D01*
X215100Y188592D01*
X214000D01*
Y189000D01*
X205000D01*
Y184000D01*
Y180000D01*
X205360D01*
Y179500D01*
X199595D01*
X198474Y180621D01*
X198530Y181272D01*
X198925Y181575D01*
X199470Y182285D01*
X199812Y183112D01*
X199929Y184000D01*
X199812Y184888D01*
X199470Y185715D01*
X198925Y186425D01*
X198215Y186970D01*
X197388Y187312D01*
X196857Y187382D01*
X192913Y191326D01*
Y246094D01*
X399638D01*
Y237676D01*
D02*
G37*
G36*
X190500Y194208D02*
X190163Y194028D01*
X190000Y193985D01*
X189316Y194121D01*
X189000Y194380D01*
Y195600D01*
X183400D01*
Y192500D01*
X187119D01*
X187379Y192184D01*
X187527Y191442D01*
X187946Y190814D01*
X190425Y188335D01*
X190319Y187835D01*
X189400D01*
Y187900D01*
X188638D01*
X188500Y187927D01*
X166500D01*
X166362Y187900D01*
X165500D01*
Y188500D01*
X163070D01*
X162996Y188877D01*
X162598Y189472D01*
X161548Y190522D01*
Y195073D01*
X154594D01*
Y188500D01*
X152347D01*
Y195054D01*
X145511D01*
Y192214D01*
X145011Y192114D01*
X144970Y192215D01*
X144425Y192925D01*
X143715Y193470D01*
X142888Y193813D01*
X142229Y193899D01*
X141936Y194095D01*
X141500Y194182D01*
Y195600D01*
X135900D01*
Y192500D01*
X138662D01*
X138941Y192000D01*
X138688Y191388D01*
X138571Y190500D01*
X138688Y189612D01*
X139030Y188785D01*
X139305Y188427D01*
X139058Y187927D01*
X119000D01*
X118862Y187900D01*
X118000D01*
Y188500D01*
X115461D01*
X115098Y189043D01*
X113619Y190522D01*
Y195073D01*
X106665D01*
Y188500D01*
X104418D01*
Y195054D01*
X97582D01*
Y194389D01*
X97082Y194220D01*
X96925Y194425D01*
X96215Y194970D01*
X95388Y195312D01*
X94500Y195429D01*
X94376Y195413D01*
X94000Y195743D01*
Y199500D01*
X88400D01*
Y196000D01*
Y192500D01*
X90757D01*
X91087Y192124D01*
X91071Y192000D01*
X91188Y191112D01*
X91530Y190285D01*
X92075Y189575D01*
X92576Y189191D01*
X92564Y188659D01*
X91832Y187927D01*
X71000D01*
X70862Y187900D01*
X70000D01*
Y188500D01*
X67461D01*
X67098Y189043D01*
X65618Y190522D01*
Y195073D01*
X58665D01*
Y188500D01*
X56418D01*
Y195054D01*
X49582D01*
Y188500D01*
X49000D01*
Y182500D01*
X49000D01*
X49169Y182000D01*
X49069Y181500D01*
X49254Y180570D01*
X49781Y179781D01*
X50570Y179254D01*
X51500Y179069D01*
X52430Y179254D01*
X53219Y179781D01*
X53746Y180570D01*
X53931Y181500D01*
X53831Y182000D01*
X54242Y182500D01*
X59000D01*
Y178500D01*
X59665D01*
Y175995D01*
X56981D01*
Y167927D01*
X42500D01*
X41954Y167819D01*
X41927Y167801D01*
X41427Y168069D01*
X41427Y189000D01*
X41319Y189546D01*
X41009Y190009D01*
X40546Y190319D01*
X40000Y190427D01*
X25500D01*
X24954Y190319D01*
X24491Y190009D01*
X24181Y189546D01*
X24073Y189000D01*
Y164091D01*
X19491Y159509D01*
X19181Y159046D01*
X19073Y158500D01*
X19073Y158500D01*
X19073Y122000D01*
X19181Y121454D01*
X19491Y120991D01*
X19491Y120991D01*
X24073Y116409D01*
Y46000D01*
X24181Y45454D01*
X24491Y44991D01*
X24954Y44681D01*
X25500Y44573D01*
X41963D01*
Y30400D01*
X40900D01*
Y24400D01*
Y19400D01*
X51900D01*
Y21665D01*
X62442D01*
X62564Y21180D01*
X62422Y21104D01*
X61309Y20191D01*
X60396Y19078D01*
X59718Y17809D01*
X59300Y16432D01*
X59159Y15000D01*
X59300Y13568D01*
X59718Y12191D01*
X60396Y10922D01*
X61309Y9809D01*
X62422Y8896D01*
X63691Y8218D01*
X65068Y7800D01*
X66500Y7659D01*
X67932Y7800D01*
X69309Y8218D01*
X70578Y8896D01*
X71691Y9809D01*
X72604Y10922D01*
X73282Y12191D01*
X73700Y13568D01*
X73841Y15000D01*
X73700Y16432D01*
X73282Y17809D01*
X72604Y19078D01*
X71691Y20191D01*
X70578Y21104D01*
X70436Y21180D01*
X70558Y21665D01*
X87442D01*
X87564Y21180D01*
X87422Y21104D01*
X86309Y20191D01*
X85396Y19078D01*
X84718Y17809D01*
X84300Y16432D01*
X84159Y15000D01*
X84300Y13568D01*
X84718Y12191D01*
X85396Y10922D01*
X86309Y9809D01*
X87422Y8896D01*
X88691Y8218D01*
X90068Y7800D01*
X91500Y7659D01*
X92932Y7800D01*
X94309Y8218D01*
X95578Y8896D01*
X96691Y9809D01*
X97604Y10922D01*
X98282Y12191D01*
X98700Y13568D01*
X98841Y15000D01*
X98700Y16432D01*
X98282Y17809D01*
X97604Y19078D01*
X96691Y20191D01*
X95578Y21104D01*
X95436Y21180D01*
X95558Y21665D01*
X125942D01*
X126064Y21180D01*
X125922Y21104D01*
X124809Y20191D01*
X123896Y19078D01*
X123218Y17809D01*
X122800Y16432D01*
X122659Y15000D01*
X122800Y13568D01*
X123218Y12191D01*
X123896Y10922D01*
X124809Y9809D01*
X125922Y8896D01*
X127191Y8218D01*
X128568Y7800D01*
X130000Y7659D01*
X131432Y7800D01*
X132809Y8218D01*
X134078Y8896D01*
X135191Y9809D01*
X136104Y10922D01*
X136782Y12191D01*
X137200Y13568D01*
X137341Y15000D01*
X137200Y16432D01*
X136782Y17809D01*
X136104Y19078D01*
X135191Y20191D01*
X134078Y21104D01*
X133936Y21180D01*
X134058Y21665D01*
X140000D01*
X140702Y21804D01*
X141298Y22202D01*
X151760Y32665D01*
X183500D01*
X184202Y32804D01*
X184798Y33202D01*
X190038Y38443D01*
X190500Y38251D01*
Y1937D01*
X1937D01*
Y246094D01*
X190500D01*
Y194208D01*
D02*
G37*
G36*
X188500Y168000D02*
X171283D01*
X171062Y168448D01*
X171374Y168854D01*
X171852Y170009D01*
X172015Y171248D01*
X171852Y172487D01*
X171374Y173642D01*
X170613Y174633D01*
X169621Y175394D01*
X168467Y175872D01*
X167228Y176035D01*
X166876Y175989D01*
X166500Y176319D01*
Y186500D01*
X188500D01*
Y168000D01*
D02*
G37*
G36*
X141000D02*
X123533D01*
X123312Y168448D01*
X123624Y168854D01*
X124102Y170009D01*
X124265Y171248D01*
X124102Y172487D01*
X123624Y173642D01*
X122863Y174633D01*
X121871Y175394D01*
X120717Y175872D01*
X119478Y176035D01*
X119376Y176022D01*
X119000Y176352D01*
Y186500D01*
X141000D01*
Y168000D01*
D02*
G37*
G36*
X93000D02*
X75783D01*
X75562Y168448D01*
X75874Y168854D01*
X76352Y170009D01*
X76515Y171248D01*
X76352Y172487D01*
X75874Y173642D01*
X75113Y174633D01*
X74121Y175394D01*
X72967Y175872D01*
X71728Y176035D01*
X71376Y175989D01*
X71000Y176319D01*
Y186500D01*
X93000D01*
Y168000D01*
D02*
G37*
G36*
X190500Y183020D02*
Y160249D01*
X190038Y160057D01*
X187890Y162205D01*
X187746Y162930D01*
X187219Y163719D01*
X186430Y164246D01*
X185500Y164431D01*
X184570Y164246D01*
X183781Y163719D01*
X183254Y162930D01*
X183069Y162000D01*
X183254Y161070D01*
X183781Y160281D01*
X184570Y159754D01*
X185295Y159610D01*
X189665Y155240D01*
Y136653D01*
X187088D01*
X187049Y136849D01*
X186651Y137445D01*
X185400Y138696D01*
Y142100D01*
X182212D01*
X181974Y142502D01*
Y151995D01*
X173427D01*
Y166500D01*
X173487Y166573D01*
X176377D01*
X177228Y166461D01*
X178078Y166573D01*
X188500D01*
X189046Y166681D01*
X189509Y166991D01*
X189819Y167454D01*
X189927Y168000D01*
Y182801D01*
X190427Y183068D01*
X190500Y183020D01*
D02*
G37*
G36*
X172000Y143000D02*
X160925D01*
X160609Y143335D01*
X160613Y143863D01*
X161374Y144854D01*
X161852Y146009D01*
X162015Y147248D01*
X161852Y148487D01*
X161374Y149642D01*
X160613Y150633D01*
X159621Y151394D01*
X158467Y151872D01*
X157228Y152035D01*
X155989Y151872D01*
X154834Y151394D01*
X153842Y150633D01*
X153082Y149642D01*
X152603Y148487D01*
X152440Y147248D01*
X152603Y146009D01*
X153082Y144854D01*
X153842Y143863D01*
X154315Y143500D01*
X154146Y143000D01*
X134224D01*
Y151995D01*
X124732D01*
Y143000D01*
X113050D01*
X112808Y143253D01*
X112850Y143853D01*
X112863Y143863D01*
X113624Y144854D01*
X114102Y146009D01*
X114266Y147248D01*
X114102Y148487D01*
X113624Y149642D01*
X112863Y150633D01*
X111872Y151394D01*
X110717Y151872D01*
X109478Y152035D01*
X108239Y151872D01*
X107084Y151394D01*
X106093Y150633D01*
X105332Y149642D01*
X104854Y148487D01*
X104691Y147248D01*
X104854Y146009D01*
X105332Y144854D01*
X106093Y143863D01*
X106566Y143500D01*
X106396Y143000D01*
X86474D01*
Y151995D01*
X76981D01*
Y143000D01*
X65104D01*
X64943Y143171D01*
X64990Y143768D01*
X65113Y143863D01*
X65874Y144854D01*
X66352Y146009D01*
X66515Y147248D01*
X66352Y148487D01*
X65874Y149642D01*
X65113Y150633D01*
X64121Y151394D01*
X62967Y151872D01*
X61728Y152035D01*
X60489Y151872D01*
X59334Y151394D01*
X58342Y150633D01*
X57582Y149642D01*
X57103Y148487D01*
X56940Y147248D01*
X57103Y146009D01*
X57582Y144854D01*
X58342Y143863D01*
X58815Y143500D01*
X58646Y143000D01*
X57500D01*
Y133500D01*
X42500D01*
Y166500D01*
X71429D01*
X71728Y166461D01*
X72027Y166500D01*
X81429D01*
X81728Y166461D01*
X82027Y166500D01*
X119179D01*
X119478Y166461D01*
X119777Y166500D01*
X129179D01*
X129478Y166461D01*
X129777Y166500D01*
X166929D01*
X167228Y166461D01*
X167527Y166500D01*
X172000D01*
Y143000D01*
D02*
G37*
G36*
X232587Y172884D02*
X235260D01*
Y172484D01*
X235660D01*
Y169319D01*
X237808D01*
Y168000D01*
X237975Y167161D01*
X238450Y166450D01*
X239335Y165565D01*
X239127Y165065D01*
X235927D01*
Y158937D01*
X235700D01*
X235513Y158900D01*
X234593D01*
Y165065D01*
X228447D01*
Y157935D01*
X228600D01*
Y153900D01*
Y149900D01*
X233600D01*
Y150300D01*
X234700D01*
Y152400D01*
X235100D01*
Y152800D01*
X237200D01*
Y153900D01*
X237600D01*
Y155182D01*
X237741Y155210D01*
X238370Y155630D01*
X239956Y157216D01*
X240376Y157844D01*
X240393Y157935D01*
X242073D01*
Y157935D01*
X242500Y157758D01*
Y154000D01*
X242900D01*
Y152900D01*
X245000D01*
Y152500D01*
X245400D01*
Y150400D01*
X246232D01*
X246439Y149900D01*
X243486Y146947D01*
X230500D01*
X229910Y146830D01*
X217354Y159385D01*
X217246Y159930D01*
X217199Y160000D01*
X217467Y160500D01*
X217700D01*
Y164357D01*
X218240D01*
Y170958D01*
X218723Y171000D01*
X222500D01*
Y175000D01*
X231000D01*
Y175563D01*
X232587D01*
Y172884D01*
D02*
G37*
G36*
X155989Y142624D02*
X156492Y142558D01*
X156603Y141999D01*
X157001Y141404D01*
X160400Y138005D01*
Y135600D01*
X162805D01*
X166665Y131740D01*
Y130000D01*
X166804Y129298D01*
X167202Y128702D01*
X168165Y127740D01*
Y123584D01*
X167703Y123393D01*
X164298Y126798D01*
X163702Y127196D01*
X163000Y127335D01*
X147195D01*
X142489Y132042D01*
Y136554D01*
X139188D01*
X139149Y136749D01*
X138751Y137345D01*
X137500Y138595D01*
Y141573D01*
X154146D01*
X154192Y141582D01*
X154239Y141576D01*
X154464Y141636D01*
X154692Y141681D01*
X154731Y141708D01*
X154777Y141720D01*
X154962Y141861D01*
X155155Y141991D01*
X155181Y142030D01*
X155219Y142059D01*
X155335Y142260D01*
X155464Y142454D01*
X155914Y142655D01*
X155989Y142624D01*
D02*
G37*
G36*
X108239D02*
X108630Y142572D01*
Y142433D01*
X108778Y141691D01*
X109197Y141063D01*
X112500Y137760D01*
Y135500D01*
X121000D01*
Y129500D01*
X126452D01*
Y129427D01*
X133406D01*
Y136000D01*
X134905D01*
X135618Y135287D01*
Y134618D01*
X135653Y134440D01*
Y129446D01*
X139563D01*
X139638Y129335D01*
X139372Y128835D01*
X103045D01*
X102430Y129246D01*
X101500Y129431D01*
X100570Y129246D01*
X99781Y128719D01*
X99330Y128044D01*
X98775Y127891D01*
X94489Y132178D01*
Y136554D01*
X91188D01*
X91149Y136749D01*
X90751Y137345D01*
X89500Y138595D01*
Y141573D01*
X106396D01*
X106442Y141582D01*
X106489Y141576D01*
X106714Y141636D01*
X106942Y141681D01*
X106982Y141708D01*
X107027Y141720D01*
X107212Y141861D01*
X107405Y141991D01*
X107432Y142030D01*
X107469Y142059D01*
X107586Y142260D01*
X107715Y142454D01*
X108164Y142655D01*
X108239Y142624D01*
D02*
G37*
G36*
X248063Y138198D02*
Y137500D01*
X247500D01*
Y137100D01*
X246400D01*
Y135000D01*
X245600D01*
Y137100D01*
X242400D01*
Y135000D01*
X241600D01*
Y137100D01*
X240500D01*
Y137500D01*
X239937D01*
Y142053D01*
X244207D01*
X248063Y138198D01*
D02*
G37*
G36*
X236063Y137500D02*
X235500D01*
Y137100D01*
X234400D01*
Y135000D01*
X233600D01*
Y137100D01*
X230400D01*
Y135000D01*
X230000D01*
Y134600D01*
X227900D01*
Y133500D01*
X227500D01*
Y132937D01*
X226447D01*
Y136986D01*
X231514Y142053D01*
X236063D01*
Y137500D01*
D02*
G37*
G36*
X60349Y142489D02*
X60687Y142271D01*
X60809Y141660D01*
X61229Y141032D01*
X64500Y137760D01*
Y135500D01*
X73000D01*
Y129500D01*
X78452D01*
Y129427D01*
X85406D01*
Y136000D01*
X86905D01*
X87618Y135287D01*
Y134618D01*
X87653Y134440D01*
Y129446D01*
X92029D01*
X96178Y125297D01*
X95987Y124835D01*
X62760D01*
X56390Y131205D01*
X56317Y131573D01*
X56706Y132073D01*
X57500D01*
X58046Y132181D01*
X58509Y132491D01*
X58819Y132954D01*
X58927Y133500D01*
Y141626D01*
X58964Y141636D01*
X59192Y141681D01*
X59231Y141708D01*
X59277Y141720D01*
X59461Y141861D01*
X59655Y141991D01*
X59681Y142030D01*
X59719Y142059D01*
X59835Y142260D01*
X59964Y142454D01*
X60161Y142542D01*
X60349Y142489D01*
D02*
G37*
G36*
X279000Y123050D02*
Y122236D01*
X278798Y122196D01*
X278202Y121798D01*
X276702Y120298D01*
X276304Y119702D01*
X276165Y119000D01*
Y108260D01*
X275240Y107335D01*
X275073D01*
X274600Y107400D01*
Y109100D01*
X272500D01*
Y109900D01*
X274600D01*
Y111400D01*
Y113100D01*
X272500D01*
Y113900D01*
X274600D01*
Y115400D01*
Y117100D01*
X272500D01*
Y117900D01*
X274600D01*
Y119400D01*
Y121100D01*
X272500D01*
Y121900D01*
X274600D01*
Y122301D01*
X275100Y122568D01*
X275570Y122254D01*
X276500Y122069D01*
X277430Y122254D01*
X278219Y122781D01*
X278500Y123202D01*
X279000Y123050D01*
D02*
G37*
G36*
X42500Y132073D02*
X51294D01*
X51683Y131573D01*
X51569Y131000D01*
X51754Y130070D01*
X52281Y129281D01*
X53070Y128754D01*
X53795Y128610D01*
X60702Y121702D01*
X61298Y121304D01*
X62000Y121165D01*
X95307D01*
X95624Y120778D01*
X95569Y120500D01*
X95754Y119570D01*
X96281Y118781D01*
X97070Y118254D01*
X98000Y118069D01*
X98930Y118254D01*
X99545Y118665D01*
X101000D01*
Y114500D01*
X95000D01*
Y117500D01*
X84000D01*
Y116437D01*
X75892D01*
X75430Y116746D01*
X74500Y116931D01*
X73570Y116746D01*
X72781Y116219D01*
X72254Y115430D01*
X72069Y114500D01*
X72254Y113570D01*
X72781Y112781D01*
X73570Y112254D01*
X74500Y112069D01*
X75430Y112254D01*
X75892Y112563D01*
X84000D01*
Y111500D01*
X84400D01*
Y109900D01*
X87000D01*
Y109500D01*
X87400D01*
Y106900D01*
X89000D01*
Y106500D01*
X95000D01*
Y109500D01*
X101779D01*
Y108940D01*
X108379D01*
Y114400D01*
X109600D01*
Y114400D01*
X109900D01*
Y114400D01*
X111046D01*
X111521Y114340D01*
Y109140D01*
X111921D01*
Y108400D01*
X114921D01*
Y107600D01*
X111921D01*
Y106860D01*
X111521D01*
Y102500D01*
X108416D01*
Y103360D01*
X108379Y103547D01*
Y104973D01*
X108416Y105160D01*
X108379Y105347D01*
Y107060D01*
X106666D01*
X106479Y107097D01*
X106292Y107060D01*
X101779D01*
Y102454D01*
X101425Y102100D01*
X100400Y102100D01*
X100300Y102559D01*
Y105150D01*
X95400D01*
Y101750D01*
Y98350D01*
X99166D01*
X99587Y98158D01*
X99587Y97850D01*
Y95392D01*
X102260D01*
Y94992D01*
X102660D01*
Y91827D01*
X104197D01*
X104210Y91759D01*
X104630Y91130D01*
X107725Y88035D01*
X107534Y87573D01*
X102927D01*
Y85945D01*
X100700D01*
Y88050D01*
X89300D01*
Y80450D01*
X100700D01*
Y82071D01*
X102927D01*
Y80443D01*
X109073D01*
Y82063D01*
X112500D01*
Y81500D01*
X117724D01*
X118100Y81200D01*
X118100Y81000D01*
Y77918D01*
X118087Y77888D01*
X117971Y77000D01*
X118071Y76240D01*
Y71667D01*
X117874Y71562D01*
X116821Y70698D01*
X115957Y69646D01*
X115316Y68445D01*
X114920Y67142D01*
X114787Y65787D01*
X114920Y64432D01*
X114935Y64385D01*
X111762Y61212D01*
X111300Y61403D01*
Y65200D01*
X102700D01*
Y61890D01*
X102692Y61829D01*
X102232Y61368D01*
X101767Y60763D01*
X101475Y60057D01*
X101375Y59300D01*
Y59200D01*
X100600D01*
Y53890D01*
X100575Y53700D01*
X100600Y53510D01*
Y50800D01*
X103310D01*
X103500Y50775D01*
X103690Y50800D01*
X107200D01*
Y54744D01*
X107700Y54777D01*
X107788Y54112D01*
X107800Y54082D01*
Y50800D01*
X114400D01*
Y54082D01*
X114412Y54112D01*
X114420Y54170D01*
X119493Y59244D01*
X120377Y58976D01*
X121732Y58842D01*
X123087Y58976D01*
X124390Y59371D01*
X125591Y60013D01*
X126643Y60876D01*
X127507Y61929D01*
X128149Y63130D01*
X128544Y64432D01*
X128677Y65787D01*
X128544Y67142D01*
X128149Y68445D01*
X127507Y69646D01*
X126643Y70698D01*
X125591Y71562D01*
X124929Y71916D01*
Y76900D01*
X124812Y77788D01*
X124700Y78059D01*
Y81200D01*
X121937D01*
X121863Y81270D01*
X121811Y81866D01*
X121892Y81961D01*
X135155D01*
X139058Y78058D01*
X139720Y77616D01*
X140500Y77461D01*
X158985D01*
Y72515D01*
X159011Y72316D01*
Y68946D01*
X160175D01*
Y66500D01*
X160200Y66310D01*
Y63350D01*
X161953D01*
Y61600D01*
X162000Y61364D01*
Y59000D01*
Y55000D01*
X162153D01*
Y53400D01*
X162339Y52464D01*
X162500Y52223D01*
Y50500D01*
X180000D01*
Y55160D01*
X180979D01*
Y60360D01*
X180579D01*
Y61100D01*
X177579D01*
Y61900D01*
X180579D01*
Y62640D01*
X180979D01*
Y63902D01*
X181006Y64040D01*
Y71000D01*
X180947Y71296D01*
Y80215D01*
X174210D01*
Y76101D01*
X172500D01*
Y79100D01*
X169600D01*
Y79900D01*
X172500D01*
Y83300D01*
X172600Y83322D01*
Y85500D01*
X173000D01*
Y85900D01*
X175100D01*
Y87000D01*
X175500D01*
Y91597D01*
X178066D01*
Y90750D01*
X178100Y90578D01*
Y87500D01*
X178500D01*
Y86400D01*
X180600D01*
Y86000D01*
X181000D01*
Y83900D01*
X182700D01*
Y83900D01*
X183000D01*
Y83900D01*
X184700D01*
Y86000D01*
X185500D01*
Y83900D01*
X187200D01*
Y83900D01*
X187500D01*
Y83900D01*
X189200D01*
Y86000D01*
X190000D01*
Y83900D01*
X190500D01*
Y80215D01*
X184053D01*
Y73962D01*
X183992Y73500D01*
Y65240D01*
Y59000D01*
X184109Y58112D01*
X184121Y58082D01*
Y54960D01*
X190500D01*
Y44095D01*
X182740Y36335D01*
X151000D01*
X150298Y36196D01*
X149702Y35798D01*
X139240Y25335D01*
X51900D01*
Y25400D01*
X51500D01*
Y27000D01*
X48900D01*
Y27400D01*
X48500D01*
Y30000D01*
X46900D01*
Y30400D01*
X45837D01*
Y44876D01*
X46009Y44991D01*
X46319Y45454D01*
X46427Y46000D01*
Y56073D01*
X73000D01*
X73546Y56181D01*
X74009Y56491D01*
X74053Y56557D01*
X74553Y56405D01*
Y56058D01*
X74739Y54649D01*
X75283Y53335D01*
X76149Y52207D01*
X84560Y43795D01*
X84555Y43740D01*
X84688Y42385D01*
X85083Y41082D01*
X85725Y39882D01*
X86589Y38829D01*
X87641Y37965D01*
X88842Y37324D01*
X90145Y36928D01*
X91500Y36795D01*
X92855Y36928D01*
X94158Y37324D01*
X95359Y37965D01*
X96411Y38829D01*
X97275Y39882D01*
X97917Y41082D01*
X98312Y42385D01*
X98445Y43740D01*
X98312Y45095D01*
X97917Y46398D01*
X97275Y47599D01*
X96411Y48651D01*
X95359Y49515D01*
X94158Y50157D01*
X93363Y50398D01*
X85447Y58314D01*
Y61086D01*
X85947Y61265D01*
X86589Y60483D01*
X87641Y59619D01*
X88842Y58977D01*
X90145Y58582D01*
X91500Y58448D01*
X92855Y58582D01*
X94158Y58977D01*
X95359Y59619D01*
X96411Y60483D01*
X97275Y61535D01*
X97917Y62736D01*
X98312Y64039D01*
X98445Y65394D01*
X98312Y66749D01*
X97917Y68051D01*
X97275Y69252D01*
X96411Y70305D01*
X95359Y71169D01*
X94158Y71810D01*
X92855Y72206D01*
X91500Y72339D01*
X90145Y72206D01*
X88842Y71810D01*
X87641Y71169D01*
X86589Y70305D01*
X85947Y69522D01*
X85447Y69701D01*
Y82500D01*
X85261Y83910D01*
X84717Y85223D01*
X84435Y85591D01*
X84400Y85854D01*
Y105900D01*
X55600D01*
Y80100D01*
X74553D01*
Y75095D01*
X74053Y74943D01*
X74009Y75009D01*
X73546Y75319D01*
X73000Y75427D01*
X46927D01*
Y125500D01*
X46819Y126046D01*
X46509Y126509D01*
X46509Y126509D01*
X41540Y131479D01*
X41581Y131875D01*
X42035Y132165D01*
X42500Y132073D01*
D02*
G37*
G36*
X141702Y119202D02*
X142298Y118804D01*
X143000Y118665D01*
X149305D01*
X149573Y118165D01*
X149313Y117777D01*
X149292Y117670D01*
X148800Y117650D01*
Y117650D01*
X143000D01*
Y117491D01*
X142600Y117250D01*
X140500D01*
Y114500D01*
X140100D01*
Y114100D01*
X137600D01*
Y113649D01*
X137138Y113457D01*
X129893Y120703D01*
X130084Y121165D01*
X139740D01*
X141702Y119202D01*
D02*
G37*
G36*
X193530Y170785D02*
X194075Y170075D01*
X194785Y169530D01*
X195503Y169233D01*
X196106Y168630D01*
X196425Y168417D01*
X196309Y167893D01*
X195570Y167746D01*
X194781Y167219D01*
X194254Y166430D01*
X194069Y165500D01*
X194254Y164570D01*
X194563Y164108D01*
Y132000D01*
X194710Y131259D01*
X195130Y130630D01*
X205630Y120130D01*
X206259Y119710D01*
X207000Y119563D01*
X214698D01*
X214826Y119435D01*
X215000Y119000D01*
X214759Y118600D01*
X213900D01*
Y116500D01*
X213500D01*
Y116100D01*
X211400D01*
Y115320D01*
X197584D01*
X196882Y115180D01*
X196286Y114782D01*
X193375Y111871D01*
X192913Y112062D01*
Y121775D01*
X193196Y122198D01*
X193335Y122900D01*
Y156000D01*
X193196Y156702D01*
X192913Y157125D01*
Y170968D01*
X193413Y171067D01*
X193530Y170785D01*
D02*
G37*
G36*
X205160Y164357D02*
X209100D01*
Y163400D01*
X211200D01*
Y163000D01*
X211600D01*
Y160900D01*
X212459D01*
X212700Y160500D01*
X212820Y160029D01*
X212754Y159930D01*
X212569Y159000D01*
X212754Y158070D01*
X213281Y157281D01*
X214070Y156754D01*
X214615Y156646D01*
X226900Y144360D01*
X222270Y139730D01*
X221739Y138936D01*
X221553Y138000D01*
Y130962D01*
Y127500D01*
X221739Y126564D01*
X222270Y125770D01*
X226270Y121770D01*
X227064Y121239D01*
X228000Y121053D01*
X228936Y121239D01*
X229683Y121738D01*
X229906Y121683D01*
X230183Y121547D01*
Y117864D01*
X234271D01*
Y106672D01*
X233884Y106354D01*
X233500Y106431D01*
X232570Y106246D01*
X231781Y105719D01*
X231254Y104930D01*
X231110Y104205D01*
X230287Y103383D01*
X229636D01*
Y105462D01*
Y109399D01*
Y113336D01*
Y117317D01*
X221578D01*
X221098Y117798D01*
X220502Y118196D01*
X220000Y118296D01*
Y119000D01*
X219437D01*
Y119500D01*
X219290Y120241D01*
X218870Y120870D01*
X216870Y122870D01*
X216241Y123290D01*
X215500Y123437D01*
X207802D01*
X205517Y125722D01*
X205662Y126201D01*
X205930Y126254D01*
X206719Y126781D01*
X207246Y127570D01*
X207431Y128500D01*
X207246Y129430D01*
X206719Y130219D01*
X205930Y130746D01*
X205000Y130931D01*
X204070Y130746D01*
X203281Y130219D01*
X202754Y129430D01*
X202701Y129162D01*
X202222Y129017D01*
X198437Y132802D01*
Y164108D01*
X198746Y164570D01*
X198931Y165500D01*
X198746Y166430D01*
X198219Y167219D01*
X197704Y167563D01*
X197856Y168063D01*
X201500D01*
X202241Y168210D01*
X202870Y168630D01*
X203290Y169259D01*
X203437Y170000D01*
X205160D01*
Y164357D01*
D02*
G37*
G36*
X137916Y107489D02*
X137709Y106989D01*
X136946D01*
Y100341D01*
X126269D01*
X126011Y100841D01*
X126290Y101259D01*
X126437Y102000D01*
Y105500D01*
X127000D01*
Y109500D01*
Y114000D01*
Y117751D01*
X127462Y117943D01*
X137916Y107489D01*
D02*
G37*
G36*
X136927Y90952D02*
X141093D01*
X142108Y89937D01*
X141901Y89437D01*
X124302D01*
X122437Y91302D01*
Y93787D01*
X122937Y94181D01*
X123500Y94069D01*
X124430Y94254D01*
X125219Y94781D01*
X125746Y95570D01*
X125890Y96295D01*
X126266Y96671D01*
X136927D01*
Y90952D01*
D02*
G37*
G36*
X120400Y105900D02*
X122000D01*
Y105500D01*
X122563D01*
Y102802D01*
X119130Y99370D01*
X118710Y98741D01*
X118563Y98000D01*
Y91302D01*
X118000Y90740D01*
X117500Y90947D01*
Y93000D01*
Y97500D01*
Y101660D01*
X118321D01*
Y105900D01*
X119600D01*
Y108000D01*
X120400D01*
Y105900D01*
D02*
G37*
G36*
X399638Y77262D02*
X388679D01*
Y69738D01*
X399638D01*
Y62182D01*
X399164Y62022D01*
X398885Y62385D01*
X397894Y63146D01*
X396739Y63624D01*
X395500Y63787D01*
X394261Y63624D01*
X393106Y63146D01*
X392115Y62385D01*
X391354Y61394D01*
X390876Y60239D01*
X390713Y59000D01*
X390876Y57761D01*
X391354Y56606D01*
X392115Y55615D01*
X393106Y54854D01*
X394261Y54376D01*
X395500Y54213D01*
X396739Y54376D01*
X397894Y54854D01*
X398885Y55615D01*
X399164Y55978D01*
X399638Y55818D01*
Y51569D01*
X399138Y51399D01*
X398600Y52100D01*
X397692Y52797D01*
X396635Y53235D01*
X395900Y53331D01*
Y49000D01*
Y44669D01*
X396635Y44765D01*
X397692Y45203D01*
X398600Y45900D01*
X399138Y46601D01*
X399638Y46431D01*
Y41569D01*
X399138Y41399D01*
X398600Y42100D01*
X397692Y42797D01*
X396635Y43235D01*
X395900Y43331D01*
Y39000D01*
Y34669D01*
X396635Y34765D01*
X397692Y35203D01*
X398600Y35900D01*
X399138Y36601D01*
X399638Y36431D01*
Y31569D01*
X399138Y31399D01*
X398600Y32100D01*
X397692Y32797D01*
X396635Y33235D01*
X395900Y33331D01*
Y29000D01*
Y24669D01*
X396635Y24765D01*
X397692Y25203D01*
X398600Y25900D01*
X399138Y26601D01*
X399638Y26431D01*
Y12371D01*
X399250Y12100D01*
X396900D01*
Y9500D01*
X396100D01*
Y12100D01*
X393750D01*
X393650Y12500D01*
X387350D01*
Y10835D01*
X379500D01*
Y11500D01*
X370500D01*
Y10835D01*
X367760D01*
X359298Y19298D01*
X358702Y19696D01*
X358000Y19835D01*
X334344D01*
X334246Y20330D01*
X333719Y21119D01*
X333007Y21595D01*
X333031Y21928D01*
X333090Y22095D01*
X333974D01*
Y29000D01*
Y35906D01*
X332335D01*
Y37200D01*
X334300D01*
Y42200D01*
Y45286D01*
X334762Y45478D01*
X339226Y41013D01*
Y31575D01*
X339273Y31338D01*
Y21695D01*
X345223D01*
Y36305D01*
X344120D01*
Y42027D01*
X343934Y42963D01*
X343404Y43757D01*
X314430Y72730D01*
X313636Y73261D01*
X312700Y73447D01*
X308000D01*
X307064Y73261D01*
X306270Y72730D01*
X305739Y71936D01*
X305553Y71000D01*
X305739Y70064D01*
X306270Y69270D01*
X307064Y68739D01*
X308000Y68553D01*
X311686D01*
X331577Y48662D01*
X331386Y48200D01*
X328300D01*
Y48146D01*
X327800Y47994D01*
X327798Y47998D01*
X309498Y66298D01*
X308902Y66696D01*
X308200Y66835D01*
X304066D01*
X303931Y67000D01*
X303746Y67930D01*
X303219Y68719D01*
X302430Y69246D01*
X301500Y69431D01*
X300570Y69246D01*
X299781Y68719D01*
X299254Y67930D01*
X299069Y67000D01*
X298934Y66835D01*
X298545D01*
X298124Y67116D01*
X298079Y67687D01*
X298219Y67781D01*
X298746Y68570D01*
X298931Y69500D01*
X298746Y70430D01*
X298219Y71219D01*
X297430Y71746D01*
X296500Y71931D01*
X295570Y71746D01*
X294781Y71219D01*
X294254Y70430D01*
X294069Y69500D01*
X294254Y68570D01*
X294781Y67781D01*
X295376Y67384D01*
X295421Y66813D01*
X295281Y66719D01*
X294754Y65930D01*
X294569Y65000D01*
X294754Y64070D01*
X294991Y63716D01*
X294754Y63362D01*
X294569Y62432D01*
X294754Y61501D01*
X294991Y61147D01*
X294754Y60793D01*
X294569Y59863D01*
X294754Y58933D01*
X294991Y58579D01*
X294754Y58225D01*
X294569Y57294D01*
X294648Y56900D01*
X294330Y56513D01*
X292292D01*
Y54240D01*
X295058D01*
Y55124D01*
X295557Y55391D01*
X296070Y55049D01*
X296795Y54904D01*
X301500Y50199D01*
Y48422D01*
X301466Y48250D01*
Y47100D01*
X300500D01*
Y42100D01*
Y38100D01*
X301094D01*
Y36305D01*
X299903D01*
Y21695D01*
X305853D01*
Y36305D01*
X304662D01*
Y38100D01*
X305500D01*
Y42100D01*
Y46500D01*
X307900D01*
Y42100D01*
Y38100D01*
X308968D01*
Y36305D01*
X307777D01*
Y21695D01*
X313727D01*
Y36305D01*
X312536D01*
Y38100D01*
X312900D01*
Y42100D01*
Y47100D01*
X312534D01*
Y48250D01*
X312534Y48250D01*
X312500Y48422D01*
Y50751D01*
X312962Y50943D01*
X315265Y48640D01*
Y47100D01*
X314400D01*
Y42100D01*
Y38100D01*
X315816D01*
Y36305D01*
X315651D01*
Y21695D01*
X320873D01*
X321202Y21202D01*
X326610Y15795D01*
X326754Y15070D01*
X327281Y14281D01*
X328070Y13754D01*
X329000Y13569D01*
X329930Y13754D01*
X330545Y14165D01*
X355740D01*
X366202Y3702D01*
X366798Y3304D01*
X367500Y3165D01*
X370500D01*
Y2500D01*
X379500D01*
Y3165D01*
X387350D01*
Y1937D01*
X355853D01*
Y12684D01*
X348328D01*
Y1937D01*
X296798D01*
Y12684D01*
X289273D01*
Y1937D01*
X280853D01*
Y12684D01*
X273328D01*
Y1937D01*
X206050D01*
Y12684D01*
X198525D01*
Y1937D01*
X192913D01*
Y41318D01*
X209038Y57443D01*
X209500Y57251D01*
Y53511D01*
Y49511D01*
X210063D01*
Y45403D01*
X209754Y44941D01*
X209569Y44011D01*
X209754Y43081D01*
X210063Y42619D01*
Y36305D01*
X209155D01*
Y21695D01*
X215105D01*
Y36305D01*
X213937D01*
Y42619D01*
X214246Y43081D01*
X214431Y44011D01*
X214246Y44941D01*
X213937Y45403D01*
Y49511D01*
X214500D01*
Y53511D01*
Y58511D01*
X213784D01*
Y72761D01*
X218216Y77192D01*
X218716Y76985D01*
Y58511D01*
X218000D01*
Y53511D01*
Y49511D01*
X218033D01*
X218301Y49011D01*
X218254Y48941D01*
X218069Y48011D01*
X218254Y47081D01*
X218563Y46619D01*
Y36305D01*
X217029D01*
Y21695D01*
X222979D01*
Y36305D01*
X222437D01*
Y46619D01*
X222746Y47081D01*
X222931Y48011D01*
X222746Y48941D01*
X222699Y49011D01*
X222967Y49511D01*
X223000D01*
Y53511D01*
Y58511D01*
X222284D01*
Y76761D01*
X225595Y80071D01*
X226070Y79754D01*
X226448Y79679D01*
X226544Y79541D01*
X226650Y79129D01*
X226351Y78683D01*
X226216Y78000D01*
Y58511D01*
X225500D01*
Y53511D01*
Y49511D01*
X226063D01*
Y36305D01*
X224903D01*
Y21695D01*
X230853D01*
Y36305D01*
X229937D01*
Y41298D01*
X230437Y41692D01*
X231000Y41580D01*
X231335Y41647D01*
X231500Y41511D01*
Y41511D01*
X239618D01*
X239809Y41049D01*
X235457Y36697D01*
X235196Y36305D01*
X232777D01*
Y21695D01*
X238727D01*
Y34218D01*
X238764Y34405D01*
Y34524D01*
X240151Y35912D01*
X240651Y35704D01*
Y21695D01*
X246601D01*
Y36305D01*
X246601D01*
X246438Y36698D01*
X249174Y39435D01*
X249665Y39218D01*
Y36305D01*
X248525D01*
Y21695D01*
X254475D01*
Y36305D01*
X253335D01*
Y39412D01*
X253746Y40026D01*
X253931Y40956D01*
X253746Y41887D01*
X253219Y42675D01*
X253065Y42778D01*
X253016Y43276D01*
X254740Y45000D01*
X257000D01*
Y41200D01*
X264801D01*
Y36305D01*
X264273D01*
Y21695D01*
X270223D01*
Y36305D01*
X269695D01*
Y39542D01*
X274673D01*
Y46673D01*
X268527D01*
Y46251D01*
X265400D01*
Y47800D01*
X257000D01*
Y48400D01*
X265400D01*
Y50153D01*
X266860D01*
X267796Y50339D01*
X268077Y50527D01*
X270933D01*
Y51160D01*
X271767Y51325D01*
X272096Y51200D01*
X272267Y51109D01*
Y50527D01*
X276326D01*
X276513Y50490D01*
X277287D01*
X277343Y50434D01*
Y47027D01*
X284473D01*
Y50633D01*
X284500Y50644D01*
X284973Y50716D01*
X285330Y50182D01*
X288327Y47186D01*
Y43287D01*
X295458D01*
Y49433D01*
X291559D01*
X290287Y50705D01*
X290478Y51167D01*
X291492D01*
Y53840D01*
Y56513D01*
X289200D01*
Y61400D01*
X280200D01*
Y61400D01*
X279976Y61216D01*
X279400Y61331D01*
X278470Y61146D01*
X277681Y60619D01*
X277154Y59830D01*
X276969Y58900D01*
X277101Y58238D01*
X276770Y57844D01*
X276400Y57950D01*
Y61500D01*
X274566D01*
X274249Y61887D01*
X274331Y62300D01*
X274146Y63230D01*
X273619Y64019D01*
X272830Y64546D01*
X272128Y64686D01*
X272131Y64700D01*
X271946Y65630D01*
X271419Y66419D01*
X270630Y66946D01*
X269905Y67090D01*
X269198Y67798D01*
X268602Y68196D01*
X267900Y68335D01*
X267700D01*
Y70700D01*
X258677D01*
X258500Y70735D01*
X258260D01*
X257698Y71298D01*
X257102Y71696D01*
X256400Y71835D01*
X252560D01*
X251998Y72398D01*
X251988Y72465D01*
X252363Y72900D01*
X253800D01*
Y75000D01*
X254200D01*
Y75400D01*
X256300D01*
Y76500D01*
X256700D01*
Y78792D01*
X257200Y78842D01*
X257254Y78570D01*
X257781Y77781D01*
X258570Y77254D01*
X259500Y77069D01*
X260430Y77254D01*
X260892Y77563D01*
X293646D01*
X293882Y77122D01*
X293754Y76930D01*
X293569Y76000D01*
X293754Y75070D01*
X294281Y74281D01*
X295070Y73754D01*
X296000Y73569D01*
X296930Y73754D01*
X297392Y74063D01*
X327000D01*
X327741Y74210D01*
X328370Y74630D01*
X330802Y77063D01*
X363198D01*
X374063Y66198D01*
Y54392D01*
X373754Y53930D01*
X373569Y53000D01*
X373754Y52070D01*
X374281Y51281D01*
X375070Y50754D01*
X376000Y50569D01*
X376930Y50754D01*
X377719Y51281D01*
X378246Y52070D01*
X378431Y53000D01*
X378246Y53930D01*
X377937Y54392D01*
Y67000D01*
X377790Y67741D01*
X377370Y68370D01*
X365783Y79957D01*
X365486Y80315D01*
X365588Y80669D01*
X365659Y80768D01*
X365897Y80768D01*
X371962D01*
Y82942D01*
X365457D01*
Y81185D01*
X365457Y80913D01*
X365053Y80619D01*
X364741Y80790D01*
X364623Y80813D01*
X364000Y80937D01*
X346097D01*
X346064Y81437D01*
X346430Y81485D01*
X347058Y81745D01*
X347400Y82008D01*
X347900Y81900D01*
Y81900D01*
X349600D01*
Y84000D01*
X350000D01*
Y84400D01*
X352100D01*
Y85500D01*
X352500D01*
Y86963D01*
X353900D01*
X354087Y87000D01*
X363000D01*
Y89163D01*
X365057D01*
Y88242D01*
X373827D01*
X374064Y88195D01*
X379788D01*
X380500Y88053D01*
X381436Y88239D01*
X382230Y88770D01*
X382761Y89564D01*
X382947Y90500D01*
X382761Y91436D01*
X382230Y92230D01*
X382089Y92372D01*
X381295Y92902D01*
X380358Y93089D01*
X379668D01*
Y94191D01*
X365057D01*
Y93037D01*
X363000D01*
Y95260D01*
X363818Y96078D01*
X369287D01*
X369475Y96116D01*
X379668D01*
Y96553D01*
X386000D01*
X386936Y96739D01*
X387730Y97270D01*
X388261Y98064D01*
X388447Y99000D01*
Y104767D01*
X388679Y105171D01*
X399638D01*
Y77262D01*
D02*
G37*
G36*
X275266Y92211D02*
Y85750D01*
X275401Y85067D01*
X275788Y84488D01*
X276217Y84060D01*
X276264Y83824D01*
X275947Y83437D01*
X270043D01*
Y84916D01*
X267943D01*
Y85716D01*
X270304D01*
X270483Y85812D01*
X270570Y85754D01*
X271500Y85569D01*
X272430Y85754D01*
X273219Y86281D01*
X273746Y87070D01*
X273931Y88000D01*
X273746Y88930D01*
X273219Y89719D01*
X272430Y90246D01*
X271500Y90431D01*
X271404Y90412D01*
X271264Y90505D01*
X270522Y90653D01*
X270443D01*
Y91522D01*
X270500Y91569D01*
X271430Y91754D01*
X272219Y92281D01*
X272746Y93070D01*
X272904Y93865D01*
X273383Y94093D01*
X275266Y92211D01*
D02*
G37*
G36*
X305687Y88824D02*
X305739Y88564D01*
X306270Y87770D01*
X307064Y87239D01*
X308000Y87053D01*
X311500D01*
Y87000D01*
X313864D01*
X314100Y86953D01*
X316672D01*
X316900Y86778D01*
X316933Y86500D01*
X316900Y86222D01*
X316403Y85841D01*
X315989Y85302D01*
X315729Y84674D01*
X315641Y84000D01*
X315729Y83326D01*
X315989Y82698D01*
X316142Y82500D01*
X315895Y82000D01*
X314500D01*
Y81437D01*
X298330D01*
X298139Y81899D01*
X305209Y88969D01*
X305687Y88824D01*
D02*
G37*
G36*
X242900Y72900D02*
X243216D01*
Y68900D01*
X243352Y68217D01*
X243738Y67638D01*
X246829Y64548D01*
X246622Y64048D01*
X239927D01*
Y63447D01*
X238500D01*
X237564Y63261D01*
X236770Y62730D01*
X236239Y61936D01*
X236053Y61000D01*
X236239Y60064D01*
X236770Y59270D01*
X237564Y58739D01*
X238500Y58553D01*
X239927D01*
Y57094D01*
X247073D01*
Y63596D01*
X247573Y63803D01*
X248716Y62661D01*
Y54000D01*
X248000D01*
Y49117D01*
X247630Y48870D01*
X247516Y48755D01*
X247054Y48946D01*
Y54847D01*
X239947D01*
Y54511D01*
X231500D01*
Y53948D01*
X230500D01*
Y58511D01*
X229784D01*
Y72900D01*
X230100D01*
Y75000D01*
X230900D01*
Y72900D01*
X234100D01*
Y75000D01*
X234900D01*
Y72900D01*
X238100D01*
Y75000D01*
X238900D01*
Y72900D01*
X242100D01*
Y75000D01*
X242900D01*
Y72900D01*
D02*
G37*
G36*
X211500Y97500D02*
X212063D01*
Y97000D01*
X212210Y96259D01*
X212630Y95630D01*
X213146Y95115D01*
X213254Y94570D01*
X213781Y93781D01*
X214570Y93254D01*
X215115Y93146D01*
X215500Y92760D01*
Y90500D01*
X215900D01*
Y89400D01*
X218000D01*
X220100D01*
Y90500D01*
X220500D01*
Y91645D01*
X225193D01*
X225380Y91683D01*
X227006D01*
X227197Y91221D01*
X210738Y74762D01*
X210351Y74183D01*
X210216Y73500D01*
Y68797D01*
X209716Y68475D01*
X209000Y68617D01*
X208070Y68432D01*
X207281Y67905D01*
X206754Y67116D01*
X206569Y66186D01*
X206754Y65256D01*
X207165Y64641D01*
Y60760D01*
X193375Y46971D01*
X192913Y47162D01*
Y57600D01*
X198700D01*
Y58553D01*
X199788D01*
X200724Y58739D01*
X201518Y59270D01*
X202049Y60064D01*
X202235Y61000D01*
X202049Y61936D01*
X201518Y62730D01*
X200724Y63261D01*
X199788Y63447D01*
X198700D01*
Y64200D01*
X192913D01*
Y65200D01*
X194100D01*
Y68100D01*
Y71000D01*
X192913D01*
Y98590D01*
X196055Y101732D01*
X211500D01*
Y97500D01*
D02*
G37*
G36*
X267400Y57657D02*
X264787D01*
Y55047D01*
X262100D01*
X261864Y55000D01*
X257000D01*
Y54000D01*
X256284D01*
Y59496D01*
X256700Y59700D01*
X267400D01*
Y57657D01*
D02*
G37*
G36*
X40000Y150365D02*
X39781Y150219D01*
X39254Y149430D01*
X39069Y148500D01*
X39254Y147570D01*
X39781Y146781D01*
X40000Y146635D01*
Y131000D01*
X45500Y125500D01*
Y74000D01*
X73000D01*
Y57500D01*
X45000D01*
Y46000D01*
X25500D01*
Y117000D01*
X20500Y122000D01*
X20500Y158500D01*
X25500Y163500D01*
Y189000D01*
X40000D01*
X40000Y150365D01*
D02*
G37*
%LPC*%
G36*
X375200Y244400D02*
X372800D01*
Y240900D01*
X375200D01*
Y244400D01*
D02*
G37*
G36*
X372000D02*
X369600D01*
Y240900D01*
X372000D01*
Y244400D01*
D02*
G37*
G36*
X363800Y244800D02*
X357400D01*
Y242025D01*
X356615D01*
X355858Y241925D01*
X355152Y241633D01*
X354547Y241168D01*
X353338Y239960D01*
X352974Y239974D01*
X351629Y241124D01*
X350120Y242048D01*
X348485Y242725D01*
X346764Y243138D01*
X345000Y243277D01*
X343236Y243138D01*
X341515Y242725D01*
X339880Y242048D01*
X338371Y241124D01*
X337026Y239974D01*
X335876Y238629D01*
X334952Y237120D01*
X334275Y235485D01*
X333862Y233764D01*
X333723Y232000D01*
X333862Y230236D01*
X334275Y228515D01*
X334952Y226880D01*
X335876Y225371D01*
X337026Y224026D01*
X338371Y222877D01*
X339880Y221952D01*
X341515Y221275D01*
X343236Y220862D01*
X345000Y220723D01*
X346764Y220862D01*
X348485Y221275D01*
X350120Y221952D01*
X351629Y222877D01*
X352974Y224026D01*
X354123Y225371D01*
X355048Y226880D01*
X355725Y228515D01*
X356138Y230236D01*
X356277Y232000D01*
X356138Y233764D01*
X355998Y234347D01*
X357826Y236175D01*
X360300D01*
X360490Y236200D01*
X363800D01*
Y244800D01*
D02*
G37*
G36*
X375200Y240100D02*
X372800D01*
Y236600D01*
X375200D01*
Y240100D01*
D02*
G37*
G36*
X372000D02*
X369600D01*
Y236600D01*
X372000D01*
Y240100D01*
D02*
G37*
G36*
X382200Y235453D02*
X381182Y235318D01*
X380233Y234926D01*
X379418Y234300D01*
X378793Y233486D01*
X378400Y232537D01*
X378266Y231519D01*
Y231119D01*
X378400Y230101D01*
X378793Y229152D01*
X379011Y228869D01*
X378852Y228254D01*
X378663Y228127D01*
X378375Y227697D01*
X378294Y227290D01*
X381404D01*
X382200Y227185D01*
X382500Y227224D01*
X382996Y227290D01*
X386706D01*
X386625Y227697D01*
X386337Y228127D01*
X385907Y228414D01*
X385702Y228455D01*
X385494Y229005D01*
X385607Y229152D01*
X386000Y230101D01*
X386134Y231119D01*
Y231519D01*
X386000Y232537D01*
X385607Y233486D01*
X384981Y234300D01*
X384167Y234926D01*
X383218Y235318D01*
X382200Y235453D01*
D02*
G37*
G36*
X295346Y219620D02*
X288653D01*
X287877Y219466D01*
X287218Y219026D01*
X287159Y218937D01*
X286892D01*
X286430Y219246D01*
X285500Y219431D01*
X284570Y219246D01*
X283781Y218719D01*
X283254Y217930D01*
X283069Y217000D01*
X283254Y216070D01*
X283781Y215281D01*
X284570Y214754D01*
X285500Y214569D01*
X286430Y214754D01*
X286892Y215063D01*
X287159D01*
X287218Y214974D01*
X287684Y214664D01*
X287730Y214111D01*
X287720Y214084D01*
X287403Y213841D01*
X286989Y213302D01*
X286729Y212674D01*
X286641Y212000D01*
X286729Y211326D01*
X286894Y210929D01*
X286605Y210429D01*
X274848D01*
X274666Y210666D01*
X273592Y211490D01*
X272342Y212008D01*
X271000Y212185D01*
X269658Y212008D01*
X268408Y211490D01*
X267334Y210666D01*
X266510Y209592D01*
X265992Y208342D01*
X265815Y207000D01*
X265992Y205658D01*
X266510Y204408D01*
X267334Y203334D01*
X268408Y202510D01*
X269658Y201992D01*
X271000Y201816D01*
X272342Y201992D01*
X273592Y202510D01*
X274666Y203334D01*
X274848Y203571D01*
X283154D01*
X283254Y203070D01*
X283781Y202281D01*
X284570Y201754D01*
X285500Y201569D01*
X286175Y201703D01*
X286721Y201393D01*
X286729Y201326D01*
X286989Y200698D01*
X287403Y200159D01*
X287942Y199745D01*
X288563Y199488D01*
Y198000D01*
X279726D01*
X279408Y198387D01*
X279431Y198500D01*
X279246Y199430D01*
X278719Y200219D01*
X277930Y200746D01*
X277000Y200931D01*
X276070Y200746D01*
X275281Y200219D01*
X274754Y199430D01*
X274569Y198500D01*
X274754Y197570D01*
X275063Y197108D01*
Y197000D01*
X275210Y196259D01*
X275630Y195630D01*
X276000Y195260D01*
Y193000D01*
X276400D01*
Y191900D01*
X278500D01*
Y191500D01*
X278900D01*
Y189400D01*
X280000D01*
Y189000D01*
X284563D01*
Y165650D01*
X284000D01*
Y165491D01*
X283600Y165250D01*
X281500D01*
Y162500D01*
Y159750D01*
X283600D01*
X284000Y159509D01*
Y159350D01*
X284453D01*
Y158073D01*
X283571D01*
X283394Y158108D01*
X283298D01*
X283120Y158073D01*
X281594D01*
Y156935D01*
X281462Y156273D01*
X281594Y155611D01*
Y150927D01*
Y144427D01*
X285808D01*
X285858Y144377D01*
X285919Y144070D01*
X286446Y143281D01*
X287235Y142754D01*
X288165Y142569D01*
X289095Y142754D01*
X289884Y143281D01*
X290411Y144070D01*
X290596Y145000D01*
X290411Y145930D01*
X289884Y146719D01*
X289095Y147246D01*
X288548Y147355D01*
Y150927D01*
Y154516D01*
X288630Y154599D01*
X289161Y155393D01*
X289347Y156329D01*
Y158566D01*
X301371D01*
X310718Y149218D01*
X311533Y148593D01*
X312482Y148200D01*
X313500Y148066D01*
X316188D01*
X316709Y147666D01*
X318055Y147109D01*
X319500Y146918D01*
X320945Y147109D01*
X322291Y147666D01*
X323447Y148553D01*
X324334Y149709D01*
X324891Y151055D01*
X325082Y152500D01*
X324891Y153945D01*
X324334Y155291D01*
X323447Y156447D01*
X323434Y156457D01*
Y172895D01*
X333120D01*
Y182388D01*
X315071D01*
X314971Y182888D01*
X315467Y183093D01*
X316282Y183719D01*
X316907Y184533D01*
X317300Y185482D01*
X317434Y186500D01*
Y190612D01*
X333120D01*
Y200105D01*
X319427D01*
Y201500D01*
X323500D01*
Y202063D01*
X324108D01*
X324570Y201754D01*
X325500Y201569D01*
X326430Y201754D01*
X327219Y202281D01*
X327746Y203070D01*
X327931Y204000D01*
X327746Y204930D01*
X327219Y205719D01*
X326430Y206246D01*
X325500Y206431D01*
X324570Y206246D01*
X324108Y205937D01*
X323500D01*
Y210000D01*
Y215000D01*
X323100D01*
Y216100D01*
X321000D01*
Y216500D01*
X320600D01*
Y218600D01*
X318900D01*
Y218600D01*
X318400Y218465D01*
X318328Y218572D01*
X317607Y219055D01*
X316756Y219224D01*
X314400D01*
Y217000D01*
X313600D01*
Y219224D01*
X311244D01*
X310393Y219055D01*
X309672Y218572D01*
X309190Y217851D01*
X309102Y217409D01*
X303400D01*
Y209500D01*
X302600D01*
Y217409D01*
X297376D01*
Y217590D01*
X297221Y218367D01*
X296782Y219026D01*
X296123Y219466D01*
X295346Y219620D01*
D02*
G37*
G36*
X221379Y219100D02*
X219679D01*
Y217400D01*
X221379D01*
Y219100D01*
D02*
G37*
G36*
X323100Y218600D02*
X321400D01*
Y216900D01*
X323100D01*
Y218600D01*
D02*
G37*
G36*
X232018Y208621D02*
Y205900D01*
X233453D01*
Y206865D01*
X233314Y207568D01*
X232916Y208163D01*
X232320Y208561D01*
X232018Y208621D01*
D02*
G37*
G36*
X247100Y206100D02*
X245400D01*
Y204400D01*
X247100D01*
Y206100D01*
D02*
G37*
G36*
Y203600D02*
X245400D01*
Y201900D01*
X247100D01*
Y203600D01*
D02*
G37*
G36*
X278100Y191100D02*
X276400D01*
Y189400D01*
X278100D01*
Y191100D01*
D02*
G37*
G36*
X378768Y176417D02*
X372262D01*
Y174242D01*
X378768D01*
Y176417D01*
D02*
G37*
G36*
X371462D02*
X364957D01*
Y174242D01*
X371462D01*
Y176417D01*
D02*
G37*
G36*
X378768Y173442D02*
X372262D01*
Y171268D01*
X378768D01*
Y173442D01*
D02*
G37*
G36*
X371462D02*
X364957D01*
Y171268D01*
X371462D01*
Y173442D01*
D02*
G37*
G36*
X246100Y172600D02*
X244400D01*
Y170900D01*
X246100D01*
Y172600D01*
D02*
G37*
G36*
X280700Y165250D02*
X278600D01*
Y162900D01*
X280700D01*
Y165250D01*
D02*
G37*
G36*
Y162100D02*
X278600D01*
Y159750D01*
X280700D01*
Y162100D01*
D02*
G37*
G36*
X273821Y161840D02*
X267021D01*
Y156640D01*
X267421D01*
Y155900D01*
X270421D01*
Y155100D01*
X267421D01*
Y154360D01*
X267021D01*
Y149800D01*
X266850D01*
Y144000D01*
X267009D01*
X267250Y143600D01*
X267250Y143500D01*
Y141500D01*
X272750D01*
Y143500D01*
X272750Y143600D01*
X272991Y144000D01*
X273150D01*
Y144447D01*
X279347D01*
Y150946D01*
Y158054D01*
X278182D01*
X278025Y158839D01*
X277550Y159550D01*
X276310Y160790D01*
X275599Y161265D01*
X274760Y161432D01*
X273821D01*
Y161840D01*
D02*
G37*
G36*
X272750Y140700D02*
X270400D01*
Y138600D01*
X272750D01*
Y140700D01*
D02*
G37*
G36*
X269600D02*
X267250D01*
Y138600D01*
X269600D01*
Y140700D01*
D02*
G37*
G36*
X256100Y137100D02*
X254400D01*
Y135400D01*
X256100D01*
Y137100D01*
D02*
G37*
G36*
X371600Y131201D02*
X365094D01*
Y129026D01*
X371600D01*
Y131201D01*
D02*
G37*
G36*
X360600Y128100D02*
X358900D01*
Y126400D01*
X360600D01*
Y128100D01*
D02*
G37*
G36*
X358100D02*
X356400D01*
Y126400D01*
X358100D01*
Y128100D01*
D02*
G37*
G36*
X378906Y128226D02*
X372400D01*
Y126051D01*
X378906D01*
Y128226D01*
D02*
G37*
G36*
X371600D02*
X365094D01*
Y126051D01*
X371600D01*
Y128226D01*
D02*
G37*
G36*
X291628Y114130D02*
X288469D01*
Y110380D01*
X291628D01*
Y114130D01*
D02*
G37*
G36*
X350100Y111100D02*
X345600D01*
X345690Y110649D01*
X346172Y109927D01*
X346893Y109446D01*
X347744Y109276D01*
X350100D01*
Y111100D01*
D02*
G37*
G36*
X291628Y109580D02*
X288469D01*
Y105831D01*
X291628D01*
Y109580D01*
D02*
G37*
G36*
X342600Y101224D02*
X340244D01*
X339393Y101055D01*
X338672Y100573D01*
X338190Y99851D01*
X338100Y99400D01*
X342600D01*
Y101224D01*
D02*
G37*
G36*
X352100Y100600D02*
X350400D01*
Y98900D01*
X352100D01*
Y100600D01*
D02*
G37*
G36*
X44200Y243900D02*
X41800D01*
Y240400D01*
X44200D01*
Y243900D01*
D02*
G37*
G36*
X41000D02*
X38600D01*
Y240400D01*
X41000D01*
Y243900D01*
D02*
G37*
G36*
X32800Y244300D02*
X26400D01*
Y241431D01*
X26358Y241425D01*
X25652Y241133D01*
X25047Y240668D01*
X24338Y239960D01*
X23974Y239974D01*
X22629Y241124D01*
X21120Y242048D01*
X19485Y242725D01*
X17764Y243138D01*
X16000Y243277D01*
X14236Y243138D01*
X12515Y242725D01*
X10880Y242048D01*
X9371Y241124D01*
X8026Y239974D01*
X6876Y238629D01*
X5952Y237120D01*
X5275Y235485D01*
X4862Y233764D01*
X4723Y232000D01*
X4862Y230236D01*
X5275Y228515D01*
X5952Y226880D01*
X6876Y225371D01*
X8026Y224026D01*
X9371Y222877D01*
X10880Y221952D01*
X12515Y221275D01*
X14236Y220862D01*
X16000Y220723D01*
X17764Y220862D01*
X19485Y221275D01*
X21120Y221952D01*
X22629Y222877D01*
X23974Y224026D01*
X25124Y225371D01*
X26048Y226880D01*
X26725Y228515D01*
X27138Y230236D01*
X27277Y232000D01*
X27138Y233764D01*
X26998Y234347D01*
X28326Y235675D01*
X29300D01*
X29490Y235700D01*
X32800D01*
Y244300D01*
D02*
G37*
G36*
X44200Y239600D02*
X41800D01*
Y236100D01*
X44200D01*
Y239600D01*
D02*
G37*
G36*
X41000D02*
X38600D01*
Y236100D01*
X41000D01*
Y239600D01*
D02*
G37*
G36*
X189000Y199500D02*
X183400D01*
Y196400D01*
X189000D01*
Y199500D01*
D02*
G37*
G36*
X141500D02*
X135900D01*
Y196400D01*
X141500D01*
Y199500D01*
D02*
G37*
G36*
X171100D02*
X165500D01*
Y196400D01*
X171100D01*
Y199500D01*
D02*
G37*
G36*
X123600D02*
X118000D01*
Y196400D01*
X123600D01*
Y199500D01*
D02*
G37*
G36*
X75600D02*
X70000D01*
Y196400D01*
X75600D01*
Y199500D01*
D02*
G37*
G36*
X182600D02*
X171900D01*
Y196000D01*
Y192500D01*
X182600D01*
Y196000D01*
Y199500D01*
D02*
G37*
G36*
X171100Y195600D02*
X165500D01*
Y192500D01*
X171100D01*
Y195600D01*
D02*
G37*
G36*
X135100Y199500D02*
X124400D01*
Y196000D01*
Y192500D01*
X135100D01*
Y196000D01*
Y199500D01*
D02*
G37*
G36*
X123600Y195600D02*
X118000D01*
Y192500D01*
X123600D01*
Y195600D01*
D02*
G37*
G36*
X87600Y199500D02*
X76400D01*
Y196000D01*
Y192500D01*
X87600D01*
Y196000D01*
Y199500D01*
D02*
G37*
G36*
X75600Y195600D02*
X70000D01*
Y192500D01*
X75600D01*
Y195600D01*
D02*
G37*
G36*
X44500Y181431D02*
X43570Y181246D01*
X42781Y180719D01*
X42254Y179930D01*
X42069Y179000D01*
X42254Y178070D01*
X42781Y177281D01*
X43570Y176754D01*
X44500Y176569D01*
X45430Y176754D01*
X46219Y177281D01*
X46746Y178070D01*
X46931Y179000D01*
X46746Y179930D01*
X46219Y180719D01*
X45430Y181246D01*
X44500Y181431D01*
D02*
G37*
G36*
X17000Y176431D02*
X16070Y176246D01*
X15281Y175719D01*
X14754Y174930D01*
X14569Y174000D01*
X14754Y173070D01*
X15281Y172281D01*
X16070Y171754D01*
X17000Y171569D01*
X17930Y171754D01*
X18719Y172281D01*
X19246Y173070D01*
X19431Y174000D01*
X19246Y174930D01*
X18719Y175719D01*
X17930Y176246D01*
X17000Y176431D01*
D02*
G37*
G36*
X16000Y27277D02*
X14236Y27138D01*
X12515Y26725D01*
X10880Y26048D01*
X9371Y25124D01*
X8026Y23974D01*
X6876Y22629D01*
X5952Y21120D01*
X5275Y19485D01*
X4862Y17764D01*
X4723Y16000D01*
X4862Y14236D01*
X5275Y12515D01*
X5952Y10880D01*
X6876Y9371D01*
X8026Y8026D01*
X9371Y6876D01*
X10880Y5952D01*
X12515Y5275D01*
X14236Y4862D01*
X16000Y4723D01*
X17764Y4862D01*
X19485Y5275D01*
X21120Y5952D01*
X22629Y6876D01*
X23974Y8026D01*
X25124Y9371D01*
X26048Y10880D01*
X26725Y12515D01*
X27138Y14236D01*
X27277Y16000D01*
X27138Y17764D01*
X26725Y19485D01*
X26048Y21120D01*
X25124Y22629D01*
X23974Y23974D01*
X22629Y25124D01*
X21120Y26048D01*
X19485Y26725D01*
X17764Y27138D01*
X16000Y27277D01*
D02*
G37*
G36*
X234860Y172084D02*
X232587D01*
Y169319D01*
X234860D01*
Y172084D01*
D02*
G37*
G36*
X244600Y152100D02*
X242900D01*
Y150400D01*
X244600D01*
Y152100D01*
D02*
G37*
G36*
X237200Y152000D02*
X235500D01*
Y150300D01*
X237200D01*
Y152000D01*
D02*
G37*
G36*
X151400Y137800D02*
X147900D01*
Y135400D01*
X151400D01*
Y137800D01*
D02*
G37*
G36*
X147100D02*
X143600D01*
Y135400D01*
X147100D01*
Y137800D01*
D02*
G37*
G36*
X151400Y134600D02*
X147900D01*
Y132200D01*
X151400D01*
Y134600D01*
D02*
G37*
G36*
X147100D02*
X143600D01*
Y132200D01*
X147100D01*
Y134600D01*
D02*
G37*
G36*
X103400Y138400D02*
X99900D01*
Y136000D01*
X103400D01*
Y138400D01*
D02*
G37*
G36*
X99100D02*
X95600D01*
Y136000D01*
X99100D01*
Y138400D01*
D02*
G37*
G36*
X103400Y135200D02*
X99900D01*
Y132800D01*
X103400D01*
Y135200D01*
D02*
G37*
G36*
X99100D02*
X95600D01*
Y132800D01*
X99100D01*
Y135200D01*
D02*
G37*
G36*
X229600Y137100D02*
X227900D01*
Y135400D01*
X229600D01*
Y137100D01*
D02*
G37*
G36*
X86600Y109100D02*
X84400D01*
Y106900D01*
X86600D01*
Y109100D01*
D02*
G37*
G36*
X94600Y105150D02*
X89700D01*
Y102150D01*
X94600D01*
Y105150D01*
D02*
G37*
G36*
Y101350D02*
X89700D01*
Y98350D01*
X94600D01*
Y101350D01*
D02*
G37*
G36*
X101860Y94592D02*
X99587D01*
Y91827D01*
X101860D01*
Y94592D01*
D02*
G37*
G36*
X180200Y85600D02*
X178500D01*
Y83900D01*
X180200D01*
Y85600D01*
D02*
G37*
G36*
X175100Y85100D02*
X173400D01*
Y83400D01*
X175100D01*
Y85100D01*
D02*
G37*
G36*
X131500Y80800D02*
X129000D01*
Y77400D01*
X131500D01*
Y80800D01*
D02*
G37*
G36*
X128200D02*
X125700D01*
Y77400D01*
X128200D01*
Y80800D01*
D02*
G37*
G36*
X110900Y76600D02*
X107400D01*
Y74200D01*
X110900D01*
Y76600D01*
D02*
G37*
G36*
X106600D02*
X103100D01*
Y74200D01*
X106600D01*
Y76600D01*
D02*
G37*
G36*
X131500D02*
X129000D01*
Y73200D01*
X131500D01*
Y76600D01*
D02*
G37*
G36*
X128200D02*
X125700D01*
Y73200D01*
X128200D01*
Y76600D01*
D02*
G37*
G36*
X110900Y73400D02*
X107400D01*
Y71000D01*
X110900D01*
Y73400D01*
D02*
G37*
G36*
X106600D02*
X103100D01*
Y71000D01*
X106600D01*
Y73400D01*
D02*
G37*
G36*
X138268Y72733D02*
X136913Y72599D01*
X135610Y72204D01*
X134409Y71562D01*
X133357Y70698D01*
X132493Y69646D01*
X131851Y68445D01*
X131456Y67142D01*
X131323Y65787D01*
X131456Y64432D01*
X131851Y63130D01*
X132493Y61929D01*
X133357Y60876D01*
X134409Y60013D01*
X135610Y59371D01*
X136913Y58976D01*
X138268Y58842D01*
X139623Y58976D01*
X140926Y59371D01*
X142126Y60013D01*
X143179Y60876D01*
X144043Y61929D01*
X144684Y63130D01*
X145080Y64432D01*
X145213Y65787D01*
X145080Y67142D01*
X144684Y68445D01*
X144043Y69646D01*
X143179Y70698D01*
X142126Y71562D01*
X140926Y72204D01*
X139623Y72599D01*
X138268Y72733D01*
D02*
G37*
G36*
X66900Y50244D02*
Y44140D01*
X73004D01*
X72918Y45017D01*
X72545Y46244D01*
X71941Y47375D01*
X71127Y48367D01*
X70135Y49181D01*
X69004Y49785D01*
X67777Y50158D01*
X66900Y50244D01*
D02*
G37*
G36*
X66100D02*
X65223Y50158D01*
X63996Y49785D01*
X62865Y49181D01*
X61873Y48367D01*
X61059Y47375D01*
X60455Y46244D01*
X60082Y45017D01*
X59996Y44140D01*
X66100D01*
Y50244D01*
D02*
G37*
G36*
X73004Y43340D02*
X66900D01*
Y37236D01*
X67777Y37323D01*
X69004Y37695D01*
X70135Y38300D01*
X71127Y39113D01*
X71941Y40105D01*
X72545Y41236D01*
X72918Y42464D01*
X73004Y43340D01*
D02*
G37*
G36*
X66100D02*
X59996D01*
X60082Y42464D01*
X60455Y41236D01*
X61059Y40105D01*
X61873Y39113D01*
X62865Y38300D01*
X63996Y37695D01*
X65223Y37323D01*
X66100Y37236D01*
Y43340D01*
D02*
G37*
G36*
X138268Y51079D02*
X136913Y50946D01*
X135610Y50550D01*
X134409Y49909D01*
X133357Y49045D01*
X132493Y47992D01*
X131851Y46792D01*
X131456Y45489D01*
X131323Y44134D01*
X131456Y42779D01*
X131851Y41476D01*
X132493Y40275D01*
X133357Y39223D01*
X134409Y38359D01*
X135610Y37717D01*
X136913Y37322D01*
X138268Y37189D01*
X139623Y37322D01*
X140926Y37717D01*
X142126Y38359D01*
X143179Y39223D01*
X144043Y40275D01*
X144684Y41476D01*
X145080Y42779D01*
X145213Y44134D01*
X145080Y45489D01*
X144684Y46792D01*
X144043Y47992D01*
X143179Y49045D01*
X142126Y49909D01*
X140926Y50550D01*
X139623Y50946D01*
X138268Y51079D01*
D02*
G37*
G36*
X121732D02*
X120377Y50946D01*
X119074Y50550D01*
X117874Y49909D01*
X116821Y49045D01*
X115957Y47992D01*
X115316Y46792D01*
X114920Y45489D01*
X114787Y44134D01*
X114920Y42779D01*
X115316Y41476D01*
X115957Y40275D01*
X116821Y39223D01*
X117874Y38359D01*
X119074Y37717D01*
X120377Y37322D01*
X121732Y37189D01*
X123087Y37322D01*
X124390Y37717D01*
X125591Y38359D01*
X126643Y39223D01*
X127507Y40275D01*
X128149Y41476D01*
X128544Y42779D01*
X128677Y44134D01*
X128544Y45489D01*
X128149Y46792D01*
X127507Y47992D01*
X126643Y49045D01*
X125591Y49909D01*
X124390Y50550D01*
X123087Y50946D01*
X121732Y51079D01*
D02*
G37*
G36*
X51500Y30000D02*
X49300D01*
Y27800D01*
X51500D01*
Y30000D01*
D02*
G37*
G36*
X139700Y117250D02*
X137600D01*
Y114900D01*
X139700D01*
Y117250D01*
D02*
G37*
G36*
X213100Y118600D02*
X211400D01*
Y116900D01*
X213100D01*
Y118600D01*
D02*
G37*
G36*
X210800Y162600D02*
X209100D01*
Y160900D01*
X210800D01*
Y162600D01*
D02*
G37*
G36*
X379268Y85917D02*
X372762D01*
Y83742D01*
X379268D01*
Y85917D01*
D02*
G37*
G36*
X371962D02*
X365457D01*
Y83742D01*
X371962D01*
Y85917D01*
D02*
G37*
G36*
X352100Y83600D02*
X350400D01*
Y81900D01*
X352100D01*
Y83600D01*
D02*
G37*
G36*
X379268Y82942D02*
X372762D01*
Y80768D01*
X379268D01*
Y82942D01*
D02*
G37*
G36*
X256300Y74600D02*
X254600D01*
Y72900D01*
X256300D01*
Y74600D01*
D02*
G37*
G36*
X274000Y71931D02*
X273070Y71746D01*
X272281Y71219D01*
X271754Y70430D01*
X271569Y69500D01*
X271754Y68570D01*
X272281Y67781D01*
X273070Y67254D01*
X274000Y67069D01*
X274069Y67000D01*
X274254Y66070D01*
X274781Y65281D01*
X275570Y64754D01*
X276500Y64569D01*
X277430Y64754D01*
X278219Y65281D01*
X278746Y66070D01*
X278931Y67000D01*
X278746Y67930D01*
X278219Y68719D01*
X277430Y69246D01*
X276500Y69431D01*
X276431Y69500D01*
X276246Y70430D01*
X275719Y71219D01*
X274930Y71746D01*
X274000Y71931D01*
D02*
G37*
G36*
X295058Y53440D02*
X292292D01*
Y51167D01*
X295058D01*
Y53440D01*
D02*
G37*
G36*
X395100Y53331D02*
X394365Y53235D01*
X393308Y52797D01*
X392400Y52100D01*
X391703Y51192D01*
X391265Y50135D01*
X391169Y49400D01*
X395100D01*
Y53331D01*
D02*
G37*
G36*
X345000Y71277D02*
X343236Y71138D01*
X341515Y70725D01*
X339880Y70048D01*
X338371Y69124D01*
X337026Y67974D01*
X335876Y66629D01*
X334952Y65120D01*
X334275Y63485D01*
X333862Y61764D01*
X333723Y60000D01*
X333862Y58236D01*
X334275Y56515D01*
X334952Y54880D01*
X335876Y53371D01*
X337026Y52026D01*
X338371Y50876D01*
X339880Y49952D01*
X341515Y49275D01*
X343236Y48862D01*
X345000Y48723D01*
X346764Y48862D01*
X348485Y49275D01*
X350120Y49952D01*
X351629Y50876D01*
X352974Y52026D01*
X354123Y53371D01*
X355048Y54880D01*
X355725Y56515D01*
X356138Y58236D01*
X356277Y60000D01*
X356138Y61764D01*
X355725Y63485D01*
X355048Y65120D01*
X354123Y66629D01*
X352974Y67974D01*
X351629Y69124D01*
X350120Y70048D01*
X348485Y70725D01*
X346764Y71138D01*
X345000Y71277D01*
D02*
G37*
G36*
X395100Y48600D02*
X391169D01*
X391265Y47865D01*
X391703Y46808D01*
X392400Y45900D01*
X393308Y45203D01*
X394365Y44765D01*
X395100Y44669D01*
Y48600D01*
D02*
G37*
G36*
Y43331D02*
X394365Y43235D01*
X393308Y42797D01*
X392400Y42100D01*
X391703Y41192D01*
X391265Y40135D01*
X391169Y39400D01*
X395100D01*
Y43331D01*
D02*
G37*
G36*
Y38600D02*
X391169D01*
X391265Y37865D01*
X391703Y36808D01*
X392400Y35900D01*
X393308Y35203D01*
X394365Y34765D01*
X395100Y34669D01*
Y38600D01*
D02*
G37*
G36*
X336949Y35906D02*
X334774D01*
Y29400D01*
X336949D01*
Y35906D01*
D02*
G37*
G36*
X261949D02*
X259774D01*
Y29400D01*
X261949D01*
Y35906D01*
D02*
G37*
G36*
X395100Y33331D02*
X394365Y33235D01*
X393308Y32797D01*
X392400Y32100D01*
X391703Y31192D01*
X391265Y30135D01*
X391169Y29400D01*
X395100D01*
Y33331D01*
D02*
G37*
G36*
X258974Y35906D02*
X256799D01*
Y29400D01*
X258974D01*
Y35906D01*
D02*
G37*
G36*
X395100Y28600D02*
X391169D01*
X391265Y27865D01*
X391703Y26808D01*
X392400Y25900D01*
X393308Y25203D01*
X394365Y24765D01*
X395100Y24669D01*
Y28600D01*
D02*
G37*
G36*
X365500Y63787D02*
X364261Y63624D01*
X363106Y63146D01*
X362115Y62385D01*
X361354Y61394D01*
X360876Y60239D01*
X360713Y59000D01*
X360876Y57761D01*
X361354Y56606D01*
X362115Y55615D01*
X363106Y54854D01*
X364261Y54376D01*
X365199Y54252D01*
Y53748D01*
X364261Y53624D01*
X363106Y53146D01*
X362115Y52385D01*
X361354Y51394D01*
X360876Y50239D01*
X360713Y49000D01*
X360876Y47761D01*
X361354Y46606D01*
X362115Y45615D01*
X363106Y44854D01*
X364261Y44376D01*
X365199Y44252D01*
Y43748D01*
X364261Y43624D01*
X363106Y43146D01*
X362115Y42385D01*
X361354Y41394D01*
X360876Y40239D01*
X360713Y39000D01*
X360876Y37761D01*
X361354Y36606D01*
X362115Y35615D01*
X363106Y34854D01*
X364261Y34376D01*
X365199Y34252D01*
Y33748D01*
X364261Y33624D01*
X363106Y33146D01*
X362115Y32385D01*
X361354Y31394D01*
X360876Y30239D01*
X360713Y29000D01*
X360876Y27761D01*
X361354Y26606D01*
X362115Y25615D01*
X363106Y24854D01*
X364261Y24376D01*
X365500Y24213D01*
X366739Y24376D01*
X367894Y24854D01*
X368885Y25615D01*
X369646Y26606D01*
X370124Y27761D01*
X370287Y29000D01*
X370124Y30239D01*
X369646Y31394D01*
X368885Y32385D01*
X367894Y33146D01*
X366739Y33624D01*
X365800Y33748D01*
Y34252D01*
X366739Y34376D01*
X367894Y34854D01*
X368885Y35615D01*
X369646Y36606D01*
X370124Y37761D01*
X370287Y39000D01*
X370124Y40239D01*
X369646Y41394D01*
X368885Y42385D01*
X367894Y43146D01*
X366739Y43624D01*
X365800Y43748D01*
Y44252D01*
X366739Y44376D01*
X367894Y44854D01*
X368885Y45615D01*
X369646Y46606D01*
X370124Y47761D01*
X370287Y49000D01*
X370124Y50239D01*
X369646Y51394D01*
X368885Y52385D01*
X367894Y53146D01*
X366739Y53624D01*
X365800Y53748D01*
Y54252D01*
X366739Y54376D01*
X367894Y54854D01*
X368885Y55615D01*
X369646Y56606D01*
X370124Y57761D01*
X370287Y59000D01*
X370124Y60239D01*
X369646Y61394D01*
X368885Y62385D01*
X367894Y63146D01*
X366739Y63624D01*
X365500Y63787D01*
D02*
G37*
G36*
X336949Y28600D02*
X334774D01*
Y22095D01*
X336949D01*
Y28600D01*
D02*
G37*
G36*
X261949D02*
X259774D01*
Y22095D01*
X261949D01*
Y28600D01*
D02*
G37*
G36*
X258974D02*
X256799D01*
Y22095D01*
X258974D01*
Y28600D01*
D02*
G37*
G36*
X220100Y88600D02*
X218400D01*
Y86900D01*
X220100D01*
Y88600D01*
D02*
G37*
G36*
X217600D02*
X215900D01*
Y86900D01*
X217600D01*
Y88600D01*
D02*
G37*
G36*
X207812Y100439D02*
X203187D01*
X202373Y100277D01*
X201682Y99815D01*
X201221Y99125D01*
X201059Y98311D01*
Y94186D01*
X201221Y93371D01*
X201682Y92681D01*
X202373Y92219D01*
X202571Y92180D01*
X202696Y91645D01*
X202290Y91334D01*
X201625Y90467D01*
X201207Y89457D01*
X201064Y88374D01*
X201207Y87291D01*
X201625Y86281D01*
X202290Y85414D01*
X203157Y84749D01*
X203307Y84687D01*
Y84187D01*
X203157Y84125D01*
X202290Y83460D01*
X201625Y82593D01*
X201207Y81583D01*
X201064Y80500D01*
X201207Y79417D01*
X201625Y78407D01*
X202290Y77540D01*
X203157Y76875D01*
X203780Y76617D01*
Y76076D01*
X203359Y75902D01*
X202575Y75301D01*
X201974Y74517D01*
X201596Y73605D01*
X201520Y73026D01*
X205500D01*
X209480D01*
X209403Y73605D01*
X209026Y74517D01*
X208424Y75301D01*
X207641Y75902D01*
X207220Y76076D01*
Y76617D01*
X207843Y76875D01*
X208710Y77540D01*
X209375Y78407D01*
X209793Y79417D01*
X209936Y80500D01*
X209793Y81583D01*
X209375Y82593D01*
X208710Y83460D01*
X207843Y84125D01*
X207693Y84187D01*
Y84687D01*
X207843Y84749D01*
X208710Y85414D01*
X209375Y86281D01*
X209793Y87291D01*
X209936Y88374D01*
X209793Y89457D01*
X209375Y90467D01*
X208710Y91334D01*
X208304Y91645D01*
X208429Y92180D01*
X208627Y92219D01*
X209317Y92681D01*
X209779Y93371D01*
X209941Y94186D01*
Y98311D01*
X209779Y99125D01*
X209317Y99815D01*
X208627Y100277D01*
X207812Y100439D01*
D02*
G37*
G36*
X205100Y72226D02*
X201520D01*
X201596Y71647D01*
X201974Y70735D01*
X202575Y69951D01*
X203359Y69350D01*
X204271Y68972D01*
X205100Y68863D01*
Y72226D01*
D02*
G37*
G36*
X209480D02*
X205900D01*
Y68863D01*
X206729Y68972D01*
X207641Y69350D01*
X208424Y69951D01*
X209026Y70735D01*
X209403Y71647D01*
X209480Y72226D01*
D02*
G37*
G36*
X198300Y71000D02*
X194900D01*
Y68500D01*
X198300D01*
Y71000D01*
D02*
G37*
G36*
Y67700D02*
X194900D01*
Y65200D01*
X198300D01*
Y67700D01*
D02*
G37*
%LPD*%
G54D11*
X267689Y89062D02*
X268036Y88716D01*
X251794Y75000D02*
X254000D01*
X248100D02*
X251794D01*
X286700Y51552D02*
Y58900D01*
Y51552D02*
X290227Y48025D01*
Y47533D02*
Y48025D01*
Y47533D02*
X291400Y46360D01*
X291892D01*
X275340Y53600D02*
Y54092D01*
Y53600D02*
X276513Y52427D01*
X278089D01*
X280416Y50100D01*
X280908D01*
X274167Y55265D02*
X275340Y54092D01*
X274167Y55265D02*
Y58733D01*
X273900Y59000D02*
X274167Y58733D01*
X267860Y54092D02*
Y54584D01*
X269676Y56400D01*
Y58776D01*
X269900Y59000D01*
X185100Y86000D02*
X189600D01*
X180600D02*
X185100D01*
X190400Y112200D02*
Y113850D01*
X189150Y115100D02*
X190400Y113850D01*
X286000Y124500D02*
X288300D01*
X285500Y125000D02*
X286000Y124500D01*
X314000Y93500D02*
X314500Y94000D01*
X321000D01*
X157867Y118500D02*
X158000D01*
X156383Y117016D02*
X157867Y118500D01*
X153700Y117016D02*
X156383D01*
X148335Y118165D02*
X149758D01*
X150907Y117016D01*
X153700D01*
X212500Y202000D02*
Y223220D01*
X217779Y228500D01*
X215000Y205000D02*
X216000Y206000D01*
X267436Y88809D02*
Y89316D01*
X267689Y89062D01*
X229500Y144500D02*
X230500D01*
X215000Y159000D02*
X229500Y144500D01*
X244500D02*
X250000Y139000D01*
Y135000D02*
Y139000D01*
X237500Y144500D02*
X238000Y144000D01*
Y135000D02*
Y144000D01*
X224000Y130962D02*
X224038Y131000D01*
X230000D01*
X321000Y126500D02*
X328500D01*
X196500Y132000D02*
X207000Y121500D01*
X196500Y132000D02*
Y165500D01*
X207000Y121500D02*
X215500D01*
X215000Y159000D02*
X215100Y159100D01*
Y162900D01*
X215200Y163000D01*
X216000Y206000D02*
Y222000D01*
X216900Y222900D01*
X218679D01*
X236779Y204000D02*
X241000D01*
X257000Y177500D02*
X266000Y168500D01*
X142500Y87500D02*
X147000Y83000D01*
X123500Y87500D02*
X142500D01*
X120500Y90500D02*
X123500Y87500D01*
X44000Y49500D02*
Y51500D01*
X43900Y49400D02*
X44000Y49500D01*
X43900Y27400D02*
Y49400D01*
X74500Y114500D02*
X87000D01*
X238000Y52011D02*
X242918D01*
X243500Y51429D01*
X249000Y47500D02*
X250500D01*
X236827Y35327D02*
X249000Y47500D01*
X236827Y34405D02*
Y35327D01*
X243626Y29000D02*
Y36626D01*
X254500Y47500D01*
X235752Y29000D02*
Y33331D01*
X236827Y34405D01*
X228000Y29122D02*
Y52011D01*
X227878Y29000D02*
X228000Y29122D01*
X220500Y48011D02*
Y52011D01*
Y29496D02*
Y48011D01*
X220004Y29000D02*
X220500Y29496D01*
X212000Y29130D02*
Y44011D01*
Y29130D02*
X212130Y29000D01*
X247762Y91500D02*
X248000D01*
X246262Y93000D02*
X247762Y91500D01*
X246000Y93000D02*
X246262D01*
X249945Y92945D02*
X250000Y93000D01*
X249945Y86839D02*
Y92945D01*
X230000Y126752D02*
X232087Y124665D01*
Y122303D02*
Y124665D01*
X230000Y126752D02*
Y131000D01*
X253913Y122303D02*
Y127500D01*
X254000D02*
Y131000D01*
X215500Y121500D02*
X217500Y119500D01*
Y116500D02*
Y119500D01*
X221000Y182500D02*
X221140Y182640D01*
Y191360D01*
X221280Y191500D01*
X228500Y177500D02*
X257000D01*
X254500Y149000D02*
Y152100D01*
X220000Y177500D02*
X224500D01*
X215440D02*
X220000D01*
X238586Y158586D02*
Y161086D01*
X237000Y157000D02*
X238586Y158586D01*
X235700Y157000D02*
X237000D01*
X238586Y161086D02*
X239000Y161500D01*
X235100Y156400D02*
X235700Y157000D01*
X207500Y186500D02*
X211500D01*
X207500Y182500D02*
X207960Y182040D01*
Y177500D02*
Y182040D01*
X203200Y172500D02*
X203700Y173000D01*
X207945D01*
X118500Y88500D02*
X120500Y90500D01*
Y98000D01*
X124500Y102000D01*
Y108000D01*
X110000Y88500D02*
X118500D01*
X62598Y142402D02*
Y146377D01*
X61728Y147248D02*
X62598Y146377D01*
Y142402D02*
X67000Y138000D01*
X110567Y142433D02*
Y146159D01*
X109478Y147248D02*
X110567Y146159D01*
Y142433D02*
X115000Y138000D01*
X183570Y112070D02*
X184000Y112500D01*
X177300Y111898D02*
X177472Y112070D01*
X106000Y92500D02*
X110000Y88500D01*
X106000Y92500D02*
Y99500D01*
X106500Y100000D01*
X106000Y84008D02*
X106008Y84000D01*
X115000D01*
X95242Y84008D02*
X95750Y83500D01*
X95000Y84250D02*
X95242Y84008D01*
X106000D01*
X24000Y136500D02*
X26500D01*
X109750Y116500D02*
X112000D01*
X107500D02*
X109750D01*
Y109750D02*
Y116500D01*
Y109750D02*
X111421Y108079D01*
X114842D01*
X114921Y108000D01*
X120000D01*
Y112000D02*
X124500D01*
Y116500D01*
X116000D02*
X120500D01*
X286500Y162900D02*
X286900Y162500D01*
X286500Y162900D02*
Y191500D01*
X282500D02*
X286500D01*
X291129Y202000D02*
X292000D01*
X290500Y201371D02*
X291129Y202000D01*
X290500Y195500D02*
Y201371D01*
X295500Y186500D02*
X300500D01*
X290500Y191500D02*
X295500Y186500D01*
X370822Y90757D02*
X373949D01*
X372000Y136500D02*
X374331D01*
X360000D02*
X372000D01*
X373949Y90757D02*
X375243D01*
X316000Y126900D02*
Y128500D01*
X315600Y126500D02*
X316000Y126900D01*
Y128500D02*
X317500Y130000D01*
X326018D01*
X311500Y114000D02*
Y128500D01*
X315500Y132500D01*
X325000D01*
X396500Y4500D02*
Y9500D01*
X207945Y173000D02*
X219200D01*
X207960Y167657D02*
Y172985D01*
X207945Y173000D02*
X207960Y172985D01*
X219200Y173000D02*
X219700Y173500D01*
X229780Y200000D02*
X236779D01*
X226500Y200721D02*
Y205500D01*
X225780Y200000D02*
X226500Y200721D01*
X231618Y223500D02*
X236779D01*
X218679Y222900D02*
X219280Y223500D01*
X226500D02*
Y228279D01*
X226029Y228750D02*
X226500Y228279D01*
X229279Y228500D02*
Y232500D01*
X221530Y195750D02*
Y199750D01*
X225780Y195500D02*
Y200000D01*
X236779Y204000D02*
Y219500D01*
Y223500D02*
Y228000D01*
X229059Y200721D02*
Y205500D01*
Y200721D02*
X229780Y200000D01*
X229059Y223500D02*
Y228279D01*
X229279Y228500D01*
X228780Y233000D02*
X229279Y232500D01*
X221280Y195500D02*
X221530Y195750D01*
X223941Y204135D02*
Y205500D01*
X221779Y200000D02*
X222379Y200600D01*
Y202573D01*
X221530Y199750D02*
X221779Y200000D01*
X222379Y202573D02*
X223941Y204135D01*
X222029Y228750D02*
X226029D01*
X221779Y228500D02*
X222029Y228750D01*
X219280Y223500D02*
X223941D01*
X371646Y181500D02*
X371862Y181717D01*
X361200Y181500D02*
X371646D01*
X355500Y181200D02*
X355800Y181500D01*
X355500Y159482D02*
Y181200D01*
X285500Y217000D02*
X292000D01*
X277000Y197000D02*
Y198500D01*
Y197000D02*
X278500Y195500D01*
X282500D02*
X286500D01*
X278500D02*
X282500D01*
X370362Y91216D02*
X370822Y90757D01*
X370362Y99090D02*
X370453Y99000D01*
X369579Y182000D02*
X369862Y181717D01*
X212000Y44011D02*
Y52011D01*
X229000Y85000D02*
X232173D01*
X260500Y130000D02*
X297000D01*
X258000Y127500D02*
X260500Y130000D01*
X297000D02*
X308500Y141500D01*
X367034Y221772D02*
X382500D01*
X342382Y197120D02*
X367034Y221772D01*
X308500Y141500D02*
X322000D01*
X342382Y161882D01*
Y197120D01*
X261700Y127200D02*
X297200D01*
X308941Y138941D01*
X258000Y123500D02*
X261700Y127200D01*
X368093Y219213D02*
X382500D01*
X344941Y196060D02*
X368093Y219213D01*
X308941Y138941D02*
X323060D01*
X344941Y160822D01*
Y196060D01*
X311500Y113500D02*
Y114000D01*
X352000Y159500D02*
Y186000D01*
X325000Y132500D02*
X352000Y159500D01*
X311500Y113500D02*
X313500Y111500D01*
X352000Y186000D02*
X355500Y189500D01*
X313500Y111500D02*
X317000D01*
X326018Y130000D02*
X355500Y159482D01*
X220000Y96500D02*
X220262D01*
X221282Y97520D01*
X225193D01*
X225284Y97610D01*
X232173Y85000D02*
Y86783D01*
X281500Y121000D02*
Y125000D01*
X115000Y100000D02*
Y104181D01*
X114921Y104260D02*
X115000Y104181D01*
Y95500D02*
Y100000D01*
X92000Y112000D02*
Y114500D01*
Y109500D02*
Y112000D01*
X96500D01*
X314000Y207000D02*
Y212000D01*
X321000Y208000D02*
Y212500D01*
X314250Y212250D02*
X320750D01*
X321000Y84000D02*
X321000Y84000D01*
X321000Y79500D02*
Y84000D01*
Y99000D02*
X321000Y99000D01*
X321000Y99000D02*
Y103500D01*
Y111500D02*
X328500D01*
Y119000D02*
Y121500D01*
Y116500D02*
Y119000D01*
X328000Y119500D02*
X328500Y119000D01*
X321000Y119500D02*
X328000D01*
X109740Y94500D02*
Y94992D01*
Y94500D02*
X112400Y91840D01*
X114660D01*
X115000Y91500D01*
X359500Y189500D02*
X369772D01*
X369862Y189591D01*
X238000Y48011D02*
Y52011D01*
Y44011D02*
Y48011D01*
X100630Y111870D02*
X104449D01*
X104579Y111740D01*
X103679Y112640D02*
X104449Y111870D01*
X104579Y111740D02*
X105079D01*
X103679Y112640D02*
Y116321D01*
X103500Y116500D02*
X103679Y116321D01*
X100500Y112000D02*
X100630Y111870D01*
X115300Y111740D02*
X116000Y112440D01*
Y116500D01*
X285500Y204000D02*
Y207000D01*
X321000Y204000D02*
X325500D01*
X231000Y44011D02*
X234000D01*
X231000Y48011D02*
X234000D01*
X228000Y52011D02*
X234000D01*
X360000Y90000D02*
X361100Y91100D01*
X370246D01*
X370362Y91216D01*
X360000Y95000D02*
X363016Y98016D01*
X369287D01*
X370362Y99090D01*
X360000Y144500D02*
X360126Y144374D01*
X370000D01*
X350000Y88000D02*
X350900Y88900D01*
X353900D01*
X355000Y90000D01*
X349000Y89000D02*
X350000Y88000D01*
X343000Y89000D02*
X349000D01*
X354500Y94500D02*
X355000Y95000D01*
X350000Y94500D02*
X354500D01*
X349750Y94250D02*
X350000Y94500D01*
X343250Y94250D02*
X349750D01*
X343000Y94000D02*
X343250Y94250D01*
X295000Y81500D02*
X317000Y103500D01*
X249890Y86783D02*
X249945Y86839D01*
X260000Y83500D02*
X262000Y81500D01*
X295000D01*
X248000Y86862D02*
Y91500D01*
X247921Y86783D02*
X248000Y86862D01*
X259500Y79500D02*
X317000D01*
X253827Y122216D02*
X253913Y122303D01*
X264000Y121500D02*
X268500D01*
X260500Y118000D02*
X264000Y121500D01*
X260500Y115417D02*
Y118000D01*
Y115417D02*
X260591Y115327D01*
X260717D01*
X266000Y115511D02*
Y118000D01*
X263937Y113449D02*
X266000Y115511D01*
X260807Y113449D02*
X263937D01*
X260717Y113358D02*
X260807Y113449D01*
X266000Y118000D02*
X266185Y117815D01*
X268185D01*
X268500Y117500D01*
X43900Y22400D02*
X48900D01*
X343000Y133000D02*
X346500Y136500D01*
X343000Y124000D02*
Y133000D01*
Y124000D02*
X345500Y121500D01*
X346500Y136500D02*
X355000D01*
X345500Y121500D02*
X350500D01*
X358250Y121750D02*
X358500Y122000D01*
X350750Y121750D02*
X358250D01*
X350500Y121500D02*
X350750Y121750D01*
X351000Y144500D02*
X355000D01*
X340500Y134000D02*
X351000Y144500D01*
X340500Y121500D02*
Y134000D01*
Y121500D02*
X345239Y116761D01*
X350239D01*
X350500Y116500D01*
X350750Y116250D01*
X358250D01*
X358500Y116000D01*
X369153Y216653D02*
X382500D01*
X347500Y195000D02*
X369153Y216653D01*
X287974Y145000D02*
X288165D01*
X285071Y147904D02*
X287974Y145000D01*
X285071Y147904D02*
Y148000D01*
X309500Y136382D02*
X324120D01*
X347500Y159762D01*
Y195000D01*
X253913Y79087D02*
Y86697D01*
X327000Y76000D02*
X330000Y79000D01*
X296000Y76000D02*
X327000D01*
X330000Y79000D02*
X364000D01*
X376000Y67000D01*
Y53000D02*
Y67000D01*
X253827Y86783D02*
X264904D01*
X266836Y88716D01*
X267343D01*
X267436Y88809D01*
X271238Y88000D02*
X271500D01*
X270522Y88716D02*
X271238Y88000D01*
X268036Y88716D02*
X270522D01*
X285500Y121000D02*
X289500D01*
X215500Y95500D02*
X218000Y93000D01*
X214000Y97000D02*
X215500Y95500D01*
X232087Y122303D02*
X232173Y122216D01*
X214000Y97000D02*
Y100000D01*
X218000Y93000D02*
X218583Y93583D01*
X225193D01*
X225284Y93673D01*
X105579Y104260D02*
X106479Y105160D01*
X253827Y86783D02*
X253913Y86697D01*
Y79087D02*
X254000Y79000D01*
X267436Y89316D02*
X267943D01*
X263079Y93673D02*
X267436Y89316D01*
X260717Y93673D02*
X263079D01*
X254900Y152500D02*
X255000Y152600D01*
X254500Y152100D02*
X254900Y152500D01*
X215320Y167537D02*
X215440Y167657D01*
X215320Y163120D02*
Y167537D01*
X215200Y163000D02*
X215320Y163120D01*
X105079Y104260D02*
X105579D01*
X106479Y103360D01*
Y100021D02*
Y103360D01*
Y100021D02*
X106500Y100000D01*
X111000D01*
X260756Y109461D02*
X268461D01*
X260717Y109421D02*
X260756Y109461D01*
X268461D02*
X268500Y109500D01*
X207000Y187000D02*
X207500Y186500D01*
X211400Y186400D02*
X211500Y186500D01*
G54D18*
X238500Y75000D02*
X242500D01*
X234500D02*
X238500D01*
X230500D02*
X234500D01*
X251858Y75064D02*
Y86783D01*
X251794Y75000D02*
X251858Y75064D01*
X265100Y62300D02*
X271900D01*
X264700Y62700D02*
X265100Y62300D01*
X330500Y21000D02*
X333500Y18000D01*
X267900Y66500D02*
X269700Y64700D01*
X265900Y66500D02*
X267900D01*
X264700Y67700D02*
X265900Y66500D01*
X245170Y71100D02*
X250700D01*
X251800Y70000D01*
X256400D01*
X257500Y68900D01*
X258500D01*
X259700Y67700D01*
X209000Y60000D02*
Y66186D01*
X330500Y39400D02*
X331300Y40200D01*
X330500Y21000D02*
Y39400D01*
X321700Y40300D02*
X322500Y39500D01*
Y22500D02*
Y39500D01*
Y22500D02*
X329000Y16000D01*
X330600Y44500D02*
X331300Y45200D01*
X326500Y44500D02*
X330600D01*
X321000Y44600D02*
X321700Y45300D01*
X316900Y44600D02*
X321000D01*
X326500Y44500D02*
Y46700D01*
X308200Y65000D02*
X326500Y46700D01*
X297000Y65000D02*
X308200D01*
X304068Y62432D02*
X317100Y49400D01*
Y45300D02*
Y49400D01*
X190879Y106780D02*
X197584Y113484D01*
X177300Y106780D02*
X190879D01*
X197584Y113484D02*
X225157D01*
X186600Y110400D02*
Y118000D01*
X185539Y109339D02*
X186600Y110400D01*
X177300Y109339D02*
X185539D01*
X186600Y118000D02*
X191500Y122900D01*
Y156000D01*
X204300Y117500D02*
X204400Y117600D01*
X201000Y117500D02*
X204300D01*
X168500Y80600D02*
X169600Y79500D01*
X168500Y85500D02*
X173000D01*
X230342Y95642D02*
X230400Y95700D01*
X225284Y95642D02*
X230342D01*
X251858Y86783D02*
X251984Y86909D01*
X260526Y107262D02*
X260717Y107453D01*
X272500Y117500D02*
Y121500D01*
Y113500D02*
Y117500D01*
Y109500D02*
Y113500D01*
Y108000D02*
Y109500D01*
X271900Y107400D02*
X272500Y108000D01*
X260769Y107400D02*
X271900D01*
X260717Y107453D02*
X260769Y107400D01*
X232000Y115000D02*
X234142Y117142D01*
Y122216D01*
X217184Y181500D02*
X217500D01*
X216184Y182500D02*
X217184Y181500D01*
X211500Y182500D02*
X216184D01*
X183500Y34500D02*
X209000Y60000D01*
X151000Y34500D02*
X183500D01*
X140000Y23500D02*
X151000Y34500D01*
X50000Y23500D02*
X140000D01*
X211500Y177700D02*
Y182500D01*
Y177700D02*
X211700Y177500D01*
X204500Y128500D02*
X205000D01*
X90500Y184000D02*
X95000Y188500D01*
X90500Y196000D02*
X94500Y192000D01*
X256000Y111500D02*
X256055Y111445D01*
X260661D01*
X260717Y111390D01*
X48900Y22400D02*
X50000Y23500D01*
X251500Y29000D02*
Y40956D01*
X242500Y116000D02*
X243984Y117484D01*
Y122216D01*
X245953Y103638D02*
Y122216D01*
X245053Y102738D02*
X245953Y103638D01*
X245053Y102500D02*
Y102738D01*
X242000Y128380D02*
Y131000D01*
Y122232D02*
Y128380D01*
X240120D02*
X242000D01*
X240000Y128500D02*
X240120Y128380D01*
X238000Y131000D02*
X242000D01*
Y122232D02*
X242016Y122216D01*
X243984Y128984D02*
X246000Y131000D01*
X243984Y122216D02*
Y128984D01*
X246000Y131000D02*
X250000D01*
X219800Y116500D02*
X220973Y115327D01*
X217500Y116500D02*
X219800D01*
X232890Y230110D02*
X233000Y230000D01*
X232890Y230110D02*
Y232890D01*
X232780Y233000D02*
X232890Y232890D01*
X88000Y196000D02*
X90500D01*
X236890Y234890D02*
X237000Y235000D01*
X236890Y232110D02*
Y234890D01*
X236779Y232000D02*
X236890Y232110D01*
X88000Y184000D02*
X90500D01*
X228184Y190500D02*
X228500D01*
X227884Y190800D02*
X228184Y190500D01*
X226480Y190800D02*
X227884D01*
X229780Y196000D02*
X231000Y194780D01*
Y192500D02*
Y194780D01*
X225780Y191500D02*
X226480Y190800D01*
X138500Y196000D02*
X142000Y190500D01*
X135500Y196000D02*
X138500D01*
X137455Y185956D02*
X140455D01*
X135500Y184000D02*
X137455Y185956D01*
X140455D02*
X142000Y187500D01*
X196500Y172500D02*
X199500D01*
X207460Y177000D02*
X207960Y177500D01*
X203500Y177000D02*
X207460D01*
X196500Y184000D02*
Y185000D01*
X185500Y196000D02*
X196500Y185000D01*
X183000Y196000D02*
X185500D01*
X190500Y186000D02*
X199500Y177000D01*
X185000Y186000D02*
X190500D01*
X183000Y184000D02*
X185000Y186000D01*
X225157Y113484D02*
X225284Y113358D01*
X161500Y181000D02*
X168000D01*
X152500Y185500D02*
X157500D01*
Y181000D02*
Y185500D01*
X161300Y186700D02*
X162500Y185500D01*
X161300Y186700D02*
Y188174D01*
X158071Y191403D02*
X161300Y188174D01*
X158071Y191403D02*
Y191500D01*
X147500Y190071D02*
X148929Y191500D01*
X147500Y185500D02*
Y190071D01*
X113500Y181000D02*
X121500D01*
X109000Y185500D02*
X109500Y185000D01*
X105000Y185500D02*
X109000D01*
X109500Y185000D02*
X110000Y185500D01*
X109500Y181000D02*
Y185000D01*
X113800Y186700D02*
X115000Y185500D01*
X113800Y186700D02*
Y187745D01*
X110142Y191403D02*
X113800Y187745D01*
X110142Y191403D02*
Y191500D01*
X100000Y190500D02*
X101000Y191500D01*
X100000Y185500D02*
Y190500D01*
X57000Y185500D02*
X62000D01*
X52000Y190500D02*
X53000Y191500D01*
X52000Y185500D02*
Y190500D01*
X65800Y186700D02*
X67000Y185500D01*
X65800Y186700D02*
Y187745D01*
X62142Y191403D02*
X65800Y187745D01*
X62142Y191403D02*
Y191500D01*
X72500Y181000D02*
Y181900D01*
X74600Y184000D01*
X76000D01*
X65500Y181000D02*
X72500D01*
X61500Y185000D02*
X62000Y185500D01*
X61500Y181000D02*
Y185000D01*
X147500Y181000D02*
Y185500D01*
X185500Y162000D02*
X191500Y156000D01*
X134500Y139000D02*
X137453Y136047D01*
Y134618D02*
Y136047D01*
Y134618D02*
X139071Y133000D01*
X124000Y132500D02*
X124500Y133000D01*
X129929D01*
X119000Y138000D02*
X128500D01*
X129500Y139000D01*
X86500D02*
X89453Y136047D01*
Y134618D02*
Y136047D01*
Y134618D02*
X91071Y133000D01*
X81429Y132500D02*
X81929Y133000D01*
X76000Y132500D02*
X81429D01*
X75500Y138000D02*
X76200Y138700D01*
X81200D01*
X81500Y139000D01*
X75500Y138000D02*
X76000Y137500D01*
X71000Y138000D02*
X75500D01*
X184000Y116500D02*
Y121429D01*
X140500Y103571D02*
X141429Y104500D01*
X147000D01*
X153700Y88729D02*
X153929Y88500D01*
X153700Y88729D02*
Y93984D01*
X125506Y98506D02*
X147000D01*
X123500Y96500D02*
X125506Y98506D01*
X98000Y120500D02*
X127500D01*
X139500Y108500D01*
X147000D01*
X140500Y123000D02*
X143000Y120500D01*
X62000Y123000D02*
X140500D01*
X54000Y131000D02*
X62000Y123000D01*
X143000Y120500D02*
X160000D01*
X51500Y185000D02*
X52000Y185500D01*
X51500Y181500D02*
Y185000D01*
X144000Y122000D02*
X161000D01*
X141000Y125000D02*
X144000Y122000D01*
X99071Y125000D02*
X141000D01*
X92824Y131246D02*
X99071Y125000D01*
X145000Y123500D02*
X162500D01*
X141500Y127000D02*
X145000Y123500D01*
X101500Y127000D02*
X141500D01*
X100000Y181500D02*
Y185500D01*
X147000Y98500D02*
Y98506D01*
Y94500D02*
X147305Y94195D01*
X153489D01*
X153700Y93984D01*
X147000Y98500D02*
X147392Y98892D01*
X153489D01*
X153700Y99102D01*
X147000Y104500D02*
X147140Y104360D01*
X153560D01*
X153700Y104220D01*
X147000Y108500D02*
X147628Y109128D01*
X153489D01*
X153700Y109339D01*
X168000Y105500D02*
Y120500D01*
X159043Y96543D02*
X168000Y105500D01*
X153700Y96543D02*
X159043D01*
X166000Y109000D02*
Y120000D01*
X158661Y101661D02*
X166000Y109000D01*
X153700Y101661D02*
X158661D01*
X164500Y112000D02*
Y118500D01*
X159280Y106780D02*
X164500Y112000D01*
X153700Y106780D02*
X159280D01*
X162500Y113000D02*
Y118000D01*
X161400Y111900D02*
X162500Y113000D01*
X153702Y111900D02*
X161400D01*
X160000Y120500D02*
X162500Y118000D01*
X161000Y122000D02*
X164500Y118500D01*
X162500Y123500D02*
X166000Y120000D01*
X163000Y125500D02*
X168000Y120500D01*
X146435Y125500D02*
X163000D01*
X181000Y128500D02*
X183846Y131346D01*
X185353D01*
X174500Y128500D02*
X181000D01*
X172000Y126000D02*
X174500Y128500D01*
X172000Y115500D02*
Y126000D01*
X139071Y132864D02*
X146435Y125500D01*
X139071Y132864D02*
Y133000D01*
X170000Y114500D02*
Y128500D01*
X168500Y130000D02*
X170000Y128500D01*
X168500Y130000D02*
Y132500D01*
X162900Y138100D02*
X168500Y132500D01*
X170000Y114500D02*
X172600Y111900D01*
X92689Y131246D02*
X92824D01*
X91071Y132864D02*
X92689Y131246D01*
X91071Y132864D02*
Y133000D01*
X153700Y111898D02*
X153702Y111900D01*
X157500Y171520D02*
Y181000D01*
X157228Y171248D02*
X157500Y171520D01*
X109500Y171270D02*
Y181000D01*
X109478Y171248D02*
X109500Y171270D01*
X61500Y171476D02*
Y181000D01*
Y171476D02*
X61728Y171248D01*
X129478Y147248D02*
X129500Y147226D01*
Y139000D02*
Y147226D01*
X81500Y147020D02*
X81728Y147248D01*
X81500Y139000D02*
Y147020D01*
X182400Y139100D02*
X185353Y136147D01*
Y134718D02*
Y136147D01*
Y134718D02*
X186971Y133100D01*
X176200Y137900D02*
X177400Y139100D01*
X172200Y137900D02*
X176200D01*
X171900Y137600D02*
X172200Y137900D01*
X177329Y132600D02*
X177829Y133100D01*
X171900Y132600D02*
X177329D01*
X171400Y138100D02*
X171900Y137600D01*
X166900Y138100D02*
X171400D01*
X177228Y139272D02*
X177400Y139100D01*
X177228Y139272D02*
Y147248D01*
X157228D02*
X158298Y146177D01*
Y142702D02*
Y146177D01*
Y142702D02*
X162900Y138100D01*
X173043Y114457D02*
X177300D01*
X172000Y115500D02*
X173043Y114457D01*
X172600Y111900D02*
X177298D01*
X177300Y111898D01*
X177472Y112070D02*
X183570D01*
X177434Y116882D02*
X183618D01*
X185353Y131346D02*
X186971Y132964D01*
Y133100D01*
X41500Y148500D02*
X41816D01*
X42716Y149400D01*
X44900D01*
X47000Y151500D01*
Y154000D01*
X390000Y5000D02*
X390500Y4500D01*
X377000Y5000D02*
X390000D01*
Y9000D02*
X390500Y9500D01*
X377000Y9000D02*
X390000D01*
X367000D02*
X373000D01*
X358000Y18000D02*
X367000Y9000D01*
X333500Y18000D02*
X358000D01*
X356500Y16000D02*
X367500Y5000D01*
X373000D01*
X329000Y16000D02*
X356500D01*
X218000Y100000D02*
X218231Y99769D01*
X225093D01*
X225284Y99579D01*
X230184Y99000D02*
X230500D01*
X229605Y99579D02*
X230184Y99000D01*
X225284Y99579D02*
X229605D01*
X231047Y101547D02*
X233500Y104000D01*
X225284Y101547D02*
X231047D01*
X242016Y103895D02*
X243500Y105379D01*
X242016Y86783D02*
Y103895D01*
X243500Y105379D02*
Y105500D01*
X242016Y86783D02*
X242206Y86593D01*
X220973Y115327D02*
X225284D01*
X249890Y102800D02*
X250190Y102500D01*
X297000Y62432D02*
X304068D01*
X249890Y102800D02*
Y122216D01*
X252758Y102500D02*
Y102738D01*
X251858Y103638D02*
X252758Y102738D01*
X251858Y103638D02*
Y122216D01*
X304100Y49900D02*
X304500Y49500D01*
X304100Y49900D02*
Y50195D01*
X297000Y57294D02*
X304100Y50195D01*
X247621Y102500D02*
X247921Y102800D01*
X309500Y49500D02*
Y53500D01*
X303137Y59863D02*
X309500Y53500D01*
X297000Y59863D02*
X303137D01*
X247921Y102800D02*
Y122216D01*
X281500Y111453D02*
X282972Y109980D01*
X281500Y111453D02*
Y117000D01*
X277098Y103516D02*
X282972Y109390D01*
X260717Y103516D02*
X277098D01*
X282972Y109390D02*
Y109980D01*
X289868Y92861D02*
X292028Y95020D01*
X289868Y88368D02*
Y92861D01*
X289500Y88000D02*
X289868Y88368D01*
X286090Y101547D02*
X292028Y95610D01*
X260717Y101547D02*
X286090D01*
X292028Y95020D02*
Y95610D01*
X260732Y105500D02*
X276000D01*
X260717Y105484D02*
X260732Y105500D01*
X276000D02*
X278000Y107500D01*
Y119000D01*
X279500Y120500D01*
X281000D01*
X281500Y121000D01*
X314000Y212000D02*
X314250Y212250D01*
X320750D02*
X321000Y212500D01*
X243984Y122216D02*
X244175Y122407D01*
X266500Y113500D02*
X268500D01*
X264390Y111390D02*
X266500Y113500D01*
X260717Y111390D02*
X264390D01*
X314000Y119500D02*
X317000D01*
X297500Y88000D02*
Y119500D01*
X294000Y84500D02*
X297500Y88000D01*
X282000Y84500D02*
X294000D01*
X278500Y88000D02*
X282000Y84500D01*
X278500Y88000D02*
Y95000D01*
X273921Y99579D02*
X278500Y95000D01*
X260717Y99579D02*
X273921D01*
X283298Y156273D02*
X283394D01*
X285071Y154596D01*
Y154500D02*
Y154596D01*
G54D29*
X331300Y45200D02*
D03*
Y40200D02*
D03*
X321700Y45300D02*
D03*
Y40300D02*
D03*
X171900Y132600D02*
D03*
Y137600D02*
D03*
X76000Y132500D02*
D03*
Y137500D02*
D03*
X124000Y132500D02*
D03*
Y137500D02*
D03*
X43900Y27400D02*
D03*
Y22400D02*
D03*
X48900D02*
D03*
Y27400D02*
D03*
G54D30*
X264700Y67700D02*
D03*
X259700D02*
D03*
Y62700D02*
D03*
X264700D02*
D03*
X177400Y139100D02*
D03*
X182400D02*
D03*
X162500Y185500D02*
D03*
X157500D02*
D03*
X129500Y139000D02*
D03*
X134500D02*
D03*
X105000Y185500D02*
D03*
X100000D02*
D03*
X152500D02*
D03*
X147500D02*
D03*
X115000D02*
D03*
X110000D02*
D03*
X81500Y139000D02*
D03*
X86500D02*
D03*
X57000Y185500D02*
D03*
X52000D02*
D03*
X67000D02*
D03*
X62000D02*
D03*
X304500Y49500D02*
D03*
X309500D02*
D03*
X360000Y144500D02*
D03*
X355000D02*
D03*
X360000Y95000D02*
D03*
X355000D02*
D03*
X360000Y136500D02*
D03*
X355000D02*
D03*
X360000Y90000D02*
D03*
X355000D02*
D03*
X244260Y161492D02*
D03*
X249260D02*
D03*
X87000Y114500D02*
D03*
X92000D02*
D03*
Y109500D02*
D03*
X87000D02*
D03*
G54D31*
X269900Y59000D02*
D03*
X273900D02*
D03*
X282700Y58900D02*
D03*
X286700D02*
D03*
X199500Y177000D02*
D03*
X203500D02*
D03*
X199500Y172500D02*
D03*
X203500D02*
D03*
X228780Y233000D02*
D03*
X232780D02*
D03*
X225780Y229000D02*
D03*
X229780D02*
D03*
X217779Y228500D02*
D03*
X221779D02*
D03*
X245000Y204000D02*
D03*
X241000D02*
D03*
X221779Y200000D02*
D03*
X225780D02*
D03*
X373000Y5000D02*
D03*
X377000D02*
D03*
X373000Y9000D02*
D03*
X377000D02*
D03*
X166900Y138100D02*
D03*
X162900D02*
D03*
X71000Y138000D02*
D03*
X67000D02*
D03*
X61500Y181000D02*
D03*
X65500D02*
D03*
X157500D02*
D03*
X161500D02*
D03*
X119000Y138000D02*
D03*
X115000D02*
D03*
X109500Y181000D02*
D03*
X113500D02*
D03*
X224500Y177500D02*
D03*
X228500D02*
D03*
X214000Y100000D02*
D03*
X218000D02*
D03*
X317000Y119500D02*
D03*
X321000D02*
D03*
X317000Y111500D02*
D03*
X321000D02*
D03*
X317000Y103500D02*
D03*
X321000D02*
D03*
X317000Y79500D02*
D03*
X321000D02*
D03*
X238000Y52011D02*
D03*
X234000D02*
D03*
X238000Y48011D02*
D03*
X234000D02*
D03*
X238000Y44011D02*
D03*
X234000D02*
D03*
X359500Y189500D02*
D03*
X355500D02*
D03*
X285500Y121000D02*
D03*
X281500D02*
D03*
X173500Y53000D02*
D03*
X177500D02*
D03*
X231100Y156400D02*
D03*
X235100D02*
D03*
Y152400D02*
D03*
X231100D02*
D03*
X124500Y116500D02*
D03*
X120500D02*
D03*
X119000Y84000D02*
D03*
X115000D02*
D03*
X100500Y112000D02*
D03*
X96500D02*
D03*
X111000Y100000D02*
D03*
X115000D02*
D03*
X272500Y121500D02*
D03*
X268500D02*
D03*
X215200Y163000D02*
D03*
X211200D02*
D03*
X272500Y117500D02*
D03*
X268500D02*
D03*
X354500Y131500D02*
D03*
X350500D02*
D03*
X281500Y125000D02*
D03*
X285500D02*
D03*
X268500Y109500D02*
D03*
X272500D02*
D03*
X281500Y117000D02*
D03*
X285500D02*
D03*
X289500Y88500D02*
D03*
X285500D02*
D03*
X165000Y53000D02*
D03*
X169000D02*
D03*
X112000Y116500D02*
D03*
X116000D02*
D03*
X107500D02*
D03*
X103500D02*
D03*
X102500Y100000D02*
D03*
X106500D02*
D03*
X213500Y116500D02*
D03*
X217500D02*
D03*
X272500Y113500D02*
D03*
X268500D02*
D03*
G54D32*
X291892Y46360D02*
D03*
Y53840D02*
D03*
X280908Y50100D02*
D03*
G54D33*
X261200Y44500D02*
D03*
Y51700D02*
D03*
X194500Y60900D02*
D03*
Y68100D02*
D03*
G54D34*
X275340Y54092D02*
D03*
X267860D02*
D03*
X271600Y43108D02*
D03*
X235260Y172484D02*
D03*
X239000Y161500D02*
D03*
X231520D02*
D03*
X106000Y84008D02*
D03*
X102260Y94992D02*
D03*
X109740D02*
D03*
G54D35*
X270000Y141100D02*
D03*
Y146900D02*
D03*
X255000Y152600D02*
D03*
Y158400D02*
D03*
G54D36*
X180600Y90000D02*
D03*
Y86000D02*
D03*
X168500Y89500D02*
D03*
Y85500D02*
D03*
X189600Y90000D02*
D03*
Y86000D02*
D03*
X220000Y177500D02*
D03*
Y173500D02*
D03*
X219280Y219500D02*
D03*
Y223500D02*
D03*
X225780Y195500D02*
D03*
Y191500D02*
D03*
X236779Y219500D02*
D03*
Y223500D02*
D03*
Y228000D02*
D03*
Y232000D02*
D03*
X229780Y200000D02*
D03*
Y196000D02*
D03*
X236779Y204000D02*
D03*
Y200000D02*
D03*
X221280Y191500D02*
D03*
Y195500D02*
D03*
X238000Y131000D02*
D03*
Y135000D02*
D03*
X250000Y131000D02*
D03*
Y135000D02*
D03*
X254500Y47500D02*
D03*
Y51500D02*
D03*
X250500Y47500D02*
D03*
Y51500D02*
D03*
X120000Y112000D02*
D03*
Y108000D02*
D03*
X124500D02*
D03*
Y112000D02*
D03*
X173000Y89500D02*
D03*
Y85500D02*
D03*
X190400Y108200D02*
D03*
Y112200D02*
D03*
X185100Y90000D02*
D03*
Y86000D02*
D03*
X207500Y182500D02*
D03*
Y186500D02*
D03*
X326500Y40500D02*
D03*
Y44500D02*
D03*
X316900Y40600D02*
D03*
Y44600D02*
D03*
X310400Y40600D02*
D03*
Y44600D02*
D03*
X358500Y126000D02*
D03*
Y122000D02*
D03*
X303000Y40600D02*
D03*
Y44600D02*
D03*
X358500Y116000D02*
D03*
Y112000D02*
D03*
X228000Y56011D02*
D03*
Y52011D02*
D03*
X220500Y56011D02*
D03*
Y52011D02*
D03*
X212000Y56011D02*
D03*
Y52011D02*
D03*
X248100Y79000D02*
D03*
Y75000D02*
D03*
X321000Y208000D02*
D03*
Y204000D02*
D03*
X286500Y195500D02*
D03*
Y191500D02*
D03*
X321000Y216500D02*
D03*
Y212500D02*
D03*
X278500Y191500D02*
D03*
Y195500D02*
D03*
X164500Y57500D02*
D03*
Y61500D02*
D03*
X168500Y57500D02*
D03*
Y61500D02*
D03*
X172500D02*
D03*
Y57500D02*
D03*
X115000Y95500D02*
D03*
Y91500D02*
D03*
X184000Y116500D02*
D03*
Y112500D02*
D03*
X147000Y104500D02*
D03*
Y108500D02*
D03*
Y94500D02*
D03*
Y98500D02*
D03*
X211500Y186500D02*
D03*
Y182500D02*
D03*
X254000Y135000D02*
D03*
Y131000D02*
D03*
X238500Y75000D02*
D03*
Y79000D02*
D03*
X242500D02*
D03*
Y75000D02*
D03*
X314000Y93500D02*
D03*
Y89500D02*
D03*
X350000Y94500D02*
D03*
Y98500D02*
D03*
Y88000D02*
D03*
Y84000D02*
D03*
X230500Y75000D02*
D03*
Y79000D02*
D03*
X234500Y75000D02*
D03*
Y79000D02*
D03*
X234000Y135000D02*
D03*
Y131000D02*
D03*
X246000Y135000D02*
D03*
Y131000D02*
D03*
X230000D02*
D03*
Y135000D02*
D03*
X218000Y93000D02*
D03*
Y89000D02*
D03*
X267943Y89316D02*
D03*
Y85316D02*
D03*
X254200Y79000D02*
D03*
Y75000D02*
D03*
X290500Y195500D02*
D03*
Y191500D02*
D03*
X282500Y195500D02*
D03*
Y191500D02*
D03*
X244000Y166500D02*
D03*
Y170500D02*
D03*
X245000Y156500D02*
D03*
Y152500D02*
D03*
X242000Y135000D02*
D03*
Y131000D02*
D03*
G54D37*
X229059Y205500D02*
D03*
X231618D02*
D03*
X223941Y223500D02*
D03*
X229059D02*
D03*
X226500D02*
D03*
X231618D02*
D03*
X226500Y205500D02*
D03*
G54D38*
X223941D02*
D03*
G54D39*
X390500Y4500D02*
D03*
X396500D02*
D03*
X390500Y9500D02*
D03*
X396500D02*
D03*
G54D40*
X361200Y181500D02*
D03*
X355800D02*
D03*
X315600Y126500D02*
D03*
X321000D02*
D03*
G54D41*
X243500Y60571D02*
D03*
X140500Y94429D02*
D03*
G54D42*
X243500Y51429D02*
D03*
X140500Y103571D02*
D03*
G54D43*
X147500Y135000D02*
D03*
Y146800D02*
D03*
X99500Y135600D02*
D03*
Y147400D02*
D03*
X107000Y62000D02*
D03*
Y73800D02*
D03*
G54D44*
X300500Y195358D02*
D03*
Y177642D02*
D03*
G54D45*
X41400Y240000D02*
D03*
X29600D02*
D03*
X360600Y240500D02*
D03*
X372400D02*
D03*
G54D46*
X111100Y55000D02*
D03*
X103900D02*
D03*
X128600Y77000D02*
D03*
X121400D02*
D03*
X162400Y79500D02*
D03*
X169600D02*
D03*
G54D47*
X183000Y184000D02*
D03*
Y196000D02*
D03*
X171500Y184000D02*
D03*
Y196000D02*
D03*
X135500Y184000D02*
D03*
Y196000D02*
D03*
X88000Y184000D02*
D03*
Y196000D02*
D03*
X124000Y184000D02*
D03*
Y196000D02*
D03*
X76000Y184000D02*
D03*
Y196000D02*
D03*
G54D48*
X186971Y133100D02*
D03*
X53000Y191500D02*
D03*
X91071Y133000D02*
D03*
X101000Y191500D02*
D03*
X148929D02*
D03*
X139071Y133000D02*
D03*
X185071Y122500D02*
D03*
X153929Y88500D02*
D03*
X162429Y72500D02*
D03*
X275929Y148000D02*
D03*
Y154500D02*
D03*
G54D49*
X177829Y133100D02*
D03*
X62142Y191500D02*
D03*
X81929Y133000D02*
D03*
X110142Y191500D02*
D03*
X158071D02*
D03*
X129929Y133000D02*
D03*
X175929Y122500D02*
D03*
X163071Y88500D02*
D03*
X171571Y72500D02*
D03*
X285071Y148000D02*
D03*
Y154500D02*
D03*
G54D50*
X47000Y142000D02*
D03*
X35000D02*
D03*
X47000Y154000D02*
D03*
X35000D02*
D03*
G54D51*
X235752Y29000D02*
D03*
X243626D02*
D03*
X227878D02*
D03*
X251500D02*
D03*
X267248D02*
D03*
X259374D02*
D03*
X220004D02*
D03*
X212130D02*
D03*
X310752D02*
D03*
X318626D02*
D03*
X302878D02*
D03*
X326500D02*
D03*
X342248D02*
D03*
X334374D02*
D03*
G54D52*
X277091Y6362D02*
D03*
X202287D02*
D03*
X352091D02*
D03*
X293035D02*
D03*
G54D53*
X394638Y118783D02*
D03*
Y154217D02*
D03*
X395000Y108933D02*
D03*
Y73500D02*
D03*
X394500Y164000D02*
D03*
Y199433D02*
D03*
G54D54*
X372000Y136500D02*
D03*
Y144374D02*
D03*
Y128626D02*
D03*
X372362Y83342D02*
D03*
Y99090D02*
D03*
Y91216D02*
D03*
X371862Y181717D02*
D03*
Y189591D02*
D03*
Y173843D02*
D03*
G54D55*
X320500Y177642D02*
D03*
Y195358D02*
D03*
G54D56*
X70000Y93000D02*
D03*
G54D57*
X95000Y84250D02*
D03*
X95000Y101750D02*
D03*
G54D58*
X215440Y177500D02*
D03*
X207960D02*
D03*
X211700D02*
D03*
G54D59*
X207960Y167657D02*
D03*
X215440D02*
D03*
G54D60*
X177579Y65240D02*
D03*
Y57760D02*
D03*
Y61500D02*
D03*
X270421Y151760D02*
D03*
Y159240D02*
D03*
Y155500D02*
D03*
X114921Y104260D02*
D03*
Y111740D02*
D03*
Y108000D02*
D03*
G54D61*
X187421Y57760D02*
D03*
Y65240D02*
D03*
X260579Y159240D02*
D03*
Y151760D02*
D03*
X105079Y111740D02*
D03*
Y104260D02*
D03*
G54D62*
X303000Y209500D02*
D03*
G54D63*
X292000Y217000D02*
D03*
G54D64*
Y212000D02*
D03*
Y207000D02*
D03*
X314000Y202000D02*
D03*
Y212000D02*
D03*
Y217000D02*
D03*
Y207000D02*
D03*
X292000Y202000D02*
D03*
X328500Y121500D02*
D03*
Y116500D02*
D03*
X350500Y111500D02*
D03*
Y121500D02*
D03*
Y126500D02*
D03*
Y116500D02*
D03*
X328500Y111500D02*
D03*
X321000Y94000D02*
D03*
Y89000D02*
D03*
X343000Y84000D02*
D03*
Y94000D02*
D03*
Y99000D02*
D03*
Y89000D02*
D03*
X321000Y84000D02*
D03*
G54D65*
X282972Y95020D02*
D03*
Y109980D02*
D03*
X292028D02*
D03*
Y95020D02*
D03*
G54D66*
X382500Y226890D02*
D03*
Y224331D02*
D03*
Y221772D02*
D03*
Y219213D02*
D03*
Y216653D02*
D03*
G54D67*
X153700Y109339D02*
D03*
Y106780D02*
D03*
X177300Y117016D02*
D03*
X153700Y96543D02*
D03*
Y99102D02*
D03*
Y111898D02*
D03*
Y104220D02*
D03*
X177300Y114457D02*
D03*
Y106780D02*
D03*
Y101661D02*
D03*
Y111898D02*
D03*
Y109339D02*
D03*
Y104220D02*
D03*
X153700Y117016D02*
D03*
Y114457D02*
D03*
Y93984D02*
D03*
X177300Y96543D02*
D03*
Y99102D02*
D03*
X153700Y101661D02*
D03*
G54D68*
X177300Y93984D02*
D03*
G54D69*
X187421Y73500D02*
D03*
X177579D02*
D03*
G54D70*
X328500Y126500D02*
D03*
X321000Y99000D02*
D03*
G54D71*
X249500Y152400D02*
D03*
Y156600D02*
D03*
G54D72*
X145900Y114500D02*
D03*
X140100D02*
D03*
X286900Y162500D02*
D03*
X281100D02*
D03*
X163100Y66500D02*
D03*
X168900D02*
D03*
G54D73*
X251858Y122216D02*
D03*
X249890D02*
D03*
X247921D02*
D03*
X245953D02*
D03*
X253827D02*
D03*
X243984D02*
D03*
X242016D02*
D03*
X240047D02*
D03*
X238079D02*
D03*
X236110D02*
D03*
X234142D02*
D03*
X232173D02*
D03*
Y86783D02*
D03*
X234142D02*
D03*
X236110D02*
D03*
X238079D02*
D03*
X240047D02*
D03*
X242016D02*
D03*
X243984D02*
D03*
X245953D02*
D03*
X247921D02*
D03*
X249890D02*
D03*
X251858D02*
D03*
X253827D02*
D03*
G54D74*
X260717Y93673D02*
D03*
Y95642D02*
D03*
Y97610D02*
D03*
Y99579D02*
D03*
Y101547D02*
D03*
Y103516D02*
D03*
Y105484D02*
D03*
Y107453D02*
D03*
Y109421D02*
D03*
Y111390D02*
D03*
Y113358D02*
D03*
Y115327D02*
D03*
X225284D02*
D03*
Y113358D02*
D03*
Y111390D02*
D03*
Y109421D02*
D03*
Y107453D02*
D03*
Y105484D02*
D03*
Y103516D02*
D03*
Y101547D02*
D03*
Y99579D02*
D03*
Y97610D02*
D03*
Y95642D02*
D03*
Y93673D02*
D03*
G54D129*
X393500Y208100D02*
D03*
Y235443D02*
D03*
G54D130*
X382200Y212224D02*
D03*
Y231319D02*
D03*
G54D133*
X253500Y108008D02*
X255100Y106408D01*
Y98600D02*
Y106408D01*
X253500Y97000D02*
X255100Y98600D01*
X245953Y81147D02*
X248100Y79000D01*
X245953Y81147D02*
Y86783D01*
X254500Y62820D02*
Y63600D01*
Y52500D02*
Y62820D01*
X254620Y62700D01*
X259700D01*
X245000Y70930D02*
Y78000D01*
Y68900D02*
Y70930D01*
X249200Y68900D02*
X254500Y63600D01*
X250500Y52500D02*
Y63400D01*
X245000Y68900D02*
X250500Y63400D01*
X317600Y32026D02*
Y40600D01*
Y32026D02*
X318626Y31000D01*
X310750Y44750D02*
X311000Y44500D01*
X310752Y40252D02*
X311000Y40500D01*
X279400Y58900D02*
X282700D01*
X277050Y85750D02*
X278500Y84300D01*
X278600D01*
X277050Y85750D02*
Y92950D01*
X272390Y97610D02*
X277050Y92950D01*
X260717Y97610D02*
X272390D01*
X195316Y103516D02*
X225284D01*
X190902Y99102D02*
X195316Y103516D01*
X189600Y99102D02*
X190902D01*
X195453Y107453D02*
X225284D01*
X192220Y104220D02*
X195453Y107453D01*
X177300Y104220D02*
X192220D01*
X177300Y99102D02*
X189600D01*
X189600Y99102D02*
X189600Y99102D01*
X189600Y90000D02*
Y99102D01*
X185100Y90000D02*
X185300Y90200D01*
Y96500D01*
X180053Y94000D02*
X183100D01*
X177000D02*
X180053D01*
X179850Y93797D02*
X180053Y94000D01*
X179850Y90750D02*
Y93797D01*
Y90750D02*
X180600Y90000D01*
X185278Y96522D02*
X185300Y96500D01*
X177322Y96522D02*
X185278D01*
X183100Y94000D02*
X183106D01*
X266000D02*
X270500D01*
X264599Y95401D02*
X266000Y94000D01*
X260957Y95401D02*
X264599D01*
X238079Y99579D02*
Y122216D01*
X212000Y73500D02*
X238079Y99579D01*
X240024Y97524D02*
Y122193D01*
X212000Y56011D02*
Y73500D01*
X240024Y122193D02*
X240047Y122216D01*
X240000Y97500D02*
X240024Y97524D01*
X229000Y79000D02*
X230500D01*
X228000Y78000D02*
X229000Y79000D01*
X228000Y56011D02*
Y78000D01*
X220500Y56011D02*
Y77500D01*
X224966Y81966D01*
X234750Y128750D02*
X237838Y125662D01*
X234750Y128750D02*
Y130250D01*
X234000Y131000D02*
X234750Y130250D01*
X237838Y122457D02*
Y125662D01*
Y122457D02*
X238079Y122216D01*
X177300Y96543D02*
X177322Y96522D01*
X168500Y89500D02*
Y100500D01*
X172220Y104220D02*
X177300D01*
X168500Y100500D02*
X172220Y104220D01*
X176500Y101500D02*
X184500D01*
X171500Y91000D02*
X173000Y89500D01*
X171500Y91000D02*
Y100500D01*
X172661Y101661D01*
X177300D01*
X203500Y105500D02*
X225268D01*
X225284Y105484D01*
X205000Y111500D02*
X225000D01*
X198500Y109500D02*
X225205D01*
X225284Y109421D01*
X314500Y123993D02*
Y125850D01*
X315150Y126500D01*
X315600D01*
X253500Y115500D02*
X262500Y124500D01*
X253500Y108008D02*
Y115500D01*
X246500Y97000D02*
X253500D01*
X262500Y124500D02*
X276500D01*
X243984Y94484D02*
X246500Y97000D01*
X243984Y86783D02*
Y94484D01*
X244000Y79000D02*
X245000Y78000D01*
X242500Y79000D02*
X244000D01*
X240047Y81453D02*
X242500Y79000D01*
X240047Y81453D02*
Y86783D01*
X238079Y79421D02*
Y86783D01*
Y79421D02*
X238500Y79000D01*
X238000Y91500D02*
X238039Y91461D01*
Y86823D02*
Y91461D01*
Y86823D02*
X238079Y86783D01*
X235250Y79750D02*
Y81407D01*
X234500Y79000D02*
X235250Y79750D01*
Y81407D02*
X236110Y82267D01*
Y86783D01*
X226966Y81966D02*
X227000Y82000D01*
X224966Y81966D02*
X226966D01*
X232500Y82000D02*
X233901Y83401D01*
X231500Y82000D02*
X232500D01*
X230500Y81000D02*
X231500Y82000D01*
X233901Y83401D02*
Y86543D01*
X230500Y79000D02*
Y81000D01*
X233901Y86543D02*
X234142Y86783D01*
X303250Y48250D02*
X304500Y49500D01*
X303250Y44750D02*
Y48250D01*
X303000Y44500D02*
X303250Y44750D01*
X309500Y49500D02*
X310750Y48250D01*
Y44750D02*
Y48250D01*
X302878Y40378D02*
X303000Y40500D01*
X302878Y31000D02*
Y40378D01*
X310752Y31000D02*
Y40252D01*
X326500Y31000D02*
Y40500D01*
X260717Y95642D02*
X260957Y95401D01*
X236000Y101500D02*
X236055Y101555D01*
Y122161D01*
X236110Y122216D01*
G54D134*
X360500Y239300D02*
Y240500D01*
X103900Y55000D02*
X104300Y55400D01*
Y59300D01*
X105600Y60600D01*
Y61700D01*
X105900Y62000D01*
X107000D01*
X29600Y238900D02*
Y240000D01*
X29300Y238600D02*
X29600Y238900D01*
X27115Y238600D02*
X29300D01*
X20515Y232000D02*
X27115Y238600D01*
X16000Y232000D02*
X20515D01*
X360300Y239100D02*
X360500Y239300D01*
X356615Y239100D02*
X360300D01*
X349515Y232000D02*
X356615Y239100D01*
X345000Y232000D02*
X349515D01*
X103900Y54100D02*
Y55000D01*
X107000Y62000D02*
X108100D01*
X103500Y53700D02*
X103900Y54100D01*
X360500Y240500D02*
X360600D01*
X162429Y72364D02*
Y72500D01*
Y72364D02*
X163100Y71693D01*
Y66500D02*
Y71693D01*
G54D135*
X189421Y61000D02*
X199788D01*
X341673Y31575D02*
Y42027D01*
X312700Y71000D02*
X341673Y42027D01*
X308000Y71000D02*
X312700D01*
X267219Y43804D02*
X270927D01*
X261896D02*
X267219D01*
X267248Y43775D01*
Y29000D02*
Y43775D01*
X261200Y44500D02*
X261896Y43804D01*
X270927D02*
X271600Y43131D01*
Y43108D02*
Y43131D01*
X267860Y53600D02*
Y54092D01*
X266860Y52600D02*
X267860Y53600D01*
X262100Y52600D02*
X266860D01*
X261200Y51700D02*
X262100Y52600D01*
X268352Y53600D02*
X270900D01*
X267860Y54092D02*
X268352Y53600D01*
X282000Y90500D02*
Y94047D01*
X282972Y95020D01*
Y94429D02*
Y95020D01*
Y94429D02*
X285400Y92002D01*
Y88600D02*
Y92002D01*
Y88600D02*
X285500Y88500D01*
X172500Y61500D02*
Y66400D01*
Y61500D02*
X177579D01*
X169000Y66400D02*
X172500D01*
X168900Y66500D02*
X169000Y66400D01*
X175600Y85600D02*
X176700Y86700D01*
X173100Y85600D02*
X175600D01*
X173000Y85500D02*
X173100Y85600D01*
X172900Y85400D02*
X173000Y85500D01*
X172900Y83700D02*
Y85400D01*
X169600Y80400D02*
X172900Y83700D01*
X169600Y79500D02*
Y80400D01*
X194600Y68000D02*
X199500D01*
X194500Y68100D02*
X194600Y68000D01*
X195000Y76000D02*
X195500Y76500D01*
X195000Y68600D02*
Y76000D01*
X194500Y68100D02*
X195000Y68600D01*
X237500Y144500D02*
X244500D01*
X230500D02*
X237500D01*
X224000Y130962D02*
Y138000D01*
Y127500D02*
Y130962D01*
Y127500D02*
X228000Y123500D01*
X224000Y138000D02*
X230500Y144500D01*
X238500Y61000D02*
X243071D01*
X243500Y60571D01*
X239004Y161496D02*
X244256D01*
X346584Y131500D02*
X350500D01*
X382000Y121500D02*
Y132000D01*
X377500Y136500D02*
X382000Y132000D01*
X374331Y136500D02*
X377500D01*
X374000Y113500D02*
X382000Y121500D01*
X374000Y104000D02*
Y113500D01*
X380358Y90642D02*
X380500Y90500D01*
X374064Y90642D02*
X380358D01*
X373949Y90757D02*
X374064Y90642D01*
X372374Y144000D02*
X383000D01*
X372000Y144374D02*
X372374Y144000D01*
X383000D02*
X386000Y141000D01*
Y99000D02*
Y141000D01*
X372453Y99000D02*
X386000D01*
X372362Y99090D02*
X372453Y99000D01*
X177539Y57721D02*
X177579Y57760D01*
X177539Y53039D02*
Y57721D01*
X177500Y53000D02*
X177539Y53039D01*
X231200Y161180D02*
X231520Y161500D01*
X231200Y156500D02*
Y161180D01*
X231100Y156400D02*
X231200Y156500D01*
X231520Y161008D02*
Y161500D01*
X231100Y152400D02*
Y156400D01*
X275929Y151250D02*
Y154500D01*
Y148000D02*
Y151250D01*
X275421Y151758D02*
X275929Y151250D01*
X270423Y151758D02*
X275421D01*
X270421Y151760D02*
X270423Y151758D01*
X164600Y53400D02*
X165000Y53000D01*
X164600Y53400D02*
Y57400D01*
X164500Y57500D02*
X164600Y57400D01*
X169000Y53000D02*
X173500D01*
X168500Y57500D02*
X168900Y57100D01*
Y53100D02*
Y57100D01*
Y53100D02*
X169000Y53000D01*
X168500Y57500D02*
X172500D01*
X163100Y66250D02*
Y66500D01*
Y66250D02*
X164400Y64950D01*
Y61600D02*
Y64950D01*
Y61600D02*
X164500Y61500D01*
X168500D01*
X308000Y89500D02*
X314000D01*
X341673Y31575D02*
X342248Y31000D01*
X318146Y89000D02*
X321000D01*
X317746Y89400D02*
X318146Y89000D01*
X314100Y89400D02*
X317746D01*
X314000Y89500D02*
X314100Y89400D01*
X358500Y111000D02*
Y112000D01*
X356500Y109000D02*
X358500Y111000D01*
X350500Y126500D02*
X350500Y126500D01*
X350500Y126500D02*
Y131500D01*
X286900Y162500D02*
X287400Y163000D01*
X286900Y156329D02*
Y162500D01*
X285071Y154500D02*
X286900Y156329D01*
X244500Y144500D02*
X249250Y149250D01*
Y152150D01*
X249500Y152400D01*
X249600Y152500D02*
X254900D01*
X249500Y152400D02*
X249600Y152500D01*
X255000Y152600D02*
X255440Y152160D01*
X260179D01*
X260579Y151760D01*
X249380Y156720D02*
Y161372D01*
X245000Y156500D02*
X245100Y156600D01*
X249500D01*
X249260Y161492D02*
X249380Y161372D01*
Y156720D02*
X249500Y156600D01*
X244100Y161652D02*
X244256Y161496D01*
X244100Y161652D02*
Y166400D01*
X244000Y166500D02*
X244100Y166400D01*
X239004Y161496D02*
X239100Y161400D01*
X239000Y161500D02*
X239004Y161496D01*
X244256D02*
X244260Y161492D01*
G54D136*
X254000Y135000D02*
X257500D01*
X242000D02*
X246000D01*
X230000D02*
X234000D01*
X95000Y101750D02*
X96650Y100100D01*
X102400D01*
X102500Y100000D01*
X102260Y94992D02*
X102380Y95112D01*
Y99880D01*
X102500Y100000D01*
X270211Y151545D02*
X270423Y151758D01*
X270211Y147111D02*
Y151545D01*
X270000Y146900D02*
X270211Y147111D01*
X238504Y192004D02*
X241000Y194500D01*
X211400Y186400D02*
X215100D01*
X241000Y194500D02*
Y204000D01*
X215100Y186400D02*
X216500Y185000D01*
X240000Y168000D02*
Y174500D01*
Y168000D02*
X241150Y166850D01*
X243650D01*
X244000Y166500D01*
X270421Y159240D02*
X274760D01*
X276000Y158000D01*
Y154571D02*
Y158000D01*
X275929Y154500D02*
X276000Y154571D01*
G54D137*
X121420Y66020D02*
X121500D01*
X111100Y55700D02*
X121420Y66020D01*
X111100Y55000D02*
Y55700D01*
X121500Y66020D02*
X121732Y65787D01*
X121500Y66020D02*
Y76900D01*
X121400Y77000D02*
X121500Y76900D01*
X285500Y207000D02*
X292000D01*
X271000D02*
X285500D01*
X162415Y72515D02*
X162429Y72500D01*
X162415Y72515D02*
Y79485D01*
X162400Y79500D02*
X162415Y79485D01*
X318985Y152500D02*
X319500D01*
X187421Y65240D02*
Y73500D01*
Y59000D02*
Y65240D01*
G54D138*
X136000Y84000D02*
X140500Y79500D01*
X119000Y84000D02*
X136000D01*
X163000Y88500D02*
Y89500D01*
X162400Y79500D02*
Y88900D01*
X153089Y79500D02*
X162400D01*
X140500D02*
X153089D01*
Y81840D01*
X142073Y92856D02*
X153089Y81840D01*
X142073Y92856D02*
Y92952D01*
X140596Y94429D02*
X142073Y92952D01*
X140500Y94429D02*
X140596D01*
X162400Y88900D02*
X163000Y89500D01*
X184000Y121429D02*
X185071Y122500D01*
X160000Y92500D02*
X163000Y89500D01*
X175929Y122597D02*
X178686Y125353D01*
X175929Y122500D02*
Y122597D01*
X179353Y125353D02*
X179500Y125500D01*
X178686Y125353D02*
X179353D01*
X159792Y115000D02*
X160000D01*
X159249Y114457D02*
X159792Y115000D01*
X153700Y114457D02*
X159249D01*
X145900Y114500D02*
X145922Y114478D01*
X153678D01*
X153700Y114457D01*
X183618Y116882D02*
X184000Y116500D01*
X177300Y117016D02*
X177434Y116882D01*
G54D139*
X80000Y56058D02*
Y82500D01*
X79000Y83500D02*
X80000Y82500D01*
X79000Y83500D02*
Y85500D01*
X71500Y93000D02*
X79000Y85500D01*
X70000Y93000D02*
X71500D01*
X80000Y56058D02*
X91500Y44558D01*
Y43740D02*
Y44558D01*
G54D140*
X313500Y152000D02*
X319000D01*
X303000Y162500D02*
X313500Y152000D01*
X287400Y162500D02*
X303000D01*
X319000Y152000D02*
X319500Y152500D01*
X313500Y186500D02*
Y194512D01*
X314347Y195358D01*
X320500D01*
X300500Y186500D02*
X313500D01*
X300500Y177642D02*
Y186500D01*
X320346Y177642D02*
X320500D01*
X319500Y176795D02*
X320346Y177642D01*
X319500Y152500D02*
Y176795D01*
G54D141*
X65750Y43750D02*
D03*
G54D142*
X91750Y198215D02*
D03*
G54D143*
X188250Y198946D02*
D03*
G54D144*
X176250Y195750D02*
D03*
G54D145*
X140000Y198000D02*
D03*
G54D146*
X127785Y196000D02*
D03*
G54D147*
X79354Y195080D02*
D03*
G54D148*
X302250Y200750D02*
D03*
G54D149*
X314032Y199750D02*
D03*
G54D150*
X172997Y72500D02*
D03*
G54D151*
X177594Y67520D02*
D03*
G54D152*
X16000Y232000D02*
D03*
Y16000D02*
D03*
X345000Y232000D02*
D03*
Y60000D02*
D03*
G54D153*
X121732Y44134D02*
D03*
Y65787D02*
D03*
X138268Y44134D02*
D03*
Y65787D02*
D03*
X91500Y65394D02*
D03*
Y43740D02*
D03*
X66500Y65394D02*
D03*
Y43740D02*
D03*
G54D154*
X130000Y15000D02*
D03*
X91500D02*
D03*
X66500D02*
D03*
G54D155*
X35500Y183000D02*
D03*
X319500Y152500D02*
D03*
X37500Y106500D02*
D03*
Y53500D02*
D03*
G54D156*
X15500Y183000D02*
D03*
X299500Y152500D02*
D03*
X17500Y106500D02*
D03*
Y53500D02*
D03*
X365500Y59000D02*
D03*
Y49000D02*
D03*
Y39000D02*
D03*
X395500Y49000D02*
D03*
X365500Y29000D02*
D03*
X395500Y39000D02*
D03*
Y29000D02*
D03*
Y59000D02*
D03*
G54D157*
X61728Y171248D02*
D03*
X81728Y147248D02*
D03*
X109478Y171248D02*
D03*
X129478Y147248D02*
D03*
X157228Y171248D02*
D03*
X177228Y147248D02*
D03*
G54D158*
X71728Y171248D02*
D03*
X81728D02*
D03*
X71728Y147248D02*
D03*
X61728D02*
D03*
X119478Y171248D02*
D03*
X129478D02*
D03*
X119478Y147248D02*
D03*
X109478D02*
D03*
X167228Y171248D02*
D03*
X177228D02*
D03*
X167228Y147248D02*
D03*
X157228D02*
D03*
G54D159*
X271000Y207000D02*
D03*
G54D160*
X271000Y220650D02*
D03*
G54D161*
X205500Y80500D02*
D03*
Y88374D02*
D03*
Y72626D02*
D03*
G54D162*
Y96248D02*
D03*
G54D163*
X259400Y19700D02*
D03*
X338100Y36100D02*
D03*
X335100Y72200D02*
D03*
X330500Y73500D02*
D03*
X261200Y58200D02*
D03*
X329000Y16000D02*
D03*
X271900Y62300D02*
D03*
X332000Y19400D02*
D03*
X269700Y64700D02*
D03*
X249200Y68900D02*
D03*
X209000Y66186D02*
D03*
X4700Y5200D02*
D03*
X270900Y53600D02*
D03*
X279400Y58900D02*
D03*
X278600Y84300D02*
D03*
X185300Y96500D02*
D03*
X183100Y94000D02*
D03*
X189150Y115100D02*
D03*
X204400Y117600D02*
D03*
X331700Y95400D02*
D03*
X131300Y120400D02*
D03*
X128400Y109100D02*
D03*
X121000Y104600D02*
D03*
X172500Y66400D02*
D03*
X176700Y86700D02*
D03*
X230400Y95700D02*
D03*
X270500Y94000D02*
D03*
X235000Y57500D02*
D03*
X232500Y63900D02*
D03*
X224500Y71000D02*
D03*
X238500D02*
D03*
X257800Y71800D02*
D03*
X273600Y85100D02*
D03*
X287500Y135500D02*
D03*
X302000Y127000D02*
D03*
X289500Y117000D02*
D03*
X275500Y115500D02*
D03*
Y121000D02*
D03*
X257500Y135000D02*
D03*
X243500Y140500D02*
D03*
X231500Y140000D02*
D03*
X235000Y148500D02*
D03*
X240000D02*
D03*
X235500Y168500D02*
D03*
X117000Y133500D02*
D03*
Y130000D02*
D03*
X86500Y102000D02*
D03*
X101500Y107500D02*
D03*
X119500Y132000D02*
D03*
X158000Y118500D02*
D03*
X266300Y75400D02*
D03*
X221500Y89000D02*
D03*
X232000Y110500D02*
D03*
Y115000D02*
D03*
X186000Y152500D02*
D03*
X130000Y92500D02*
D03*
X62000Y130500D02*
D03*
X11000Y132500D02*
D03*
X9500Y162000D02*
D03*
X206500D02*
D03*
X202500Y184500D02*
D03*
X217500Y181500D02*
D03*
X359000Y74500D02*
D03*
X363000Y83500D02*
D03*
X363500Y104500D02*
D03*
X368500Y123000D02*
D03*
X365500D02*
D03*
X359500Y168000D02*
D03*
X363500D02*
D03*
X312500Y106500D02*
D03*
X304500Y85000D02*
D03*
X303500Y99000D02*
D03*
X282000Y90500D02*
D03*
X292500Y102500D02*
D03*
X199788Y61000D02*
D03*
X212500Y202000D02*
D03*
X215000Y205000D02*
D03*
X228000Y123500D02*
D03*
X238500Y61000D02*
D03*
X205000Y128500D02*
D03*
X95000Y188500D02*
D03*
X94500Y192000D02*
D03*
X17000Y174000D02*
D03*
X215000Y159000D02*
D03*
X238504Y192004D02*
D03*
X216500Y185000D02*
D03*
X240000Y174500D02*
D03*
X266000Y168500D02*
D03*
X147000Y83000D02*
D03*
X256000Y111500D02*
D03*
X255500Y67500D02*
D03*
X74500Y114500D02*
D03*
X251500Y40956D02*
D03*
X246000Y93000D02*
D03*
X250000D02*
D03*
X242500Y116000D02*
D03*
X240000Y128500D02*
D03*
X196500Y165500D02*
D03*
X44500Y179000D02*
D03*
X233000Y230000D02*
D03*
X237000Y235000D02*
D03*
X221000Y182500D02*
D03*
X254500Y149000D02*
D03*
X228500Y190500D02*
D03*
X231000Y192500D02*
D03*
X142000Y190500D02*
D03*
Y187500D02*
D03*
X196500Y172500D02*
D03*
Y184000D02*
D03*
X346584Y131500D02*
D03*
X203500Y105500D02*
D03*
X205000Y111500D02*
D03*
X198500Y109500D02*
D03*
X184500Y101500D02*
D03*
X147500Y181000D02*
D03*
X185500Y162000D02*
D03*
X160000Y92500D02*
D03*
X179500Y125500D02*
D03*
X160000Y115000D02*
D03*
X123500Y96500D02*
D03*
X98000Y120500D02*
D03*
X51500Y181500D02*
D03*
X54000Y131000D02*
D03*
X100000Y181500D02*
D03*
X101500Y127000D02*
D03*
X36500Y133500D02*
D03*
X24000Y136500D02*
D03*
X27000Y148500D02*
D03*
X41500D02*
D03*
X380500Y90500D02*
D03*
X314500Y123993D02*
D03*
X254000Y127500D02*
D03*
X285500Y217000D02*
D03*
X277000Y198500D02*
D03*
X386000Y99000D02*
D03*
X374000Y104000D02*
D03*
X258000Y127500D02*
D03*
X230500Y99000D02*
D03*
X258000Y123500D02*
D03*
X233500Y104000D02*
D03*
X243500Y105500D02*
D03*
X311500Y114000D02*
D03*
X276500Y124500D02*
D03*
X238000Y91500D02*
D03*
X235500Y82000D02*
D03*
X227000D02*
D03*
X220000Y96500D02*
D03*
X229000Y85000D02*
D03*
X250190Y102500D02*
D03*
X297000Y62432D02*
D03*
X252758Y102500D02*
D03*
X297000Y65000D02*
D03*
X245053Y102500D02*
D03*
X297000Y57294D02*
D03*
X247621Y102500D02*
D03*
X297000Y59863D02*
D03*
X285500Y204000D02*
D03*
X325500D02*
D03*
X236000Y101500D02*
D03*
X301500Y67000D02*
D03*
X276500D02*
D03*
X274000Y69500D02*
D03*
X296500D02*
D03*
X240000Y97500D02*
D03*
X212000Y44011D02*
D03*
X231000D02*
D03*
X220500Y48011D02*
D03*
X231000D02*
D03*
X260000Y83500D02*
D03*
X259500Y79500D02*
D03*
X260500Y118000D02*
D03*
X266000D02*
D03*
X314000Y119500D02*
D03*
X297500D02*
D03*
X308000Y89500D02*
D03*
Y71000D02*
D03*
X356500Y109000D02*
D03*
X288165Y145000D02*
D03*
X309500Y136382D02*
D03*
X296000Y76000D02*
D03*
X376000Y53000D02*
D03*
X271500Y88000D02*
D03*
X289500Y121000D02*
D03*
X215500Y95500D02*
D03*
X266000Y109500D02*
D03*
X249500Y159000D02*
D03*
G54D164*
X97700Y205900D02*
D03*
X114800D02*
D03*
X144400D02*
D03*
X161200D02*
D03*
X57100D02*
D03*
X66600Y203500D02*
D03*
Y210000D02*
D03*
X284200Y34500D02*
D03*
X195500Y76500D02*
D03*
X80500Y119000D02*
D03*
X57500Y114000D02*
D03*
X384500Y17000D02*
D03*
X333000Y165000D02*
D03*
X271000Y236500D02*
D03*
X275500Y174000D02*
D03*
X255000Y170000D02*
D03*
X252500Y189500D02*
D03*
X91500Y32000D02*
D03*
X41000Y14000D02*
D03*
X185500Y48500D02*
D03*
X130500Y32000D02*
D03*
Y55000D02*
D03*
X148500Y74000D02*
D03*
X158000Y131500D02*
D03*
X303000Y209000D02*
D03*
X305500Y213500D02*
D03*
X300500D02*
D03*
X310500Y222500D02*
D03*
X297000Y223000D02*
D03*
X276000Y141000D02*
D03*
X221000Y122500D02*
D03*
X196000Y123000D02*
D03*
X209000Y146500D02*
D03*
X204000Y40500D02*
D03*
X172000Y44000D02*
D03*
X67000Y29500D02*
D03*
X16500Y195000D02*
D03*
X14000Y80000D02*
D03*
X152500Y203500D02*
D03*
Y210000D02*
D03*
X106000Y203500D02*
D03*
Y210000D02*
D03*
X184000D02*
D03*
X177000D02*
D03*
X170000D02*
D03*
X184000Y203500D02*
D03*
X170000D02*
D03*
X177000D02*
D03*
X136500Y210000D02*
D03*
X130000D02*
D03*
X123500D02*
D03*
X136500Y203500D02*
D03*
X123500D02*
D03*
X130000D02*
D03*
X89500Y210000D02*
D03*
X82000D02*
D03*
X75000D02*
D03*
X89500Y203500D02*
D03*
X75000D02*
D03*
X82000D02*
D03*
M02*
